<svg width="143" height="28" viewBox="0 0 143 28" fill="none" xmlns="http://www.w3.org/2000/svg">
<path fill-rule="evenodd" clip-rule="evenodd" d="M56.2863 22.0477C51.0291 25.9336 43.4074 28 36.8438 28C27.6457 28 19.3623 24.5944 13.0937 18.9254C12.6021 18.4798 13.0405 17.872 13.632 18.2167C20.3947 22.1583 28.7587 24.5322 37.3959 24.5322C43.2228 24.5322 49.6284 23.3206 55.5222 20.8167C56.4112 20.4397 57.1567 21.4035 56.2863 22.0477Z" fill="#999999"/>
<path fill-rule="evenodd" clip-rule="evenodd" d="M58.4743 19.5452C57.8014 18.6831 54.0296 19.1367 52.3347 19.3401C51.8213 19.4023 51.7415 18.9527 52.2041 18.6274C55.2135 16.5101 60.145 17.1211 60.718 17.8306C61.2951 18.545 60.5657 23.4972 57.7465 25.8599C57.3121 26.2232 56.8995 26.0294 57.0921 25.55C57.7272 23.9622 59.1473 20.4089 58.4743 19.5452Z" fill="#999999"/>
<path fill-rule="evenodd" clip-rule="evenodd" d="M52.4539 3.67123V1.61447C52.4555 1.30128 52.6908 1.09302 52.9745 1.09382L62.1799 1.09302C62.4741 1.09302 62.711 1.30693 62.711 1.61205V3.3758C62.7078 3.67204 62.4588 4.05789 62.0179 4.67055L57.2492 11.4898C59.019 11.4487 60.8912 11.7142 62.4999 12.6191C62.8625 12.8233 62.9601 13.126 62.9883 13.4223V15.6171C62.9883 15.9198 62.6578 16.2693 62.3097 16.0877C59.4768 14.6008 55.7171 14.4386 52.5836 16.1054C52.2637 16.2766 51.9292 15.9311 51.9292 15.6284V13.5417C51.9292 13.2084 51.9356 12.6369 52.2717 12.1283L57.7956 4.19027L52.9858 4.18946C52.6916 4.18946 52.4555 3.97959 52.4539 3.67123Z" fill="#999999"/>
<path fill-rule="evenodd" clip-rule="evenodd" d="M18.8753 16.5196H16.0747C15.8079 16.5026 15.5951 16.3025 15.5734 16.0458L15.5758 1.64925C15.5758 1.36188 15.8176 1.13183 16.1166 1.13183L18.7246 1.13102C18.997 1.14475 19.2162 1.35139 19.2331 1.61454V3.49372H19.2863C19.9657 1.67589 21.2464 0.827515 22.9719 0.827515C24.7232 0.827515 25.8217 1.67589 26.6058 3.49372C27.2852 1.67589 28.8278 0.827515 30.4743 0.827515C31.651 0.827515 32.9316 1.31265 33.7158 2.40318C34.6048 3.6156 34.4226 5.37208 34.4226 6.91707L34.4194 16.0022C34.4194 16.2887 34.1784 16.5196 33.8794 16.5196H31.0828C30.8007 16.5018 30.5799 16.279 30.5799 16.003L30.5791 8.37085C30.5791 7.76545 30.6315 6.25113 30.5001 5.67559C30.2914 4.70533 29.6644 4.43249 28.8544 4.43249C28.1742 4.43249 27.4682 4.88695 27.1805 5.61344C26.8927 6.34154 26.9193 7.55234 26.9193 8.37085V16.0022C26.9193 16.2887 26.6776 16.5196 26.3794 16.5196H23.582C23.3007 16.5018 23.0791 16.279 23.0791 16.003L23.0758 8.37085C23.0758 6.76532 23.3378 4.40344 21.3511 4.40344C19.3379 4.40344 19.4169 6.70478 19.4169 8.37085L19.4153 16.0022C19.4153 16.2887 19.1735 16.5196 18.8753 16.5196Z" fill="#999999"/>
<path fill-rule="evenodd" clip-rule="evenodd" d="M70.6609 3.76655C68.5961 3.76655 68.4655 6.58289 68.4655 8.34018C68.4655 10.0975 68.4397 13.8542 70.6359 13.8542C72.8055 13.8542 72.9103 10.8248 72.9103 8.97706C72.9103 7.76545 72.8571 6.31086 72.4912 5.15979C72.1777 4.15966 71.5498 3.76655 70.6609 3.76655ZM70.6359 0.827515C74.7921 0.827515 77.0399 4.40344 77.0399 8.9472C77.0399 13.3384 74.5568 16.8231 70.6359 16.8231C66.5571 16.8231 64.3351 13.248 64.3351 8.79544C64.3351 4.31141 66.5828 0.827515 70.6359 0.827515Z" fill="#999999"/>
<path fill-rule="evenodd" clip-rule="evenodd" d="M82.4307 16.5196H79.6397C79.3601 16.5018 79.1376 16.279 79.1376 16.003L79.1328 1.60162C79.157 1.33767 79.3891 1.13183 79.6712 1.13183L82.2687 1.13102C82.5137 1.14394 82.7152 1.31022 82.7668 1.53382V3.73588H82.8192C83.6041 1.76629 84.701 0.827515 86.6353 0.827515C87.8901 0.827515 89.1192 1.28197 89.9034 2.52426C90.6351 3.67534 90.6351 5.61344 90.6351 7.00748V16.0668C90.6045 16.3218 90.3756 16.5196 90.0984 16.5196H87.2913C87.0318 16.5034 86.8231 16.3121 86.7924 16.0668V8.25058C86.7924 6.67491 86.9762 4.37195 85.0411 4.37195C84.3617 4.37195 83.7339 4.82641 83.4204 5.52303C83.0279 6.40208 82.9755 7.28032 82.9755 8.25058V16.0022C82.9707 16.2887 82.7289 16.5196 82.4307 16.5196Z" fill="#999999"/>
<path fill-rule="evenodd" clip-rule="evenodd" d="M47.9382 16.4845C47.7537 16.6508 47.4869 16.6621 47.2774 16.5499C46.3473 15.7758 46.1805 15.4182 45.6719 14.6804C44.135 16.2488 43.0462 16.7194 41.0547 16.7194C38.6973 16.7194 36.863 15.2616 36.863 12.3476C36.863 10.0705 38.0953 8.52226 39.8498 7.76349C41.369 7.09512 43.4911 6.97404 45.1158 6.79161V6.42756C45.1158 5.75839 45.1682 4.97055 44.7749 4.3934C44.434 3.87679 43.7796 3.6645 43.2033 3.6645C42.1347 3.6645 41.1861 4.21259 40.9524 5.34833C40.9032 5.60098 40.7194 5.85202 40.4664 5.86494L37.7512 5.57031C37.5223 5.51784 37.2676 5.3338 37.3329 4.98347C37.9494 1.73124 40.8492 0.717386 43.4846 0.689941H43.6925C45.0417 0.706893 46.7648 1.0774 47.8141 2.0856C49.1769 3.36099 49.0448 5.06096 49.0448 6.9135V11.2829C49.0448 12.5978 49.5904 13.1742 50.1022 13.8821C50.2819 14.138 50.3214 14.4407 50.0933 14.628C49.5211 15.1083 48.5048 15.9921 47.9463 16.491L47.9382 16.4845ZM45.1158 9.64589C45.1158 10.7388 45.1416 11.6494 44.592 12.6213C44.1463 13.4099 43.4387 13.8958 42.6529 13.8958C41.5794 13.8958 40.9508 13.0765 40.9508 11.8617C40.9508 9.47234 43.0897 9.03806 45.1158 9.03806V9.64589Z" fill="#999999"/>
<path fill-rule="evenodd" clip-rule="evenodd" d="M11.2269 16.4803C11.0415 16.6466 10.7739 16.6579 10.5652 16.5457C9.63434 15.7716 9.46751 15.414 8.95977 14.6762C7.42204 16.2446 6.33403 16.7152 4.34256 16.7152C1.98519 16.7152 0.150879 15.2574 0.150879 12.3434C0.150879 10.0663 1.38154 8.51805 3.13768 7.75928C4.65687 7.09091 6.7789 6.96983 8.40287 6.7874V6.42335C8.40287 5.75418 8.45606 4.96634 8.06276 4.38919C7.72185 3.87258 7.06662 3.66028 6.49118 3.66028C5.42251 3.66028 4.47231 4.20838 4.2402 5.34412C4.19185 5.59677 4.00729 5.84781 3.75342 5.86073L1.03902 5.5661C0.809329 5.51363 0.554653 5.32959 0.62074 4.97926C1.23567 1.72703 4.13624 0.713175 6.77246 0.68573H6.98039C8.32953 0.702681 10.0526 1.07319 11.102 2.08139C12.464 3.35677 12.3326 5.05675 12.3326 6.90929V11.2787C12.3326 12.5936 12.8782 13.17 13.39 13.8779C13.5681 14.1338 13.6092 14.4365 13.3811 14.6238C12.8089 15.104 11.7918 15.9879 11.2333 16.4868L11.2269 16.4803ZM8.40287 9.64168C8.40287 10.7346 8.42946 11.6452 7.87901 12.617C7.43413 13.4057 6.72652 13.8916 5.93992 13.8916C4.86642 13.8916 4.23779 13.0723 4.23779 11.8575C4.23779 9.46813 6.37755 9.03385 8.40287 9.03385V9.64168Z" fill="#999999"/>
<path fill-rule="evenodd" clip-rule="evenodd" d="M128.918 21.6835C128.918 21.3187 128.918 20.9909 128.918 20.6261C128.918 20.325 129.066 20.1175 129.379 20.1361C129.964 20.2192 130.792 20.3024 131.379 20.1813C132.147 20.0215 132.697 19.4766 133.023 18.73C133.481 17.679 133.785 16.8314 133.977 16.2752L128.151 1.8198C128.052 1.5744 128.023 1.11914 128.513 1.11914H130.549C130.938 1.11914 131.096 1.36615 131.183 1.60831L135.407 13.3499L139.439 1.60831C139.521 1.36776 139.686 1.11914 140.071 1.11914H141.992C142.478 1.11914 142.451 1.5736 142.354 1.8198L136.574 16.7265C135.827 18.7106 134.83 21.8708 132.587 22.4197C131.462 22.7143 130.042 22.6078 129.209 22.2582C128.999 22.1525 128.918 21.87 128.918 21.6835Z" fill="#999999"/>
<path fill-rule="evenodd" clip-rule="evenodd" d="M126.201 15.6392C126.201 15.908 125.981 16.1284 125.711 16.1284H124.275C123.965 16.1284 123.753 15.904 123.713 15.6392L123.569 14.6601C122.909 15.2194 122.099 15.711 121.22 16.0533C119.531 16.7104 117.584 16.8193 115.934 15.8039C114.74 15.0701 114.106 13.6357 114.106 12.1561C114.106 11.0115 114.459 9.87655 115.24 9.05239C116.282 7.92634 117.792 7.37341 119.616 7.37341C120.718 7.37341 122.294 7.50337 123.441 7.87872V5.90833C123.441 3.90484 122.599 3.0379 120.378 3.0379C118.681 3.0379 117.383 3.2946 115.576 3.85722C115.286 3.8669 115.117 3.64654 115.117 3.37774V2.25411C115.117 1.9845 115.347 1.72377 115.596 1.64467C116.886 1.08124 118.714 0.730104 120.657 0.665527C123.19 0.665527 126.201 1.23784 126.201 5.13987V15.6392ZM123.441 12.7623V9.78937C122.477 9.52542 120.882 9.41564 120.265 9.41564C119.289 9.41564 118.222 9.6465 117.664 10.2479C117.247 10.6886 117.059 11.3214 117.059 11.9333C117.059 12.7244 117.332 13.5179 117.97 13.9102C118.712 14.4147 119.862 14.3533 120.942 14.0458C121.981 13.7503 122.956 13.2281 123.441 12.7623Z" fill="#999999"/>
<path fill-rule="evenodd" clip-rule="evenodd" d="M105.025 3.08252C108.212 3.08252 109.08 5.59212 109.08 8.46577C109.098 10.4031 108.742 12.1305 107.74 13.1193C106.991 13.8595 106.153 14.0613 104.893 14.0613C103.771 14.0613 102.295 13.4753 101.193 12.6592V4.44266C102.341 3.55958 103.805 3.08252 105.025 3.08252ZM100.704 22.2004H98.7807C98.5115 22.2004 98.2915 21.98 98.2915 21.7112C98.2915 15.0195 98.2915 8.32693 98.2915 1.6352C98.2915 1.3664 98.5115 1.14603 98.7807 1.14603H100.253C100.563 1.14603 100.775 1.37043 100.814 1.6352L100.969 2.68699C102.348 1.46084 104.123 0.674622 105.815 0.674622C110.553 0.674622 112.111 4.58473 112.111 8.65062C112.111 13.0007 109.728 16.4959 105.697 16.4959C104 16.4959 102.413 15.8687 101.193 14.7789V21.7112C101.193 21.98 100.973 22.2004 100.704 22.2004Z" fill="#999999"/>
</svg>
