<svg width="338" height="305" viewBox="0 0 338 305" fill="none" xmlns="http://www.w3.org/2000/svg">
<path d="M0 27.0343C0 20.4767 5.31603 15.1606 11.8737 15.1606H270.126C276.684 15.1606 282 20.4767 282 27.0343V305H0V27.0343Z" fill="url(#paint0_linear_2960_1068)"/>
<path d="M7.52002 29.1491C7.52002 25.5151 10.466 22.5691 14.1 22.5691H267.9C271.534 22.5691 274.48 25.5151 274.48 29.1491V281.85H7.52002V29.1491Z" fill="url(#paint1_linear_2960_1068)"/>
<rect x="25.38" y="187.111" width="227.48" height="113.68" fill="white"/>
<path d="M81.7526 187.11V300.79" stroke="#F4F6FA" stroke-width="0.663208"/>
<path d="M139.452 187.11V300.79" stroke="#F4F6FA" stroke-width="0.663208"/>
<path d="M196.488 187.11V300.79" stroke="#F4F6FA" stroke-width="0.663208"/>
<path d="M25.38 243.949H252.86" stroke="#F4F6FA" stroke-width="0.663208" stroke-linecap="round"/>
<path d="M45.4106 289.075H47.3007V289.804H44.6479V285.162H45.4106V289.075ZM49.2819 289.89C48.7955 289.89 48.3821 289.722 48.0417 289.386C47.7012 289.05 47.531 288.637 47.531 288.146C47.531 287.655 47.7012 287.242 48.0417 286.906C48.3821 286.57 48.7955 286.402 49.2819 286.402C49.7727 286.402 50.1861 286.57 50.5221 286.906C50.8625 287.242 51.0328 287.655 51.0328 288.146C51.0328 288.637 50.8625 289.05 50.5221 289.386C50.1861 289.722 49.7727 289.89 49.2819 289.89ZM48.5457 288.896C48.7447 289.095 48.9901 289.194 49.2819 289.194C49.5737 289.194 49.8191 289.095 50.018 288.896C50.217 288.697 50.3165 288.447 50.3165 288.146C50.3165 287.846 50.217 287.596 50.018 287.397C49.8191 287.198 49.5737 287.098 49.2819 287.098C48.9901 287.098 48.7447 287.198 48.5457 287.397C48.3468 287.596 48.2473 287.846 48.2473 288.146C48.2473 288.447 48.3468 288.697 48.5457 288.896ZM54.3067 286.488H55.023V289.804H54.3067V289.327C54.037 289.703 53.6501 289.89 53.1461 289.89C52.6907 289.89 52.3016 289.722 51.9789 289.386C51.6561 289.046 51.4947 288.633 51.4947 288.146C51.4947 287.655 51.6561 287.242 51.9789 286.906C52.3016 286.57 52.6907 286.402 53.1461 286.402C53.6501 286.402 54.037 286.588 54.3067 286.959V286.488ZM52.5094 288.909C52.7084 289.108 52.9582 289.207 53.2589 289.207C53.5595 289.207 53.8093 289.108 54.0083 288.909C54.2072 288.705 54.3067 288.451 54.3067 288.146C54.3067 287.841 54.2072 287.589 54.0083 287.39C53.8093 287.187 53.5595 287.085 53.2589 287.085C52.9582 287.085 52.7084 287.187 52.5094 287.39C52.3105 287.589 52.211 287.841 52.211 288.146C52.211 288.451 52.3105 288.705 52.5094 288.909ZM57.6021 286.402C57.9823 286.402 58.2896 286.524 58.5239 286.767C58.7583 287.01 58.8754 287.344 58.8754 287.768V289.804H58.1592V287.841C58.1592 287.594 58.0929 287.403 57.9602 287.271C57.8276 287.138 57.6463 287.072 57.4164 287.072C57.1644 287.072 56.961 287.151 56.8062 287.311C56.6515 287.465 56.5741 287.704 56.5741 288.027V289.804H55.8578V286.488H56.5741V286.913C56.7908 286.572 57.1334 286.402 57.6021 286.402ZM60.29 287.403C60.29 287.514 60.3497 287.602 60.4691 287.669C60.5929 287.731 60.741 287.786 60.9134 287.834C61.0903 287.879 61.2671 287.932 61.444 287.994C61.6208 288.056 61.7689 288.162 61.8883 288.312C62.0121 288.458 62.074 288.644 62.074 288.869C62.074 289.187 61.9502 289.437 61.7026 289.619C61.4594 289.8 61.1522 289.89 60.7808 289.89C60.4536 289.89 60.1728 289.822 59.9385 289.685C59.7042 289.548 59.5339 289.358 59.4278 289.114L60.0446 288.756C60.1596 289.075 60.4049 289.234 60.7808 289.234C61.1566 289.234 61.3445 289.11 61.3445 288.862C61.3445 288.756 61.2826 288.67 61.1588 288.604C61.0394 288.537 60.8913 288.482 60.7144 288.438C60.542 288.389 60.3674 288.334 60.1905 288.272C60.0137 288.21 59.8633 288.109 59.7395 287.967C59.6202 287.821 59.5605 287.638 59.5605 287.417C59.5605 287.112 59.6754 286.866 59.9053 286.68C60.1397 286.495 60.4293 286.402 60.7741 286.402C61.0483 286.402 61.2914 286.464 61.5037 286.588C61.7203 286.707 61.8861 286.875 62.0011 287.092L61.3975 287.43C61.2826 287.178 61.0748 287.052 60.7741 287.052C60.6371 287.052 60.5221 287.083 60.4293 287.145C60.3364 287.202 60.29 287.288 60.29 287.403Z" fill="#0B4A94"/>
<path d="M45.8711 231.61C45.9242 231.862 46.0458 232.057 46.2359 232.194C46.426 232.326 46.6581 232.393 46.9323 232.393C47.3125 232.393 47.5977 232.255 47.7878 231.981L48.3781 232.326C48.0509 232.808 47.5667 233.049 46.9256 233.049C46.3862 233.049 45.9507 232.886 45.6191 232.558C45.2875 232.227 45.1217 231.809 45.1217 231.305C45.1217 230.81 45.2853 230.396 45.6125 230.065C45.9397 229.729 46.3597 229.561 46.8726 229.561C47.3589 229.561 47.7569 229.731 48.0664 230.071C48.3803 230.412 48.5372 230.825 48.5372 231.312C48.5372 231.387 48.5284 231.486 48.5107 231.61H45.8711ZM45.8645 231.026H47.8143C47.7657 230.757 47.653 230.553 47.4761 230.416C47.3037 230.279 47.1003 230.211 46.8659 230.211C46.6007 230.211 46.3796 230.284 46.2027 230.429C46.0259 230.575 45.9131 230.774 45.8645 231.026ZM50.925 228.32C51.3627 228.32 51.7275 228.466 52.0193 228.758C52.3155 229.05 52.4636 229.413 52.4636 229.846C52.4636 230.275 52.3155 230.637 52.0193 230.933C51.7275 231.225 51.3627 231.371 50.925 231.371H49.9766V232.963H49.2139V228.32H50.925ZM50.925 230.655C51.1505 230.655 51.3362 230.58 51.4821 230.429C51.628 230.275 51.7009 230.08 51.7009 229.846C51.7009 229.611 51.628 229.419 51.4821 229.269C51.3362 229.114 51.1505 229.037 50.925 229.037H49.9766V230.655H50.925ZM56.9667 232.353C56.5025 232.817 55.9343 233.049 55.2623 233.049C54.5902 233.049 54.0198 232.817 53.5512 232.353C53.0869 231.884 52.8548 231.314 52.8548 230.642C52.8548 229.97 53.0869 229.401 53.5512 228.937C54.0198 228.469 54.5902 228.234 55.2623 228.234C55.9343 228.234 56.5025 228.469 56.9667 228.937C57.4354 229.401 57.6697 229.97 57.6697 230.642C57.6697 231.314 57.4354 231.884 56.9667 232.353ZM54.0884 231.835C54.4067 232.149 54.798 232.306 55.2623 232.306C55.7265 232.306 56.1156 232.149 56.4295 231.835C56.7478 231.517 56.907 231.119 56.907 230.642C56.907 230.164 56.7478 229.768 56.4295 229.455C56.1156 229.136 55.7265 228.977 55.2623 228.977C54.798 228.977 54.4067 229.136 54.0884 229.455C53.7745 229.768 53.6175 230.164 53.6175 230.642C53.6175 231.119 53.7745 231.517 54.0884 231.835ZM59.7358 233.049C59.2892 233.049 58.909 232.947 58.5951 232.744C58.2856 232.541 58.0689 232.262 57.9451 231.908L58.6017 231.524C58.7874 232.045 59.1721 232.306 59.7557 232.306C60.0431 232.306 60.2575 232.251 60.399 232.141C60.5449 232.026 60.6179 231.877 60.6179 231.696C60.6179 231.506 60.5405 231.362 60.3857 231.265C60.231 231.163 59.9569 231.053 59.5634 230.933C59.3423 230.867 59.1632 230.805 59.0262 230.748C58.8891 230.69 58.7432 230.611 58.5885 230.509C58.4381 230.403 58.3254 230.272 58.2502 230.118C58.1751 229.963 58.1375 229.782 58.1375 229.574C58.1375 229.163 58.2834 228.838 58.5752 228.599C58.867 228.356 59.2185 228.234 59.6297 228.234C60.0011 228.234 60.3261 228.325 60.6046 228.506C60.8832 228.687 61.0976 228.937 61.2479 229.256L60.6046 229.627C60.4101 229.194 60.0851 228.977 59.6297 228.977C59.4086 228.977 59.2318 229.03 59.0991 229.136C58.9665 229.238 58.9002 229.377 58.9002 229.554C58.9002 229.726 58.9665 229.864 59.0991 229.965C59.2362 230.062 59.4816 230.166 59.8353 230.277C60.0121 230.334 60.1404 230.379 60.2199 230.41C60.3039 230.436 60.4189 230.48 60.5648 230.542C60.7151 230.604 60.8279 230.666 60.903 230.728C60.9782 230.79 61.0578 230.867 61.1418 230.96C61.2302 231.053 61.2921 231.159 61.3275 231.278C61.3629 231.398 61.3806 231.533 61.3806 231.683C61.3806 232.103 61.228 232.437 60.9229 232.684C60.6223 232.928 60.2266 233.049 59.7358 233.049Z" fill="#0B4A94"/>
<path d="M100.447 232.233H102.337V232.963H99.6846V228.32H100.447V232.233ZM103.317 231.61C103.37 231.862 103.492 232.057 103.682 232.194C103.872 232.326 104.104 232.393 104.378 232.393C104.758 232.393 105.044 232.255 105.234 231.981L105.824 232.326C105.497 232.808 105.013 233.049 104.372 233.049C103.832 233.049 103.397 232.886 103.065 232.558C102.733 232.227 102.568 231.809 102.568 231.305C102.568 230.81 102.731 230.396 103.058 230.065C103.386 229.729 103.806 229.561 104.319 229.561C104.805 229.561 105.203 229.731 105.512 230.071C105.826 230.412 105.983 230.825 105.983 231.312C105.983 231.387 105.974 231.486 105.957 231.61H103.317ZM103.31 231.026H105.26C105.212 230.757 105.099 230.553 104.922 230.416C104.75 230.279 104.546 230.211 104.312 230.211C104.047 230.211 103.826 230.284 103.649 230.429C103.472 230.575 103.359 230.774 103.31 231.026ZM109.22 228.32H109.937V232.963H109.22V232.485C108.951 232.861 108.564 233.049 108.06 233.049C107.604 233.049 107.215 232.881 106.892 232.545C106.57 232.205 106.408 231.791 106.408 231.305C106.408 230.814 106.57 230.401 106.892 230.065C107.215 229.729 107.604 229.561 108.06 229.561C108.564 229.561 108.951 229.746 109.22 230.118V228.32ZM107.423 232.068C107.622 232.267 107.872 232.366 108.172 232.366C108.473 232.366 108.723 232.267 108.922 232.068C109.121 231.864 109.22 231.61 109.22 231.305C109.22 231 109.121 230.748 108.922 230.549C108.723 230.345 108.473 230.244 108.172 230.244C107.872 230.244 107.622 230.345 107.423 230.549C107.224 230.748 107.125 231 107.125 231.305C107.125 231.61 107.224 231.864 107.423 232.068ZM113.411 229.647H114.114V232.81C114.114 233.314 113.948 233.701 113.617 233.971C113.285 234.241 112.883 234.376 112.41 234.376C111.645 234.376 111.121 234.108 110.838 233.573L111.455 233.215C111.627 233.555 111.95 233.726 112.423 233.726C112.732 233.726 112.973 233.644 113.146 233.48C113.323 233.321 113.411 233.098 113.411 232.81V232.406C113.141 232.79 112.757 232.983 112.257 232.983C111.788 232.983 111.393 232.817 111.07 232.485C110.747 232.149 110.586 231.745 110.586 231.272C110.586 230.799 110.747 230.396 111.07 230.065C111.393 229.729 111.788 229.561 112.257 229.561C112.757 229.561 113.141 229.753 113.411 230.138V229.647ZM111.6 232.015C111.804 232.213 112.056 232.313 112.357 232.313C112.657 232.313 112.907 232.213 113.106 232.015C113.309 231.816 113.411 231.568 113.411 231.272C113.411 230.975 113.309 230.728 113.106 230.529C112.907 230.33 112.657 230.23 112.357 230.23C112.056 230.23 111.804 230.33 111.6 230.529C111.402 230.728 111.302 230.975 111.302 231.272C111.302 231.568 111.402 231.816 111.6 232.015ZM115.513 231.61C115.566 231.862 115.687 232.057 115.877 232.194C116.068 232.326 116.3 232.393 116.574 232.393C116.954 232.393 117.239 232.255 117.429 231.981L118.02 232.326C117.692 232.808 117.208 233.049 116.567 233.049C116.028 233.049 115.592 232.886 115.261 232.558C114.929 232.227 114.763 231.809 114.763 231.305C114.763 230.81 114.927 230.396 115.254 230.065C115.581 229.729 116.001 229.561 116.514 229.561C117 229.561 117.398 229.731 117.708 230.071C118.022 230.412 118.179 230.825 118.179 231.312C118.179 231.387 118.17 231.486 118.152 231.61H115.513ZM115.506 231.026H117.456C117.407 230.757 117.294 230.553 117.118 230.416C116.945 230.279 116.742 230.211 116.507 230.211C116.242 230.211 116.021 230.284 115.844 230.429C115.667 230.575 115.555 230.774 115.506 231.026ZM119.525 230.204C119.707 229.793 120.047 229.587 120.547 229.587V230.363C120.272 230.345 120.034 230.412 119.83 230.562C119.627 230.708 119.525 230.951 119.525 231.292V232.963H118.809V229.647H119.525V230.204Z" fill="#0B4A94"/>
<path d="M151.6 228.32C152.037 228.32 152.402 228.466 152.694 228.758C152.99 229.05 153.138 229.413 153.138 229.846C153.138 230.275 152.99 230.637 152.694 230.933C152.402 231.225 152.037 231.371 151.6 231.371H150.651V232.963H149.889V228.32H151.6ZM151.6 230.655C151.825 230.655 152.011 230.58 152.157 230.429C152.303 230.275 152.376 230.08 152.376 229.846C152.376 229.611 152.303 229.419 152.157 229.269C152.011 229.114 151.825 229.037 151.6 229.037H150.651V230.655H151.6ZM156.147 229.647H156.864V232.963H156.147V232.485C155.878 232.861 155.491 233.049 154.987 233.049C154.531 233.049 154.142 232.881 153.819 232.545C153.497 232.205 153.335 231.791 153.335 231.305C153.335 230.814 153.497 230.401 153.819 230.065C154.142 229.729 154.531 229.561 154.987 229.561C155.491 229.561 155.878 229.746 156.147 230.118V229.647ZM154.35 232.068C154.549 232.267 154.799 232.366 155.099 232.366C155.4 232.366 155.65 232.267 155.849 232.068C156.048 231.864 156.147 231.61 156.147 231.305C156.147 231 156.048 230.748 155.849 230.549C155.65 230.345 155.4 230.244 155.099 230.244C154.799 230.244 154.549 230.345 154.35 230.549C154.151 230.748 154.052 231 154.052 231.305C154.052 231.61 154.151 231.864 154.35 232.068ZM159.933 229.647H160.696L159.423 233.069C159.104 233.927 158.565 234.334 157.804 234.289V233.619C158.03 233.633 158.211 233.584 158.348 233.474C158.485 233.367 158.598 233.199 158.687 232.97L158.72 232.903L157.314 229.647H158.096L159.084 232.054L159.933 229.647ZM164.765 229.561C165.141 229.561 165.444 229.682 165.674 229.925C165.904 230.169 166.019 230.496 166.019 230.907V232.963H165.302V230.953C165.302 230.723 165.245 230.547 165.13 230.423C165.015 230.295 164.858 230.23 164.659 230.23C164.438 230.23 164.261 230.303 164.128 230.449C164 230.595 163.936 230.814 163.936 231.106V232.963H163.22V230.953C163.22 230.723 163.165 230.547 163.054 230.423C162.948 230.295 162.795 230.23 162.596 230.23C162.38 230.23 162.203 230.306 162.066 230.456C161.929 230.602 161.86 230.819 161.86 231.106V232.963H161.144V229.647H161.86V230.045C162.072 229.722 162.389 229.561 162.809 229.561C163.233 229.561 163.547 229.735 163.75 230.085C163.971 229.735 164.31 229.561 164.765 229.561ZM167.349 231.61C167.402 231.862 167.523 232.057 167.714 232.194C167.904 232.326 168.136 232.393 168.41 232.393C168.79 232.393 169.075 232.255 169.265 231.981L169.856 232.326C169.529 232.808 169.044 233.049 168.403 233.049C167.864 233.049 167.428 232.886 167.097 232.558C166.765 232.227 166.599 231.809 166.599 231.305C166.599 230.81 166.763 230.396 167.09 230.065C167.417 229.729 167.837 229.561 168.35 229.561C168.837 229.561 169.235 229.731 169.544 230.071C169.858 230.412 170.015 230.825 170.015 231.312C170.015 231.387 170.006 231.486 169.988 231.61H167.349ZM167.342 231.026H169.292C169.243 230.757 169.131 230.553 168.954 230.416C168.781 230.279 168.578 230.211 168.344 230.211C168.078 230.211 167.857 230.284 167.68 230.429C167.504 230.575 167.391 230.774 167.342 231.026ZM172.389 229.561C172.77 229.561 173.077 229.682 173.311 229.925C173.546 230.169 173.663 230.502 173.663 230.927V232.963H172.946V231C172.946 230.752 172.88 230.562 172.748 230.429C172.615 230.297 172.434 230.23 172.204 230.23C171.952 230.23 171.748 230.31 171.594 230.469C171.439 230.624 171.361 230.863 171.361 231.185V232.963H170.645V229.647H171.361V230.071C171.578 229.731 171.921 229.561 172.389 229.561ZM176.284 230.337H175.462V231.928C175.462 232.065 175.493 232.165 175.555 232.227C175.617 232.284 175.707 232.317 175.827 232.326C175.951 232.331 176.103 232.328 176.284 232.32V232.963C175.736 233.029 175.343 232.983 175.104 232.824C174.865 232.66 174.746 232.362 174.746 231.928V230.337H174.136V229.647H174.746V228.931L175.462 228.718V229.647H176.284V230.337ZM178.624 232.963V228.121H179.341V232.963H178.624ZM180.849 229.017C180.76 229.105 180.654 229.149 180.53 229.149C180.407 229.149 180.298 229.105 180.205 229.017C180.117 228.924 180.073 228.816 180.073 228.692C180.073 228.568 180.117 228.462 180.205 228.373C180.294 228.281 180.402 228.234 180.53 228.234C180.659 228.234 180.767 228.281 180.855 228.373C180.944 228.462 180.988 228.568 180.988 228.692C180.988 228.816 180.942 228.924 180.849 229.017ZM180.172 232.963V229.647H180.889V232.963H180.172ZM183.464 229.561C183.845 229.561 184.152 229.682 184.386 229.925C184.621 230.169 184.738 230.502 184.738 230.927V232.963H184.022V231C184.022 230.752 183.955 230.562 183.823 230.429C183.69 230.297 183.509 230.23 183.279 230.23C183.027 230.23 182.823 230.31 182.669 230.469C182.514 230.624 182.436 230.863 182.436 231.185V232.963H181.72V229.647H182.436V230.071C182.653 229.731 182.996 229.561 183.464 229.561ZM188.44 232.963H187.585L186.225 231.431V232.963H185.509V228.32H186.225V231.113L187.512 229.647H188.387L186.928 231.272L188.44 232.963Z" fill="#0B4A94"/>
<path d="M206.356 230.555C206.56 230.662 206.719 230.807 206.834 230.993C206.949 231.179 207.006 231.393 207.006 231.636C207.006 232.017 206.872 232.333 206.602 232.585C206.332 232.837 206.003 232.963 205.614 232.963H203.624V228.32H205.468C205.848 228.32 206.169 228.444 206.429 228.692C206.695 228.935 206.827 229.24 206.827 229.607C206.827 230.009 206.67 230.326 206.356 230.555ZM205.468 229.037H204.387V230.257H205.468C205.636 230.257 205.777 230.2 205.892 230.085C206.007 229.965 206.065 229.819 206.065 229.647C206.065 229.474 206.007 229.331 205.892 229.216C205.777 229.096 205.636 229.037 205.468 229.037ZM205.614 232.247C205.791 232.247 205.939 232.185 206.058 232.061C206.182 231.933 206.244 231.778 206.244 231.597C206.244 231.415 206.182 231.263 206.058 231.139C205.939 231.011 205.791 230.947 205.614 230.947H204.387V232.247H205.614ZM208.302 229.017C208.214 229.105 208.107 229.149 207.984 229.149C207.86 229.149 207.752 229.105 207.659 229.017C207.57 228.924 207.526 228.816 207.526 228.692C207.526 228.568 207.57 228.462 207.659 228.373C207.747 228.281 207.855 228.234 207.984 228.234C208.112 228.234 208.22 228.281 208.309 228.373C208.397 228.462 208.441 228.568 208.441 228.692C208.441 228.816 208.395 228.924 208.302 229.017ZM207.626 232.963V229.647H208.342V232.963H207.626ZM209.173 232.963V228.121H209.89V232.963H209.173ZM210.721 232.963V228.121H211.438V232.963H210.721ZM215.685 228.32C216.122 228.32 216.487 228.466 216.779 228.758C217.075 229.05 217.223 229.413 217.223 229.846C217.223 230.275 217.075 230.637 216.779 230.933C216.487 231.225 216.122 231.371 215.685 231.371H214.736V232.963H213.974V228.32H215.685ZM215.685 230.655C215.91 230.655 216.096 230.58 216.242 230.429C216.388 230.275 216.461 230.08 216.461 229.846C216.461 229.611 216.388 229.419 216.242 229.269C216.096 229.114 215.91 229.037 215.685 229.037H214.736V230.655H215.685ZM220.232 229.647H220.949V232.963H220.232V232.485C219.963 232.861 219.576 233.049 219.072 233.049C218.616 233.049 218.227 232.881 217.904 232.545C217.582 232.205 217.42 231.791 217.42 231.305C217.42 230.814 217.582 230.401 217.904 230.065C218.227 229.729 218.616 229.561 219.072 229.561C219.576 229.561 219.963 229.746 220.232 230.118V229.647ZM218.435 232.068C218.634 232.267 218.884 232.366 219.184 232.366C219.485 232.366 219.735 232.267 219.934 232.068C220.133 231.864 220.232 231.61 220.232 231.305C220.232 231 220.133 230.748 219.934 230.549C219.735 230.345 219.485 230.244 219.184 230.244C218.884 230.244 218.634 230.345 218.435 230.549C218.236 230.748 218.137 231 218.137 231.305C218.137 231.61 218.236 231.864 218.435 232.068ZM224.018 229.647H224.781L223.508 233.069C223.189 233.927 222.65 234.334 221.89 234.289V233.619C222.115 233.633 222.296 233.584 222.433 233.474C222.57 233.367 222.683 233.199 222.772 232.97L222.805 232.903L221.399 229.647H222.181L223.17 232.054L224.018 229.647ZM228.85 229.561C229.226 229.561 229.529 229.682 229.759 229.925C229.989 230.169 230.104 230.496 230.104 230.907V232.963H229.387V230.953C229.387 230.723 229.33 230.547 229.215 230.423C229.1 230.295 228.943 230.23 228.744 230.23C228.523 230.23 228.346 230.303 228.213 230.449C228.085 230.595 228.021 230.814 228.021 231.106V232.963H227.305V230.953C227.305 230.723 227.25 230.547 227.139 230.423C227.033 230.295 226.88 230.23 226.681 230.23C226.465 230.23 226.288 230.306 226.151 230.456C226.014 230.602 225.945 230.819 225.945 231.106V232.963H225.229V229.647H225.945V230.045C226.157 229.722 226.474 229.561 226.894 229.561C227.318 229.561 227.632 229.735 227.835 230.085C228.056 229.735 228.395 229.561 228.85 229.561ZM231.434 231.61C231.487 231.862 231.609 232.057 231.799 232.194C231.989 232.326 232.221 232.393 232.495 232.393C232.875 232.393 233.16 232.255 233.351 231.981L233.941 232.326C233.614 232.808 233.129 233.049 232.488 233.049C231.949 233.049 231.513 232.886 231.182 232.558C230.85 232.227 230.684 231.809 230.684 231.305C230.684 230.81 230.848 230.396 231.175 230.065C231.502 229.729 231.922 229.561 232.435 229.561C232.922 229.561 233.32 229.731 233.629 230.071C233.943 230.412 234.1 230.825 234.1 231.312C234.1 231.387 234.091 231.486 234.073 231.61H231.434ZM231.427 231.026H233.377C233.328 230.757 233.216 230.553 233.039 230.416C232.866 230.279 232.663 230.211 232.429 230.211C232.163 230.211 231.942 230.284 231.765 230.429C231.589 230.575 231.476 230.774 231.427 231.026ZM236.474 229.561C236.855 229.561 237.162 229.682 237.396 229.925C237.631 230.169 237.748 230.502 237.748 230.927V232.963H237.032V231C237.032 230.752 236.965 230.562 236.833 230.429C236.7 230.297 236.519 230.23 236.289 230.23C236.037 230.23 235.833 230.31 235.679 230.469C235.524 230.624 235.446 230.863 235.446 231.185V232.963H234.73V229.647H235.446V230.071C235.663 229.731 236.006 229.561 236.474 229.561ZM240.369 230.337H239.547V231.928C239.547 232.065 239.578 232.165 239.64 232.227C239.702 232.284 239.792 232.317 239.912 232.326C240.036 232.331 240.188 232.328 240.369 232.32V232.963C239.821 233.029 239.428 232.983 239.189 232.824C238.95 232.66 238.831 232.362 238.831 231.928V230.337H238.221V229.647H238.831V228.931L239.547 228.718V229.647H240.369V230.337ZM241.539 230.562C241.539 230.673 241.599 230.761 241.718 230.827C241.842 230.889 241.99 230.945 242.163 230.993C242.34 231.037 242.516 231.09 242.693 231.152C242.87 231.214 243.018 231.32 243.138 231.471C243.261 231.617 243.323 231.802 243.323 232.028C243.323 232.346 243.2 232.596 242.952 232.777C242.709 232.958 242.401 233.049 242.03 233.049C241.703 233.049 241.422 232.981 241.188 232.844C240.953 232.706 240.783 232.516 240.677 232.273L241.294 231.915C241.409 232.233 241.654 232.393 242.03 232.393C242.406 232.393 242.594 232.269 242.594 232.021C242.594 231.915 242.532 231.829 242.408 231.762C242.289 231.696 242.141 231.641 241.964 231.597C241.791 231.548 241.617 231.493 241.44 231.431C241.263 231.369 241.113 231.267 240.989 231.126C240.869 230.98 240.81 230.796 240.81 230.575C240.81 230.27 240.925 230.025 241.155 229.839C241.389 229.653 241.679 229.561 242.023 229.561C242.298 229.561 242.541 229.623 242.753 229.746C242.97 229.866 243.135 230.034 243.25 230.25L242.647 230.589C242.532 230.337 242.324 230.211 242.023 230.211C241.886 230.211 241.771 230.242 241.679 230.303C241.586 230.361 241.539 230.447 241.539 230.562Z" fill="#0B4A94"/>
<path d="M95.481 285.162H96.2437V289.804H95.481V285.162ZM98.8692 286.402C99.2494 286.402 99.5567 286.524 99.791 286.767C100.025 287.01 100.143 287.344 100.143 287.768V289.804H99.4263V287.841C99.4263 287.594 99.36 287.403 99.2273 287.271C99.0947 287.138 98.9134 287.072 98.6835 287.072C98.4315 287.072 98.2281 287.151 98.0733 287.311C97.9186 287.465 97.8412 287.704 97.8412 288.027V289.804H97.1249V286.488H97.8412V286.913C98.0579 286.572 98.4005 286.402 98.8692 286.402ZM101.557 287.403C101.557 287.514 101.617 287.602 101.736 287.669C101.86 287.731 102.008 287.786 102.181 287.834C102.357 287.879 102.534 287.932 102.711 287.994C102.888 288.056 103.036 288.162 103.155 288.312C103.279 288.458 103.341 288.644 103.341 288.869C103.341 289.187 103.217 289.437 102.97 289.619C102.727 289.8 102.419 289.89 102.048 289.89C101.721 289.89 101.44 289.822 101.206 289.685C100.971 289.548 100.801 289.358 100.695 289.114L101.312 288.756C101.427 289.075 101.672 289.234 102.048 289.234C102.424 289.234 102.612 289.11 102.612 288.862C102.612 288.756 102.55 288.67 102.426 288.604C102.307 288.537 102.158 288.482 101.982 288.438C101.809 288.389 101.634 288.334 101.458 288.272C101.281 288.21 101.13 288.109 101.007 287.967C100.887 287.821 100.828 287.638 100.828 287.417C100.828 287.112 100.943 286.866 101.172 286.68C101.407 286.495 101.696 286.402 102.041 286.402C102.315 286.402 102.559 286.464 102.771 286.588C102.987 286.707 103.153 286.875 103.268 287.092L102.665 287.43C102.55 287.178 102.342 287.052 102.041 287.052C101.904 287.052 101.789 287.083 101.696 287.145C101.604 287.202 101.557 287.288 101.557 287.403ZM106.167 286.488H106.883V289.804H106.167V289.38C105.95 289.72 105.608 289.89 105.139 289.89C104.759 289.89 104.451 289.769 104.217 289.526C103.983 289.282 103.866 288.949 103.866 288.524V286.488H104.582V288.451C104.582 288.699 104.648 288.889 104.781 289.022C104.913 289.154 105.095 289.221 105.325 289.221C105.577 289.221 105.78 289.143 105.935 288.988C106.09 288.829 106.167 288.588 106.167 288.266V286.488ZM108.437 287.045C108.618 286.634 108.959 286.428 109.458 286.428V287.204C109.184 287.187 108.945 287.253 108.742 287.403C108.539 287.549 108.437 287.792 108.437 288.133V289.804H107.721V286.488H108.437V287.045ZM112.458 286.488H113.175V289.804H112.458V289.327C112.189 289.703 111.802 289.89 111.298 289.89C110.842 289.89 110.453 289.722 110.131 289.386C109.808 289.046 109.646 288.633 109.646 288.146C109.646 287.655 109.808 287.242 110.131 286.906C110.453 286.57 110.842 286.402 111.298 286.402C111.802 286.402 112.189 286.588 112.458 286.959V286.488ZM110.661 288.909C110.86 289.108 111.11 289.207 111.411 289.207C111.711 289.207 111.961 289.108 112.16 288.909C112.359 288.705 112.458 288.451 112.458 288.146C112.458 287.841 112.359 287.589 112.16 287.39C111.961 287.187 111.711 287.085 111.411 287.085C111.11 287.085 110.86 287.187 110.661 287.39C110.462 287.589 110.363 287.841 110.363 288.146C110.363 288.451 110.462 288.705 110.661 288.909ZM115.754 286.402C116.134 286.402 116.441 286.524 116.676 286.767C116.91 287.01 117.027 287.344 117.027 287.768V289.804H116.311V287.841C116.311 287.594 116.245 287.403 116.112 287.271C115.979 287.138 115.798 287.072 115.568 287.072C115.316 287.072 115.113 287.151 114.958 287.311C114.803 287.465 114.726 287.704 114.726 288.027V289.804H114.01V286.488H114.726V286.913C114.942 286.572 115.285 286.402 115.754 286.402ZM119.364 289.89C118.864 289.89 118.446 289.722 118.11 289.386C117.778 289.05 117.613 288.637 117.613 288.146C117.613 287.651 117.778 287.238 118.11 286.906C118.446 286.57 118.864 286.402 119.364 286.402C119.686 286.402 119.98 286.479 120.246 286.634C120.511 286.789 120.71 286.997 120.842 287.257L120.226 287.616C120.151 287.456 120.036 287.333 119.881 287.244C119.731 287.151 119.556 287.105 119.357 287.105C119.065 287.105 118.82 287.204 118.621 287.403C118.426 287.602 118.329 287.85 118.329 288.146C118.329 288.442 118.426 288.69 118.621 288.889C118.82 289.088 119.065 289.187 119.357 289.187C119.551 289.187 119.726 289.141 119.881 289.048C120.04 288.955 120.159 288.831 120.239 288.677L120.856 289.028C120.714 289.294 120.511 289.504 120.246 289.658C119.98 289.813 119.686 289.89 119.364 289.89ZM121.885 288.451C121.938 288.703 122.06 288.898 122.25 289.035C122.44 289.168 122.672 289.234 122.947 289.234C123.327 289.234 123.612 289.097 123.802 288.823L124.392 289.168C124.065 289.649 123.581 289.89 122.94 289.89C122.4 289.89 121.965 289.727 121.633 289.4C121.302 289.068 121.136 288.65 121.136 288.146C121.136 287.651 121.3 287.238 121.627 286.906C121.954 286.57 122.374 286.402 122.887 286.402C123.373 286.402 123.771 286.572 124.081 286.913C124.395 287.253 124.551 287.666 124.551 288.153C124.551 288.228 124.543 288.327 124.525 288.451H121.885ZM121.879 287.868H123.829C123.78 287.598 123.667 287.395 123.49 287.257C123.318 287.12 123.115 287.052 122.88 287.052C122.615 287.052 122.394 287.125 122.217 287.271C122.04 287.417 121.927 287.616 121.879 287.868Z" fill="#0B4A94"/>
<path d="M159.036 289.804L157.723 285.162H158.525L159.5 288.789L160.555 285.162H161.258L162.306 288.789L163.28 285.162H164.083L162.77 289.804H161.888L160.906 286.415L159.918 289.804H159.036ZM164.802 288.451C164.855 288.703 164.977 288.898 165.167 289.035C165.357 289.168 165.589 289.234 165.863 289.234C166.244 289.234 166.529 289.097 166.719 288.823L167.309 289.168C166.982 289.649 166.498 289.89 165.857 289.89C165.317 289.89 164.882 289.727 164.55 289.4C164.219 289.068 164.053 288.65 164.053 288.146C164.053 287.651 164.216 287.238 164.544 286.906C164.871 286.57 165.291 286.402 165.804 286.402C166.29 286.402 166.688 286.572 166.997 286.913C167.311 287.253 167.468 287.666 167.468 288.153C167.468 288.228 167.459 288.327 167.442 288.451H164.802ZM164.796 287.868H166.745C166.697 287.598 166.584 287.395 166.407 287.257C166.235 287.12 166.031 287.052 165.797 287.052C165.532 287.052 165.311 287.125 165.134 287.271C164.957 287.417 164.844 287.616 164.796 287.868ZM170.705 286.488H171.422V289.804H170.705V289.327C170.436 289.703 170.049 289.89 169.545 289.89C169.089 289.89 168.7 289.722 168.378 289.386C168.055 289.046 167.893 288.633 167.893 288.146C167.893 287.655 168.055 287.242 168.378 286.906C168.7 286.57 169.089 286.402 169.545 286.402C170.049 286.402 170.436 286.588 170.705 286.959V286.488ZM168.908 288.909C169.107 289.108 169.357 289.207 169.658 289.207C169.958 289.207 170.208 289.108 170.407 288.909C170.606 288.705 170.705 288.451 170.705 288.146C170.705 287.841 170.606 287.589 170.407 287.39C170.208 287.187 169.958 287.085 169.658 287.085C169.357 287.085 169.107 287.187 168.908 287.39C168.709 287.589 168.61 287.841 168.61 288.146C168.61 288.451 168.709 288.705 168.908 288.909ZM172.257 289.804V284.963H172.973V289.804H172.257ZM175.655 287.178H174.832V288.77C174.832 288.907 174.863 289.006 174.925 289.068C174.987 289.126 175.078 289.159 175.197 289.168C175.321 289.172 175.474 289.17 175.655 289.161V289.804C175.107 289.871 174.713 289.824 174.474 289.665C174.236 289.501 174.116 289.203 174.116 288.77V287.178H173.506V286.488H174.116V285.772L174.832 285.56V286.488H175.655V287.178ZM178.049 286.402C178.429 286.402 178.736 286.524 178.971 286.767C179.205 287.01 179.322 287.344 179.322 287.768V289.804H178.606V287.841C178.606 287.594 178.539 287.403 178.407 287.271C178.274 287.138 178.093 287.072 177.863 287.072C177.611 287.072 177.408 287.151 177.253 287.311C177.098 287.465 177.021 287.704 177.021 288.027V289.804H176.304V285.162H177.021V286.913C177.237 286.572 177.58 286.402 178.049 286.402Z" fill="#0B4A94"/>
<path d="M220.935 285.162V289.804H220.172V286.495L218.759 288.829H218.666L217.254 286.488V289.804H216.491V285.162H217.313L218.713 287.483L220.119 285.162H220.935ZM223.379 289.89C222.893 289.89 222.479 289.722 222.139 289.386C221.798 289.05 221.628 288.637 221.628 288.146C221.628 287.655 221.798 287.242 222.139 286.906C222.479 286.57 222.893 286.402 223.379 286.402C223.87 286.402 224.283 286.57 224.619 286.906C224.96 287.242 225.13 287.655 225.13 288.146C225.13 288.637 224.96 289.05 224.619 289.386C224.283 289.722 223.87 289.89 223.379 289.89ZM222.643 288.896C222.842 289.095 223.087 289.194 223.379 289.194C223.671 289.194 223.916 289.095 224.115 288.896C224.314 288.697 224.414 288.447 224.414 288.146C224.414 287.846 224.314 287.596 224.115 287.397C223.916 287.198 223.671 287.098 223.379 287.098C223.087 287.098 222.842 287.198 222.643 287.397C222.444 287.596 222.344 287.846 222.344 288.146C222.344 288.447 222.444 288.697 222.643 288.896ZM226.494 287.045C226.675 286.634 227.015 286.428 227.515 286.428V287.204C227.241 287.187 227.002 287.253 226.799 287.403C226.595 287.549 226.494 287.792 226.494 288.133V289.804H225.777V286.488H226.494V287.045ZM228.453 288.451C228.506 288.703 228.627 288.898 228.817 289.035C229.007 289.168 229.24 289.234 229.514 289.234C229.894 289.234 230.179 289.097 230.369 288.823L230.959 289.168C230.632 289.649 230.148 289.89 229.507 289.89C228.968 289.89 228.532 289.727 228.201 289.4C227.869 289.068 227.703 288.65 227.703 288.146C227.703 287.651 227.867 287.238 228.194 286.906C228.521 286.57 228.941 286.402 229.454 286.402C229.94 286.402 230.338 286.572 230.648 286.913C230.962 287.253 231.119 287.666 231.119 288.153C231.119 288.228 231.11 288.327 231.092 288.451H228.453ZM228.446 287.868H230.396C230.347 287.598 230.234 287.395 230.058 287.257C229.885 287.12 229.682 287.052 229.447 287.052C229.182 287.052 228.961 287.125 228.784 287.271C228.607 287.417 228.495 287.616 228.446 287.868Z" fill="#0B4A94"/>
<path d="M51.3918 208.703H49.188C48.8352 208.703 48.5482 208.416 48.5482 208.063C48.5482 207.711 48.8352 207.424 49.188 207.424H52.3133C52.5108 207.424 52.6688 207.266 52.6688 207.068C52.6688 206.871 52.5108 206.713 52.3133 206.713H51.0337C50.6809 206.713 50.3939 206.426 50.3939 206.073C50.3939 205.72 50.6809 205.433 51.0337 205.433H52.7451C53.2454 205.433 53.7298 205.612 54.1142 205.936L60.378 211.244C60.5228 211.365 60.5202 211.586 60.3754 211.707L54.109 216.886C53.7298 217.2 53.2533 217.371 52.7609 217.371H50.1833C49.8305 217.371 49.5435 217.084 49.5435 216.731C49.5435 216.378 49.8305 216.091 50.1833 216.091H52.2449C52.4792 216.091 52.6714 215.902 52.6714 215.665C52.6714 215.43 52.4818 215.238 52.2449 215.238H50.9653C50.6519 215.238 50.3965 214.983 50.3965 214.669C50.3965 214.356 50.6519 214.101 50.9653 214.101H52.9558C53.2691 214.101 53.5245 213.845 53.5245 213.532C53.5245 213.219 53.2691 212.963 52.9558 212.963H52.387C52.0737 212.963 51.8183 212.708 51.8183 212.395C51.8183 212.081 52.0737 211.826 52.387 211.826H53.8088C54.0432 211.826 54.2354 211.636 54.2354 211.399C54.2354 211.162 54.0458 210.973 53.8088 210.973H50.3992C50.0859 210.973 49.8305 210.717 49.8305 210.404C49.8305 210.091 50.0859 209.835 50.3992 209.835H51.3944C51.7077 209.835 51.9631 209.58 51.9631 209.267C51.9605 208.959 51.7077 208.703 51.3918 208.703Z" fill="#196ED1"/>
<path d="M47.4845 208.664C47.8379 208.664 48.1243 208.377 48.1243 208.024C48.1243 207.671 47.8379 207.384 47.4845 207.384C47.1312 207.384 46.8447 207.671 46.8447 208.024C46.8447 208.377 47.1312 208.664 47.4845 208.664Z" fill="#196ED1"/>
<path d="M49.1908 215.241C49.5442 215.241 49.8306 214.955 49.8306 214.601C49.8306 214.248 49.5442 213.961 49.1908 213.961C48.8375 213.961 48.551 214.248 48.551 214.601C48.551 214.955 48.8375 215.241 49.1908 215.241Z" fill="#196ED1"/>
<path d="M47.1713 209.819H48.8774C49.1907 209.819 49.4461 210.075 49.4461 210.388C49.4461 210.701 49.1907 210.957 48.8774 210.957H47.1713C46.8579 210.957 46.6025 210.701 46.6025 210.388C46.6025 210.075 46.8553 209.819 47.1713 209.819Z" fill="#196ED1"/>
<path d="M48.8353 211.829H50.8258C51.1391 211.829 51.3945 212.084 51.3945 212.397C51.3945 212.711 51.1391 212.966 50.8258 212.966H48.8353C48.522 212.966 48.2666 212.711 48.2666 212.397C48.2666 212.084 48.522 211.829 48.8353 211.829Z" fill="#196ED1"/>
<path d="M116.413 207.646L115.39 207.646V206.591C115.39 206.35 115.213 206.145 114.973 206.109C114.931 206.103 113.935 205.958 112.735 206.176C111.398 206.418 110.331 207.016 109.607 207.921C108.884 207.016 107.817 206.418 106.48 206.176C105.28 205.958 104.283 206.103 104.242 206.109C104.002 206.145 103.824 206.35 103.824 206.591V207.646H102.802C102.531 207.646 102.312 207.865 102.312 208.134V217.328C102.312 217.486 102.389 217.634 102.518 217.726C102.647 217.817 102.813 217.841 102.963 217.789C103 217.776 106.668 216.529 109.404 217.772C109.533 217.831 109.682 217.831 109.811 217.772C112.539 216.532 116.216 217.776 116.252 217.789C116.305 217.807 116.359 217.816 116.413 217.816C116.513 217.816 116.613 217.785 116.697 217.726C116.826 217.634 116.903 217.486 116.903 217.328V208.134C116.903 207.865 116.683 207.646 116.413 207.646ZM103.291 216.675V208.622H103.824V215.12C103.824 215.261 103.887 215.396 103.994 215.489C104.102 215.581 104.245 215.623 104.386 215.602C104.413 215.598 106.54 215.307 108.094 216.37C106.18 216.044 104.264 216.421 103.291 216.675ZM109.118 215.93C108.433 215.314 107.542 214.897 106.48 214.704C105.968 214.612 105.494 214.585 105.115 214.585C105.002 214.585 104.898 214.587 104.804 214.591V207.039H104.804C105.745 206.997 108.034 207.097 109.118 208.928V215.93ZM110.097 208.928C111.177 207.105 113.47 207 114.411 207.041V214.591C113.999 214.574 113.398 214.584 112.735 214.704C111.673 214.897 110.781 215.314 110.097 215.93V208.928ZM111.119 216.37C112.674 215.307 114.802 215.598 114.828 215.602C114.969 215.623 115.112 215.582 115.22 215.489C115.328 215.397 115.39 215.262 115.39 215.12V208.622H115.923V216.675C114.951 216.421 113.034 216.043 111.119 216.37Z" fill="#196ED1"/>
<path d="M115.355 271.826C115.355 272.014 115.28 272.194 115.145 272.327C115.01 272.46 114.827 272.534 114.637 272.534H104.578C104.388 272.534 104.205 272.46 104.07 272.327C103.935 272.194 103.86 272.014 103.86 271.826V265.456H101.704L109.124 258.812C109.256 258.693 109.429 258.627 109.607 258.627C109.786 258.627 109.959 258.693 110.091 258.812L117.511 265.456H115.355V271.826ZM113.918 271.119V264.152L109.607 260.292L105.297 264.152V271.119H113.918ZM109.607 269.703L107.194 267.326C107.044 267.178 106.925 267.002 106.844 266.809C106.762 266.616 106.721 266.409 106.721 266.199C106.721 265.99 106.762 265.783 106.844 265.59C106.925 265.397 107.044 265.221 107.194 265.073C107.344 264.926 107.522 264.808 107.719 264.728C107.915 264.648 108.125 264.607 108.337 264.607C108.549 264.607 108.76 264.648 108.956 264.728C109.152 264.808 109.33 264.926 109.48 265.073L109.607 265.199L109.735 265.073C109.885 264.926 110.063 264.808 110.259 264.728C110.455 264.648 110.665 264.607 110.878 264.607C111.09 264.607 111.3 264.648 111.496 264.728C111.692 264.808 111.871 264.926 112.021 265.073C112.171 265.221 112.29 265.397 112.371 265.59C112.452 265.783 112.494 265.99 112.494 266.199C112.494 266.409 112.452 266.616 112.371 266.809C112.29 267.002 112.171 267.178 112.021 267.326L109.607 269.703Z" fill="#196ED1"/>
<g clip-path="url(#clip0_2960_1068)">
<path d="M48.2053 264.04C48.3959 264.04 48.5786 264.115 48.7134 264.248C48.8481 264.38 48.9238 264.56 48.9238 264.748C50.0526 264.747 51.1489 265.121 52.0348 265.81H53.5939C54.5516 265.81 55.4116 266.22 56.0036 266.871H58.264C58.9431 266.871 59.6084 267.061 60.1827 267.418C60.757 267.775 61.2167 268.285 61.5086 268.889C59.8094 271.098 57.0584 272.534 53.9531 272.534C51.9486 272.534 50.253 272.107 48.8807 271.36C48.8304 271.497 48.7386 271.615 48.6177 271.698C48.4969 271.782 48.3529 271.826 48.2053 271.826H46.0499C45.8593 271.826 45.6766 271.751 45.5419 271.619C45.4071 271.486 45.3314 271.306 45.3314 271.118V264.748C45.3314 264.56 45.4071 264.38 45.5419 264.248C45.6766 264.115 45.8593 264.04 46.0499 264.04H48.2053ZM48.9245 266.164L48.9238 269.718L48.9561 269.741C50.2458 270.633 51.9256 271.118 53.9531 271.118C56.1114 271.118 58.1196 270.3 59.5824 268.903L59.6779 268.809L59.5917 268.738C59.2524 268.476 58.8412 268.321 58.4113 268.292L58.264 268.287H56.7473C56.799 268.515 56.827 268.751 56.827 268.995V269.703H50.3607V268.287L55.2392 268.286L55.2148 268.231C55.0771 267.948 54.8653 267.705 54.6011 267.529C54.337 267.353 54.03 267.25 53.7117 267.229L53.5939 267.225H51.4887C51.1549 266.889 50.7561 266.622 50.3159 266.439C49.8756 266.257 49.4028 266.163 48.9252 266.164H48.9245ZM47.4868 265.456H46.7684V270.41H47.4868V265.456ZM57.5455 261.209C58.1171 261.209 58.6654 261.433 59.0696 261.831C59.4738 262.229 59.7009 262.769 59.7009 263.333C59.7009 263.896 59.4738 264.436 59.0696 264.834C58.6654 265.232 58.1171 265.456 57.5455 265.456C56.9738 265.456 56.4256 265.232 56.0214 264.834C55.6172 264.436 55.3901 263.896 55.3901 263.333C55.3901 262.769 55.6172 262.229 56.0214 261.831C56.4256 261.433 56.9738 261.209 57.5455 261.209ZM57.5455 262.625C57.3549 262.625 57.1722 262.699 57.0375 262.832C56.9027 262.965 56.827 263.145 56.827 263.333C56.827 263.52 56.9027 263.7 57.0375 263.833C57.1722 263.966 57.3549 264.04 57.5455 264.04C57.736 264.04 57.9188 263.966 58.0535 263.833C58.1883 263.7 58.264 263.52 58.264 263.333C58.264 263.145 58.1883 262.965 58.0535 262.832C57.9188 262.699 57.736 262.625 57.5455 262.625ZM52.5162 259.086C53.0878 259.086 53.6361 259.31 54.0403 259.708C54.4445 260.106 54.6716 260.646 54.6716 261.209C54.6716 261.772 54.4445 262.312 54.0403 262.711C53.6361 263.109 53.0878 263.333 52.5162 263.333C51.9445 263.333 51.3963 263.109 50.9921 262.711C50.5878 262.312 50.3607 261.772 50.3607 261.209C50.3607 260.646 50.5878 260.106 50.9921 259.708C51.3963 259.31 51.9445 259.086 52.5162 259.086ZM52.5162 260.501C52.3256 260.501 52.1429 260.576 52.0081 260.709C51.8734 260.842 51.7977 261.022 51.7977 261.209C51.7977 261.397 51.8734 261.577 52.0081 261.71C52.1429 261.842 52.3256 261.917 52.5162 261.917C52.7067 261.917 52.8895 261.842 53.0242 261.71C53.1589 261.577 53.2346 261.397 53.2346 261.209C53.2346 261.022 53.1589 260.842 53.0242 260.709C52.8895 260.576 52.7067 260.501 52.5162 260.501Z" fill="#196ED1"/>
</g>
<path fill-rule="evenodd" clip-rule="evenodd" d="M219.258 207.022H221.787V211.449H225.581C226.53 211.449 228.322 212.44 228.322 214.716C228.322 216.993 226.319 217.773 225.581 217.773H219.258V207.022ZM221.787 213.346V216.297H224.729C225.197 216.297 225.635 216.068 225.901 215.683C226.22 215.223 226.239 214.618 225.951 214.138L225.919 214.085C225.644 213.626 225.149 213.346 224.614 213.346H221.787Z" fill="#196ED1"/>
<path d="M221.998 208.708V207.022H225.147C227.044 207.022 227.677 208.658 227.677 209.868C227.677 211.027 227.361 211.765 227.361 211.765C226.742 211.352 226.015 211.132 225.272 211.132H225.16C225.16 211.132 225.581 210.784 225.581 209.941C225.581 209.098 225.125 208.743 224.844 208.708H221.998Z" fill="#196ED1"/>
<path d="M162.874 210.616C162.589 210.503 162.593 210.336 162.893 210.237L173.536 206.738C173.831 206.641 174 206.804 173.918 207.088L170.876 217.588C170.792 217.879 170.611 217.892 170.476 217.626L167.936 212.613L162.874 210.616ZM165.601 210.506L168.744 211.747L170.439 215.092L172.416 208.266L165.6 210.506H165.601Z" fill="#196ED1"/>
<path d="M172.944 271.826H164.322V273.242H162.885V271.826H162.167C161.976 271.826 161.793 271.752 161.659 271.619C161.524 271.486 161.448 271.306 161.448 271.118V260.502C161.448 260.314 161.524 260.134 161.659 260.001C161.793 259.869 161.976 259.794 162.167 259.794H175.099C175.29 259.794 175.472 259.869 175.607 260.001C175.742 260.134 175.818 260.314 175.818 260.502V271.118C175.818 271.306 175.742 271.486 175.607 271.619C175.472 271.752 175.29 271.826 175.099 271.826H174.381V273.242H172.944V271.826ZM162.885 270.411H174.381V261.209H162.885V270.411ZM169.351 267.49V269.703H167.914V267.49C167.239 267.316 166.65 266.906 166.259 266.336C165.868 265.766 165.701 265.075 165.789 264.393C165.877 263.71 166.214 263.083 166.737 262.627C167.261 262.172 167.934 261.919 168.633 261.917C169.333 261.917 170.009 262.168 170.534 262.623C171.06 263.079 171.399 263.708 171.487 264.392C171.575 265.076 171.407 265.768 171.013 266.339C170.62 266.909 170.029 267.319 169.351 267.49ZM168.633 266.164C169.014 266.164 169.379 266.015 169.649 265.749C169.918 265.484 170.07 265.124 170.07 264.748C170.07 264.373 169.918 264.013 169.649 263.747C169.379 263.482 169.014 263.333 168.633 263.333C168.252 263.333 167.886 263.482 167.617 263.747C167.347 264.013 167.196 264.373 167.196 264.748C167.196 265.124 167.347 265.484 167.617 265.749C167.886 266.015 168.252 266.164 168.633 266.164Z" fill="#196ED1"/>
<path d="M218.65 264.748C217.859 264.748 217.213 265.385 217.213 266.164C217.213 266.942 217.859 267.579 218.65 267.579C219.44 267.579 220.087 266.942 220.087 266.164C220.087 265.385 219.44 264.748 218.65 264.748ZM228.708 264.748C227.918 264.748 227.271 265.385 227.271 266.164C227.271 266.942 227.918 267.579 228.708 267.579C229.499 267.579 230.145 266.942 230.145 266.164C230.145 265.385 229.499 264.748 228.708 264.748ZM223.679 264.748C222.889 264.748 222.242 265.385 222.242 266.164C222.242 266.942 222.889 267.579 223.679 267.579C224.469 267.579 225.116 266.942 225.116 266.164C225.116 265.385 224.469 264.748 223.679 264.748Z" fill="#196ED1"/>
<path d="M7.52002 33.8488C7.52002 28.5314 7.52002 25.8727 9.17194 24.2208C10.8239 22.5688 13.4826 22.5688 18.8 22.5688H261.32C267.524 22.5688 270.626 22.5688 272.553 24.4961C274.48 26.4233 274.48 29.5252 274.48 35.7288V176.853H7.52002V33.8488Z" fill="#0B4A94"/>
<path fill-rule="evenodd" clip-rule="evenodd" d="M208.238 44.6363C211.659 47.4229 216.726 46.9494 219.555 43.5787C222.384 40.208 221.903 35.2165 218.482 32.4299C215.06 29.6432 209.993 30.1167 207.164 33.4874C204.335 36.8581 204.816 41.8496 208.238 44.6363ZM245.22 75.8561L223.88 58.4766C220.463 55.6942 219.982 50.6933 222.806 47.3277C225.631 43.9622 230.707 43.4878 234.124 46.2702L264.387 70.9171C266.299 72.4744 269.094 72.2133 270.675 70.3296C272.255 68.4459 271.99 65.6931 270.078 64.1358L257.687 54.0445C254.271 51.2621 253.789 46.2611 256.614 42.8956C259.438 39.53 264.515 39.0557 267.931 41.838L274.745 47.4823L274.745 176.2H206.085C199.905 176.199 193.857 173.218 189.089 169.335L164.129 149.007C160.712 146.225 160.231 141.224 163.055 137.859C165.88 134.493 170.956 134.019 174.373 136.801L194.336 153.059C196.605 154.907 199.984 154.615 201.881 152.354C203.757 150.119 203.46 146.791 201.165 144.922L188.774 134.83C185.74 132.359 185.312 127.909 187.82 124.92C190.328 121.931 194.846 121.509 197.88 123.98L217.155 139.678C220.189 142.149 224.706 141.727 227.214 138.738C229.723 135.749 229.294 131.299 226.26 128.828L220.753 124.343C217.719 121.872 217.291 117.421 219.799 114.433C222.307 111.444 226.825 111.022 229.859 113.493L243.626 124.705C245.896 126.553 249.274 126.261 251.171 124C253.068 121.74 252.75 118.436 250.456 116.568L217.439 89.6781C214.405 87.2072 213.976 82.7568 216.485 79.768C218.993 76.7792 223.51 76.357 226.544 78.828L236.182 86.6768C239.216 89.1477 243.733 88.7256 246.242 85.7367C248.682 82.7774 248.279 78.3478 245.22 75.8561ZM183.425 119.776C180.596 123.146 175.529 123.62 172.107 120.833C168.686 118.047 168.205 113.055 171.034 109.684C173.863 106.314 178.929 105.84 182.351 108.627C185.773 111.413 186.253 116.405 183.425 119.776ZM195.951 53.1908L212.472 66.6459C215.506 69.1169 215.934 73.5672 213.426 76.556C210.918 79.5449 206.4 79.967 203.366 77.4961L186.845 64.041C183.811 61.5701 183.382 57.1197 185.891 54.1309C188.399 51.1421 192.891 50.6992 195.951 53.1908ZM215.257 101.175L195.982 85.4778C192.948 83.0069 188.43 83.4291 185.922 86.4179C183.414 89.4067 183.842 93.857 186.876 96.328L206.151 112.026C209.185 114.497 213.703 114.074 216.211 111.086C218.719 108.097 218.291 103.646 215.257 101.175Z" fill="#084387"/>
<rect x="62.04" y="60.5349" width="94" height="12.9641" rx="6.48203" fill="#E9ECF4"/>
<rect x="18.8" y="112.391" width="82.72" height="12.9641" rx="6.48203" fill="#E9ECF4"/>
<rect x="18.8" y="137.393" width="118.44" height="18.5201" rx="9.26004" fill="#E9ECF4"/>
<g filter="url(#filter0_b_2960_1068)">
<rect x="62.3358" y="77.9714" width="59.6963" height="16.831" rx="7.83083" fill="white" fill-opacity="0.14"/>
<g clip-path="url(#clip1_2960_1068)">
<path d="M66.6072 80.6919H77.9975V92.0822H66.6072V80.6919Z" fill="#F4F6FA"/>
<path d="M69.4547 88.6654H75.1499V89.2349H69.4547V88.6654ZM70.0242 86.3874H70.5937V88.3807H70.0242V86.3874ZM71.448 86.3874H72.0175V88.3807H71.448V86.3874ZM72.587 86.3874H73.1566V88.3807H72.587V86.3874ZM74.0108 86.3874H74.5803V88.3807H74.0108V86.3874ZM69.4547 84.9636L72.3023 83.5398L75.1499 84.9636V86.1026H69.4547V84.9636ZM70.0242 85.3155V85.5331H74.5803V85.3155L72.3023 84.1765L70.0242 85.3155ZM72.3023 85.2483C72.2268 85.2483 72.1543 85.2183 72.1009 85.1649C72.0475 85.1115 72.0175 85.0391 72.0175 84.9636C72.0175 84.8881 72.0475 84.8156 72.1009 84.7622C72.1543 84.7088 72.2268 84.6788 72.3023 84.6788C72.3778 84.6788 72.4502 84.7088 72.5036 84.7622C72.557 84.8156 72.587 84.8881 72.587 84.9636C72.587 85.0391 72.557 85.1115 72.5036 85.1649C72.4502 85.2183 72.3778 85.2483 72.3023 85.2483Z" fill="#0B4A94"/>
</g>
<rect x="80.8451" y="82.627" width="34.78" height="7.52" rx="3.76" fill="#E9ECF4"/>
</g>
<g clip-path="url(#clip2_2960_1068)">
<path d="M260.242 70.9576H261.666V72.3602H247.428V70.9576H248.852V66.0486C248.852 64.5606 249.452 63.1336 250.52 62.0815C251.588 61.0293 253.036 60.4382 254.547 60.4382C256.057 60.4382 257.506 61.0293 258.574 62.0815C259.642 63.1336 260.242 64.5606 260.242 66.0486V70.9576ZM258.818 70.9576V66.0486C258.818 64.9326 258.368 63.8624 257.567 63.0732C256.766 62.2841 255.68 61.8408 254.547 61.8408C253.414 61.8408 252.328 62.2841 251.527 63.0732C250.726 63.8624 250.276 64.9326 250.276 66.0486V70.9576H258.818ZM252.411 73.7628H256.683V75.1654H252.411V73.7628Z" fill="white"/>
</g>
<g clip-path="url(#clip3_2960_1068)">
<path d="M218.952 64.0988L216.534 66.0484H213.969V68.8536H216.534L218.952 70.8032V64.0988ZM216.026 70.2562H213.257C213.068 70.2562 212.887 70.1823 212.754 70.0507C212.62 69.9192 212.545 69.7409 212.545 69.5549V65.3471C212.545 65.1611 212.62 64.9827 212.754 64.8512C212.887 64.7197 213.068 64.6458 213.257 64.6458H216.026L219.794 61.6078C219.847 61.5657 219.91 61.539 219.977 61.5309C220.044 61.5228 220.112 61.5336 220.173 61.5621C220.233 61.5905 220.285 61.6354 220.321 61.6916C220.357 61.7477 220.376 61.8128 220.376 61.8792V73.0228C220.376 73.0892 220.357 73.1543 220.321 73.2104C220.285 73.2665 220.233 73.3114 220.173 73.3399C220.112 73.3683 220.044 73.3791 219.977 73.371C219.91 73.3629 219.847 73.3363 219.794 73.2942L216.026 70.2562H216.026ZM225.648 73.1553L224.64 72.1623C225.315 71.5707 225.855 70.845 226.224 70.0329C226.594 69.2208 226.784 68.3408 226.783 67.451C226.784 66.5155 226.573 65.5916 226.167 64.7464C225.76 63.9011 225.167 63.1557 224.431 62.5644L225.442 61.5685C226.309 62.2919 227.006 63.1931 227.484 64.209C227.961 65.225 228.208 66.3314 228.207 67.451C228.207 69.7112 227.22 71.7443 225.648 73.1553ZM223.126 70.6706L222.114 69.6734C222.459 69.4116 222.739 69.075 222.932 68.6896C223.124 68.3043 223.224 67.8805 223.224 67.451C223.224 66.4481 222.69 65.568 221.885 65.0722L222.91 64.063C223.449 64.4538 223.887 64.9641 224.189 65.5527C224.491 66.1412 224.648 66.7915 224.647 67.451C224.647 68.7428 224.057 69.8985 223.126 70.6706Z" fill="white"/>
</g>
<ellipse cx="36.9533" cy="76.9184" rx="18.1533" ry="17.883" fill="#E9ECF4"/>
<g filter="url(#filter1_d_2960_1068)">
<ellipse cx="50.1233" cy="86.3862" rx="7.11893" ry="7.01294" fill="white"/>
</g>
<path d="M51.5471 88.1398V87.7891H50.4793V86.7372H51.5471V87.4385H52.259V88.1398H51.9031V88.8411H51.1912V89.5424H50.4793V88.4904H51.1912V88.1398H51.5471ZM53.3268 89.5424H51.9031V88.8411H52.6149V88.1398H53.3268V89.5424ZM46.9198 83.2307H49.7674V86.0359H46.9198V83.2307ZM47.6317 83.932V85.3346H49.0555V83.932H47.6317ZM50.4793 83.2307H53.3268V86.0359H50.4793V83.2307ZM51.1912 83.932V85.3346H52.6149V83.932H51.1912ZM46.9198 86.7372H49.7674V89.5424H46.9198V86.7372ZM47.6317 87.4385V88.8411H49.0555V87.4385H47.6317ZM52.259 86.7372H53.3268V87.4385H52.259V86.7372ZM47.9876 84.2827H48.6995V84.9839H47.9876V84.2827ZM47.9876 87.7891H48.6995V88.4904H47.9876V87.7891ZM51.5471 84.2827H52.259V84.9839H51.5471V84.2827Z" fill="black"/>
<g filter="url(#filter2_b_2960_1068)">
<path d="M60 19C60 8.50658 68.5066 0 79 0H318.176C328.669 0 337.176 8.50659 337.176 19V26.4885C337.176 36.9819 328.669 45.4885 318.176 45.4885H60V19Z" fill="white" fill-opacity="0.82"/>
<path d="M77.5733 19.1245L75.0007 21.2299H72.272V24.2592H75.0007L77.5733 26.3646V19.1245ZM74.4599 25.7739H71.5147C71.3138 25.7739 71.1212 25.6941 70.9791 25.5521C70.8371 25.4101 70.7573 25.2174 70.7573 25.0166V20.4726C70.7573 20.2717 70.8371 20.0791 70.9791 19.9371C71.1212 19.795 71.3138 19.7152 71.5147 19.7152H74.4599L78.4692 16.4345C78.5247 16.389 78.592 16.3602 78.6632 16.3515C78.7344 16.3427 78.8066 16.3544 78.8714 16.3851C78.9363 16.4158 78.991 16.4643 79.0294 16.5249C79.0677 16.5855 79.088 16.6558 79.088 16.7276V28.7616C79.088 28.8333 79.0677 28.9036 79.0294 28.9642C78.991 29.0248 78.9363 29.0733 78.8714 29.104C78.8066 29.1348 78.7344 29.1464 78.6632 29.1377C78.592 29.1289 78.5247 29.1001 78.4692 29.0547L74.4607 25.7739H74.4599ZM84.6968 28.9047L83.6244 27.8323C84.3423 27.1935 84.9167 26.4098 85.3096 25.5328C85.7026 24.6559 85.9051 23.7055 85.904 22.7446C85.9049 21.7344 85.6809 20.7366 85.248 19.8238C84.8152 18.911 84.1845 18.1061 83.4018 17.4675L84.4772 16.3921C85.4 17.1733 86.1412 18.1464 86.6493 19.2436C87.1573 20.3407 87.4199 21.5355 87.4187 22.7446C87.4187 25.1855 86.369 27.381 84.6968 28.9047ZM82.0136 26.2215L80.9366 25.1446C81.3043 24.8618 81.602 24.4984 81.8067 24.0822C82.0115 23.666 82.1177 23.2084 82.1173 22.7446C82.1173 21.6616 81.5493 20.7111 80.6935 20.1757L81.7833 19.0859C82.357 19.5079 82.8232 20.0589 83.1444 20.6946C83.4656 21.3302 83.6326 22.0324 83.632 22.7446C83.632 24.1396 83.0034 25.3877 82.0136 26.2215Z" fill="#0B4A94"/>
<path d="M99.151 18.1441H100.36V27.2441H99.151V18.1441ZM105.783 20.5751C106.693 20.5751 107.469 20.9088 108.11 21.5761C108.751 22.2348 109.072 23.0408 109.072 23.9941C109.072 24.9475 108.751 25.7578 108.11 26.4251C107.469 27.0838 106.693 27.4131 105.783 27.4131C104.708 27.4131 103.889 26.9841 103.326 26.1261V29.8441H102.195V20.7441H103.326V21.8621C103.889 21.0041 104.708 20.5751 105.783 20.5751ZM105.64 26.3211C106.29 26.3211 106.836 26.1001 107.278 25.6581C107.72 25.2075 107.941 24.6528 107.941 23.9941C107.941 23.3355 107.72 22.7851 107.278 22.3431C106.836 21.8925 106.29 21.6671 105.64 21.6671C104.981 21.6671 104.431 21.8925 103.989 22.3431C103.547 22.7851 103.326 23.3355 103.326 23.9941C103.326 24.6528 103.547 25.2075 103.989 25.6581C104.431 26.1001 104.981 26.3211 105.64 26.3211ZM114.01 20.5751C114.92 20.5751 115.695 20.9088 116.337 21.5761C116.978 22.2348 117.299 23.0408 117.299 23.9941C117.299 24.9475 116.978 25.7578 116.337 26.4251C115.695 27.0838 114.92 27.4131 114.01 27.4131C112.935 27.4131 112.116 26.9841 111.553 26.1261V29.8441H110.422V20.7441H111.553V21.8621C112.116 21.0041 112.935 20.5751 114.01 20.5751ZM113.867 26.3211C114.517 26.3211 115.063 26.1001 115.505 25.6581C115.947 25.2075 116.168 24.6528 116.168 23.9941C116.168 23.3355 115.947 22.7851 115.505 22.3431C115.063 21.8925 114.517 21.6671 113.867 21.6671C113.208 21.6671 112.658 21.8925 112.216 22.3431C111.774 22.7851 111.553 23.3355 111.553 23.9941C111.553 24.6528 111.774 25.2075 112.216 25.6581C112.658 26.1001 113.208 26.3211 113.867 26.3211ZM124.134 26.4251C123.467 27.0838 122.657 27.4131 121.703 27.4131C120.75 27.4131 119.94 27.0838 119.272 26.4251C118.614 25.7665 118.284 24.9561 118.284 23.9941C118.284 23.0321 118.614 22.2218 119.272 21.5631C119.94 20.9045 120.75 20.5751 121.703 20.5751C122.657 20.5751 123.467 20.9045 124.134 21.5631C124.802 22.2218 125.135 23.0321 125.135 23.9941C125.135 24.9561 124.802 25.7665 124.134 26.4251ZM121.703 26.3081C122.353 26.3081 122.899 26.0871 123.341 25.6451C123.783 25.2031 124.004 24.6528 124.004 23.9941C124.004 23.3355 123.783 22.7851 123.341 22.3431C122.899 21.9011 122.353 21.6801 121.703 21.6801C121.062 21.6801 120.52 21.9011 120.078 22.3431C119.636 22.7851 119.415 23.3355 119.415 23.9941C119.415 24.6528 119.636 25.2031 120.078 25.6451C120.52 26.0871 121.062 26.3081 121.703 26.3081ZM134.113 27.4131C132.735 27.4131 131.595 26.9581 130.694 26.0481C129.801 25.1381 129.355 24.0201 129.355 22.6941C129.355 21.3681 129.801 20.2501 130.694 19.3401C131.595 18.4301 132.735 17.9751 134.113 17.9751C134.945 17.9751 135.707 18.1745 136.401 18.5731C137.103 18.9718 137.649 19.5091 138.039 20.1851L136.986 20.7961C136.726 20.2935 136.336 19.8948 135.816 19.6001C135.304 19.2968 134.737 19.1451 134.113 19.1451C133.064 19.1451 132.206 19.4831 131.539 20.1591C130.88 20.8351 130.551 21.6801 130.551 22.6941C130.551 23.6995 130.88 24.5401 131.539 25.2161C132.206 25.8921 133.064 26.2301 134.113 26.2301C134.737 26.2301 135.304 26.0828 135.816 25.7881C136.336 25.4848 136.726 25.0861 136.986 24.5921L138.039 25.1901C137.657 25.8661 137.116 26.4078 136.414 26.8151C135.712 27.2138 134.945 27.4131 134.113 27.4131ZM140.46 21.8361C140.833 21.0301 141.509 20.6271 142.488 20.6271V21.8101C141.933 21.7841 141.457 21.9315 141.058 22.2521C140.659 22.5728 140.46 23.0885 140.46 23.7991V27.2441H139.329V20.7441H140.46V21.8361ZM144.032 24.5141C144.145 25.0948 144.409 25.5455 144.825 25.8661C145.25 26.1868 145.77 26.3471 146.385 26.3471C147.243 26.3471 147.867 26.0308 148.257 25.3981L149.219 25.9441C148.586 26.9235 147.633 27.4131 146.359 27.4131C145.328 27.4131 144.487 27.0925 143.837 26.4511C143.196 25.8011 142.875 24.9821 142.875 23.9941C142.875 23.0148 143.191 22.2001 143.824 21.5501C144.457 20.9001 145.276 20.5751 146.281 20.5751C147.234 20.5751 148.01 20.9131 148.608 21.5891C149.215 22.2565 149.518 23.0625 149.518 24.0071C149.518 24.1718 149.505 24.3408 149.479 24.5141H144.032ZM146.281 21.6411C145.674 21.6411 145.172 21.8145 144.773 22.1611C144.374 22.4991 144.127 22.9541 144.032 23.5261H148.374C148.279 22.9108 148.036 22.4428 147.646 22.1221C147.256 21.8015 146.801 21.6411 146.281 21.6411ZM156.188 18.1441H157.319V27.2441H156.188V26.1261C155.624 26.9841 154.805 27.4131 153.731 27.4131C152.821 27.4131 152.045 27.0838 151.404 26.4251C150.762 25.7578 150.442 24.9475 150.442 23.9941C150.442 23.0408 150.762 22.2348 151.404 21.5761C152.045 20.9088 152.821 20.5751 153.731 20.5751C154.805 20.5751 155.624 21.0041 156.188 21.8621V18.1441ZM153.874 26.3211C154.532 26.3211 155.083 26.1001 155.525 25.6581C155.967 25.2075 156.188 24.6528 156.188 23.9941C156.188 23.3355 155.967 22.7851 155.525 22.3431C155.083 21.8925 154.532 21.6671 153.874 21.6671C153.224 21.6671 152.678 21.8925 152.236 22.3431C151.794 22.7851 151.573 23.3355 151.573 23.9941C151.573 24.6528 151.794 25.2075 152.236 25.6581C152.678 26.1001 153.224 26.3211 153.874 26.3211ZM159.604 19.5611C159.387 19.5611 159.205 19.4875 159.058 19.3401C158.911 19.1928 158.837 19.0151 158.837 18.8071C158.837 18.5991 158.911 18.4215 159.058 18.2741C159.205 18.1181 159.387 18.0401 159.604 18.0401C159.812 18.0401 159.99 18.1181 160.137 18.2741C160.284 18.4215 160.358 18.5991 160.358 18.8071C160.358 19.0151 160.284 19.1928 160.137 19.3401C159.99 19.4875 159.812 19.5611 159.604 19.5611ZM159.032 27.2441V20.7441H160.163V27.2441H159.032ZM165.425 21.8361H163.696V25.3591C163.696 25.6798 163.756 25.9095 163.878 26.0481C164.008 26.1781 164.203 26.2475 164.463 26.2561C164.723 26.2561 165.043 26.2475 165.425 26.2301V27.2441C164.437 27.3741 163.713 27.2961 163.254 27.0101C162.794 26.7155 162.565 26.1651 162.565 25.3591V21.8361H161.278V20.7441H162.565V19.2621L163.696 18.9241V20.7441H165.425V21.8361ZM167.336 19.5611C167.119 19.5611 166.937 19.4875 166.79 19.3401C166.642 19.1928 166.569 19.0151 166.569 18.8071C166.569 18.5991 166.642 18.4215 166.79 18.2741C166.937 18.1181 167.119 18.0401 167.336 18.0401C167.544 18.0401 167.721 18.1181 167.869 18.2741C168.016 18.4215 168.09 18.5991 168.09 18.8071C168.09 19.0151 168.016 19.1928 167.869 19.3401C167.721 19.4875 167.544 19.5611 167.336 19.5611ZM166.764 27.2441V20.7441H167.895V27.2441H166.764ZM170.413 24.5141C170.526 25.0948 170.79 25.5455 171.206 25.8661C171.631 26.1868 172.151 26.3471 172.766 26.3471C173.624 26.3471 174.248 26.0308 174.638 25.3981L175.6 25.9441C174.967 26.9235 174.014 27.4131 172.74 27.4131C171.709 27.4131 170.868 27.0925 170.218 26.4511C169.577 25.8011 169.256 24.9821 169.256 23.9941C169.256 23.0148 169.572 22.2001 170.205 21.5501C170.838 20.9001 171.657 20.5751 172.662 20.5751C173.615 20.5751 174.391 20.9131 174.989 21.5891C175.596 22.2565 175.899 23.0625 175.899 24.0071C175.899 24.1718 175.886 24.3408 175.86 24.5141H170.413ZM172.662 21.6411C172.055 21.6411 171.553 21.8145 171.154 22.1611C170.755 22.4991 170.508 22.9541 170.413 23.5261H174.755C174.66 22.9108 174.417 22.4428 174.027 22.1221C173.637 21.8015 173.182 21.6411 172.662 21.6411ZM182.568 18.1441H183.699V27.2441H182.568V26.1261C182.005 26.9841 181.186 27.4131 180.111 27.4131C179.201 27.4131 178.426 27.0838 177.784 26.4251C177.143 25.7578 176.822 24.9475 176.822 23.9941C176.822 23.0408 177.143 22.2348 177.784 21.5761C178.426 20.9088 179.201 20.5751 180.111 20.5751C181.186 20.5751 182.005 21.0041 182.568 21.8621V18.1441ZM180.254 26.3211C180.913 26.3211 181.463 26.1001 181.905 25.6581C182.347 25.2075 182.568 24.6528 182.568 23.9941C182.568 23.3355 182.347 22.7851 181.905 22.3431C181.463 21.8925 180.913 21.6671 180.254 21.6671C179.604 21.6671 179.058 21.8925 178.616 22.3431C178.174 22.7851 177.953 23.3355 177.953 23.9941C177.953 24.6528 178.174 25.2075 178.616 25.6581C179.058 26.1001 179.604 26.3211 180.254 26.3211ZM191.289 27.2441L188.832 22.9541V22.3821H189.118C189.811 22.3821 190.34 22.2825 190.704 22.0831C191.077 21.8838 191.293 21.5241 191.354 21.0041H188.832V20.1721H191.341C191.254 19.6868 191.025 19.3358 190.652 19.1191C190.288 18.9025 189.777 18.7941 189.118 18.7941H188.832V17.9621H194.214V18.7941H191.757C192.173 19.1321 192.42 19.5915 192.498 20.1721H194.214V21.0041H192.524C192.463 21.6368 192.221 22.1308 191.796 22.4861C191.38 22.8328 190.825 23.0538 190.132 23.1491L192.615 27.2441H191.289ZM201.068 18.1441H202.108V27.2441H200.912V19.4441L198.975 20.0161L198.676 18.9761L201.068 18.1441ZM203.596 27.2441V26.2561L206.807 22.9801C207.665 22.1221 208.094 21.3855 208.094 20.7701C208.094 20.2588 207.938 19.8601 207.626 19.5741C207.314 19.2881 206.933 19.1451 206.482 19.1451C205.624 19.1451 205 19.5525 204.61 20.3671L203.596 19.7691C203.882 19.1798 204.277 18.7335 204.779 18.4301C205.291 18.1268 205.854 17.9751 206.469 17.9751C207.232 17.9751 207.895 18.2265 208.458 18.7291C209.022 19.2318 209.303 19.9078 209.303 20.7571C209.303 21.6758 208.762 22.6768 207.678 23.7601L205.351 26.0741H209.472V27.2441H203.596ZM216.539 26.1261C215.923 26.9841 215.061 27.4131 213.952 27.4131C212.842 27.4131 211.98 26.9841 211.365 26.1261C210.749 25.2681 210.442 24.1241 210.442 22.6941C210.442 21.2641 210.749 20.1201 211.365 19.2621C211.98 18.4041 212.842 17.9751 213.952 17.9751C215.061 17.9751 215.923 18.4041 216.539 19.2621C217.154 20.1201 217.462 21.2641 217.462 22.6941C217.462 24.1241 217.154 25.2681 216.539 26.1261ZM212.249 25.3071C212.647 25.9225 213.215 26.2301 213.952 26.2301C214.688 26.2301 215.256 25.9225 215.655 25.3071C216.062 24.6918 216.266 23.8208 216.266 22.6941C216.266 21.5675 216.062 20.6965 215.655 20.0811C215.256 19.4571 214.688 19.1451 213.952 19.1451C213.215 19.1451 212.647 19.4528 212.249 20.0681C211.85 20.6835 211.651 21.5588 211.651 22.6941C211.651 23.8208 211.85 24.6918 212.249 25.3071ZM225.689 21.8361H223.96V25.3591C223.96 25.6798 224.021 25.9095 224.142 26.0481C224.272 26.1781 224.467 26.2475 224.727 26.2561C224.987 26.2561 225.308 26.2475 225.689 26.2301V27.2441C224.701 27.3741 223.977 27.2961 223.518 27.0101C223.059 26.7155 222.829 26.1651 222.829 25.3591V21.8361H221.542V20.7441H222.829V19.2621L223.96 18.9241V20.7441H225.689V21.8361ZM230.265 20.5751C231.028 20.5751 231.639 20.8178 232.098 21.3031C232.557 21.7798 232.787 22.4298 232.787 23.2531V27.2441H231.656V23.3181C231.656 22.7895 231.513 22.3821 231.227 22.0961C230.941 21.8015 230.547 21.6541 230.044 21.6541C229.481 21.6541 229.026 21.8318 228.679 22.1871C228.332 22.5338 228.159 23.0711 228.159 23.7991V27.2441H227.028V18.1441H228.159V21.6801C228.618 20.9435 229.32 20.5751 230.265 20.5751ZM239.852 26.4251C239.185 27.0838 238.374 27.4131 237.421 27.4131C236.468 27.4131 235.657 27.0838 234.99 26.4251C234.331 25.7665 234.002 24.9561 234.002 23.9941C234.002 23.0321 234.331 22.2218 234.99 21.5631C235.657 20.9045 236.468 20.5751 237.421 20.5751C238.374 20.5751 239.185 20.9045 239.852 21.5631C240.519 22.2218 240.853 23.0321 240.853 23.9941C240.853 24.9561 240.519 25.7665 239.852 26.4251ZM237.421 26.3081C238.071 26.3081 238.617 26.0871 239.059 25.6451C239.501 25.2031 239.722 24.6528 239.722 23.9941C239.722 23.3355 239.501 22.7851 239.059 22.3431C238.617 21.9011 238.071 21.6801 237.421 21.6801C236.78 21.6801 236.238 21.9011 235.796 22.3431C235.354 22.7851 235.133 23.3355 235.133 23.9941C235.133 24.6528 235.354 25.2031 235.796 25.6451C236.238 26.0871 236.78 26.3081 237.421 26.3081ZM243.317 21.8361C243.69 21.0301 244.366 20.6271 245.345 20.6271V21.8101C244.791 21.7841 244.314 21.9315 243.915 22.2521C243.517 22.5728 243.317 23.0885 243.317 23.7991V27.2441H242.186V20.7441H243.317V21.8361ZM250.937 20.7441H252.068V27.2441H250.937V26.3081C250.478 27.0448 249.776 27.4131 248.831 27.4131C248.068 27.4131 247.457 27.1748 246.998 26.6981C246.539 26.2128 246.309 25.5585 246.309 24.7351V20.7441H247.44V24.6701C247.44 25.1988 247.583 25.6105 247.869 25.9051C248.155 26.1911 248.549 26.3341 249.052 26.3341C249.615 26.3341 250.07 26.1608 250.417 25.8141C250.764 25.4588 250.937 24.9171 250.937 24.1891V20.7441ZM259.185 20.7441H260.303V26.9711C260.303 27.9331 259.978 28.6785 259.328 29.2071C258.678 29.7445 257.898 30.0131 256.988 30.0131C256.26 30.0131 255.632 29.8745 255.103 29.5971C254.574 29.3285 254.176 28.9385 253.907 28.4271L254.895 27.8681C255.25 28.5961 255.957 28.9601 257.014 28.9601C257.69 28.9601 258.219 28.7825 258.6 28.4271C258.99 28.0718 259.185 27.5865 259.185 26.9711V26.0481C258.613 26.9148 257.798 27.3481 256.741 27.3481C255.814 27.3481 255.029 27.0188 254.388 26.3601C253.747 25.7015 253.426 24.8998 253.426 23.9551C253.426 23.0105 253.747 22.2131 254.388 21.5631C255.029 20.9045 255.814 20.5751 256.741 20.5751C257.807 20.5751 258.622 21.0041 259.185 21.8621V20.7441ZM255.22 25.6061C255.662 26.0481 256.212 26.2691 256.871 26.2691C257.53 26.2691 258.08 26.0481 258.522 25.6061C258.964 25.1641 259.185 24.6138 259.185 23.9551C259.185 23.3051 258.964 22.7591 258.522 22.3171C258.08 21.8751 257.53 21.6541 256.871 21.6541C256.212 21.6541 255.662 21.8751 255.22 22.3171C254.778 22.7591 254.557 23.3051 254.557 23.9551C254.557 24.6138 254.778 25.1641 255.22 25.6061ZM265.253 20.5751C266.016 20.5751 266.627 20.8178 267.086 21.3031C267.546 21.7798 267.775 22.4298 267.775 23.2531V27.2441H266.644V23.3181C266.644 22.7895 266.501 22.3821 266.215 22.0961C265.929 21.8015 265.535 21.6541 265.032 21.6541C264.469 21.6541 264.014 21.8318 263.667 22.1871C263.321 22.5338 263.147 23.0711 263.147 23.7991V27.2441H262.016V18.1441H263.147V21.6801C263.607 20.9435 264.309 20.5751 265.253 20.5751ZM281.665 22.6941C281.665 23.9421 281.236 25.0211 280.378 25.9311L281.379 26.9321L280.547 27.6861L279.52 26.6461C278.732 27.1575 277.874 27.4131 276.946 27.4131C275.646 27.4131 274.537 26.9538 273.618 26.0351C272.7 25.1165 272.24 24.0028 272.24 22.6941C272.24 21.3855 272.7 20.2718 273.618 19.3531C274.537 18.4345 275.646 17.9751 276.946 17.9751C278.246 17.9751 279.356 18.4345 280.274 19.3531C281.202 20.2718 281.665 21.3855 281.665 22.6941ZM276.946 26.2301C277.57 26.2301 278.142 26.0828 278.662 25.7881L276.842 23.9551L277.674 23.2141L279.546 25.0861C280.153 24.4275 280.456 23.6301 280.456 22.6941C280.456 21.6975 280.114 20.8568 279.429 20.1721C278.753 19.4875 277.926 19.1451 276.946 19.1451C275.967 19.1451 275.135 19.4875 274.45 20.1721C273.774 20.8568 273.436 21.6975 273.436 22.6941C273.436 23.6821 273.774 24.5185 274.45 25.2031C275.135 25.8878 275.967 26.2301 276.946 26.2301ZM288.577 27.2441L286.536 23.7601H284.391V27.2441H283.182V18.1441H286.822C287.602 18.1441 288.27 18.4215 288.824 18.9761C289.379 19.5221 289.656 20.1851 289.656 20.9651C289.656 21.5545 289.479 22.0918 289.123 22.5771C288.777 23.0625 288.326 23.4048 287.771 23.6041L289.916 27.2441H288.577ZM284.391 19.2751V22.6681H286.822C287.273 22.6681 287.654 22.5035 287.966 22.1741C288.287 21.8361 288.447 21.4331 288.447 20.9651C288.447 20.4971 288.287 20.0985 287.966 19.7691C287.654 19.4398 287.273 19.2751 286.822 19.2751H284.391ZM298.657 27.4131C297.279 27.4131 296.139 26.9581 295.238 26.0481C294.345 25.1381 293.899 24.0201 293.899 22.6941C293.899 21.3681 294.345 20.2501 295.238 19.3401C296.139 18.4301 297.279 17.9751 298.657 17.9751C299.489 17.9751 300.251 18.1745 300.945 18.5731C301.647 18.9718 302.193 19.5091 302.583 20.1851L301.53 20.7961C301.27 20.2935 300.88 19.8948 300.36 19.6001C299.848 19.2968 299.281 19.1451 298.657 19.1451C297.608 19.1451 296.75 19.4831 296.083 20.1591C295.424 20.8351 295.095 21.6801 295.095 22.6941C295.095 23.6995 295.424 24.5401 296.083 25.2161C296.75 25.8921 297.608 26.2301 298.657 26.2301C299.281 26.2301 299.848 26.0828 300.36 25.7881C300.88 25.4848 301.27 25.0861 301.53 24.5921L302.583 25.1901C302.201 25.8661 301.66 26.4078 300.958 26.8151C300.256 27.2138 299.489 27.4131 298.657 27.4131ZM309.295 26.4251C308.628 27.0838 307.818 27.4131 306.864 27.4131C305.911 27.4131 305.101 27.0838 304.433 26.4251C303.775 25.7665 303.445 24.9561 303.445 23.9941C303.445 23.0321 303.775 22.2218 304.433 21.5631C305.101 20.9045 305.911 20.5751 306.864 20.5751C307.818 20.5751 308.628 20.9045 309.295 21.5631C309.963 22.2218 310.296 23.0321 310.296 23.9941C310.296 24.9561 309.963 25.7665 309.295 26.4251ZM306.864 26.3081C307.514 26.3081 308.06 26.0871 308.502 25.6451C308.944 25.2031 309.165 24.6528 309.165 23.9941C309.165 23.3355 308.944 22.7851 308.502 22.3431C308.06 21.9011 307.514 21.6801 306.864 21.6801C306.223 21.6801 305.681 21.9011 305.239 22.3431C304.797 22.7851 304.576 23.3355 304.576 23.9941C304.576 24.6528 304.797 25.2031 305.239 25.6451C305.681 26.0871 306.223 26.3081 306.864 26.3081ZM317.012 18.1441H318.143V27.2441H317.012V26.1261C316.448 26.9841 315.629 27.4131 314.555 27.4131C313.645 27.4131 312.869 27.0838 312.228 26.4251C311.586 25.7578 311.266 24.9475 311.266 23.9941C311.266 23.0408 311.586 22.2348 312.228 21.5761C312.869 20.9088 313.645 20.5751 314.555 20.5751C315.629 20.5751 316.448 21.0041 317.012 21.8621V18.1441ZM314.698 26.3211C315.356 26.3211 315.907 26.1001 316.349 25.6581C316.791 25.2075 317.012 24.6528 317.012 23.9941C317.012 23.3355 316.791 22.7851 316.349 22.3431C315.907 21.8925 315.356 21.6671 314.698 21.6671C314.048 21.6671 313.502 21.8925 313.06 22.3431C312.618 22.7851 312.397 23.3355 312.397 23.9941C312.397 24.6528 312.618 25.2075 313.06 25.6581C313.502 26.1001 314.048 26.3211 314.698 26.3211ZM320.649 24.5141C320.762 25.0948 321.026 25.5455 321.442 25.8661C321.867 26.1868 322.387 26.3471 323.002 26.3471C323.86 26.3471 324.484 26.0308 324.874 25.3981L325.836 25.9441C325.204 26.9235 324.25 27.4131 322.976 27.4131C321.945 27.4131 321.104 27.0925 320.454 26.4511C319.813 25.8011 319.492 24.9821 319.492 23.9941C319.492 23.0148 319.809 22.2001 320.441 21.5501C321.074 20.9001 321.893 20.5751 322.898 20.5751C323.852 20.5751 324.627 20.9131 325.225 21.5891C325.832 22.2565 326.135 23.0625 326.135 24.0071C326.135 24.1718 326.122 24.3408 326.096 24.5141H320.649ZM322.898 21.6411C322.292 21.6411 321.789 21.8145 321.39 22.1611C320.992 22.4991 320.745 22.9541 320.649 23.5261H324.991C324.896 22.9108 324.653 22.4428 324.263 22.1221C323.873 21.8015 323.418 21.6411 322.898 21.6411Z" fill="#0B4A94"/>
</g>
<defs>
<filter id="filter0_b_2960_1068" x="59.4882" y="75.1239" width="65.3914" height="22.5262" filterUnits="userSpaceOnUse" color-interpolation-filters="sRGB">
<feFlood flood-opacity="0" result="BackgroundImageFix"/>
<feGaussianBlur in="BackgroundImage" stdDeviation="1.42379"/>
<feComposite in2="SourceAlpha" operator="in" result="effect1_backgroundBlur_2960_1068"/>
<feBlend mode="normal" in="SourceGraphic" in2="effect1_backgroundBlur_2960_1068" result="shape"/>
</filter>
<filter id="filter1_d_2960_1068" x="40.1568" y="77.9495" width="19.9331" height="19.721" filterUnits="userSpaceOnUse" color-interpolation-filters="sRGB">
<feFlood flood-opacity="0" result="BackgroundImageFix"/>
<feColorMatrix in="SourceAlpha" type="matrix" values="0 0 0 0 0 0 0 0 0 0 0 0 0 0 0 0 0 0 127 0" result="hardAlpha"/>
<feOffset dy="1.42379"/>
<feGaussianBlur stdDeviation="1.42379"/>
<feComposite in2="hardAlpha" operator="out"/>
<feColorMatrix type="matrix" values="0 0 0 0 0 0 0 0 0 0 0 0 0 0 0 0 0 0 0.08 0"/>
<feBlend mode="normal" in2="BackgroundImageFix" result="effect1_dropShadow_2960_1068"/>
<feBlend mode="normal" in="SourceGraphic" in2="effect1_dropShadow_2960_1068" result="shape"/>
</filter>


<filter id="filter2_b_2960_1068" x="56" y="-4" width="285.176" height="53.4885" filterUnits="userSpaceOnUse" color-interpolation-filters="sRGB">
<feFlood flood-opacity="0" result="BackgroundImageFix"/>
<feGaussianBlur in="SourceGraphic" stdDeviation="5" />
<feComposite in2="SourceAlpha" operator="in" result="effect1_backgroundBlur_2960_1068"/>
<feBlend mode="normal" in="SourceGraphic" in2="effect1_backgroundBlur_2960_1068" result="shape"/>
</filter>

<linearGradient id="paint0_linear_2960_1068" x1="141" y1="18.2052" x2="141" y2="305" gradientUnits="userSpaceOnUse">
<stop offset="0.508831" stop-color="#DEDEDE"/>
<stop offset="1" stop-color="#DEDEDE" stop-opacity="0.06"/>
</linearGradient>
<linearGradient id="paint1_linear_2960_1068" x1="141" y1="22.5691" x2="141" y2="281.85" gradientUnits="userSpaceOnUse">
<stop offset="0.823604" stop-color="#FCFDFF"/>
<stop offset="1" stop-color="#FCFDFF" stop-opacity="0"/>
</linearGradient>
<clipPath id="clip0_2960_1068">
<rect width="17.2434" height="16.9867" fill="white" transform="translate(44.613 257.67)"/>
</clipPath>
<clipPath id="clip1_2960_1068">
<rect x="66.6072" y="80.6919" width="11.3903" height="11.3903" rx="5.69515" fill="white"/>
</clipPath>
<clipPath id="clip2_2960_1068">
<rect width="17.0854" height="16.831" fill="white" transform="translate(246.004 59.0354)"/>
</clipPath>
<clipPath id="clip3_2960_1068">
<rect width="17.0854" height="16.831" fill="white" transform="translate(211.833 59.0354)"/>
</clipPath>
</defs>
</svg>
