<svg width="115" height="29" viewBox="0 0 115 29" fill="none" xmlns="http://www.w3.org/2000/svg">
<path d="M29.4892 11.3662C29.731 11.4773 29.9477 11.6362 30.1264 11.8336C30.3051 12.0309 30.442 12.2624 30.5288 12.5141C30.6157 12.7659 30.6507 13.0327 30.6318 13.2984C30.6128 13.5641 30.5403 13.8232 30.4186 14.0601C29.8682 15.8541 29.4127 17.6774 28.9175 19.4884C28.8793 19.9463 28.7462 20.3913 28.5266 20.7947C28.307 21.1982 28.0058 21.5514 27.6422 21.8317C27.2786 22.112 26.8607 22.3132 26.415 22.4226C25.9694 22.5319 25.5059 22.547 25.0541 22.4668C17.4482 22.4683 9.8423 22.4742 2.23641 22.4844C1.63309 22.4862 1.41937 22.4297 1.60935 21.754C3.56379 14.8027 5.50057 7.84646 7.41971 0.88522C7.43181 0.775481 7.46589 0.669315 7.5199 0.573071C7.57391 0.476827 7.64675 0.392482 7.73406 0.325084C7.82137 0.257686 7.92136 0.208618 8.02804 0.180816C8.13472 0.153013 8.2459 0.147048 8.35494 0.163276C16.1874 0.183263 24.0199 0.176449 31.8523 0.188506C32.1361 0.128296 32.431 0.147694 32.7046 0.244569C32.9781 0.341443 33.2196 0.512036 33.4025 0.737561C33.5855 0.963086 33.7027 1.2348 33.7414 1.52278C33.7801 1.81077 33.7386 2.10385 33.6217 2.36976C33.0318 4.69189 32.3851 7.00043 31.7134 9.30043C31.5334 9.79708 31.2377 10.2436 30.8508 10.6028C30.464 10.9621 29.9972 11.2238 29.4892 11.3662ZM18.9904 4.55257C16.5627 4.55257 14.1345 4.57185 11.7073 4.54008C11.5746 4.51374 11.4378 4.5167 11.3064 4.54873C11.175 4.58076 11.0521 4.6411 10.9463 4.72555C10.8406 4.81 10.7545 4.91652 10.694 5.0377C10.6336 5.15888 10.6003 5.2918 10.5963 5.42721C10.3864 6.37572 10.1219 7.31126 9.80397 8.22913C9.60286 8.85692 9.63331 9.18244 10.4428 9.17814C15.3305 9.15209 20.2186 9.17558 25.1064 9.15726C25.7938 9.16568 26.4619 8.92955 26.9918 8.49089C27.5216 8.05224 27.8789 7.43952 28.0001 6.76177C28.1188 6.49856 28.1633 6.2078 28.1288 5.92105C28.0942 5.63429 27.9819 5.3625 27.804 5.13518C27.6261 4.90785 27.3894 4.73368 27.1196 4.63156C26.8499 4.52944 26.5573 4.50328 26.2738 4.55592C23.846 4.54849 21.4182 4.55382 18.9904 4.55257ZM15.3014 18.1403C17.6935 18.1403 20.0856 18.1404 22.4777 18.1406C23.0145 18.1644 23.5476 18.0414 24.0197 17.7845C24.4918 17.5277 24.8852 17.1469 25.1574 16.6829C26.1459 15.0778 25.4776 13.5175 23.7838 13.511C18.9026 13.4922 14.0214 13.511 9.14023 13.4938C9.02993 13.4755 8.9171 13.4793 8.80827 13.505C8.69944 13.5306 8.59676 13.5776 8.50615 13.6432C8.41555 13.7088 8.33881 13.7917 8.28038 13.8872C8.22195 13.9826 8.18299 14.0888 8.16573 14.1994C7.90996 15.2019 7.67877 16.2161 7.33492 17.1891C7.02719 18.06 7.3831 18.1589 8.12523 18.1493C10.5169 18.1183 12.9093 18.1377 15.3014 18.1402V18.1403Z" fill="#999999"/>
<path d="M93.625 12.2114C92.8796 12.8751 92.1318 13.5215 91.4055 14.1911C88.6216 16.7573 85.8438 19.3301 83.072 21.9096C82.6087 22.3428 82.3738 22.4135 82.0119 21.7771C79.9635 18.175 77.8718 14.5977 75.7922 11.0134C75.7238 10.9201 75.6479 10.8326 75.5652 10.7518C75.2491 11.1523 75.0544 11.6352 75.0042 12.1433C74.1327 15.2615 73.2825 18.3857 72.4535 21.5157C72.4485 21.6585 72.4128 21.7985 72.3486 21.926C72.2844 22.0536 72.1933 22.1657 72.0817 22.2546C71.9701 22.3435 71.8405 22.4071 71.702 22.441C71.5634 22.4749 71.4192 22.4783 71.2792 22.4509C70.3463 22.3783 69.4034 22.4267 68.465 22.4386C68.0316 22.4441 67.7937 22.3811 67.9449 21.8346C69.8965 14.7813 71.8394 7.72553 73.7736 0.667331C73.8189 0.589524 73.8752 0.518647 73.9406 0.45688C74.3192 0.796168 74.6237 1.21018 74.8349 1.67292C77.4667 6.05738 80.0917 10.446 82.7097 14.8388C83.298 15.8233 83.282 15.8021 84.166 15.0467C88.9124 10.9903 93.6643 6.94055 98.4217 2.89729C99.3755 2.08475 100.328 1.27003 101.369 0.38092C101.445 0.853263 101.363 1.33746 101.137 1.7588C99.3341 8.38198 97.5009 14.9969 95.7071 21.6224C95.6992 21.7489 95.6647 21.8723 95.6058 21.9845C95.5468 22.0966 95.4648 22.195 95.3652 22.2731C95.2655 22.3511 95.1505 22.4072 95.0276 22.4375C94.9047 22.4678 94.7768 22.4716 94.6524 22.4488C93.7473 22.3988 92.8403 22.3977 91.9351 22.4458C91.1581 22.4893 91.0974 22.2026 91.2867 21.5351C92.1085 18.6389 92.8848 15.7298 93.6783 12.8256C93.7338 12.7302 93.7585 12.62 93.7489 12.51C93.7394 12.4001 93.6961 12.2958 93.625 12.2114Z" fill="#999999"/>
<path d="M47.9889 9.15034C50.5457 9.14972 53.1038 9.10146 55.6583 9.17564C55.8237 9.19866 55.9921 9.18727 56.1529 9.14218C56.3137 9.09708 56.4634 9.01925 56.5928 8.91355C56.7222 8.80785 56.8285 8.67656 56.9049 8.52787C56.9814 8.37919 57.0264 8.2163 57.0371 8.04941C57.6361 5.76448 58.2782 3.49037 58.8407 1.1966C58.8466 1.03721 58.8876 0.881102 58.9606 0.739348C59.0336 0.597594 59.1368 0.473679 59.263 0.376405C59.3892 0.279132 59.5352 0.210885 59.6908 0.176517C59.8463 0.14215 60.0074 0.142503 60.1628 0.177552C61.0025 0.236287 61.8453 0.236936 62.6851 0.179491C63.365 0.144826 63.5213 0.342492 63.3309 1.01881C62.366 4.44761 61.4431 7.88828 60.5063 11.325C59.6041 14.6345 58.6823 17.9389 57.8152 21.2576C57.8107 21.4484 57.7636 21.6358 57.6774 21.806C57.5911 21.9761 57.4679 22.1248 57.3167 22.2409C57.1655 22.3571 56.9902 22.4378 56.8038 22.4772C56.6173 22.5165 56.4244 22.5135 56.2393 22.4684C55.4331 22.3948 54.622 22.3916 53.8152 22.4588C53.165 22.4883 53.0568 22.2748 53.2348 21.6621C53.9303 19.2681 54.563 16.8558 55.2508 14.4595C55.4521 13.758 55.3601 13.4756 54.5347 13.4805C49.3244 13.5116 44.114 13.5127 38.9034 13.4838C38.7557 13.4606 38.6049 13.4686 38.4605 13.5073C38.3161 13.5461 38.1815 13.6147 38.0652 13.7088C37.949 13.8028 37.8537 13.9203 37.7855 14.0535C37.7173 14.1867 37.6777 14.3327 37.6693 14.4821C37.0654 16.8998 36.3502 19.2893 35.7203 21.7008C35.71 21.8198 35.6747 21.9352 35.6167 22.0396C35.5588 22.1441 35.4795 22.235 35.384 22.3066C35.2886 22.3783 35.1791 22.4289 35.0628 22.4552C34.9464 22.4815 34.8259 22.483 34.7089 22.4594C33.804 22.4065 32.8968 22.407 31.992 22.4611C31.0461 22.5265 31.2019 22.0353 31.3641 21.4465C32.3872 17.7314 33.4041 14.0145 34.4147 10.2959C35.2671 7.17244 36.125 4.05041 36.9608 0.92247C36.967 0.811142 36.9964 0.702353 37.0471 0.603109C37.0979 0.503866 37.1688 0.41637 37.2554 0.346263C37.342 0.276156 37.4422 0.224994 37.5498 0.19607C37.6573 0.167146 37.7696 0.161102 37.8796 0.17833C38.8481 0.226487 39.822 0.219968 40.7912 0.1789C41.4658 0.15032 41.5387 0.400195 41.3734 0.987809C40.6809 3.44905 40.0488 5.9275 39.3391 8.38357C39.1502 9.0373 39.3116 9.16529 39.9304 9.16039C42.6165 9.13851 45.3029 9.15096 47.9889 9.15034Z" fill="#999999"/>
<path d="M68.7039 0.248596C69.0272 0.248946 69.3506 0.249044 69.6739 0.248892C70.9611 0.247524 70.9692 0.24967 70.641 1.44174C68.8393 7.9882 67.0342 14.5337 65.2258 21.0782C64.8199 22.5444 64.8025 22.5398 63.3002 22.5414C62.5889 22.5421 61.8766 22.5196 61.1664 22.5487C60.5273 22.5749 60.4014 22.3628 60.5755 21.7406C62.2921 15.6028 63.993 9.46044 65.6781 3.31368C65.8938 2.67021 66.0672 2.0133 66.1972 1.34716C66.1895 1.16889 66.2248 0.991393 66.3001 0.829697C66.3754 0.668001 66.4886 0.526876 66.6299 0.418281C66.7713 0.309686 66.9367 0.236819 67.1121 0.205861C67.2876 0.174903 67.4679 0.186763 67.6378 0.240437C67.9926 0.266731 68.3487 0.269457 68.7039 0.248596Z" fill="#999999"/>
<path d="M104.08 17.8983L99.3209 22.3321L99.1655 22.2088C99.7113 20.1869 100.25 18.163 100.804 16.1436C102.183 11.1244 103.567 6.10661 104.956 1.09016C104.947 0.960856 104.975 0.831574 105.036 0.71717C105.096 0.602766 105.188 0.507885 105.301 0.443431C105.63 0.386637 105.627 0.768927 105.74 0.979355C106.446 2.28572 106.982 3.68067 107.806 4.92409C108.595 6.83535 109.49 8.70071 110.487 10.5113C110.57 10.6348 110.627 10.7736 110.656 10.9196C110.684 11.0656 110.683 11.2158 110.652 11.3613C110.622 11.5069 110.562 11.6447 110.477 11.7668C110.393 11.8889 110.284 11.9927 110.159 12.0721C108.108 13.9879 106.103 15.9521 104.08 17.8983Z" fill="#999999"/>
<path d="M104.081 17.899C106.103 15.9528 108.108 13.9886 110.159 12.0728C110.284 11.9934 110.393 11.8897 110.478 11.7676C110.562 11.6455 110.622 11.5076 110.653 11.3621C110.683 11.2165 110.684 11.0663 110.656 10.9203C110.628 10.7743 110.57 10.6355 110.487 10.5121C109.49 8.70145 108.595 6.83609 107.807 4.92483L109.223 0.156006C109.809 1.29429 110.299 2.22443 110.771 3.16313C111.962 5.53284 113.121 7.91999 114.348 10.2711C114.456 10.4237 114.532 10.5969 114.571 10.78C114.61 10.9632 114.612 11.1523 114.576 11.3361C114.539 11.5198 114.466 11.6941 114.36 11.8485C114.254 12.0029 114.118 12.134 113.96 12.234C110.59 15.3561 107.292 18.557 103.965 21.7266C103.754 22.0044 103.466 22.2135 103.137 22.3276C103.562 20.8773 103.878 19.3969 104.081 17.899Z" fill="#999999"/>
<path d="M65.886 25.2988C65.8065 25.3233 65.7215 25.3238 65.6417 25.3002C65.5619 25.2767 65.4908 25.2301 65.4374 25.1664C65.6322 25.0571 65.8002 25.0389 65.886 25.2988Z" fill="#999999"/>
<path d="M0.956112 25.0817C0.96458 25.0553 0.980754 25.0321 1.00254 25.0151C1.02433 24.998 1.05073 24.9879 1.07833 24.986H2.22497C2.34501 24.9665 2.46805 24.9782 2.58224 25.0201C2.69643 25.062 2.79793 25.1326 2.87697 25.2252C2.956 25.3178 3.0099 25.4292 3.03348 25.5486C3.05707 25.6681 3.04953 25.7917 3.01161 25.9074C2.94291 26.0855 2.83843 26.2475 2.70464 26.3834C2.57085 26.5193 2.41061 26.6262 2.23385 26.6975C2.31477 26.723 2.38984 26.7643 2.45467 26.819C2.5195 26.8738 2.57281 26.941 2.61148 27.0166C2.65015 27.0922 2.67342 27.1747 2.67993 27.2594C2.68644 27.3441 2.67606 27.4293 2.6494 27.5099C2.55018 27.7929 2.36508 28.0378 2.12003 28.2102C1.87497 28.3826 1.58222 28.4739 1.28276 28.4714H0.0716967C0.0601378 28.4717 0.0486757 28.4692 0.0383447 28.464C0.0280138 28.4588 0.0191393 28.4511 0.012523 28.4416C0.00590663 28.4321 0.00175665 28.4211 0.000447552 28.4096C-0.000861549 28.3981 0.000712103 28.3864 0.00502533 28.3757L0.956112 25.0817ZM1.3961 27.8838C1.52802 27.8774 1.65473 27.8303 1.75894 27.7491C1.86314 27.6678 1.93976 27.5563 1.97831 27.4298C1.99242 27.3742 1.99265 27.316 1.97899 27.2604C1.96532 27.2047 1.93819 27.1533 1.89997 27.1106C1.86176 27.0679 1.81364 27.0353 1.75987 27.0157C1.7061 26.9961 1.64833 26.99 1.59166 26.998H1.04722L0.791685 27.8838H1.3961ZM1.74275 26.4505C1.8711 26.4437 1.99406 26.3967 2.09419 26.316C2.19431 26.2353 2.26651 26.125 2.30052 26.0009C2.32297 25.9526 2.33211 25.8991 2.32698 25.846C2.32186 25.793 2.30267 25.7422 2.27139 25.6991C2.24011 25.656 2.19788 25.622 2.14908 25.6007C2.10028 25.5794 2.04669 25.5716 1.99385 25.578H1.45834L1.20501 26.4505H1.74277L1.74275 26.4505Z" fill="#999999"/>
<path d="M5.37829 25.0815C5.38735 25.0555 5.40369 25.0326 5.42536 25.0156C5.44703 24.9987 5.47312 24.9883 5.50051 24.9858H5.96717C5.97871 24.9853 5.99018 24.9878 6.00049 24.993C6.0108 24.9982 6.0196 25.006 6.02606 25.0156C6.03252 25.0252 6.03642 25.0363 6.03739 25.0478C6.03836 25.0594 6.03637 25.071 6.03161 25.0815L5.65161 26.3991H7.28268L7.66269 25.0815C7.67134 25.0548 7.68787 25.0314 7.71008 25.0143C7.7323 24.9972 7.75916 24.9873 7.78713 24.9858H8.24713C8.25852 24.9857 8.26976 24.9885 8.27983 24.9939C8.28991 24.9992 8.29852 25.0069 8.30489 25.0164C8.31126 25.0259 8.31521 25.0368 8.31637 25.0481C8.31754 25.0595 8.31588 25.0709 8.31157 25.0815L7.36041 28.3755C7.35213 28.4016 7.3363 28.4246 7.31494 28.4416C7.29357 28.4587 7.26764 28.469 7.24042 28.4712H6.78048C6.76877 28.4718 6.75709 28.4695 6.74651 28.4644C6.73594 28.4594 6.7268 28.4517 6.71994 28.4422C6.71309 28.4327 6.70873 28.4216 6.70727 28.4099C6.70582 28.3982 6.7073 28.3864 6.7116 28.3755L7.10935 27.0022H5.4783L5.08055 28.3755C5.07286 28.4019 5.0572 28.4253 5.03572 28.4424C5.01423 28.4596 4.98798 28.4696 4.96056 28.4712H4.49388C4.48246 28.4711 4.47123 28.4683 4.46113 28.463C4.45102 28.4577 4.44234 28.45 4.43581 28.4406C4.42928 28.4313 4.42509 28.4204 4.42359 28.4091C4.42209 28.3978 4.42333 28.3862 4.42721 28.3755L5.37829 25.0815Z" fill="#999999"/>
<path d="M9.16072 28.3401L11.6829 24.9927C11.6939 24.9761 11.7088 24.9624 11.7262 24.9528C11.7436 24.9431 11.763 24.9377 11.7829 24.9371H11.8362C11.8443 24.9359 11.8526 24.9364 11.8604 24.9387C11.8683 24.9409 11.8756 24.9448 11.8819 24.95C11.8882 24.9553 11.8933 24.9618 11.8969 24.9691C11.9005 24.9765 11.9026 24.9845 11.9029 24.9927L12.4763 28.3401C12.4777 28.3571 12.4754 28.3742 12.4697 28.3903C12.464 28.4064 12.455 28.4211 12.4433 28.4335C12.4315 28.4459 12.4173 28.4556 12.4016 28.4622C12.3859 28.4687 12.3689 28.4718 12.3519 28.4714H11.9184C11.9041 28.4736 11.8894 28.4727 11.8754 28.4687C11.8614 28.4646 11.8485 28.4576 11.8375 28.4481C11.8265 28.4386 11.8177 28.4267 11.8118 28.4135C11.8058 28.4002 11.8027 28.3858 11.8029 28.3712L11.7119 27.8326H10.214L9.81627 28.3712C9.79779 28.4009 9.77231 28.4255 9.74209 28.443C9.71187 28.4605 9.67782 28.4702 9.64294 28.4714H9.20739C9.13407 28.4714 9.11184 28.4069 9.16072 28.3401ZM11.6274 27.2829L11.4429 26.1857H11.4273L10.6229 27.2829H11.6273L11.6274 27.2829Z" fill="#999999"/>
<path d="M15.2093 25.0815C15.2172 25.0548 15.2332 25.0312 15.2551 25.0141C15.277 24.9969 15.3037 24.987 15.3315 24.9858H16.7604C16.8922 24.977 17.0242 25.0017 17.1439 25.0576C17.2637 25.1135 17.3674 25.1988 17.4455 25.3056C17.5235 25.4124 17.5733 25.5372 17.5903 25.6685C17.6073 25.7998 17.5909 25.9332 17.5426 26.0564C17.4595 26.2925 17.3229 26.5062 17.1437 26.6807C16.9644 26.8552 16.7473 26.9859 16.5093 27.0624L16.8315 28.3243C16.8341 28.3427 16.8326 28.3614 16.8273 28.3792C16.822 28.397 16.8129 28.4134 16.8007 28.4274C16.7885 28.4413 16.7734 28.4525 16.7564 28.46C16.7395 28.4676 16.7211 28.4714 16.7026 28.4712H16.1782C16.1636 28.4728 16.149 28.4692 16.1368 28.461C16.1246 28.4529 16.1157 28.4408 16.1115 28.4267L15.8271 27.1069H15.2715L14.9049 28.3755C14.8961 28.4017 14.8799 28.4248 14.8581 28.4418C14.8364 28.4588 14.8102 28.469 14.7827 28.4712H14.3249C14.3131 28.4721 14.3013 28.4699 14.2906 28.4649C14.2799 28.4599 14.2707 28.4522 14.2638 28.4426C14.2569 28.433 14.2526 28.4218 14.2512 28.4101C14.2498 28.3983 14.2515 28.3864 14.256 28.3755L15.2093 25.0815ZM16.2449 26.575C16.3904 26.5639 16.5294 26.5098 16.6441 26.4194C16.7589 26.329 16.8442 26.2066 16.8893 26.0675C16.9098 26.0115 16.9161 25.9513 16.9076 25.8922C16.8991 25.8332 16.8761 25.7771 16.8406 25.7292C16.8051 25.6813 16.7583 25.643 16.7043 25.6177C16.6504 25.5925 16.591 25.5811 16.5315 25.5845H15.7182L15.4315 26.575H16.2449Z" fill="#999999"/>
<path d="M18.4759 28.3401L20.998 24.9927C21.0091 24.9761 21.0239 24.9624 21.0413 24.9528C21.0587 24.9431 21.0782 24.9377 21.0981 24.9371H21.1514C21.1595 24.9359 21.1677 24.9364 21.1756 24.9387C21.1835 24.9409 21.1908 24.9448 21.1971 24.95C21.2034 24.9553 21.2085 24.9618 21.2121 24.9691C21.2157 24.9765 21.2177 24.9845 21.2181 24.9927L21.7915 28.3401C21.7928 28.3571 21.7906 28.3742 21.7849 28.3903C21.7792 28.4064 21.7702 28.4211 21.7585 28.4335C21.7467 28.4459 21.7325 28.4556 21.7168 28.4622C21.701 28.4687 21.6841 28.4718 21.667 28.4714H21.2336C21.2192 28.4736 21.2046 28.4727 21.1906 28.4687C21.1766 28.4646 21.1637 28.4576 21.1527 28.4481C21.1417 28.4386 21.1329 28.4267 21.1269 28.4135C21.1209 28.4002 21.1179 28.3858 21.1181 28.3712L21.027 27.8326H19.5293L19.1315 28.3712C19.1131 28.4009 19.0876 28.4255 19.0574 28.443C19.0271 28.4605 18.9931 28.4702 18.9582 28.4714H18.5226C18.4492 28.4714 18.4271 28.4069 18.4759 28.3401ZM20.9425 27.2829L20.758 26.1857H20.7425L19.938 27.2829H20.9424L20.9425 27.2829Z" fill="#999999"/>
<path d="M24.6625 25.5846H23.8981C23.8864 25.5853 23.8747 25.583 23.8641 25.578C23.8536 25.5729 23.8445 25.5652 23.8378 25.5555C23.8311 25.5459 23.827 25.5347 23.8259 25.523C23.8248 25.5113 23.8267 25.4996 23.8314 25.4888L23.947 25.0815C23.9556 25.0549 23.9722 25.0314 23.9944 25.0143C24.0166 24.9973 24.0434 24.9873 24.0714 24.9858H26.2559C26.2676 24.9852 26.2793 24.9875 26.2899 24.9926C26.3004 24.9977 26.3096 25.0053 26.3164 25.0148C26.3233 25.0244 26.3276 25.0355 26.3291 25.0471C26.3305 25.0588 26.3291 25.0706 26.3248 25.0815L26.207 25.4888C26.1983 25.5155 26.1818 25.5389 26.1596 25.556C26.1374 25.5731 26.1105 25.5831 26.0825 25.5846H25.3181L24.5114 28.3755C24.5029 28.4019 24.4868 28.4251 24.465 28.4422C24.4432 28.4593 24.4168 28.4694 24.3892 28.4713H23.9248C23.9132 28.4715 23.9018 28.4689 23.8914 28.4637C23.881 28.4585 23.8721 28.4509 23.8653 28.4414C23.8586 28.432 23.8542 28.4211 23.8525 28.4097C23.8509 28.3982 23.852 28.3865 23.8559 28.3755L24.6625 25.5846Z" fill="#999999"/>
<path d="M30.6313 25.0816C30.6398 25.0553 30.656 25.032 30.6777 25.015C30.6995 24.9979 30.7259 24.9878 30.7535 24.9859H31.218C31.2294 24.9858 31.2408 24.9885 31.251 24.9937C31.2612 24.999 31.27 25.0067 31.2765 25.0161C31.2831 25.0256 31.2873 25.0365 31.2887 25.0479C31.2901 25.0593 31.2887 25.0709 31.2846 25.0816L30.3335 28.3756C30.3247 28.4018 30.3085 28.4248 30.2867 28.4419C30.265 28.4589 30.2388 28.4691 30.2113 28.4713H29.7468C29.7352 28.4717 29.7236 28.4693 29.7131 28.4641C29.7027 28.459 29.6936 28.4514 29.6868 28.4419C29.68 28.4324 29.6756 28.4214 29.6741 28.4099C29.6725 28.3983 29.6739 28.3865 29.6779 28.3756L30.6313 25.0816Z" fill="#999999"/>
<path d="M33.5532 25.026C33.5621 25.0004 33.5785 24.9782 33.6004 24.9623C33.6222 24.9464 33.6484 24.9375 33.6754 24.937H33.7998L35.242 27.1359H35.2466L35.8399 25.0816C35.8485 25.055 35.8651 25.0315 35.8873 25.0144C35.9095 24.9974 35.9364 24.9874 35.9643 24.9859H36.4243C36.4357 24.9859 36.447 24.9886 36.457 24.994C36.4671 24.9993 36.4757 25.0071 36.4821 25.0165C36.4885 25.026 36.4924 25.0369 36.4936 25.0483C36.4947 25.0596 36.4931 25.0711 36.4888 25.0816L35.5221 28.429C35.5137 28.4546 35.4978 28.4771 35.4763 28.4934C35.4549 28.5096 35.429 28.519 35.4022 28.5202H35.282L33.8532 26.2366H33.8486L33.2286 28.3754C33.2205 28.402 33.2044 28.4254 33.1825 28.4425C33.1607 28.4596 33.1341 28.4696 33.1064 28.4712H32.6532C32.6416 28.4716 32.63 28.4691 32.6195 28.464C32.6091 28.4589 32.6 28.4512 32.5932 28.4417C32.5864 28.4323 32.582 28.4213 32.5805 28.4097C32.5789 28.3981 32.5802 28.3864 32.5843 28.3754L33.5532 25.026Z" fill="#999999"/>
<path d="M39.0574 25.5846H38.293C38.2813 25.5853 38.2696 25.583 38.259 25.578C38.2485 25.5729 38.2394 25.5652 38.2327 25.5555C38.226 25.5459 38.2219 25.5347 38.2208 25.523C38.2197 25.5113 38.2216 25.4996 38.2263 25.4888L38.3419 25.0815C38.3505 25.0549 38.3671 25.0314 38.3893 25.0143C38.4115 24.9973 38.4383 24.9873 38.4663 24.9858H40.6508C40.6625 24.9852 40.6742 24.9875 40.6848 24.9926C40.6953 24.9977 40.7045 25.0053 40.7113 25.0148C40.7182 25.0244 40.7225 25.0355 40.724 25.0471C40.7255 25.0588 40.724 25.0706 40.7197 25.0815L40.6019 25.4888C40.5932 25.5155 40.5767 25.5389 40.5545 25.556C40.5323 25.5731 40.5054 25.5831 40.4774 25.5846H39.7129L38.9064 28.3755C38.8979 28.4019 38.8817 28.4251 38.8599 28.4422C38.8381 28.4593 38.8117 28.4694 38.7841 28.4713H38.3197C38.3081 28.4715 38.2967 28.4689 38.2863 28.4637C38.276 28.4585 38.267 28.4509 38.2603 28.4414C38.2535 28.432 38.2491 28.4211 38.2474 28.4097C38.2458 28.3982 38.247 28.3865 38.2508 28.3755L39.0574 25.5846Z" fill="#999999"/>
<path d="M42.5773 25.0815C42.5858 25.0552 42.602 25.0319 42.6238 25.0149C42.6455 24.9978 42.672 24.9877 42.6995 24.9858H44.735C44.7468 24.9852 44.7584 24.9875 44.769 24.9926C44.7796 24.9977 44.7887 25.0053 44.7956 25.0148C44.8024 25.0244 44.8068 25.0355 44.8082 25.0471C44.8097 25.0588 44.8082 25.0706 44.8039 25.0815L44.6861 25.4888C44.6775 25.5155 44.661 25.5389 44.6387 25.556C44.6165 25.5731 44.5897 25.5831 44.5617 25.5846H43.0818L42.8462 26.3991H44.0818C44.0933 26.3991 44.1046 26.4019 44.1149 26.4071C44.1251 26.4124 44.134 26.42 44.1407 26.4293C44.1474 26.4387 44.1518 26.4495 44.1536 26.4609C44.1553 26.4723 44.1543 26.4839 44.1507 26.4949L44.0307 26.9088C44.0223 26.9351 44.0061 26.9581 43.9842 26.9748C43.9624 26.9915 43.9359 27.0011 43.9085 27.0023H42.6729L42.4195 27.8747H43.8995C43.911 27.874 43.9225 27.8761 43.933 27.881C43.9435 27.8859 43.9525 27.8933 43.9594 27.9026C43.9663 27.9119 43.9707 27.9228 43.9722 27.9343C43.9738 27.9457 43.9725 27.9574 43.9684 27.9682L43.8506 28.3755C43.8424 28.402 43.8263 28.4254 43.8045 28.4425C43.7826 28.4596 43.7561 28.4696 43.7284 28.4712H41.6929C41.6814 28.4715 41.6699 28.469 41.6596 28.4638C41.6492 28.4586 41.6404 28.4509 41.6337 28.4414C41.6271 28.4319 41.623 28.4209 41.6217 28.4094C41.6204 28.3979 41.6219 28.3862 41.6262 28.3755L42.5773 25.0815Z" fill="#999999"/>
<path d="M46.8528 25.0815C46.8613 25.0551 46.8775 25.0319 46.8993 25.0148C46.9211 24.9978 46.9475 24.9877 46.9751 24.9858H48.4061C48.5379 24.977 48.6697 25.0018 48.7894 25.0578C48.909 25.1138 49.0126 25.1992 49.0904 25.306C49.1682 25.4128 49.2178 25.5376 49.2346 25.6688C49.2513 25.8 49.2346 25.9333 49.1861 26.0563C49.1033 26.2919 48.9673 26.5052 48.7889 26.6796C48.6105 26.8541 48.3943 26.985 48.1572 27.0623L48.4772 28.3243C48.48 28.3425 48.4789 28.3612 48.4738 28.3789C48.4687 28.3967 48.4598 28.4131 48.4478 28.4271C48.4357 28.4411 48.4208 28.4522 48.404 28.4599C48.3872 28.4675 48.369 28.4713 48.3505 28.4712H47.8239C47.8092 28.4723 47.7945 28.4686 47.782 28.4605C47.7696 28.4525 47.7601 28.4406 47.7551 28.4267L47.4729 27.1069H46.9173L46.5506 28.3755C46.5423 28.4015 46.5265 28.4246 46.5052 28.4416C46.4838 28.4586 46.4579 28.4689 46.4306 28.4712H45.9684C45.9569 28.4715 45.9454 28.469 45.9351 28.4638C45.9247 28.4586 45.9159 28.4509 45.9093 28.4414C45.9026 28.4319 45.8985 28.4209 45.8972 28.4094C45.8959 28.3979 45.8974 28.3862 45.9018 28.3755L46.8528 25.0815ZM47.8927 26.5749C48.0376 26.5634 48.1758 26.5091 48.2898 26.4187C48.4038 26.3283 48.4883 26.2061 48.5327 26.0675C48.5535 26.0116 48.5601 25.9515 48.5518 25.8925C48.5436 25.8335 48.5208 25.7775 48.4855 25.7296C48.4502 25.6817 48.4035 25.6433 48.3497 25.6179C48.2958 25.5926 48.2366 25.5811 48.1772 25.5845H47.3617L47.075 26.5749H47.8928H47.8927Z" fill="#999999"/>
<path d="M51.5191 25.0815C51.5276 25.0552 51.5438 25.0319 51.5656 25.0149C51.5873 24.9978 51.6137 24.9877 51.6413 24.9858H53.6768C53.6885 24.9852 53.7002 24.9875 53.7108 24.9926C53.7214 24.9977 53.7305 25.0053 53.7374 25.0148C53.7442 25.0244 53.7486 25.0355 53.75 25.0471C53.7515 25.0588 53.75 25.0706 53.7457 25.0815L53.6279 25.4888C53.6193 25.5155 53.6028 25.5389 53.5805 25.556C53.5583 25.5731 53.5315 25.5831 53.5035 25.5846H52.0236L51.7547 26.5193H52.9903C53.0018 26.5192 53.0131 26.5219 53.0233 26.5272C53.0335 26.5324 53.0423 26.5401 53.0489 26.5496C53.0554 26.559 53.0596 26.5699 53.061 26.5813C53.0624 26.5927 53.061 26.6043 53.0569 26.6151L52.9392 27.0223C52.9304 27.0485 52.9142 27.0716 52.8924 27.0886C52.8707 27.1056 52.8444 27.1159 52.8169 27.1181H51.5814L51.2169 28.3756C51.2086 28.4016 51.1928 28.4246 51.1714 28.4417C51.1501 28.4587 51.1241 28.469 51.0969 28.4713H50.6347C50.6231 28.4716 50.6117 28.4691 50.6013 28.4639C50.591 28.4587 50.5821 28.451 50.5755 28.4415C50.5689 28.432 50.5647 28.421 50.5634 28.4095C50.5621 28.398 50.5637 28.3863 50.568 28.3756L51.5191 25.0815Z" fill="#999999"/>
<path d="M54.1549 28.3401L56.677 24.9927C56.6881 24.9761 56.7029 24.9624 56.7203 24.9528C56.7377 24.9431 56.7571 24.9377 56.777 24.9371H56.8304C56.8385 24.9359 56.8467 24.9364 56.8546 24.9387C56.8625 24.9409 56.8698 24.9448 56.8761 24.95C56.8823 24.9553 56.8875 24.9618 56.8911 24.9691C56.8947 24.9765 56.8967 24.9845 56.897 24.9927L57.4705 28.3401C57.4718 28.3571 57.4696 28.3742 57.4639 28.3903C57.4582 28.4064 57.4492 28.4211 57.4374 28.4335C57.4257 28.4459 57.4115 28.4556 57.3957 28.4622C57.38 28.4687 57.3631 28.4718 57.346 28.4714H56.9126C56.8982 28.4736 56.8835 28.4727 56.8695 28.4687C56.8556 28.4646 56.8426 28.4576 56.8316 28.4481C56.8207 28.4386 56.8119 28.4267 56.8059 28.4135C56.7999 28.4002 56.7969 28.3858 56.797 28.3712L56.706 27.8326H55.2081L54.8103 28.3712C54.7919 28.4009 54.7664 28.4255 54.7362 28.443C54.7059 28.4605 54.6719 28.4702 54.637 28.4714H54.2015C54.1282 28.4714 54.106 28.4069 54.1549 28.3401ZM56.6215 27.2829L56.437 26.1857H56.4215L55.617 27.2829H56.6215L56.6215 27.2829Z" fill="#999999"/>
<path d="M61.7677 24.9369C61.9712 24.9222 62.1753 24.9565 62.3628 25.0371C62.5503 25.1176 62.7158 25.242 62.8454 25.3999C62.8526 25.4113 62.8574 25.4241 62.8595 25.4375C62.8617 25.4508 62.861 25.4645 62.8577 25.4776C62.8544 25.4907 62.8484 25.503 62.8402 25.5138C62.832 25.5245 62.8217 25.5335 62.8099 25.5401L62.4166 25.8517C62.4087 25.8612 62.3989 25.8688 62.3877 25.8741C62.3766 25.8793 62.3644 25.8821 62.3521 25.8821C62.3398 25.8821 62.3277 25.8793 62.3165 25.8741C62.3054 25.8688 62.2955 25.8612 62.2877 25.8517C62.2018 25.7559 62.096 25.6799 61.9778 25.6292C61.8596 25.5785 61.7318 25.5541 61.6033 25.5579C61.2722 25.5801 60.9558 25.7033 60.6968 25.911C60.4377 26.1187 60.2485 26.401 60.1544 26.7197C60.0985 26.8473 60.076 26.9872 60.0891 27.126C60.1022 27.2647 60.1503 27.3979 60.2291 27.5129C60.3078 27.6278 60.4145 27.7208 60.5391 27.7829C60.6637 27.8451 60.802 27.8744 60.9411 27.8681C61.2447 27.8584 61.5389 27.7602 61.7877 27.5855C61.8049 27.5696 61.8275 27.5607 61.851 27.5607C61.8745 27.5607 61.8971 27.5696 61.9143 27.5855L62.1321 27.9037C62.1427 27.9275 62.144 27.9544 62.1357 27.9791C62.1275 28.0038 62.1104 28.0246 62.0877 28.0373C61.7007 28.3423 61.2245 28.5119 60.7322 28.5202C60.5126 28.5349 60.2929 28.4934 60.0938 28.3996C59.8947 28.3058 59.7227 28.1627 59.594 27.984C59.4653 27.8052 59.3842 27.5966 59.3582 27.3777C59.3322 27.1589 59.3623 26.937 59.4455 26.733C59.6042 26.2326 59.9115 25.7925 60.3265 25.4716C60.7414 25.1507 61.2442 24.9642 61.7677 24.9369Z" fill="#999999"/>
<path d="M64.9327 25.0815C64.9412 25.0552 64.9573 25.0319 64.9791 25.0149C65.0009 24.9978 65.0273 24.9877 65.0549 24.9858H67.0904C67.1021 24.9852 67.1138 24.9875 67.1244 24.9926C67.1349 24.9977 67.1441 25.0053 67.1509 25.0148C67.1578 25.0244 67.1622 25.0355 67.1636 25.0471C67.1651 25.0588 67.1636 25.0706 67.1593 25.0815L67.0415 25.4888C67.0329 25.5155 67.0163 25.5389 66.9941 25.556C66.9719 25.5731 66.945 25.5831 66.9171 25.5846H65.4371L65.2016 26.3991H66.4372C66.4487 26.3991 66.46 26.4019 66.4702 26.4071C66.4805 26.4124 66.4893 26.42 66.4961 26.4293C66.5028 26.4387 66.5072 26.4495 66.5089 26.4609C66.5107 26.4723 66.5097 26.4839 66.506 26.4949L66.386 26.9088C66.3777 26.9351 66.3615 26.9581 66.3396 26.9748C66.3177 26.9915 66.2913 27.0011 66.2638 27.0023H65.0282L64.7749 27.8747H66.2549C66.2664 27.874 66.2779 27.8761 66.2884 27.881C66.2988 27.8859 66.3079 27.8933 66.3148 27.9026C66.3216 27.9119 66.326 27.9228 66.3276 27.9343C66.3292 27.9457 66.3279 27.9574 66.3238 27.9682L66.206 28.3755C66.1978 28.402 66.1817 28.4254 66.1599 28.4425C66.138 28.4596 66.1114 28.4696 66.0837 28.4712H64.0483C64.0367 28.4715 64.0252 28.469 64.0149 28.4638C64.0046 28.4586 63.9957 28.4509 63.9891 28.4414C63.9825 28.4319 63.9783 28.4209 63.977 28.4094C63.9757 28.3979 63.9773 28.3862 63.9816 28.3755L64.9327 25.0815Z" fill="#999999"/>
<path d="M71.6563 25.0815C71.6648 25.0552 71.681 25.0319 71.7027 25.0149C71.7245 24.9978 71.7509 24.9877 71.7785 24.9858H73.814C73.8257 24.9852 73.8374 24.9875 73.848 24.9926C73.8586 24.9977 73.8677 25.0053 73.8746 25.0148C73.8814 25.0244 73.8858 25.0355 73.8872 25.0471C73.8887 25.0588 73.8872 25.0706 73.8829 25.0815L73.7651 25.4888C73.7565 25.5155 73.74 25.5389 73.7177 25.556C73.6955 25.5731 73.6687 25.5831 73.6407 25.5846H72.1607L71.8919 26.5193H73.1275C73.1389 26.5192 73.1503 26.5219 73.1605 26.5272C73.1707 26.5324 73.1795 26.5401 73.186 26.5496C73.1926 26.559 73.1968 26.5699 73.1982 26.5813C73.1996 26.5927 73.1982 26.6043 73.1941 26.6151L73.0763 27.0223C73.0676 27.0485 73.0513 27.0716 73.0296 27.0886C73.0079 27.1056 72.9816 27.1159 72.9541 27.1181H71.7185L71.3541 28.3756C71.3458 28.4016 71.33 28.4246 71.3086 28.4417C71.2873 28.4587 71.2613 28.469 71.2341 28.4713H70.7719C70.7603 28.4716 70.7489 28.4691 70.7385 28.4639C70.7282 28.4587 70.7193 28.451 70.7127 28.4415C70.7061 28.432 70.702 28.421 70.7006 28.4095C70.6993 28.398 70.7009 28.3863 70.7052 28.3756L71.6563 25.0815Z" fill="#999999"/>
<path d="M77.3986 24.937C77.6185 24.9238 77.8381 24.9666 78.0369 25.0616C78.2358 25.1566 78.4073 25.3006 78.5354 25.48C78.6635 25.6595 78.7441 25.8686 78.7695 26.0878C78.7949 26.3069 78.7644 26.529 78.6808 26.7331C78.5224 27.2321 78.2155 27.6707 77.8012 27.9901C77.387 28.3095 76.8852 28.4945 76.3631 28.5203C76.1439 28.5347 75.9246 28.4928 75.726 28.3987C75.5275 28.3046 75.3561 28.1613 75.2282 27.9824C75.1003 27.8035 75.0201 27.5949 74.9951 27.3763C74.9701 27.1577 75.0011 26.9363 75.0853 26.7331C75.2421 26.2332 75.5477 25.7933 75.9611 25.4722C76.3746 25.1512 76.8762 24.9644 77.3986 24.937ZM76.5498 27.8748C76.8825 27.8557 77.2018 27.7365 77.4658 27.5328C77.7298 27.3291 77.9264 27.0504 78.0298 26.733C78.0815 26.6026 78.0997 26.4613 78.0828 26.3221C78.0659 26.1828 78.0144 26.05 77.9331 25.9358C77.8518 25.8216 77.7432 25.7296 77.6172 25.6683C77.4912 25.6069 77.3519 25.5782 77.212 25.5846C76.8792 25.605 76.5602 25.7255 76.297 25.9304C76.0337 26.1353 75.8383 26.4151 75.7365 26.7331C75.6842 26.8627 75.6653 27.0035 75.6818 27.1423C75.6982 27.2812 75.7493 27.4136 75.8303 27.5274C75.9114 27.6412 76.0198 27.7327 76.1456 27.7935C76.2713 27.8542 76.4103 27.8822 76.5497 27.8748H76.5498Z" fill="#999999"/>
<path d="M81.1497 25.0815C81.1576 25.0548 81.1736 25.0312 81.1955 25.0141C81.2174 24.9969 81.2442 24.987 81.2719 24.9858H82.7008C82.8326 24.977 82.9646 25.0017 83.0843 25.0576C83.2041 25.1135 83.3078 25.1988 83.3859 25.3056C83.4639 25.4124 83.5137 25.5372 83.5307 25.6685C83.5477 25.7998 83.5313 25.9332 83.483 26.0564C83.3999 26.2925 83.2634 26.5062 83.0841 26.6807C82.9049 26.8552 82.6877 26.9859 82.4497 27.0624L82.7719 28.3243C82.7745 28.3427 82.7731 28.3614 82.7678 28.3792C82.7624 28.397 82.7533 28.4134 82.7411 28.4274C82.7289 28.4413 82.7138 28.4525 82.6968 28.46C82.6799 28.4676 82.6616 28.4714 82.643 28.4712H82.1186C82.104 28.4728 82.0894 28.4692 82.0772 28.461C82.065 28.4529 82.0561 28.4408 82.0519 28.4267L81.7675 27.1069H81.2119L80.8453 28.3755C80.8365 28.4017 80.8203 28.4248 80.7985 28.4418C80.7768 28.4588 80.7506 28.469 80.7231 28.4712H80.2653C80.2535 28.4721 80.2417 28.4699 80.2311 28.4649C80.2204 28.4599 80.2111 28.4522 80.2042 28.4426C80.1973 28.433 80.193 28.4218 80.1916 28.4101C80.1903 28.3983 80.1919 28.3864 80.1964 28.3755L81.1497 25.0815ZM82.1853 26.575C82.3308 26.5639 82.4698 26.5098 82.5845 26.4194C82.6993 26.329 82.7846 26.2066 82.8297 26.0675C82.8502 26.0115 82.8565 25.9513 82.848 25.8922C82.8395 25.8332 82.8165 25.7771 82.781 25.7292C82.7455 25.6813 82.6987 25.643 82.6447 25.6177C82.5908 25.5925 82.5314 25.5811 82.4719 25.5845H81.6586L81.3719 26.575H82.1852H82.1853Z" fill="#999999"/>
<path d="M88.645 25.0127C88.6536 24.9897 88.6691 24.9701 88.6895 24.9565C88.7098 24.9429 88.7339 24.9361 88.7584 24.937H88.8384C88.8539 24.9352 88.8695 24.9392 88.8822 24.9483C88.8949 24.9573 88.9038 24.9707 88.9072 24.986L89.3272 27.3363H89.345L91.1205 24.986C91.1323 24.9706 91.1474 24.9582 91.1648 24.9498C91.1821 24.9413 91.2012 24.9369 91.2205 24.937H91.3005C91.3106 24.9351 91.321 24.9357 91.3308 24.939C91.3405 24.9422 91.3493 24.9479 91.3562 24.9555C91.3631 24.9631 91.368 24.9723 91.3703 24.9823C91.3726 24.9924 91.3723 25.0028 91.3694 25.0127L90.994 28.3556C90.9935 28.3714 90.9898 28.387 90.9833 28.4014C90.9767 28.4158 90.9674 28.4287 90.9558 28.4395C90.9443 28.4503 90.9307 28.4586 90.9159 28.4641C90.901 28.4695 90.8853 28.472 90.8695 28.4714H90.4161C90.3962 28.4708 90.3773 28.4627 90.3633 28.4486C90.3492 28.4345 90.3411 28.4156 90.3406 28.3957L90.5917 26.5106H90.5761L89.1361 28.4669C89.1249 28.4837 89.1097 28.4973 89.0918 28.5067C89.0739 28.516 89.054 28.5207 89.0339 28.5203H88.945C88.9287 28.522 88.9123 28.5174 88.8991 28.5075C88.886 28.4976 88.877 28.4832 88.874 28.467L88.5562 26.5106H88.5428L87.7051 28.3958C87.6945 28.4168 87.6787 28.4348 87.6593 28.448C87.6398 28.4612 87.6174 28.4693 87.5939 28.4714H87.1451C87.0806 28.4714 87.0518 28.4269 87.0829 28.3557L88.645 25.0127Z" fill="#999999"/>
<path d="M95.5447 24.9369C95.7645 24.9238 95.9841 24.9668 96.1827 25.0619C96.3814 25.1569 96.5527 25.301 96.6807 25.4805C96.8086 25.66 96.8889 25.8691 96.9141 26.0881C96.9393 26.3072 96.9085 26.5291 96.8247 26.7331C96.6663 27.232 96.3594 27.6706 95.9452 27.99C95.5309 28.3095 95.0291 28.4945 94.507 28.5203C94.2878 28.5346 94.0685 28.4928 93.87 28.3987C93.6714 28.3045 93.5001 28.1613 93.3722 27.9824C93.2443 27.8035 93.164 27.5949 93.139 27.3763C93.114 27.1577 93.1451 26.9363 93.2293 26.7331C93.3865 26.233 93.6925 25.7931 94.1063 25.4721C94.5202 25.1511 95.022 24.9644 95.5447 24.9369ZM94.6937 27.8748C95.0268 27.856 95.3465 27.737 95.6109 27.5333C95.8754 27.3296 96.0723 27.0506 96.1759 26.733C96.2276 26.6024 96.2457 26.4609 96.2287 26.3215C96.2117 26.1821 96.16 26.0492 96.0784 25.9349C95.9969 25.8207 95.888 25.7287 95.7617 25.6675C95.6355 25.6063 95.496 25.5778 95.3559 25.5845C95.023 25.6045 94.7039 25.7249 94.4406 25.9299C94.1772 26.1349 93.9819 26.4148 93.8804 26.733C93.8278 26.8626 93.8089 27.0034 93.8252 27.1424C93.8415 27.2813 93.8926 27.4139 93.9737 27.5278C94.0548 27.6417 94.1633 27.7332 94.2892 27.7939C94.415 27.8545 94.5542 27.8824 94.6936 27.8748H94.6937Z" fill="#999999"/>
<path d="M99.3071 25.026C99.316 25.0004 99.3324 24.9782 99.3543 24.9623C99.3761 24.9464 99.4023 24.9375 99.4293 24.937H99.5538L100.996 27.1359H101L101.594 25.0816C101.602 25.055 101.619 25.0315 101.641 25.0144C101.663 24.9974 101.69 24.9874 101.718 24.9859H102.178C102.19 24.9859 102.201 24.9886 102.211 24.994C102.221 24.9993 102.23 25.0071 102.236 25.0165C102.242 25.026 102.246 25.0369 102.247 25.0483C102.249 25.0596 102.247 25.0711 102.243 25.0816L101.276 28.429C101.268 28.4546 101.252 28.4771 101.23 28.4934C101.209 28.5096 101.183 28.519 101.156 28.5202H101.036L99.6071 26.2366H99.6025L98.9826 28.3754C98.9744 28.402 98.9583 28.4254 98.9364 28.4425C98.9146 28.4596 98.888 28.4696 98.8603 28.4712H98.4071C98.3955 28.4716 98.3839 28.4691 98.3734 28.464C98.363 28.4589 98.3539 28.4512 98.3471 28.4417C98.3403 28.4323 98.3359 28.4213 98.3344 28.4097C98.3328 28.3981 98.3341 28.3864 98.3382 28.3754L99.3071 25.026Z" fill="#999999"/>
<path d="M104.491 25.0816C104.499 25.0549 104.515 25.0313 104.537 25.0141C104.559 24.9969 104.586 24.9871 104.613 24.9859H106.647C106.658 24.9851 106.67 24.9874 106.681 24.9924C106.691 24.9975 106.7 25.0053 106.707 25.0149C106.714 25.0245 106.718 25.0357 106.719 25.0474C106.72 25.0591 106.718 25.0709 106.713 25.0816L106.598 25.4889C106.589 25.5156 106.573 25.539 106.55 25.5561C106.528 25.5732 106.501 25.5831 106.473 25.5846H104.994L104.758 26.3992H105.994C106.005 26.3988 106.017 26.4012 106.027 26.4064C106.038 26.4115 106.047 26.4191 106.054 26.4286C106.06 26.4381 106.065 26.4491 106.066 26.4606C106.068 26.4722 106.066 26.484 106.062 26.4949L105.942 26.9089C105.934 26.9353 105.918 26.9585 105.896 26.9752C105.874 26.992 105.848 27.0015 105.82 27.0023H104.585L104.331 27.8748H105.811C105.823 27.8738 105.834 27.8759 105.845 27.8807C105.856 27.8855 105.865 27.893 105.872 27.9023C105.879 27.9117 105.883 27.9226 105.884 27.9342C105.886 27.9457 105.884 27.9574 105.88 27.9682L105.762 28.3755C105.754 28.4022 105.738 28.4258 105.717 28.443C105.695 28.4601 105.668 28.47 105.64 28.4712H103.607C103.595 28.4721 103.583 28.4699 103.573 28.4649C103.562 28.4599 103.553 28.4522 103.546 28.4426C103.539 28.433 103.535 28.4218 103.533 28.4101C103.532 28.3983 103.533 28.3864 103.538 28.3755L104.491 25.0816Z" fill="#999999"/>
<path d="M108.94 26.7931L108.28 25.1306C108.277 25.1128 108.278 25.0946 108.283 25.0772C108.288 25.0598 108.296 25.0436 108.308 25.0299C108.319 25.0161 108.334 25.005 108.35 24.9974C108.367 24.9898 108.384 24.9859 108.402 24.9859H108.913C108.928 24.9858 108.942 24.99 108.954 24.9979C108.965 25.0059 108.975 25.0172 108.98 25.0304L109.449 26.1766L110.58 25.0304C110.605 25.0053 110.638 24.9896 110.673 24.9859H111.187C111.267 24.9859 111.282 25.0683 111.225 25.1306L109.593 26.7887L109.133 28.3756C109.124 28.4016 109.108 28.4245 109.086 28.4415C109.065 28.4584 109.039 28.4688 109.011 28.4713H108.551C108.539 28.472 108.528 28.4696 108.517 28.4646C108.507 28.4595 108.497 28.4518 108.491 28.4423C108.484 28.4328 108.479 28.4217 108.478 28.41C108.476 28.3984 108.478 28.3865 108.482 28.3756L108.94 26.7931Z" fill="#999999"/>
</svg>
