<svg width="120" height="120" viewBox="0 0 120 120" fill="none" xmlns="http://www.w3.org/2000/svg">
<path opacity="0.5" d="M54.9337 106.076L115.125 68.601L90.6046 53.3662L52.4413 79.6925L35.1249 101.065L54.9337 106.076Z" fill="#BDBDBD"/>
<path opacity="0.5" d="M85.8755 49.5663C86.5359 47.6976 82.0832 44.4537 75.9302 42.321C69.7771 40.1882 64.2536 39.9742 63.5932 41.8429C62.9328 43.7116 67.3854 46.9555 73.5385 49.0883C79.6916 51.221 85.215 51.435 85.8755 49.5663Z" fill="#0F054C"/>
<path d="M79.1677 35.0382L79.0916 33.115L78.6397 31.9895L78.3533 32.9201L79.1677 35.0382Z" fill="#DD821F"/>
<path d="M58.7726 35.4063L58.6965 33.5186C58.6965 33.5186 60.3074 35.1094 60.3074 35.1493C60.3074 35.1891 58.7726 35.4063 58.7726 35.4063Z" fill="#FFD85A"/>
<path d="M69.1223 40.9985C74.7468 40.8656 79.2124 38.034 79.0916 33.1152C78.9708 28.1965 74.3173 24.3147 68.6883 24.4477C63.0594 24.5806 58.5983 28.6795 58.7191 33.5982C58.8399 38.517 63.4934 41.1359 69.1223 40.9985Z" fill="#FFD85A"/>
<path d="M69.1969 44.1934C74.8247 44.0601 79.2906 39.9634 79.1718 35.0433C79.053 30.1231 74.3944 26.2426 68.7666 26.3758C63.1388 26.5091 58.6728 30.6058 58.7917 35.5259C58.9105 40.4461 63.569 44.3267 69.1969 44.1934Z" fill="#FFD85A"/>
<path d="M76.0936 28.8611C77.0192 29.6161 77.7723 30.5572 78.3031 31.6221C78.8338 32.687 79.13 33.8515 79.1721 35.0383C79.2884 39.957 74.8228 44.0515 69.1984 44.1845C66.5839 44.2711 64.0253 43.4233 61.9899 41.796L76.0936 28.8611Z" fill="#DD821F"/>
<path d="M69.1874 43.7945C74.5632 43.6671 78.8292 39.7538 78.7157 35.0539C78.6022 30.3539 74.1522 26.647 68.7764 26.7743C63.4005 26.9017 59.1346 30.815 59.2481 35.5149C59.3616 40.2149 63.8116 43.9218 69.1874 43.7945Z" fill="#F9BF30"/>
<path d="M69.1467 42.1157C73.4627 42.0135 76.8876 38.8723 76.7965 35.0996C76.7054 31.3269 73.1327 28.3514 68.8168 28.4536C64.5008 28.5558 61.0758 31.6971 61.1669 35.4698C61.2581 39.2425 64.8307 42.218 69.1467 42.1157Z" fill="#F2B42A"/>
<path d="M61.1666 35.4638C61.1666 35.3087 61.1666 35.1536 61.1666 35.0206C61.5291 38.5657 64.9789 41.2998 69.1179 41.2023C73.2568 41.1048 76.568 38.2156 76.7559 34.6528C76.7559 34.8035 76.7827 34.9586 76.7872 35.096C76.8767 38.8714 73.4537 42.0132 69.1402 42.1151C64.8268 42.217 61.2606 39.2348 61.1666 35.4638Z" fill="#FFD85A"/>
<path d="M67.4846 35.8538L69.0865 34.3826C70.6302 34.7326 73.5073 35.3796 75.7983 35.9158C75.4825 36.7887 74.9812 37.5842 74.3281 38.2486C73.675 38.9129 72.8854 39.4306 72.0128 39.7666L67.4846 35.8538Z" fill="#FFD85A"/>
<path d="M70.0038 40.2895C69.7469 40.3208 69.4885 40.3385 69.2297 40.3427C67.4572 40.4029 65.7208 39.8375 64.3301 38.7475L66.9477 36.3457L70.0038 40.2895Z" fill="#FFD85A"/>
<path d="M70.8047 32.805L73.825 30.0354C74.8407 30.9217 75.749 31.8832 75.9906 33.1772L70.8047 32.805Z" fill="#FFD85A"/>
<path d="M69.2252 29.2644C64.9118 29.3663 61.4843 32.5081 61.5782 36.2791C61.5908 37.0255 61.7425 37.7631 62.0257 38.4549C61.4812 37.5482 61.1808 36.5183 61.1532 35.4638C61.0637 31.6927 64.4867 28.551 68.8046 28.449C72.2455 28.3648 75.2121 30.2216 76.3173 32.9158C75.0063 30.6868 72.3037 29.1891 69.2252 29.2644Z" fill="#DD821F"/>
<path d="M79.0914 33.1152C79.1602 33.7642 79.1316 34.4198 79.0064 35.0605C78.7827 34.3382 78.2949 32.1802 78.2949 32.1802L77.5208 30.4653L76.8721 29.938L75.7758 29.1492L75.6863 26.6721C76.704 27.4258 77.5382 28.3958 78.1275 29.5108C78.7168 30.6258 79.0462 31.8575 79.0914 33.1152V33.1152Z" fill="#DD821F"/>
<path d="M59.3768 32.8625L59.332 32.3529C59.332 32.3188 59.3184 32.2861 59.294 32.262C59.2697 32.2379 59.2367 32.2244 59.2023 32.2244H59.1665C59.1497 32.2249 59.1331 32.2288 59.1178 32.2359C59.1025 32.2429 59.0888 32.253 59.0775 32.2654C59.0663 32.2778 59.0576 32.2923 59.0521 32.3081C59.0467 32.3239 59.0445 32.3406 59.0457 32.3573L59.086 32.8625C59.0853 32.8795 59.0883 32.8965 59.0946 32.9124C59.1009 32.9282 59.1104 32.9427 59.1226 32.9547C59.1348 32.9668 59.1493 32.9762 59.1653 32.9825C59.1814 32.9887 59.1985 32.9916 59.2157 32.991H59.2515C59.2851 32.9898 59.317 32.9758 59.3404 32.9518C59.3638 32.9278 59.3768 32.8958 59.3768 32.8625V32.8625Z" fill="#DD821F"/>
<path d="M60.2716 30.9173L60.2179 30.0311C60.2185 30.0117 60.2151 29.9924 60.2079 29.9744C60.2007 29.9564 60.1899 29.94 60.176 29.9263C60.1622 29.9126 60.1457 29.9018 60.1275 29.8947C60.1093 29.8876 60.0898 29.8842 60.0702 29.8848H59.9808C59.942 29.8882 59.906 29.9062 59.8802 29.935C59.8544 29.9639 59.8408 30.0014 59.842 30.0399L59.8957 30.9483C59.8957 30.9871 59.9113 31.0243 59.939 31.0517C59.9667 31.0792 60.0042 31.0946 60.0434 31.0946H60.1329C60.1545 31.0938 60.1756 31.0883 60.1948 31.0785C60.214 31.0687 60.2308 31.0549 60.244 31.038C60.2573 31.0211 60.2666 31.0016 60.2713 30.9807C60.2761 30.9598 60.2762 30.9382 60.2716 30.9173V30.9173Z" fill="#DD821F"/>
<path d="M61.511 29.2246L61.4573 28.3383C61.4574 28.2951 61.4407 28.2536 61.4107 28.2223C61.3807 28.1909 61.3398 28.1722 61.2962 28.1699H61.1396C61.1179 28.1711 61.0966 28.1764 61.0769 28.1857C61.0573 28.195 61.0396 28.2081 61.0251 28.2241C61.0105 28.2402 60.9993 28.2589 60.9921 28.2793C60.9849 28.2996 60.9818 28.3212 60.983 28.3427L61.0322 29.229C61.0334 29.2721 61.0512 29.3132 61.082 29.3437C61.1128 29.3742 61.1542 29.3918 61.1978 29.393H61.3544C61.3759 29.3924 61.3972 29.3876 61.4168 29.3787C61.4364 29.3699 61.4541 29.3573 61.4687 29.3416C61.4833 29.3259 61.4945 29.3074 61.5018 29.2873C61.5091 29.2672 61.5122 29.2459 61.511 29.2246Z" fill="#DD821F"/>
<path d="M63.3679 27.8552L63.3142 26.7873C63.3143 26.7434 63.297 26.7012 63.266 26.6698C63.2351 26.6383 63.193 26.6201 63.1487 26.6189H62.9921C62.9703 26.62 62.949 26.6254 62.9294 26.6347C62.9097 26.644 62.8921 26.6571 62.8776 26.6731C62.863 26.6892 62.8518 26.7079 62.8446 26.7283C62.8374 26.7486 62.8343 26.7702 62.8355 26.7917L62.8936 27.8641C62.893 27.8854 62.8968 27.9066 62.9046 27.9265C62.9124 27.9464 62.9242 27.9645 62.9392 27.9798C62.9542 27.9951 62.9722 28.0072 62.992 28.0155C63.0119 28.0238 63.0332 28.0281 63.0547 28.028H63.2113C63.2333 28.0275 63.2549 28.0226 63.2748 28.0135C63.2948 28.0043 63.3126 27.9913 63.3273 27.9751C63.342 27.9589 63.3531 27.9399 63.3601 27.9193C63.3671 27.8987 63.3698 27.8769 63.3679 27.8552V27.8552Z" fill="#DD821F"/>
<path d="M65.2385 26.9601L65.1758 25.7238C65.1764 25.7025 65.1727 25.6812 65.1649 25.6614C65.1571 25.6415 65.1453 25.6234 65.1303 25.6081C65.1153 25.5928 65.0973 25.5807 65.0775 25.5724C65.0576 25.5641 65.0363 25.5598 65.0148 25.5598H64.8582C64.8362 25.5603 64.8146 25.5653 64.7946 25.5744C64.7747 25.5835 64.7568 25.5966 64.7422 25.6127C64.7275 25.6289 64.7163 25.6479 64.7093 25.6685C64.7024 25.6892 64.6997 25.711 64.7015 25.7326L64.7597 26.9645C64.7597 27.0084 64.777 27.0506 64.8079 27.0821C64.8388 27.1135 64.881 27.1318 64.9253 27.1329H65.0819C65.1254 27.1295 65.1659 27.1097 65.1951 27.0775C65.2242 27.0454 65.2398 27.0033 65.2385 26.9601V26.9601Z" fill="#DD821F"/>
<path d="M67.1176 26.4106L67.0549 25.223C67.055 25.1803 67.0381 25.1393 67.008 25.1086C66.978 25.078 66.937 25.0602 66.8939 25.0591H66.7372C66.7153 25.0596 66.6937 25.0646 66.6737 25.0737C66.6538 25.0828 66.6359 25.0958 66.6213 25.112C66.6066 25.1282 66.5954 25.1472 66.5884 25.1678C66.5815 25.1884 66.5788 25.2102 66.5806 25.2319L66.6388 26.4151C66.6382 26.437 66.6421 26.4588 66.6501 26.4792C66.6582 26.4996 66.6703 26.5182 66.6857 26.5339C66.7011 26.5496 66.7196 26.562 66.74 26.5705C66.7603 26.5791 66.7822 26.5835 66.8044 26.5834H66.961C67.0045 26.5801 67.045 26.5602 67.0742 26.528C67.1033 26.4959 67.1189 26.4538 67.1176 26.4106V26.4106Z" fill="#DD821F"/>
<path d="M69.0015 26.2245L68.9433 25.0192C68.9433 24.9977 68.939 24.9763 68.9307 24.9564C68.9224 24.9365 68.9102 24.9185 68.8948 24.9032C68.8794 24.888 68.8612 24.8759 68.8411 24.8677C68.821 24.8595 68.7995 24.8552 68.7777 24.8552H68.6167C68.5949 24.8564 68.5736 24.8617 68.554 24.871C68.5343 24.8803 68.5167 24.8934 68.5021 24.9094C68.4876 24.9255 68.4764 24.9442 68.4692 24.9646C68.4619 24.9849 68.4589 25.0065 68.4601 25.028L68.5227 26.2289C68.5227 26.2721 68.5393 26.3136 68.5693 26.345C68.5993 26.3763 68.6403 26.395 68.6838 26.3973H68.8404C68.8625 26.3967 68.8843 26.3918 68.9045 26.3828C68.9247 26.3737 68.9428 26.3607 68.9578 26.3446C68.9728 26.3285 68.9844 26.3096 68.9919 26.2889C68.9994 26.2683 69.0027 26.2464 69.0015 26.2245V26.2245Z" fill="#DD821F"/>
<path d="M70.8942 26.2645L70.836 25.1345C70.8367 25.1128 70.8328 25.0912 70.8247 25.071C70.8166 25.0509 70.8044 25.0325 70.7889 25.0172C70.7734 25.0018 70.7549 24.9898 70.7346 24.9818C70.7142 24.9737 70.6924 24.9699 70.6705 24.9705H70.5139C70.4704 24.9739 70.4298 24.9937 70.4007 25.0259C70.3715 25.0581 70.356 25.1001 70.3573 25.1433L70.4154 26.2689C70.4154 26.3128 70.4327 26.355 70.4637 26.3864C70.4946 26.4179 70.5367 26.4361 70.581 26.4373H70.7376C70.7811 26.4339 70.8217 26.414 70.8508 26.3819C70.88 26.3497 70.8955 26.3077 70.8942 26.2645Z" fill="#DD821F"/>
<path d="M72.7959 26.6721L72.7378 25.582C72.7378 25.5381 72.7205 25.4959 72.6896 25.4644C72.6586 25.433 72.6165 25.4147 72.5722 25.4136H72.4156C72.3721 25.417 72.3316 25.4368 72.3024 25.469C72.2733 25.5011 72.2577 25.5432 72.259 25.5864L72.3172 26.6809C72.3172 26.7244 72.3346 26.7661 72.3657 26.7969C72.3967 26.8276 72.4388 26.8449 72.4827 26.8449H72.6438C72.6869 26.8415 72.727 26.8215 72.7555 26.7892C72.7839 26.7569 72.7984 26.7148 72.7959 26.6721V26.6721Z" fill="#DD821F"/>
<path d="M74.7064 27.5938L74.6482 26.4106C74.6488 26.3889 74.645 26.3673 74.6369 26.3471C74.6288 26.327 74.6166 26.3087 74.6011 26.2933C74.5856 26.278 74.5671 26.2659 74.5467 26.2579C74.5264 26.2499 74.5046 26.246 74.4826 26.2466H74.3261C74.2825 26.25 74.242 26.2699 74.2129 26.302C74.1837 26.3342 74.1682 26.3763 74.1694 26.4195L74.2321 27.6026C74.232 27.6458 74.2487 27.6873 74.2787 27.7187C74.3087 27.75 74.3496 27.7687 74.3932 27.771H74.5498C74.5719 27.7699 74.5936 27.7644 74.6136 27.7548C74.6336 27.7452 74.6514 27.7318 74.666 27.7152C74.6806 27.6987 74.6917 27.6794 74.6986 27.6586C74.7056 27.6377 74.7082 27.6157 74.7064 27.5938V27.5938Z" fill="#DD821F"/>
<path opacity="0.8" d="M48.2934 114.965C48.1796 114.969 48.0669 114.943 47.9667 114.89L4.18346 90.0038C4.13106 89.977 4.08661 89.9372 4.05444 89.8882C4.02228 89.8393 4.00352 89.7829 4 89.7246C4.0047 89.6564 4.02743 89.5906 4.06591 89.5338C4.1044 89.477 4.15727 89.4313 4.21925 89.4011L11.3427 85.2933C11.4547 85.2358 11.579 85.2058 11.7051 85.2058C11.8313 85.2058 11.9556 85.2358 12.0676 85.2933L55.8643 110.157C55.9175 110.183 55.9628 110.222 55.9951 110.272C56.0274 110.321 56.0456 110.378 56.0477 110.436C56.043 110.505 56.0203 110.57 55.9818 110.627C55.9433 110.684 55.8905 110.73 55.8285 110.76L48.6916 114.863C48.5705 114.932 48.4329 114.967 48.2934 114.965ZM11.7499 85.5193C11.6685 85.5172 11.588 85.5371 11.5172 85.5769L4.35797 89.6847C4.31323 89.7113 4.30426 89.729 4.30426 89.7335L48.1144 114.606C48.1778 114.631 48.2458 114.641 48.3137 114.638C48.3816 114.634 48.448 114.616 48.5081 114.584L55.645 110.476C55.6674 110.466 55.6861 110.449 55.6987 110.428L11.8886 85.5548C11.8457 85.5325 11.7983 85.5204 11.7499 85.5193Z" fill="url(#paint0_linear_3347_12172)"/>
<path d="M4.18328 82.9449V86.933C4.18276 86.9633 4.19144 86.993 4.2082 87.0183C4.22496 87.0436 4.24901 87.0633 4.27724 87.0748L48.0694 111.965C48.1583 112.005 48.2552 112.023 48.3523 112.018C48.4494 112.013 48.5441 111.986 48.6288 111.939L55.7612 107.853C55.7932 107.839 55.8216 107.817 55.8441 107.79C55.8665 107.763 55.8826 107.732 55.8909 107.698V107.698V103.666L52.4321 105.629L12.0182 82.6613C11.9299 82.6232 11.8339 82.6057 11.7376 82.6103C11.6414 82.615 11.5475 82.6415 11.4633 82.6879L9.0113 84.097L4.18328 82.9449Z" fill="url(#paint1_linear_3347_12172)"/>
<path d="M11.9868 78.6067L55.7835 103.493C55.9267 103.573 55.9088 103.714 55.7432 103.812L48.584 107.92C48.4995 107.965 48.4054 107.991 48.3092 107.995C48.213 107.999 48.1171 107.981 48.0292 107.942L4.23247 83.0557C4.08928 82.9759 4.10719 82.8297 4.27275 82.7366L11.4096 78.6288C11.4964 78.5781 11.5947 78.5495 11.6954 78.5456C11.7962 78.5418 11.8963 78.5627 11.9868 78.6067Z" fill="url(#paint2_linear_3347_12172)"/>
<path opacity="0.6" d="M13.58 84.6155L47.9981 103.812C48.2612 102.423 48.6537 101.061 49.1704 99.7439L14.8195 80.2241C14.26 81.6435 13.8448 83.1146 13.58 84.6155Z" fill="#3C699E"/>
<path d="M10.4702 80.9199L51.7701 104.406C51.8641 104.459 51.8551 104.556 51.7432 104.623L49.9534 105.655C49.8939 105.683 49.829 105.697 49.7633 105.697C49.6975 105.697 49.6326 105.683 49.5731 105.655L8.27767 82.1695C8.17923 82.1119 8.18818 82.0144 8.30452 81.9524L10.0943 80.9199C10.1532 80.8929 10.2174 80.8789 10.2823 80.8789C10.3472 80.8789 10.4113 80.8929 10.4702 80.9199V80.9199Z" fill="#12356A"/>
<path d="M8.27303 82.187L9.10977 82.6656L10.0807 82.1073C10.1402 82.0796 10.2052 82.0653 10.2709 82.0653C10.3366 82.0653 10.4016 82.0796 10.4611 82.1073L50.9153 105.097L51.7431 104.623C51.8549 104.556 51.8639 104.459 51.7699 104.405L10.47 80.9197C10.4105 80.892 10.3456 80.8777 10.2798 80.8777C10.2141 80.8777 10.1492 80.892 10.0897 80.9197L8.29988 81.9522C8.18354 82.0319 8.17459 82.1516 8.27303 82.187Z" fill="#3C699E"/>
<path opacity="0.96" d="M114.574 40.4976L80.2191 21C80.2191 27.093 75.9325 34.5198 70.6122 37.5819L23.2673 64.7988C17.0029 68.397 11.9512 77.1266 11.9736 84.2964L46.329 103.816C46.3066 96.6508 51.3628 87.9257 57.6227 84.3186L104.968 57.0795C110.288 54.0175 114.588 46.5951 114.574 40.4976V40.4976Z" fill="url(#paint3_linear_3347_12172)"/>
<path opacity="0.8" d="M11.9735 84.2921L46.3289 103.812C46.3289 103.497 46.3289 103.183 46.3558 102.859L12.0003 83.3394C11.9824 83.6584 11.9735 83.9775 11.9735 84.2921Z" fill="#D2D8DE"/>
<g opacity="0.32">
<path opacity="0.32" d="M61.7172 69.6514L69.5028 74.0738L68.7511 74.5036L60.9699 70.0856L61.7172 69.6514Z" fill="#9BA5B0"/>
<path opacity="0.32" d="M57.7302 67.387L60.5313 68.9778L59.784 69.4076L56.9785 67.8168L57.7302 67.387Z" fill="#9BA5B0"/>
<path opacity="0.32" d="M54.6384 65.6277L56.5401 66.7089L55.7928 67.1388L53.8867 66.0575L54.6384 65.6277Z" fill="#9BA5B0"/>
<path opacity="0.32" d="M66.9703 70.6836L71.2121 73.0898L70.4649 73.5196L66.223 71.1134L66.9703 70.6836Z" fill="#9BA5B0"/>
<path opacity="0.32" d="M60.585 67.0544L65.78 70.0057L65.0327 70.4355L59.8378 67.4843L60.585 67.0544Z" fill="#9BA5B0"/>
<path opacity="0.32" d="M57.4932 65.2954L59.3993 66.3767L58.6476 66.8109L56.746 65.7252L57.4932 65.2954Z" fill="#9BA5B0"/>
<path opacity="0.32" d="M54.549 63.6248L56.4551 64.706L55.7079 65.1358L53.8017 64.0546L54.549 63.6248Z" fill="#9BA5B0"/>
<path opacity="0.32" d="M69.8516 70.3647L72.9211 72.1062L72.1739 72.5361L69.1043 70.7946L69.8516 70.3647Z" fill="#9BA5B0"/>
<path opacity="0.32" d="M67.6143 69.093L68.6658 69.6868L67.9141 70.1211L66.8671 69.5228L67.6143 69.093Z" fill="#9BA5B0"/>
<path opacity="0.32" d="M64.5225 67.3337L66.4286 68.4194L65.6769 68.8492L63.7752 67.768L64.5225 67.3337Z" fill="#9BA5B0"/>
<path opacity="0.32" d="M63.3099 64.6882L74.6304 71.1225L73.8832 71.5523L62.5582 65.1181L63.3099 64.6882Z" fill="#9BA5B0"/>
<path opacity="0.32" d="M59.3188 62.4238L62.1198 64.0147L61.3726 64.4445L58.5671 62.8537L59.3188 62.4238Z" fill="#9BA5B0"/>
<path opacity="0.32" d="M73.2747 68.3972L76.3398 70.1387L75.5925 70.5686L72.523 68.8271L73.2747 68.3972Z" fill="#9BA5B0"/>
<path opacity="0.32" d="M66.0752 64.3071L72.0845 67.7192L71.3372 68.1535L65.3235 64.737L66.0752 64.3071Z" fill="#9BA5B0"/>
<path opacity="0.32" d="M62.9833 62.5479L64.885 63.6291L64.1378 64.0589L62.2316 62.9777L62.9833 62.5479Z" fill="#9BA5B0"/>
<path opacity="0.32" d="M71.7758 65.5876L78.0491 69.1548L77.3018 69.5847L71.024 66.0219L71.7758 65.5876Z" fill="#9BA5B0"/>
<path opacity="0.32" d="M66.0482 62.3352L70.5854 64.9142L69.8381 65.344L65.2965 62.765L66.0482 62.3352Z" fill="#9BA5B0"/>
<path opacity="0.32" d="M61.7885 59.9158L64.858 61.6573L64.1108 62.0915L61.0412 60.3456L61.7885 59.9158Z" fill="#9BA5B0"/>
<path opacity="0.32" d="M77.6418 66.9661L79.7627 68.1714L79.011 68.6012L76.8945 67.4003L77.6418 66.9661Z" fill="#9BA5B0"/>
<path opacity="0.32" d="M73.6507 64.7014L76.4518 66.2922L75.7045 66.7221L72.9035 65.1312L73.6507 64.7014Z" fill="#9BA5B0"/>
<path opacity="0.32" d="M67.95 61.4578L72.4603 64.0235L71.7131 64.4533L67.1982 61.8876L67.95 61.4578Z" fill="#9BA5B0"/>
<path opacity="0.32" d="M74.9795 63.4963L81.4721 67.1876L80.7248 67.6174L74.2278 63.9306L74.9795 63.4963Z" fill="#9BA5B0"/>
<path opacity="0.32" d="M67.7039 59.3662L73.7893 62.8226L73.042 63.2524L66.9567 59.796L67.7039 59.3662Z" fill="#9BA5B0"/>
<path opacity="0.32" d="M64.6121 57.6069L66.5138 58.6882L65.7665 59.118L63.8648 58.0368L64.6121 57.6069Z" fill="#9BA5B0"/>
<path opacity="0.32" d="M61.6454 55.9187L63.547 57.0044L62.7998 57.4342L60.8936 56.353L61.6454 55.9187Z" fill="#9BA5B0"/>
<path opacity="0.32" d="M79.2886 63.9924L83.1815 66.2036L82.4342 66.6335L78.5414 64.4223L79.2886 63.9924Z" fill="#9BA5B0"/>
<path opacity="0.32" d="M45.9354 60.6824L40.5391 57.616L39.7918 58.0502L45.1881 61.1122L45.9354 60.6824Z" fill="#9BA5B0"/>
<path opacity="0.32" d="M46.4901 59.0427L42.2483 56.6321L41.501 57.0663L45.7429 59.4725L46.4901 59.0427Z" fill="#9BA5B0"/>
<path opacity="0.32" d="M47.0273 57.3944L43.9622 55.6484L43.2105 56.0827L46.28 57.8242L47.0273 57.3944Z" fill="#9BA5B0"/>
<path opacity="0.32" d="M50.1325 57.2037L45.6714 54.6646L44.9197 55.0988L49.3853 57.6335L50.1325 57.2037Z" fill="#9BA5B0"/>
<path opacity="0.32" d="M50.4503 55.4268L47.3808 53.6809L46.6335 54.1152L49.6986 55.8567L50.4503 55.4268Z" fill="#9BA5B0"/>
<path opacity="0.32" d="M52.9828 54.9085L49.0899 52.6973L48.3427 53.1315L52.2311 55.3383L52.9828 54.9085Z" fill="#9BA5B0"/>
<path opacity="0.32" d="M52.9201 52.9187L50.7991 51.7134L50.0519 52.1476L52.1728 53.3485L52.9201 52.9187Z" fill="#9BA5B0"/>
<path opacity="0.32" d="M56.6204 53.065L52.5128 50.7297L51.761 51.164L55.8687 53.4949L56.6204 53.065Z" fill="#9BA5B0"/>
<path opacity="0.32" d="M58.1106 51.9571L54.2223 49.7458L53.4706 50.1801L57.3634 52.3869L58.1106 51.9571Z" fill="#9BA5B0"/>
<path opacity="0.32" d="M76.447 62.3794L78.1026 63.3188L77.3554 63.7487L75.6998 62.8092L76.447 62.3794Z" fill="#9BA5B0"/>
<path opacity="0.32" d="M71.5341 59.5833L75.2569 61.7014L74.5096 62.1312L70.7868 60.0175L71.5341 59.5833Z" fill="#9BA5B0"/>
<path opacity="0.32" d="M76.1876 52.0369L82.4699 55.6085L81.7226 56.0383L75.4359 52.4667L76.1876 52.0369Z" fill="#9BA5B0"/>
<path opacity="0.32" d="M71.883 49.5908L74.3575 51L73.6102 51.4298L71.1313 50.0207L71.883 49.5908Z" fill="#9BA5B0"/>
</g>
<path opacity="0.3" d="M68.5532 72.7876C69.4038 70.3806 63.6702 66.203 55.7468 63.4566C47.8234 60.7102 40.7106 60.4351 39.8599 62.842C39.0093 65.249 44.7429 69.4266 52.6663 72.173C60.5897 74.9194 67.7025 75.1945 68.5532 72.7876Z" fill="#D1D1D1"/>
<path d="M59.9183 54.0794L59.8198 51.6067L59.2381 50.1577L58.8668 51.3542L59.9183 54.0794Z" fill="#DD821F"/>
<path d="M33.6794 54.5536L33.581 52.1208C33.581 52.1208 35.6572 54.1725 35.6572 54.2213C35.6572 54.27 33.6794 54.5536 33.6794 54.5536Z" fill="#FFD85A"/>
<path d="M46.9778 61.7678C54.222 61.5949 59.9539 57.948 59.8197 51.6113C59.6854 45.2745 53.6672 40.2849 46.4274 40.4577C39.1876 40.6305 33.4513 45.9038 33.5855 52.2361C33.7197 58.5684 39.7335 61.9273 46.9778 61.7678Z" fill="#FFD85A"/>
<path d="M47.0766 65.8672C54.3201 65.6957 60.0681 60.4216 59.9152 54.0873C59.7622 47.753 53.7662 42.7571 46.5226 42.9286C39.2791 43.1002 33.5311 48.3742 33.684 54.7086C33.837 61.0429 39.833 66.0388 47.0766 65.8672Z" fill="#FFD85A"/>
<path d="M55.9583 46.1299C57.1489 47.1019 58.1176 48.3132 58.8002 49.6836C59.4829 51.0541 59.864 52.5524 59.9182 54.0796C60.0704 60.4119 54.3251 65.6851 47.0808 65.8579C43.7148 65.9701 40.4206 64.8784 37.8006 62.7826L55.9583 46.1299Z" fill="#DD821F"/>
<path d="M47.0642 65.3534C53.9841 65.1895 59.4754 60.1517 59.3292 54.1012C59.1831 48.0507 53.455 43.2786 46.5351 43.4425C39.6152 43.6064 34.124 48.6442 34.2701 54.6947C34.4162 60.7452 40.1443 65.5173 47.0642 65.3534Z" fill="#F9BF30"/>
<path d="M47.0119 63.1917C52.568 63.0601 56.9771 59.0164 56.8598 54.1598C56.7425 49.3033 52.1433 45.4729 46.5871 45.6045C41.031 45.7361 36.6219 49.7798 36.7392 54.6364C36.8564 59.4929 41.4557 63.3233 47.0119 63.1917Z" fill="#F2B42A"/>
<path d="M36.7401 54.629C36.7401 54.4296 36.7401 54.2302 36.7401 54.0308C37.1876 58.5994 41.6621 62.1179 46.9734 62.0071C52.2847 61.8963 56.5668 58.1607 56.8173 53.5876C56.8173 53.7826 56.8531 53.982 56.8576 54.1814C56.974 59.0558 52.5665 63.0839 47.0137 63.2168C41.4608 63.3498 36.8475 59.4857 36.7401 54.629Z" fill="#FFD85A"/>
<path d="M44.8702 55.121L46.933 53.2244C48.9197 53.6675 52.6246 54.5094 55.5822 55.1963C55.1788 56.3219 54.5357 57.3484 53.6965 58.2062C52.8573 59.0641 51.8416 59.7332 50.7184 60.1682L44.8702 55.121Z" fill="#FFD85A"/>
<path d="M48.1188 60.8418C47.7921 60.8816 47.4565 60.9038 47.1209 60.9127C44.8386 60.9873 42.6034 60.2588 40.8118 58.8565L44.1812 55.7546L48.1188 60.8418Z" fill="#FFD85A"/>
<path d="M49.1478 51.2081L53.0362 47.6631C54.3427 48.7931 55.5106 50.0382 55.8283 51.7044L49.1478 51.2081Z" fill="#FFD85A"/>
<path d="M47.1389 46.6483C41.5815 46.7813 37.1741 50.8226 37.2949 55.6793C37.3175 56.6426 37.5192 57.5934 37.89 58.4843C37.19 57.315 36.8034 55.9879 36.7669 54.6291C36.6506 49.7547 41.058 45.7266 46.6109 45.5937C51.0406 45.4918 54.8619 47.9068 56.2893 51.3544C54.5532 48.474 51.0809 46.5553 47.1389 46.6483Z" fill="#DD821F"/>
<path d="M59.8197 51.6024C59.9068 52.4394 59.8691 53.2845 59.7079 54.1106C59.417 53.1844 58.813 50.4016 58.813 50.4016L57.8151 48.1859L56.9829 47.5168L55.5734 46.4976L55.4571 43.3115C56.7608 44.2854 57.8289 45.535 58.5836 46.9692C59.3383 48.4034 59.7606 49.9862 59.8197 51.6024V51.6024Z" fill="#DD821F"/>
<path d="M34.4312 51.279L34.3775 50.6276C34.3775 50.5837 34.3602 50.5415 34.3293 50.5101C34.2983 50.4786 34.2562 50.4604 34.2119 50.4592H34.1627C34.1409 50.4604 34.1196 50.4657 34.1 50.475C34.0803 50.4843 34.0627 50.4974 34.0482 50.5134C34.0336 50.5295 34.0224 50.5482 34.0152 50.5686C34.008 50.5889 34.0049 50.6105 34.0061 50.632L34.0643 51.2834C34.0642 51.3266 34.0809 51.3682 34.1108 51.3995C34.1408 51.4308 34.1818 51.4496 34.2253 51.4518H34.2746C34.2965 51.4513 34.3181 51.4463 34.3381 51.4372C34.358 51.4281 34.3759 51.4151 34.3905 51.3989C34.4052 51.3827 34.4164 51.3637 34.4234 51.3431C34.4304 51.3225 34.433 51.3007 34.4312 51.279V51.279Z" fill="#DD821F"/>
<path d="M35.5857 48.7798L35.5051 47.5878C35.5051 47.538 35.4855 47.4902 35.4504 47.4546C35.4153 47.419 35.3674 47.3984 35.3172 47.3972H35.2009C35.1506 47.4006 35.1037 47.4234 35.0703 47.4607C35.0368 47.498 35.0194 47.5468 35.0219 47.5966L35.0935 48.7665C35.0929 48.7909 35.0972 48.8152 35.1061 48.838C35.115 48.8609 35.1283 48.8817 35.1454 48.8994C35.1624 48.9171 35.1828 48.9313 35.2054 48.9412C35.2279 48.9511 35.2523 48.9565 35.2769 48.957H35.3933C35.4177 48.9582 35.4422 48.9545 35.4652 48.9462C35.4882 48.9379 35.5093 48.9251 35.5272 48.9086C35.5452 48.8921 35.5596 48.8722 35.5696 48.85C35.5796 48.8279 35.5851 48.804 35.5857 48.7798V48.7798Z" fill="#DD821F"/>
<path d="M37.1832 46.5952L37.1161 45.4607C37.1161 45.4051 37.0941 45.3517 37.0547 45.3119C37.0154 45.2721 36.962 45.2492 36.9058 45.248H36.7044C36.6764 45.2492 36.6489 45.2558 36.6235 45.2676C36.5981 45.2795 36.5754 45.2962 36.5566 45.3168C36.5378 45.3375 36.5234 45.3616 36.5142 45.3879C36.5051 45.4141 36.5013 45.4419 36.5031 45.4696L36.5702 46.6084C36.5696 46.6362 36.5746 46.6637 36.5849 46.6895C36.5952 46.7153 36.6106 46.7388 36.6302 46.7586C36.6498 46.7784 36.6731 46.7941 36.6989 46.8049C36.7248 46.8156 36.7525 46.8212 36.7805 46.8212H36.9818C37.0101 46.8195 37.0377 46.8123 37.0631 46.8C37.0885 46.7877 37.1112 46.7706 37.1299 46.7496C37.1486 46.7286 37.1629 46.7041 37.1721 46.6776C37.1812 46.6511 37.185 46.6231 37.1832 46.5952Z" fill="#DD821F"/>
<path d="M39.5768 44.8359L39.5007 43.4578C39.5013 43.4301 39.4963 43.4025 39.486 43.3768C39.4757 43.351 39.4603 43.3275 39.4408 43.3077C39.4212 43.2879 39.3978 43.2721 39.372 43.2614C39.3462 43.2506 39.3184 43.2451 39.2904 43.2451H39.0846C39.0566 43.2462 39.0291 43.2529 39.0037 43.2647C38.9783 43.2765 38.9556 43.2932 38.9368 43.3139C38.918 43.3345 38.9036 43.3587 38.8944 43.3849C38.8853 43.4112 38.8814 43.439 38.8833 43.4667L38.9548 44.8448C38.9542 44.8729 38.9594 44.9008 38.9699 44.9269C38.9805 44.953 38.9963 44.9767 39.0164 44.9966C39.0365 45.0164 39.0604 45.0321 39.0867 45.0425C39.113 45.053 39.1413 45.0581 39.1696 45.0575H39.371C39.3992 45.0564 39.4269 45.0497 39.4525 45.038C39.4781 45.0262 39.5012 45.0096 39.5203 44.989C39.5394 44.9684 39.5542 44.9443 39.5639 44.918C39.5736 44.8918 39.578 44.8639 39.5768 44.8359Z" fill="#DD821F"/>
<path d="M41.9798 43.6795L41.9038 42.0931C41.9038 42.037 41.882 41.9831 41.8428 41.9426C41.8036 41.9022 41.75 41.8783 41.6935 41.876H41.4921C41.4641 41.8771 41.4366 41.8838 41.4112 41.8956C41.3858 41.9074 41.3631 41.9241 41.3443 41.9447C41.3255 41.9654 41.3111 41.9895 41.3019 42.0158C41.2927 42.042 41.2889 42.0698 41.2908 42.0975L41.3668 43.6839C41.3668 43.7396 41.3888 43.793 41.4281 43.8328C41.4675 43.8726 41.5209 43.8955 41.5771 43.8966H41.7695C41.7979 43.8967 41.826 43.891 41.8521 43.88C41.8783 43.869 41.9019 43.8528 41.9215 43.8325C41.9412 43.8123 41.9564 43.7882 41.9665 43.7619C41.9765 43.7356 41.981 43.7076 41.9798 43.6795Z" fill="#DD821F"/>
<path d="M44.4006 42.9749L44.3245 41.4461C44.3233 41.39 44.3004 41.3366 44.2603 41.297C44.2203 41.2573 44.1663 41.2345 44.1097 41.2334H43.9084C43.8518 41.2379 43.7992 41.264 43.7616 41.3062C43.7241 41.3483 43.7045 41.4032 43.707 41.4594L43.7831 42.9838C43.7831 43.0402 43.8057 43.0943 43.846 43.1342C43.8863 43.174 43.9409 43.1965 43.9979 43.1965H44.1992C44.255 43.1919 44.3069 43.1665 44.3443 43.1253C44.3818 43.0841 44.4019 43.0303 44.4006 42.9749Z" fill="#DD821F"/>
<path d="M46.8258 42.7133L46.7497 41.1668C46.7498 41.1111 46.7277 41.0577 46.6884 41.0179C46.6491 40.9782 46.5956 40.9553 46.5394 40.9541H46.3381C46.3101 40.9552 46.2825 40.9619 46.2572 40.9737C46.2318 40.9855 46.209 41.0022 46.1903 41.0229C46.1715 41.0435 46.1571 41.0677 46.1479 41.0939C46.1387 41.1202 46.1349 41.1479 46.1367 41.1757L46.2128 42.7266C46.2128 42.7823 46.2348 42.8357 46.2741 42.8755C46.3134 42.9152 46.3669 42.9382 46.4231 42.9393H46.6245C46.6527 42.9376 46.6803 42.9304 46.7057 42.9181C46.7311 42.9059 46.7538 42.8887 46.7725 42.8677C46.7912 42.8467 46.8056 42.8223 46.8147 42.7958C46.8239 42.7693 46.8276 42.7413 46.8258 42.7133Z" fill="#DD821F"/>
<path d="M49.2643 42.7843L49.1882 41.3309C49.1882 41.2752 49.1662 41.2218 49.1269 41.182C49.0876 41.1422 49.0341 41.1193 48.9779 41.1182H48.7766C48.7484 41.1199 48.7207 41.1271 48.6953 41.1393C48.6699 41.1516 48.6472 41.1688 48.6285 41.1897C48.6098 41.2107 48.5955 41.2352 48.5863 41.2617C48.5772 41.2882 48.5734 41.3162 48.5752 41.3442L48.6468 42.7932C48.6462 42.8213 48.6513 42.8492 48.6619 42.8753C48.6725 42.9014 48.6883 42.9251 48.7084 42.9449C48.7284 42.9648 48.7524 42.9805 48.7787 42.9909C48.805 43.0014 48.8332 43.0065 48.8616 43.0059H49.0629C49.1191 43.0025 49.1717 42.9773 49.2094 42.9359C49.247 42.8944 49.2668 42.84 49.2643 42.7843V42.7843Z" fill="#DD821F"/>
<path d="M51.7118 43.3115L51.6357 41.9068C51.6357 41.8511 51.6137 41.7977 51.5744 41.7579C51.5351 41.7182 51.4816 41.6953 51.4254 41.6941H51.2241C51.1961 41.6952 51.1685 41.7019 51.1432 41.7137C51.1178 41.7255 51.095 41.7422 51.0763 41.7629C51.0575 41.7835 51.0431 41.8077 51.0339 41.8339C51.0247 41.8601 51.0209 41.8879 51.0227 41.9157L51.0943 43.3204C51.0943 43.3772 51.1168 43.4318 51.1569 43.4724C51.1971 43.513 51.2517 43.5364 51.3091 43.5375H51.5104C51.5387 43.5358 51.5663 43.5286 51.5917 43.5163C51.6171 43.5041 51.6398 43.4869 51.6585 43.4659C51.6772 43.4449 51.6916 43.4205 51.7007 43.394C51.7098 43.3675 51.7136 43.3395 51.7118 43.3115V43.3115Z" fill="#DD821F"/>
<path d="M54.1729 44.4858L54.0968 42.9659C54.0969 42.9102 54.0749 42.8568 54.0355 42.817C53.9962 42.7773 53.9427 42.7543 53.8865 42.7532H53.6852C53.6572 42.7543 53.6297 42.761 53.6043 42.7728C53.5789 42.7846 53.5562 42.8013 53.5374 42.822C53.5186 42.8426 53.5042 42.8668 53.495 42.893C53.4858 42.9192 53.482 42.947 53.4838 42.9747L53.5599 44.4991C53.5599 44.5548 53.5819 44.6082 53.6212 44.648C53.6605 44.6877 53.714 44.7106 53.7702 44.7118H53.9716C53.9998 44.7101 54.0274 44.7029 54.0528 44.6906C54.0782 44.6784 54.1009 44.6612 54.1196 44.6402C54.1383 44.6192 54.1527 44.5948 54.1618 44.5683C54.171 44.5418 54.1747 44.5138 54.1729 44.4858Z" fill="#DD821F"/>
<path opacity="0.5" d="M111.971 103.503C112.718 101.39 107.685 97.7218 100.73 95.3109C93.7742 92.9 87.5302 92.659 86.7832 94.7726C86.0362 96.8862 91.0692 100.554 98.0246 102.965C104.98 105.376 111.224 105.617 111.971 103.503Z" fill="#BDBDBD"/>
<path opacity="0.8" d="M92.6134 102.061C90.1968 102.109 87.808 101.545 85.6734 100.422C83.7896 99.345 82.7515 97.9004 82.7515 96.3583C82.7515 94.8162 83.7896 93.3761 85.6734 92.2993C89.4991 90.1102 95.7232 90.1102 99.5445 92.2993C101.428 93.3761 102.466 94.8162 102.466 96.3583C102.466 97.9004 101.433 99.345 99.5445 100.422C97.4131 101.545 95.0271 102.109 92.6134 102.061V102.061ZM92.6134 90.9832C90.2542 90.9385 87.9226 91.4907 85.839 92.5873C84.0492 93.6021 83.0827 94.9447 83.0827 96.3628C83.0827 97.7808 84.0626 99.1234 85.839 100.143C89.5752 102.279 95.6516 102.279 99.3834 100.143C101.173 99.1234 102.14 97.7852 102.14 96.3628C102.14 94.9403 101.164 93.6021 99.3834 92.5873C97.3021 91.4884 94.9716 90.9347 92.6134 90.9787V90.9832Z" fill="url(#paint4_linear_3347_12172)"/>
<path d="M104.39 87.0794L104.301 84.9036L103.791 83.6318L103.469 84.6865L104.39 87.0794Z" fill="#DD821F"/>
<path d="M81.3556 87.4913L81.2706 85.3599C81.2706 85.3599 83.0917 87.159 83.0917 87.2033C83.0917 87.2476 81.3556 87.4913 81.3556 87.4913Z" fill="#FFD85A"/>
<path d="M93.0343 93.8147C99.3926 93.664 104.44 90.4646 104.306 84.9034C104.171 79.3421 98.9048 74.9552 92.5465 75.1058C86.1882 75.2565 81.1454 79.8872 81.2752 85.4484C81.405 91.0097 86.6715 93.9654 93.0343 93.8147Z" fill="#FFD85A"/>
<path d="M93.1163 97.426C99.4754 97.2753 104.522 92.645 104.387 87.0838C104.253 81.5226 98.9891 77.1365 92.63 77.2871C86.2709 77.4377 81.2247 82.0681 81.359 87.6292C81.4933 93.1904 86.7572 97.5766 93.1163 97.426Z" fill="#FFD85A"/>
<path d="M100.914 80.0957C101.963 80.9468 102.818 82.0093 103.421 83.2126C104.025 84.4159 104.363 85.7325 104.413 87.075C104.547 92.6362 99.4908 97.2669 93.1414 97.4176C90.1869 97.5165 87.2954 96.5567 84.9978 94.7145L100.914 80.0957Z" fill="#DD821F"/>
<path d="M93.1057 96.9785C99.1806 96.8346 104.001 92.4121 103.873 87.1004C103.745 81.7888 98.7161 77.5995 92.6412 77.7434C86.5662 77.8873 81.7454 82.3098 81.8737 87.6215C82.002 92.9331 87.0307 97.1224 93.1057 96.9785Z" fill="#F9BF30"/>
<path d="M92.597 95.9356C97.4752 95.8389 101.36 92.3026 101.274 88.0369C101.188 83.7712 97.1632 80.3915 92.285 80.4881C87.4069 80.5848 83.5222 84.1211 83.6083 88.3868C83.6945 92.6525 87.7188 96.0322 92.597 95.9356Z" fill="#F2B42A"/>
<path d="M84.0449 87.5579C84.0449 87.3806 84.0449 87.2078 84.0449 87.0306C84.4521 91.0453 88.3539 94.1206 93.0297 94.0187C97.7056 93.9168 101.451 90.642 101.666 86.614C101.685 86.7891 101.696 86.9652 101.697 87.1413C101.804 91.4042 97.9293 94.9537 93.0521 95.0689C88.1749 95.1841 84.1478 91.8252 84.0449 87.5579Z" fill="#FFD85A"/>
<path d="M91.1818 88.0008L92.994 86.3391C94.739 86.7291 97.9875 87.4647 100.601 88.0673C100.242 89.0534 99.6753 89.9522 98.9375 90.7034C98.1998 91.4547 97.3083 92.0411 96.323 92.4233L91.1818 88.0008Z" fill="#FFD85A"/>
<path d="M94.0321 93.0131C93.7457 93.0441 93.4504 93.0662 93.1372 93.0751C91.1342 93.1406 89.1728 92.4999 87.6022 91.2671L90.5554 88.5552L94.0321 93.0131Z" fill="#FFD85A"/>
<path d="M94.9356 84.5535L98.3497 81.425C99.4952 82.4177 100.52 83.5122 100.797 84.9701L94.9356 84.5535Z" fill="#FFD85A"/>
<path d="M93.1504 80.5519C88.2731 80.6671 84.4027 84.2165 84.5056 88.4839C84.5273 89.327 84.7048 90.159 85.0291 90.9388C84.4114 89.915 84.0723 88.7501 84.0447 87.5577C83.9418 83.2948 87.8123 79.7409 92.6895 79.6257C96.5779 79.5371 99.9293 81.6553 101.191 84.6818C99.6832 82.1516 96.6316 80.4677 93.1504 80.5519Z" fill="#DD821F"/>
<path d="M104.305 84.9037C104.383 85.643 104.35 86.3896 104.207 87.1193C103.952 86.3039 103.401 83.8667 103.401 83.8667L102.507 81.9258L101.777 81.3321L100.542 80.4458L100.439 77.6497C101.587 78.4986 102.53 79.5901 103.198 80.8449C103.867 82.0996 104.245 83.4861 104.305 84.9037V84.9037Z" fill="#DD821F"/>
<path d="M82.0403 84.6156L81.9911 84.0439C81.9911 84.0059 81.9762 83.9694 81.9495 83.9421C81.9227 83.9148 81.8863 83.8989 81.8479 83.8977H81.8032C81.7648 83.9 81.7288 83.917 81.7029 83.9451C81.677 83.9733 81.6632 84.0103 81.6645 84.0484L81.7137 84.62C81.7131 84.639 81.7163 84.6579 81.7233 84.6756C81.7302 84.6933 81.7407 84.7095 81.754 84.7231C81.7674 84.7368 81.7834 84.7476 81.801 84.755C81.8187 84.7624 81.8377 84.7662 81.8569 84.7662H81.9016C81.9396 84.7629 81.9749 84.7456 82.0006 84.7177C82.0263 84.6898 82.0405 84.6533 82.0403 84.6156Z" fill="#DD821F"/>
<path d="M83.0291 82.422L82.971 81.3895C82.9698 81.3464 82.9521 81.3054 82.9212 81.2749C82.8904 81.2443 82.849 81.2267 82.8054 81.2256H82.7025C82.6808 81.2267 82.6595 81.2321 82.6398 81.2414C82.6201 81.2507 82.6025 81.2637 82.588 81.2798C82.5734 81.2959 82.5622 81.3146 82.555 81.3349C82.5478 81.3553 82.5447 81.3769 82.5459 81.3984L82.6085 82.4265C82.6085 82.4696 82.6252 82.5112 82.6551 82.5425C82.6851 82.5738 82.7261 82.5926 82.7696 82.5948H82.8725C82.8943 82.5937 82.9156 82.5883 82.9353 82.579C82.9549 82.5697 82.9725 82.5567 82.9871 82.5406C83.0016 82.5246 83.0128 82.5058 83.02 82.4855C83.0273 82.4651 83.0304 82.4436 83.0291 82.422V82.422Z" fill="#DD821F"/>
<path d="M84.4297 80.5077L84.3715 79.5062C84.3715 79.4576 84.3524 79.4109 84.3181 79.3761C84.2838 79.3413 84.2371 79.3212 84.1881 79.3201H84.0091C83.96 79.3235 83.9143 79.3458 83.8816 79.3823C83.849 79.4187 83.8321 79.4664 83.8346 79.515L83.8928 80.5165C83.8922 80.5407 83.8965 80.5648 83.9054 80.5874C83.9144 80.61 83.9278 80.6305 83.9449 80.6479C83.962 80.6652 83.9824 80.679 84.0049 80.6884C84.0275 80.6978 84.0517 80.7026 84.0762 80.7026H84.2552C84.3043 80.6992 84.35 80.6769 84.3826 80.6404C84.4153 80.604 84.4322 80.5563 84.4297 80.5077V80.5077Z" fill="#DD821F"/>
<path d="M86.5146 78.9613L86.4475 77.7516C86.4481 77.7271 86.4438 77.7028 86.4349 77.68C86.426 77.6572 86.4127 77.6364 86.3956 77.6187C86.3786 77.601 86.3582 77.5868 86.3356 77.5769C86.3131 77.567 86.2887 77.5616 86.2641 77.561H86.0851C86.0604 77.5627 86.0363 77.5692 86.0141 77.5802C85.9919 77.5911 85.9722 77.6063 85.956 77.6248C85.9397 77.6433 85.9274 77.6649 85.9196 77.6881C85.9118 77.7114 85.9087 77.736 85.9106 77.7604L85.9732 78.9702C85.9732 78.9946 85.9781 79.0188 85.9875 79.0414C85.997 79.064 86.0108 79.0845 86.0283 79.1018C86.0457 79.1191 86.0664 79.1328 86.0892 79.1421C86.112 79.1515 86.1365 79.1563 86.1611 79.1563H86.3356C86.3603 79.1552 86.3845 79.1492 86.4069 79.1388C86.4293 79.1284 86.4493 79.1137 86.466 79.0956C86.4826 79.0775 86.4954 79.0563 86.5038 79.0332C86.5121 79.0102 86.5158 78.9858 86.5146 78.9613V78.9613Z" fill="#DD821F"/>
<path d="M88.6447 77.9465L88.5776 76.5506C88.5776 76.5012 88.5578 76.4539 88.5226 76.419C88.4873 76.3841 88.4395 76.3645 88.3897 76.3645H88.2151C88.1903 76.365 88.1658 76.3706 88.1431 76.3808C88.1205 76.391 88.1001 76.4057 88.0834 76.4239C88.0666 76.4422 88.0538 76.4636 88.0457 76.4869C88.0376 76.5102 88.0343 76.5349 88.0362 76.5595L88.1033 77.9553C88.1055 78.004 88.126 78.0501 88.1608 78.0845C88.1955 78.119 88.2421 78.1393 88.2912 78.1414H88.4657C88.4904 78.1403 88.5146 78.1344 88.537 78.1239C88.5594 78.1135 88.5794 78.0988 88.5961 78.0807C88.6127 78.0626 88.6255 78.0414 88.6339 78.0184C88.6422 77.9953 88.6459 77.9709 88.6447 77.9465V77.9465Z" fill="#DD821F"/>
<path d="M90.7656 77.326L90.6985 75.9967C90.6985 75.9481 90.6793 75.9014 90.645 75.8666C90.6107 75.8318 90.5641 75.8117 90.515 75.8105H90.336C90.287 75.814 90.2412 75.8363 90.2086 75.8727C90.176 75.9092 90.1591 75.9569 90.1615 76.0055L90.2286 77.3349C90.228 77.3591 90.2323 77.3832 90.2413 77.4058C90.2502 77.4284 90.2637 77.4489 90.2808 77.4663C90.2979 77.4836 90.3183 77.4974 90.3408 77.5068C90.3634 77.5162 90.3876 77.521 90.4121 77.521H90.5911C90.6156 77.5199 90.6396 77.5139 90.6617 77.5035C90.6839 77.493 90.7037 77.4782 90.7199 77.46C90.7362 77.4419 90.7486 77.4206 90.7565 77.3976C90.7643 77.3746 90.7674 77.3503 90.7656 77.326V77.326Z" fill="#DD821F"/>
<path d="M92.9 77.1134L92.8328 75.753C92.8328 75.7036 92.813 75.6563 92.7778 75.6214C92.7426 75.5865 92.6948 75.5669 92.6449 75.5669H92.4704C92.4455 75.5674 92.421 75.573 92.3984 75.5832C92.3757 75.5934 92.3554 75.6081 92.3387 75.6263C92.3219 75.6446 92.3091 75.666 92.301 75.6893C92.2928 75.7126 92.2896 75.7373 92.2914 75.7619L92.3585 77.1223C92.3585 77.1467 92.3634 77.1709 92.3729 77.1935C92.3823 77.2161 92.3961 77.2366 92.4136 77.2539C92.431 77.2712 92.4518 77.2849 92.4746 77.2942C92.4974 77.3036 92.5218 77.3084 92.5465 77.3084H92.721C92.7457 77.3073 92.7699 77.3013 92.7923 77.2909C92.8146 77.2805 92.8347 77.2658 92.8513 77.2477C92.8679 77.2296 92.8808 77.2084 92.8891 77.1854C92.8975 77.1623 92.9012 77.1379 92.9 77.1134V77.1134Z" fill="#DD821F"/>
<path d="M95.0164 77.1576L94.9537 75.8859C94.9537 75.8361 94.9341 75.7883 94.899 75.7527C94.8638 75.7171 94.816 75.6965 94.7658 75.6953H94.5913C94.5418 75.6987 94.4956 75.7209 94.4623 75.7572C94.4289 75.7936 94.411 75.8412 94.4123 75.8903L94.4794 77.1665C94.4794 77.2159 94.4992 77.2632 94.5345 77.2981C94.5697 77.333 94.6175 77.3526 94.6673 77.3526H94.8418C94.8909 77.3492 94.9367 77.3269 94.9693 77.2904C95.0019 77.254 95.0188 77.2063 95.0164 77.1576V77.1576Z" fill="#DD821F"/>
<path d="M97.1865 77.6231L97.1194 76.3912C97.12 76.367 97.1157 76.3429 97.1067 76.3203C97.0978 76.2978 97.0843 76.2772 97.0672 76.2599C97.0501 76.2425 97.0297 76.2287 97.0072 76.2193C96.9846 76.2099 96.9604 76.2051 96.9359 76.2051H96.7569C96.7079 76.2085 96.6621 76.2308 96.6295 76.2673C96.5968 76.3037 96.58 76.3514 96.5824 76.4001L96.6451 77.6364C96.6451 77.6858 96.6649 77.7331 96.7001 77.768C96.7353 77.8029 96.7832 77.8225 96.833 77.8225H97.0075C97.0326 77.8214 97.0572 77.8153 97.0799 77.8046C97.1025 77.7939 97.1228 77.7788 97.1395 77.7602C97.1562 77.7416 97.1689 77.7199 97.177 77.6964C97.1851 77.6728 97.1883 77.6479 97.1865 77.6231V77.6231Z" fill="#DD821F"/>
<path d="M99.3476 78.6598L99.2805 77.3304C99.2805 77.281 99.2607 77.2337 99.2254 77.1988C99.1902 77.1639 99.1424 77.1443 99.0925 77.1443H98.918C98.8933 77.1454 98.8691 77.1514 98.8468 77.1618C98.8244 77.1722 98.8043 77.1869 98.7877 77.205C98.7711 77.2231 98.7582 77.2443 98.7499 77.2673C98.7415 77.2904 98.7378 77.3148 98.739 77.3393L98.8062 78.6687C98.8072 78.7181 98.8273 78.7653 98.8621 78.8007C98.897 78.836 98.9442 78.857 98.9941 78.8592H99.1686C99.2189 78.8558 99.2658 78.833 99.2992 78.7957C99.3327 78.7584 99.3501 78.7096 99.3476 78.6598V78.6598Z" fill="#DD821F"/>
<defs>
<linearGradient id="paint0_linear_3347_12172" x1="3.99105" y1="100.08" x2="56.0477" y2="100.08" gradientUnits="userSpaceOnUse">
<stop stop-color="#CEF0FF" stop-opacity="0"/>
<stop offset="1" stop-color="#0B4A94"/>
</linearGradient>
<linearGradient id="paint1_linear_3347_12172" x1="57.786" y1="96.7502" x2="10.1452" y2="97.6788" gradientUnits="userSpaceOnUse">
<stop stop-color="#7F8091"/>
<stop offset="0.04" stop-color="#9293A1"/>
<stop offset="0.09" stop-color="#B3B3BD"/>
<stop offset="0.14" stop-color="#9293A1"/>
<stop offset="0.19" stop-color="#E5E6E7"/>
<stop offset="0.22" stop-color="#B3B3BD"/>
</linearGradient>
<linearGradient id="paint2_linear_3347_12172" x1="43.6382" y1="72.3373" x2="25.5922" y2="100.66" gradientUnits="userSpaceOnUse">
<stop stop-color="#9394A2"/>
<stop offset="0.411458" stop-color="#9798A6"/>
<stop offset="0.5625" stop-color="#CACBD1"/>
<stop offset="0.9999" stop-color="#9B9BA8"/>
<stop offset="1" stop-color="#E3E4E6"/>
</linearGradient>
<linearGradient id="paint3_linear_3347_12172" x1="46.1947" y1="99.2302" x2="78.7164" y2="25.0101" gradientUnits="userSpaceOnUse">
<stop offset="0.06" stop-color="#E6E7E8"/>
<stop offset="0.08" stop-color="#ECEDEE"/>
<stop offset="0.12" stop-color="#F3F4F5"/>
<stop offset="0.22" stop-color="#E6E7E8"/>
<stop offset="0.58" stop-color="#FAFAFB"/>
<stop offset="0.69" stop-color="#E6E7E8"/>
<stop offset="1" stop-color="#E6E7E8"/>
</linearGradient>
<linearGradient id="paint4_linear_3347_12172" x1="82.7482" y1="96.3588" x2="102.466" y2="96.3588" gradientUnits="userSpaceOnUse">
<stop stop-color="#CEF0FF" stop-opacity="0"/>
<stop offset="1" stop-color="#0B4A94"/>
</linearGradient>
</defs>
</svg>
