<svg width="45" height="35" viewBox="0 0 45 35" fill="none" xmlns="http://www.w3.org/2000/svg">
<path d="M0.769531 5.67153V0.081543H3.89596C4.99332 0.081543 5.51094 0.793377 5.51094 1.50521C5.51094 2.19611 5.09684 2.67764 4.55851 2.78232C5.13825 2.86607 5.61446 3.45229 5.61446 4.14318C5.61446 4.9597 5.07614 5.6506 3.99948 5.6506H0.769531V5.67153ZM4.0616 1.77738C4.0616 1.50521 3.85455 1.33772 3.56468 1.33772H2.19816V2.21704H3.58539C3.87526 2.21704 4.0616 2.04955 4.0616 1.77738ZM4.16512 3.93382C4.16512 3.66165 3.95808 3.47322 3.6268 3.47322H2.19816V4.41535H3.6268C3.95808 4.41535 4.16512 4.24786 4.16512 3.93382Z" fill="#999999"/>
<path d="M10.128 5.67361V3.43342H7.82976V5.67361H6.40112V0.0836182H7.82976V2.17725H10.128V0.0836182H11.5359V5.67361H10.128Z" fill="#999999"/>
<path d="M16.2771 5.67361L16.008 4.87803H13.834L13.5648 5.67361H11.9498L14.0203 0.0836182H15.8216L17.8921 5.67361H16.2771ZM14.9313 1.50729L14.2274 3.60091H15.6353L14.9313 1.50729Z" fill="#999999"/>
<path d="M21.3914 5.67361L20.4597 3.78934H19.735V5.67361H18.3064V0.0836182H21.0808C22.3024 0.0836182 23.0064 0.900133 23.0064 1.94695C23.0064 2.91002 22.4267 3.43342 21.909 3.62185L23.0271 5.67361H21.3914ZM21.5364 1.94695C21.5364 1.57009 21.2258 1.36073 20.8531 1.36073H19.735V2.5541H20.8531C21.2465 2.5541 21.5364 2.34474 21.5364 1.94695Z" fill="#999999"/>
<path d="M27.5408 5.67361L27.2716 4.87803H25.0976L24.8285 5.67361H23.2135L25.284 0.0836182H27.0853L29.1558 5.67361H27.5408ZM26.1743 1.50729L25.4703 3.60091H26.8783L26.1743 1.50729Z" fill="#999999"/>
<path d="M30.2738 5.67361V1.3398H28.7209V0.0836182H33.2346V1.3398H31.7024V5.67361H30.2738Z" fill="#999999"/>
<path d="M33.4417 2.88921C33.4417 1.19337 34.7253 0 36.4024 0C38.1002 0 39.3425 1.19337 39.3425 2.88921C39.3425 3.66385 39.0941 4.33381 38.6386 4.81534L38.9905 5.23407L37.9967 6.02965L37.5826 5.52718C37.2099 5.67373 36.8165 5.75748 36.3817 5.75748C34.7253 5.77841 33.4417 4.58505 33.4417 2.88921ZM36.7337 4.48036L36.2368 3.85228L37.2306 3.0567L37.7483 3.68479C37.8518 3.45449 37.9139 3.18231 37.9139 2.88921C37.9139 1.96801 37.3342 1.27711 36.4231 1.27711C35.5121 1.27711 34.9117 1.98895 34.9117 2.88921C34.9117 3.78947 35.5121 4.5013 36.4231 4.5013C36.506 4.5013 36.6302 4.5013 36.7337 4.48036Z" fill="#999999"/>
<path d="M43.1522 5.67361L42.2204 3.78934H41.4958V5.67361H40.0671V0.0836182H42.8416C44.0632 0.0836182 44.7671 0.900133 44.7671 1.94695C44.7671 2.91002 44.1874 3.43342 43.6698 3.62185L44.7878 5.67361H43.1522ZM43.3178 1.94695C43.3178 1.57009 43.0072 1.36073 42.6345 1.36073H41.5165V2.5541H42.6345C43.0072 2.5541 43.3178 2.34474 43.3178 1.94695Z" fill="#999999"/>
<path d="M26.7746 34.1681L22.9856 29.7715V9.50519H0.831421V31.8861H21.2464L23.2133 34.1681H26.7746ZM3.70939 28.9759V12.4153H20.1076V26.4636L18.2856 24.349H14.7244L18.7411 28.9969H3.70939V28.9759Z" fill="#999999"/>
<path d="M7.7883 14.4879C7.10504 14.4879 6.44249 14.4879 5.73853 14.4879C5.73853 15.1997 5.73853 15.8906 5.73853 16.5606C6.44249 16.5606 7.12575 16.5606 7.7883 16.5606C7.7883 15.8488 7.7883 15.1788 7.7883 14.4879Z" fill="#999999"/>
<path d="M18.0166 14.4879C17.3333 14.4879 16.6708 14.4879 15.9668 14.4879C15.9668 15.1997 15.9668 15.8906 15.9668 16.5606C16.6708 16.5606 17.354 16.5606 18.0166 16.5606C18.0166 15.8488 18.0166 15.1788 18.0166 14.4879Z" fill="#999999"/>
<path d="M9.83808 18.6332C9.15482 18.6332 8.49227 18.6332 7.7883 18.6332C7.10504 18.6332 6.44249 18.6332 5.73853 18.6332C5.73853 19.366 5.73853 20.036 5.73853 20.7059C5.73853 21.4387 5.73853 22.1087 5.73853 22.7786C6.44249 22.7786 7.12575 22.7786 7.7883 22.7786C7.7883 22.0668 7.7883 21.3968 7.7883 20.7059C8.49227 20.7059 9.17553 20.7059 9.83808 20.7059C9.83808 20.015 9.83808 19.3241 9.83808 18.6332Z" fill="#999999"/>
<path d="M15.9875 20.706C16.6914 20.706 17.3747 20.706 18.0373 20.706C18.0373 19.9942 18.0373 19.3242 18.0373 18.6333C17.354 18.6333 16.6914 18.6333 15.9875 18.6333C15.3042 18.6333 14.6417 18.6333 13.9377 18.6333C13.9377 17.9215 13.9377 17.2515 13.9377 16.5606C13.9377 15.8488 13.9377 15.1788 13.9377 14.4879C13.2544 14.4879 12.5919 14.4879 11.8879 14.4879C11.2047 14.4879 10.5421 14.4879 9.83813 14.4879C9.83813 15.1997 9.83813 15.8906 9.83813 16.5606C10.5421 16.5606 11.2254 16.5606 11.8879 16.5606C11.8879 17.2724 11.8879 17.9633 11.8879 18.6333C11.8879 19.3661 11.8879 20.036 11.8879 20.706C11.8879 21.4388 11.8879 22.1087 11.8879 22.7787C11.2047 22.7787 10.5421 22.7787 9.83813 22.7787C9.83813 23.4905 9.83813 24.1814 9.83813 24.8514C9.83813 25.5841 9.83813 26.2541 9.83813 26.9241C10.5421 26.9241 11.2254 26.9241 11.8879 26.9241C11.8879 26.2122 11.8879 25.5423 11.8879 24.8514C12.5919 24.8514 13.2751 24.8514 13.9377 24.8514C13.9377 24.1395 13.9377 23.4696 13.9377 22.7787C13.9377 22.0669 13.9377 21.3969 13.9377 20.706C14.6417 20.706 15.3042 20.706 15.9875 20.706Z" fill="#999999"/>
<path d="M5.75952 26.9452C6.46349 26.9452 7.14674 26.9452 7.8093 26.9452C7.8093 26.2334 7.8093 25.5634 7.8093 24.8725C7.12604 24.8725 6.46349 24.8725 5.75952 24.8725C5.75952 25.6053 5.75952 26.2752 5.75952 26.9452Z" fill="#999999"/>
<path d="M27.6235 9.37933V12.122H33.131C35.5328 12.122 37.2927 13.3572 37.8517 15.409H27.6235V15.8486V17.7748V18.1516H37.8517C37.3134 20.1196 35.7191 21.4386 33.5451 21.5852H27.6235V21.6061V24.3069V24.3278H31.6403L38.3072 34.1679H41.8685L34.8288 24.0557C37.8517 23.8044 40.5848 21.7736 41.1024 18.1516H44.6429V17.7748V15.8486V15.409H41.0403C40.7918 14.1109 40.1707 12.9804 39.2804 12.122H44.6429V11.3055V9.37933H27.6235Z" fill="#999999"/>
</svg>
