<svg width="32" height="32" viewBox="0 0 32 32" fill="none" xmlns="http://www.w3.org/2000/svg">
<path d="M5.33333 2.31201C5.56796 2.31219 5.79838 2.37428 6.00133 2.49201L27.34 14.8467C27.542 14.9639 27.7098 15.1321 27.8264 15.3345C27.9429 15.5369 28.0043 15.7664 28.0043 16C28.0043 16.2336 27.9429 16.4631 27.8264 16.6655C27.7098 16.8679 27.542 17.0361 27.34 17.1533L6.00133 29.508C5.79871 29.6253 5.56877 29.6872 5.33464 29.6874C5.10051 29.6876 4.87045 29.6262 4.66759 29.5093C4.46474 29.3924 4.29624 29.2242 4.17905 29.0215C4.06186 28.8188 4.0001 28.5888 4 28.3547V3.64535C4 3.29172 4.14048 2.95258 4.39052 2.70254C4.64057 2.45249 4.97971 2.31201 5.33333 2.31201ZM16.3893 17.8853L10.392 23.8827L17.9907 19.484L16.3907 17.884L16.3893 17.8853ZM6.66667 8.15734V23.8373L14.5067 15.9973L6.66667 8.15734ZM20.3787 13.8933L18.2747 16L20.3787 18.1027L24.0107 16L20.3773 13.8947L20.3787 13.8933ZM10.392 8.11201L16.392 14.112L17.9907 12.512L10.392 8.11201Z" fill="#003366"/>
</svg>
