<svg width="86" height="35" viewBox="0 0 86 35" fill="none" xmlns="http://www.w3.org/2000/svg">
<g clip-path="url(#clip0_2675_202)">
<path d="M40.7668 17.3315V27.2583H37.6453V2.74365H45.9241C46.9123 2.72283 47.8948 2.89964 48.815 3.2639C49.7351 3.62815 50.5746 4.17263 51.285 4.86592C52.0026 5.51711 52.5738 6.31573 52.96 7.2081C53.3463 8.10047 53.5387 9.06591 53.5244 10.0395C53.5449 11.0184 53.3554 11.9901 52.9689 12.8882C52.5824 13.7863 52.008 14.5894 51.285 15.2425C49.8374 16.6352 48.0504 17.3309 45.9241 17.3296H40.7668V17.3315ZM40.7668 5.76177V14.3193H46.0017C46.5756 14.3364 47.1467 14.2326 47.6785 14.0143C48.2104 13.7961 48.6912 13.4682 49.0903 13.0518C49.4872 12.6624 49.8028 12.1967 50.0183 11.6822C50.2337 11.1676 50.3448 10.6147 50.3448 10.0562C50.3448 9.4976 50.2337 8.94471 50.0183 8.43017C49.8028 7.91564 49.4872 7.44992 49.0903 7.06055C48.6962 6.63533 48.217 6.29947 47.6846 6.07522C47.1521 5.85097 46.5785 5.74346 46.0017 5.75981H40.7668V5.76177Z" fill="#999999"/>
<path d="M60.7174 9.93793C63.0246 9.93793 64.8458 10.5599 66.1811 11.804C67.5163 13.048 68.1833 14.7536 68.182 16.9209V27.2583H65.1961V24.9307H65.0604C63.7679 26.8476 62.0487 27.806 59.9031 27.806C58.0715 27.806 56.5392 27.2583 55.3061 26.163C54.7143 25.6602 54.2412 25.0306 53.9212 24.32C53.6012 23.6094 53.4424 22.8357 53.4564 22.0554C53.4564 20.3197 54.1066 18.9395 55.4069 17.9145C56.7072 16.8896 58.4431 16.3758 60.6146 16.3732C62.4682 16.3732 63.9947 16.7155 65.1942 17.4001V16.6803C65.1977 16.1483 65.0839 15.6221 64.8609 15.14C64.6378 14.6579 64.3113 14.232 63.9049 13.893C63.0794 13.1416 62.0036 12.7317 60.8919 12.7448C59.1482 12.7448 57.7684 13.4868 56.7525 14.9707L54.0032 13.224C55.5155 11.0333 57.7536 9.93793 60.7174 9.93793ZM56.6788 22.1238C56.6767 22.5246 56.7696 22.9201 56.9496 23.2774C57.1297 23.6346 57.3918 23.9433 57.7141 24.1776C58.4045 24.7255 59.2614 25.0157 60.1396 24.9992C61.4569 24.9969 62.7195 24.468 63.6509 23.5282C64.6849 22.5463 65.202 21.3942 65.202 20.072C64.2287 19.2896 62.8715 18.8984 61.1304 18.8984C59.8624 18.8984 58.805 19.2068 57.9584 19.8236C57.1034 20.4495 56.6788 21.2104 56.6788 22.1238Z" fill="#999999"/>
<path d="M85.3213 10.4856L74.8981 34.652H71.6758L75.5437 26.1962L68.6899 10.4856H72.0829L77.0366 22.5346H77.1045L81.9225 10.4856H85.3213Z" fill="#999999"/>
<path d="M28.1526 15.1918C28.1538 14.2321 28.0733 13.274 27.9122 12.3282H14.7474V17.7522H22.2876C22.1333 18.6185 21.8067 19.4443 21.3276 20.1798C20.8484 20.9153 20.2266 21.5454 19.4995 22.0319V25.5527H23.9996C26.6345 23.1019 28.1526 19.4774 28.1526 15.1918Z" fill="#999999"/>
<path d="M14.7475 28.9542C18.5146 28.9542 21.6866 27.7063 23.9996 25.5547L19.4996 22.0339C18.2471 22.8906 16.634 23.3796 14.7475 23.3796C11.1063 23.3796 8.01581 20.9033 6.91067 17.5663H2.2749V21.1947C3.43679 23.5272 5.21841 25.488 7.42086 26.8582C9.62331 28.2284 12.1599 28.9541 14.7475 28.9542Z" fill="#999999"/>
<path d="M6.91068 17.5663C6.32643 15.8177 6.32643 13.9242 6.91068 12.1756V8.54718H2.27491C1.29749 10.5094 0.788452 12.6749 0.788452 14.8709C0.788452 17.067 1.29749 19.2325 2.27491 21.1947L6.91068 17.5663Z" fill="#999999"/>
<path d="M14.7475 6.36228C16.7383 6.32947 18.6619 7.0883 20.1026 8.47476L24.0869 4.45517C21.5604 2.06117 18.2134 0.746828 14.7475 0.787667C12.1599 0.787786 9.62332 1.51345 7.42086 2.88365C5.21841 4.25384 3.43679 6.21464 2.2749 8.54713L6.91067 12.1755C8.01581 8.83858 11.1063 6.36228 14.7475 6.36228Z" fill="#999999"/>
</g>
<defs>
<clipPath id="clip0_2675_202">
<rect width="84.5277" height="33.8643" fill="white" transform="translate(0.787842 0.78772)"/>
</clipPath>
</defs>
</svg>
