<svg width="19" height="16" viewBox="0 0 19 16" fill="none" xmlns="http://www.w3.org/2000/svg">
<path d="M6.41911 4.38288H3.46543C2.99256 4.38288 2.60791 3.99824 2.60791 3.52536C2.60791 3.05249 2.99256 2.66784 3.46543 2.66784H7.65423C7.91889 2.66784 8.13063 2.45611 8.13063 2.19144C8.13063 1.92678 7.91889 1.71504 7.65423 1.71504H5.93918C5.46631 1.71504 5.08166 1.33039 5.08166 0.857521C5.08166 0.384649 5.46631 0 5.93918 0H8.23296C8.90345 0 9.55277 0.239965 10.068 0.674019L18.4632 7.78827C18.6573 7.9506 18.6538 8.24702 18.4597 8.40935L10.0609 15.3507C9.55277 15.7706 8.91404 16 8.25414 16H4.79935C4.32648 16 3.94183 15.6154 3.94183 15.1425C3.94183 14.6696 4.32648 14.285 4.79935 14.285H7.56248C7.87655 14.285 8.13416 14.0309 8.13416 13.7133C8.13416 13.3992 7.88008 13.1416 7.56248 13.1416H5.84743C5.4275 13.1416 5.08519 12.7993 5.08519 12.3794C5.08519 11.9594 5.4275 11.6171 5.84743 11.6171H8.51528C8.93521 11.6171 9.27752 11.2748 9.27752 10.8549C9.27752 10.4349 8.93521 10.0926 8.51528 10.0926H7.75304C7.3331 10.0926 6.99079 9.75033 6.99079 9.33039C6.99079 8.91046 7.3331 8.56815 7.75304 8.56815H9.65864C9.97271 8.56815 10.2303 8.31407 10.2303 7.99647C10.2303 7.67887 9.97624 7.42479 9.65864 7.42479H5.08872C4.66878 7.42479 4.32648 7.08249 4.32648 6.66255C4.32648 6.24261 4.66878 5.90031 5.08872 5.90031H6.42264C6.84258 5.90031 7.18488 5.55801 7.18488 5.13807C7.18135 4.72519 6.84258 4.38288 6.41911 4.38288Z" fill="#003366"/>
<path d="M1.18223 4.32991C1.65582 4.32991 2.03975 3.94599 2.03975 3.47239C2.03975 2.99879 1.65582 2.61487 1.18223 2.61487C0.708632 2.61487 0.324707 2.99879 0.324707 3.47239C0.324707 3.94599 0.708632 4.32991 1.18223 4.32991Z" fill="#003366"/>
<path d="M3.46885 13.145C3.94245 13.145 4.32637 12.761 4.32637 12.2875C4.32637 11.8139 3.94245 11.4299 3.46885 11.4299C2.99525 11.4299 2.61133 11.8139 2.61133 12.2875C2.61133 12.761 2.99525 13.145 3.46885 13.145Z" fill="#003366"/>
<path d="M0.762241 5.87915H3.04896C3.4689 5.87915 3.8112 6.22145 3.8112 6.64139C3.8112 7.06133 3.4689 7.40363 3.04896 7.40363H0.762241C0.342303 7.40363 0 7.06133 0 6.64139C0 6.22145 0.338774 5.87915 0.762241 5.87915Z" fill="#003366"/>
<path d="M2.99222 8.57153H5.66006C6.08 8.57153 6.4223 8.91384 6.4223 9.33377C6.4223 9.75371 6.08 10.096 5.66006 10.096H2.99222C2.57228 10.096 2.22998 9.75371 2.22998 9.33377C2.22998 8.91384 2.57228 8.57153 2.99222 8.57153Z" fill="#003366"/>
</svg>
