<svg width="365" height="305" viewBox="0 0 365 305" fill="none" xmlns="http://www.w3.org/2000/svg">
<path d="M35.8467 12.3087C35.8467 5.5108 41.3575 0 48.1554 0H315.87C322.668 0 328.179 5.51081 328.179 12.3087V305H35.8467V12.3087Z" fill="url(#paint0_linear_2954_1239)"/>
<g clip-path="url(#clip0_2954_1239)">
<path d="M43.6422 14.6165C43.6422 10.8493 46.6961 7.79541 50.4633 7.79541H313.562C317.33 7.79541 320.383 10.8493 320.383 14.6165V280.639H43.6422V14.6165Z" fill="url(#paint1_linear_2954_1239)"/>
<g filter="url(#filter0_d_2954_1239)">
<path d="M59.2333 149.802C59.2333 147.794 60.8613 146.166 62.8697 146.166H305.054C307.062 146.166 308.69 147.794 308.69 149.802V174.53C308.69 176.538 307.062 178.166 305.054 178.166H62.8697C60.8613 178.166 59.2333 176.538 59.2333 174.53V149.802Z" fill="white"/>
<path d="M59.5969 149.802C59.5969 147.995 61.0622 146.53 62.8697 146.53H305.054C306.861 146.53 308.327 147.995 308.327 149.802V174.53C308.327 176.337 306.861 177.803 305.054 177.803H62.8697C61.0622 177.803 59.5969 176.337 59.5969 174.53V149.802Z" stroke="#F4F4F4" stroke-width="0.727279"/>
</g>
<path d="M98.662 165.48C97.9968 165.48 97.4266 165.324 96.9515 165.012C96.4831 164.7 96.1539 164.272 95.9638 163.729L96.7784 163.261C97.0567 164.123 97.6914 164.554 98.6824 164.554C99.1711 164.554 99.5445 164.455 99.8024 164.258C100.06 164.055 100.189 163.787 100.189 163.454C100.189 163.115 100.06 162.86 99.8024 162.69C99.5445 162.521 99.1134 162.341 98.5093 162.151C98.2106 162.056 97.9833 161.981 97.8271 161.927C97.671 161.866 97.4742 161.777 97.2366 161.662C97.0058 161.54 96.8327 161.418 96.7173 161.295C96.6019 161.167 96.4967 161 96.4017 160.797C96.3134 160.593 96.2693 160.362 96.2693 160.104C96.2693 159.487 96.4865 158.998 96.9209 158.638C97.3554 158.271 97.8848 158.088 98.5093 158.088C99.0727 158.088 99.5614 158.231 99.9755 158.516C100.396 158.801 100.712 159.178 100.922 159.646L100.128 160.104C99.8228 159.371 99.2831 159.005 98.5093 159.005C98.1224 159.005 97.8102 159.1 97.5726 159.29C97.335 159.48 97.2162 159.738 97.2162 160.063C97.2162 160.376 97.3282 160.613 97.5522 160.776C97.7762 160.939 98.1631 161.109 98.713 161.285C98.9098 161.346 99.049 161.391 99.1304 161.418C99.2119 161.445 99.3374 161.492 99.5071 161.56C99.6836 161.628 99.8126 161.682 99.8941 161.723C99.9755 161.764 100.084 161.822 100.22 161.896C100.362 161.971 100.468 162.042 100.536 162.11C100.603 162.178 100.681 162.263 100.77 162.365C100.865 162.46 100.933 162.558 100.973 162.66C101.014 162.762 101.048 162.88 101.075 163.016C101.109 163.145 101.126 163.284 101.126 163.434C101.126 164.058 100.899 164.557 100.444 164.93C99.9891 165.297 99.3951 165.48 98.662 165.48ZM102.896 163.21C102.984 163.664 103.191 164.017 103.517 164.269C103.85 164.52 104.257 164.645 104.739 164.645C105.411 164.645 105.9 164.398 106.205 163.902L106.959 164.33C106.463 165.097 105.717 165.48 104.719 165.48C103.911 165.48 103.252 165.229 102.743 164.727C102.241 164.218 101.99 163.576 101.99 162.802C101.99 162.035 102.238 161.397 102.733 160.888C103.229 160.379 103.87 160.125 104.658 160.125C105.404 160.125 106.012 160.389 106.48 160.919C106.955 161.441 107.193 162.073 107.193 162.813C107.193 162.942 107.183 163.074 107.162 163.21H102.896ZM104.658 160.959C104.182 160.959 103.789 161.095 103.476 161.367C103.164 161.632 102.971 161.988 102.896 162.436H106.297C106.222 161.954 106.032 161.587 105.727 161.336C105.421 161.085 105.065 160.959 104.658 160.959ZM112.417 160.257H113.302V165.348H112.417V164.472C111.975 165.144 111.334 165.48 110.492 165.48C109.779 165.48 109.172 165.222 108.67 164.706C108.167 164.184 107.916 163.549 107.916 162.802C107.916 162.056 108.167 161.424 108.67 160.909C109.172 160.386 109.779 160.125 110.492 160.125C111.334 160.125 111.975 160.461 112.417 161.133V160.257ZM110.604 164.625C111.12 164.625 111.551 164.452 111.897 164.106C112.243 163.753 112.417 163.318 112.417 162.802C112.417 162.287 112.243 161.856 111.897 161.509C111.551 161.156 111.12 160.98 110.604 160.98C110.095 160.98 109.667 161.156 109.321 161.509C108.975 161.856 108.802 162.287 108.802 162.802C108.802 163.318 108.975 163.753 109.321 164.106C109.667 164.452 110.095 164.625 110.604 164.625ZM115.53 161.112C115.822 160.481 116.352 160.165 117.119 160.165V161.092C116.684 161.071 116.311 161.187 115.999 161.438C115.686 161.689 115.53 162.093 115.53 162.65V165.348H114.644V160.257H115.53V161.112ZM120.1 165.48C119.333 165.48 118.695 165.226 118.186 164.717C117.676 164.201 117.422 163.563 117.422 162.802C117.422 162.042 117.676 161.408 118.186 160.898C118.695 160.383 119.333 160.125 120.1 160.125C120.602 160.125 121.053 160.247 121.454 160.491C121.854 160.729 122.153 161.051 122.35 161.458L121.607 161.886C121.478 161.615 121.277 161.397 121.006 161.234C120.741 161.071 120.439 160.99 120.1 160.99C119.591 160.99 119.163 161.163 118.817 161.509C118.477 161.856 118.308 162.287 118.308 162.802C118.308 163.312 118.477 163.739 118.817 164.085C119.163 164.432 119.591 164.605 120.1 164.605C120.439 164.605 120.745 164.527 121.016 164.37C121.288 164.208 121.495 163.99 121.637 163.719L122.391 164.157C122.173 164.557 121.861 164.88 121.454 165.124C121.047 165.361 120.595 165.48 120.1 165.48ZM125.801 160.125C126.398 160.125 126.876 160.315 127.236 160.695C127.596 161.068 127.776 161.577 127.776 162.222V165.348H126.89V162.273C126.89 161.859 126.778 161.54 126.554 161.316C126.33 161.085 126.021 160.97 125.627 160.97C125.186 160.97 124.83 161.109 124.558 161.387C124.287 161.659 124.151 162.08 124.151 162.65V165.348H123.265V158.221H124.151V160.99C124.511 160.413 125.061 160.125 125.801 160.125ZM134.368 160.125C135.081 160.125 135.688 160.386 136.191 160.909C136.693 161.424 136.944 162.056 136.944 162.802C136.944 163.549 136.693 164.184 136.191 164.706C135.688 165.222 135.081 165.48 134.368 165.48C133.526 165.48 132.885 165.144 132.444 164.472V165.348H131.558V158.221H132.444V161.133C132.885 160.461 133.526 160.125 134.368 160.125ZM134.256 164.625C134.765 164.625 135.193 164.452 135.539 164.106C135.885 163.753 136.058 163.318 136.058 162.802C136.058 162.287 135.885 161.856 135.539 161.509C135.193 161.156 134.765 160.98 134.256 160.98C133.74 160.98 133.309 161.156 132.963 161.509C132.617 161.856 132.444 162.287 132.444 162.802C132.444 163.318 132.617 163.753 132.963 164.106C133.309 164.452 133.74 164.625 134.256 164.625ZM141.356 160.257H142.303L140.226 165.664C140.008 166.241 139.703 166.678 139.309 166.977C138.922 167.282 138.474 167.418 137.965 167.384V166.56C138.59 166.607 139.048 166.261 139.34 165.521L139.431 165.328L137.212 160.257H138.159L139.89 164.248L141.356 160.257ZM148.123 160.125C148.721 160.125 149.199 160.315 149.559 160.695C149.919 161.068 150.099 161.577 150.099 162.222V165.348H149.213V162.273C149.213 161.859 149.101 161.54 148.877 161.316C148.653 161.085 148.344 160.97 147.95 160.97C147.509 160.97 147.153 161.109 146.881 161.387C146.61 161.659 146.474 162.08 146.474 162.65V165.348H145.588V160.257H146.474V160.99C146.834 160.413 147.383 160.125 148.123 160.125ZM155.55 160.257H156.436V165.348H155.55V164.472C155.109 165.144 154.468 165.48 153.626 165.48C152.913 165.48 152.306 165.222 151.804 164.706C151.301 164.184 151.05 163.549 151.05 162.802C151.05 162.056 151.301 161.424 151.804 160.909C152.306 160.386 152.913 160.125 153.626 160.125C154.468 160.125 155.109 160.461 155.55 161.133V160.257ZM153.738 164.625C154.254 164.625 154.685 164.452 155.031 164.106C155.377 163.753 155.55 163.318 155.55 162.802C155.55 162.287 155.377 161.856 155.031 161.509C154.685 161.156 154.254 160.98 153.738 160.98C153.229 160.98 152.801 161.156 152.455 161.509C152.109 161.856 151.936 162.287 151.936 162.802C151.936 163.318 152.109 163.753 152.455 164.106C152.801 164.452 153.229 164.625 153.738 164.625ZM163.277 160.125C163.847 160.125 164.308 160.311 164.661 160.685C165.014 161.051 165.191 161.55 165.191 162.181V165.348H164.305V162.212C164.305 161.818 164.203 161.513 164 161.295C163.796 161.078 163.524 160.97 163.185 160.97C162.805 160.97 162.499 161.099 162.269 161.357C162.045 161.608 161.933 161.995 161.933 162.517V165.348H161.047V162.212C161.047 161.818 160.948 161.513 160.752 161.295C160.561 161.078 160.3 160.97 159.968 160.97C159.594 160.97 159.282 161.099 159.031 161.357C158.786 161.615 158.664 162.001 158.664 162.517V165.348H157.778V160.257H158.664V160.939C159.01 160.396 159.516 160.125 160.181 160.125C160.867 160.125 161.366 160.413 161.678 160.99C162.031 160.413 162.564 160.125 163.277 160.125ZM167.04 163.21C167.128 163.664 167.335 164.017 167.661 164.269C167.994 164.52 168.401 164.645 168.883 164.645C169.555 164.645 170.044 164.398 170.349 163.902L171.103 164.33C170.607 165.097 169.861 165.48 168.863 165.48C168.055 165.48 167.397 165.229 166.887 164.727C166.385 164.218 166.134 163.576 166.134 162.802C166.134 162.035 166.382 161.397 166.877 160.888C167.373 160.379 168.014 160.125 168.802 160.125C169.548 160.125 170.156 160.389 170.624 160.919C171.099 161.441 171.337 162.073 171.337 162.813C171.337 162.942 171.327 163.074 171.306 163.21H167.04ZM168.802 160.959C168.327 160.959 167.933 161.095 167.621 161.367C167.308 161.632 167.115 161.988 167.04 162.436H170.441C170.366 161.954 170.176 161.587 169.871 161.336C169.565 161.085 169.209 160.959 168.802 160.959ZM172.6 166.366H172.07L176.143 157.202H176.672L172.6 166.366ZM180.545 160.125C181.257 160.125 181.865 160.386 182.367 160.909C182.87 161.424 183.121 162.056 183.121 162.802C183.121 163.549 182.87 164.184 182.367 164.706C181.865 165.222 181.257 165.48 180.545 165.48C179.703 165.48 179.062 165.144 178.62 164.472V167.384H177.735V160.257H178.62V161.133C179.062 160.461 179.703 160.125 180.545 160.125ZM180.433 164.625C180.942 164.625 181.369 164.452 181.716 164.106C182.062 163.753 182.235 163.318 182.235 162.802C182.235 162.287 182.062 161.856 181.716 161.509C181.369 161.156 180.942 160.98 180.433 160.98C179.917 160.98 179.486 161.156 179.14 161.509C178.793 161.856 178.62 162.287 178.62 162.802C178.62 163.318 178.793 163.753 179.14 164.106C179.486 164.452 179.917 164.625 180.433 164.625ZM186.713 160.125C187.31 160.125 187.789 160.315 188.149 160.695C188.508 161.068 188.688 161.577 188.688 162.222V165.348H187.803V162.273C187.803 161.859 187.691 161.54 187.467 161.316C187.243 161.085 186.934 160.97 186.54 160.97C186.099 160.97 185.742 161.109 185.471 161.387C185.199 161.659 185.064 162.08 185.064 162.65V165.348H184.178V158.221H185.064V160.99C185.423 160.413 185.973 160.125 186.713 160.125ZM194.222 164.706C193.699 165.222 193.064 165.48 192.318 165.48C191.571 165.48 190.936 165.222 190.414 164.706C189.898 164.191 189.64 163.556 189.64 162.802C189.64 162.049 189.898 161.414 190.414 160.898C190.936 160.383 191.571 160.125 192.318 160.125C193.064 160.125 193.699 160.383 194.222 160.898C194.744 161.414 195.006 162.049 195.006 162.802C195.006 163.556 194.744 164.191 194.222 164.706ZM192.318 164.615C192.827 164.615 193.254 164.442 193.601 164.096C193.947 163.749 194.12 163.318 194.12 162.802C194.12 162.287 193.947 161.856 193.601 161.509C193.254 161.163 192.827 160.99 192.318 160.99C191.815 160.99 191.391 161.163 191.045 161.509C190.699 161.856 190.526 162.287 190.526 162.802C190.526 163.318 190.699 163.749 191.045 164.096C191.391 164.442 191.815 164.615 192.318 164.615ZM198.585 160.125C199.183 160.125 199.661 160.315 200.021 160.695C200.381 161.068 200.561 161.577 200.561 162.222V165.348H199.675V162.273C199.675 161.859 199.563 161.54 199.339 161.316C199.115 161.085 198.806 160.97 198.412 160.97C197.971 160.97 197.615 161.109 197.343 161.387C197.072 161.659 196.936 162.08 196.936 162.65V165.348H196.05V160.257H196.936V160.99C197.296 160.413 197.845 160.125 198.585 160.125ZM202.418 163.21C202.507 163.664 202.714 164.017 203.039 164.269C203.372 164.52 203.779 164.645 204.261 164.645C204.933 164.645 205.422 164.398 205.727 163.902L206.481 164.33C205.985 165.097 205.239 165.48 204.241 165.48C203.433 165.48 202.775 165.229 202.266 164.727C201.763 164.218 201.512 163.576 201.512 162.802C201.512 162.035 201.76 161.397 202.255 160.888C202.751 160.379 203.392 160.125 204.18 160.125C204.927 160.125 205.534 160.389 206.002 160.919C206.478 161.441 206.715 162.073 206.715 162.813C206.715 162.942 206.705 163.074 206.685 163.21H202.418ZM204.18 160.959C203.705 160.959 203.311 161.095 202.999 161.367C202.686 161.632 202.493 161.988 202.418 162.436H205.819C205.744 161.954 205.554 161.587 205.249 161.336C204.943 161.085 204.587 160.959 204.18 160.959ZM212.814 160.125C213.412 160.125 213.89 160.315 214.25 160.695C214.61 161.068 214.789 161.577 214.789 162.222V165.348H213.904V162.273C213.904 161.859 213.792 161.54 213.568 161.316C213.344 161.085 213.035 160.97 212.641 160.97C212.2 160.97 211.843 161.109 211.572 161.387C211.3 161.659 211.165 162.08 211.165 162.65V165.348H210.279V160.257H211.165V160.99C211.524 160.413 212.074 160.125 212.814 160.125ZM219.539 160.257H220.425V165.348H219.539V164.615C219.179 165.192 218.629 165.48 217.889 165.48C217.292 165.48 216.813 165.294 216.454 164.92C216.094 164.54 215.914 164.028 215.914 163.383V160.257H216.8V163.332C216.8 163.746 216.912 164.068 217.136 164.299C217.36 164.523 217.669 164.635 218.062 164.635C218.504 164.635 218.86 164.499 219.132 164.228C219.403 163.95 219.539 163.525 219.539 162.955V160.257ZM227.272 160.125C227.842 160.125 228.303 160.311 228.656 160.685C229.009 161.051 229.186 161.55 229.186 162.181V165.348H228.3V162.212C228.3 161.818 228.198 161.513 227.994 161.295C227.791 161.078 227.519 160.97 227.18 160.97C226.8 160.97 226.494 161.099 226.264 161.357C226.04 161.608 225.928 161.995 225.928 162.517V165.348H225.042V162.212C225.042 161.818 224.943 161.513 224.746 161.295C224.556 161.078 224.295 160.97 223.962 160.97C223.589 160.97 223.277 161.099 223.026 161.357C222.781 161.615 222.659 162.001 222.659 162.517V165.348H221.773V160.257H222.659V160.939C223.005 160.396 223.511 160.125 224.176 160.125C224.862 160.125 225.361 160.413 225.673 160.99C226.026 160.413 226.559 160.125 227.272 160.125ZM233.224 160.125C233.937 160.125 234.544 160.386 235.047 160.909C235.549 161.424 235.8 162.056 235.8 162.802C235.8 163.549 235.549 164.184 235.047 164.706C234.544 165.222 233.937 165.48 233.224 165.48C232.383 165.48 231.741 165.144 231.3 164.472V165.348H230.414V158.221H231.3V161.133C231.741 160.461 232.383 160.125 233.224 160.125ZM233.112 164.625C233.621 164.625 234.049 164.452 234.395 164.106C234.741 163.753 234.914 163.318 234.914 162.802C234.914 162.287 234.741 161.856 234.395 161.509C234.049 161.156 233.621 160.98 233.112 160.98C232.596 160.98 232.165 161.156 231.819 161.509C231.473 161.856 231.3 162.287 231.3 162.802C231.3 163.318 231.473 163.753 231.819 164.106C232.165 164.452 232.596 164.625 233.112 164.625ZM237.478 163.21C237.567 163.664 237.774 164.017 238.099 164.269C238.432 164.52 238.839 164.645 239.321 164.645C239.993 164.645 240.482 164.398 240.787 163.902L241.541 164.33C241.045 165.097 240.299 165.48 239.301 165.48C238.493 165.48 237.835 165.229 237.326 164.727C236.823 164.218 236.572 163.576 236.572 162.802C236.572 162.035 236.82 161.397 237.315 160.888C237.811 160.379 238.452 160.125 239.24 160.125C239.986 160.125 240.594 160.389 241.062 160.919C241.538 161.441 241.775 162.073 241.775 162.813C241.775 162.942 241.765 163.074 241.745 163.21H237.478ZM239.24 160.959C238.765 160.959 238.371 161.095 238.059 161.367C237.746 161.632 237.553 161.988 237.478 162.436H240.879C240.804 161.954 240.614 161.587 240.309 161.336C240.003 161.085 239.647 160.959 239.24 160.959ZM243.679 161.112C243.971 160.481 244.501 160.165 245.268 160.165V161.092C244.833 161.071 244.46 161.187 244.148 161.438C243.835 161.689 243.679 162.093 243.679 162.65V165.348H242.793V160.257H243.679V161.112Z" fill="#959595"/>
<g clip-path="url(#clip1_2954_1239)">
<path d="M75.2334 154.894C78.8465 154.894 81.7789 157.826 81.7789 161.439C81.7789 165.052 78.8465 167.985 75.2334 167.985C71.6203 167.985 68.6879 165.052 68.6879 161.439C68.6879 157.826 71.6203 154.894 75.2334 154.894ZM75.2334 166.53C78.0458 166.53 80.3243 164.251 80.3243 161.439C80.3243 158.626 78.0458 156.348 75.2334 156.348C72.4203 156.348 70.1424 158.626 70.1424 161.439C70.1424 164.251 72.4203 166.53 75.2334 166.53ZM81.4043 166.582L83.4618 168.638L82.4327 169.668L80.376 167.61L81.4043 166.582Z" fill="#959595"/>
</g>
<circle cx="74.1262" cy="261.392" r="14.8929" fill="#EBF3FA"/>
<path d="M90.5083 236.073H308.69" stroke="#DDDDDD" stroke-width="0.744647"/>
<path d="M265.529 267.115L263.349 270.886V273.37H262.321V270.886L260.141 267.115H261.311L262.839 269.885L264.358 267.115H265.529ZM267.358 273.487C266.703 273.487 266.146 273.26 265.687 272.807C265.228 272.355 264.999 271.798 264.999 271.136C264.999 270.475 265.228 269.918 265.687 269.465C266.146 269.013 266.703 268.786 267.358 268.786C268.019 268.786 268.576 269.013 269.029 269.465C269.488 269.918 269.717 270.475 269.717 271.136C269.717 271.798 269.488 272.355 269.029 272.807C268.576 273.26 268.019 273.487 267.358 273.487ZM266.366 272.146C266.634 272.414 266.965 272.548 267.358 272.548C267.751 272.548 268.082 272.414 268.35 272.146C268.618 271.878 268.752 271.542 268.752 271.136C268.752 270.731 268.618 270.395 268.35 270.127C268.082 269.859 267.751 269.725 267.358 269.725C266.965 269.725 266.634 269.859 266.366 270.127C266.098 270.395 265.964 270.731 265.964 271.136C265.964 271.542 266.098 271.878 266.366 272.146ZM273.601 268.902H274.566V273.37H273.601V272.798C273.309 273.257 272.847 273.487 272.216 273.487C271.704 273.487 271.29 273.323 270.974 272.995C270.658 272.667 270.5 272.218 270.5 271.646V268.902H271.465V271.547C271.465 271.881 271.555 272.137 271.733 272.316C271.912 272.495 272.156 272.584 272.466 272.584C272.806 272.584 273.08 272.48 273.288 272.271C273.497 272.057 273.601 271.732 273.601 271.297V268.902ZM277.035 267.115L276.409 269.439H275.605L275.963 267.115H277.035ZM278.059 273.37V266.847H279.024V273.37H278.059ZM280.145 273.37V266.847H281.11V273.37H280.145ZM290.612 270.136V270.565C290.612 271.422 290.329 272.125 289.763 272.673C289.198 273.215 288.459 273.487 287.547 273.487C286.582 273.487 285.784 273.174 285.153 272.548C284.527 271.923 284.214 271.154 284.214 270.243C284.214 269.337 284.527 268.572 285.153 267.946C285.784 267.315 286.564 266.999 287.494 266.999C288.078 266.999 288.611 267.133 289.093 267.401C289.576 267.669 289.951 268.03 290.219 268.482L289.335 268.992C289.168 268.694 288.92 268.456 288.593 268.277C288.265 268.092 287.899 268 287.494 268C286.838 268 286.299 268.214 285.876 268.643C285.453 269.072 285.242 269.608 285.242 270.252C285.242 270.895 285.453 271.428 285.876 271.851C286.305 272.274 286.865 272.486 287.556 272.486C288.11 272.486 288.56 272.358 288.906 272.101C289.257 271.839 289.48 271.491 289.576 271.056H287.485V270.136H290.612ZM292.401 268.054C292.282 268.173 292.139 268.232 291.972 268.232C291.805 268.232 291.659 268.173 291.534 268.054C291.415 267.928 291.355 267.783 291.355 267.616C291.355 267.449 291.415 267.306 291.534 267.187C291.653 267.062 291.799 266.999 291.972 266.999C292.145 266.999 292.29 267.062 292.41 267.187C292.529 267.306 292.588 267.449 292.588 267.616C292.588 267.783 292.526 267.928 292.401 268.054ZM291.489 273.37V268.902H292.454V273.37H291.489ZM296.604 268.902H297.658L295.916 273.37H294.799L293.057 268.902H294.111L295.362 272.298L296.604 268.902ZM298.855 271.547C298.926 271.887 299.09 272.149 299.346 272.334C299.602 272.513 299.915 272.602 300.284 272.602C300.797 272.602 301.181 272.417 301.437 272.048L302.232 272.513C301.791 273.162 301.139 273.487 300.275 273.487C299.549 273.487 298.962 273.266 298.515 272.825C298.068 272.378 297.845 271.816 297.845 271.136C297.845 270.469 298.065 269.912 298.506 269.465C298.947 269.013 299.513 268.786 300.204 268.786C300.859 268.786 301.395 269.016 301.812 269.474C302.235 269.933 302.447 270.49 302.447 271.145C302.447 271.247 302.435 271.381 302.411 271.547H298.855ZM298.846 270.761H301.473C301.407 270.398 301.255 270.124 301.017 269.939C300.785 269.754 300.511 269.662 300.195 269.662C299.838 269.662 299.54 269.76 299.301 269.957C299.063 270.153 298.911 270.422 298.846 270.761Z" fill="#959595"/>
<path d="M274.447 258.243L272.302 254.502V253.621H273.017C273.438 253.621 273.791 253.529 274.077 253.347C274.363 253.156 274.546 252.894 274.625 252.56H272.302V251.679H274.613C274.542 251.377 274.395 251.127 274.173 250.928C273.95 250.721 273.64 250.618 273.243 250.618H272.302V249.737H277.675V250.618H275.805C276.083 250.92 276.258 251.274 276.329 251.679H277.675V252.56H276.353C276.273 253.148 276.047 253.609 275.674 253.942C275.3 254.268 274.82 254.49 274.232 254.61L276.567 258.243H274.447ZM284.601 253.049C285.395 253.049 286.066 253.287 286.614 253.764C287.162 254.232 287.436 254.884 287.436 255.718C287.436 256.552 287.154 257.207 286.59 257.683C286.027 258.16 285.336 258.398 284.517 258.398C283.858 258.398 283.274 258.247 282.766 257.946C282.258 257.636 281.896 257.191 281.682 256.611L282.861 255.932C283.084 256.687 283.636 257.064 284.517 257.064C284.986 257.064 285.359 256.945 285.637 256.706C285.923 256.46 286.066 256.131 286.066 255.718C286.066 255.305 285.927 254.979 285.649 254.741C285.371 254.502 285.002 254.383 284.541 254.383H282.111L282.432 249.903H287.079V251.19H283.695L283.552 253.049H284.601ZM293.883 257.219C293.311 258.005 292.509 258.398 291.477 258.398C290.444 258.398 289.638 258.005 289.058 257.219C288.486 256.432 288.2 255.384 288.2 254.073C288.2 252.763 288.486 251.714 289.058 250.928C289.638 250.142 290.444 249.748 291.477 249.748C292.509 249.748 293.311 250.142 293.883 250.928C294.463 251.714 294.753 252.763 294.753 254.073C294.753 255.384 294.463 256.432 293.883 257.219ZM291.477 257.064C292.096 257.064 292.569 256.806 292.894 256.289C293.22 255.773 293.383 255.034 293.383 254.073C293.383 253.112 293.22 252.374 292.894 251.857C292.569 251.341 292.096 251.083 291.477 251.083C290.865 251.083 290.392 251.341 290.059 251.857C289.733 252.374 289.57 253.112 289.57 254.073C289.57 255.034 289.733 255.773 290.059 256.289C290.392 256.806 290.865 257.064 291.477 257.064ZM301.388 257.219C300.816 258.005 300.014 258.398 298.981 258.398C297.949 258.398 297.143 258.005 296.563 257.219C295.991 256.432 295.705 255.384 295.705 254.073C295.705 252.763 295.991 251.714 296.563 250.928C297.143 250.142 297.949 249.748 298.981 249.748C300.014 249.748 300.816 250.142 301.388 250.928C301.968 251.714 302.258 252.763 302.258 254.073C302.258 255.384 301.968 256.432 301.388 257.219ZM298.981 257.064C299.601 257.064 300.073 256.806 300.399 256.289C300.725 255.773 300.888 255.034 300.888 254.073C300.888 253.112 300.725 252.374 300.399 251.857C300.073 251.341 299.601 251.083 298.981 251.083C298.37 251.083 297.897 251.341 297.564 251.857C297.238 252.374 297.075 253.112 297.075 254.073C297.075 255.034 297.238 255.773 297.564 256.289C297.897 256.806 298.37 257.064 298.981 257.064Z" fill="#069E31"/>
<circle cx="74.1262" cy="210.755" r="14.8929" fill="#EBF3FA"/>
<path d="M268.862 217.223L266.682 220.994V223.479H265.654V220.994L263.474 217.223H264.645L266.173 219.994L267.692 217.223H268.862ZM270.691 223.595C270.036 223.595 269.479 223.368 269.02 222.916C268.562 222.463 268.332 221.906 268.332 221.245C268.332 220.583 268.562 220.026 269.02 219.574C269.479 219.121 270.036 218.894 270.691 218.894C271.353 218.894 271.91 219.121 272.362 219.574C272.821 220.026 273.05 220.583 273.05 221.245C273.05 221.906 272.821 222.463 272.362 222.916C271.91 223.368 271.353 223.595 270.691 223.595ZM269.699 222.254C269.968 222.522 270.298 222.656 270.691 222.656C271.085 222.656 271.415 222.522 271.683 222.254C271.951 221.986 272.085 221.65 272.085 221.245C272.085 220.839 271.951 220.503 271.683 220.235C271.415 219.967 271.085 219.833 270.691 219.833C270.298 219.833 269.968 219.967 269.699 220.235C269.431 220.503 269.297 220.839 269.297 221.245C269.297 221.65 269.431 221.986 269.699 222.254ZM276.934 219.011H277.899V223.479H276.934V222.907C276.642 223.365 276.181 223.595 275.549 223.595C275.037 223.595 274.623 223.431 274.307 223.103C273.992 222.776 273.834 222.326 273.834 221.754V219.011H274.799V221.656C274.799 221.989 274.888 222.245 275.067 222.424C275.246 222.603 275.49 222.692 275.8 222.692C276.139 222.692 276.413 222.588 276.622 222.379C276.83 222.165 276.934 221.84 276.934 221.405V219.011ZM280.368 217.223L279.743 219.547H278.939L279.296 217.223H280.368ZM281.393 223.479V216.955H282.358V223.479H281.393ZM283.478 223.479V216.955H284.443V223.479H283.478ZM293.946 220.244V220.673C293.946 221.531 293.663 222.233 293.097 222.782C292.531 223.324 291.792 223.595 290.881 223.595C289.916 223.595 289.117 223.282 288.486 222.656C287.86 222.031 287.548 221.262 287.548 220.351C287.548 219.446 287.86 218.68 288.486 218.055C289.117 217.423 289.898 217.107 290.827 217.107C291.411 217.107 291.944 217.241 292.427 217.509C292.909 217.777 293.284 218.138 293.553 218.591L292.668 219.1C292.501 218.802 292.254 218.564 291.926 218.385C291.599 218.2 291.232 218.108 290.827 218.108C290.172 218.108 289.633 218.323 289.21 218.751C288.787 219.18 288.575 219.717 288.575 220.36C288.575 221.003 288.787 221.536 289.21 221.959C289.639 222.382 290.199 222.594 290.89 222.594C291.444 222.594 291.893 222.466 292.239 222.21C292.59 221.948 292.814 221.599 292.909 221.164H290.818V220.244H293.946ZM295.582 221.656C295.654 221.995 295.817 222.257 296.074 222.442C296.33 222.621 296.643 222.71 297.012 222.71C297.524 222.71 297.908 222.525 298.165 222.156L298.96 222.621C298.519 223.27 297.867 223.595 297.003 223.595C296.276 223.595 295.689 223.374 295.243 222.933C294.796 222.487 294.572 221.924 294.572 221.245C294.572 220.577 294.793 220.02 295.234 219.574C295.674 219.121 296.24 218.894 296.931 218.894C297.587 218.894 298.123 219.124 298.54 219.583C298.963 220.041 299.174 220.598 299.174 221.254C299.174 221.355 299.162 221.489 299.139 221.656H295.582ZM295.573 220.869H298.2C298.135 220.506 297.983 220.232 297.745 220.047C297.512 219.863 297.238 219.77 296.922 219.77C296.565 219.77 296.267 219.868 296.029 220.065C295.791 220.262 295.639 220.53 295.573 220.869ZM302.377 219.94H301.269V222.085C301.269 222.269 301.311 222.403 301.394 222.487C301.477 222.564 301.6 222.609 301.76 222.621C301.927 222.627 302.133 222.624 302.377 222.612V223.479C301.638 223.568 301.108 223.505 300.786 223.291C300.465 223.07 300.304 222.668 300.304 222.085V219.94H299.482V219.011H300.304V218.046L301.269 217.76V219.011H302.377V219.94Z" fill="#959595"/>
<path d="M266.116 208.352L263.971 204.61V203.729H264.686C265.107 203.729 265.461 203.637 265.746 203.455C266.032 203.264 266.215 203.002 266.295 202.668H263.971V201.787H266.283C266.211 201.485 266.064 201.235 265.842 201.036C265.619 200.83 265.31 200.726 264.912 200.726H263.971V199.845H269.345V200.726H267.474C267.752 201.028 267.927 201.382 267.998 201.787H269.345V202.668H268.022C267.943 203.256 267.716 203.717 267.343 204.05C266.97 204.376 266.489 204.599 265.901 204.718L268.237 208.352H266.116ZM275.341 200.012H276.532V208.352H275.162V201.477L273.482 201.954L273.148 200.786L275.341 200.012ZM279.964 206.922L279.13 210.02H278.058L278.535 206.922H279.964ZM286.379 207.327C285.807 208.113 285.005 208.506 283.972 208.506C282.939 208.506 282.133 208.113 281.553 207.327C280.982 206.541 280.696 205.492 280.696 204.182C280.696 202.871 280.982 201.822 281.553 201.036C282.133 200.25 282.939 199.857 283.972 199.857C285.005 199.857 285.807 200.25 286.379 201.036C286.959 201.822 287.248 202.871 287.248 204.182C287.248 205.492 286.959 206.541 286.379 207.327ZM283.972 207.172C284.592 207.172 285.064 206.914 285.39 206.398C285.715 205.881 285.878 205.143 285.878 204.182C285.878 203.22 285.715 202.482 285.39 201.965C285.064 201.449 284.592 201.191 283.972 201.191C283.36 201.191 282.888 201.449 282.554 201.965C282.229 202.482 282.066 203.22 282.066 204.182C282.066 205.143 282.229 205.881 282.554 206.398C282.888 206.914 283.36 207.172 283.972 207.172ZM293.883 207.327C293.311 208.113 292.509 208.506 291.477 208.506C290.444 208.506 289.638 208.113 289.058 207.327C288.486 206.541 288.2 205.492 288.2 204.182C288.2 202.871 288.486 201.822 289.058 201.036C289.638 200.25 290.444 199.857 291.477 199.857C292.509 199.857 293.311 200.25 293.883 201.036C294.463 201.822 294.753 202.871 294.753 204.182C294.753 205.492 294.463 206.541 293.883 207.327ZM291.477 207.172C292.096 207.172 292.569 206.914 292.894 206.398C293.22 205.881 293.383 205.143 293.383 204.182C293.383 203.22 293.22 202.482 292.894 201.965C292.569 201.449 292.096 201.191 291.477 201.191C290.865 201.191 290.392 201.449 290.059 201.965C289.733 202.482 289.57 203.22 289.57 204.182C289.57 205.143 289.733 205.881 290.059 206.398C290.392 206.914 290.865 207.172 291.477 207.172ZM301.388 207.327C300.816 208.113 300.014 208.506 298.981 208.506C297.949 208.506 297.143 208.113 296.563 207.327C295.991 206.541 295.705 205.492 295.705 204.182C295.705 202.871 295.991 201.822 296.563 201.036C297.143 200.25 297.949 199.857 298.981 199.857C300.014 199.857 300.816 200.25 301.388 201.036C301.968 201.822 302.258 202.871 302.258 204.182C302.258 205.492 301.968 206.541 301.388 207.327ZM298.981 207.172C299.601 207.172 300.073 206.914 300.399 206.398C300.725 205.881 300.888 205.143 300.888 204.182C300.888 203.22 300.725 202.482 300.399 201.965C300.073 201.449 299.601 201.191 298.981 201.191C298.37 201.191 297.897 201.449 297.563 201.965C297.238 202.482 297.075 203.22 297.075 204.182C297.075 205.143 297.238 205.881 297.563 206.398C297.897 206.914 298.37 207.172 298.981 207.172Z" fill="#ED3338"/>
<rect x="96.262" y="214.377" width="76.0064" height="11.6933" rx="5.84665" fill="#EBF3FA"/>
<rect x="96.262" y="266.022" width="76.0064" height="11.6933" rx="5.84665" fill="#EBF3FA"/>
<rect x="96.262" y="195.863" width="54.5687" height="13.6422" rx="6.82109" fill="#EBF3FA"/>
<rect x="96.262" y="247.508" width="54.5687" height="13.6422" rx="6.82109" fill="#EBF3FA"/>
<g filter="url(#filter1_d_2954_1239)">
<path d="M43.6422 11.4853C43.6422 9.44743 45.2942 7.79541 47.3321 7.79541H317.668C319.706 7.79541 321.358 9.44743 321.358 11.4853V77.1886C321.358 79.2265 319.706 80.8785 317.668 80.8785H47.3321C45.2942 80.8785 43.6422 79.2265 43.6422 77.1886V11.4853Z" fill="white"/>
</g>
<path d="M87.835 42.0073H91.9549V43.2078H86.5663V33.6582H87.835V42.0073ZM93.6704 40.3429C93.7886 40.9523 94.066 41.4252 94.5026 41.7617C94.9482 42.0982 95.4939 42.2665 96.1396 42.2665C97.04 42.2665 97.6949 41.9345 98.1041 41.2706L99.1136 41.8435C98.4497 42.8713 97.4493 43.3851 96.1124 43.3851C95.0301 43.3851 94.1479 43.0486 93.4658 42.3756C92.7928 41.6935 92.4563 40.834 92.4563 39.7972C92.4563 38.7695 92.7882 37.9146 93.4521 37.2325C94.1161 36.5504 94.9755 36.2093 96.0305 36.2093C97.0309 36.2093 97.8449 36.564 98.4725 37.2734C99.1091 37.9737 99.4274 38.8195 99.4274 39.8109C99.4274 39.9837 99.4138 40.161 99.3865 40.3429H93.6704ZM96.0305 37.328C95.3939 37.328 94.8664 37.5099 94.448 37.8737C94.0297 38.2284 93.7705 38.7058 93.6704 39.3061H98.2269C98.1269 38.6604 97.8722 38.1693 97.4629 37.8327C97.0537 37.4962 96.5762 37.328 96.0305 37.328ZM106.426 33.6582H107.613V43.2078H106.426V42.0345C105.835 42.9349 104.976 43.3851 103.848 43.3851C102.893 43.3851 102.079 43.0395 101.406 42.3483C100.733 41.648 100.396 40.7976 100.396 39.7972C100.396 38.7968 100.733 37.951 101.406 37.2598C102.079 36.5595 102.893 36.2093 103.848 36.2093C104.976 36.2093 105.835 36.6595 106.426 37.5599V33.6582ZM103.998 42.2392C104.689 42.2392 105.267 42.0073 105.731 41.5434C106.194 41.0705 106.426 40.4884 106.426 39.7972C106.426 39.106 106.194 38.5285 105.731 38.0647C105.267 37.5917 104.689 37.3553 103.998 37.3553C103.316 37.3553 102.743 37.5917 102.279 38.0647C101.815 38.5285 101.583 39.106 101.583 39.7972C101.583 40.4884 101.815 41.0705 102.279 41.5434C102.743 42.0073 103.316 42.2392 103.998 42.2392ZM115.073 36.3867H116.246V42.9213C116.246 43.9308 115.905 44.713 115.223 45.2677C114.541 45.8316 113.722 46.1135 112.767 46.1135C112.003 46.1135 111.344 45.968 110.789 45.677C110.234 45.3951 109.816 44.9858 109.534 44.4492L110.571 43.8626C110.944 44.6265 111.685 45.0085 112.795 45.0085C113.504 45.0085 114.059 44.8221 114.459 44.4492C114.868 44.0763 115.073 43.567 115.073 42.9213V41.9527C114.473 42.8622 113.618 43.3169 112.508 43.3169C111.535 43.3169 110.712 42.9713 110.039 42.2801C109.366 41.5889 109.029 40.7476 109.029 39.7563C109.029 38.765 109.366 37.9282 110.039 37.2461C110.712 36.5549 111.535 36.2093 112.508 36.2093C113.627 36.2093 114.482 36.6595 115.073 37.5599V36.3867ZM110.912 41.4888C111.376 41.9527 111.953 42.1846 112.645 42.1846C113.336 42.1846 113.913 41.9527 114.377 41.4888C114.841 41.025 115.073 40.4475 115.073 39.7563C115.073 39.0742 114.841 38.5012 114.377 38.0374C113.913 37.5735 113.336 37.3416 112.645 37.3416C111.953 37.3416 111.376 37.5735 110.912 38.0374C110.448 38.5012 110.216 39.0742 110.216 39.7563C110.216 40.4475 110.448 41.025 110.912 41.4888ZM118.876 40.3429C118.995 40.9523 119.272 41.4252 119.709 41.7617C120.154 42.0982 120.7 42.2665 121.346 42.2665C122.246 42.2665 122.901 41.9345 123.31 41.2706L124.32 41.8435C123.656 42.8713 122.655 43.3851 121.318 43.3851C120.236 43.3851 119.354 43.0486 118.672 42.3756C117.999 41.6935 117.662 40.834 117.662 39.7972C117.662 38.7695 117.994 37.9146 118.658 37.2325C119.322 36.5504 120.182 36.2093 121.237 36.2093C122.237 36.2093 123.051 36.564 123.679 37.2734C124.315 37.9737 124.633 38.8195 124.633 39.8109C124.633 39.9837 124.62 40.161 124.593 40.3429H118.876ZM121.237 37.328C120.6 37.328 120.072 37.5099 119.654 37.8737C119.236 38.2284 118.977 38.7058 118.876 39.3061H123.433C123.333 38.6604 123.078 38.1693 122.669 37.8327C122.26 37.4962 121.782 37.328 121.237 37.328ZM127.185 37.5326C127.576 36.6868 128.285 36.2639 129.313 36.2639V37.5053C128.731 37.4781 128.231 37.6327 127.812 37.9692C127.394 38.3057 127.185 38.8468 127.185 39.5926V43.2078H125.998V36.3867H127.185V37.5326Z" fill="#303030"/>
<g clip-path="url(#clip2_2954_1239)">
<path d="M306.498 42.3882V44.5807H305.036V42.3882H303.574V40.1957H307.959V42.3882H306.498ZM294.804 42.3882V44.5807H293.343V42.3882H291.881V40.1957H296.266V42.3882H294.804ZM299.189 33.6183V31.4258H300.651V33.6183H302.113V35.8108H297.728V33.6183H299.189ZM299.189 37.2724H300.651V44.5807H299.189V37.2724ZM293.343 38.7341V31.4258H294.804V38.7341H293.343ZM305.036 38.7341V31.4258H306.498V38.7341H305.036Z" fill="#303030"/>
</g>
<g clip-path="url(#clip3_2954_1239)">
<path d="M61.1708 37.2724H70.0665V38.7341H61.1708L65.091 42.6543L64.0576 43.6876L58.3732 38.0032L64.0576 32.3188L65.091 33.3522L61.1708 37.2724Z" fill="#303030"/>
</g>
</g>
<g filter="url(#filter2_d_2954_1239)">
<path d="M15.3834 72.1085C15.3834 69.4177 17.5648 67.2363 20.2556 67.2363H344.744C347.435 67.2363 349.617 69.4177 349.617 72.1085V130.575C349.617 133.266 347.435 135.447 344.744 135.447H20.2556C17.5648 135.447 15.3834 133.266 15.3834 130.575V72.1085Z" fill="white"/>
<path d="M15.8706 72.1085C15.8706 69.6868 17.8339 67.7235 20.2556 67.7235H344.744C347.166 67.7235 349.129 69.6868 349.129 72.1085V130.575C349.129 132.997 347.166 134.96 344.744 134.96H20.2556C17.8339 134.96 15.8706 132.997 15.8706 130.575V72.1085Z" stroke="#F4F4F4" stroke-width="0.974441"/>
</g>
<path d="M182.013 76.0063L182.013 126.677" stroke="#F4F4F4" stroke-width="1.94888"/>
<path d="M72.1894 110.978L69.3362 115.912V119.163H67.9915V115.912L65.1383 110.978H66.6701L68.6697 114.602L70.6575 110.978H72.1894ZM74.5826 119.315C73.7251 119.315 72.9963 119.019 72.396 118.426C71.7957 117.834 71.4956 117.105 71.4956 116.24C71.4956 115.374 71.7957 114.645 72.396 114.053C72.9963 113.46 73.7251 113.164 74.5826 113.164C75.4479 113.164 76.1768 113.46 76.7693 114.053C77.3695 114.645 77.6697 115.374 77.6697 116.24C77.6697 117.105 77.3695 117.834 76.7693 118.426C76.1768 119.019 75.4479 119.315 74.5826 119.315ZM73.2847 117.561C73.6355 117.912 74.0681 118.087 74.5826 118.087C75.0971 118.087 75.5298 117.912 75.8806 117.561C76.2314 117.21 76.4068 116.77 76.4068 116.24C76.4068 115.709 76.2314 115.269 75.8806 114.918C75.5298 114.567 75.0971 114.392 74.5826 114.392C74.0681 114.392 73.6355 114.567 73.2847 114.918C72.9339 115.269 72.7585 115.709 72.7585 116.24C72.7585 116.77 72.9339 117.21 73.2847 117.561ZM82.7522 113.316H84.0151V119.163H82.7522V118.414C82.3703 119.015 81.7661 119.315 80.9398 119.315C80.2694 119.315 79.7276 119.1 79.3144 118.672C78.9012 118.243 78.6947 117.654 78.6947 116.906V113.316H79.9575V116.777C79.9575 117.214 80.0745 117.549 80.3083 117.783C80.5422 118.017 80.8618 118.134 81.2672 118.134C81.7115 118.134 82.0701 117.997 82.343 117.725C82.6158 117.444 82.7522 117.019 82.7522 116.45V113.316ZM95.1505 113.316H96.4835L94.6477 119.163H93.4082L92.1921 115.222L90.9643 119.163H89.7248L87.889 113.316H89.222L90.3563 117.35L91.584 113.316H92.7885L94.0046 117.35L95.1505 113.316ZM98.6062 112.205C98.4503 112.361 98.2632 112.439 98.045 112.439C97.8267 112.439 97.6357 112.361 97.472 112.205C97.3161 112.042 97.2381 111.851 97.2381 111.632C97.2381 111.414 97.3161 111.227 97.472 111.071C97.6279 110.907 97.8189 110.826 98.045 110.826C98.271 110.826 98.462 110.907 98.6179 111.071C98.7738 111.227 98.8518 111.414 98.8518 111.632C98.8518 111.851 98.7699 112.042 98.6062 112.205ZM97.4135 119.163V113.316H98.6764V119.163H97.4135ZM100.143 119.163V110.627H101.406V119.163H100.143ZM102.872 119.163V110.627H104.135V119.163H102.872ZM113.178 113.316H114.418V118.894C114.418 119.783 114.126 120.465 113.541 120.94C112.956 121.416 112.247 121.654 111.413 121.654C110.064 121.654 109.14 121.182 108.641 120.239L109.729 119.607C110.033 120.207 110.602 120.508 111.436 120.508C111.982 120.508 112.407 120.363 112.711 120.075C113.022 119.794 113.178 119.401 113.178 118.894V118.181C112.703 118.859 112.025 119.198 111.144 119.198C110.317 119.198 109.62 118.906 109.051 118.321C108.482 117.728 108.197 117.015 108.197 116.181C108.197 115.347 108.482 114.638 109.051 114.053C109.62 113.46 110.317 113.164 111.144 113.164C112.025 113.164 112.703 113.503 113.178 114.181V113.316ZM109.986 117.491C110.345 117.841 110.789 118.017 111.319 118.017C111.849 118.017 112.29 117.841 112.64 117.491C112.999 117.14 113.178 116.703 113.178 116.181C113.178 115.659 112.999 115.222 112.64 114.871C112.29 114.521 111.849 114.345 111.319 114.345C110.789 114.345 110.345 114.521 109.986 114.871C109.635 115.222 109.46 115.659 109.46 116.181C109.46 116.703 109.635 117.14 109.986 117.491ZM117.083 112.205C116.927 112.361 116.74 112.439 116.521 112.439C116.303 112.439 116.112 112.361 115.948 112.205C115.792 112.042 115.714 111.851 115.714 111.632C115.714 111.414 115.792 111.227 115.948 111.071C116.104 110.907 116.295 110.826 116.521 110.826C116.747 110.826 116.938 110.907 117.094 111.071C117.25 111.227 117.328 111.414 117.328 111.632C117.328 111.851 117.246 112.042 117.083 112.205ZM115.89 119.163V113.316H117.153V119.163H115.89ZM122.583 113.316H123.963L121.683 119.163H120.221L117.941 113.316H119.321L120.958 117.76L122.583 113.316ZM125.528 116.777C125.622 117.222 125.836 117.565 126.171 117.806C126.506 118.04 126.916 118.157 127.399 118.157C128.069 118.157 128.572 117.916 128.907 117.432L129.948 118.04C129.371 118.89 128.518 119.315 127.387 119.315C126.436 119.315 125.668 119.026 125.084 118.45C124.499 117.865 124.207 117.128 124.207 116.24C124.207 115.366 124.495 114.638 125.072 114.053C125.649 113.46 126.39 113.164 127.294 113.164C128.151 113.164 128.853 113.464 129.399 114.065C129.952 114.665 130.229 115.394 130.229 116.251C130.229 116.384 130.213 116.559 130.182 116.777H125.528ZM125.516 115.748H128.954C128.869 115.273 128.67 114.914 128.358 114.673C128.054 114.431 127.695 114.31 127.282 114.31C126.814 114.31 126.425 114.439 126.113 114.696C125.801 114.953 125.602 115.304 125.516 115.748Z" fill="#959595"/>
<path d="M241.742 110.978L238.889 115.912V119.163H237.544V115.912L234.691 110.978H236.223L238.222 114.602L240.21 110.978H241.742ZM244.135 119.315C243.278 119.315 242.549 119.019 241.949 118.426C241.348 117.834 241.048 117.105 241.048 116.24C241.048 115.374 241.348 114.645 241.949 114.053C242.549 113.46 243.278 113.164 244.135 113.164C245.001 113.164 245.73 113.46 246.322 114.053C246.922 114.645 247.222 115.374 247.222 116.24C247.222 117.105 246.922 117.834 246.322 118.426C245.73 119.019 245.001 119.315 244.135 119.315ZM242.837 117.561C243.188 117.912 243.621 118.087 244.135 118.087C244.65 118.087 245.083 117.912 245.433 117.561C245.784 117.21 245.96 116.77 245.96 116.24C245.96 115.709 245.784 115.269 245.433 114.918C245.083 114.567 244.65 114.392 244.135 114.392C243.621 114.392 243.188 114.567 242.837 114.918C242.487 115.269 242.311 115.709 242.311 116.24C242.311 116.77 242.487 117.21 242.837 117.561ZM252.305 113.316H253.568V119.163H252.305V118.414C251.923 119.015 251.319 119.315 250.493 119.315C249.822 119.315 249.28 119.1 248.867 118.672C248.454 118.243 248.247 117.654 248.247 116.906V113.316H249.51V116.777C249.51 117.214 249.627 117.549 249.861 117.783C250.095 118.017 250.415 118.134 250.82 118.134C251.264 118.134 251.623 117.997 251.896 117.725C252.169 117.444 252.305 117.019 252.305 116.45V113.316ZM264.703 113.316H266.036L264.2 119.163H262.961L261.745 115.222L260.517 119.163H259.278L257.442 113.316H258.775L259.909 117.35L261.137 113.316H262.341L263.557 117.35L264.703 113.316ZM268.159 112.205C268.003 112.361 267.816 112.439 267.598 112.439C267.379 112.439 267.188 112.361 267.025 112.205C266.869 112.042 266.791 111.851 266.791 111.632C266.791 111.414 266.869 111.227 267.025 111.071C267.181 110.907 267.372 110.826 267.598 110.826C267.824 110.826 268.015 110.907 268.171 111.071C268.327 111.227 268.405 111.414 268.405 111.632C268.405 111.851 268.323 112.042 268.159 112.205ZM266.966 119.163V113.316H268.229V119.163H266.966ZM269.695 119.163V110.627H270.958V119.163H269.695ZM272.425 119.163V110.627H273.688V119.163H272.425ZM282.731 113.316H283.971V118.894C283.971 119.783 283.678 120.465 283.094 120.94C282.509 121.416 281.8 121.654 280.965 121.654C279.617 121.654 278.693 121.182 278.194 120.239L279.282 119.607C279.586 120.207 280.155 120.508 280.989 120.508C281.534 120.508 281.959 120.363 282.263 120.075C282.575 119.794 282.731 119.401 282.731 118.894V118.181C282.256 118.859 281.577 119.198 280.696 119.198C279.87 119.198 279.172 118.906 278.603 118.321C278.034 117.728 277.75 117.015 277.75 116.181C277.75 115.347 278.034 114.638 278.603 114.053C279.172 113.46 279.87 113.164 280.696 113.164C281.577 113.164 282.256 113.503 282.731 114.181V113.316ZM279.539 117.491C279.897 117.841 280.342 118.017 280.872 118.017C281.402 118.017 281.842 117.841 282.193 117.491C282.552 117.14 282.731 116.703 282.731 116.181C282.731 115.659 282.552 115.222 282.193 114.871C281.842 114.521 281.402 114.345 280.872 114.345C280.342 114.345 279.897 114.521 279.539 114.871C279.188 115.222 279.013 115.659 279.013 116.181C279.013 116.703 279.188 117.14 279.539 117.491ZM286.436 116.777C286.53 117.222 286.744 117.565 287.08 117.806C287.415 118.04 287.824 118.157 288.307 118.157C288.978 118.157 289.481 117.916 289.816 117.432L290.857 118.04C290.28 118.89 289.426 119.315 288.296 119.315C287.345 119.315 286.577 119.026 285.992 118.45C285.407 117.865 285.115 117.128 285.115 116.24C285.115 115.366 285.404 114.638 285.98 114.053C286.557 113.46 287.298 113.164 288.202 113.164C289.06 113.164 289.761 113.464 290.307 114.065C290.86 114.665 291.137 115.394 291.137 116.251C291.137 116.384 291.122 116.559 291.09 116.777H286.436ZM286.425 115.748H289.863C289.777 115.273 289.578 114.914 289.266 114.673C288.962 114.431 288.604 114.31 288.19 114.31C287.723 114.31 287.333 114.439 287.021 114.696C286.709 114.953 286.511 115.304 286.425 115.748ZM295.328 114.532H293.878V117.339C293.878 117.58 293.933 117.756 294.042 117.865C294.151 117.966 294.311 118.025 294.521 118.04C294.74 118.048 295.009 118.044 295.328 118.029V119.163C294.362 119.28 293.668 119.198 293.247 118.917C292.826 118.629 292.615 118.103 292.615 117.339V114.532H291.54V113.316H292.615V112.053L293.878 111.679V113.316H295.328V114.532Z" fill="#959595"/>
<path d="M67.2202 100.93L63.0106 93.5863V91.8557H64.4138C65.2401 91.8557 65.9339 91.6764 66.4952 91.3178C67.0565 90.9436 67.415 90.4291 67.571 89.7743H63.0106V88.0437H67.5476C67.4073 87.4512 67.1188 86.9601 66.6823 86.5703C66.2457 86.165 65.6377 85.9623 64.8581 85.9623H63.0106V84.2317H73.5579V85.9623H69.8862C70.4319 86.5547 70.7749 87.2485 70.9152 88.0437H73.5579V89.7743H70.962C70.8061 90.928 70.3618 91.8323 69.629 92.4871C68.8962 93.1264 67.9529 93.5629 66.7992 93.7968L71.383 100.93H67.2202ZM81.0712 84.5591H91.4783V86.8977L85.7252 100.93H82.8954L88.5549 87.1316H81.0712V84.5591ZM93.6496 98.1233L92.0125 104.204H89.9077L90.8432 98.1233H93.6496ZM101.289 90.7331C102.848 90.7331 104.165 91.2009 105.241 92.1363C106.317 93.0562 106.855 94.3347 106.855 95.9717C106.855 97.6088 106.301 98.8951 105.194 99.8305C104.087 100.766 102.731 101.234 101.125 101.234C99.831 101.234 98.685 100.937 97.6872 100.345C96.6894 99.737 95.98 98.8639 95.559 97.7257L97.8743 96.3927C98.3109 97.8738 99.3944 98.6144 101.125 98.6144C102.045 98.6144 102.778 98.3805 103.323 97.9128C103.885 97.4295 104.165 96.7825 104.165 95.9717C104.165 95.161 103.892 94.5218 103.347 94.054C102.801 93.5863 102.076 93.3524 101.172 93.3524H96.401L97.0324 84.5591H106.153V87.0848H99.5114L99.2307 90.7331H101.289ZM119.509 98.9184C118.387 100.462 116.812 101.234 114.785 101.234C112.759 101.234 111.176 100.462 110.038 98.9184C108.915 97.3749 108.354 95.3169 108.354 92.7444C108.354 90.1719 108.915 88.1138 110.038 86.5703C111.176 85.0268 112.759 84.2551 114.785 84.2551C116.812 84.2551 118.387 85.0268 119.509 86.5703C120.648 88.1138 121.217 90.1719 121.217 92.7444C121.217 95.3169 120.648 97.3749 119.509 98.9184ZM114.785 98.6144C116.001 98.6144 116.929 98.1077 117.568 97.0943C118.208 96.0809 118.527 94.6309 118.527 92.7444C118.527 90.8579 118.208 89.4079 117.568 88.3945C116.929 87.3811 116.001 86.8744 114.785 86.8744C113.585 86.8744 112.657 87.3811 112.002 88.3945C111.363 89.4079 111.044 90.8579 111.044 92.7444C111.044 94.6309 111.363 96.0809 112.002 97.0943C112.657 98.1077 113.585 98.6144 114.785 98.6144ZM134.24 98.9184C133.118 100.462 131.543 101.234 129.516 101.234C127.489 101.234 125.907 100.462 124.769 98.9184C123.646 97.3749 123.085 95.3169 123.085 92.7444C123.085 90.1719 123.646 88.1138 124.769 86.5703C125.907 85.0268 127.489 84.2551 129.516 84.2551C131.543 84.2551 133.118 85.0268 134.24 86.5703C135.378 88.1138 135.947 90.1719 135.947 92.7444C135.947 95.3169 135.378 97.3749 134.24 98.9184ZM129.516 98.6144C130.732 98.6144 131.66 98.1077 132.299 97.0943C132.938 96.0809 133.258 94.6309 133.258 92.7444C133.258 90.8579 132.938 89.4079 132.299 88.3945C131.66 87.3811 130.732 86.8744 129.516 86.8744C128.316 86.8744 127.388 87.3811 126.733 88.3945C126.094 89.4079 125.774 90.8579 125.774 92.7444C125.774 94.6309 126.094 96.0809 126.733 97.0943C127.388 98.1077 128.316 98.6144 129.516 98.6144Z" fill="#069E31"/>
<path d="M235.802 100.93L231.593 93.5863V91.8557H232.996C233.822 91.8557 234.516 91.6764 235.077 91.3178C235.639 90.9436 235.997 90.4291 236.153 89.7743H231.593V88.0437H236.13C235.989 87.4512 235.701 86.9601 235.264 86.5703C234.828 86.165 234.22 85.9623 233.44 85.9623H231.593V84.2317H242.14V85.9623H238.468C239.014 86.5547 239.357 87.2485 239.497 88.0437H242.14V89.7743H239.544C239.388 90.928 238.944 91.8323 238.211 92.4871C237.478 93.1264 236.535 93.5629 235.381 93.7968L239.965 100.93H235.802ZM249.653 84.5591H260.06V86.8977L254.307 100.93H251.477L257.137 87.1316H249.653V84.5591ZM262.232 98.1233L260.595 104.204H258.49L259.425 98.1233H262.232ZM273.332 92.417C274.938 93.3057 275.741 94.6309 275.741 96.3927C275.741 97.8894 275.219 99.0744 274.174 99.9475C273.129 100.805 271.742 101.234 270.011 101.234C268.281 101.234 266.885 100.805 265.825 99.9475C264.78 99.0744 264.258 97.8894 264.258 96.3927C264.258 95.5508 264.469 94.7868 264.889 94.1008C265.31 93.3992 265.903 92.8379 266.667 92.417C265.435 91.6062 264.819 90.4525 264.819 88.9558C264.819 87.459 265.318 86.3053 266.316 85.4945C267.314 84.6682 268.546 84.2551 270.011 84.2551C271.461 84.2551 272.685 84.6682 273.683 85.4945C274.696 86.3053 275.203 87.459 275.203 88.9558C275.203 90.4525 274.579 91.6062 273.332 92.417ZM270.011 86.8042C269.278 86.8042 268.678 86.9991 268.21 87.3889C267.743 87.7786 267.509 88.3399 267.509 89.0727C267.509 89.7743 267.743 90.3278 268.21 90.7331C268.694 91.1385 269.294 91.3412 270.011 91.3412C270.713 91.3412 271.305 91.1385 271.789 90.7331C272.272 90.3278 272.513 89.7743 272.513 89.0727C272.513 88.3399 272.272 87.7786 271.789 87.3889C271.321 86.9991 270.728 86.8042 270.011 86.8042ZM270.011 98.6846C270.915 98.6846 271.648 98.4663 272.209 98.0298C272.771 97.5776 273.051 96.9462 273.051 96.1354C273.051 95.3247 272.771 94.7011 272.209 94.2645C271.648 93.8124 270.915 93.5863 270.011 93.5863C269.091 93.5863 268.351 93.8124 267.789 94.2645C267.228 94.7011 266.947 95.3247 266.947 96.1354C266.947 96.9462 267.228 97.5776 267.789 98.0298C268.351 98.4663 269.091 98.6846 270.011 98.6846ZM288.71 89.8444C288.71 91.0917 288.382 92.1909 287.728 93.142L282.559 100.93H279.472L283.214 95.4338H282.933C281.234 95.4338 279.838 94.9193 278.747 93.8903C277.671 92.8457 277.133 91.4971 277.133 89.8444C277.133 88.1918 277.671 86.851 278.747 85.822C279.838 84.7774 281.234 84.2551 282.933 84.2551C284.633 84.2551 286.02 84.7774 287.096 85.822C288.172 86.851 288.71 88.1918 288.71 89.8444ZM279.823 89.8444C279.823 90.7487 280.111 91.4815 280.688 92.0428C281.281 92.6041 282.029 92.8847 282.933 92.8847C283.838 92.8847 284.578 92.6119 285.155 92.0662C285.732 91.5049 286.02 90.7643 286.02 89.8444C286.02 88.9246 285.732 88.1918 285.155 87.6461C284.578 87.0848 283.838 86.8042 282.933 86.8042C282.029 86.8042 281.281 87.0848 280.688 87.6461C280.111 88.1918 279.823 88.9246 279.823 89.8444ZM289.903 100.93V98.8249L295.61 93.0016C296.997 91.614 297.691 90.4135 297.691 89.4001C297.691 88.605 297.449 87.9891 296.966 87.5526C296.498 87.1004 295.898 86.8744 295.165 86.8744C293.793 86.8744 292.78 87.5526 292.125 88.909L289.857 87.5759C290.371 86.4846 291.096 85.6582 292.032 85.097C292.967 84.5357 294.004 84.2551 295.142 84.2551C296.576 84.2551 297.808 84.7072 298.837 85.6115C299.866 86.5158 300.381 87.7475 300.381 89.3066C300.381 90.9748 299.453 92.7522 297.598 94.6387L293.903 98.3338H300.685V100.93H289.903Z" fill="#ED3338"/>
<defs>
<filter id="filter0_d_2954_1239" x="48.3241" y="136.711" width="271.275" height="53.8186" filterUnits="userSpaceOnUse" color-interpolation-filters="sRGB">
<feFlood flood-opacity="0" result="BackgroundImageFix"/>
<feColorMatrix in="SourceAlpha" type="matrix" values="0 0 0 0 0 0 0 0 0 0 0 0 0 0 0 0 0 0 127 0" result="hardAlpha"/>
<feOffset dy="1.45456"/>
<feGaussianBlur stdDeviation="5.4546"/>
<feColorMatrix type="matrix" values="0 0 0 0 0 0 0 0 0 0 0 0 0 0 0 0 0 0 0.05 0"/>
<feBlend mode="normal" in2="BackgroundImageFix" result="effect1_dropShadow_2954_1239"/>
<feBlend mode="normal" in="SourceGraphic" in2="effect1_dropShadow_2954_1239" result="shape"/>
</filter>
<filter id="filter1_d_2954_1239" x="32.5726" y="-1.79829" width="299.855" height="95.2223" filterUnits="userSpaceOnUse" color-interpolation-filters="sRGB">
<feFlood flood-opacity="0" result="BackgroundImageFix"/>
<feColorMatrix in="SourceAlpha" type="matrix" values="0 0 0 0 0 0 0 0 0 0 0 0 0 0 0 0 0 0 127 0" result="hardAlpha"/>
<feOffset dy="1.47595"/>
<feGaussianBlur stdDeviation="5.53482"/>
<feColorMatrix type="matrix" values="0 0 0 0 0 0 0 0 0 0 0 0 0 0 0 0 0 0 0.05 0"/>
<feBlend mode="normal" in2="BackgroundImageFix" result="effect1_dropShadow_2954_1239"/>
<feBlend mode="normal" in="SourceGraphic" in2="effect1_dropShadow_2954_1239" result="shape"/>
</filter>
<filter id="filter2_d_2954_1239" x="0.766809" y="54.5686" width="363.467" height="97.4442" filterUnits="userSpaceOnUse" color-interpolation-filters="sRGB">
<feFlood flood-opacity="0" result="BackgroundImageFix"/>
<feColorMatrix in="SourceAlpha" type="matrix" values="0 0 0 0 0 0 0 0 0 0 0 0 0 0 0 0 0 0 127 0" result="hardAlpha"/>
<feOffset dy="1.94888"/>
<feGaussianBlur stdDeviation="7.30831"/>
<feColorMatrix type="matrix" values="0 0 0 0 0 0 0 0 0 0 0 0 0 0 0 0 0 0 0.05 0"/>
<feBlend mode="normal" in2="BackgroundImageFix" result="effect1_dropShadow_2954_1239"/>
<feBlend mode="normal" in="SourceGraphic" in2="effect1_dropShadow_2954_1239" result="shape"/>
</filter>
<linearGradient id="paint0_linear_2954_1239" x1="182.013" y1="3.20378" x2="182.013" y2="305" gradientUnits="userSpaceOnUse">
<stop offset="0.508831" stop-color="#DEDEDE"/>
<stop offset="1" stop-color="#DEDEDE" stop-opacity="0.06"/>
</linearGradient>
<linearGradient id="paint1_linear_2954_1239" x1="182.013" y1="7.79541" x2="182.013" y2="280.639" gradientUnits="userSpaceOnUse">
<stop offset="0.823604" stop-color="#FCFDFF"/>
<stop offset="1" stop-color="#FCFDFF" stop-opacity="0"/>
</linearGradient>
<clipPath id="clip0_2954_1239">
<path d="M43.6422 14.6165C43.6422 10.8493 46.6961 7.79541 50.4633 7.79541H313.562C317.33 7.79541 320.383 10.8493 320.383 14.6165V280.639H43.6422V14.6165Z" fill="white"/>
</clipPath>
<clipPath id="clip1_2954_1239">
<rect width="17.4547" height="17.4547" fill="white" transform="translate(67.2334 153.439)"/>
</clipPath>
<clipPath id="clip2_2954_1239">
<rect width="17.5399" height="17.5399" fill="white" transform="translate(291.15 29.2332)"/>
</clipPath>
<clipPath id="clip3_2954_1239">
<rect width="17.5399" height="17.5399" fill="white" transform="translate(55.45 29.2332)"/>
</clipPath>
</defs>
</svg>
