<svg width="120" height="120" viewBox="0 0 120 120" fill="none" xmlns="http://www.w3.org/2000/svg">
<g style="mix-blend-mode:multiply" opacity="0.6">
<path d="M43.4795 95.8909C43.4795 99.6279 59.0013 102.68 78.1459 102.68C97.2904 102.68 112.812 99.6466 112.812 95.8909C112.812 92.1353 97.2904 89.1052 78.1301 89.1052C58.9698 89.1052 43.4795 92.1446 43.4795 95.8909Z" fill="#CCCCCC"/>
</g>
<path d="M20.1481 73.3292C20.1481 73.3292 26.2049 43.0255 48.9847 29.6348H65.2664C88.0495 43.0255 94.1031 73.3292 94.1031 73.3292C100.765 108.566 59.3705 104.078 59.3705 104.078H54.8807C54.8807 104.078 13.486 108.566 20.1481 73.3292Z" fill="#E8C47B"/>
<path d="M20.1476 73.3291C20.1476 73.3291 26.2044 43.0255 48.9843 29.6348H58.0331C42.5586 43.094 38.2107 64.8245 38.2107 64.8245C32.1287 97.0183 69.9354 92.9202 69.9354 92.9202H74.0342C74.0342 92.9202 83.8903 93.9852 92.7311 90.7403C85.1231 106.859 59.3668 104.072 59.3668 104.072H54.8771C54.8771 104.072 13.4855 108.566 20.1476 73.3291Z" fill="#DAB873"/>
<path d="M81.7908 9.93471C82.6358 8.83854 83.9695 6.47803 82.5191 5.38185C80.6274 3.95558 76.929 5.46905 75.0057 6.00468C72.4834 6.69602 69.7151 7.31573 66.9531 7.03234C64.2574 6.75518 61.1896 5.27597 58.7997 4.31682C56.4098 3.35766 53.8275 1.59818 50.9331 2.47948C47.9 3.41372 46.7082 6.02336 43.2085 6.35035C37.0634 6.92958 33.4344 1.47984 27.6677 2.06219C24.6724 2.3736 25.0161 4.20782 26.6966 5.48773L48.9846 29.6534H65.2663L81.7908 9.93471Z" fill="#E8C47B"/>
<g style="mix-blend-mode:multiply" opacity="0.6">
<path d="M36.4832 113.224C43.9745 113.224 50.0408 110.917 50.0408 108.07C50.0408 105.224 43.9682 102.919 36.4832 102.919C28.9982 102.919 22.9256 105.227 22.9256 108.07C22.9256 110.913 28.9919 113.224 36.4832 113.224Z" fill="#CCCCCC"/>
</g>
<g style="mix-blend-mode:multiply" opacity="0.6">
<path d="M22.2508 97.529C29.739 97.529 35.8083 95.2215 35.8083 92.3751C35.8083 89.5288 29.7358 87.2244 22.2508 87.2244C14.7657 87.2244 8.69321 89.5319 8.69321 92.3751C8.69321 95.2183 14.7594 97.529 22.2508 97.529Z" fill="#CCCCCC"/>
</g>
<g style="mix-blend-mode:multiply" opacity="0.6">
<path d="M23.9094 107.678C31.3945 107.429 37.5427 109.531 37.6404 112.374C37.7382 115.217 31.7476 117.727 24.2594 117.979C16.7712 118.232 10.6262 116.126 10.5316 113.283C10.437 110.44 16.4307 107.93 23.9094 107.678Z" fill="#CCCCCC"/>
</g>
<g style="mix-blend-mode:multiply" opacity="0.6">
<path d="M62.2588 99.1609C54.7737 98.9087 48.6255 101.011 48.5278 103.857C48.43 106.703 54.4206 109.207 61.9057 109.462C69.3907 109.718 75.5389 107.61 75.6366 104.766C75.7344 101.923 69.7438 99.41 62.2588 99.1609Z" fill="#CCCCCC"/>
</g>
<path d="M68.2205 100.677C68.2205 103.52 62.1479 105.828 54.6629 105.828C47.1778 105.828 41.1053 103.52 41.1053 100.677V98.2419H68.2205V100.677Z" fill="#FF931E"/>
<path d="M55.9492 99.4941V105.803C55.5236 105.819 55.0916 105.828 54.6565 105.828V99.4941H55.9492Z" fill="#D17918"/>
<path d="M58.5627 99.4941V105.61C57.8628 105.691 57.1376 105.75 56.3935 105.785V99.4941H58.5627Z" fill="#D17918"/>
<path d="M59.0991 105.545V98.2546H68.2205V100.677C68.2205 102.932 64.4086 104.844 59.0991 105.545Z" fill="#D17918"/>
<path d="M49.8264 99.4941V105.492L49.385 105.423V99.5066L49.8264 99.4941Z" fill="#D17918"/>
<path d="M51.5129 105.688L51.0715 105.645V99.4941H51.5129V105.688Z" fill="#D17918"/>
<path d="M53.635 99.4941V105.813L53.0044 105.791V99.4941H53.635Z" fill="#D17918"/>
<path d="M54.6563 103.384C62.1476 103.384 68.2139 101.076 68.2139 98.2297C68.2139 95.3834 62.1476 93.1069 54.6563 93.1069C47.1649 93.1069 41.0987 95.4145 41.0987 98.2577C41.0987 101.101 47.1681 103.384 54.6563 103.384Z" fill="#FF931E"/>
<path style="mix-blend-mode:multiply" opacity="0.4" d="M47.0136 102.499C47.3982 102.499 47.7861 102.521 48.1802 102.521C55.6684 102.521 61.7378 100.214 61.7378 97.3672C61.7378 95.5984 59.392 94.0413 55.8166 93.1133C62.753 93.3375 68.2139 95.5485 68.2139 98.2423C68.2139 101.089 62.1413 103.396 54.6563 103.396C52.0807 103.416 49.5128 103.114 47.0136 102.499V102.499Z" fill="url(#paint0_linear_3480_12829)"/>
<path d="M41.1053 98.4008C41.3292 95.6292 47.3071 93.4182 54.6629 93.4182C62.0187 93.4182 67.9934 95.6386 68.2205 98.4008C67.9998 101.169 62.0187 103.383 54.6629 103.383C47.3071 103.383 41.3386 101.172 41.1053 98.4008ZM54.6629 102.761C60.7512 102.761 65.6981 100.892 65.6981 98.5659C65.6981 96.2396 60.7449 94.3711 54.6629 94.3711C48.5809 94.3711 43.6277 96.2396 43.6277 98.5659C43.6277 100.892 48.5714 102.761 54.6566 102.761H54.6629Z" fill="#D17918"/>
<path d="M55.8863 97.5291L61.1328 99.0238V100.058L55.7728 98.4228C55.098 98.9112 54.3177 99.2384 53.4933 99.3789L53.2505 99.4256V100.36H51.302V99.6467C50.8795 99.6653 50.4822 99.6653 50.1386 99.6467V100.344H48.1932V97.5726H50.1386V98.9117C50.4539 98.9117 50.87 98.9117 51.302 98.8962V97.5726H53.2505V98.5069C53.695 98.3558 54.0859 98.0811 54.3761 97.7159L55.8863 97.5291Z" fill="#D17918"/>
<path d="M43.6185 98.2421C43.6185 100.556 48.5717 102.437 54.6537 102.437C60.7357 102.437 65.689 100.568 65.689 98.2421C65.689 95.9158 60.7357 94.0505 54.6537 94.0505C48.5717 94.0505 43.6185 95.9189 43.6185 98.2421ZM41.0962 98.2421C41.0962 95.3989 47.1687 93.0913 54.6537 93.0913C62.1388 93.0913 68.2113 95.3989 68.2113 98.2421C68.2113 101.085 62.1482 103.383 54.6569 103.383C47.1655 103.383 41.0993 101.076 41.0993 98.2296L41.0962 98.2421Z" fill="#FFC022"/>
<path d="M64.2383 98.2423C64.2383 96.2368 59.9408 94.605 54.6565 94.605C49.3722 94.605 45.078 96.2368 45.078 98.2423C45.078 100.248 49.3754 101.883 54.6565 101.883C59.9377 101.883 64.2383 100.251 64.2383 98.2423ZM45.4973 98.2423C45.4973 96.324 49.5961 94.7638 54.6565 94.7638C59.717 94.7638 63.8 96.3209 63.8 98.2423C63.8 100.164 59.7012 101.724 54.6565 101.724C49.6119 101.724 45.4973 100.161 45.4973 98.2423Z" fill="#FFC022"/>
<path d="M55.8863 96.844L61.1328 98.3357V99.3696L55.7728 97.7346C55.0973 98.2218 54.3173 98.5489 53.4933 98.6907L53.2505 98.7374V99.6716H51.302V98.9647C50.8795 98.9803 50.4822 98.9834 50.1386 98.9647V99.6467H48.1932V96.8782H50.1386V98.2142C50.5264 98.2286 50.9147 98.2234 51.302 98.1986V96.8782H53.2505V97.8125C53.6944 97.6603 54.085 97.3858 54.3761 97.0215L55.8863 96.844Z" fill="#FFC022"/>
<path d="M68.2205 95.5266C68.2205 98.3698 62.1479 100.677 54.6629 100.677C47.1778 100.677 41.1053 98.3698 41.1053 95.5266V93.1069H68.2205V95.5266Z" fill="#FF931E"/>
<path d="M55.9492 94.3525V100.662C55.5236 100.662 55.0916 100.687 54.6565 100.687V94.3525H55.9492Z" fill="#D17918"/>
<path d="M58.5627 94.3525V100.469C57.8628 100.55 57.1376 100.606 56.3935 100.643V94.3525H58.5627Z" fill="#D17918"/>
<path d="M59.0991 100.394V93.1069H68.2205V95.5329C68.2205 97.7781 64.4086 99.6933 59.0991 100.394Z" fill="#D17918"/>
<path d="M49.8264 94.3525V100.347C49.6782 100.325 49.53 100.307 49.385 100.282V94.3525H49.8264Z" fill="#D17918"/>
<path d="M51.5129 100.537L51.0715 100.494V94.3525H51.5129V100.537Z" fill="#D17918"/>
<path d="M53.635 94.3525V100.671L53.0044 100.646V94.3525H53.635Z" fill="#D17918"/>
<path d="M54.6563 98.242C62.1476 98.242 68.2139 95.9375 68.2139 93.0912C68.2139 90.2449 62.1413 87.9404 54.6563 87.9404C47.1712 87.9404 41.0987 90.2449 41.0987 93.0912C41.0987 95.9375 47.1681 98.242 54.6563 98.242Z" fill="#FF931E"/>
<path style="mix-blend-mode:multiply" opacity="0.4" d="M47.0136 97.3486C47.3982 97.3486 47.7861 97.3673 48.1802 97.3673C55.6684 97.3673 61.7378 95.0628 61.7378 92.2165C61.7378 90.4477 59.392 88.8875 55.8166 87.9595C62.753 88.1837 68.2139 90.3947 68.2139 93.0916C68.2139 95.9379 62.1413 98.2423 54.6563 98.2423C52.0808 98.2628 49.513 97.9626 47.0136 97.3486V97.3486Z" fill="url(#paint1_linear_3480_12829)"/>
<path d="M41.1053 93.2502C41.3292 90.4817 47.3071 88.2676 54.6629 88.2676C62.0187 88.2676 67.9934 90.4911 68.2205 93.2502C67.9998 96.0218 62.0187 98.2328 54.6629 98.2328C47.3071 98.2328 41.3386 96.0218 41.1053 93.2502ZM54.6629 97.61C60.7512 97.61 65.6981 95.7415 65.6981 93.4184C65.6981 91.0952 60.7449 89.2236 54.6629 89.2236C48.5809 89.2236 43.6277 91.0921 43.6277 93.4184C43.6277 95.7446 48.5714 97.6038 54.6566 97.6038L54.6629 97.61Z" fill="#D17918"/>
<path d="M55.8863 92.3752L61.1328 93.8669V94.9008L55.7728 93.2659C55.0973 93.7531 54.3173 94.0802 53.4933 94.2219L53.2505 94.2686V95.2029H51.302V94.4929C50.8795 94.5115 50.4822 94.5115 50.1386 94.4929V95.1904H48.1932V92.4188H50.1386V93.7548C50.5261 93.7744 50.9144 93.7744 51.302 93.7548V92.422H53.2505V93.3562C53.695 93.2051 54.0859 92.9304 54.3761 92.5652L55.8863 92.3752Z" fill="#D17918"/>
<path d="M43.6185 93.1071C43.6185 95.4209 48.5717 97.3018 54.6537 97.3018C60.7357 97.3018 65.689 95.4333 65.689 93.1071C65.689 90.7808 60.7357 88.9123 54.6537 88.9123C48.5717 88.9123 43.6185 90.7808 43.6185 93.1071ZM41.0962 93.1071C41.0962 90.2608 47.1687 87.9563 54.6537 87.9563C62.1388 87.9563 68.2113 90.2608 68.2113 93.1071C68.2113 95.9534 62.1388 98.2579 54.6537 98.2579C47.1687 98.2579 41.0962 95.9534 41.0962 93.1071Z" fill="#FFC022"/>
<path d="M64.2383 93.107C64.2383 91.0984 59.9408 89.4666 54.6565 89.4666C49.3722 89.4666 45.078 91.0984 45.078 93.107C45.078 95.1156 49.3754 96.7474 54.6565 96.7474C59.9377 96.7474 64.2383 95.0969 64.2383 93.107ZM45.4973 93.107C45.4973 91.1887 49.5961 89.6285 54.6565 89.6285C59.717 89.6285 63.8 91.1856 63.8 93.107C63.8 95.0284 59.7012 96.5855 54.6565 96.5855C49.6119 96.5855 45.4973 95.0097 45.4973 93.107Z" fill="#FFC022"/>
<path d="M55.8863 91.6836L61.1328 93.1722V94.2092L55.7728 92.5711C55.098 93.0595 54.3177 93.3867 53.4933 93.5272L53.2505 93.577V94.5112H51.302V93.8012C50.8795 93.8199 50.4822 93.823 50.1386 93.8012V94.4988H48.1932V91.7272H50.1386V93.0663C50.4539 93.0663 50.87 93.0663 51.302 93.0507V91.7272H53.2505V92.6614C53.6956 92.5115 54.0867 92.2366 54.3761 91.8704L55.8863 91.6836Z" fill="#FFC022"/>
<path d="M68.2205 90.3726C68.2205 93.2189 62.1479 95.5233 54.6629 95.5233C47.1778 95.5233 41.1053 93.2189 41.1053 90.3726V87.9404H68.2205V90.3726Z" fill="#FF931E"/>
<path d="M55.9492 89.1895V95.5018C55.5236 95.5174 55.0916 95.5236 54.6565 95.5236V89.1895H55.9492Z" fill="#D17918"/>
<path d="M58.5627 89.1895V95.3056C57.8628 95.3866 57.1376 95.4457 56.3935 95.48V89.1895H58.5627Z" fill="#D17918"/>
<path d="M59.0991 95.2404V87.9502H68.2205V90.373C68.2205 92.6276 64.4086 94.5428 59.0991 95.2404Z" fill="#D17918"/>
<path d="M49.8264 89.1895V95.1873L49.385 95.1219V89.1895H49.8264Z" fill="#D17918"/>
<path d="M51.5129 95.3835L51.0715 95.343V89.1895H51.5129V95.3835Z" fill="#D17918"/>
<path d="M53.635 89.1895V95.508C53.4206 95.508 53.2062 95.5081 53.0044 95.4863V89.1895H53.635Z" fill="#D17918"/>
<path d="M54.6563 93.1069C62.1476 93.1069 68.2139 90.7993 68.2139 87.9561C68.2139 85.1129 62.1413 82.8022 54.6563 82.8022C47.1712 82.8022 41.0987 85.1098 41.0987 87.9561C41.0987 90.8024 47.1681 93.1069 54.6563 93.1069Z" fill="#FF931E"/>
<path style="mix-blend-mode:multiply" opacity="0.4" d="M47.0136 92.1941C47.3982 92.1941 47.7861 92.2159 48.1802 92.2159C55.6684 92.2159 61.7378 89.9083 61.7378 87.0651C61.7378 85.2963 59.392 83.7361 55.8166 82.8081C62.753 83.0323 68.2139 85.2434 68.2139 87.9402C68.2139 90.7834 62.1413 93.091 54.6563 93.091C52.0806 93.1121 49.5126 92.8107 47.0136 92.1941V92.1941Z" fill="url(#paint2_linear_3480_12829)"/>
<path d="M41.1053 88.0993C41.3292 85.3277 47.3071 83.1167 54.6629 83.1167C62.0187 83.1167 67.9934 85.3371 68.2205 88.0993C67.9998 90.8709 62.0187 93.0819 54.6629 93.0819C47.3071 93.0819 41.3386 90.8709 41.1053 88.0993ZM54.6629 92.4591C60.7512 92.4591 65.6981 90.5906 65.6981 88.2644C65.6981 85.9381 60.7449 84.0727 54.6629 84.0727C48.5809 84.0727 43.6277 85.9412 43.6277 88.2644C43.6277 90.5875 48.5714 92.4529 54.6566 92.4529L54.6629 92.4591Z" fill="#D17918"/>
<path d="M55.8863 89.3606L61.1328 87.872V86.835L55.7728 88.4699C55.0973 87.9828 54.3173 87.6556 53.4933 87.5139L53.2505 87.4672V86.533H51.302V87.243C50.8795 87.2243 50.4822 87.2212 50.1386 87.2274V86.533H48.1932V89.3045H50.1386V87.9655C50.5264 87.951 50.9147 87.9562 51.302 87.981V89.3045H53.2505V88.3703C53.6944 88.5225 54.085 88.7969 54.3761 89.1613L55.8863 89.3606Z" fill="#D17918"/>
<path d="M43.6185 87.9405C43.6185 90.2512 48.5717 92.1321 54.6537 92.1321C60.7357 92.1321 65.689 90.2637 65.689 87.9405C65.689 85.6174 60.7357 83.7458 54.6537 83.7458C48.5717 83.7458 43.6185 85.6143 43.6185 87.9405ZM41.0962 87.9405C41.0962 85.0942 47.1687 82.7866 54.6537 82.7866C62.1388 82.7866 68.2113 85.0942 68.2113 87.9405C68.2113 90.7868 62.1482 93.1069 54.6569 93.1069C47.1655 93.1069 41.0993 90.7993 41.0993 87.9561L41.0962 87.9405Z" fill="#FFC022"/>
<path d="M64.2383 87.9407C64.2383 85.9321 59.9408 84.3003 54.6565 84.3003C49.3722 84.3003 45.078 85.9321 45.078 87.9407C45.078 89.9493 49.3754 91.578 54.6565 91.578C59.9377 91.578 64.2383 89.9462 64.2383 87.9407ZM45.4973 87.9407C45.4973 86.0224 49.5961 84.4591 54.6565 84.4591C59.717 84.4591 63.8 86.0162 63.8 87.9407C63.8 89.8653 59.7012 91.4192 54.6565 91.4192C49.6119 91.4192 45.4973 89.859 45.4973 87.9407Z" fill="#FFC022"/>
<path d="M55.6932 88.8276L60.9397 87.3391V86.3021L55.5797 87.937C54.9042 87.4498 54.1242 87.1227 53.3002 86.981L53.0574 86.9342V86H51.1089V86.71C50.6864 86.6913 50.2891 86.6913 49.9454 86.71V86.0125H48.0001V88.7934H49.9454V87.4543C50.2607 87.4543 50.6769 87.4543 51.1089 87.473V88.7934H53.0574V87.8591C53.5019 88.0102 53.8927 88.2849 54.183 88.6501L55.6932 88.8276Z" fill="#FFC022"/>
<path d="M34.8247 90.7837C34.8247 93.63 28.7522 95.9345 21.2671 95.9345C13.7821 95.9345 7.70955 93.63 7.70955 90.7837V88.3516H34.8247V90.7837Z" fill="#FF931E"/>
<path d="M22.5535 89.6003V95.9096C22.1278 95.9252 21.699 95.9314 21.2639 95.9314V89.6003H22.5535Z" fill="#D17918"/>
<path d="M25.1704 89.6003V95.7165C24.4663 95.7975 23.7432 95.8556 23.0012 95.8909V89.6003H25.1704Z" fill="#D17918"/>
<path d="M25.7065 95.6513V88.3611H34.8247V90.7839C34.8247 93.0385 31.0128 94.9537 25.7065 95.6513Z" fill="#D17918"/>
<path d="M16.4307 89.6003V95.5982L15.9893 95.5328V89.6003H16.4307Z" fill="#D17918"/>
<path d="M18.1204 95.7944L17.679 95.7539V89.6003H18.1204V95.7944Z" fill="#D17918"/>
<path d="M20.2578 89.6003V95.9096L19.6114 95.8878V89.6003H20.2578Z" fill="#D17918"/>
<path d="M21.2642 93.5022C28.7524 93.5022 34.8218 91.1946 34.8218 88.3514C34.8218 85.5082 28.7492 83.1975 21.2642 83.1975C13.7792 83.1975 7.70662 85.5051 7.70662 88.3514C7.70662 91.1977 13.7729 93.5022 21.2642 93.5022Z" fill="#FF931E"/>
<path style="mix-blend-mode:multiply" opacity="0.4" d="M13.621 92.6057C14.0057 92.6057 14.3935 92.6275 14.7876 92.6275C22.2789 92.6275 28.3452 90.3199 28.3452 87.4767C28.3452 85.7079 25.9962 84.1477 22.424 83.2197C29.3604 83.4439 34.8181 85.655 34.8181 88.3518C34.8181 91.195 28.7456 93.5026 21.2605 93.5026C18.6859 93.5232 16.119 93.2218 13.621 92.6057Z" fill="url(#paint3_linear_3480_12829)"/>
<path d="M7.71248 88.5104C7.93318 85.7389 13.9143 83.5278 21.2701 83.5278C28.6258 83.5278 34.5975 85.7482 34.8276 88.5104C34.6038 91.282 28.6258 93.4931 21.2701 93.4931C13.9143 93.4931 7.91742 91.282 7.71248 88.5104ZM21.2701 92.8702C27.3584 92.8702 32.3053 91.0017 32.3053 88.6755C32.3053 86.3492 27.3552 84.4839 21.2701 84.4839C15.1849 84.4839 10.2348 86.3523 10.2348 88.6755C10.2348 90.9986 15.1691 92.864 21.2637 92.864L21.2701 92.8702Z" fill="#D17918"/>
<path d="M22.4935 87.6353L27.74 89.1238V90.1608L22.38 88.5259C21.703 89.0125 20.9221 89.3395 20.0973 89.4819L19.8545 89.5287V90.4629H17.9092V89.7529C17.4835 89.7716 17.0863 89.7747 16.7458 89.7529V90.4504H14.7973V87.6789H16.7458V89.0179C17.061 89.0179 17.4741 89.0179 17.9092 89.0024V87.6789H19.8545V88.6131C20.2988 88.4632 20.6897 88.1896 20.9801 87.8252L22.4935 87.6353Z" fill="#D17918"/>
<path d="M10.2224 88.3514C10.2224 90.6621 15.1756 92.543 21.2576 92.543C27.3396 92.543 32.2928 90.6745 32.2928 88.3514C32.2928 86.0283 27.3428 84.1567 21.2576 84.1567C15.1725 84.1567 10.2224 86.0251 10.2224 88.3514ZM7.70005 88.3514C7.70005 85.5051 13.7726 83.1975 21.2576 83.1975C28.7427 83.1975 34.8152 85.5051 34.8152 88.3514C34.8152 91.1977 28.7427 93.5022 21.2576 93.5022C13.7726 93.5022 7.70005 91.1946 7.70005 88.3514Z" fill="#FFC022"/>
<path d="M30.8428 88.3516C30.8428 86.343 26.5453 84.7112 21.2642 84.7112C15.983 84.7112 11.6824 86.343 11.6824 88.3516C11.6824 90.3602 15.9799 91.9889 21.2642 91.9889C26.5485 91.9889 30.8428 90.3571 30.8428 88.3516ZM12.1049 88.3516C12.1049 86.4333 16.2037 84.87 21.2642 84.87C26.3246 84.87 30.4234 86.4271 30.4234 88.3516C30.4234 90.2761 26.3246 91.8301 21.2642 91.8301C16.2037 91.8301 12.1049 90.2699 12.1049 88.3516Z" fill="#FFC022"/>
<path d="M22.4935 86.9443L27.74 88.436V89.4699L22.38 87.835C21.703 88.3215 20.9221 88.6486 20.0973 88.791C20.0185 88.8097 19.9365 88.8222 19.8545 88.8377V89.772H17.9092V89.0588C17.4835 89.0775 17.0863 89.0775 16.7458 89.0588V89.7564H14.7973V86.9848H16.7458V88.3208C17.1336 88.3352 17.5219 88.33 17.9092 88.3052V86.9848H19.8545V87.9191C20.2985 87.7669 20.689 87.4924 20.9801 87.1281L22.4935 86.9443Z" fill="#FFC022"/>
<path d="M34.8247 85.6328C34.8247 88.476 28.7522 90.7835 21.2671 90.7835C13.7821 90.7835 7.70955 88.476 7.70955 85.6328V83.1975H34.8247V85.6328Z" fill="#FF931E"/>
<path d="M22.5535 84.4495V90.7587C22.1278 90.7743 21.699 90.7836 21.2639 90.7836V84.4495H22.5535Z" fill="#D17918"/>
<path d="M25.1704 84.4495V90.5656C24.4663 90.6466 23.7432 90.7047 23.0012 90.74V84.4495H25.1704Z" fill="#D17918"/>
<path d="M25.7065 90.5006V83.2073H34.8247V85.6332C34.8247 87.8847 31.0128 89.7999 25.7065 90.5006Z" fill="#D17918"/>
<path d="M16.4307 84.4495V90.4473L15.9893 90.3788V84.4619L16.4307 84.4495Z" fill="#D17918"/>
<path d="M18.1207 90.6435L17.6919 90.6154V84.4495H18.1333L18.1207 90.6435Z" fill="#D17918"/>
<path d="M20.2578 84.4495V90.768C20.0403 90.768 19.8258 90.768 19.6114 90.7431V84.4495H20.2578Z" fill="#D17918"/>
<path d="M21.2642 88.3515C28.7524 88.3515 34.8218 86.044 34.8218 83.1976C34.8218 80.3513 28.7492 78.0469 21.2642 78.0469C13.7792 78.0469 7.70662 80.3544 7.70662 83.1976C7.70662 86.0408 13.7729 88.3515 21.2642 88.3515Z" fill="#FF931E"/>
<path style="mix-blend-mode:multiply" opacity="0.4" d="M13.621 87.4549C14.0057 87.4549 14.3935 87.4735 14.7876 87.4735C22.2789 87.4735 28.3452 85.1691 28.3452 82.3228C28.3452 80.5539 25.9962 78.9937 22.424 78.0688C29.3604 78.2931 34.8181 80.5041 34.8181 83.1978C34.8181 86.0441 28.7456 88.3517 21.2605 88.3517C18.686 88.3708 16.1193 88.0694 13.621 87.4549V87.4549Z" fill="url(#paint4_linear_3480_12829)"/>
<path d="M7.71248 83.3598C7.93318 80.5882 13.9143 78.3772 21.2701 78.3772C28.6258 78.3772 34.5975 80.5976 34.8276 83.3598C34.6038 86.1283 28.6258 88.3424 21.2701 88.3424C13.9143 88.3424 7.91742 86.1283 7.71248 83.3598ZM21.2701 87.7196C27.3584 87.7196 32.3053 85.8356 32.3053 83.5249C32.3053 81.2142 27.3552 79.3301 21.2701 79.3301C15.1849 79.3301 10.2348 81.1986 10.2348 83.5249C10.2348 85.8511 15.1691 87.7134 21.2637 87.7134L21.2701 87.7196Z" fill="#D17918"/>
<path d="M22.4935 82.4846L27.74 83.9732V85.0102L22.38 83.3753C21.703 83.8618 20.9221 84.1889 20.0973 84.3313C20.0185 84.35 19.9365 84.3656 19.8545 84.378V85.3123H17.9092V84.6022C17.4835 84.6209 17.0863 84.6209 16.7458 84.6022V85.2998H14.7973V82.5189H16.7458V83.8579C17.061 83.8579 17.4741 83.858 17.9092 83.8424V82.5189H19.8545V83.4531C20.299 83.302 20.6899 83.0274 20.9801 82.6621L22.4935 82.4846Z" fill="#D17918"/>
<path d="M10.2224 83.1976C10.2224 85.5114 15.1756 87.3924 21.2576 87.3924C27.3396 87.3924 32.2928 85.5239 32.2928 83.1976C32.2928 80.8714 27.3428 79.006 21.2576 79.006C15.1725 79.006 10.2224 80.8745 10.2224 83.1976ZM7.70005 83.1976C7.70005 80.3544 13.7726 78.0469 21.2576 78.0469C28.7427 78.0469 34.8152 80.3544 34.8152 83.1976C34.8152 86.0408 28.7427 88.3515 21.2576 88.3515C13.7726 88.3515 7.70005 86.044 7.70005 83.1976Z" fill="#FFC022"/>
<path d="M30.8428 83.1978C30.8428 81.1923 26.5453 79.5605 21.2642 79.5605C15.983 79.5605 11.6824 81.1923 11.6824 83.1978C11.6824 85.2033 15.9799 86.8383 21.2642 86.8383C26.5485 86.8383 30.8428 85.2065 30.8428 83.1978ZM12.1049 83.1978C12.1049 81.2795 16.2037 79.7194 21.2642 79.7194C26.3246 79.7194 30.4234 81.2764 30.4234 83.1978C30.4234 85.1193 26.3246 86.6794 21.2642 86.6794C16.2037 86.6794 12.1049 85.1161 12.1049 83.1978Z" fill="#FFC022"/>
<path d="M22.4935 81.7903L27.74 83.282V84.3158L22.38 82.6778C21.704 83.1668 20.9228 83.495 20.0973 83.637L19.8545 83.6837V84.6179H17.9092V83.9079C17.4835 83.9266 17.0863 83.9297 16.7458 83.9235V84.6179H14.7973V81.8463H16.7458V83.1854C17.1336 83.1998 17.5219 83.1946 17.9092 83.1698V81.8339H19.8545V82.7681C20.2988 82.6182 20.6897 82.3446 20.9801 81.9802L22.4935 81.7903Z" fill="#FFC022"/>
<path d="M34.8247 80.4821C34.8247 83.3253 28.7522 85.6329 21.2671 85.6329C13.7821 85.6329 7.70955 83.3253 7.70955 80.4821V78.0469H34.8247V80.4821Z" fill="#FF931E"/>
<path d="M22.5535 79.2988V85.6081C22.1278 85.6236 21.699 85.633 21.2639 85.633V79.2988H22.5535Z" fill="#D17918"/>
<path d="M25.1704 79.2988V85.415C24.4663 85.4939 23.7432 85.552 23.0012 85.5894V79.2988H25.1704Z" fill="#D17918"/>
<path d="M25.7065 85.3463V78.0562H34.8247V80.4821C34.8247 82.7336 31.0128 84.6488 25.7065 85.3463Z" fill="#D17918"/>
<path d="M16.4307 79.2988V85.2935L15.9893 85.2281V79.3113L16.4307 79.2988Z" fill="#D17918"/>
<path d="M18.1204 85.4928L17.679 85.4492V79.2988H18.1204V85.4928Z" fill="#D17918"/>
<path d="M20.2578 79.2988V85.633L19.6114 85.6081V79.2988H20.2578Z" fill="#D17918"/>
<path d="M21.2642 83.1976C28.7524 83.1976 34.8218 80.8931 34.8218 78.0468C34.8218 75.2005 28.7492 72.896 21.2642 72.896C13.7792 72.896 7.70662 75.2005 7.70662 78.0468C7.70662 80.8931 13.7729 83.1976 21.2642 83.1976Z" fill="#FF931E"/>
<path style="mix-blend-mode:multiply" opacity="0.4" d="M13.621 82.3041C14.0057 82.3041 14.3935 82.3228 14.7876 82.3228C22.2789 82.3228 28.3452 80.0152 28.3452 77.172C28.3452 75.4032 25.9962 73.843 22.424 72.915C29.3604 73.1393 34.8181 75.3503 34.8181 78.0471C34.8181 80.8934 28.7456 83.1979 21.2605 83.1979C18.6862 83.2179 16.1194 82.9176 13.621 82.3041V82.3041Z" fill="url(#paint5_linear_3480_12829)"/>
<path d="M7.71248 78.2058C7.93318 75.4342 13.9143 73.2231 21.2701 73.2231C28.6258 73.2231 34.5975 75.4435 34.8276 78.2058C34.6038 80.9773 28.6258 83.1884 21.2701 83.1884C13.9143 83.1884 7.91742 80.9773 7.71248 78.2058ZM21.2701 82.5655C27.3584 82.5655 32.3053 80.6971 32.3053 78.3739C32.3053 76.0508 27.3552 74.1792 21.2701 74.1792C15.1849 74.1792 10.2348 76.0477 10.2348 78.3739C10.2348 80.7002 15.1691 82.5593 21.2637 82.5593L21.2701 82.5655Z" fill="#D17918"/>
<path d="M22.4935 77.3308L27.74 78.8194V79.8564L22.38 78.2215C21.703 78.708 20.9221 79.035 20.0973 79.1775C20.0185 79.1962 19.9365 79.2086 19.8545 79.2242V80.1584H17.9092V79.4515C17.4835 79.4702 17.0863 79.4702 16.7458 79.4515V80.146H14.7973V77.3775H16.7458V78.7135C17.1333 78.7331 17.5216 78.7331 17.9092 78.7135V77.3931H19.8545V78.3273C20.295 78.1736 20.6821 77.8992 20.9707 77.5363L22.4935 77.3308Z" fill="#D17918"/>
<path d="M10.2224 78.0468C10.2224 80.3575 15.1756 82.2415 21.2576 82.2415C27.3396 82.2415 32.2928 80.3575 32.2928 78.0468C32.2928 75.7361 27.3428 73.852 21.2576 73.852C15.1725 73.852 10.2224 75.7205 10.2224 78.0468ZM7.70005 78.0468C7.70005 75.2005 13.7726 72.896 21.2576 72.896C28.7427 72.896 34.8152 75.2005 34.8152 78.0468C34.8152 80.8931 28.7427 83.1976 21.2576 83.1976C13.7726 83.1976 7.70005 80.8931 7.70005 78.0468Z" fill="#FFC022"/>
<path d="M30.8428 78.0469C30.8428 76.0383 26.5453 74.4065 21.2642 74.4065C15.983 74.4065 11.6824 76.0383 11.6824 78.0469C11.6824 80.0555 15.9799 81.6873 21.2642 81.6873C26.5485 81.6873 30.8428 80.0524 30.8428 78.0469ZM12.1049 78.0469C12.1049 76.1286 16.2037 74.5684 21.2642 74.5684C26.3246 74.5684 30.4234 76.1255 30.4234 78.0469C30.4234 79.9683 26.3246 81.5254 21.2642 81.5254C16.2037 81.5254 12.1049 79.9652 12.1049 78.0469Z" fill="#FFC022"/>
<path d="M22.4935 76.6394L27.74 78.128V79.1618L22.38 77.5269C21.699 78.0104 20.9149 78.3332 20.0878 78.4705L19.8451 78.5203V79.4546H17.8997V78.7445C17.4741 78.7632 17.0768 78.7663 16.7363 78.7445V79.4421H14.7878V76.6705H16.7457V78.0096C17.061 78.0096 17.4741 78.0096 17.9092 77.994V76.6705H19.8545V77.6048C20.2996 77.4548 20.6908 77.1799 20.9801 76.8138L22.4935 76.6394Z" fill="#FFC022"/>
<path d="M34.8247 75.3281C34.8247 78.1745 28.7522 80.4789 21.2671 80.4789C13.7821 80.4789 7.70955 78.1745 7.70955 75.3281V72.896H34.8247V75.3281Z" fill="#FF931E"/>
<path d="M22.5535 74.145V80.4574C22.1278 80.4729 21.699 80.4792 21.2639 80.4792V74.145H22.5535Z" fill="#D17918"/>
<path d="M25.1704 74.145V80.2612C24.4663 80.3421 23.7432 80.4003 23.0012 80.4356V74.145H25.1704Z" fill="#D17918"/>
<path d="M25.7065 80.1957V72.9055H34.8247V75.3283C34.8247 77.5829 31.0128 79.4981 25.7065 80.1957Z" fill="#D17918"/>
<path d="M16.4307 74.145V80.1428L15.9893 80.0774V74.145H16.4307Z" fill="#D17918"/>
<path d="M18.1204 80.339L17.679 80.2986V74.145H18.1204V80.339Z" fill="#D17918"/>
<path d="M20.2578 74.145V80.4636L19.6114 80.4418V74.145H20.2578Z" fill="#D17918"/>
<path d="M21.2642 78.0471C28.7524 78.0471 34.8218 75.7395 34.8218 72.8963C34.8218 70.0531 28.7492 67.7424 21.2642 67.7424C13.7792 67.7424 7.70662 70.05 7.70662 72.8963C7.70662 75.7426 13.7729 78.0471 21.2642 78.0471Z" fill="#FF931E"/>
<path style="mix-blend-mode:multiply" opacity="0.4" d="M13.621 77.1502C14.0057 77.1502 14.3935 77.172 14.7876 77.172C22.2789 77.172 28.3452 74.8644 28.3452 72.0212C28.3452 70.2524 25.9962 68.6922 22.424 67.7642C29.3604 67.9884 34.8181 70.1994 34.8181 72.8963C34.8181 75.7395 28.7456 78.047 21.2605 78.047C18.6859 78.0676 16.119 77.7663 13.621 77.1502V77.1502Z" fill="url(#paint6_linear_3480_12829)"/>
<path d="M7.71248 73.0549C7.93318 70.2833 13.9143 68.0723 21.2701 68.0723C28.6258 68.0723 34.5975 70.2926 34.8276 73.0549C34.6038 75.8265 28.6258 78.0375 21.2701 78.0375C13.9143 78.0375 7.91742 75.8265 7.71248 73.0549ZM21.2701 77.4147C27.3584 77.4147 32.3053 75.5462 32.3053 73.2199C32.3053 70.8937 27.3552 69.0283 21.2701 69.0283C15.1849 69.0283 10.2348 70.8968 10.2348 73.2199C10.2348 75.5431 15.1691 77.4084 21.2637 77.4084L21.2701 77.4147Z" fill="#D17918"/>
<path d="M22.4935 72.1799L27.74 73.6685V74.7055L22.38 73.0706C21.703 73.5571 20.9221 73.8842 20.0973 74.0266L19.8545 74.0733V75.0076H17.9092V74.2976C17.4835 74.3162 17.0863 74.3193 16.7458 74.2976V74.9951H14.7973V72.2235H16.7458V73.5626C17.061 73.5626 17.4741 73.5626 17.9092 73.547V72.2235H19.8545V73.1578C20.2988 73.0079 20.6897 72.7342 20.9801 72.3699L22.4935 72.1799Z" fill="#D17918"/>
<path d="M10.2224 72.8963C10.2224 75.207 15.1756 77.0879 21.2576 77.0879C27.3396 77.0879 32.2928 75.2195 32.2928 72.8963C32.2928 70.5732 27.3428 68.7016 21.2576 68.7016C15.1725 68.7016 10.2224 70.5701 10.2224 72.8963ZM7.70005 72.8963C7.70005 70.05 13.7726 67.7424 21.2576 67.7424C28.7427 67.7424 34.8152 70.05 34.8152 72.8963C34.8152 75.7426 28.7427 78.0471 21.2576 78.0471C13.7726 78.0471 7.70005 75.7395 7.70005 72.8963Z" fill="#FFC022"/>
<path d="M30.8428 72.896C30.8428 70.8874 26.5453 69.2556 21.2642 69.2556C15.983 69.2556 11.6824 70.8874 11.6824 72.896C11.6824 74.9046 15.9799 76.5333 21.2642 76.5333C26.5485 76.5333 30.8428 74.9015 30.8428 72.896ZM12.1049 72.896C12.1049 70.9777 16.2037 69.4144 21.2642 69.4144C26.3246 69.4144 30.4234 70.9715 30.4234 72.896C30.4234 74.8206 26.3246 76.3745 21.2642 76.3745C16.2037 76.3745 12.1049 74.8143 12.1049 72.896Z" fill="#FFC022"/>
<path d="M22.4935 71.4888L27.74 72.9773V74.0112L22.38 72.3763C21.703 72.8629 20.9221 73.1899 20.0973 73.3323C20.0185 73.351 19.9365 73.3635 19.8545 73.3791V74.3133H17.9092V73.6033C17.4835 73.622 17.0863 73.622 16.7458 73.6033V74.3008H14.7973V71.5293H16.7458V72.8652C17.1336 72.8796 17.5219 72.8744 17.9092 72.8497V71.5293H19.8545V72.4635C20.2985 72.3113 20.689 72.0369 20.9801 71.6725L22.4935 71.4888Z" fill="#FFC022"/>
<path d="M34.8247 70.1777C34.8247 73.0209 28.7522 75.3285 21.2671 75.3285C13.7821 75.3285 7.70955 73.0209 7.70955 70.1777V67.7424H34.8247V70.1777Z" fill="#FF931E"/>
<path d="M22.5535 68.9939V75.3031C22.1278 75.3187 21.699 75.328 21.2639 75.328V68.9939H22.5535Z" fill="#D17918"/>
<path d="M25.1704 68.9939V75.1101C24.4663 75.191 23.7432 75.2491 23.0012 75.2844V68.9939H25.1704Z" fill="#D17918"/>
<path d="M25.7065 75.045V67.7517H34.8247V70.1776C34.8247 72.4322 31.0128 74.3443 25.7065 75.045Z" fill="#D17918"/>
<path d="M16.4307 68.9939V74.9917L15.9893 74.9232V69.0063L16.4307 68.9939Z" fill="#D17918"/>
<path d="M18.1204 75.1879L17.679 75.1443V68.9939H18.1204V75.1879Z" fill="#D17918"/>
<path d="M20.2578 68.9939V75.3125L19.6114 75.2907V68.9939H20.2578Z" fill="#D17918"/>
<path d="M21.2642 72.8962C28.7524 72.8962 34.8218 70.5886 34.8218 67.7423C34.8218 64.896 28.7492 62.5916 21.2642 62.5916C13.7792 62.5916 7.70662 64.8991 7.70662 67.7423C7.70662 70.5855 13.7729 72.8962 21.2642 72.8962Z" fill="#FF931E"/>
<path style="mix-blend-mode:multiply" opacity="0.4" d="M13.621 71.9993C14.0057 71.9993 14.3935 72.0211 14.7876 72.0211C22.2789 72.0211 28.3452 69.7135 28.3452 66.8672C28.3452 65.0984 25.9962 63.5382 22.424 62.6133C29.3604 62.8375 34.8181 65.0485 34.8181 67.7423C34.8181 70.5886 28.7456 72.8962 21.2605 72.8962C18.686 72.9152 16.1193 72.6139 13.621 71.9993V71.9993Z" fill="url(#paint7_linear_3480_12829)"/>
<path d="M7.71248 67.9045C7.93318 65.1329 13.9143 62.9219 21.2701 62.9219C28.6258 62.9219 34.5975 65.1423 34.8276 67.9045C34.6038 70.673 28.6258 72.8871 21.2701 72.8871C13.9143 72.8871 7.91742 70.6854 7.71248 67.9045ZM21.2701 72.2643C27.3584 72.2643 32.3053 70.3802 32.3053 68.0695C32.3053 65.7589 27.3552 63.8748 21.2701 63.8748C15.1849 63.8748 10.2348 65.7433 10.2348 68.0695C10.2348 70.3958 15.1691 72.2581 21.2637 72.2581L21.2701 72.2643Z" fill="#D17918"/>
<path d="M22.4935 69.1375L27.74 67.6614V66.6275L22.38 68.2624C21.703 67.7758 20.9221 67.4488 20.0973 67.3063C20.0185 67.2877 19.9365 67.2721 19.8545 67.2596V66.3254H17.9092V67.0385C17.4835 67.0198 17.0863 67.0198 16.7458 67.0385V66.341H14.7973V69.1125H16.7458V67.7735C17.061 67.7735 17.4741 67.7735 17.9092 67.789V69.0939H19.8545V68.1596C20.299 68.3107 20.6899 68.5854 20.9801 68.9506L22.4935 69.1375Z" fill="#D17918"/>
<path d="M10.2224 67.7423C10.2224 70.0561 15.1756 71.9371 21.2576 71.9371C27.3396 71.9371 32.2928 70.0686 32.2928 67.7423C32.2928 65.4161 27.3428 63.5507 21.2576 63.5507C15.1725 63.5507 10.2224 65.4192 10.2224 67.7423ZM7.70005 67.7423C7.70005 64.8991 13.7726 62.5916 21.2576 62.5916C28.7427 62.5916 34.8152 64.8991 34.8152 67.7423C34.8152 70.5855 28.7427 72.8962 21.2576 72.8962C13.7726 72.8962 7.70005 70.5886 7.70005 67.7423Z" fill="#FFC022"/>
<path d="M30.8428 67.7423C30.8428 65.7368 26.5453 64.105 21.2642 64.105C15.983 64.105 11.6824 65.7368 11.6824 67.7423C11.6824 69.7478 15.9799 71.3827 21.2642 71.3827C26.5485 71.3827 30.8428 69.7509 30.8428 67.7423ZM12.1049 67.7423C12.1049 65.824 16.2037 64.2638 21.2642 64.2638C26.3246 64.2638 30.4234 65.8209 30.4234 67.7423C30.4234 69.6637 26.3246 71.2239 21.2642 71.2239C16.2037 71.2239 12.1049 69.6606 12.1049 67.7423Z" fill="#FFC022"/>
<path d="M22.2535 68.5L27.5 67.0083V65.9744L22.14 67.6125C21.4633 67.1145 20.6785 66.7786 19.8478 66.6315L19.6051 66.5848V65.6506H17.6597V66.3606C17.2341 66.3419 16.8368 66.3388 16.4963 66.3606V65.6661H14.5478V68.4377H16.5057V67.0986C16.8936 67.0842 17.2819 67.0894 17.6692 67.1142V68.4377H19.6145V67.5035C20.0584 67.6557 20.449 67.9301 20.7401 68.2945L22.2535 68.5Z" fill="#FFC022"/>
<path d="M47.0833 106.354C47.0833 109.198 41.0107 111.505 33.5257 111.505C26.0406 111.505 19.9681 109.198 19.9681 106.354V103.919H47.0833V106.354Z" fill="#FF931E"/>
<path d="M34.812 105.171V111.48C34.3864 111.496 33.9576 111.505 33.5224 111.505V105.171H34.812Z" fill="#D17918"/>
<path d="M37.4287 105.171V111.287C36.7256 111.368 36.0036 111.424 35.2595 111.462V105.171H37.4287Z" fill="#D17918"/>
<path d="M37.965 111.222V103.929H47.0833V106.355C47.0833 108.606 43.2714 110.521 37.965 111.222Z" fill="#D17918"/>
<path d="M28.6892 105.171V111.169L28.2478 111.104V105.187L28.6892 105.171Z" fill="#D17918"/>
<path d="M30.3794 111.365L29.938 111.322V105.171H30.3794V111.365Z" fill="#D17918"/>
<path d="M32.5105 105.171V111.48L31.8799 111.455V105.171H32.5105Z" fill="#D17918"/>
<path d="M33.5223 109.07C41.0105 109.07 47.0798 106.766 47.0798 103.919C47.0798 101.073 41.0073 98.7686 33.5223 98.7686C26.0372 98.7686 19.9647 101.073 19.9647 103.919C19.9647 106.766 26.0309 109.07 33.5223 109.07Z" fill="#FF931E"/>
<path style="mix-blend-mode:multiply" opacity="0.4" d="M25.8893 108.176C26.274 108.176 26.6618 108.195 27.0559 108.195C34.5472 108.195 40.6135 105.89 40.6135 103.044C40.6135 101.275 38.2645 99.7149 34.6923 98.7869C41.6287 99.0111 47.0864 101.222 47.0864 103.919C47.0864 106.765 41.0139 109.07 33.5288 109.07C30.9545 109.09 28.3877 108.789 25.8893 108.176V108.176Z" fill="url(#paint8_linear_3480_12829)"/>
<path d="M19.9713 104.078C20.192 101.306 26.1731 99.0955 33.5289 99.0955C40.8846 99.0955 46.8563 101.316 47.0864 104.078C46.8626 106.85 40.8846 109.061 33.5289 109.061C26.1731 109.061 20.192 106.85 19.9713 104.078ZM33.5289 108.438C39.6171 108.438 44.5641 106.569 44.5641 104.246C44.5641 101.923 39.614 100.051 33.5289 100.051C27.4437 100.051 22.4936 101.92 22.4936 104.246C22.4936 106.572 27.4342 108.432 33.5225 108.432L33.5289 108.438Z" fill="#D17918"/>
<path d="M34.7518 103.203L39.9983 104.695V105.728L34.6383 104.094C33.9612 104.58 33.1804 104.907 32.3556 105.05C32.2768 105.068 32.1948 105.081 32.1128 105.096V106.031H30.1675V105.324C29.7418 105.342 29.3446 105.342 29.004 105.324V106.018H27.0555V103.25H29.004V104.586C29.3919 104.6 29.7802 104.595 30.1675 104.57V103.25H32.1128V104.184C32.5573 104.033 32.9482 103.758 33.2384 103.393L34.7518 103.203Z" fill="#D17918"/>
<path d="M22.4809 103.919C22.4809 106.23 27.4342 108.114 33.5162 108.114C39.5981 108.114 44.5514 106.23 44.5514 103.919C44.5514 101.609 39.6013 99.7246 33.5162 99.7246C27.431 99.7246 22.4809 101.593 22.4809 103.919ZM19.9586 103.919C19.9586 101.073 26.0311 98.7686 33.5162 98.7686C41.0012 98.7686 47.0737 101.073 47.0737 103.919C47.0737 106.766 41.0012 109.07 33.5162 109.07C26.0311 109.07 19.9586 106.766 19.9586 103.919Z" fill="#FFC022"/>
<path d="M43.1008 103.919C43.1008 101.914 38.8034 100.279 33.5222 100.279C28.2411 100.279 23.9405 101.914 23.9405 103.919C23.9405 105.925 28.2379 107.56 33.5222 107.56C38.8065 107.56 43.1008 105.925 43.1008 103.919ZM24.363 103.919C24.363 102.001 28.4618 100.441 33.5065 100.441C38.5512 100.441 42.6657 101.998 42.6657 103.919C42.6657 105.841 38.5669 107.398 33.5065 107.398C28.446 107.398 24.363 105.838 24.363 103.919V103.919Z" fill="#FFC022"/>
<path d="M34.7518 102.511L39.9983 104.006V105.04L34.6383 103.405C33.962 103.893 33.1808 104.22 32.3556 104.361L32.1128 104.411V105.345H30.1675V104.629C29.7418 104.648 29.3446 104.651 29.004 104.629V105.327H27.0555V102.555H29.004V103.894C29.3193 103.894 29.7324 103.894 30.1675 103.879V102.555H32.1128V103.489C32.5579 103.339 32.9491 103.064 33.2384 102.698L34.7518 102.511Z" fill="#FFC022"/>
<path d="M47.0833 101.204C47.0833 104.05 41.0107 106.358 33.5257 106.358C26.0406 106.358 19.9681 104.05 19.9681 101.204V98.7715H47.0833V101.204Z" fill="#FF931E"/>
<path d="M34.812 100.017V106.33C34.3864 106.345 33.9576 106.355 33.5224 106.355V100.017H34.812Z" fill="#D17918"/>
<path d="M37.4287 100.017V106.133C36.7246 106.214 36.0015 106.274 35.2595 106.311V100.017H37.4287Z" fill="#D17918"/>
<path d="M37.965 106.068V98.7778H47.0833V101.204C47.0833 103.455 43.2714 105.37 37.965 106.068Z" fill="#D17918"/>
<path d="M28.6892 100.017V106.015L28.2478 105.95V100.017H28.6892Z" fill="#D17918"/>
<path d="M30.3794 106.211L29.938 106.171V100.017H30.3794V106.211Z" fill="#D17918"/>
<path d="M32.5105 100.017V106.336L31.8799 106.314V100.017H32.5105Z" fill="#D17918"/>
<path d="M33.5223 103.919C41.0105 103.919 47.0798 101.612 47.0798 98.7684C47.0798 95.9252 41.0073 93.6145 33.5223 93.6145C26.0372 93.6145 19.9647 95.9221 19.9647 98.7684C19.9647 101.615 26.0309 103.919 33.5223 103.919Z" fill="#FF931E"/>
<path style="mix-blend-mode:multiply" opacity="0.4" d="M25.8893 103.022C26.274 103.022 26.6618 103.044 27.0559 103.044C34.5472 103.044 40.6135 100.736 40.6135 97.8932C40.6135 96.1244 38.2645 94.5642 34.6923 93.6362C41.6287 93.8604 47.0864 96.0715 47.0864 98.7683C47.0864 101.612 41.0139 103.919 33.5288 103.919C30.9542 103.94 28.3873 103.638 25.8893 103.022V103.022Z" fill="url(#paint9_linear_3480_12829)"/>
<path d="M19.9713 98.9272C20.192 96.1556 26.1731 93.9446 33.5289 93.9446C40.8846 93.9446 46.8563 96.165 47.0864 98.9272C46.8626 101.699 40.8846 103.91 33.5289 103.91C26.1731 103.91 20.192 101.699 19.9713 98.9272ZM33.5289 103.287C39.6171 103.287 44.5641 101.418 44.5641 99.0922C44.5641 96.766 39.614 94.9006 33.5289 94.9006C27.4437 94.9006 22.4936 96.7691 22.4936 99.0922C22.4936 101.415 27.4342 103.281 33.5225 103.281L33.5289 103.287Z" fill="#D17918"/>
<path d="M34.7518 98.0522L39.9983 99.5408V100.581L34.6383 98.946C33.9612 99.4326 33.1804 99.7596 32.3556 99.9021L32.1128 99.9488V100.883H30.1675V100.173C29.7418 100.192 29.3446 100.195 29.004 100.189V100.883H27.0555V98.0896H29.004V99.4287C29.3919 99.4431 29.7802 99.4379 30.1675 99.4131V98.0896H32.1128V99.0239C32.5571 98.8739 32.948 98.6003 33.2384 98.236L34.7518 98.0522Z" fill="#D17918"/>
<path d="M22.4809 98.7684C22.4809 101.079 27.4342 102.96 33.5162 102.96C39.5981 102.96 44.5514 101.092 44.5514 98.7684C44.5514 96.4452 39.6013 94.5737 33.5162 94.5737C27.431 94.5737 22.4809 96.4421 22.4809 98.7684ZM19.9586 98.7684C19.9586 95.9221 26.0311 93.6145 33.5162 93.6145C41.0012 93.6145 47.0737 95.9221 47.0737 98.7684C47.0737 101.615 41.0012 103.919 33.5162 103.919C26.0311 103.919 19.9586 101.612 19.9586 98.7684Z" fill="#FFC022"/>
<path d="M43.1008 98.7686C43.1008 96.76 38.8034 95.1282 33.5222 95.1282C28.2411 95.1282 23.9405 96.76 23.9405 98.7686C23.9405 100.777 28.2379 102.406 33.5222 102.406C38.8065 102.406 43.1008 100.774 43.1008 98.7686ZM24.363 98.7686C24.363 96.8503 28.4618 95.287 33.5065 95.287C38.5512 95.287 42.6657 96.8441 42.6657 98.7686C42.6657 100.693 38.5669 102.247 33.5065 102.247C28.446 102.247 24.363 100.687 24.363 98.7686V98.7686Z" fill="#FFC022"/>
<path d="M34.7518 97.3608L39.9983 98.8494V99.8833L34.6383 98.2484C33.9612 98.7349 33.1804 99.0619 32.3556 99.2044C32.2768 99.2231 32.1948 99.2355 32.1128 99.2511V100.185H30.1675V99.4753C29.7418 99.494 29.3446 99.494 29.004 99.4753V100.173H27.0555V97.4013H29.004V98.7373C29.3916 98.7569 29.7799 98.7569 30.1675 98.7373V97.4044H32.1128V98.3387C32.5567 98.1865 32.9473 97.912 33.2384 97.5477L34.7518 97.3608Z" fill="#FFC022"/>
<path d="M47.0833 96.0498C47.0833 98.893 41.0107 101.201 33.5257 101.201C26.0406 101.201 19.9681 98.893 19.9681 96.0498V93.6145H47.0833V96.0498Z" fill="#FF931E"/>
<path d="M34.812 94.8667V101.179C34.3864 101.179 33.9576 101.201 33.5224 101.201V94.8667H34.812Z" fill="#D17918"/>
<path d="M37.4287 94.8667V100.983C36.7246 101.064 36.0015 101.122 35.2595 101.157V94.8667H37.4287Z" fill="#D17918"/>
<path d="M37.965 100.917V93.627H47.0833V96.0498C47.0833 98.3044 43.2714 100.216 37.965 100.917Z" fill="#D17918"/>
<path d="M28.6892 94.8667V100.865L28.2478 100.799V94.8667H28.6892Z" fill="#D17918"/>
<path d="M30.3794 101.061L29.938 101.017V94.8667H30.3794V101.061Z" fill="#D17918"/>
<path d="M32.5105 94.8667V101.185L31.8799 101.163V94.8667H32.5105Z" fill="#D17918"/>
<path d="M33.5223 98.7683C41.0105 98.7683 47.0798 96.4607 47.0798 93.6144C47.0798 90.7681 41.0073 88.4636 33.5223 88.4636C26.0372 88.4636 19.9647 90.7712 19.9647 93.6144C19.9647 96.4576 26.0309 98.7683 33.5223 98.7683Z" fill="#FF931E"/>
<path style="mix-blend-mode:multiply" opacity="0.4" d="M25.8893 97.8716C26.274 97.8716 26.6618 97.8934 27.0559 97.8934C34.5472 97.8934 40.6135 95.5858 40.6135 92.7395C40.6135 90.9707 38.2645 89.4105 34.6923 88.4856C41.6287 88.7098 47.0864 90.9208 47.0864 93.6146C47.0864 96.4609 41.0139 98.7685 33.5288 98.7685C30.9543 98.7875 28.3876 98.4862 25.8893 97.8716Z" fill="url(#paint10_linear_3480_12829)"/>
<path d="M19.9713 93.7763C20.192 91.0047 26.1731 88.7937 33.5289 88.7937C40.8846 88.7937 46.8563 91.0141 47.0864 93.7763C46.8626 96.5448 40.8846 98.7589 33.5289 98.7589C26.1731 98.7589 20.192 96.5323 19.9713 93.7763ZM33.5289 98.1361C39.6171 98.1361 44.5641 96.252 44.5641 93.9414C44.5641 91.6307 39.614 89.7466 33.5289 89.7466C27.4437 89.7466 22.4936 91.6307 22.4936 93.9414C22.4936 96.252 27.4342 98.1299 33.5225 98.1299L33.5289 98.1361Z" fill="#D17918"/>
<path d="M34.7518 92.9014L39.9983 94.3899V95.4238L34.6383 93.7889C33.9612 94.2755 33.1804 94.6025 32.3556 94.7449C32.2768 94.7636 32.1948 94.7792 32.1128 94.7916V95.7259H30.1675V95.0065C29.7418 95.0252 29.3446 95.0283 29.004 95.0065V95.7041H27.0555V92.9325H29.004V94.2716C29.3193 94.2716 29.7324 94.2716 30.1675 94.2716V92.9481H32.1128V93.8823C32.5573 93.7312 32.9482 93.4566 33.2384 93.0913L34.7518 92.9014Z" fill="#D17918"/>
<path d="M22.4809 93.6144C22.4809 95.9282 27.4342 97.8091 33.5162 97.8091C39.5981 97.8091 44.5514 95.9407 44.5514 93.6144C44.5514 91.2881 39.6013 89.4228 33.5162 89.4228C27.431 89.4228 22.4809 91.2913 22.4809 93.6144ZM19.9586 93.6144C19.9586 90.7712 26.0311 88.4636 33.5162 88.4636C41.0012 88.4636 47.0737 90.7712 47.0737 93.6144C47.0737 96.4576 41.0012 98.7683 33.5162 98.7683C26.0311 98.7683 19.9586 96.4607 19.9586 93.6144Z" fill="#FFC022"/>
<path d="M43.1008 93.6144C43.1008 91.6089 38.8034 89.9771 33.5222 89.9771C28.2411 89.9771 23.9405 91.6089 23.9405 93.6144C23.9405 95.6199 28.2379 97.2548 33.5222 97.2548C38.8065 97.2548 43.1008 95.623 43.1008 93.6144ZM24.363 93.6144C24.363 91.6961 28.4618 90.1359 33.5065 90.1359C38.5512 90.1359 42.6657 91.6929 42.6657 93.6144C42.6657 95.5358 38.5669 97.096 33.5065 97.096C28.446 97.096 24.363 95.5327 24.363 93.6144V93.6144Z" fill="#FFC022"/>
<path d="M34.7518 92.2068L39.9983 93.6985V94.7323L34.6383 93.0974C33.9612 93.584 33.1804 93.911 32.3556 94.0535L32.1128 94.1002V95.0344H30.1675V94.3275C29.7418 94.3431 29.3446 94.3462 29.004 94.3275V95.022H27.0555V92.2504H29.004V93.5895C29.3919 93.6039 29.7802 93.5987 30.1675 93.5739V92.2504H32.1128V93.1846C32.5567 93.0324 32.9473 92.758 33.2384 92.3936L34.7518 92.2068Z" fill="#FFC022"/>
<path d="M47.0833 90.8989C47.0833 93.7421 41.0107 96.0497 33.5257 96.0497C26.0406 96.0497 19.9681 93.7421 19.9681 90.8989V88.4636H47.0833V90.8989Z" fill="#FF931E"/>
<path d="M34.812 89.7156V96.0248C34.3864 96.0404 33.9576 96.0497 33.5224 96.0497V89.7156H34.812Z" fill="#D17918"/>
<path d="M37.4287 89.7156V95.8317C36.7256 95.9127 36.0036 95.9688 35.2595 96.0061V89.7156H37.4287Z" fill="#D17918"/>
<path d="M37.965 95.7664V88.4731H47.0833V90.8991C47.0833 93.1506 43.2714 95.0658 37.965 95.7664Z" fill="#D17918"/>
<path d="M28.6892 89.7156V95.7103L28.2478 95.6449V89.728L28.6892 89.7156Z" fill="#D17918"/>
<path d="M30.3794 95.9096L29.938 95.866V89.7156H30.3794V95.9096Z" fill="#D17918"/>
<path d="M32.5105 89.7156V96.0342L31.8799 96.0093V89.7156H32.5105Z" fill="#D17918"/>
<path d="M33.5223 93.6145C41.0105 93.6145 47.0798 91.3101 47.0798 88.4638C47.0798 85.6174 41.0073 83.313 33.5223 83.313C26.0372 83.313 19.9647 85.6174 19.9647 88.4638C19.9647 91.3101 26.0309 93.6145 33.5223 93.6145Z" fill="#FF931E"/>
<path style="mix-blend-mode:multiply" opacity="0.4" d="M25.8893 92.7204C26.274 92.7204 26.6618 92.7391 27.0559 92.7391C34.5472 92.7391 40.6135 90.4346 40.6135 87.5883C40.6135 85.8195 38.2645 84.2593 34.6923 83.3313C41.6287 83.5555 47.0864 85.7666 47.0864 88.4634C47.0864 91.3097 41.0139 93.6142 33.5288 93.6142C30.9545 93.6341 28.3877 93.3339 25.8893 92.7204V92.7204Z" fill="url(#paint11_linear_3480_12829)"/>
<path d="M19.9713 88.6225C20.192 85.854 26.1731 83.6399 33.5289 83.6399C40.8846 83.6399 46.8563 85.8634 47.0864 88.6225C46.8626 91.3941 40.8846 93.6051 33.5289 93.6051C26.1731 93.6051 20.192 91.3941 19.9713 88.6225ZM33.5289 92.9823C39.6171 92.9823 44.5641 91.1138 44.5641 88.7907C44.5641 86.4675 39.614 84.5959 33.5289 84.5959C27.4437 84.5959 22.4936 86.4644 22.4936 88.7907C22.4936 91.1169 27.4342 92.976 33.5225 92.976L33.5289 92.9823Z" fill="#D17918"/>
<path d="M34.7518 87.7476L39.9983 89.2392V90.2731L34.6383 88.6382C33.9612 89.1248 33.1804 89.4518 32.3556 89.5942C32.2768 89.6129 32.1948 89.6254 32.1128 89.6409V90.5752H30.1675V89.8683C29.7418 89.887 29.3446 89.887 29.004 89.8683V90.5627H27.0555V87.7943H29.004V89.1302C29.3919 89.1446 29.7802 89.1394 30.1675 89.1147V87.7943H32.1128V88.7285C32.5573 88.5774 32.9482 88.3028 33.2384 87.9375L34.7518 87.7476Z" fill="#D17918"/>
<path d="M22.4809 88.4638C22.4809 90.7776 27.4342 92.6585 33.5162 92.6585C39.5981 92.6585 44.5514 90.79 44.5514 88.4638C44.5514 86.1375 39.6013 84.269 33.5162 84.269C27.431 84.269 22.4809 86.1531 22.4809 88.4638ZM19.9586 88.4638C19.9586 85.6174 26.0311 83.313 33.5162 83.313C41.0012 83.313 47.0737 85.6174 47.0737 88.4638C47.0737 91.3101 41.0012 93.6145 33.5162 93.6145C26.0311 93.6145 19.9586 91.3101 19.9586 88.4638Z" fill="#FFC022"/>
<path d="M43.1008 88.4637C43.1008 86.4582 38.8034 84.8232 33.5222 84.8232C28.2411 84.8232 23.9405 86.4582 23.9405 88.4637C23.9405 90.4692 28.2379 92.1041 33.5222 92.1041C38.8065 92.1041 43.1008 90.4692 43.1008 88.4637ZM24.363 88.4637C24.363 86.5454 28.4618 84.9852 33.5065 84.9852C38.5512 84.9852 42.6657 86.5422 42.6657 88.4637C42.6657 90.3851 38.5669 91.9422 33.5065 91.9422C28.446 91.9422 24.363 90.382 24.363 88.4637V88.4637Z" fill="#FFC022"/>
<path d="M34.7518 87.0562L39.9983 88.5447V89.5817L34.6383 87.9437C33.962 88.4315 33.1808 88.7587 32.3556 88.8997L32.1128 88.9495V89.8838H30.1675V89.1738C29.7418 89.1924 29.3446 89.1956 29.004 89.1738V89.8713H27.0555V87.0997H29.004V88.4357C29.3193 88.4357 29.7324 88.4357 30.1675 88.4201V87.0966H32.1128V88.0309C32.5579 87.8809 32.9491 87.606 33.2384 87.2399L34.7518 87.0562Z" fill="#FFC022"/>
<path d="M47.0833 85.7451C47.0833 88.5914 41.0107 90.899 33.5257 90.899C26.0406 90.899 19.9681 88.5914 19.9681 85.7451V83.313H47.0833V85.7451Z" fill="#FF931E"/>
<path d="M34.812 84.5618V90.8741C34.3864 90.8897 33.9576 90.899 33.5224 90.899V84.5618H34.812Z" fill="#D17918"/>
<path d="M37.4287 84.5618V90.681C36.7246 90.7599 36.0015 90.8181 35.2595 90.8554V84.5618H37.4287Z" fill="#D17918"/>
<path d="M37.965 90.6156V83.3223H47.0833V85.7451C47.0833 87.9997 43.2714 89.9149 37.965 90.6156Z" fill="#D17918"/>
<path d="M28.6892 84.5618V90.5596L28.2478 90.4942V84.5618H28.6892Z" fill="#D17918"/>
<path d="M30.3794 90.7558L29.938 90.7153V84.5618H30.3794V90.7558Z" fill="#D17918"/>
<path d="M32.5105 84.5618V90.8803L31.8799 90.8585V84.5618H32.5105Z" fill="#D17918"/>
<path d="M33.5223 88.4636C41.0105 88.4636 47.0798 86.156 47.0798 83.3128C47.0798 80.4696 41.0231 78.1589 33.5223 78.1589C26.0214 78.1589 19.9647 80.4665 19.9647 83.3128C19.9647 86.1591 26.0309 88.4636 33.5223 88.4636Z" fill="#FF931E"/>
<path style="mix-blend-mode:multiply" opacity="0.4" d="M25.8893 87.5669C26.274 87.5669 26.6618 87.5887 27.0559 87.5887C34.5472 87.5887 40.6135 85.2811 40.6135 82.4379C40.6135 80.6691 38.2645 79.1089 34.6923 78.1809C41.6287 78.4051 47.0864 80.6162 47.0864 83.313C47.0864 86.1562 41.0139 88.4638 33.5288 88.4638C30.9542 88.4844 28.3873 88.183 25.8893 87.5669V87.5669Z" fill="url(#paint12_linear_3480_12829)"/>
<path d="M19.9713 83.4716C20.192 80.7 26.1731 78.489 33.5289 78.489C40.8846 78.489 46.8563 80.7094 47.0864 83.4716C46.8626 86.2432 40.8846 88.4542 33.5289 88.4542C26.1731 88.4542 20.192 86.2557 19.9713 83.4716ZM33.5289 87.8314C39.6171 87.8314 44.5641 85.9629 44.5641 83.6367C44.5641 81.3104 39.614 79.4451 33.5289 79.4451C27.4437 79.4451 22.4936 81.3135 22.4936 83.6367C22.4936 85.9598 27.4342 87.8127 33.5225 87.8127L33.5289 87.8314Z" fill="#D17918"/>
<path d="M34.7518 84.7146L39.9983 83.2354V82.1984L34.6383 83.8333C33.9612 83.3467 33.1804 83.0197 32.3556 82.8773L32.1128 82.8306V81.8963H30.1675V82.6126C29.7418 82.5939 29.3446 82.5908 29.004 82.597V81.9025H27.0555V84.6741H29.004V83.335C29.3919 83.3206 29.7802 83.3258 30.1675 83.3506V84.6741H32.1128V83.7399C32.5571 83.8898 32.948 84.1634 33.2384 84.5277L34.7518 84.7146Z" fill="#D17918"/>
<path d="M22.4809 83.3128C22.4809 85.6235 27.4342 87.5045 33.5162 87.5045C39.5981 87.5045 44.5514 85.636 44.5514 83.3128C44.5514 80.9897 39.6013 79.1181 33.5162 79.1181C27.431 79.1181 22.4809 80.9866 22.4809 83.3128ZM19.9586 83.3128C19.9586 80.4665 26.0311 78.1589 33.5162 78.1589C41.0012 78.1589 47.0737 80.4665 47.0737 83.3128C47.0737 86.1591 41.0012 88.4636 33.5162 88.4636C26.0311 88.4636 19.9586 86.156 19.9586 83.3128Z" fill="#FFC022"/>
<path d="M43.1008 83.313C43.1008 81.3044 38.8034 79.6726 33.5222 79.6726C28.2411 79.6726 23.9405 81.3044 23.9405 83.313C23.9405 85.3216 28.2379 86.9503 33.5222 86.9503C38.8065 86.9503 43.1008 85.3216 43.1008 83.313ZM24.363 83.313C24.363 81.3947 28.4618 79.8314 33.5065 79.8314C38.5512 79.8314 42.6657 81.3885 42.6657 83.313C42.6657 85.2376 38.5669 86.7915 33.5065 86.7915C28.446 86.7915 24.363 85.2313 24.363 83.313V83.313Z" fill="#FFC022"/>
<path d="M34.7535 84L40 82.5114V81.4775L34.64 83.1125C33.963 82.6259 33.1821 82.2989 32.3573 82.1564C32.2785 82.1377 32.1965 82.1253 32.1145 82.1097V81.1755H30.1692V81.8855C29.7435 81.8668 29.3463 81.8668 29.0057 81.8855V81.1879H27.0572V83.9595H29.0057V82.6235C29.321 82.6235 29.7341 82.6235 30.1692 82.6235V83.9471H32.1145V83.0128C32.5585 83.165 32.949 83.4395 33.2401 83.8038L34.7535 84Z" fill="#FFC022"/>
<g style="mix-blend-mode:multiply" opacity="0.6">
<path d="M61.6781 84.5182C63.7244 84.0262 66.2309 86.6794 68.1385 90.9271V90.9458C68.1227 91.0018 68.1038 91.0579 68.0849 91.1139C68.0768 91.1373 68.0673 91.1602 68.0565 91.1825C68.0253 91.2613 67.9895 91.3382 67.9493 91.4129L67.9272 91.4503C67.8925 91.5157 67.8547 91.5779 67.8137 91.6402L67.757 91.7181C67.7576 91.7253 67.7576 91.7326 67.757 91.7399L67.8295 91.8426C67.8579 91.8862 67.8831 91.9298 67.9083 91.9734C67.9335 92.017 67.9524 92.0482 67.9714 92.0855C67.996 92.131 68.0181 92.1778 68.0376 92.2257C68.0533 92.2599 68.0723 92.2973 68.0849 92.3316C68.1045 92.3815 68.1214 92.4324 68.1353 92.4842C68.1491 92.5163 68.1597 92.5496 68.1668 92.5838C68.1814 92.6392 68.193 92.6953 68.2015 92.752C68.2015 92.7831 68.2015 92.8111 68.2015 92.8392C68.2141 92.9248 68.2204 93.0111 68.2204 93.0976V95.5329C68.2251 95.6128 68.2251 95.6928 68.2204 95.7727C68.2204 95.7976 68.2204 95.8225 68.2204 95.8474C68.2119 95.904 68.2003 95.9602 68.1858 96.0156C68.1803 96.043 68.1729 96.0701 68.1637 96.0966C68.1479 96.1526 68.129 96.2087 68.1101 96.2647C68.102 96.2891 68.0925 96.313 68.0817 96.3363C68.0499 96.4138 68.0141 96.4897 67.9745 96.5637L67.9524 96.6042C67.9188 96.6664 67.881 96.7287 67.8389 96.791L67.7822 96.872V96.8907L67.8547 96.9934C67.8831 97.037 67.9083 97.0837 67.9335 97.1273C67.9588 97.1709 67.9777 97.199 67.9966 97.2363C68.0218 97.2826 68.044 97.3304 68.0628 97.3796C68.0805 97.414 68.0962 97.4494 68.1101 97.4855C68.1297 97.5343 68.1466 97.5842 68.1605 97.6349C68.1735 97.6674 68.184 97.7007 68.1921 97.7346C68.2066 97.791 68.2182 97.8482 68.2267 97.9059C68.2282 97.9339 68.2282 97.9619 68.2267 97.9899C68.2393 98.0755 68.2456 98.1619 68.2457 98.2484V100.684C68.2505 100.764 68.2505 100.844 68.2457 100.923C68.2457 100.951 68.2457 100.976 68.2457 101.001C68.2371 101.057 68.2256 101.112 68.211 101.166C68.2051 101.195 68.1977 101.223 68.1889 101.25C68.1731 101.306 68.1542 101.363 68.1353 101.415C68.1272 101.44 68.1178 101.464 68.1069 101.487C68.0757 101.565 68.0399 101.641 67.9997 101.714C67.9997 101.73 67.9997 101.742 67.9777 101.755C67.944 101.817 67.9062 101.879 67.8642 101.942L67.8074 102.023L67.7002 102.169L67.6308 102.253L67.5016 102.4L67.4322 102.471C67.366 102.54 67.2966 102.608 67.221 102.677L67.139 102.748L66.9782 102.882L66.8615 102.973L66.7133 103.082L66.5809 103.175L66.4201 103.281L66.2814 103.371L65.9945 103.542L65.8085 103.642L65.6634 103.72L65.4585 103.826L65.3166 103.891L65.0896 103.997L64.9792 104.047C64.6892 104.175 64.3865 104.296 64.068 104.411L63.9703 104.446L63.655 104.555L63.5636 104.583C63.1159 104.729 62.6398 104.863 62.1416 104.987C61.1753 102.995 60.4249 100.907 59.903 98.7591C58.0491 91.5748 58.8815 85.1971 61.6781 84.5182Z" fill="#CCCCCC"/>
</g>
<path d="M72.5528 107.924C69.8728 108.973 65.465 104.246 62.7062 97.37C59.9474 90.494 59.8686 84.0665 62.558 83.017L64.8502 82.1201L74.8418 107.033L72.5528 107.924Z" fill="#FF931E"/>
<path d="M69.1317 96.221L63.1916 98.5472C63.0213 98.1611 62.8542 97.7687 62.6934 97.3701L68.6556 95.0376L69.1317 96.221Z" fill="#D17918"/>
<path d="M70.0931 98.6221L64.3359 100.892C64.0048 100.269 63.6801 99.6466 63.3743 98.9646L69.2955 96.6477L70.0931 98.6221Z" fill="#D17918"/>
<path d="M64.5978 101.344L71.4617 98.6592L74.8196 107.033L72.54 107.924C70.4181 108.755 67.2116 105.962 64.5978 101.344Z" fill="#D17918"/>
<path d="M66.8777 90.6153L61.234 92.8233C61.1993 92.68 61.1646 92.5368 61.1331 92.3935L66.7169 90.2136L66.8777 90.6153Z" fill="#D17918"/>
<path d="M61.669 94.4304C61.6249 94.2913 61.5839 94.1512 61.5461 94.01L67.3348 91.7429L67.4988 92.1478L61.669 94.4304Z" fill="#D17918"/>
<path d="M68.2836 94.1129L62.3372 96.4423C62.2646 96.2399 62.1921 96.0406 62.1228 95.8413L68.0471 93.5212L68.2836 94.1129Z" fill="#D17918"/>
<path d="M64.9862 96.4732C67.7481 103.352 72.1559 108.077 74.8327 107.03C77.5096 105.984 77.4465 99.5562 74.6845 92.6771C71.9226 85.798 67.5179 81.0739 64.8411 82.1202C62.1643 83.1666 62.2242 89.5941 64.9862 96.4732Z" fill="#FF931E"/>
<path style="mix-blend-mode:multiply" opacity="0.4" d="M63.0117 89.1272C63.141 89.4853 63.2766 89.8434 63.4216 90.2047C66.1804 97.0838 70.5882 101.808 73.2682 100.762C74.9329 100.108 75.5351 97.3796 75.0937 93.7548C77.4395 100.213 77.367 106.037 74.8289 107.03C72.152 108.077 67.7442 103.353 64.9823 96.4734C64.0161 94.116 63.354 91.6479 63.0117 89.1272V89.1272Z" fill="url(#paint13_linear_3480_12829)"/>
<path d="M64.6897 82.189C67.3791 81.3762 71.6734 86.0474 74.3818 92.7957C77.0902 99.544 77.2005 105.853 74.675 107.077C71.9856 107.893 67.6913 103.222 64.9829 96.4735C62.2746 89.7252 62.1484 83.4159 64.6897 82.189ZM65.5851 96.2368C67.8269 101.827 71.4244 105.682 73.5999 104.832C75.7754 103.982 75.7218 98.7375 73.4801 93.1476C71.2383 87.5577 67.6408 83.7055 65.4653 84.5557C63.2898 85.4059 63.3434 90.6469 65.5851 96.2368Z" fill="#D17918"/>
<path d="M65.7649 84.4371C63.5894 85.2904 63.643 90.5315 65.8879 96.1213C68.1327 101.711 71.7239 105.563 73.8994 104.713C76.075 103.863 76.0245 98.6189 73.7796 93.029C71.5347 87.4391 67.9436 83.587 65.7649 84.4371V84.4371ZM64.8379 82.1202C67.5148 81.0739 71.9226 85.798 74.6814 92.6771C77.4402 99.5562 77.519 105.981 74.8296 107.03C72.1401 108.08 67.7449 103.352 64.983 96.4732C62.221 89.5941 62.1453 83.1697 64.8379 82.1202Z" fill="#FFC022"/>
<path d="M73.3628 103.383C75.2545 102.645 75.2041 98.0893 73.2587 93.2468C71.3134 88.4044 68.192 85.0504 66.3034 85.7916C64.4148 86.5328 64.4621 91.0856 66.4074 95.9281C68.3528 100.771 71.4742 104.112 73.3628 103.383ZM66.4579 86.1777C68.2645 85.4708 71.2472 88.6691 73.1074 93.306C74.9676 97.943 74.9991 102.29 73.2083 102.997C71.4174 103.704 68.419 100.506 66.5588 95.8689C64.6985 91.232 64.6512 86.8784 66.4579 86.1653V86.1777Z" fill="#FFC022"/>
<g style="mix-blend-mode:multiply" opacity="0.6">
<path d="M28.2478 111.1C23.3765 110.318 19.9588 108.487 19.9588 106.354V103.919C19.9705 103.427 20.1393 102.952 20.4412 102.561C20.1397 102.169 19.9709 101.693 19.9588 101.2V98.7682C19.9705 98.2757 20.1393 97.7994 20.4412 97.4073C20.1393 97.0163 19.9705 96.5411 19.9588 96.0495V93.6143C19.9705 93.1227 20.1393 92.6475 20.4412 92.2565C20.1393 91.8655 19.9705 91.3903 19.9588 90.8987V90.8614C22.7428 89.8991 27.9325 94.0409 31.902 100.515C34.3424 104.498 35.777 108.481 36.0166 111.415C35.7665 111.433 35.5142 111.449 35.2599 111.461C34.6892 111.489 34.1122 111.505 33.5226 111.505C32.933 111.505 32.4191 111.489 31.88 111.464C30.7535 111.415 29.6305 111.306 28.5158 111.137L28.2478 111.1Z" fill="#CCCCCC"/>
</g>
<path d="M12.5808 115.924C15.2576 116.97 19.6685 112.246 22.4273 105.367C25.1861 98.488 25.265 92.0636 22.5755 91.0172L20.2834 90.1204L10.2917 115.033L12.5808 115.924Z" fill="#FF931E"/>
<path d="M15.9892 104.218L21.9293 106.544C22.0996 106.161 22.2667 105.769 22.4275 105.367L16.4653 103.035L15.9892 104.218Z" fill="#D17918"/>
<path d="M15.0243 106.619L20.7815 108.874C21.1158 108.251 21.4374 107.628 21.7463 106.946L15.8251 104.629L15.0243 106.619Z" fill="#D17918"/>
<path d="M20.5295 109.344L13.6656 106.657L10.3046 115.031L12.5873 115.924C14.7029 116.753 17.9095 113.972 20.5295 109.344Z" fill="#D17918"/>
<path d="M18.2434 98.5971L23.8871 100.808C23.9218 100.665 23.9565 100.519 23.988 100.378L18.4074 98.1985L18.2434 98.5971Z" fill="#D17918"/>
<path d="M23.4525 102.43L23.5754 102.007L17.7867 99.7429L17.6227 100.148L23.4525 102.43Z" fill="#D17918"/>
<path d="M16.8341 102.113L22.7805 104.44C22.8562 104.237 22.9287 104.038 22.998 103.839L17.0611 101.515L16.8341 102.113Z" fill="#D17918"/>
<path d="M20.1348 104.47C17.376 111.35 12.9682 116.074 10.2914 115.027C7.61454 113.981 7.67759 107.553 10.4364 100.674C13.1952 93.7951 17.6062 89.0586 20.283 90.1205C22.9598 91.1824 22.8936 97.5944 20.1348 104.47Z" fill="#FF931E"/>
<path style="mix-blend-mode:multiply" opacity="0.4" d="M22.106 97.124C21.9767 97.4821 21.8411 97.8403 21.6961 98.2046C18.9341 105.081 14.5263 109.808 11.8495 108.758C10.1847 108.108 9.57938 105.376 10.0239 101.755C7.67816 108.213 7.75068 114.034 10.2888 115.027C12.9656 116.074 17.3734 111.349 20.1322 104.47C21.0997 102.113 21.7629 99.6449 22.106 97.124Z" fill="url(#paint14_linear_3480_12829)"/>
<path d="M20.1351 104.471C17.4268 111.219 13.1357 115.893 10.4462 115.077C7.92389 113.85 8.0311 107.541 10.7395 100.793C13.4478 94.0444 17.7389 89.3732 20.4315 90.1891C22.957 91.413 22.8435 97.7222 20.1351 104.471ZM19.6559 92.5527C17.4772 91.7026 13.8829 95.5579 11.6412 101.148C9.39946 106.738 9.3427 111.976 11.5214 112.829C13.7 113.682 17.2912 109.827 19.5361 104.237C21.781 98.6471 21.8314 93.4185 19.6559 92.5527Z" fill="#D17918"/>
<path d="M14.1604 103.44L13.6307 108.805L14.605 109.185L15.0432 103.654C15.7504 103.212 16.3457 102.615 16.7836 101.911C16.8309 101.845 16.8719 101.774 16.9161 101.705L17.7863 102.048L18.502 100.269L17.8367 100.008C18.0101 99.6248 18.152 99.2636 18.2781 98.9459L18.9308 99.2013L19.6497 97.4138L17.0422 96.3923L16.3233 98.1799L17.5845 98.675C17.4741 98.9864 17.326 99.3477 17.1399 99.7369L15.8945 99.2511L15.1788 101.039L16.0648 101.384C15.7603 101.738 15.3583 101.996 14.9077 102.129L14.1604 103.44Z" fill="#D17918"/>
<path d="M19.3532 92.4374C17.1777 91.5841 13.5834 95.4394 11.3385 101.029C9.09362 106.619 9.04317 111.857 11.2187 112.71C13.3942 113.564 16.9917 109.708 19.2334 104.118C21.4751 98.5286 21.5319 93.2875 19.3532 92.4374ZM20.2991 90.1205C22.9759 91.1668 22.9097 97.5944 20.1509 104.47C17.3921 111.346 12.9843 116.074 10.3075 115.027C7.63065 113.981 7.69372 107.553 10.4525 100.674C13.2113 93.7951 17.6065 89.0586 20.2833 90.1205H20.2991Z" fill="#FFC022"/>
<path d="M18.7135 103.916C20.6589 99.0644 20.7062 94.5147 18.8176 93.7766C16.929 93.0386 13.8076 96.3832 11.8622 101.232C9.91688 106.081 9.86958 110.63 11.7582 111.371C13.6468 112.113 16.765 108.765 18.7135 103.916ZM18.5622 103.857C16.702 108.494 13.7193 111.692 11.9127 110.985C10.1061 110.278 10.1502 105.928 12.0104 101.291C13.8706 96.6541 16.8565 93.4559 18.6631 94.1628C20.4697 94.8697 20.4224 99.217 18.5622 103.857Z" fill="#FFC022"/>
<path d="M13.5078 103.184L12.9624 108.55L13.9366 108.93L14.3749 103.399C15.0828 102.958 15.6783 102.361 16.1153 101.655C16.1626 101.59 16.2036 101.518 16.2477 101.45L17.1179 101.792L17.8368 100.002L17.1684 99.7402C17.3418 99.3572 17.4837 98.9959 17.6098 98.6783L18.2656 98.9336L18.9971 97.1555L16.3896 96.134L15.6707 97.9215L16.9319 98.4167C16.8215 98.7281 16.6734 99.0893 16.4873 99.4786L15.2419 98.9928L14.5262 100.78L15.4153 101.126C15.109 101.479 14.7062 101.737 14.2551 101.87L13.5078 103.184Z" fill="#FFC022"/>
<path d="M62.823 87.7567L63.3748 86.374L63.9297 87.7567L65.3296 88.3048L63.9297 88.8498L63.3748 90.2356L62.823 88.8498L61.42 88.3048L62.823 87.7567Z" fill="white"/>
<path d="M23.0235 86.293L23.5752 84.9072L24.127 86.293L25.53 86.838L24.127 87.383L23.5752 88.7688L23.0235 87.383L21.6204 86.838L23.0235 86.293Z" fill="white"/>
<path d="M9.97632 70.8533L10.5281 69.4675L11.083 70.8533L12.4829 71.3983L11.083 71.9464L10.5281 73.3291L9.97632 71.9464L8.57328 71.3983L9.97632 70.8533Z" fill="white"/>
<path d="M43.3975 96.3394L43.9492 94.9536L44.501 96.3394L45.9041 96.8844L44.501 97.4293L43.9492 98.8151L43.3975 97.4293L41.9944 96.8844L43.3975 96.3394Z" fill="white"/>
<path d="M63.5636 29.6348C63.5636 29.6348 71.0676 35.0471 73.4197 39.1765C73.4197 39.1765 63.3902 31.8365 58.0334 29.6348H63.5636Z" fill="#DAB873"/>
<path d="M61.3093 29.6348C61.3093 29.6348 55.5269 32.6586 52.6892 39.1765C52.6892 39.1765 53.055 33.6769 56.0692 29.6348H61.3093Z" fill="#DAB873"/>
<path d="M49.8264 43.2405C49.8264 43.2405 44.7502 52.6483 41.9945 62.9125C41.9945 62.9 41.3955 51.2625 49.8264 43.2405Z" fill="#DAB873"/>
<path d="M43.1008 44.4329C43.1008 44.4329 38.0246 53.8407 35.269 64.1048C35.269 64.1048 34.6731 52.4549 43.1008 44.4329Z" fill="#E8C47B"/>
<path d="M51.0688 47.952C51.0688 47.952 42.556 46.5787 34.8061 48.5531C34.8061 48.5437 42.5623 44.5701 51.0688 47.952Z" fill="#E8C47B"/>
<path d="M49.2209 52.4738C49.2209 52.4738 40.7081 51.1004 32.9582 53.0748C32.9456 53.0748 40.7081 49.1012 49.2209 52.4738Z" fill="#E8C47B"/>
<path d="M49.2209 52.4737C46.9736 52.1557 44.7061 51.9975 42.4359 52.0004C42.5588 51.7139 42.6849 51.4211 42.8174 51.1284C45.0143 51.2098 47.1806 51.6649 49.2209 52.4737V52.4737Z" fill="#DAB873"/>
<path d="M44.5518 47.4818C44.6968 47.1953 44.845 46.9088 44.9963 46.6191C47.0806 46.733 49.1319 47.1832 51.0688 47.952C48.9103 47.6451 46.7326 47.488 44.5518 47.4818V47.4818Z" fill="#DAB873"/>
<path d="M72.1741 6.68344L61.3091 26.754V5.35059L61.9397 5.60594L62.05 5.64954C62.2644 5.73363 62.4757 5.81771 62.6806 5.89556H62.7058C62.9265 5.97653 63.1441 6.0575 63.3679 6.13535L63.5035 6.18206L64.0238 6.35334L64.2003 6.40939C64.399 6.47167 64.5976 6.53084 64.7994 6.5869L64.8498 6.60247C65.0642 6.66164 65.2755 6.71458 65.4804 6.7644L65.6538 6.80177L66.1331 6.8952L66.3159 6.92945C66.524 6.96371 66.7321 6.99173 66.9465 7.01353C68.6959 7.1639 70.4583 7.05261 72.1741 6.68344Z" fill="#DAB873"/>
<path d="M75.0057 5.99863C75.2327 5.93635 75.485 5.8585 75.7561 5.77441L66.7419 19.4205L73.3347 6.42838C73.9022 6.29448 74.4445 6.14811 75.0057 5.99863Z" fill="#DAB873"/>
<path d="M26.6964 5.46903C25.0159 4.20158 24.6722 2.3549 27.6675 2.04349C32.9203 1.51409 36.4011 5.98598 41.6287 6.35033L53.635 29.6347H48.9687L26.6964 5.46903Z" fill="#DAB873"/>
<path d="M52.2031 23.8922L43.3024 6.33161C45.128 6.13542 46.3229 5.31641 47.4927 4.46313L52.2031 23.8922Z" fill="#DAB873"/>
<path d="M66.3539 79.52C76.0712 79.52 83.9756 71.8935 83.9756 62.5231C83.9756 53.1527 76.0712 45.5293 66.3539 45.5293C56.6366 45.5293 48.7322 53.1527 48.7322 62.5231C48.7322 71.8935 56.6366 79.52 66.3539 79.52ZM66.3539 47.7092C74.8668 47.7092 81.7685 54.3548 81.7685 62.5231C81.7685 70.6915 74.8542 77.3402 66.3539 77.3402C57.8536 77.3402 50.9393 70.6915 50.9393 62.5231C50.9393 54.3548 57.8536 47.7092 66.3539 47.7092Z" fill="#534741"/>
<path d="M60 64.9002L66.88 73H71.66L64.1051 64.7099C65.9623 63.9732 67.5087 62.7404 68.5247 61.1863C68.6033 61.0623 68.6689 60.9383 68.7409 60.8114H73V57.8039H69.7238C69.8005 57.2076 69.8202 56.6067 69.7828 56.0075H73V53H60.2064V56.0075H66.3853C66.4468 56.6066 66.4226 57.2101 66.3133 57.8039H60.2064V60.8114H64.5638C63.5359 61.654 62.2791 62.2498 60.9141 62.5415L60 64.9002Z" fill="#534741"/>
<path d="M44.5519 28.797C44.658 28.7968 44.7637 28.7854 44.8672 28.7627C53.0869 26.969 68.2871 28.7627 68.4385 28.7845C69.3055 28.8873 70.0812 28.1928 70.1757 27.2274C70.2703 26.2621 69.6429 25.4026 68.779 25.2998C68.1484 25.2219 52.9513 23.4313 44.2587 25.3216C43.8261 25.4443 43.4569 25.725 43.2262 26.1067C42.9955 26.4884 42.9205 26.9426 43.0165 27.3769C43.062 27.7544 43.241 28.1038 43.5219 28.3636C43.8028 28.6234 44.1676 28.7769 44.5519 28.797V28.797Z" fill="#FF931E"/>
<path d="M58.1877 24.5212C58.4494 24.5212 58.7111 24.5399 58.9696 24.5493C59.6599 25.6526 60.1527 26.8651 60.4263 28.1336L59.7642 28.0994C59.4677 26.8205 58.9331 25.6072 58.1877 24.5212Z" fill="#BF6E17"/>
<path d="M62.6619 24.7488L63.447 24.8048C64.1034 25.9297 64.5619 27.1564 64.8027 28.4328L64.1469 28.3799C63.8789 27.0906 63.3757 25.8602 62.6619 24.7488V24.7488Z" fill="#BF6E17"/>
<path d="M60.4132 24.6147L61.1952 24.6583C61.8735 25.7711 62.3524 26.991 62.6108 28.2645L61.955 28.2209C61.67 26.9354 61.1473 25.7129 60.4132 24.6147Z" fill="#BF6E17"/>
<path d="M64.9353 24.9231L65.711 24.9885C66.3451 26.1231 66.782 27.3547 67.0037 28.632L66.3447 28.5697C66.0991 27.2808 65.6218 26.0458 64.9353 24.9231V24.9231Z" fill="#BF6E17"/>
<path d="M67.9972 25.219C68.5704 26.3053 68.9673 27.4739 69.1732 28.6819C68.9748 28.7679 68.7592 28.8083 68.5426 28.8002C68.3223 27.5127 67.8729 26.2739 67.2152 25.1411L67.9972 25.219Z" fill="#BF6E17"/>
<path d="M45.5818 25.0693C45.8025 25.032 46.0295 24.9977 46.2565 24.9666C46.8473 26.0164 47.2675 27.1513 47.502 28.3298L46.8714 28.4077C46.6299 27.2325 46.1942 26.1047 45.5818 25.0693V25.0693Z" fill="#BF6E17"/>
<path d="M44.2489 25.3247H44.2867C44.8248 26.3699 45.2011 27.4889 45.4028 28.6444C45.2168 28.6817 45.0339 28.716 44.8574 28.7565C44.8321 28.7565 44.8069 28.7565 44.7817 28.7565C44.5888 27.6415 44.2252 26.5621 43.7034 25.5552C43.8673 25.4423 44.053 25.3638 44.2489 25.3247V25.3247Z" fill="#BF6E17"/>
<path d="M49.6118 24.6146L50.3401 24.571C50.9974 25.6368 51.4715 26.8027 51.7432 28.0215L51.0968 28.0464C50.8094 26.8253 50.3067 25.6637 49.6118 24.6146V24.6146Z" fill="#BF6E17"/>
<path d="M47.5722 24.7986C47.8055 24.7706 48.0388 24.7488 48.2753 24.7239C48.9066 25.7795 49.3612 26.9289 49.6216 28.1276L48.991 28.1774C48.717 26.9794 48.2371 25.8365 47.5722 24.7986V24.7986Z" fill="#BF6E17"/>
<path d="M51.699 24.5089L52.4462 24.4871C53.1294 25.5585 53.623 26.7368 53.906 27.9718H53.2534C52.9489 26.735 52.4224 25.5622 51.699 24.5089V24.5089Z" fill="#BF6E17"/>
<path d="M54.5806 24.459C55.2755 25.5404 55.7767 26.7318 56.0625 27.9811H55.4067C55.1034 26.7257 54.569 25.536 53.8302 24.4714L54.5806 24.459Z" fill="#BF6E17"/>
<path d="M55.9908 24.4683H56.7632C57.4598 25.5608 57.96 26.7639 58.2419 28.0246L57.583 28.0028C57.2772 26.7378 56.7374 25.5395 55.9908 24.4683V24.4683Z" fill="#BF6E17"/>
<g style="mix-blend-mode:multiply" opacity="0.8">
<path d="M44.5517 27.3022C44.6578 27.3038 44.7637 27.2922 44.867 27.268C53.0867 25.4774 68.2869 27.268 68.4382 27.2929C68.7779 27.3222 69.118 27.2406 69.4062 27.0605C69.6944 26.8805 69.9148 26.6121 70.0336 26.2964C70.1578 26.5916 70.2065 26.9124 70.1755 27.2306C70.0809 28.1929 69.3053 28.8873 68.4382 28.7877C68.2869 28.769 53.0867 26.9722 44.867 28.7659C44.7635 28.7885 44.6577 28.8 44.5517 28.8001C44.1662 28.7823 43.7996 28.6302 43.5168 28.3709C43.234 28.1115 43.0533 27.7616 43.0068 27.3832C42.9404 27.0176 42.9843 26.6407 43.1329 26.2995C43.2432 26.586 43.4367 26.834 43.6891 27.0124C43.9414 27.1908 44.2415 27.2916 44.5517 27.3022V27.3022Z" fill="#B3B3B3"/>
</g>
<path d="M44.5519 32.316C44.6581 32.3175 44.764 32.306 44.8672 32.2817C53.0869 30.4911 68.2871 32.2817 68.4385 32.3067C69.3055 32.4094 70.0812 31.715 70.1757 30.7496C70.2703 29.7842 69.6429 28.9216 68.779 28.8188C68.1484 28.741 52.9513 26.9504 44.2587 28.8406C43.4043 29.0275 42.8462 29.9493 43.0165 30.8991C43.0627 31.276 43.242 31.6247 43.5228 31.8838C43.8037 32.143 44.1681 32.296 44.5519 32.316Z" fill="#FF931E"/>
<path d="M58.1877 28.04L58.9696 28.0681C59.6599 29.1714 60.1527 30.3839 60.4263 31.6524L59.7642 31.6182C59.467 30.3395 58.9325 29.1263 58.1877 28.04V28.04Z" fill="#BF6E17"/>
<path d="M62.6619 28.2708C62.9299 28.2894 63.1916 28.305 63.447 28.3268C64.1035 29.4505 64.5619 30.6763 64.8027 31.9517L64.1469 31.8987C63.879 30.6104 63.3758 29.381 62.6619 28.2708V28.2708Z" fill="#BF6E17"/>
<path d="M60.4132 28.137L61.1952 28.1774C61.8734 29.2913 62.3523 30.5123 62.6108 31.7867L61.955 31.7431C61.6713 30.4572 61.1485 29.2345 60.4132 28.137V28.137Z" fill="#BF6E17"/>
<path d="M64.9353 28.4419L65.711 28.5104C66.3463 29.6445 66.7833 30.8763 67.0037 32.1539L66.3447 32.0885C66.0991 30.7996 65.6218 29.5646 64.9353 28.4419V28.4419Z" fill="#BF6E17"/>
<path d="M67.9972 28.7346C68.571 29.8196 68.9679 30.9872 69.1732 32.1944C68.9752 32.2819 68.7593 32.3224 68.5426 32.3127C68.3253 31.0224 67.8781 29.7803 67.2215 28.6443C67.5085 28.6817 67.7796 28.7097 67.9972 28.7346Z" fill="#BF6E17"/>
<path d="M45.5818 28.5915C45.8025 28.5541 46.0295 28.5167 46.2565 28.4856C46.8466 29.5357 47.2668 30.6705 47.502 31.8489L46.8714 31.9298C46.6304 30.7546 46.1947 29.6266 45.5818 28.5915V28.5915Z" fill="#BF6E17"/>
<path d="M44.2489 28.8438H44.2867C44.8268 29.8936 45.2031 31.018 45.4028 32.179L44.8574 32.288H44.7817C44.5883 31.1731 44.2247 30.0938 43.7034 29.0867C43.8663 28.9694 44.052 28.8867 44.2489 28.8438V28.8438Z" fill="#BF6E17"/>
<path d="M49.6118 28.1368L50.3401 28.0901C50.9968 29.1539 51.4709 30.3177 51.7432 31.5343L51.0968 31.5623C50.81 30.343 50.3073 29.1833 49.6118 28.1368V28.1368Z" fill="#BF6E17"/>
<path d="M47.5722 28.3331L48.2753 28.2615C48.9077 29.3166 49.3624 30.4661 49.6216 31.6652C49.4072 31.6652 49.1959 31.6964 48.991 31.715C48.7162 30.5162 48.2364 29.3725 47.5722 28.3331Z" fill="#BF6E17"/>
<path d="M51.699 28.0216L52.4462 27.9998C53.1294 29.0712 53.623 30.2495 53.906 31.4845H53.2534C52.9482 30.2479 52.4218 29.0752 51.699 28.0216V28.0216Z" fill="#BF6E17"/>
<path d="M54.5806 27.978C55.2746 29.0598 55.7758 30.2511 56.0625 31.5001H55.4067C55.1021 30.2451 54.5679 29.0557 53.8302 27.9905L54.5806 27.978Z" fill="#BF6E17"/>
<path d="M55.9908 27.9871H56.7632C57.4592 29.0799 57.9594 30.2829 58.2419 31.5434L57.583 31.5216C57.2772 30.2566 56.7374 29.0583 55.9908 27.9871V27.9871Z" fill="#BF6E17"/>
<g style="mix-blend-mode:multiply" opacity="0.8">
<path d="M44.5515 30.8243C44.6574 30.8252 44.7632 30.8148 44.8668 30.7931C53.0865 28.9994 68.2867 30.7931 68.4381 30.8149C68.7774 30.8444 69.1171 30.7633 69.4053 30.5838C69.6934 30.4044 69.9141 30.1366 70.0334 29.8215C70.1579 30.1166 70.2067 30.4376 70.1753 30.7558C70.0807 31.718 69.3051 32.4125 68.4381 32.3128C68.2867 32.2942 53.0865 30.4973 44.8668 32.2879C44.7635 32.3122 44.6576 32.3237 44.5515 32.3222C44.1665 32.3045 43.8002 32.1528 43.5175 31.8941C43.2348 31.6354 43.0538 31.2862 43.0066 30.9084C42.9402 30.5417 42.984 30.1639 43.1327 29.8215C43.243 30.1081 43.4365 30.3561 43.6889 30.5344C43.9413 30.7128 44.2413 30.8136 44.5515 30.8243V30.8243Z" fill="#B3B3B3"/>
</g>
<path d="M68.992 96.3483L71.7787 101.033L72.7803 100.765L69.8139 96.0106C70.1086 95.2307 70.2224 94.3918 70.1465 93.5582L70.1288 93.3116L71.0312 93.0698L70.5277 91.1907L69.8359 91.3761C69.7437 90.9601 69.6439 90.5756 69.5498 90.2483L70.2206 90.0686L69.7163 88.1865L67.0391 88.9038L67.5434 90.7859L68.8369 90.4393C68.9512 90.8102 69.0467 91.1866 69.123 91.5671L67.8446 91.9097L68.348 93.7888L69.2505 93.547C69.2206 94.0149 69.0575 94.4633 68.7808 94.8381L68.992 96.3483Z" fill="#D17918"/>
<path d="M69.6826 96.165L72.4784 100.847L73.477 100.58L70.5106 95.8256C70.8053 95.0457 70.9191 94.2068 70.8432 93.3732C70.8409 93.2923 70.8317 93.2099 70.8255 93.1266L71.7279 92.8848L71.2244 91.0058L70.5386 91.1895C70.4465 90.7736 70.3436 90.3898 70.2375 90.0658L70.9113 89.8852L70.4069 88.0031L67.7298 88.7204L68.2341 90.6026L69.5246 90.2568C69.6062 90.5613 69.7131 90.9603 69.8257 91.3806L68.5473 91.7231L69.0508 93.6022L69.9532 93.3604C69.9211 93.8286 69.757 94.2769 69.4804 94.6523L69.6826 96.165Z" fill="#FFC022"/>
<defs>
<linearGradient id="paint0_linear_3480_12829" x1="57.6169" y1="93.1133" x2="57.6169" y2="103.396" gradientUnits="userSpaceOnUse">
<stop stop-color="white"/>
<stop offset="1" stop-color="#D17918"/>
</linearGradient>
<linearGradient id="paint1_linear_3480_12829" x1="-4281.66" y1="3995" x2="-4981.9" y2="3995" gradientUnits="userSpaceOnUse">
<stop stop-color="white"/>
<stop offset="1" stop-color="#D17918"/>
</linearGradient>
<linearGradient id="paint2_linear_3480_12829" x1="-3931.01" y1="3989.88" x2="-4631.04" y2="3989.88" gradientUnits="userSpaceOnUse">
<stop stop-color="white"/>
<stop offset="1" stop-color="#D17918"/>
</linearGradient>
<linearGradient id="paint3_linear_3480_12829" x1="-3991.78" y1="2901.1" x2="-4691.71" y2="2901.1" gradientUnits="userSpaceOnUse">
<stop stop-color="white"/>
<stop offset="1" stop-color="#D17918"/>
</linearGradient>
<linearGradient id="paint4_linear_3480_12829" x1="-3641.18" y1="2895.91" x2="-4341.11" y2="2895.91" gradientUnits="userSpaceOnUse">
<stop stop-color="white"/>
<stop offset="1" stop-color="#D17918"/>
</linearGradient>
<linearGradient id="paint5_linear_3480_12829" x1="-3290.37" y1="2890.77" x2="-3990.3" y2="2890.77" gradientUnits="userSpaceOnUse">
<stop stop-color="white"/>
<stop offset="1" stop-color="#D17918"/>
</linearGradient>
<linearGradient id="paint6_linear_3480_12829" x1="-2939.77" y1="2885.65" x2="-3639.7" y2="2885.65" gradientUnits="userSpaceOnUse">
<stop stop-color="white"/>
<stop offset="1" stop-color="#D17918"/>
</linearGradient>
<linearGradient id="paint7_linear_3480_12829" x1="-2589.17" y1="2880.46" x2="-3289.1" y2="2880.46" gradientUnits="userSpaceOnUse">
<stop stop-color="white"/>
<stop offset="1" stop-color="#D17918"/>
</linearGradient>
<linearGradient id="paint8_linear_3480_12829" x1="-5039.16" y1="3316.48" x2="-5739.3" y2="3316.48" gradientUnits="userSpaceOnUse">
<stop stop-color="white"/>
<stop offset="1" stop-color="#D17918"/>
</linearGradient>
<linearGradient id="paint9_linear_3480_12829" x1="-4688.56" y1="3311.34" x2="-5388.49" y2="3311.34" gradientUnits="userSpaceOnUse">
<stop stop-color="white"/>
<stop offset="1" stop-color="#D17918"/>
</linearGradient>
<linearGradient id="paint10_linear_3480_12829" x1="-4337.96" y1="3306.16" x2="-5037.89" y2="3306.16" gradientUnits="userSpaceOnUse">
<stop stop-color="white"/>
<stop offset="1" stop-color="#D17918"/>
</linearGradient>
<linearGradient id="paint11_linear_3480_12829" x1="-3987.15" y1="3301.03" x2="-4687.29" y2="3301.03" gradientUnits="userSpaceOnUse">
<stop stop-color="white"/>
<stop offset="1" stop-color="#D17918"/>
</linearGradient>
<linearGradient id="paint12_linear_3480_12829" x1="-3636.55" y1="3295.89" x2="-4336.48" y2="3295.89" gradientUnits="userSpaceOnUse">
<stop stop-color="white"/>
<stop offset="1" stop-color="#D17918"/>
</linearGradient>
<linearGradient id="paint13_linear_3480_12829" x1="-518.487" y1="10554.3" x2="-940.155" y2="10723.5" gradientUnits="userSpaceOnUse">
<stop stop-color="white"/>
<stop offset="1" stop-color="#D17918"/>
</linearGradient>
<linearGradient id="paint14_linear_3480_12829" x1="3187.7" y1="10764.8" x2="3609.52" y2="10934.7" gradientUnits="userSpaceOnUse">
<stop stop-color="white"/>
<stop offset="1" stop-color="#D17918"/>
</linearGradient>
</defs>
</svg>
