<svg width="134" height="30" viewBox="0 0 134 30" fill="none" xmlns="http://www.w3.org/2000/svg">
<path d="M42.1137 7.41531C41.5774 7.41531 41.1124 7.23516 40.7186 6.87487C40.3248 6.51458 40.1279 6.07469 40.1279 5.5552C40.1279 5.03571 40.3248 4.59582 40.7186 4.23553C41.1124 3.87524 41.5774 3.69509 42.1137 3.69509C42.6499 3.69509 43.1108 3.87524 43.4962 4.23553C43.89 4.59582 44.0869 5.03571 44.0869 5.5552C44.0869 6.07469 43.89 6.51458 43.4962 6.87487C43.1108 7.23516 42.6499 7.41531 42.1137 7.41531ZM43.182 16.6279C43.182 17.1055 43.1946 17.8721 43.2197 18.9279C43.2532 19.9836 43.27 20.7503 43.27 21.2279C43.27 21.7138 43.1066 22.116 42.7798 22.4344C42.453 22.7444 42.0383 22.8995 41.5355 22.8995C41.0328 22.8995 40.6181 22.7444 40.2913 22.4344C39.9645 22.116 39.8011 21.7138 39.8011 21.2279C39.8011 20.7503 39.7844 19.9836 39.7508 18.9279C39.7257 17.8721 39.7131 17.1055 39.7131 16.6279C39.7131 15.8822 39.755 14.9479 39.8388 13.8251C39.9226 12.7024 39.9645 11.7681 39.9645 11.0224C39.9645 10.5364 40.1279 10.1384 40.4547 9.82842C40.7814 9.51002 41.1962 9.35083 41.6989 9.35083C42.2017 9.35083 42.6164 9.51002 42.9432 9.82842C43.27 10.1384 43.4334 10.5364 43.4334 11.0224C43.4334 11.7681 43.3915 12.7024 43.3077 13.8251C43.2239 14.9479 43.182 15.8822 43.182 16.6279Z" fill="#061D61"/>
<path d="M52.2689 23.2639C51.5483 23.2639 50.79 23.1801 49.994 23.0126L49.9814 28.1404C49.9814 28.6264 49.818 29.0286 49.4913 29.347C49.1645 29.6654 48.7497 29.8246 48.247 29.8246C47.7443 29.8246 47.3295 29.6654 47.0027 29.347C46.676 29.0286 46.5126 28.6264 46.5126 28.1404C46.5126 27.7466 46.521 26.184 46.5377 23.4525C46.5545 21.4248 46.5545 19.7699 46.5377 18.488C46.5126 16.6781 46.4539 15.1197 46.3618 13.8126C46.2361 12.0111 46.1732 11.1858 46.1732 11.3366C46.1732 10.6412 46.3282 10.0463 46.6383 9.55192C46.9986 8.99053 47.4845 8.70984 48.0962 8.70984C48.5654 8.70984 48.9592 8.86904 49.2776 9.18744C49.596 9.50583 49.7552 9.88707 49.7552 10.3312L49.7426 10.4568C50.304 10.1384 50.8654 9.90383 51.4268 9.75301C51.9966 9.59381 52.5663 9.51421 53.1361 9.51421C55.0632 9.51421 56.4709 10.3312 57.359 11.965C58.021 13.1967 58.3519 14.7929 58.3519 16.7536C58.3519 18.5885 57.8282 20.1093 56.7809 21.3158C55.6581 22.6146 54.1541 23.2639 52.2689 23.2639ZM53.1361 12.8699C52.6082 12.8699 52.072 12.9956 51.5273 13.247C50.9827 13.49 50.4339 13.8587 49.8809 14.353C49.9814 16.0791 50.0317 17.8093 50.0317 19.5437C50.7774 19.7867 51.5231 19.9082 52.2689 19.9082C53.1319 19.9082 53.7938 19.6024 54.2547 18.9907C54.6736 18.4377 54.8831 17.692 54.8831 16.7536C54.8831 15.6224 54.8328 14.839 54.7323 14.4033C54.4893 13.3811 53.9572 12.8699 53.1361 12.8699Z" fill="#061D61"/>
<path d="M66.0437 23.2639C65.3231 23.2639 64.5648 23.1801 63.7689 23.0126L63.7563 28.1404C63.7563 28.6264 63.5929 29.0286 63.2661 29.347C62.9393 29.6654 62.5246 29.8246 62.0219 29.8246C61.5191 29.8246 61.1044 29.6654 60.7776 29.347C60.4508 29.0286 60.2874 28.6264 60.2874 28.1404C60.2874 27.7466 60.2958 26.184 60.3126 23.4525C60.3293 21.4248 60.3293 19.7699 60.3126 18.488C60.2874 16.6781 60.2288 15.1197 60.1366 13.8126C60.0109 12.0111 59.9481 11.1858 59.9481 11.3366C59.9481 10.6412 60.1031 10.0463 60.4131 9.55192C60.7734 8.99053 61.2594 8.70984 61.871 8.70984C62.3403 8.70984 62.7341 8.86904 63.0525 9.18744C63.3709 9.50583 63.5301 9.88707 63.5301 10.3312L63.5175 10.4568C64.0789 10.1384 64.6403 9.90383 65.2016 9.75301C65.7714 9.59381 66.3412 9.51421 66.9109 9.51421C68.8381 9.51421 70.2457 10.3312 71.1339 11.965C71.7958 13.1967 72.1268 14.7929 72.1268 16.7536C72.1268 18.5885 71.6031 20.1093 70.5557 21.3158C69.433 22.6146 67.929 23.2639 66.0437 23.2639ZM66.9109 12.8699C66.3831 12.8699 65.8468 12.9956 65.3022 13.247C64.7576 13.49 64.2087 13.8587 63.6557 14.353C63.7563 16.0791 63.8066 17.8093 63.8066 19.5437C64.5523 19.7867 65.298 19.9082 66.0437 19.9082C66.9067 19.9082 67.5687 19.6024 68.0295 18.9907C68.4485 18.4377 68.6579 17.692 68.6579 16.7536C68.6579 15.6224 68.6077 14.839 68.5071 14.4033C68.2641 13.3811 67.7321 12.8699 66.9109 12.8699Z" fill="#061D61"/>
<path d="M79.1902 23.2639C77.6401 23.2639 76.3078 22.7319 75.1934 21.6678C73.9701 20.5031 73.3291 18.9488 73.2705 17.0049C73.2118 15.1532 73.7188 13.5026 74.7913 12.053C76.0648 10.3437 77.837 9.48908 80.1076 9.48908C81.7834 9.48908 83.1157 10.1594 84.1044 11.5C84.9925 12.7066 85.4366 14.2022 85.4366 15.9869C85.4366 17.9308 84.9171 19.5898 83.8781 20.9639C82.7135 22.4973 81.1508 23.2639 79.1902 23.2639ZM79.9443 12.8071C78.9137 12.7987 78.1009 13.2679 77.506 14.2148C77.0033 15.0107 76.7519 15.9408 76.7519 17.0049C76.7519 18.0104 77.0368 18.7812 77.6066 19.3175C78.059 19.7448 78.5869 19.9585 79.1902 19.9585C79.9191 19.9585 80.5517 19.7113 81.088 19.2169C81.6996 18.6388 82.0264 17.8554 82.0683 16.8667C82.1772 14.1687 81.4692 12.8155 79.9443 12.8071Z" fill="#061D61"/>
<path d="M98.1235 23.4393C97.4029 23.4393 96.6446 23.3556 95.8486 23.188L95.836 28.3158C95.836 28.8018 95.6726 29.204 95.3459 29.5224C95.0191 29.8408 94.6043 30 94.1016 30C93.5989 30 93.1841 29.8408 92.8573 29.5224C92.5306 29.204 92.3672 28.8018 92.3672 28.3158C92.3672 27.922 92.3756 26.3594 92.3923 23.6279C92.4091 21.6002 92.4091 19.9454 92.3923 18.6634C92.3672 16.8536 92.3085 15.2951 92.2164 13.988C92.0907 12.1865 92.0278 11.3612 92.0278 11.512C92.0278 10.8166 92.1828 10.2217 92.4929 9.72734C92.8532 9.16595 93.3391 8.88526 93.9508 8.88526C94.42 8.88526 94.8138 9.04446 95.1322 9.36286C95.4506 9.68125 95.6098 10.0625 95.6098 10.5066L95.5972 10.6323C96.1586 10.3139 96.72 10.0792 97.2814 9.92843C97.8511 9.76923 98.4209 9.68963 98.9907 9.68963C100.918 9.68963 102.325 10.5066 103.214 12.1405C103.876 13.3721 104.207 14.9683 104.207 16.929C104.207 18.7639 103.683 20.2847 102.635 21.4913C101.513 22.79 100.009 23.4393 98.1235 23.4393ZM98.9907 13.0454C98.4628 13.0454 97.9266 13.1711 97.3819 13.4224C96.8373 13.6654 96.2885 14.0341 95.7355 14.5284C95.836 16.2545 95.8863 17.9847 95.8863 19.7191C96.632 19.9621 97.3777 20.0836 98.1235 20.0836C98.9865 20.0836 99.6484 19.7778 100.109 19.1661C100.528 18.6131 100.738 17.8674 100.738 16.929C100.738 15.7978 100.687 15.0144 100.587 14.5787C100.344 13.5565 99.8118 13.0454 98.9907 13.0454Z" fill="#061D61"/>
<path d="M116.938 23.5273C116.553 23.5273 115.941 23.1084 115.103 22.2705C114.332 22.6392 113.654 22.9157 113.067 23.1C112.481 23.2927 111.982 23.3891 111.572 23.3891C109.552 23.3891 108.036 22.8486 107.022 21.7678C106.016 20.6869 105.514 19.0698 105.514 16.9164C105.514 14.8971 106.259 13.1711 107.751 11.7383C109.242 10.2971 111.027 9.57652 113.105 9.57652C113.901 9.57652 114.823 9.80275 115.87 10.2552C117.135 10.7998 117.768 11.4324 117.768 12.153C117.768 12.4547 117.671 12.7186 117.479 12.9448C117.395 13.28 117.328 13.7031 117.278 14.2142C117.236 14.717 117.215 15.3077 117.215 15.9863C117.215 17.5867 117.328 18.7388 117.554 19.4426C117.579 19.518 117.772 19.9537 118.132 20.7497C118.459 21.4703 118.622 21.8809 118.622 21.9814C118.622 22.4255 118.451 22.7942 118.107 23.0874C117.772 23.3807 117.382 23.5273 116.938 23.5273ZM113.821 14.9055C113.821 14.6374 113.838 14.3315 113.872 13.988C113.913 13.6361 113.972 13.2465 114.047 12.8191C113.88 12.7353 113.729 12.6767 113.595 12.6432C113.469 12.6013 113.36 12.5803 113.268 12.5803C112.129 12.5803 111.132 13.0286 110.277 13.9251C109.422 14.8133 108.995 15.8439 108.995 17.0169C108.995 18.1397 109.196 18.986 109.598 19.5557C110 20.1171 110.604 20.3978 111.408 20.3978C111.928 20.3978 112.418 20.314 112.879 20.1465C113.348 19.9705 113.788 19.7149 114.198 19.3798C113.947 17.3856 113.821 15.8942 113.821 14.9055Z" fill="#061D61"/>
<path d="M132.887 12.0776C131.974 13.9796 130.529 16.9667 128.551 21.0388C127.479 23.2257 126.662 25.0397 126.1 26.4809C125.925 27.0004 125.648 27.7712 125.271 28.7934C124.969 29.5811 124.433 29.9749 123.662 29.9749C123.185 29.9749 122.766 29.8199 122.405 29.5098C122.045 29.1998 121.865 28.8102 121.865 28.341C121.865 27.5618 122.753 25.2534 124.529 21.4159C123.608 19.5976 122.146 16.9206 120.143 13.3847C119.942 13.0663 119.737 12.7437 119.527 12.417C119.301 12.0315 119.188 11.6796 119.188 11.3612C119.188 10.9088 119.368 10.5108 119.728 10.1672C120.089 9.82369 120.503 9.65193 120.973 9.65193C121.526 9.65193 121.957 9.85721 122.267 10.2678C123.457 11.8514 124.844 14.2352 126.427 17.4191C127.324 15.4333 127.868 14.2352 128.061 13.8246C128.656 12.5762 129.238 11.4785 129.808 10.5317C130.168 9.92843 130.663 9.62679 131.291 9.62679C131.76 9.62679 132.179 9.78599 132.548 10.1044C132.917 10.4228 133.101 10.8124 133.101 11.2732C133.101 11.5162 133.03 11.7843 132.887 12.0776Z" fill="#061D61"/>
<path d="M11.685 7.97865H6.30811C5.44729 7.97865 4.74707 7.27843 4.74707 6.41761C4.74707 5.55679 5.44729 4.85657 6.30811 4.85657H13.9334C14.4152 4.85657 14.8007 4.47113 14.8007 3.98933C14.8007 3.50753 14.4152 3.12209 13.9334 3.12209H10.8114C9.95053 3.12209 9.25031 2.42187 9.25031 1.56105C9.25031 0.700227 9.95053 7.62939e-06 10.8114 7.62939e-06H14.987C16.2075 7.62939e-06 17.3896 0.436842 18.3275 1.227L33.6102 14.1778C33.9635 14.4733 33.9571 15.013 33.6038 15.3085L18.3146 27.9445C17.3896 28.709 16.2268 29.1266 15.0255 29.1266H8.73639C7.87557 29.1266 7.17535 28.4263 7.17535 27.5655C7.17535 26.7047 7.87557 26.0045 8.73639 26.0045H13.7664C14.3381 26.0045 14.8071 25.5419 14.8071 24.9638C14.8071 24.392 14.3446 23.9231 13.7664 23.9231H10.6443C9.87987 23.9231 9.25674 23.3 9.25674 22.5355C9.25674 21.771 9.87987 21.1479 10.6443 21.1479H15.5009C16.2653 21.1479 16.8885 20.5248 16.8885 19.7603C16.8885 18.9959 16.2653 18.3727 15.5009 18.3727H14.1133C13.3488 18.3727 12.7257 17.7496 12.7257 16.9851C12.7257 16.2207 13.3488 15.5975 14.1133 15.5975H17.5823C18.154 15.5975 18.623 15.135 18.623 14.5569C18.623 13.9787 18.1604 13.5162 17.5823 13.5162H9.26316C8.4987 13.5162 7.87557 12.893 7.87557 12.1286C7.87557 11.3641 8.4987 10.741 9.26316 10.741H11.6914C12.4559 10.741 13.079 10.1179 13.079 9.35339C13.0726 8.60178 12.4559 7.97865 11.685 7.97865Z" fill="#061D61"/>
<path d="M2.15259 7.8823C3.01473 7.8823 3.71363 7.1834 3.71363 6.32126C3.71363 5.45912 3.01473 4.76022 2.15259 4.76022C1.29045 4.76022 0.591553 5.45912 0.591553 6.32126C0.591553 7.1834 1.29045 7.8823 2.15259 7.8823Z" fill="#061D61"/>
<path d="M6.3147 23.9295C7.17684 23.9295 7.87574 23.2306 7.87574 22.3685C7.87574 21.5063 7.17684 20.8074 6.3147 20.8074C5.45256 20.8074 4.75366 21.5063 4.75366 22.3685C4.75366 23.2306 5.45256 23.9295 6.3147 23.9295Z" fill="#061D61"/>
<path d="M1.38759 10.7025H5.55036C6.31482 10.7025 6.93795 11.3256 6.93795 12.09C6.93795 12.8545 6.31482 13.4776 5.55036 13.4776H1.38759C0.623131 13.4776 0 12.8545 0 12.09C0 11.3256 0.616707 10.7025 1.38759 10.7025Z" fill="#061D61"/>
<path d="M5.44692 15.604H10.3035C11.0679 15.604 11.6911 16.2271 11.6911 16.9916C11.6911 17.756 11.0679 18.3792 10.3035 18.3792H5.44692C4.68246 18.3792 4.05933 17.756 4.05933 16.9916C4.05933 16.2271 4.68246 15.604 5.44692 15.604Z" fill="#061D61"/>
</svg>
