<svg width="268" height="11" viewBox="0 0 268 11" fill="none" xmlns="http://www.w3.org/2000/svg">
<path d="M6.82946 8.24969H5.96463V3.40869L3.80702 8.24969H3.00461L0.864827 3.40869V8.24969H0V2.03181H1.18579L3.41473 7.09206L5.6615 2.03181H6.82946V8.24969Z" fill="#003366"/>
<path d="M8.03671 7.11837C8.03671 6.75588 8.15559 6.46647 8.39334 6.25015C8.63109 6.02798 8.94612 5.89058 9.33841 5.83796L10.4975 5.67133C10.7174 5.6421 10.8273 5.53686 10.8273 5.35561C10.8273 5.13344 10.7501 4.9522 10.5955 4.81188C10.441 4.67156 10.2092 4.6014 9.9001 4.6014C9.6148 4.6014 9.38893 4.68033 9.2225 4.83819C9.05608 4.9902 8.958 5.19483 8.92828 5.45208L8.12587 5.26791C8.16747 4.8645 8.3547 4.53709 8.68756 4.28568C9.02041 4.02843 9.41865 3.8998 9.88227 3.8998C10.4885 3.8998 10.9373 4.04597 11.2285 4.3383C11.5198 4.62479 11.6654 4.99312 11.6654 5.44331V7.55687C11.6654 7.80827 11.6832 8.03922 11.7189 8.24969H10.8987C10.8689 8.0743 10.8541 7.88428 10.8541 7.67965C10.7352 7.86674 10.5599 8.03045 10.3281 8.17077C10.1022 8.31108 9.81689 8.38124 9.47214 8.38124C9.05013 8.38124 8.70539 8.25846 8.43792 8.01291C8.17045 7.7615 8.03671 7.46332 8.03671 7.11837ZM9.58805 7.68842C9.96251 7.68842 10.2627 7.58903 10.4885 7.39024C10.7144 7.19145 10.8273 6.87574 10.8273 6.44309V6.25015L9.51672 6.44309C9.32652 6.47232 9.17495 6.53956 9.06202 6.6448C8.94909 6.75003 8.89262 6.89328 8.89262 7.07452C8.89262 7.23823 8.95503 7.38147 9.07985 7.50425C9.21062 7.62703 9.38002 7.68842 9.58805 7.68842Z" fill="#003366"/>
<path d="M13.4703 6.12737C13.4703 6.57171 13.5803 6.9342 13.8002 7.21484C14.026 7.49548 14.3351 7.6358 14.7274 7.6358C15.1019 7.6358 15.402 7.49256 15.6279 7.20607C15.8538 6.91959 15.9667 6.55417 15.9667 6.10983C15.9667 5.67133 15.8567 5.31761 15.6368 5.04867C15.4169 4.77972 15.1167 4.64525 14.7363 4.64525C14.3559 4.64525 14.0498 4.78264 13.818 5.05744C13.5862 5.33223 13.4703 5.68887 13.4703 6.12737ZM15.9756 7.67965V7.60949C15.8627 7.82581 15.6903 8.00706 15.4585 8.15323C15.2326 8.29354 14.9622 8.3637 14.6472 8.3637C14.035 8.3637 13.5416 8.15323 13.1672 7.73227C12.7986 7.30546 12.6144 6.7705 12.6144 6.12737C12.6144 5.51347 12.8046 4.99312 13.185 4.56632C13.5654 4.13367 14.0528 3.91734 14.6472 3.91734C14.9979 3.91734 15.2832 3.9875 15.5031 4.12782C15.723 4.26229 15.8746 4.42892 15.9578 4.62771V1.90026H16.787V7.46917C16.787 7.75565 16.8018 8.01583 16.8315 8.24969H16.0202C15.9905 8.08599 15.9756 7.89597 15.9756 7.67965Z" fill="#003366"/>
<path d="M18.7564 5.70641H21.1012C21.0893 5.39069 20.9823 5.13344 20.7802 4.93466C20.5781 4.73002 20.2928 4.62771 19.9243 4.62771C19.5915 4.62771 19.3181 4.73587 19.1041 4.9522C18.8901 5.16268 18.7742 5.41408 18.7564 5.70641ZM21.226 6.80265L21.9482 7.04821C21.8234 7.43994 21.5916 7.7615 21.2528 8.01291C20.914 8.25846 20.5038 8.38124 20.0224 8.38124C19.4221 8.38124 18.9109 8.17953 18.4889 7.77612C18.0728 7.36685 17.8648 6.81727 17.8648 6.12737C17.8648 5.48424 18.0669 4.9522 18.4711 4.53124C18.8752 4.11028 19.3567 3.8998 19.9154 3.8998C20.5633 3.8998 21.0685 4.10151 21.4311 4.50493C21.7937 4.9025 21.9749 5.43747 21.9749 6.10983C21.9749 6.21507 21.969 6.30277 21.9571 6.37293H18.7296C18.7356 6.74711 18.8604 7.05406 19.1041 7.29377C19.3537 7.53348 19.6598 7.65334 20.0224 7.65334C20.6346 7.65334 21.0358 7.36978 21.226 6.80265Z" fill="#003366"/>
<path d="M27.6899 4.03135H28.5547L29.6692 7.20607L30.6142 4.03135H31.4969L30.106 8.24969H29.2412L28.1 5.0399L26.9855 8.24969H26.1029L24.6942 4.03135H25.6125L26.5754 7.20607L27.6899 4.03135Z" fill="#003366"/>
<path d="M33.1728 8.24969H32.3436V4.03135H33.1728V8.24969ZM32.3258 2.85618C32.2128 2.73925 32.1564 2.59893 32.1564 2.43522C32.1564 2.27152 32.2128 2.1312 32.3258 2.01427C32.4447 1.89733 32.5873 1.83887 32.7537 1.83887C32.9202 1.83887 33.0628 1.89733 33.1817 2.01427C33.3006 2.12535 33.36 2.26567 33.36 2.43522C33.36 2.59893 33.3006 2.73925 33.1817 2.85618C33.0628 2.96727 32.9202 3.02281 32.7537 3.02281C32.5873 3.02281 32.4447 2.96727 32.3258 2.85618Z" fill="#003366"/>
<path d="M35.722 2.69832V4.03135H36.6493V4.7768H35.722V6.96928C35.722 7.16807 35.7666 7.31423 35.8558 7.40778C35.9509 7.50133 36.1054 7.5481 36.3194 7.5481C36.4442 7.5481 36.5542 7.53641 36.6493 7.51302V8.21461C36.5066 8.26723 36.3164 8.29354 36.0787 8.29354C35.7102 8.29354 35.4189 8.18831 35.2049 7.97783C34.991 7.76735 34.884 7.47209 34.884 7.09206V4.7768H34.0637V4.03135H34.2955C34.5155 4.03135 34.6789 3.97289 34.7859 3.85595C34.8988 3.73317 34.9553 3.57532 34.9553 3.38238V2.69832H35.722Z" fill="#003366"/>
<path d="M38.606 5.7678V8.24969H37.7679V1.90026H38.606V4.52247C38.8913 4.11321 39.3252 3.90857 39.9077 3.90857C40.4011 3.90857 40.7785 4.06351 41.04 4.37338C41.3075 4.68325 41.4412 5.08375 41.4412 5.57486V8.24969H40.6031V5.71518C40.6031 5.00774 40.2703 4.65402 39.6046 4.65402C39.2955 4.65402 39.0548 4.75926 38.8824 4.96974C38.71 5.17437 38.6179 5.44039 38.606 5.7678Z" fill="#003366"/>
<path d="M56.9771 8.24969H56.148V4.03135H56.9771V8.24969ZM56.1301 2.85618C56.0172 2.73925 55.9607 2.59893 55.9607 2.43522C55.9607 2.27152 56.0172 2.1312 56.1301 2.01427C56.249 1.89733 56.3917 1.83887 56.5581 1.83887C56.7245 1.83887 56.8672 1.89733 56.986 2.01427C57.1049 2.12535 57.1644 2.26567 57.1644 2.43522C57.1644 2.59893 57.1049 2.73925 56.986 2.85618C56.8672 2.96727 56.7245 3.02281 56.5581 3.02281C56.3917 3.02281 56.249 2.96727 56.1301 2.85618Z" fill="#003366"/>
<path d="M59.2411 5.81165V8.24969H58.403V4.03135H59.2233V4.63648C59.5086 4.15121 59.9484 3.90857 60.5428 3.90857C61.0361 3.90857 61.4136 4.06351 61.6751 4.37338C61.9426 4.68325 62.0763 5.08375 62.0763 5.57486V8.24969H61.2382V5.71518C61.2382 5.00774 60.9054 4.65402 60.2397 4.65402C59.9246 4.65402 59.678 4.7651 59.4996 4.98728C59.3273 5.2036 59.2411 5.47839 59.2411 5.81165Z" fill="#003366"/>
<path d="M68.4646 8.38124C67.6028 8.38124 66.8628 8.08891 66.2446 7.50425C65.6324 6.91959 65.3263 6.13029 65.3263 5.13636C65.3263 4.46985 65.4808 3.88519 65.7899 3.38238C66.099 2.87957 66.4883 2.50831 66.9579 2.26859C67.4274 2.02304 67.9297 1.90026 68.4646 1.90026C69.1779 1.90026 69.7782 2.07858 70.2656 2.43522C70.759 2.78602 71.0859 3.26544 71.2464 3.87349L70.435 4.15413C70.3161 3.6864 70.0873 3.32683 69.7485 3.07543C69.4097 2.81818 68.9818 2.68955 68.4646 2.68955C67.8465 2.68955 67.3175 2.90588 66.8776 3.33853C66.4378 3.76533 66.2179 4.36461 66.2179 5.13636C66.2179 5.90812 66.4378 6.51032 66.8776 6.94297C67.3175 7.37562 67.8465 7.59195 68.4646 7.59195C68.9818 7.59195 69.4127 7.45748 69.7574 7.18853C70.1022 6.91374 70.3429 6.55125 70.4796 6.10106L71.2553 6.3817C71.0829 6.9839 70.75 7.46917 70.2567 7.83751C69.7693 8.2 69.172 8.38124 68.4646 8.38124Z" fill="#003366"/>
<path d="M73.0762 5.7678V8.24969H72.2381V1.90026H73.0762V4.52247C73.3615 4.11321 73.7954 3.90857 74.3779 3.90857C74.8712 3.90857 75.2486 4.06351 75.5102 4.37338C75.7776 4.68325 75.9114 5.08375 75.9114 5.57486V8.24969H75.0733V5.71518C75.0733 5.00774 74.7404 4.65402 74.0747 4.65402C73.7657 4.65402 73.5249 4.75926 73.3526 4.96974C73.1802 5.17437 73.0881 5.44039 73.0762 5.7678Z" fill="#003366"/>
<path d="M77.7884 5.70641H80.1332C80.1213 5.39069 80.0143 5.13344 79.8122 4.93466C79.6101 4.73002 79.3248 4.62771 78.9563 4.62771C78.6235 4.62771 78.35 4.73587 78.1361 4.9522C77.9221 5.16268 77.8062 5.41408 77.7884 5.70641ZM80.258 6.80265L80.9802 7.04821C80.8554 7.43994 80.6236 7.7615 80.2848 8.01291C79.946 8.25846 79.5358 8.38124 79.0544 8.38124C78.4541 8.38124 77.9429 8.17953 77.5209 7.77612C77.1048 7.36685 76.8968 6.81727 76.8968 6.12737C76.8968 5.48424 77.0989 4.9522 77.503 4.53124C77.9072 4.11028 78.3887 3.8998 78.9474 3.8998C79.5953 3.8998 80.1005 4.10151 80.4631 4.50493C80.8256 4.9025 81.0069 5.43747 81.0069 6.10983C81.0069 6.21507 81.001 6.30277 80.9891 6.37293H77.7616C77.7675 6.74711 77.8924 7.05406 78.1361 7.29377C78.3857 7.53348 78.6918 7.65334 79.0544 7.65334C79.6666 7.65334 80.0678 7.36978 80.258 6.80265Z" fill="#003366"/>
<path d="M82.9148 5.81165V8.24969H82.0768V4.03135H82.897V4.63648C83.1823 4.15121 83.6221 3.90857 84.2165 3.90857C84.7099 3.90857 85.0873 4.06351 85.3488 4.37338C85.6163 4.68325 85.75 5.08375 85.75 5.57486V8.24969H84.912V5.71518C84.912 5.00774 84.5791 4.65402 83.9134 4.65402C83.5984 4.65402 83.3517 4.7651 83.1734 4.98728C83.001 5.2036 82.9148 5.47839 82.9148 5.81165Z" fill="#003366"/>
<path d="M87.9212 5.81165V8.24969H87.0832V4.03135H87.9034V4.63648C88.1887 4.15121 88.6285 3.90857 89.2229 3.90857C89.7163 3.90857 90.0937 4.06351 90.3552 4.37338C90.6227 4.68325 90.7564 5.08375 90.7564 5.57486V8.24969H89.9184V5.71518C89.9184 5.00774 89.5855 4.65402 88.9198 4.65402C88.6048 4.65402 88.3581 4.7651 88.1798 4.98728C88.0074 5.2036 87.9212 5.47839 87.9212 5.81165Z" fill="#003366"/>
<path d="M91.8221 7.11837C91.8221 6.75588 91.941 6.46647 92.1787 6.25015C92.4165 6.02798 92.7315 5.89058 93.1238 5.83796L94.2828 5.67133C94.5027 5.6421 94.6127 5.53686 94.6127 5.35561C94.6127 5.13344 94.5354 4.9522 94.3809 4.81188C94.2264 4.67156 93.9945 4.6014 93.6855 4.6014C93.4002 4.6014 93.1743 4.68033 93.0079 4.83819C92.8414 4.9902 92.7434 5.19483 92.7137 5.45208L91.9112 5.26791C91.9528 4.8645 92.1401 4.53709 92.4729 4.28568C92.8058 4.02843 93.204 3.8998 93.6676 3.8998C94.2739 3.8998 94.7227 4.04597 95.0139 4.3383C95.3052 4.62479 95.4508 4.99312 95.4508 5.44331V7.55687C95.4508 7.80827 95.4686 8.03922 95.5043 8.24969H94.684C94.6543 8.0743 94.6395 7.88428 94.6395 7.67965C94.5206 7.86674 94.3452 8.03045 94.1134 8.17077C93.8876 8.31108 93.6022 8.38124 93.2575 8.38124C92.8355 8.38124 92.4908 8.25846 92.2233 8.01291C91.9558 7.7615 91.8221 7.46332 91.8221 7.11837ZM93.3734 7.68842C93.7479 7.68842 94.048 7.58903 94.2739 7.39024C94.4998 7.19145 94.6127 6.87574 94.6127 6.44309V6.25015L93.3021 6.44309C93.1119 6.47232 92.9603 6.53956 92.8474 6.6448C92.7345 6.75003 92.678 6.89328 92.678 7.07452C92.678 7.23823 92.7404 7.38147 92.8652 7.50425C92.996 7.62703 93.1654 7.68842 93.3734 7.68842Z" fill="#003366"/>
<path d="M97.5856 8.24969H96.7564V4.03135H97.5856V8.24969ZM96.7386 2.85618C96.6256 2.73925 96.5692 2.59893 96.5692 2.43522C96.5692 2.27152 96.6256 2.1312 96.7386 2.01427C96.8574 1.89733 97.0001 1.83887 97.1665 1.83887C97.3329 1.83887 97.4756 1.89733 97.5945 2.01427C97.7133 2.12535 97.7728 2.26567 97.7728 2.43522C97.7728 2.59893 97.7133 2.73925 97.5945 2.85618C97.4756 2.96727 97.3329 3.02281 97.1665 3.02281C97.0001 3.02281 96.8574 2.96727 96.7386 2.85618Z" fill="#003366"/>
<g clip-path="url(#clip0_4088_2253)">
<path d="M50.724 1.88965C52.0031 1.88965 53.0397 2.925 53.0397 4.37449C53.0397 7.27348 49.882 8.93004 48.8294 9.55125C47.7768 8.93004 44.6191 7.27348 44.6191 4.37449C44.6191 2.925 45.6717 1.88965 46.9348 1.88965C47.7179 1.88965 48.4084 2.30379 48.8294 2.71793C49.2504 2.30379 49.9409 1.88965 50.724 1.88965Z" fill="#FF5353"/>
</g>
<path d="M101.71 0.647461V9.70669" stroke="#003366" stroke-width="0.866665"/>
<path d="M108.697 8.29029C108.105 8.29029 107.577 8.14413 107.114 7.8518C106.658 7.55362 106.299 7.13851 106.038 6.60646C105.777 6.07442 105.647 5.45176 105.647 4.73847C105.647 4.08364 105.754 3.51067 105.967 3.01956C106.187 2.52844 106.474 2.11918 106.83 1.79177C107.191 1.45851 107.592 1.21003 108.03 1.04632C108.469 0.876769 108.914 0.791992 109.364 0.791992C109.839 0.791992 110.242 0.850459 110.574 0.967391C110.906 1.08432 111.19 1.24511 111.428 1.44974C111.653 1.64268 111.834 1.87362 111.97 2.14256C112.107 2.40566 112.207 2.73015 112.273 3.11603C112.338 3.5019 112.37 3.9784 112.37 4.54553V8.18505H111.606V4.98402C111.606 4.18304 111.555 3.54868 111.454 3.08095C111.359 2.60737 111.176 2.23611 110.903 1.96716C110.565 1.62221 110.052 1.44974 109.364 1.44974C109.062 1.44974 108.739 1.5082 108.395 1.62514C108.051 1.74207 107.728 1.93208 107.426 2.19518C107.129 2.45828 106.886 2.80323 106.696 3.23004C106.507 3.65684 106.412 4.18304 106.412 4.80863C106.412 5.44591 106.521 5.98088 106.741 6.41353C106.966 6.84033 107.257 7.16189 107.612 7.37822C107.553 7.25544 107.506 7.12389 107.47 6.98357C107.44 6.83741 107.426 6.67662 107.426 6.50122C107.426 6.25567 107.482 6.03057 107.595 5.82594C107.707 5.61546 107.879 5.44591 108.11 5.31728C108.342 5.18866 108.632 5.12434 108.982 5.12434C109.415 5.12434 109.773 5.25882 110.058 5.52776C110.349 5.79671 110.494 6.17674 110.494 6.66785C110.494 7.04788 110.411 7.35776 110.245 7.59747C110.085 7.83718 109.868 8.01258 109.596 8.12366C109.329 8.23475 109.029 8.29029 108.697 8.29029ZM108.119 6.68539C108.119 6.86079 108.143 7.03034 108.19 7.19405C108.238 7.35776 108.312 7.50977 108.413 7.65009C108.537 7.66763 108.665 7.6764 108.795 7.6764C109.098 7.6764 109.338 7.59454 109.516 7.43084C109.699 7.26129 109.791 7.00696 109.791 6.66785C109.791 6.40476 109.717 6.18843 109.569 6.01888C109.427 5.84348 109.225 5.75578 108.964 5.75578C108.709 5.75578 108.505 5.83763 108.351 6.00134C108.196 6.16504 108.119 6.39306 108.119 6.68539Z" fill="#003366"/>
<path d="M115.477 8.29029C115.122 8.29029 114.801 8.23475 114.517 8.12366C114.232 8.01258 114.007 7.84887 113.841 7.63255C113.675 7.41622 113.592 7.15605 113.592 6.85202C113.592 6.548 113.669 6.2849 113.823 6.06273C113.983 5.83471 114.235 5.65639 114.579 5.52776V3.32651H119.23V3.95794H117.567V5.30851H119.23V5.92241H117.567V6.20305C117.567 6.59477 117.532 6.90172 117.461 7.12389C117.395 7.34606 117.301 7.53315 117.176 7.68517C116.992 7.90734 116.755 8.0652 116.465 8.15874C116.18 8.24644 115.851 8.29029 115.477 8.29029ZM115.282 3.95794V5.36113C115.531 5.32605 115.806 5.30851 116.109 5.30851H116.811V3.95794H115.282ZM115.549 7.65886C115.809 7.65886 116.032 7.62085 116.216 7.54485C116.405 7.463 116.551 7.3256 116.651 7.13266C116.758 6.93388 116.811 6.66201 116.811 6.31706V5.92241H116.047C115.744 5.92241 115.486 5.93995 115.273 5.97503C115.065 6.01011 114.887 6.06857 114.739 6.15043C114.484 6.29659 114.357 6.52753 114.357 6.84325C114.357 7.1122 114.469 7.31683 114.695 7.45715C114.92 7.59162 115.205 7.65886 115.549 7.65886Z" fill="#003366"/>
<path d="M121.797 8.29029C121.483 8.29029 121.196 8.21429 120.935 8.06227C120.674 7.90442 120.466 7.66178 120.312 7.33437C120.164 7.00696 120.09 6.58015 120.09 6.05396C120.09 5.47514 120.217 4.97525 120.472 4.5543C120.733 4.12749 121.098 3.80008 121.566 3.57206C122.035 3.3382 122.583 3.22127 123.212 3.22127C123.627 3.22127 124.012 3.26804 124.368 3.36159C124.729 3.45513 125.079 3.60422 125.417 3.80885C125.589 3.71531 125.773 3.63345 125.968 3.56329C126.17 3.48729 126.413 3.42882 126.698 3.3879C126.982 3.34697 127.332 3.32651 127.747 3.32651H130.406V3.95794H128.894V8.18505H128.13V3.95794H127.543C127.217 3.95794 126.923 3.9784 126.662 4.01933C126.401 4.05441 126.155 4.13042 125.924 4.24735C126.226 4.52214 126.466 4.8554 126.644 5.24712C126.828 5.633 126.92 6.0598 126.92 6.52753C126.92 7.1122 126.79 7.55362 126.529 7.8518C126.274 8.14413 125.924 8.29029 125.479 8.29029C125.135 8.29029 124.854 8.21429 124.634 8.06227C124.421 7.91026 124.261 7.70563 124.154 7.44838C124.053 7.18528 124.003 6.8871 124.003 6.55384C124.003 5.65346 124.294 4.88463 124.875 4.24735C124.62 4.10703 124.344 4.01056 124.048 3.95794C123.757 3.89948 123.449 3.87024 123.123 3.87024C122.47 3.87024 121.949 4.03687 121.557 4.37013C121.166 4.69754 120.923 5.12142 120.828 5.64177C120.982 5.53653 121.151 5.45468 121.335 5.39621C121.519 5.33775 121.709 5.30851 121.904 5.30851C122.331 5.30851 122.675 5.43714 122.936 5.69439C123.203 5.95164 123.336 6.29952 123.336 6.73801C123.336 7.22328 123.197 7.60331 122.918 7.87811C122.645 8.1529 122.272 8.29029 121.797 8.29029ZM124.75 6.52753C124.75 6.93095 124.812 7.22621 124.937 7.4133C125.061 7.60039 125.233 7.69394 125.453 7.69394C125.636 7.69394 125.779 7.63839 125.88 7.52731C125.986 7.41622 126.06 7.2759 126.102 7.10635C126.143 6.9368 126.164 6.76432 126.164 6.58892C126.164 5.79963 125.903 5.14481 125.382 4.62446C125.174 4.84663 125.017 5.13019 124.91 5.47514C124.803 5.82009 124.75 6.17089 124.75 6.52753ZM121.78 5.92241C121.596 5.92241 121.421 5.96041 121.255 6.03642C121.095 6.10658 120.941 6.20305 120.793 6.32583C120.822 6.82864 120.932 7.18236 121.122 7.38699C121.317 7.59162 121.554 7.69394 121.833 7.69394C122.076 7.69394 122.266 7.62085 122.402 7.47469C122.539 7.32268 122.607 7.10635 122.607 6.82571C122.607 6.53338 122.53 6.31121 122.376 6.1592C122.221 6.00134 122.023 5.92241 121.78 5.92241ZM125.079 2.23903C124.907 2.23903 124.765 2.18641 124.652 2.08117C124.54 1.97009 124.483 1.82685 124.483 1.65145C124.483 1.48189 124.54 1.34158 124.652 1.23049C124.765 1.1194 124.907 1.06386 125.079 1.06386C125.251 1.06386 125.393 1.1194 125.506 1.23049C125.619 1.34158 125.675 1.48189 125.675 1.65145C125.675 1.82685 125.619 1.97009 125.506 2.08117C125.393 2.18641 125.251 2.23903 125.079 2.23903Z" fill="#003366"/>
<path d="M132.497 8.29029C132.183 8.29029 131.896 8.21429 131.635 8.06227C131.374 7.90442 131.166 7.66178 131.012 7.33437C130.864 7.00696 130.79 6.58015 130.79 6.05396C130.79 5.47514 130.917 4.97525 131.172 4.5543C131.433 4.12749 131.795 3.80008 132.257 3.57206C132.726 3.3382 133.277 3.22127 133.911 3.22127C134.315 3.22127 134.691 3.26512 135.041 3.35282C135.391 3.44052 135.726 3.57791 136.046 3.765C136.271 3.5896 136.517 3.45513 136.784 3.36159C137.057 3.26804 137.344 3.22127 137.647 3.22127C138.204 3.22127 138.657 3.3382 139.007 3.57206C139.357 3.80008 139.615 4.10411 139.781 4.48414C139.947 4.86417 140.03 5.27928 140.03 5.72947C140.03 6.13289 139.988 6.49246 139.905 6.80817C139.828 7.11804 139.728 7.39576 139.603 7.64132C139.485 7.88103 139.357 8.09735 139.221 8.29029L138.58 7.90442C138.77 7.64132 138.927 7.34314 139.052 7.00988C139.182 6.67078 139.247 6.25567 139.247 5.76455C139.247 5.19158 139.102 4.73262 138.812 4.38767C138.521 4.04272 138.112 3.87024 137.584 3.87024C137.175 3.87024 136.822 3.96379 136.526 4.15088C136.882 4.44906 137.151 4.8057 137.335 5.22081C137.525 5.63008 137.62 6.06565 137.62 6.52753C137.62 7.1122 137.489 7.55362 137.229 7.8518C136.974 8.14413 136.624 8.29029 136.179 8.29029C135.835 8.29029 135.554 8.21429 135.334 8.06227C135.121 7.91026 134.961 7.70563 134.854 7.44838C134.753 7.18528 134.703 6.8871 134.703 6.55384C134.703 6.05103 134.78 5.61254 134.934 5.23835C135.088 4.86417 135.293 4.52799 135.548 4.22981C135.293 4.09534 135.02 4.00179 134.73 3.94917C134.445 3.89655 134.143 3.87024 133.822 3.87024C133.17 3.87024 132.648 4.03687 132.257 4.37013C131.866 4.69754 131.623 5.12142 131.528 5.64177C131.688 5.53653 131.86 5.45468 132.044 5.39621C132.228 5.33775 132.414 5.30851 132.604 5.30851C133.031 5.30851 133.375 5.43714 133.636 5.69439C133.902 5.95164 134.036 6.29952 134.036 6.73801C134.036 7.22328 133.897 7.60331 133.618 7.87811C133.345 8.1529 132.972 8.29029 132.497 8.29029ZM135.45 6.52753C135.45 6.93095 135.512 7.22621 135.637 7.4133C135.761 7.60039 135.933 7.69394 136.152 7.69394C136.336 7.69394 136.479 7.63839 136.579 7.52731C136.686 7.41622 136.76 7.2759 136.802 7.10635C136.843 6.9368 136.864 6.76432 136.864 6.58892C136.864 6.17966 136.793 5.8084 136.65 5.47514C136.514 5.14188 136.313 4.84663 136.046 4.58938C135.838 4.85832 135.687 5.1565 135.592 5.48391C135.497 5.80548 135.45 6.15335 135.45 6.52753ZM132.48 5.92241C132.296 5.92241 132.121 5.96041 131.955 6.03642C131.795 6.10658 131.641 6.20305 131.492 6.32583C131.522 6.82864 131.635 7.18236 131.83 7.38699C132.026 7.59162 132.263 7.69394 132.542 7.69394C132.779 7.69394 132.966 7.62085 133.102 7.47469C133.238 7.32268 133.307 7.10635 133.307 6.82571C133.307 6.53338 133.23 6.31121 133.075 6.1592C132.921 6.00134 132.723 5.92241 132.48 5.92241Z" fill="#003366"/>
<path d="M142.815 8.29029C142.501 8.29029 142.213 8.21429 141.952 8.06227C141.691 7.90442 141.484 7.66178 141.33 7.33437C141.182 7.00696 141.107 6.58015 141.107 6.05396C141.107 5.47514 141.235 4.97525 141.49 4.5543C141.751 4.12749 142.115 3.80008 142.584 3.57206C143.052 3.3382 143.601 3.22127 144.229 3.22127C144.644 3.22127 145.029 3.26804 145.385 3.36159C145.747 3.45513 146.097 3.60422 146.435 3.80885C146.606 3.71531 146.79 3.63345 146.986 3.56329C147.188 3.48729 147.431 3.42882 147.715 3.3879C148 3.34697 148.35 3.32651 148.765 3.32651H151.424V3.95794H149.912V8.18505H149.147V3.95794H148.56C148.234 3.95794 147.94 3.9784 147.68 4.01933C147.419 4.05441 147.173 4.13042 146.941 4.24735C147.244 4.52214 147.484 4.8554 147.662 5.24712C147.846 5.633 147.938 6.0598 147.938 6.52753C147.938 7.1122 147.807 7.55362 147.546 7.8518C147.291 8.14413 146.941 8.29029 146.497 8.29029C146.153 8.29029 145.871 8.21429 145.652 8.06227C145.438 7.91026 145.278 7.70563 145.172 7.44838C145.071 7.18528 145.021 6.8871 145.021 6.55384C145.021 5.65346 145.311 4.88463 145.892 4.24735C145.637 4.10703 145.361 4.01056 145.065 3.95794C144.774 3.89948 144.466 3.87024 144.14 3.87024C143.488 3.87024 142.966 4.03687 142.575 4.37013C142.184 4.69754 141.94 5.12142 141.846 5.64177C142 5.53653 142.169 5.45468 142.353 5.39621C142.536 5.33775 142.726 5.30851 142.922 5.30851C143.349 5.30851 143.692 5.43714 143.953 5.69439C144.22 5.95164 144.354 6.29952 144.354 6.73801C144.354 7.22328 144.214 7.60331 143.936 7.87811C143.663 8.1529 143.289 8.29029 142.815 8.29029ZM145.768 6.52753C145.768 6.93095 145.83 7.22621 145.954 7.4133C146.079 7.60039 146.251 7.69394 146.47 7.69394C146.654 7.69394 146.796 7.63839 146.897 7.52731C147.004 7.41622 147.078 7.2759 147.119 7.10635C147.161 6.9368 147.182 6.76432 147.182 6.58892C147.182 5.79963 146.921 5.14481 146.399 4.62446C146.191 4.84663 146.034 5.13019 145.928 5.47514C145.821 5.82009 145.768 6.17089 145.768 6.52753ZM142.797 5.92241C142.613 5.92241 142.438 5.96041 142.272 6.03642C142.112 6.10658 141.958 6.20305 141.81 6.32583C141.84 6.82864 141.949 7.18236 142.139 7.38699C142.335 7.59162 142.572 7.69394 142.851 7.69394C143.094 7.69394 143.283 7.62085 143.42 7.47469C143.556 7.32268 143.624 7.10635 143.624 6.82571C143.624 6.53338 143.547 6.31121 143.393 6.1592C143.239 6.00134 143.04 5.92241 142.797 5.92241Z" fill="#003366"/>
<path d="M153.713 8.28152C153.286 8.28152 152.957 8.14413 152.725 7.86934C152.66 7.78164 152.598 7.68224 152.539 7.57116C152.485 7.46007 152.441 7.31391 152.405 7.13266C152.376 6.95142 152.361 6.7117 152.361 6.41353V3.32651H153.126V6.22936C153.126 6.4983 153.138 6.74386 153.161 6.96603C153.185 7.18236 153.256 7.34899 153.375 7.46592C153.434 7.52438 153.502 7.57116 153.579 7.60624C153.662 7.63547 153.76 7.65009 153.873 7.65009C154.033 7.65009 154.184 7.61208 154.326 7.53608C154.469 7.46007 154.602 7.33729 154.726 7.16774V3.32651H155.491V7.55362H158.595V3.32651H159.36V8.18505H154.726V7.87811C154.614 7.98335 154.475 8.07689 154.309 8.15874C154.142 8.2406 153.944 8.28152 153.713 8.28152Z" fill="#003366"/>
<path d="M158.985 0.791992C159.732 0.791992 160.349 0.993701 160.835 1.39712C161.001 1.53159 161.147 1.70114 161.271 1.90578C161.401 2.10456 161.502 2.36474 161.573 2.6863C161.65 3.00202 161.689 3.40544 161.689 3.89655V8.18505H160.924V4.14211C160.924 3.68023 160.897 3.30604 160.844 3.01956C160.797 2.72723 160.723 2.49628 160.622 2.32673C160.527 2.15133 160.411 2.00517 160.275 1.88823C160.109 1.73622 159.913 1.62514 159.688 1.55498C159.463 1.48482 159.234 1.44974 159.003 1.44974C158.523 1.44974 158.149 1.56667 157.883 1.80054C157.616 2.0344 157.482 2.35012 157.482 2.74769C157.482 3.16865 157.592 3.49313 157.812 3.72115C158.031 3.94333 158.327 4.08364 158.701 4.14211V4.76478C158.333 4.72385 157.998 4.62153 157.696 4.45783C157.394 4.29412 157.156 4.06903 156.984 3.78254C156.807 3.49606 156.718 3.14818 156.718 2.73892C156.718 2.30627 156.821 1.9467 157.029 1.66022C157.23 1.37373 157.503 1.15741 157.847 1.01124C158.191 0.865075 158.57 0.791992 158.985 0.791992Z" fill="#003366"/>
<path d="M164.684 8.29029C164.369 8.29029 164.082 8.21429 163.821 8.06227C163.56 7.91026 163.353 7.67055 163.198 7.34314C163.05 7.00988 162.976 6.58308 162.976 6.06273C162.976 5.43129 163.098 4.9051 163.341 4.48414C163.59 4.06318 163.919 3.74746 164.328 3.53698C164.737 3.32651 165.182 3.22127 165.662 3.22127C165.946 3.22127 166.237 3.25927 166.533 3.33528C166.83 3.41128 167.091 3.56037 167.316 3.78254C167.565 4.02225 167.734 4.31459 167.823 4.65954C167.912 5.00449 167.956 5.44299 167.956 5.97503C167.956 6.27905 167.98 6.548 168.027 6.78186C168.075 7.00988 168.173 7.1999 168.321 7.35191C168.499 7.54485 168.754 7.64132 169.086 7.64132C169.281 7.64132 169.459 7.59454 169.619 7.501C169.779 7.40745 169.907 7.24959 170.002 7.02742C170.097 6.80525 170.144 6.4983 170.144 6.10658C170.144 5.52776 170.037 5.01618 169.824 4.57184C169.616 4.12165 169.353 3.727 169.032 3.3879L169.726 2.92309C170.094 3.38497 170.384 3.87024 170.598 4.3789C170.811 4.88756 170.918 5.44299 170.918 6.04519C170.918 6.78771 170.755 7.34899 170.429 7.72902C170.108 8.1032 169.64 8.29029 169.024 8.29029C168.502 8.29029 168.087 8.14413 167.778 7.8518C167.387 7.49515 167.189 6.87541 167.183 5.99257C167.183 5.78209 167.171 5.56576 167.147 5.34359C167.123 5.12142 167.076 4.91094 167.005 4.71216C166.934 4.50752 166.821 4.33505 166.667 4.19473C166.548 4.08949 166.406 4.01056 166.24 3.95794C166.074 3.89948 165.869 3.87024 165.626 3.87024C165.093 3.87024 164.66 4.03395 164.328 4.36136C164.002 4.68877 163.797 5.11557 163.714 5.64177C163.874 5.53653 164.043 5.45468 164.221 5.39621C164.405 5.33775 164.595 5.30851 164.79 5.30851C165.217 5.30851 165.561 5.43714 165.822 5.69439C166.089 5.95164 166.222 6.29952 166.222 6.73801C166.222 7.22328 166.083 7.60331 165.804 7.87811C165.531 8.1529 165.158 8.29029 164.684 8.29029ZM164.666 5.92241C164.482 5.92241 164.307 5.96041 164.141 6.03642C163.981 6.10658 163.827 6.20305 163.679 6.32583C163.702 6.82864 163.812 7.18236 164.008 7.38699C164.203 7.59162 164.44 7.69394 164.719 7.69394C164.962 7.69394 165.152 7.62085 165.288 7.47469C165.425 7.32268 165.493 7.10635 165.493 6.82571C165.493 6.53338 165.416 6.31121 165.262 6.1592C165.107 6.00134 164.909 5.92241 164.666 5.92241ZM166.978 2.23903C166.806 2.23903 166.664 2.18641 166.551 2.08117C166.439 1.97009 166.382 1.82685 166.382 1.65145C166.382 1.48189 166.439 1.34158 166.551 1.23049C166.664 1.1194 166.806 1.06386 166.978 1.06386C167.15 1.06386 167.292 1.1194 167.405 1.23049C167.518 1.34158 167.574 1.48189 167.574 1.65145C167.574 1.82685 167.518 1.97009 167.405 2.08117C167.292 2.18641 167.15 2.23903 166.978 2.23903Z" fill="#003366"/>
<path d="M187.466 3.22127C188.1 3.22127 188.616 3.30897 189.013 3.48436C189.41 3.65392 189.701 3.88486 189.885 4.17719C190.074 4.46367 190.169 4.77939 190.169 5.12434C190.169 5.58038 190.06 5.9341 189.84 6.18551C189.621 6.43691 189.315 6.624 188.924 6.74678C188.533 6.86372 188.079 6.94849 187.563 7.00111L186.852 7.07127C186.526 7.1005 186.321 7.13558 186.238 7.17651C186.155 7.21744 186.114 7.2759 186.114 7.35191C186.114 7.48638 186.221 7.55362 186.434 7.55362H194.153V8.18505H186.514C186.099 8.18505 185.803 8.10612 185.625 7.94827C185.453 7.79041 185.367 7.59454 185.367 7.36068C185.367 7.09758 185.473 6.89295 185.687 6.74678C185.906 6.60062 186.286 6.50122 186.825 6.44861L187.51 6.38722C188.05 6.3346 188.453 6.2469 188.72 6.12412C188.992 5.99549 189.173 5.84348 189.262 5.66808C189.357 5.49268 189.404 5.31144 189.404 5.12434C189.404 4.77939 189.274 4.48998 189.013 4.25612C188.758 4.02225 188.391 3.88486 187.91 3.84393C188.005 3.96671 188.079 4.10411 188.133 4.25612C188.192 4.40813 188.222 4.57184 188.222 4.74724C188.222 5.12727 188.097 5.44006 187.848 5.68562C187.605 5.92533 187.246 6.04519 186.772 6.04519C186.345 6.04519 185.995 5.92241 185.723 5.67685C185.456 5.43129 185.322 5.10388 185.322 4.69462C185.322 4.36136 185.414 4.08657 185.598 3.87024C185.782 3.64807 186.034 3.48436 186.354 3.37913C186.68 3.27389 187.051 3.22127 187.466 3.22127ZM186.025 4.68585C186.025 4.90217 186.087 5.08342 186.212 5.22958C186.336 5.37575 186.529 5.44883 186.79 5.44883C187.015 5.44883 187.193 5.3816 187.323 5.24712C187.46 5.1068 187.528 4.91094 187.528 4.65954C187.528 4.51337 187.504 4.37013 187.457 4.22981C187.409 4.08949 187.329 3.95502 187.217 3.82639H187.154C186.834 3.82639 186.564 3.89655 186.345 4.03687C186.132 4.17719 186.025 4.39352 186.025 4.68585Z" fill="#003366"/>
<path d="M197.518 8.18505V3.32651H202.161V3.95794H200.604V5.69439C200.717 5.61254 200.856 5.54238 201.022 5.48391C201.188 5.4196 201.381 5.38744 201.601 5.38744C202.081 5.38744 202.469 5.57453 202.766 5.94872C203.068 6.31706 203.219 6.83448 203.219 7.501C203.219 8.12659 203.109 8.66155 202.89 9.1059C202.677 9.55024 202.383 9.90981 202.01 10.1846C201.636 10.4652 201.209 10.6699 200.729 10.7985C200.255 10.933 199.757 11.0002 199.235 11.0002H199.057C198.292 11.0002 197.643 10.8862 197.109 10.6582C196.582 10.4302 196.155 10.1261 195.829 9.7461C195.509 9.36607 195.274 8.94219 195.126 8.47446C194.984 8.01258 194.913 7.54485 194.913 7.07127V6.90464C194.913 6.17966 195.034 5.52484 195.277 4.94018C195.52 4.35551 195.808 3.81762 196.14 3.32651L196.798 3.71238C196.454 4.20935 196.182 4.71508 195.98 5.22958C195.778 5.74409 195.678 6.31121 195.678 6.93095V7.08004C195.678 7.50684 195.74 7.91319 195.864 8.29906C195.995 8.69079 196.196 9.03866 196.469 9.34269C196.748 9.64671 197.103 9.88642 197.536 10.0618C197.975 10.2372 198.503 10.3249 199.119 10.3249H199.217C199.863 10.3249 200.427 10.2226 200.907 10.018C201.393 9.81334 201.77 9.50055 202.036 9.07959C202.303 8.66448 202.437 8.1412 202.437 7.50977C202.437 7.01281 202.353 6.64154 202.187 6.39599C202.021 6.14458 201.781 6.01888 201.467 6.01888C201.301 6.01888 201.144 6.05103 200.996 6.11535C200.853 6.17966 200.723 6.25274 200.604 6.3346V8.18505H199.84V3.95794H198.283V8.18505H197.518Z" fill="#003366"/>
<path d="M205.867 8.29029C205.553 8.29029 205.266 8.21429 205.005 8.06227C204.744 7.90442 204.536 7.66178 204.382 7.33437C204.234 7.00696 204.16 6.58015 204.16 6.05396C204.16 5.42837 204.284 4.9051 204.533 4.48414C204.788 4.06318 205.123 3.74746 205.538 3.53698C205.953 3.32651 206.404 3.22127 206.89 3.22127C207.495 3.22127 207.984 3.33528 208.358 3.56329C208.731 3.79131 209.004 4.09534 209.176 4.47537C209.354 4.84955 209.443 5.26759 209.443 5.72947C209.443 6.10365 209.401 6.43691 209.318 6.72924C209.235 7.02157 209.134 7.29637 209.016 7.55362H211.39V3.32651H212.155V8.18505H208.233L208.197 7.63255C208.334 7.42792 208.443 7.17651 208.526 6.87833C208.615 6.57431 208.66 6.22351 208.66 5.82594C208.66 5.20035 208.497 4.718 208.171 4.3789C207.845 4.03979 207.406 3.87024 206.855 3.87024C206.309 3.87024 205.864 4.03687 205.521 4.37013C205.183 4.69754 204.975 5.12142 204.898 5.64177C205.052 5.54238 205.221 5.46345 205.405 5.40498C205.589 5.34067 205.778 5.30851 205.974 5.30851C206.401 5.30851 206.745 5.43714 207.006 5.69439C207.273 5.95164 207.406 6.29952 207.406 6.73801C207.406 7.22328 207.267 7.60331 206.988 7.87811C206.715 8.1529 206.342 8.29029 205.867 8.29029ZM205.85 5.92241C205.672 5.92241 205.5 5.96041 205.334 6.03642C205.168 6.10658 205.014 6.20305 204.871 6.32583C204.895 6.82864 205.005 7.18236 205.2 7.38699C205.396 7.59162 205.63 7.69394 205.903 7.69394C206.134 7.69394 206.321 7.62085 206.463 7.47469C206.606 7.32268 206.677 7.10635 206.677 6.82571C206.677 6.53338 206.6 6.31121 206.445 6.1592C206.291 6.00134 206.093 5.92241 205.85 5.92241Z" fill="#003366"/>
<path d="M213.72 8.18505V3.32651H218.478V3.95794H216.966V8.18505H216.201V3.95794H214.485V8.18505H213.72Z" fill="#003366"/>
<path d="M220.547 8.29029C220.192 8.29029 219.871 8.23475 219.587 8.12366C219.302 8.01258 219.077 7.84887 218.911 7.63255C218.745 7.41622 218.662 7.15605 218.662 6.85202C218.662 6.548 218.739 6.28198 218.893 6.05396C219.053 5.82594 219.305 5.65054 219.649 5.52776V3.32651H224.3V3.95794H222.637V5.30851H222.78C223.242 5.30851 223.616 5.34359 223.9 5.41375C224.185 5.47807 224.428 5.58623 224.629 5.73824C224.784 5.85517 224.905 6.01011 224.994 6.20305C225.083 6.39014 225.127 6.60646 225.127 6.85202C225.127 7.29637 224.991 7.64132 224.718 7.88688C224.452 8.13243 224.072 8.25521 223.58 8.25521C223.444 8.25521 223.295 8.24644 223.135 8.2289C222.975 8.21136 222.827 8.18213 222.691 8.1412L222.86 7.55362C223.055 7.61208 223.272 7.64132 223.509 7.64132C224.078 7.64132 224.363 7.36653 224.363 6.81694C224.363 6.548 224.286 6.35214 224.131 6.22936C223.983 6.10073 223.793 6.01888 223.562 5.9838C223.331 5.94287 223.091 5.92241 222.842 5.92241H222.637V6.20305C222.637 6.59477 222.602 6.90172 222.531 7.12389C222.465 7.34606 222.371 7.53315 222.246 7.68517C222.062 7.90734 221.825 8.0652 221.535 8.15874C221.25 8.24644 220.921 8.29029 220.547 8.29029ZM220.352 3.95794V5.36113C220.601 5.32605 220.876 5.30851 221.179 5.30851H221.881V3.95794H220.352ZM219.427 6.84325C219.427 7.1122 219.539 7.31683 219.765 7.45715C219.99 7.59162 220.275 7.65886 220.619 7.65886C220.879 7.65886 221.102 7.62085 221.286 7.54485C221.475 7.463 221.621 7.3256 221.721 7.13266C221.828 6.93972 221.881 6.66785 221.881 6.31706V5.92241H221.117C220.814 5.92241 220.556 5.93995 220.343 5.97503C220.135 6.01011 219.957 6.06857 219.809 6.15043C219.554 6.29659 219.427 6.52753 219.427 6.84325ZM222.068 2.23903C221.896 2.23903 221.754 2.18641 221.641 2.08117C221.529 1.97009 221.472 1.82685 221.472 1.65145C221.472 1.48189 221.529 1.34158 221.641 1.23049C221.754 1.1194 221.896 1.06386 222.068 1.06386C222.24 1.06386 222.382 1.1194 222.495 1.23049C222.608 1.34158 222.664 1.48189 222.664 1.65145C222.664 1.82685 222.608 1.97009 222.495 2.08117C222.382 2.18641 222.24 2.23903 222.068 2.23903Z" fill="#003366"/>
<path d="M227.886 8.29029C227.53 8.29029 227.21 8.23475 226.926 8.12366C226.641 8.01258 226.416 7.84887 226.25 7.63255C226.084 7.41622 226.001 7.15605 226.001 6.85202C226.001 6.548 226.078 6.28198 226.232 6.05396C226.392 5.82594 226.644 5.65054 226.988 5.52776V3.32651H231.639V3.95794H229.976V5.30851H230.118C230.581 5.30851 230.954 5.34359 231.239 5.41375C231.524 5.47807 231.767 5.58623 231.968 5.73824C232.122 5.85517 232.244 6.01011 232.333 6.20305C232.422 6.39014 232.466 6.60646 232.466 6.85202C232.466 7.29637 232.33 7.64132 232.057 7.88688C231.79 8.13243 231.411 8.25521 230.919 8.25521C230.782 8.25521 230.634 8.24644 230.474 8.2289C230.314 8.21136 230.166 8.18213 230.029 8.1412L230.198 7.55362C230.394 7.61208 230.61 7.64132 230.848 7.64132C231.417 7.64132 231.701 7.36653 231.701 6.81694C231.701 6.548 231.624 6.35214 231.47 6.22936C231.322 6.10073 231.132 6.01888 230.901 5.9838C230.67 5.94287 230.43 5.92241 230.181 5.92241H229.976V6.20305C229.976 6.59477 229.94 6.90172 229.869 7.12389C229.804 7.34606 229.709 7.53315 229.585 7.68517C229.401 7.90734 229.164 8.0652 228.873 8.15874C228.589 8.24644 228.26 8.29029 227.886 8.29029ZM227.69 3.95794V5.36113C227.939 5.32605 228.215 5.30851 228.518 5.30851H229.22V3.95794H227.69ZM226.766 6.84325C226.766 7.1122 226.878 7.31683 227.104 7.45715C227.329 7.59162 227.613 7.65886 227.957 7.65886C228.218 7.65886 228.44 7.62085 228.624 7.54485C228.814 7.463 228.959 7.3256 229.06 7.13266C229.167 6.93972 229.22 6.66785 229.22 6.31706V5.92241H228.455C228.153 5.92241 227.895 5.93995 227.682 5.97503C227.474 6.01011 227.296 6.06857 227.148 6.15043C226.893 6.29659 226.766 6.52753 226.766 6.84325Z" fill="#003366"/>
<path d="M233.686 8.18505V3.32651H234.451V7.55362H238.275V3.32651H239.04V8.18505H233.686ZM236.363 2.23903C236.191 2.23903 236.049 2.18641 235.936 2.08117C235.824 1.97009 235.767 1.82685 235.767 1.65145C235.767 1.48189 235.824 1.34158 235.936 1.23049C236.049 1.1194 236.191 1.06386 236.363 1.06386C236.535 1.06386 236.677 1.1194 236.79 1.23049C236.903 1.34158 236.959 1.48189 236.959 1.65145C236.959 1.82685 236.903 1.97009 236.79 2.08117C236.677 2.18641 236.535 2.23903 236.363 2.23903Z" fill="#003366"/>
<path d="M240.608 8.18505V3.32651H241.373V7.55362H245.197V3.32651H245.962V8.18505H240.608Z" fill="#003366"/>
<path d="M247.53 8.18505V3.32651H248.295V7.55362H252.759V8.18505H247.53ZM249.833 2.23903C249.661 2.23903 249.519 2.18641 249.407 2.08117C249.294 1.97009 249.238 1.82685 249.238 1.65145C249.238 1.48189 249.294 1.34158 249.407 1.23049C249.519 1.1194 249.661 1.06386 249.833 1.06386C250.005 1.06386 250.148 1.1194 250.26 1.23049C250.373 1.34158 250.429 1.48189 250.429 1.65145C250.429 1.82685 250.373 1.97009 250.26 2.08117C250.148 2.18641 250.005 2.23903 249.833 2.23903Z" fill="#003366"/>
<path d="M253.696 8.18505V3.32651H254.461V7.55362H258.926V8.18505H253.696Z" fill="#003366"/>
<path d="M261.401 8.29029C261.045 8.29029 260.725 8.23475 260.441 8.12366C260.156 8.01258 259.931 7.84887 259.765 7.63255C259.599 7.41622 259.516 7.15312 259.516 6.84325C259.516 6.54507 259.593 6.2849 259.747 6.06273C259.907 5.83471 260.159 5.65639 260.503 5.52776V3.32651H265.154V3.95794H263.491V5.30851C264.262 5.32605 264.87 5.53945 265.314 5.94872C265.759 6.35214 265.981 6.92803 265.981 7.6764C265.981 7.91026 265.955 8.13243 265.901 8.34291C265.854 8.55339 265.789 8.74633 265.706 8.92173H267.235V3.32651H268V9.55316H265.421C265.083 10.0209 264.615 10.3775 264.016 10.6231C263.423 10.8745 262.706 11.0002 261.864 11.0002H261.748C261.333 11.0002 260.948 10.9534 260.592 10.8599C260.236 10.7722 259.952 10.6289 259.738 10.4302C259.525 10.2314 259.418 9.9712 259.418 9.64963C259.418 9.39238 259.51 9.20529 259.694 9.08836C259.777 9.02989 259.874 8.98604 259.987 8.95681C260.1 8.93342 260.284 8.92173 260.539 8.92173H264.905C265.095 8.57093 265.19 8.16459 265.19 7.70271C265.19 7.12974 265.036 6.70001 264.727 6.41353C264.425 6.12119 264.013 5.96041 263.491 5.93118V6.20305C263.491 6.59477 263.456 6.90172 263.384 7.12389C263.319 7.34606 263.224 7.53315 263.1 7.68517C262.916 7.90734 262.679 8.0652 262.388 8.15874C262.104 8.24644 261.775 8.29029 261.401 8.29029ZM261.206 3.95794V5.36113C261.455 5.32605 261.73 5.30851 262.033 5.30851H262.735V3.95794H261.206ZM260.281 6.84325C260.281 7.1122 260.393 7.31683 260.619 7.45715C260.844 7.59162 261.128 7.65886 261.472 7.65886C261.733 7.65886 261.956 7.62085 262.139 7.54485C262.329 7.463 262.474 7.3256 262.575 7.13266C262.682 6.93388 262.735 6.66201 262.735 6.31706V5.92241H261.97C261.668 5.92241 261.41 5.93995 261.197 5.97503C260.989 6.01011 260.811 6.06857 260.663 6.15043C260.408 6.29659 260.281 6.52753 260.281 6.84325ZM261.837 10.36C262.465 10.36 262.999 10.2898 263.438 10.1495C263.876 10.015 264.241 9.81626 264.532 9.55316H260.467C260.396 9.55316 260.325 9.56193 260.254 9.57947C260.189 9.60286 260.156 9.66425 260.156 9.76364C260.156 9.9332 260.284 10.0735 260.539 10.1846C260.799 10.3015 261.194 10.36 261.721 10.36H261.837Z" fill="#003366"/>
<g clip-path="url(#clip1_4088_2253)">
<path d="M180.253 1.24219C181.529 1.24219 182.563 2.27754 182.563 3.72703C182.563 6.62602 179.413 8.28258 178.363 8.90379C177.313 8.28258 174.163 6.62602 174.163 3.72703C174.163 2.27754 175.213 1.24219 176.473 1.24219C177.254 1.24219 177.943 1.65633 178.363 2.07047C178.783 1.65633 179.472 1.24219 180.253 1.24219Z" fill="#FF5353"/>
</g>
<defs>
<clipPath id="clip0_4088_2253">
<rect width="10.1046" height="9.93938" fill="white" transform="translate(43.777 0.647461)"/>
</clipPath>
<clipPath id="clip1_4088_2253">
<rect width="10.0792" height="9.93938" fill="white" transform="translate(173.323)"/>
</clipPath>
</defs>
</svg>
