<svg width="16" height="16" viewBox="0 0 16 16" fill="none" xmlns="http://www.w3.org/2000/svg">
<path d="M1.3335 13.3334H14.6668V14.6667H1.3335V13.3334ZM2.66683 8.00004H4.00016V12.6667H2.66683V8.00004ZM6.00016 8.00004H7.3335V12.6667H6.00016V8.00004ZM8.66683 8.00004H10.0002V12.6667H8.66683V8.00004ZM12.0002 8.00004H13.3335V12.6667H12.0002V8.00004ZM1.3335 4.66671L8.00016 1.33337L14.6668 4.66671V7.33338H1.3335V4.66671ZM8.00016 5.33337C8.17698 5.33337 8.34655 5.26314 8.47157 5.13811C8.59659 5.01309 8.66683 4.84352 8.66683 4.66671C8.66683 4.4899 8.59659 4.32033 8.47157 4.1953C8.34655 4.07028 8.17698 4.00004 8.00016 4.00004C7.82335 4.00004 7.65378 4.07028 7.52876 4.1953C7.40374 4.32033 7.3335 4.4899 7.3335 4.66671C7.3335 4.84352 7.40374 5.01309 7.52876 5.13811C7.65378 5.26314 7.82335 5.33337 8.00016 5.33337Z" fill="#FB5039"/>
</svg>
