<svg width="512" height="390" viewBox="0 0 512 390" fill="none" xmlns="http://www.w3.org/2000/svg">
<path d="M73 25.9575C73 11.6216 84.6215 0 98.9574 0H413.043C427.378 0 439 11.6215 439 25.9574V389.362H73V25.9575Z" fill="url(#paint0_linear_3835_1263)"/>
<g clip-path="url(#clip0_3835_1263)">
<path d="M83.3828 38.9362C83.3828 24.2524 83.3828 16.9105 87.9445 12.3489C92.5061 7.78723 99.848 7.78723 114.532 7.78723H397.468C412.152 7.78723 419.494 7.78723 424.055 12.3489C428.617 16.9105 428.617 24.2524 428.617 38.9362V367.298H83.3828V38.9362Z" fill="url(#paint1_linear_3835_1263)"/>
<rect x="83.3828" y="7.78723" width="346.532" height="63.5957" fill="white"/>
<path d="M146.629 49.1649C145.669 49.1649 144.845 48.9394 144.159 48.4885C143.482 48.0375 143.007 47.4199 142.733 46.6357L143.909 45.9592C144.311 47.2043 145.227 47.8268 146.659 47.8268C147.365 47.8268 147.904 47.6846 148.276 47.4003C148.649 47.1062 148.835 46.719 148.835 46.2386C148.835 45.7485 148.649 45.3808 148.276 45.1358C147.904 44.8907 147.281 44.6309 146.409 44.3564C145.977 44.2192 145.649 44.1113 145.424 44.0329C145.198 43.9447 144.914 43.8172 144.571 43.6506C144.237 43.4741 143.987 43.2976 143.821 43.1212C143.654 42.9349 143.502 42.6947 143.365 42.4006C143.237 42.1065 143.174 41.7732 143.174 41.4007C143.174 40.5086 143.487 39.8028 144.115 39.2832C144.742 38.7538 145.507 38.4891 146.409 38.4891C147.222 38.4891 147.928 38.695 148.526 39.1067C149.134 39.5185 149.59 40.0626 149.894 40.739L148.747 41.4007C148.306 40.3419 147.526 39.8126 146.409 39.8126C145.85 39.8126 145.399 39.9498 145.056 40.2243C144.713 40.4988 144.541 40.8713 144.541 41.3419C144.541 41.7928 144.703 42.1359 145.026 42.3712C145.35 42.6065 145.909 42.8516 146.703 43.1065C146.987 43.1947 147.188 43.2584 147.306 43.2976C147.423 43.3369 147.605 43.4055 147.85 43.5035C148.105 43.6015 148.291 43.68 148.409 43.7388C148.526 43.7976 148.683 43.8809 148.879 43.9888C149.085 44.0966 149.237 44.1995 149.335 44.2976C149.433 44.3956 149.546 44.5182 149.673 44.6652C149.81 44.8024 149.909 44.9446 149.967 45.0916C150.026 45.2387 150.075 45.4103 150.114 45.6063C150.163 45.7926 150.188 45.9935 150.188 46.2092C150.188 47.1111 149.86 47.8317 149.203 48.3709C148.546 48.9002 147.688 49.1649 146.629 49.1649ZM157.935 41.6213H159.214V48.9738H157.935V47.7091C157.298 48.6797 156.372 49.1649 155.156 49.1649C154.127 49.1649 153.249 48.7924 152.524 48.0473C151.798 47.2925 151.436 46.3759 151.436 45.2975C151.436 44.2192 151.798 43.3074 152.524 42.5624C153.249 41.8075 154.127 41.4301 155.156 41.4301C156.372 41.4301 157.298 41.9154 157.935 42.8859V41.6213ZM155.318 47.9297C156.063 47.9297 156.685 47.6797 157.185 47.1797C157.685 46.67 157.935 46.0426 157.935 45.2975C157.935 44.5525 157.685 43.93 157.185 43.43C156.685 42.9202 156.063 42.6653 155.318 42.6653C154.582 42.6653 153.965 42.9202 153.465 43.43C152.965 43.93 152.715 44.5525 152.715 45.2975C152.715 46.0426 152.965 46.67 153.465 47.1797C153.965 47.6797 154.582 47.9297 155.318 47.9297ZM161.153 48.9738V38.2391H162.432V48.9738H161.153ZM170.472 41.6213H171.751V48.9738H170.472V47.7091C169.834 48.6797 168.908 49.1649 167.692 49.1649C166.663 49.1649 165.786 48.7924 165.06 48.0473C164.335 47.2925 163.972 46.3759 163.972 45.2975C163.972 44.2192 164.335 43.3074 165.06 42.5624C165.786 41.8075 166.663 41.4301 167.692 41.4301C168.908 41.4301 169.834 41.9154 170.472 42.8859V41.6213ZM167.854 47.9297C168.599 47.9297 169.222 47.6797 169.722 47.1797C170.222 46.67 170.472 46.0426 170.472 45.2975C170.472 44.5525 170.222 43.93 169.722 43.43C169.222 42.9202 168.599 42.6653 167.854 42.6653C167.119 42.6653 166.501 42.9202 166.001 43.43C165.501 43.93 165.251 44.5525 165.251 45.2975C165.251 46.0426 165.501 46.67 166.001 47.1797C166.501 47.6797 167.119 47.9297 167.854 47.9297ZM174.969 42.8565C175.39 41.9448 176.155 41.4889 177.263 41.4889V42.8271C176.635 42.7977 176.096 42.9643 175.645 43.3271C175.194 43.6898 174.969 44.2731 174.969 45.0769V48.9738H173.689V41.6213H174.969V42.8565ZM183.804 41.6213H185.172L182.172 49.4296C181.858 50.2629 181.417 50.8952 180.849 51.3265C180.29 51.7677 179.643 51.9638 178.908 51.9147V50.7236C179.81 50.7923 180.471 50.2923 180.893 49.2237L181.025 48.9443L177.819 41.6213H179.187L181.687 47.3856L183.804 41.6213Z" fill="#303030"/>
<rect x="97.335" y="86.633" width="315.383" height="213.176" fill="url(#paint2_linear_3835_1263)"/>
<path d="M112.909 187.867H397.143" stroke="#F4F6FA" stroke-width="0.920624" stroke-linecap="round"/>
<path d="M119.832 121.243H121.086V130.782H119.832V126.489H115.199V130.782H113.931V121.243H115.199V125.29H119.832V121.243ZM128.646 123.968H129.832V130.782H128.646V129.61C128.056 130.509 127.197 130.959 126.071 130.959C125.117 130.959 124.304 130.614 123.631 129.923C122.959 129.224 122.623 128.374 122.623 127.375C122.623 126.376 122.959 125.531 123.631 124.84C124.304 124.141 125.117 123.791 126.071 123.791C127.197 123.791 128.056 124.241 128.646 125.14V123.968ZM126.221 129.814C126.911 129.814 127.488 129.583 127.951 129.119C128.415 128.647 128.646 128.065 128.646 127.375C128.646 126.685 128.415 126.108 127.951 125.644C127.488 125.172 126.911 124.936 126.221 124.936C125.539 124.936 124.967 125.172 124.504 125.644C124.04 126.108 123.809 126.685 123.809 127.375C123.809 128.065 124.04 128.647 124.504 129.119C124.967 129.583 125.539 129.814 126.221 129.814ZM132.814 125.113C133.205 124.268 133.913 123.845 134.94 123.845V125.086C134.358 125.058 133.859 125.213 133.441 125.549C133.023 125.885 132.814 126.426 132.814 127.171V130.782H131.628V123.968H132.814V125.113ZM136.7 122.728C136.472 122.728 136.282 122.651 136.127 122.496C135.973 122.342 135.896 122.156 135.896 121.938C135.896 121.72 135.973 121.533 136.127 121.379C136.282 121.215 136.472 121.134 136.7 121.134C136.918 121.134 137.104 121.215 137.258 121.379C137.413 121.533 137.49 121.72 137.49 121.938C137.49 122.156 137.413 122.342 137.258 122.496C137.104 122.651 136.918 122.728 136.7 122.728ZM136.1 130.782V123.968H137.286V130.782H136.1ZM146.085 121.243C146.967 121.243 147.698 121.538 148.279 122.128C148.87 122.71 149.165 123.437 149.165 124.309C149.165 125.172 148.87 125.899 148.279 126.489C147.698 127.08 146.967 127.375 146.085 127.375H143.891V130.782H142.624V121.243H146.085ZM146.085 126.189C146.612 126.189 147.048 126.012 147.394 125.658C147.739 125.295 147.911 124.845 147.911 124.309C147.911 123.764 147.739 123.314 147.394 122.96C147.048 122.605 146.612 122.428 146.085 122.428H143.891V126.189H146.085ZM151.579 125.113C151.969 124.268 152.678 123.845 153.705 123.845V125.086C153.123 125.058 152.623 125.213 152.205 125.549C151.788 125.885 151.579 126.426 151.579 127.171V130.782H150.393V123.968H151.579V125.113ZM160.134 123.968H161.319V130.782H160.134V129.61C159.543 130.509 158.685 130.959 157.558 130.959C156.604 130.959 155.791 130.614 155.119 129.923C154.447 129.224 154.11 128.374 154.11 127.375C154.11 126.376 154.447 125.531 155.119 124.84C155.791 124.141 156.604 123.791 157.558 123.791C158.685 123.791 159.543 124.241 160.134 125.14V123.968ZM157.708 129.814C158.399 129.814 158.975 129.583 159.439 129.119C159.902 128.647 160.134 128.065 160.134 127.375C160.134 126.685 159.902 126.108 159.439 125.644C158.975 125.172 158.399 124.936 157.708 124.936C157.027 124.936 156.454 125.172 155.991 125.644C155.528 126.108 155.296 126.685 155.296 127.375C155.296 128.065 155.528 128.647 155.991 129.119C156.454 129.583 157.027 129.814 157.708 129.814ZM164.124 125.808C164.124 126.071 164.256 126.285 164.52 126.448C164.783 126.603 165.101 126.73 165.474 126.83C165.846 126.921 166.219 127.03 166.591 127.157C166.964 127.275 167.282 127.484 167.545 127.784C167.808 128.075 167.94 128.452 167.94 128.915C167.94 129.533 167.699 130.028 167.218 130.4C166.746 130.773 166.137 130.959 165.392 130.959C164.729 130.959 164.161 130.814 163.688 130.523C163.216 130.232 162.88 129.846 162.68 129.365L163.702 128.779C163.811 129.106 164.015 129.365 164.315 129.555C164.615 129.746 164.974 129.842 165.392 129.842C165.783 129.842 166.105 129.769 166.359 129.624C166.614 129.469 166.741 129.233 166.741 128.915C166.741 128.651 166.609 128.443 166.346 128.288C166.082 128.125 165.764 127.997 165.392 127.906C165.019 127.807 164.647 127.693 164.274 127.566C163.902 127.439 163.584 127.23 163.32 126.939C163.057 126.648 162.925 126.276 162.925 125.821C162.925 125.231 163.152 124.745 163.607 124.363C164.07 123.982 164.647 123.791 165.337 123.791C165.892 123.791 166.382 123.918 166.809 124.173C167.245 124.418 167.572 124.763 167.79 125.208L166.795 125.767C166.55 125.185 166.064 124.895 165.337 124.895C165.001 124.895 164.715 124.977 164.479 125.14C164.243 125.295 164.124 125.517 164.124 125.808ZM174.8 123.968H175.985V130.782H174.8V129.61C174.209 130.509 173.35 130.959 172.224 130.959C171.27 130.959 170.457 130.614 169.785 129.923C169.112 129.224 168.776 128.374 168.776 127.375C168.776 126.376 169.112 125.531 169.785 124.84C170.457 124.141 171.27 123.791 172.224 123.791C173.35 123.791 174.209 124.241 174.8 125.14V123.968ZM172.374 129.814C173.064 129.814 173.641 129.583 174.105 129.119C174.568 128.647 174.8 128.065 174.8 127.375C174.8 126.685 174.568 126.108 174.105 125.644C173.641 125.172 173.064 124.936 172.374 124.936C171.692 124.936 171.12 125.172 170.657 125.644C170.193 126.108 169.962 126.685 169.962 127.375C169.962 128.065 170.193 128.647 170.657 129.119C171.12 129.583 171.692 129.814 172.374 129.814ZM183.423 121.243H184.609V130.782H183.423V129.61C182.833 130.509 181.974 130.959 180.848 130.959C179.894 130.959 179.081 130.614 178.408 129.923C177.736 129.224 177.4 128.374 177.4 127.375C177.4 126.376 177.736 125.531 178.408 124.84C179.081 124.141 179.894 123.791 180.848 123.791C181.974 123.791 182.833 124.241 183.423 125.14V121.243ZM180.998 129.814C181.688 129.814 182.265 129.583 182.728 129.119C183.192 128.647 183.423 128.065 183.423 127.375C183.423 126.685 183.192 126.108 182.728 125.644C182.265 125.172 181.688 124.936 180.998 124.936C180.316 124.936 179.744 125.172 179.28 125.644C178.817 126.108 178.585 126.685 178.585 127.375C178.585 128.065 178.817 128.647 179.28 129.119C179.744 129.583 180.316 129.814 180.998 129.814Z" fill="#212121"/>
<path d="M116.425 232.016L113.018 222.477H114.381L117.147 230.435L119.9 222.477H121.277L117.856 232.016H116.425ZM122.606 223.962C122.379 223.962 122.188 223.885 122.034 223.73C121.879 223.576 121.802 223.39 121.802 223.172C121.802 222.954 121.879 222.767 122.034 222.613C122.188 222.449 122.379 222.368 122.606 222.368C122.824 222.368 123.01 222.449 123.165 222.613C123.319 222.767 123.397 222.954 123.397 223.172C123.397 223.39 123.319 223.576 123.165 223.73C123.01 223.885 122.824 223.962 122.606 223.962ZM122.006 232.016V225.202H123.192V232.016H122.006ZM128.394 225.025C129.194 225.025 129.834 225.279 130.316 225.788C130.797 226.288 131.038 226.969 131.038 227.832V232.016H129.852V227.9C129.852 227.346 129.702 226.919 129.403 226.619C129.103 226.311 128.689 226.156 128.162 226.156C127.572 226.156 127.095 226.342 126.732 226.715C126.368 227.078 126.186 227.641 126.186 228.405V232.016H125.001V225.202H126.186V226.183C126.668 225.411 127.404 225.025 128.394 225.025ZM135.896 232.193C134.869 232.193 134.015 231.852 133.334 231.171C132.652 230.481 132.311 229.627 132.311 228.609C132.311 227.592 132.652 226.742 133.334 226.061C134.015 225.37 134.869 225.025 135.896 225.025C136.568 225.025 137.172 225.189 137.708 225.516C138.244 225.834 138.644 226.265 138.907 226.81L137.912 227.383C137.74 227.019 137.472 226.728 137.108 226.51C136.754 226.292 136.35 226.183 135.896 226.183C135.214 226.183 134.642 226.415 134.178 226.878C133.724 227.342 133.497 227.919 133.497 228.609C133.497 229.29 133.724 229.863 134.178 230.326C134.642 230.789 135.214 231.021 135.896 231.021C136.35 231.021 136.759 230.917 137.122 230.708C137.485 230.49 137.763 230.199 137.953 229.836L138.962 230.422C138.671 230.958 138.253 231.389 137.708 231.716C137.163 232.034 136.559 232.193 135.896 232.193ZM140.87 229.154C140.989 229.763 141.266 230.235 141.702 230.571C142.147 230.908 142.692 231.076 143.337 231.076C144.237 231.076 144.891 230.744 145.299 230.081L146.308 230.653C145.645 231.68 144.645 232.193 143.31 232.193C142.229 232.193 141.347 231.857 140.666 231.185C139.994 230.503 139.658 229.645 139.658 228.609C139.658 227.582 139.989 226.728 140.652 226.047C141.316 225.366 142.174 225.025 143.228 225.025C144.227 225.025 145.041 225.379 145.667 226.088C146.303 226.787 146.621 227.632 146.621 228.623C146.621 228.795 146.608 228.972 146.58 229.154H140.87ZM143.228 226.142C142.592 226.142 142.065 226.324 141.647 226.688C141.229 227.042 140.97 227.519 140.87 228.118H145.422C145.322 227.473 145.068 226.983 144.659 226.647C144.25 226.311 143.773 226.142 143.228 226.142ZM151.378 225.025C152.177 225.025 152.817 225.279 153.299 225.788C153.781 226.288 154.021 226.969 154.021 227.832V232.016H152.836V227.9C152.836 227.346 152.686 226.919 152.386 226.619C152.086 226.311 151.673 226.156 151.146 226.156C150.555 226.156 150.078 226.342 149.715 226.715C149.352 227.078 149.17 227.641 149.17 228.405V232.016H147.984V225.202H149.17V226.183C149.651 225.411 150.387 225.025 151.378 225.025ZM159.383 226.347H157.571V230.04C157.571 230.376 157.634 230.617 157.761 230.762C157.898 230.898 158.102 230.971 158.375 230.98C158.647 230.98 158.983 230.971 159.383 230.953V232.016C158.347 232.152 157.589 232.07 157.107 231.771C156.626 231.462 156.385 230.885 156.385 230.04V226.347H155.036V225.202H156.385V223.649L157.571 223.294V225.202H159.383V226.347ZM170.012 232.016L167.872 228.364H165.624V232.016H164.356V222.477H168.172C168.99 222.477 169.689 222.767 170.271 223.349C170.852 223.921 171.143 224.616 171.143 225.434C171.143 226.052 170.957 226.615 170.584 227.124C170.221 227.632 169.748 227.991 169.167 228.2L171.415 232.016H170.012ZM165.624 223.662V227.219H168.172C168.644 227.219 169.044 227.046 169.371 226.701C169.707 226.347 169.875 225.924 169.875 225.434C169.875 224.943 169.707 224.525 169.371 224.18C169.044 223.835 168.644 223.662 168.172 223.662H165.624Z" fill="#212121"/>
<path d="M345.311 130.782L342.736 126.285V125.685H343.036C343.762 125.685 344.317 125.581 344.698 125.372C345.089 125.163 345.316 124.786 345.38 124.241H342.736V123.368H345.366C345.275 122.86 345.034 122.492 344.644 122.265C344.262 122.038 343.726 121.924 343.036 121.924H342.736V121.052H348.378V121.924H345.802C346.238 122.278 346.497 122.76 346.579 123.368H348.378V124.241H346.606C346.542 124.904 346.288 125.422 345.843 125.794C345.407 126.158 344.825 126.389 344.099 126.489L346.701 130.782H345.311ZM353.355 130.782V129.746L356.721 126.312C357.621 125.413 358.071 124.64 358.071 123.995C358.071 123.459 357.907 123.041 357.58 122.742C357.253 122.442 356.853 122.292 356.381 122.292C355.481 122.292 354.827 122.719 354.418 123.573L353.355 122.946C353.655 122.328 354.069 121.86 354.595 121.542C355.131 121.224 355.722 121.065 356.367 121.065C357.167 121.065 357.862 121.329 358.452 121.856C359.043 122.383 359.338 123.091 359.338 123.982C359.338 124.945 358.77 125.994 357.634 127.13L355.195 129.555H359.515V130.782H353.355ZM366.923 129.61C366.278 130.509 365.374 130.959 364.211 130.959C363.048 130.959 362.144 130.509 361.499 129.61C360.854 128.711 360.531 127.511 360.531 126.012C360.531 124.513 360.854 123.314 361.499 122.415C362.144 121.515 363.048 121.065 364.211 121.065C365.374 121.065 366.278 121.515 366.923 122.415C367.568 123.314 367.89 124.513 367.89 126.012C367.89 127.511 367.568 128.711 366.923 129.61ZM362.426 128.751C362.844 129.396 363.439 129.719 364.211 129.719C364.983 129.719 365.578 129.396 365.996 128.751C366.423 128.106 366.637 127.193 366.637 126.012C366.637 124.831 366.423 123.918 365.996 123.273C365.578 122.619 364.983 122.292 364.211 122.292C363.439 122.292 362.844 122.614 362.426 123.259C362.008 123.904 361.799 124.822 361.799 126.012C361.799 127.193 362.008 128.106 362.426 128.751ZM370.76 129.378L369.875 132.69H368.853L369.398 129.378H370.76ZM378.128 129.61C377.483 130.509 376.579 130.959 375.416 130.959C374.253 130.959 373.35 130.509 372.704 129.61C372.059 128.711 371.737 127.511 371.737 126.012C371.737 124.513 372.059 123.314 372.704 122.415C373.35 121.515 374.253 121.065 375.416 121.065C376.579 121.065 377.483 121.515 378.128 122.415C378.773 123.314 379.096 124.513 379.096 126.012C379.096 127.511 378.773 128.711 378.128 129.61ZM373.631 128.751C374.049 129.396 374.644 129.719 375.416 129.719C376.189 129.719 376.784 129.396 377.202 128.751C377.629 128.106 377.842 127.193 377.842 126.012C377.842 124.831 377.629 123.918 377.202 123.273C376.784 122.619 376.189 122.292 375.416 122.292C374.644 122.292 374.049 122.614 373.631 123.259C373.213 123.904 373.004 124.822 373.004 126.012C373.004 127.193 373.213 128.106 373.631 128.751ZM386.712 129.61C386.067 130.509 385.163 130.959 384 130.959C382.837 130.959 381.933 130.509 381.288 129.61C380.643 128.711 380.321 127.511 380.321 126.012C380.321 124.513 380.643 123.314 381.288 122.415C381.933 121.515 382.837 121.065 384 121.065C385.163 121.065 386.067 121.515 386.712 122.415C387.357 123.314 387.68 124.513 387.68 126.012C387.68 127.511 387.357 128.711 386.712 129.61ZM382.215 128.751C382.633 129.396 383.228 129.719 384 129.719C384.772 129.719 385.368 129.396 385.785 128.751C386.212 128.106 386.426 127.193 386.426 126.012C386.426 124.831 386.212 123.918 385.785 123.273C385.368 122.619 384.772 122.292 384 122.292C383.228 122.292 382.633 122.614 382.215 123.259C381.797 123.904 381.588 124.822 381.588 126.012C381.588 127.193 381.797 128.106 382.215 128.751ZM395.296 129.61C394.651 130.509 393.747 130.959 392.584 130.959C391.421 130.959 390.517 130.509 389.872 129.61C389.227 128.711 388.905 127.511 388.905 126.012C388.905 124.513 389.227 123.314 389.872 122.415C390.517 121.515 391.421 121.065 392.584 121.065C393.747 121.065 394.651 121.515 395.296 122.415C395.941 123.314 396.264 124.513 396.264 126.012C396.264 127.511 395.941 128.711 395.296 129.61ZM390.799 128.751C391.217 129.396 391.812 129.719 392.584 129.719C393.356 129.719 393.951 129.396 394.369 128.751C394.796 128.106 395.01 127.193 395.01 126.012C395.01 124.831 394.796 123.918 394.369 123.273C393.951 122.619 393.356 122.292 392.584 122.292C391.812 122.292 391.217 122.614 390.799 123.259C390.381 123.904 390.172 124.822 390.172 126.012C390.172 127.193 390.381 128.106 390.799 128.751Z" fill="#212121"/>
<path d="M345.311 232.016L342.736 227.519V226.919H343.036C343.762 226.919 344.317 226.815 344.698 226.606C345.089 226.397 345.316 226.02 345.38 225.475H342.736V224.603H345.366C345.275 224.094 345.034 223.726 344.644 223.499C344.262 223.272 343.726 223.158 343.036 223.158H342.736V222.286H348.378V223.158H345.802C346.238 223.512 346.497 223.994 346.579 224.603H348.378V225.475H346.606C346.542 226.138 346.288 226.656 345.843 227.028C345.407 227.392 344.825 227.623 344.099 227.723L346.701 232.016H345.311ZM353.355 232.016V230.98L356.721 227.546C357.621 226.647 358.071 225.874 358.071 225.229C358.071 224.693 357.907 224.275 357.58 223.976C357.253 223.676 356.853 223.526 356.381 223.526C355.481 223.526 354.827 223.953 354.418 224.807L353.355 224.18C353.655 223.562 354.069 223.094 354.595 222.776C355.131 222.458 355.722 222.299 356.367 222.299C357.167 222.299 357.862 222.563 358.452 223.09C359.043 223.617 359.338 224.325 359.338 225.216C359.338 226.179 358.77 227.228 357.634 228.364L355.195 230.789H359.515V232.016H353.355ZM363.624 226.197C364.524 226.197 365.282 226.465 365.9 227.001C366.527 227.528 366.84 228.259 366.84 229.195C366.84 230.122 366.522 230.853 365.886 231.389C365.25 231.925 364.478 232.193 363.57 232.193C362.843 232.193 362.193 232.021 361.621 231.675C361.049 231.321 360.649 230.812 360.422 230.149L361.498 229.536C361.625 229.999 361.871 230.353 362.234 230.599C362.598 230.835 363.043 230.953 363.57 230.953C364.169 230.953 364.655 230.799 365.028 230.49C365.4 230.181 365.587 229.749 365.587 229.195C365.587 228.641 365.4 228.209 365.028 227.9C364.655 227.582 364.178 227.423 363.597 227.423H360.899L361.253 222.477H366.472V223.662H362.398L362.234 226.197H363.624ZM369.749 230.612L368.863 233.924H367.841L368.386 230.612H369.749ZM377.117 230.844C376.472 231.743 375.568 232.193 374.405 232.193C373.242 232.193 372.338 231.743 371.693 230.844C371.048 229.945 370.725 228.745 370.725 227.246C370.725 225.747 371.048 224.548 371.693 223.649C372.338 222.749 373.242 222.299 374.405 222.299C375.568 222.299 376.472 222.749 377.117 223.649C377.762 224.548 378.084 225.747 378.084 227.246C378.084 228.745 377.762 229.945 377.117 230.844ZM372.62 229.985C373.038 230.63 373.633 230.953 374.405 230.953C375.177 230.953 375.772 230.63 376.19 229.985C376.617 229.34 376.831 228.427 376.831 227.246C376.831 226.065 376.617 225.152 376.19 224.507C375.772 223.853 375.177 223.526 374.405 223.526C373.633 223.526 373.038 223.848 372.62 224.493C372.202 225.139 371.993 226.056 371.993 227.246C371.993 228.427 372.202 229.34 372.62 229.985ZM385.701 230.844C385.056 231.743 384.152 232.193 382.989 232.193C381.826 232.193 380.922 231.743 380.277 230.844C379.632 229.945 379.309 228.745 379.309 227.246C379.309 225.747 379.632 224.548 380.277 223.649C380.922 222.749 381.826 222.299 382.989 222.299C384.152 222.299 385.056 222.749 385.701 223.649C386.346 224.548 386.668 225.747 386.668 227.246C386.668 228.745 386.346 229.945 385.701 230.844ZM381.204 229.985C381.621 230.63 382.217 230.953 382.989 230.953C383.761 230.953 384.356 230.63 384.774 229.985C385.201 229.34 385.415 228.427 385.415 227.246C385.415 226.065 385.201 225.152 384.774 224.507C384.356 223.853 383.761 223.526 382.989 223.526C382.217 223.526 381.621 223.848 381.204 224.493C380.786 225.139 380.577 226.056 380.577 227.246C380.577 228.427 380.786 229.34 381.204 229.985ZM394.285 230.844C393.639 231.743 392.736 232.193 391.573 232.193C390.41 232.193 389.506 231.743 388.861 230.844C388.216 229.945 387.893 228.745 387.893 227.246C387.893 225.747 388.216 224.548 388.861 223.649C389.506 222.749 390.41 222.299 391.573 222.299C392.736 222.299 393.639 222.749 394.285 223.649C394.93 224.548 395.252 225.747 395.252 227.246C395.252 228.745 394.93 229.945 394.285 230.844ZM389.787 229.985C390.205 230.63 390.8 230.953 391.573 230.953C392.345 230.953 392.94 230.63 393.358 229.985C393.785 229.34 393.998 228.427 393.998 227.246C393.998 226.065 393.785 225.152 393.358 224.507C392.94 223.853 392.345 223.526 391.573 223.526C390.8 223.526 390.205 223.848 389.787 224.493C389.369 225.139 389.161 226.056 389.161 227.246C389.161 228.427 389.369 229.34 389.787 229.985Z" fill="#212121"/>
<path d="M120.583 173.446C119.766 174.271 118.765 174.684 117.582 174.684C116.398 174.684 115.397 174.271 114.58 173.446C113.762 172.62 113.353 171.619 113.353 170.444C113.353 169.26 113.762 168.259 114.58 167.442C115.397 166.616 116.398 166.203 117.582 166.203C118.765 166.203 119.766 166.616 120.583 167.442C121.409 168.259 121.822 169.26 121.822 170.444C121.822 171.619 121.409 172.62 120.583 173.446ZM115.327 172.71C115.935 173.317 116.686 173.621 117.582 173.621C118.477 173.621 119.225 173.317 119.824 172.71C120.432 172.095 120.735 171.339 120.735 170.444C120.735 169.54 120.432 168.785 119.824 168.178C119.225 167.562 118.477 167.255 117.582 167.255C116.686 167.255 115.935 167.562 115.327 168.178C114.727 168.785 114.428 169.54 114.428 170.444C114.428 171.339 114.727 172.095 115.327 172.71ZM125.768 174.684C124.888 174.684 124.156 174.392 123.572 173.808C122.987 173.216 122.695 172.484 122.695 171.612C122.695 170.74 122.987 170.011 123.572 169.427C124.156 168.836 124.888 168.54 125.768 168.54C126.344 168.54 126.862 168.68 127.321 168.96C127.781 169.233 128.123 169.603 128.349 170.07L127.496 170.56C127.348 170.249 127.119 170 126.807 169.813C126.503 169.626 126.157 169.533 125.768 169.533C125.183 169.533 124.693 169.731 124.296 170.128C123.906 170.525 123.712 171.02 123.712 171.612C123.712 172.196 123.906 172.686 124.296 173.083C124.693 173.481 125.183 173.679 125.768 173.679C126.157 173.679 126.507 173.59 126.819 173.411C127.13 173.224 127.368 172.974 127.531 172.663L128.396 173.165C128.147 173.625 127.788 173.995 127.321 174.275C126.854 174.547 126.336 174.684 125.768 174.684ZM132.576 169.673H131.023V172.838C131.023 173.126 131.077 173.333 131.186 173.457C131.303 173.574 131.478 173.636 131.712 173.644C131.945 173.644 132.234 173.636 132.576 173.621V174.532C131.689 174.649 131.038 174.579 130.626 174.322C130.213 174.057 130.006 173.562 130.006 172.838V169.673H128.85V168.691H130.006V167.36L131.023 167.056V168.691H132.576V169.673ZM133.258 176.296V175.315H138.456V176.296H133.258ZM142.171 174.684C141.408 174.684 140.754 174.505 140.209 174.146C139.671 173.788 139.294 173.298 139.075 172.675L140.01 172.137C140.329 173.126 141.057 173.621 142.194 173.621C142.755 173.621 143.183 173.508 143.479 173.282C143.775 173.048 143.923 172.741 143.923 172.359C143.923 171.97 143.775 171.678 143.479 171.483C143.183 171.289 142.689 171.082 141.996 170.864C141.653 170.755 141.392 170.669 141.213 170.607C141.034 170.537 140.808 170.436 140.536 170.303C140.271 170.163 140.072 170.023 139.94 169.883C139.807 169.735 139.687 169.544 139.578 169.311C139.477 169.077 139.426 168.812 139.426 168.516C139.426 167.808 139.675 167.247 140.173 166.834C140.672 166.414 141.279 166.203 141.996 166.203C142.642 166.203 143.203 166.367 143.678 166.694C144.161 167.021 144.523 167.453 144.764 167.991L143.853 168.516C143.503 167.675 142.883 167.255 141.996 167.255C141.552 167.255 141.194 167.364 140.921 167.582C140.648 167.8 140.512 168.096 140.512 168.47C140.512 168.828 140.641 169.1 140.898 169.287C141.155 169.474 141.599 169.669 142.229 169.871C142.455 169.941 142.615 169.992 142.708 170.023C142.802 170.054 142.946 170.109 143.14 170.187C143.343 170.265 143.491 170.327 143.584 170.374C143.678 170.42 143.802 170.486 143.958 170.572C144.122 170.658 144.242 170.74 144.32 170.817C144.398 170.895 144.488 170.993 144.589 171.109C144.698 171.218 144.776 171.331 144.822 171.448C144.869 171.565 144.908 171.701 144.939 171.857C144.978 172.005 144.998 172.165 144.998 172.336C144.998 173.052 144.737 173.625 144.215 174.053C143.693 174.474 143.012 174.684 142.171 174.684ZM151.152 168.691H152.168V174.532H151.152V173.527C150.645 174.298 149.91 174.684 148.944 174.684C148.126 174.684 147.429 174.388 146.853 173.796C146.277 173.196 145.989 172.468 145.989 171.612C145.989 170.755 146.277 170.031 146.853 169.439C147.429 168.839 148.126 168.54 148.944 168.54C149.91 168.54 150.645 168.925 151.152 169.696V168.691ZM149.072 173.703C149.664 173.703 150.159 173.504 150.556 173.107C150.953 172.702 151.152 172.204 151.152 171.612C151.152 171.02 150.953 170.525 150.556 170.128C150.159 169.723 149.664 169.521 149.072 169.521C148.488 169.521 147.998 169.723 147.601 170.128C147.204 170.525 147.005 171.02 147.005 171.612C147.005 172.204 147.204 172.702 147.601 173.107C147.998 173.504 148.488 173.703 149.072 173.703ZM153.708 174.532V166.005H154.724V174.532H153.708ZM161.11 168.691H162.126V174.532H161.11V173.527C160.604 174.298 159.868 174.684 158.902 174.684C158.085 174.684 157.388 174.388 156.811 173.796C156.235 173.196 155.947 172.468 155.947 171.612C155.947 170.755 156.235 170.031 156.811 169.439C157.388 168.839 158.085 168.54 158.902 168.54C159.868 168.54 160.604 168.925 161.11 169.696V168.691ZM159.031 173.703C159.623 173.703 160.117 173.504 160.514 173.107C160.911 172.702 161.11 172.204 161.11 171.612C161.11 171.02 160.911 170.525 160.514 170.128C160.117 169.723 159.623 169.521 159.031 169.521C158.447 169.521 157.956 169.723 157.559 170.128C157.162 170.525 156.963 171.02 156.963 171.612C156.963 172.204 157.162 172.702 157.559 173.107C157.956 173.504 158.447 173.703 159.031 173.703ZM164.682 169.673C165.017 168.948 165.624 168.586 166.504 168.586V169.649C166.006 169.626 165.578 169.758 165.219 170.046C164.861 170.335 164.682 170.798 164.682 171.436V174.532H163.666V168.691H164.682V169.673ZM171.701 168.691H172.787L170.404 174.894C170.155 175.556 169.805 176.058 169.353 176.401C168.909 176.751 168.395 176.907 167.811 176.868V175.922C168.528 175.976 169.053 175.579 169.388 174.73L169.493 174.509L166.947 168.691H168.033L170.019 173.27L171.701 168.691Z" fill="#212121"/>
<path d="M120.583 274.68C119.766 275.505 118.765 275.918 117.582 275.918C116.398 275.918 115.397 275.505 114.58 274.68C113.762 273.854 113.353 272.854 113.353 271.678C113.353 270.494 113.762 269.493 114.58 268.676C115.397 267.85 116.398 267.438 117.582 267.438C118.765 267.438 119.766 267.85 120.583 268.676C121.409 269.493 121.822 270.494 121.822 271.678C121.822 272.854 121.409 273.854 120.583 274.68ZM115.327 273.944C115.935 274.551 116.686 274.855 117.582 274.855C118.477 274.855 119.225 274.551 119.824 273.944C120.432 273.329 120.735 272.573 120.735 271.678C120.735 270.774 120.432 270.019 119.824 269.412C119.225 268.796 118.477 268.489 117.582 268.489C116.686 268.489 115.935 268.796 115.327 269.412C114.727 270.019 114.428 270.774 114.428 271.678C114.428 272.573 114.727 273.329 115.327 273.944ZM125.768 275.918C124.888 275.918 124.156 275.626 123.572 275.042C122.987 274.45 122.695 273.718 122.695 272.846C122.695 271.974 122.987 271.245 123.572 270.661C124.156 270.07 124.888 269.774 125.768 269.774C126.344 269.774 126.862 269.914 127.321 270.194C127.781 270.467 128.123 270.837 128.349 271.304L127.496 271.794C127.348 271.483 127.119 271.234 126.807 271.047C126.503 270.86 126.157 270.767 125.768 270.767C125.183 270.767 124.693 270.965 124.296 271.362C123.906 271.759 123.712 272.254 123.712 272.846C123.712 273.43 123.906 273.92 124.296 274.318C124.693 274.715 125.183 274.913 125.768 274.913C126.157 274.913 126.507 274.824 126.819 274.645C127.13 274.458 127.368 274.209 127.531 273.897L128.396 274.399C128.147 274.859 127.788 275.229 127.321 275.509C126.854 275.782 126.336 275.918 125.768 275.918ZM132.576 270.907H131.023V274.072C131.023 274.36 131.077 274.567 131.186 274.691C131.303 274.808 131.478 274.87 131.712 274.878C131.945 274.878 132.234 274.87 132.576 274.855V275.766C131.689 275.883 131.038 275.813 130.626 275.556C130.213 275.291 130.006 274.796 130.006 274.072V270.907H128.85V269.926H130.006V268.594L131.023 268.29V269.926H132.576V270.907ZM133.258 277.53V276.549H138.456V277.53H133.258ZM142.171 275.918C141.408 275.918 140.754 275.739 140.209 275.38C139.671 275.022 139.294 274.532 139.075 273.909L140.01 273.371C140.329 274.36 141.057 274.855 142.194 274.855C142.755 274.855 143.183 274.742 143.479 274.516C143.775 274.282 143.923 273.975 143.923 273.593C143.923 273.204 143.775 272.912 143.479 272.717C143.183 272.523 142.689 272.316 141.996 272.098C141.653 271.989 141.392 271.903 141.213 271.841C141.034 271.771 140.808 271.67 140.536 271.537C140.271 271.397 140.072 271.257 139.94 271.117C139.807 270.969 139.687 270.778 139.578 270.545C139.477 270.311 139.426 270.046 139.426 269.75C139.426 269.042 139.675 268.481 140.173 268.068C140.672 267.648 141.279 267.438 141.996 267.438C142.642 267.438 143.203 267.601 143.678 267.928C144.161 268.255 144.523 268.687 144.764 269.225L143.853 269.75C143.503 268.909 142.883 268.489 141.996 268.489C141.552 268.489 141.194 268.598 140.921 268.816C140.648 269.034 140.512 269.33 140.512 269.704C140.512 270.062 140.641 270.334 140.898 270.521C141.155 270.708 141.599 270.903 142.229 271.105C142.455 271.175 142.615 271.226 142.708 271.257C142.802 271.288 142.946 271.343 143.14 271.421C143.343 271.499 143.491 271.561 143.584 271.608C143.678 271.654 143.802 271.72 143.958 271.806C144.122 271.892 144.242 271.974 144.32 272.051C144.398 272.129 144.488 272.227 144.589 272.343C144.698 272.452 144.776 272.565 144.822 272.682C144.869 272.799 144.908 272.935 144.939 273.091C144.978 273.239 144.998 273.399 144.998 273.57C144.998 274.286 144.737 274.859 144.215 275.287C143.693 275.708 143.012 275.918 142.171 275.918ZM151.152 269.926H152.168V275.766H151.152V274.761C150.645 275.532 149.91 275.918 148.944 275.918C148.126 275.918 147.429 275.622 146.853 275.03C146.277 274.43 145.989 273.702 145.989 272.846C145.989 271.989 146.277 271.265 146.853 270.673C147.429 270.073 148.126 269.774 148.944 269.774C149.91 269.774 150.645 270.159 151.152 270.93V269.926ZM149.072 274.937C149.664 274.937 150.159 274.738 150.556 274.341C150.953 273.936 151.152 273.438 151.152 272.846C151.152 272.254 150.953 271.759 150.556 271.362C150.159 270.957 149.664 270.755 149.072 270.755C148.488 270.755 147.998 270.957 147.601 271.362C147.204 271.759 147.005 272.254 147.005 272.846C147.005 273.438 147.204 273.936 147.601 274.341C147.998 274.738 148.488 274.937 149.072 274.937ZM153.708 275.766V267.239H154.724V275.766H153.708ZM161.11 269.926H162.126V275.766H161.11V274.761C160.604 275.532 159.868 275.918 158.902 275.918C158.085 275.918 157.388 275.622 156.811 275.03C156.235 274.43 155.947 273.702 155.947 272.846C155.947 271.989 156.235 271.265 156.811 270.673C157.388 270.073 158.085 269.774 158.902 269.774C159.868 269.774 160.604 270.159 161.11 270.93V269.926ZM159.031 274.937C159.623 274.937 160.117 274.738 160.514 274.341C160.911 273.936 161.11 273.438 161.11 272.846C161.11 272.254 160.911 271.759 160.514 271.362C160.117 270.957 159.623 270.755 159.031 270.755C158.447 270.755 157.956 270.957 157.559 271.362C157.162 271.759 156.963 272.254 156.963 272.846C156.963 273.438 157.162 273.936 157.559 274.341C157.956 274.738 158.447 274.937 159.031 274.937ZM164.682 270.907C165.017 270.183 165.624 269.82 166.504 269.82V270.883C166.006 270.86 165.578 270.992 165.219 271.281C164.861 271.569 164.682 272.032 164.682 272.671V275.766H163.666V269.926H164.682V270.907ZM171.701 269.926H172.787L170.404 276.128C170.155 276.79 169.805 277.292 169.353 277.635C168.909 277.985 168.395 278.141 167.811 278.102V277.156C168.528 277.21 169.053 276.813 169.388 275.965L169.493 275.743L166.947 269.926H168.033L170.019 274.504L171.701 269.926Z" fill="url(#paint3_linear_3835_1263)"/>
<path d="M119.1 101.137H119.918V109.314H119.217L114.661 102.656V109.314H113.844V101.137H114.544L119.1 107.795V101.137ZM126.689 103.473H127.46V109.314H126.689V108.169C126.152 109.026 125.365 109.454 124.329 109.454C123.496 109.454 122.784 109.158 122.192 108.566C121.608 107.974 121.316 107.25 121.316 106.394C121.316 105.537 121.608 104.813 122.192 104.221C122.784 103.629 123.496 103.333 124.329 103.333C125.365 103.333 126.152 103.762 126.689 104.618V103.473ZM122.752 108.041C123.196 108.485 123.741 108.706 124.388 108.706C125.034 108.706 125.579 108.485 126.023 108.041C126.467 107.589 126.689 107.04 126.689 106.394C126.689 105.747 126.467 105.202 126.023 104.758C125.579 104.307 125.034 104.081 124.388 104.081C123.741 104.081 123.196 104.307 122.752 104.758C122.309 105.202 122.087 105.747 122.087 106.394C122.087 107.04 122.309 107.589 122.752 108.041ZM135.318 103.333C135.972 103.333 136.498 103.544 136.895 103.964C137.3 104.385 137.502 104.953 137.502 105.669V109.314H136.731V105.669C136.731 105.163 136.599 104.774 136.334 104.501C136.077 104.221 135.735 104.081 135.306 104.081C134.824 104.081 134.43 104.244 134.127 104.571C133.831 104.891 133.683 105.393 133.683 106.078V109.314H132.912V105.669C132.912 105.155 132.787 104.762 132.538 104.49C132.297 104.217 131.966 104.081 131.545 104.081C131.078 104.081 130.681 104.244 130.354 104.571C130.027 104.898 129.863 105.401 129.863 106.078V109.314H129.092V103.473H129.863V104.326C130.284 103.664 130.879 103.333 131.65 103.333C132.491 103.333 133.083 103.688 133.426 104.396C133.846 103.688 134.477 103.333 135.318 103.333ZM141.692 103.333C142.556 103.333 143.253 103.641 143.783 104.256C144.32 104.863 144.589 105.584 144.589 106.417C144.589 106.503 144.581 106.623 144.565 106.779H139.437C139.515 107.371 139.764 107.842 140.185 108.192C140.613 108.535 141.139 108.706 141.762 108.706C142.206 108.706 142.587 108.617 142.907 108.438C143.234 108.251 143.479 108.009 143.643 107.714L144.32 108.111C144.063 108.523 143.713 108.851 143.269 109.092C142.825 109.333 142.319 109.454 141.75 109.454C140.831 109.454 140.084 109.166 139.507 108.59C138.931 108.013 138.643 107.281 138.643 106.394C138.643 105.521 138.927 104.793 139.496 104.209C140.064 103.625 140.796 103.333 141.692 103.333ZM141.692 104.081C141.084 104.081 140.574 104.264 140.162 104.63C139.757 104.988 139.515 105.455 139.437 106.032H143.794C143.716 105.416 143.479 104.937 143.082 104.595C142.685 104.252 142.221 104.081 141.692 104.081Z" fill="#606060"/>
<path d="M119.1 202.371H119.918V210.548H119.217L114.661 203.89V210.548H113.844V202.371H114.544L119.1 209.029V202.371ZM126.689 204.707H127.46V210.548H126.689V209.403C126.152 210.26 125.365 210.688 124.329 210.688C123.496 210.688 122.784 210.392 122.192 209.8C121.608 209.208 121.316 208.484 121.316 207.628C121.316 206.771 121.608 206.047 122.192 205.455C122.784 204.863 123.496 204.567 124.329 204.567C125.365 204.567 126.152 204.996 126.689 205.852V204.707ZM122.752 209.275C123.196 209.719 123.741 209.94 124.388 209.94C125.034 209.94 125.579 209.719 126.023 209.275C126.467 208.823 126.689 208.274 126.689 207.628C126.689 206.981 126.467 206.436 126.023 205.992C125.579 205.541 125.034 205.315 124.388 205.315C123.741 205.315 123.196 205.541 122.752 205.992C122.309 206.436 122.087 206.981 122.087 207.628C122.087 208.274 122.309 208.823 122.752 209.275ZM135.318 204.567C135.972 204.567 136.498 204.778 136.895 205.198C137.3 205.619 137.502 206.187 137.502 206.903V210.548H136.731V206.903C136.731 206.397 136.599 206.008 136.334 205.735C136.077 205.455 135.735 205.315 135.306 205.315C134.824 205.315 134.43 205.478 134.127 205.805C133.831 206.125 133.683 206.627 133.683 207.312V210.548H132.912V206.903C132.912 206.389 132.787 205.996 132.538 205.724C132.297 205.451 131.966 205.315 131.545 205.315C131.078 205.315 130.681 205.478 130.354 205.805C130.027 206.132 129.863 206.635 129.863 207.312V210.548H129.092V204.707H129.863V205.56C130.284 204.898 130.879 204.567 131.65 204.567C132.491 204.567 133.083 204.922 133.426 205.63C133.846 204.922 134.477 204.567 135.318 204.567ZM141.692 204.567C142.556 204.567 143.253 204.875 143.783 205.49C144.32 206.097 144.589 206.818 144.589 207.651C144.589 207.737 144.581 207.857 144.565 208.013H139.437C139.515 208.605 139.764 209.076 140.185 209.426C140.613 209.769 141.139 209.94 141.762 209.94C142.206 209.94 142.587 209.851 142.907 209.672C143.234 209.485 143.479 209.243 143.643 208.948L144.32 209.345C144.063 209.757 143.713 210.085 143.269 210.326C142.825 210.567 142.319 210.688 141.75 210.688C140.831 210.688 140.084 210.4 139.507 209.824C138.931 209.247 138.643 208.515 138.643 207.628C138.643 206.755 138.927 206.027 139.496 205.443C140.064 204.859 140.796 204.567 141.692 204.567ZM141.692 205.315C141.084 205.315 140.574 205.498 140.162 205.864C139.757 206.222 139.515 206.689 139.437 207.266H143.794C143.716 206.65 143.479 206.171 143.082 205.829C142.685 205.486 142.221 205.315 141.692 205.315Z" fill="#606060"/>
<path d="M361.665 109.314L360.906 107.305H357.028L356.268 109.314H355.404L358.546 101.137H359.387L362.529 109.314H361.665ZM357.32 106.534H360.614L358.967 102.153L357.32 106.534ZM369.688 103.333C370.342 103.333 370.868 103.544 371.265 103.964C371.67 104.385 371.873 104.953 371.873 105.669V109.314H371.102V105.669C371.102 105.163 370.969 104.774 370.704 104.501C370.447 104.221 370.105 104.081 369.677 104.081C369.194 104.081 368.8 104.244 368.497 104.571C368.201 104.891 368.053 105.393 368.053 106.078V109.314H367.282V105.669C367.282 105.155 367.157 104.762 366.908 104.49C366.667 104.217 366.336 104.081 365.915 104.081C365.448 104.081 365.051 104.244 364.724 104.571C364.397 104.898 364.233 105.401 364.233 106.078V109.314H363.462V103.473H364.233V104.326C364.654 103.664 365.25 103.333 366.02 103.333C366.861 103.333 367.453 103.688 367.796 104.396C368.216 103.688 368.847 103.333 369.688 103.333ZM378.258 108.578C377.666 109.162 376.942 109.454 376.085 109.454C375.229 109.454 374.501 109.162 373.901 108.578C373.309 107.986 373.013 107.258 373.013 106.394C373.013 105.529 373.309 104.805 373.901 104.221C374.501 103.629 375.229 103.333 376.085 103.333C376.942 103.333 377.666 103.629 378.258 104.221C378.858 104.805 379.157 105.529 379.157 106.394C379.157 107.258 378.858 107.986 378.258 108.578ZM374.45 108.041C374.894 108.485 375.439 108.706 376.085 108.706C376.732 108.706 377.277 108.485 377.721 108.041C378.165 107.589 378.386 107.04 378.386 106.394C378.386 105.747 378.165 105.202 377.721 104.758C377.277 104.307 376.732 104.081 376.085 104.081C375.439 104.081 374.894 104.307 374.45 104.758C374.006 105.202 373.784 105.747 373.784 106.394C373.784 107.04 374.006 107.589 374.45 108.041ZM384.559 103.473H385.33V109.314H384.559V108.403C384.123 109.104 383.469 109.454 382.597 109.454C381.888 109.454 381.327 109.24 380.915 108.812C380.51 108.375 380.307 107.791 380.307 107.059V103.473H381.078V107.059C381.078 107.581 381.215 107.986 381.487 108.274C381.767 108.562 382.161 108.706 382.667 108.706C383.228 108.706 383.683 108.531 384.034 108.181C384.384 107.823 384.559 107.274 384.559 106.534V103.473ZM389.694 103.333C390.403 103.333 390.96 103.551 391.365 103.987C391.777 104.416 391.984 104.996 391.984 105.728V109.314H391.213V105.728C391.213 105.206 391.073 104.801 390.792 104.513C390.52 104.225 390.13 104.081 389.624 104.081C389.063 104.081 388.608 104.26 388.257 104.618C387.907 104.969 387.732 105.514 387.732 106.253V109.314H386.961V103.473H387.732V104.385C388.168 103.684 388.822 103.333 389.694 103.333ZM396.57 104.221H394.888V107.76C394.888 108.08 394.95 108.309 395.075 108.449C395.199 108.582 395.386 108.652 395.635 108.66C395.885 108.66 396.196 108.652 396.57 108.636V109.314C395.752 109.438 395.137 109.38 394.724 109.139C394.319 108.897 394.117 108.438 394.117 107.76V104.221H392.89V103.473H394.117V102.072L394.888 101.838V103.473H396.57V104.221Z" fill="#606060"/>
<path d="M361.665 210.548L360.906 208.539H357.028L356.268 210.548H355.404L358.546 202.371H359.387L362.529 210.548H361.665ZM357.32 207.768H360.614L358.967 203.387L357.32 207.768ZM369.688 204.567C370.342 204.567 370.868 204.778 371.265 205.198C371.67 205.619 371.873 206.187 371.873 206.903V210.548H371.102V206.903C371.102 206.397 370.969 206.008 370.704 205.735C370.447 205.455 370.105 205.315 369.677 205.315C369.194 205.315 368.8 205.478 368.497 205.805C368.201 206.125 368.053 206.627 368.053 207.312V210.548H367.282V206.903C367.282 206.389 367.157 205.996 366.908 205.724C366.667 205.451 366.336 205.315 365.915 205.315C365.448 205.315 365.051 205.478 364.724 205.805C364.397 206.132 364.233 206.635 364.233 207.312V210.548H363.462V204.707H364.233V205.56C364.654 204.898 365.25 204.567 366.02 204.567C366.861 204.567 367.453 204.922 367.796 205.63C368.216 204.922 368.847 204.567 369.688 204.567ZM378.258 209.812C377.666 210.396 376.942 210.688 376.085 210.688C375.229 210.688 374.501 210.396 373.901 209.812C373.309 209.22 373.013 208.492 373.013 207.628C373.013 206.763 373.309 206.039 373.901 205.455C374.501 204.863 375.229 204.567 376.085 204.567C376.942 204.567 377.666 204.863 378.258 205.455C378.858 206.039 379.157 206.763 379.157 207.628C379.157 208.492 378.858 209.22 378.258 209.812ZM374.45 209.275C374.894 209.719 375.439 209.94 376.085 209.94C376.732 209.94 377.277 209.719 377.721 209.275C378.165 208.823 378.386 208.274 378.386 207.628C378.386 206.981 378.165 206.436 377.721 205.992C377.277 205.541 376.732 205.315 376.085 205.315C375.439 205.315 374.894 205.541 374.45 205.992C374.006 206.436 373.784 206.981 373.784 207.628C373.784 208.274 374.006 208.823 374.45 209.275ZM384.559 204.707H385.33V210.548H384.559V209.637C384.123 210.338 383.469 210.688 382.597 210.688C381.888 210.688 381.327 210.474 380.915 210.046C380.51 209.609 380.307 209.025 380.307 208.293V204.707H381.078V208.293C381.078 208.815 381.215 209.22 381.487 209.508C381.767 209.796 382.161 209.94 382.667 209.94C383.228 209.94 383.683 209.765 384.034 209.415C384.384 209.057 384.559 208.508 384.559 207.768V204.707ZM389.694 204.567C390.403 204.567 390.96 204.785 391.365 205.221C391.777 205.65 391.984 206.23 391.984 206.962V210.548H391.213V206.962C391.213 206.44 391.073 206.035 390.792 205.747C390.52 205.459 390.13 205.315 389.624 205.315C389.063 205.315 388.608 205.494 388.257 205.852C387.907 206.203 387.732 206.748 387.732 207.487V210.548H386.961V204.707H387.732V205.619C388.168 204.918 388.822 204.567 389.694 204.567ZM396.57 205.455H394.888V208.994C394.888 209.314 394.95 209.543 395.075 209.683C395.199 209.816 395.386 209.886 395.635 209.894C395.885 209.894 396.196 209.886 396.57 209.87V210.548C395.752 210.672 395.137 210.614 394.724 210.373C394.319 210.131 394.117 209.672 394.117 208.994V205.455H392.89V204.707H394.117V203.306L394.888 203.072V204.707H396.57V205.455Z" fill="#606060"/>
<path d="M118.584 147.542H119.334V155.037H118.691L114.515 148.934V155.037H113.766V147.542H114.408L118.584 153.645V147.542ZM125.423 154.363C124.88 154.898 124.216 155.166 123.431 155.166C122.646 155.166 121.979 154.898 121.429 154.363C120.886 153.82 120.615 153.153 120.615 152.36C120.615 151.568 120.886 150.904 121.429 150.369C121.979 149.826 122.646 149.555 123.431 149.555C124.216 149.555 124.88 149.826 125.423 150.369C125.972 150.904 126.247 151.568 126.247 152.36C126.247 153.153 125.972 153.82 125.423 154.363ZM121.932 153.87C122.339 154.277 122.839 154.48 123.431 154.48C124.024 154.48 124.523 154.277 124.93 153.87C125.337 153.456 125.541 152.953 125.541 152.36C125.541 151.768 125.337 151.268 124.93 150.861C124.523 150.447 124.024 150.24 123.431 150.24C122.839 150.24 122.339 150.447 121.932 150.861C121.525 151.268 121.322 151.768 121.322 152.36C121.322 152.953 121.525 153.456 121.932 153.87ZM130.163 150.369H128.621V153.613C128.621 153.906 128.678 154.116 128.792 154.245C128.906 154.366 129.078 154.43 129.306 154.438C129.535 154.438 129.82 154.43 130.163 154.416V155.037C129.413 155.151 128.849 155.098 128.471 154.877C128.1 154.655 127.914 154.234 127.914 153.613V150.369H126.79V149.684H127.914V148.399L128.621 148.184V149.684H130.163V150.369ZM133.49 149.555C134.282 149.555 134.921 149.837 135.407 150.401C135.899 150.958 136.145 151.618 136.145 152.382C136.145 152.46 136.138 152.571 136.124 152.714H131.423C131.495 153.256 131.723 153.688 132.109 154.009C132.501 154.323 132.983 154.48 133.554 154.48C133.961 154.48 134.311 154.398 134.603 154.234C134.903 154.063 135.128 153.842 135.278 153.57L135.899 153.934C135.664 154.313 135.342 154.613 134.935 154.834C134.529 155.055 134.065 155.166 133.543 155.166C132.701 155.166 132.016 154.902 131.488 154.373C130.959 153.845 130.695 153.174 130.695 152.36C130.695 151.561 130.956 150.893 131.477 150.358C131.998 149.823 132.669 149.555 133.49 149.555ZM133.49 150.24C132.933 150.24 132.466 150.408 132.087 150.744C131.716 151.072 131.495 151.5 131.423 152.028H135.417C135.346 151.465 135.128 151.026 134.764 150.711C134.4 150.397 133.975 150.24 133.49 150.24ZM137.617 151.086C137.617 151.329 137.724 151.522 137.938 151.664C138.152 151.807 138.413 151.918 138.72 151.996C139.027 152.075 139.334 152.164 139.641 152.264C139.948 152.357 140.208 152.517 140.422 152.746C140.637 152.967 140.744 153.26 140.744 153.624C140.744 154.081 140.562 154.452 140.198 154.737C139.841 155.023 139.377 155.166 138.806 155.166C138.292 155.166 137.853 155.052 137.489 154.823C137.132 154.595 136.882 154.298 136.739 153.934L137.339 153.581C137.439 153.859 137.617 154.081 137.874 154.245C138.138 154.402 138.449 154.48 138.806 154.48C139.155 154.48 139.448 154.413 139.684 154.277C139.919 154.134 140.037 153.917 140.037 153.624C140.037 153.381 139.93 153.188 139.716 153.046C139.502 152.903 139.241 152.792 138.934 152.714C138.627 152.635 138.32 152.55 138.013 152.457C137.706 152.357 137.446 152.196 137.232 151.975C137.017 151.746 136.91 151.45 136.91 151.086C136.91 150.651 137.082 150.287 137.424 149.994C137.774 149.701 138.213 149.555 138.741 149.555C139.177 149.555 139.559 149.655 139.887 149.855C140.215 150.048 140.458 150.312 140.615 150.647L140.026 150.99C139.819 150.49 139.391 150.24 138.741 150.24C138.434 150.24 138.17 150.315 137.949 150.465C137.728 150.608 137.617 150.815 137.617 151.086Z" fill="#606060"/>
<path d="M118.584 248.776H119.334V256.271H118.691L114.515 250.168V256.271H113.766V248.776H114.408L118.584 254.879V248.776ZM125.423 255.597C124.88 256.132 124.216 256.4 123.431 256.4C122.646 256.4 121.979 256.132 121.429 255.597C120.886 255.054 120.615 254.387 120.615 253.594C120.615 252.802 120.886 252.138 121.429 251.603C121.979 251.06 122.646 250.789 123.431 250.789C124.216 250.789 124.88 251.06 125.423 251.603C125.972 252.138 126.247 252.802 126.247 253.594C126.247 254.387 125.972 255.054 125.423 255.597ZM121.932 255.104C122.339 255.511 122.839 255.714 123.431 255.714C124.024 255.714 124.523 255.511 124.93 255.104C125.337 254.69 125.541 254.187 125.541 253.594C125.541 253.002 125.337 252.502 124.93 252.095C124.523 251.681 124.024 251.474 123.431 251.474C122.839 251.474 122.339 251.681 121.932 252.095C121.525 252.502 121.322 253.002 121.322 253.594C121.322 254.187 121.525 254.69 121.932 255.104ZM130.163 251.603H128.621V254.847C128.621 255.14 128.678 255.35 128.792 255.479C128.906 255.6 129.078 255.665 129.306 255.672C129.535 255.672 129.82 255.665 130.163 255.65V256.271C129.413 256.385 128.849 256.332 128.471 256.111C128.1 255.889 127.914 255.468 127.914 254.847V251.603H126.79V250.918H127.914V249.633L128.621 249.419V250.918H130.163V251.603ZM133.49 250.789C134.282 250.789 134.921 251.071 135.407 251.635C135.899 252.192 136.145 252.852 136.145 253.616C136.145 253.694 136.138 253.805 136.124 253.948H131.423C131.495 254.49 131.723 254.922 132.109 255.243C132.501 255.557 132.983 255.714 133.554 255.714C133.961 255.714 134.311 255.632 134.603 255.468C134.903 255.297 135.128 255.076 135.278 254.804L135.899 255.168C135.664 255.547 135.342 255.847 134.935 256.068C134.529 256.289 134.065 256.4 133.543 256.4C132.701 256.4 132.016 256.136 131.488 255.607C130.959 255.079 130.695 254.408 130.695 253.594C130.695 252.795 130.956 252.127 131.477 251.592C131.998 251.057 132.669 250.789 133.49 250.789ZM133.49 251.474C132.933 251.474 132.466 251.642 132.087 251.978C131.716 252.306 131.495 252.734 131.423 253.262H135.417C135.346 252.699 135.128 252.26 134.764 251.945C134.4 251.631 133.975 251.474 133.49 251.474ZM137.617 252.32C137.617 252.563 137.724 252.756 137.938 252.898C138.152 253.041 138.413 253.152 138.72 253.23C139.027 253.309 139.334 253.398 139.641 253.498C139.948 253.591 140.208 253.751 140.422 253.98C140.637 254.201 140.744 254.494 140.744 254.858C140.744 255.315 140.562 255.686 140.198 255.971C139.841 256.257 139.377 256.4 138.806 256.4C138.292 256.4 137.853 256.286 137.489 256.057C137.132 255.829 136.882 255.532 136.739 255.168L137.339 254.815C137.439 255.093 137.617 255.315 137.874 255.479C138.138 255.636 138.449 255.714 138.806 255.714C139.155 255.714 139.448 255.647 139.684 255.511C139.919 255.368 140.037 255.151 140.037 254.858C140.037 254.615 139.93 254.422 139.716 254.28C139.502 254.137 139.241 254.026 138.934 253.948C138.627 253.869 138.32 253.784 138.013 253.691C137.706 253.591 137.446 253.43 137.232 253.209C137.017 252.981 136.91 252.684 136.91 252.32C136.91 251.885 137.082 251.521 137.424 251.228C137.774 250.935 138.213 250.789 138.741 250.789C139.177 250.789 139.559 250.889 139.887 251.089C140.215 251.282 140.458 251.546 140.615 251.881L140.026 252.224C139.819 251.724 139.391 251.474 138.741 251.474C138.434 251.474 138.17 251.549 137.949 251.699C137.728 251.842 137.617 252.049 137.617 252.32Z" fill="#606060"/>
<path d="M147.952 310.516H362.182V343.006H147.952V310.516Z" fill="#0B4A94"/>
<path d="M238.534 330.813C237.242 330.813 236.174 330.387 235.329 329.534C234.493 328.681 234.074 327.633 234.074 326.391C234.074 325.148 234.493 324.1 235.329 323.247C236.174 322.394 237.242 321.968 238.534 321.968C239.313 321.968 240.028 322.155 240.678 322.528C241.336 322.902 241.848 323.406 242.213 324.039L241.226 324.612C240.982 324.141 240.617 323.767 240.13 323.491C239.65 323.207 239.118 323.064 238.534 323.064C237.551 323.064 236.747 323.381 236.121 324.015C235.504 324.648 235.195 325.44 235.195 326.391C235.195 327.333 235.504 328.121 236.121 328.754C236.747 329.388 237.551 329.705 238.534 329.705C239.118 329.705 239.65 329.567 240.13 329.29C240.617 329.006 240.982 328.632 241.226 328.169L242.213 328.73C241.856 329.363 241.348 329.871 240.69 330.253C240.032 330.627 239.313 330.813 238.534 330.813ZM248.504 329.887C247.879 330.505 247.12 330.813 246.226 330.813C245.333 330.813 244.573 330.505 243.948 329.887C243.33 329.27 243.022 328.511 243.022 327.609C243.022 326.707 243.33 325.948 243.948 325.331C244.573 324.713 245.333 324.405 246.226 324.405C247.12 324.405 247.879 324.713 248.504 325.331C249.13 325.948 249.443 326.707 249.443 327.609C249.443 328.511 249.13 329.27 248.504 329.887ZM246.226 329.778C246.835 329.778 247.347 329.571 247.761 329.156C248.175 328.742 248.383 328.226 248.383 327.609C248.383 326.992 248.175 326.476 247.761 326.062C247.347 325.647 246.835 325.44 246.226 325.44C245.625 325.44 245.117 325.647 244.703 326.062C244.289 326.476 244.082 326.992 244.082 327.609C244.082 328.226 244.289 328.742 244.703 329.156C245.117 329.571 245.625 329.778 246.226 329.778ZM253.726 324.405C254.441 324.405 255.013 324.632 255.444 325.087C255.874 325.534 256.09 326.143 256.09 326.915V330.655H255.03V326.975C255.03 326.48 254.896 326.098 254.627 325.83C254.359 325.554 253.99 325.416 253.519 325.416C252.991 325.416 252.564 325.582 252.239 325.915C251.915 326.24 251.752 326.744 251.752 327.426V330.655H250.692V324.563H251.752V325.44C252.183 324.75 252.841 324.405 253.726 324.405ZM260.7 322.991C259.628 322.902 259.092 323.365 259.092 324.38V324.563H260.7V325.587H259.092V330.655H258.032V325.587H257.058V324.563H258.032V324.38C258.032 323.56 258.26 322.939 258.715 322.516C259.178 322.094 259.84 321.911 260.7 321.968V322.991ZM262.568 325.587C262.917 324.831 263.55 324.453 264.468 324.453V325.562C263.948 325.538 263.502 325.676 263.128 325.976C262.754 326.277 262.568 326.76 262.568 327.426V330.655H261.508V324.563H262.568V325.587ZM266.041 323.454C265.838 323.454 265.668 323.385 265.53 323.247C265.392 323.109 265.323 322.943 265.323 322.748C265.323 322.553 265.392 322.386 265.53 322.248C265.668 322.102 265.838 322.029 266.041 322.029C266.236 322.029 266.403 322.102 266.541 322.248C266.679 322.386 266.748 322.553 266.748 322.748C266.748 322.943 266.679 323.109 266.541 323.247C266.403 323.385 266.236 323.454 266.041 323.454ZM265.505 330.655V324.563H266.565V330.655H265.505ZM274.762 324.405C275.444 324.405 275.996 324.628 276.419 325.075C276.841 325.513 277.052 326.11 277.052 326.866V330.655H275.992V326.902C275.992 326.431 275.87 326.066 275.627 325.806C275.383 325.546 275.058 325.416 274.652 325.416C274.197 325.416 273.832 325.57 273.555 325.879C273.287 326.179 273.153 326.642 273.153 327.268V330.655H272.093V326.902C272.093 326.431 271.976 326.066 271.74 325.806C271.513 325.546 271.2 325.416 270.802 325.416C270.355 325.416 269.982 325.57 269.681 325.879C269.389 326.188 269.242 326.651 269.242 327.268V330.655H268.182V324.563H269.242V325.379C269.657 324.73 270.262 324.405 271.058 324.405C271.878 324.405 272.475 324.75 272.849 325.44C273.271 324.75 273.909 324.405 274.762 324.405Z" fill="#F4F6FA"/>
<path d="M105.282 42.3264H116.468V44.1644H105.282L110.211 49.0941L108.912 50.3936L101.764 43.2454L108.912 36.0972L110.211 37.3967L105.282 42.3264Z" fill="#606060"/>
</g>
<defs>
<linearGradient id="paint0_linear_3835_1263" x1="256" y1="4.08993" x2="256" y2="389.362" gradientUnits="userSpaceOnUse">
<stop offset="0.508831" stop-color="#DEDEDE"/>
<stop offset="1" stop-color="#DEDEDE" stop-opacity="0.06"/>
</linearGradient>
<linearGradient id="paint1_linear_3835_1263" x1="256" y1="7.78723" x2="256" y2="367.298" gradientUnits="userSpaceOnUse">
<stop offset="0.823604" stop-color="#F9FBFF"/>
<stop offset="1" stop-color="#FCFDFF" stop-opacity="0"/>
</linearGradient>
<linearGradient id="paint2_linear_3835_1263" x1="255.026" y1="86.633" x2="255.026" y2="299.809" gradientUnits="userSpaceOnUse">
<stop offset="0.818995" stop-color="white"/>
<stop offset="1" stop-color="white" stop-opacity="0"/>
</linearGradient>
<linearGradient id="paint3_linear_3835_1263" x1="143.085" y1="264.766" x2="143.085" y2="278.394" gradientUnits="userSpaceOnUse">
<stop stop-color="#212121"/>
<stop offset="1" stop-color="#212121" stop-opacity="0"/>
</linearGradient>
<clipPath id="clip0_3835_1263">
<path d="M83.3828 38.9362C83.3828 24.2524 83.3828 16.9105 87.9445 12.3489C92.5061 7.78723 99.848 7.78723 114.532 7.78723H397.468C412.152 7.78723 419.494 7.78723 424.055 12.3489C428.617 16.9105 428.617 24.2524 428.617 38.9362V367.298H83.3828V38.9362Z" fill="white"/>
</clipPath>
</defs>
</svg>
