<svg width="512" height="294" viewBox="0 0 512 294" fill="none" xmlns="http://www.w3.org/2000/svg">
<rect x="193.754" y="42.5483" width="250.246" height="142.032" rx="6.54937" fill="url(#paint0_linear_3833_181)"/>
<path fill-rule="evenodd" clip-rule="evenodd" d="M387.418 145.065H413.539C417.721 145.065 421.122 148.428 421.122 152.562C421.122 156.695 417.721 160.058 413.539 160.058H376.496C374.155 160.058 372.283 161.909 372.283 164.222C372.283 166.536 374.155 168.387 376.496 168.387H391.662C395.844 168.387 399.246 171.749 399.246 175.883C399.246 180.017 395.844 183.379 391.662 183.379H371.377C365.448 183.379 359.706 181.281 355.15 177.487L280.907 115.297C279.19 113.878 279.221 111.286 280.938 109.867L355.212 49.1888C359.706 45.5178 365.354 43.5127 371.19 43.5127H401.743C405.924 43.5127 409.326 46.8752 409.326 51.0089C409.326 55.1425 405.924 58.505 401.743 58.505H377.307C374.529 58.505 372.251 60.7261 372.251 63.5024C372.251 66.2479 374.498 68.4999 377.307 68.4999H392.474C396.188 68.4999 399.215 71.4921 399.215 75.1631C399.215 78.834 396.188 81.8263 392.474 81.8263H368.881C365.167 81.8263 362.14 84.8186 362.14 88.4896C362.14 92.1605 365.167 95.1528 368.881 95.1528H375.622C379.335 95.1528 382.363 98.1451 382.363 101.816C382.363 105.487 379.335 108.479 375.622 108.479H358.77C355.992 108.479 353.714 110.7 353.714 113.477C353.714 116.253 355.961 118.474 358.77 118.474H399.184C402.897 118.474 405.924 121.466 405.924 125.137C405.924 128.808 402.897 131.801 399.184 131.801H387.387C383.673 131.801 380.646 134.793 380.646 138.464C380.677 142.073 383.673 145.065 387.418 145.065ZM433.533 149.312C429.344 149.312 425.949 152.827 425.949 157.162C425.949 161.498 429.344 165.012 433.533 165.012C437.721 165.012 441.117 161.498 441.117 157.162C441.117 152.827 437.721 149.312 433.533 149.312ZM405.724 76.462C405.724 72.1264 409.119 68.6118 413.308 68.6118C417.497 68.6118 420.892 72.1264 420.892 76.462C420.892 80.7976 417.497 84.3122 413.308 84.3122C409.119 84.3122 405.724 80.7976 405.724 76.462ZM437.247 135.129H417.022C413.308 135.129 410.281 131.996 410.281 128.151C410.281 124.307 413.308 121.173 417.022 121.173H437.247C440.961 121.173 443.988 124.307 443.988 128.151C443.988 131.996 440.992 135.129 437.247 135.129ZM393.927 110.481H417.523C421.237 110.481 424.264 107.347 424.264 103.503C424.264 99.6582 421.237 96.5246 417.523 96.5246H393.927C390.213 96.5246 387.186 99.6582 387.186 103.503C387.186 107.347 390.213 110.481 393.927 110.481Z" fill="#3E3A66"/>
<path d="M213.434 114.662C211.784 114.662 210.389 115.393 209.793 116.704C209.759 116.346 209.742 116.006 209.742 115.734C209.742 112.501 211.393 110.85 213.962 110.85C214.847 110.85 215.663 111.004 216.276 111.412L216.769 110.425C216.021 109.966 215.017 109.778 213.945 109.778C210.712 109.778 208.5 111.888 208.5 115.938C208.5 119.698 210.219 121.893 213.383 121.893C215.697 121.893 217.45 120.464 217.45 118.235C217.45 116.057 215.799 114.662 213.434 114.662ZM213.332 120.855C211.273 120.855 210.185 119.613 210.185 118.303C210.185 116.823 211.427 115.7 213.247 115.7C215.085 115.7 216.242 116.704 216.242 118.269C216.242 119.851 215.051 120.855 213.332 120.855ZM224.296 121.893C227.053 121.893 229.061 119.63 229.061 115.836C229.061 112.041 227.053 109.778 224.296 109.778C221.54 109.778 219.549 112.041 219.549 115.836C219.549 119.63 221.54 121.893 224.296 121.893ZM224.296 120.77C222.221 120.77 220.791 119.018 220.791 115.836C220.791 112.654 222.221 110.901 224.296 110.901C226.372 110.901 227.802 112.654 227.802 115.836C227.802 119.018 226.372 120.77 224.296 120.77ZM231.022 109.881V113.199H232.23V110.97H238.356L233.456 121.791H234.783L239.768 110.748V109.881H231.022ZM251.074 117.571H248.692V114.815H247.5V117.571H242.328L248.419 109.881H247.058L240.745 117.776V118.66H247.466V121.791H248.692V118.66H251.074V117.571ZM259.596 120.702L263.645 116.721C265.245 115.155 265.602 114.134 265.602 112.994C265.602 111.004 264.071 109.778 261.655 109.778C259.834 109.778 258.354 110.391 257.435 111.48L258.303 112.229C259.085 111.327 260.157 110.901 261.552 110.901C263.373 110.901 264.343 111.752 264.343 113.13C264.343 113.947 264.088 114.747 262.743 116.074L257.792 120.923V121.791H266.146V120.702H259.596ZM267.958 109.881V113.199H269.166V110.97H275.291L270.391 121.791H271.718L276.704 110.748V109.881H267.958ZM283.413 121.893C286.17 121.893 288.177 119.63 288.177 115.836C288.177 112.041 286.17 109.778 283.413 109.778C280.657 109.778 278.666 112.041 278.666 115.836C278.666 119.63 280.657 121.893 283.413 121.893ZM283.413 120.77C281.337 120.77 279.908 119.018 279.908 115.836C279.908 112.654 281.337 110.901 283.413 110.901C285.489 110.901 286.918 112.654 286.918 115.836C286.918 119.018 285.489 120.77 283.413 120.77ZM295.36 121.893C298.116 121.893 300.124 119.63 300.124 115.836C300.124 112.041 298.116 109.778 295.36 109.778C292.603 109.778 290.612 112.041 290.612 115.836C290.612 119.63 292.603 121.893 295.36 121.893ZM295.36 120.77C293.284 120.77 291.855 119.018 291.855 115.836C291.855 112.654 293.284 110.901 295.36 110.901C297.436 110.901 298.865 112.654 298.865 115.836C298.865 119.018 297.436 120.77 295.36 120.77ZM312.44 121.893C315.196 121.893 317.204 119.63 317.204 115.836C317.204 112.041 315.196 109.778 312.44 109.778C309.683 109.778 307.693 112.041 307.693 115.836C307.693 119.63 309.683 121.893 312.44 121.893ZM312.44 120.77C310.364 120.77 308.935 119.018 308.935 115.836C308.935 112.654 310.364 110.901 312.44 110.901C314.516 110.901 315.945 112.654 315.945 115.836C315.945 119.018 314.516 120.77 312.44 120.77ZM324.386 121.893C327.143 121.893 329.151 119.63 329.151 115.836C329.151 112.041 327.143 109.778 324.386 109.778C321.63 109.778 319.639 112.041 319.639 115.836C319.639 119.63 321.63 121.893 324.386 121.893ZM324.386 120.77C322.311 120.77 320.881 119.018 320.881 115.836C320.881 112.654 322.311 110.901 324.386 110.901C326.462 110.901 327.891 112.654 327.891 115.836C327.891 119.018 326.462 120.77 324.386 120.77ZM336.333 121.893C339.089 121.893 341.097 119.63 341.097 115.836C341.097 112.041 339.089 109.778 336.333 109.778C333.576 109.778 331.586 112.041 331.586 115.836C331.586 119.63 333.576 121.893 336.333 121.893ZM336.333 120.77C334.257 120.77 332.828 119.018 332.828 115.836C332.828 112.654 334.257 110.901 336.333 110.901C338.409 110.901 339.838 112.654 339.838 115.836C339.838 119.018 338.409 120.77 336.333 120.77ZM348.279 121.893C351.036 121.893 353.043 119.63 353.043 115.836C353.043 112.041 351.036 109.778 348.279 109.778C345.523 109.778 343.532 112.041 343.532 115.836C343.532 119.63 345.523 121.893 348.279 121.893ZM348.279 120.77C346.203 120.77 344.774 119.018 344.774 115.836C344.774 112.654 346.203 110.901 348.279 110.901C350.355 110.901 351.784 112.654 351.784 115.836C351.784 119.018 350.355 120.77 348.279 120.77ZM365.359 121.893C368.116 121.893 370.124 119.63 370.124 115.836C370.124 112.041 368.116 109.778 365.359 109.778C362.603 109.778 360.612 112.041 360.612 115.836C360.612 119.63 362.603 121.893 365.359 121.893ZM365.359 120.77C363.284 120.77 361.854 119.018 361.854 115.836C361.854 112.654 363.284 110.901 365.359 110.901C367.435 110.901 368.865 112.654 368.865 115.836C368.865 119.018 367.435 120.77 365.359 120.77ZM377.306 121.893C380.062 121.893 382.07 119.63 382.07 115.836C382.07 112.041 380.062 109.778 377.306 109.778C374.55 109.778 372.559 112.041 372.559 115.836C372.559 119.63 374.55 121.893 377.306 121.893ZM377.306 120.77C375.23 120.77 373.801 119.018 373.801 115.836C373.801 112.654 375.23 110.901 377.306 110.901C379.382 110.901 380.811 112.654 380.811 115.836C380.811 119.018 379.382 120.77 377.306 120.77ZM389.252 121.893C392.009 121.893 394.017 119.63 394.017 115.836C394.017 112.041 392.009 109.778 389.252 109.778C386.496 109.778 384.505 112.041 384.505 115.836C384.505 119.63 386.496 121.893 389.252 121.893ZM389.252 120.77C387.177 120.77 385.747 119.018 385.747 115.836C385.747 112.654 387.177 110.901 389.252 110.901C391.328 110.901 392.757 112.654 392.757 115.836C392.757 119.018 391.328 120.77 389.252 120.77ZM401.199 121.893C403.955 121.893 405.963 119.63 405.963 115.836C405.963 112.041 403.955 109.778 401.199 109.778C398.442 109.778 396.452 112.041 396.452 115.836C396.452 119.63 398.442 121.893 401.199 121.893ZM401.199 120.77C399.123 120.77 397.694 119.018 397.694 115.836C397.694 112.654 399.123 110.901 401.199 110.901C403.275 110.901 404.704 112.654 404.704 115.836C404.704 119.018 403.275 120.77 401.199 120.77Z" fill="white"/>
<path d="M302.396 138.005V138.837H304.54V147.104H305.476V138.005H302.396ZM309.38 146.272L312.473 143.23C313.695 142.034 313.968 141.255 313.968 140.384C313.968 138.863 312.798 137.927 310.952 137.927C309.562 137.927 308.431 138.395 307.729 139.227L308.392 139.799C308.99 139.11 309.809 138.785 310.875 138.785C312.265 138.785 313.006 139.435 313.006 140.488C313.006 141.112 312.811 141.722 311.784 142.736L308.002 146.441V147.104H314.384V146.272H309.38ZM315.204 148.403H316.049L320.338 136.16H319.494L315.204 148.403ZM322.288 146.272L325.381 143.23C326.603 142.034 326.876 141.255 326.876 140.384C326.876 138.863 325.706 137.927 323.86 137.927C322.47 137.927 321.339 138.395 320.637 139.227L321.3 139.799C321.898 139.11 322.716 138.785 323.782 138.785C325.173 138.785 325.914 139.435 325.914 140.488C325.914 141.112 325.719 141.722 324.692 142.736L320.91 146.441V147.104H327.292V146.272H322.288ZM330.195 146.272L333.288 143.23C334.51 142.034 334.783 141.255 334.783 140.384C334.783 138.863 333.613 137.927 331.768 137.927C330.377 137.927 329.246 138.395 328.544 139.227L329.207 139.799C329.805 139.11 330.624 138.785 331.69 138.785C333.08 138.785 333.821 139.435 333.821 140.488C333.821 141.112 333.626 141.722 332.599 142.736L328.817 146.441V147.104H335.199V146.272H330.195Z" fill="white"/>
<path d="M211.311 130.362C210.576 130.362 209.954 130.688 209.688 131.272C209.673 131.112 209.666 130.961 209.666 130.839C209.666 129.399 210.401 128.663 211.546 128.663C211.941 128.663 212.305 128.731 212.578 128.913L212.798 128.473C212.464 128.269 212.017 128.185 211.539 128.185C210.098 128.185 209.112 129.126 209.112 130.93C209.112 132.606 209.878 133.585 211.289 133.585C212.32 133.585 213.101 132.948 213.101 131.954C213.101 130.983 212.365 130.362 211.311 130.362ZM211.266 133.122C210.348 133.122 209.863 132.568 209.863 131.984C209.863 131.325 210.416 130.824 211.228 130.824C212.047 130.824 212.563 131.272 212.563 131.969C212.563 132.675 212.032 133.122 211.266 133.122ZM216.152 133.585C217.381 133.585 218.276 132.576 218.276 130.885C218.276 129.194 217.381 128.185 216.152 128.185C214.924 128.185 214.037 129.194 214.037 130.885C214.037 132.576 214.924 133.585 216.152 133.585ZM216.152 133.084C215.227 133.084 214.59 132.303 214.59 130.885C214.59 129.467 215.227 128.686 216.152 128.686C217.078 128.686 217.715 129.467 217.715 130.885C217.715 132.303 217.078 133.084 216.152 133.084ZM219.15 128.231V129.709H219.688V128.716H222.418L220.234 133.539H220.826L223.048 128.617V128.231H219.15ZM228.087 131.658H227.025V130.43H226.494V131.658H224.189L226.904 128.231H226.297L223.483 131.749V132.144H226.479V133.539H227.025V132.144H228.087V131.658Z" fill="white"/>
<path d="M215.782 160.748V168.688H214.988V161.95L212.209 166.601H212.096L209.317 161.95V168.688H208.523V160.748H209.51L212.153 165.172L214.796 160.748H215.782ZM221.475 163.017H222.223V168.688H221.475V167.804C221.051 168.484 220.416 168.825 219.569 168.825C218.881 168.825 218.336 168.617 217.936 168.201C217.542 167.777 217.346 167.21 217.346 166.499V163.017H218.094V166.499C218.094 167.006 218.227 167.399 218.491 167.679C218.764 167.959 219.145 168.099 219.637 168.099C220.181 168.099 220.624 167.928 220.964 167.588C221.304 167.24 221.475 166.707 221.475 165.989V163.017ZM224.556 163.958C224.904 163.27 225.501 162.926 226.348 162.926V163.652C225.834 163.652 225.406 163.803 225.066 164.106C224.726 164.408 224.556 164.885 224.556 165.535V168.688H223.807V163.017H224.556V163.958ZM231.367 163.017H232.116V168.688H231.367V167.804C230.943 168.484 230.308 168.825 229.461 168.825C228.773 168.825 228.229 168.617 227.828 168.201C227.435 167.777 227.238 167.21 227.238 166.499V163.017H227.987V166.499C227.987 167.006 228.119 167.399 228.384 167.679C228.656 167.959 229.038 168.099 229.529 168.099C230.074 168.099 230.516 167.928 230.856 167.588C231.197 167.24 231.367 166.707 231.367 165.989V163.017ZM238.577 163.017H239.326V168.462C239.326 169.278 239.046 169.921 238.486 170.39C237.927 170.859 237.257 171.093 236.478 171.093C235.147 171.093 234.251 170.632 233.79 169.709L234.448 169.335C234.788 170.023 235.465 170.367 236.478 170.367C237.129 170.367 237.639 170.193 238.01 169.845C238.388 169.505 238.577 169.044 238.577 168.462V167.577C238.055 168.409 237.291 168.825 236.286 168.825C235.476 168.825 234.784 168.537 234.21 167.962C233.643 167.388 233.359 166.684 233.359 165.853C233.359 165.021 233.643 164.317 234.21 163.743C234.784 163.168 235.476 162.881 236.286 162.881C237.291 162.881 238.055 163.297 238.577 164.128V163.017ZM234.754 167.452C235.185 167.883 235.715 168.099 236.342 168.099C236.97 168.099 237.499 167.883 237.93 167.452C238.361 167.013 238.577 166.48 238.577 165.853C238.577 165.225 238.361 164.696 237.93 164.264C237.499 163.826 236.97 163.607 236.342 163.607C235.715 163.607 235.185 163.826 234.754 164.264C234.323 164.696 234.108 165.225 234.108 165.853C234.108 166.48 234.323 167.013 234.754 167.452ZM245.788 163.017H246.537V168.688H245.788V167.577C245.267 168.409 244.503 168.825 243.497 168.825C242.688 168.825 241.996 168.537 241.421 167.962C240.854 167.388 240.57 166.684 240.57 165.853C240.57 165.021 240.854 164.317 241.421 163.743C241.996 163.168 242.688 162.881 243.497 162.881C244.503 162.881 245.267 163.297 245.788 164.128V163.017ZM241.966 167.452C242.397 167.883 242.926 168.099 243.554 168.099C244.181 168.099 244.711 167.883 245.142 167.452C245.573 167.013 245.788 166.48 245.788 165.853C245.788 165.225 245.573 164.696 245.142 164.264C244.711 163.826 244.181 163.607 243.554 163.607C242.926 163.607 242.397 163.826 241.966 164.264C241.535 164.696 241.319 165.225 241.319 165.853C241.319 166.48 241.535 167.013 241.966 167.452ZM250.777 162.881C251.465 162.881 252.005 163.092 252.399 163.516C252.799 163.932 253 164.495 253 165.206V168.688H252.251V165.206C252.251 164.699 252.115 164.306 251.843 164.026C251.578 163.746 251.2 163.607 250.709 163.607C250.164 163.607 249.722 163.781 249.381 164.128C249.041 164.469 248.871 164.998 248.871 165.716V168.688H248.122V163.017H248.871V163.902C249.294 163.221 249.93 162.881 250.777 162.881ZM259.892 168.825C259.166 168.825 258.542 168.654 258.021 168.314C257.506 167.966 257.147 167.49 256.943 166.885L257.624 166.488C257.767 166.979 258.032 167.365 258.418 167.645C258.803 167.917 259.299 168.053 259.904 168.053C260.494 168.053 260.951 167.925 261.276 167.668C261.609 167.403 261.775 167.055 261.775 166.624C261.775 166.208 261.624 165.894 261.322 165.682C261.019 165.471 260.52 165.251 259.824 165.024C259 164.752 258.455 164.533 258.191 164.367C257.586 164.004 257.283 163.478 257.283 162.79C257.283 162.117 257.518 161.587 257.987 161.202C258.455 160.809 259.034 160.612 259.722 160.612C260.342 160.612 260.879 160.775 261.333 161.1C261.787 161.417 262.123 161.826 262.342 162.325L261.673 162.699C261.31 161.822 260.66 161.383 259.722 161.383C259.231 161.383 258.834 161.504 258.531 161.746C258.229 161.988 258.077 162.325 258.077 162.756C258.077 163.149 258.214 163.444 258.486 163.641C258.758 163.837 259.208 164.038 259.836 164.242C260.123 164.34 260.327 164.412 260.448 164.457C260.577 164.495 260.758 164.563 260.993 164.662C261.235 164.752 261.412 164.835 261.526 164.911C261.639 164.979 261.775 165.077 261.934 165.206C262.101 165.327 262.218 165.452 262.286 165.58C262.361 165.701 262.426 165.853 262.479 166.034C262.539 166.208 262.569 166.397 262.569 166.601C262.569 167.274 262.324 167.815 261.832 168.223C261.34 168.624 260.694 168.825 259.892 168.825ZM266.659 163.743H265.025V167.18C265.025 167.49 265.086 167.713 265.207 167.849C265.328 167.978 265.509 168.046 265.751 168.053C265.993 168.053 266.296 168.046 266.659 168.03V168.688C265.865 168.809 265.267 168.753 264.867 168.518C264.473 168.284 264.277 167.838 264.277 167.18V163.743H263.086V163.017H264.277V161.656L265.025 161.429V163.017H266.659V163.743ZM272.316 167.974C271.741 168.541 271.038 168.825 270.206 168.825C269.374 168.825 268.667 168.541 268.085 167.974C267.51 167.399 267.223 166.692 267.223 165.853C267.223 165.013 267.51 164.31 268.085 163.743C268.667 163.168 269.374 162.881 270.206 162.881C271.038 162.881 271.741 163.168 272.316 163.743C272.898 164.31 273.19 165.013 273.19 165.853C273.19 166.692 272.898 167.399 272.316 167.974ZM268.618 167.452C269.049 167.883 269.579 168.099 270.206 168.099C270.834 168.099 271.363 167.883 271.794 167.452C272.225 167.013 272.441 166.48 272.441 165.853C272.441 165.225 272.225 164.696 271.794 164.264C271.363 163.826 270.834 163.607 270.206 163.607C269.579 163.607 269.049 163.826 268.618 164.264C268.187 164.696 267.972 165.225 267.972 165.853C267.972 166.48 268.187 167.013 268.618 167.452ZM275.191 163.958C275.539 163.27 276.136 162.926 276.983 162.926V163.652C276.469 163.652 276.042 163.803 275.702 164.106C275.361 164.408 275.191 164.885 275.191 165.535V168.688H274.442V163.017H275.191V163.958ZM280.286 162.881C281.126 162.881 281.803 163.179 282.317 163.777C282.839 164.367 283.099 165.066 283.099 165.875C283.099 165.958 283.092 166.076 283.077 166.227H278.097C278.173 166.802 278.415 167.259 278.823 167.599C279.239 167.932 279.749 168.099 280.354 168.099C280.785 168.099 281.156 168.012 281.466 167.838C281.784 167.656 282.022 167.422 282.181 167.134L282.839 167.52C282.589 167.921 282.249 168.238 281.818 168.473C281.387 168.707 280.895 168.825 280.343 168.825C279.451 168.825 278.725 168.545 278.165 167.985C277.606 167.426 277.326 166.715 277.326 165.853C277.326 165.006 277.602 164.299 278.154 163.731C278.706 163.164 279.417 162.881 280.286 162.881ZM280.286 163.607C279.696 163.607 279.201 163.784 278.8 164.14C278.407 164.488 278.173 164.941 278.097 165.501H282.328C282.253 164.904 282.022 164.438 281.636 164.106C281.251 163.773 280.801 163.607 280.286 163.607ZM284.659 164.503C284.659 164.76 284.772 164.964 284.999 165.115C285.226 165.266 285.502 165.384 285.827 165.467C286.152 165.55 286.477 165.645 286.803 165.75C287.128 165.849 287.404 166.019 287.631 166.261C287.858 166.495 287.971 166.805 287.971 167.191C287.971 167.675 287.778 168.068 287.392 168.371C287.014 168.673 286.523 168.825 285.918 168.825C285.373 168.825 284.908 168.704 284.523 168.462C284.144 168.22 283.88 167.906 283.729 167.52L284.364 167.146C284.47 167.441 284.659 167.675 284.931 167.849C285.211 168.015 285.54 168.099 285.918 168.099C286.288 168.099 286.598 168.027 286.848 167.883C287.098 167.732 287.222 167.501 287.222 167.191C287.222 166.934 287.109 166.73 286.882 166.579C286.655 166.427 286.379 166.31 286.054 166.227C285.729 166.144 285.404 166.053 285.078 165.955C284.753 165.849 284.477 165.679 284.25 165.444C284.023 165.202 283.91 164.888 283.91 164.503C283.91 164.041 284.092 163.656 284.454 163.346C284.825 163.036 285.29 162.881 285.85 162.881C286.311 162.881 286.716 162.986 287.063 163.198C287.411 163.402 287.668 163.682 287.835 164.038L287.211 164.401C286.992 163.871 286.538 163.607 285.85 163.607C285.525 163.607 285.245 163.686 285.01 163.845C284.776 163.996 284.659 164.215 284.659 164.503Z" fill="white"/>
<path d="M285.641 140.56L284.275 136.854H284.677L285.831 140.068L286.986 136.854H287.388L286.022 140.56H285.641ZM290.123 140.56L289.778 139.65H288.02L287.676 140.56H287.284L288.709 136.854H289.09L290.514 140.56H290.123ZM288.153 139.3H289.646L288.899 137.314L288.153 139.3ZM290.99 136.854H291.361V140.56H290.99V136.854ZM292.581 140.211H294.276V140.56H292.211V136.854H292.581V140.211ZM296.237 136.854C296.741 136.854 297.158 137.034 297.486 137.394C297.818 137.75 297.984 138.188 297.984 138.707C297.984 139.226 297.818 139.666 297.486 140.026C297.158 140.382 296.741 140.56 296.237 140.56H294.807V136.854H296.237ZM296.237 140.211C296.642 140.211 296.974 140.066 297.232 139.777C297.493 139.487 297.624 139.131 297.624 138.707C297.624 138.283 297.493 137.927 297.232 137.637C296.974 137.348 296.642 137.203 296.237 137.203H295.177V140.211H296.237ZM286.965 146.264C286.71 146.504 286.379 146.624 285.969 146.624C285.56 146.624 285.228 146.504 284.974 146.264C284.719 146.024 284.592 145.703 284.592 145.3V142.854H284.963V145.3C284.963 145.597 285.051 145.831 285.228 146.004C285.404 146.177 285.651 146.264 285.969 146.264C286.287 146.264 286.534 146.177 286.71 146.004C286.887 145.831 286.975 145.597 286.975 145.3V142.854H287.346V145.3C287.346 145.703 287.219 146.024 286.965 146.264ZM289.465 142.854C289.797 142.854 290.074 142.965 290.296 143.187C290.519 143.41 290.63 143.687 290.63 144.019C290.63 144.351 290.519 144.628 290.296 144.85C290.074 145.072 289.797 145.184 289.465 145.184H288.512V146.56H288.141V142.854H289.465ZM289.465 144.834C289.694 144.834 289.883 144.758 290.031 144.606C290.183 144.451 290.259 144.255 290.259 144.019C290.259 143.782 290.183 143.588 290.031 143.436C289.883 143.281 289.694 143.203 289.465 143.203H288.512V144.834H289.465ZM293.491 142.854V143.203H292.353V146.56H291.982V143.203H290.843V142.854H293.491ZM296.875 146.068C296.504 146.439 296.05 146.624 295.514 146.624C294.977 146.624 294.524 146.439 294.153 146.068C293.782 145.694 293.597 145.24 293.597 144.707C293.597 144.174 293.782 143.722 294.153 143.351C294.524 142.977 294.977 142.79 295.514 142.79C296.05 142.79 296.504 142.977 296.875 143.351C297.245 143.722 297.431 144.174 297.431 144.707C297.431 145.24 297.245 145.694 296.875 146.068ZM294.412 145.814C294.709 146.114 295.076 146.264 295.514 146.264C295.952 146.264 296.319 146.114 296.615 145.814C296.912 145.51 297.06 145.141 297.06 144.707C297.06 144.273 296.912 143.906 296.615 143.606C296.319 143.302 295.952 143.15 295.514 143.15C295.076 143.15 294.709 143.302 294.412 143.606C294.116 143.906 293.968 144.273 293.968 144.707C293.968 145.141 294.116 145.51 294.412 145.814Z" fill="white"/>
<path d="M230.51 54.8905C230.22 54.8905 229.969 54.7934 229.757 54.5992C229.544 54.405 229.438 54.1679 229.438 53.8879C229.438 53.6078 229.544 53.3707 229.757 53.1765C229.969 52.9823 230.22 52.8852 230.51 52.8852C230.799 52.8852 231.048 52.9823 231.256 53.1765C231.469 53.3707 231.575 53.6078 231.575 53.8879C231.575 54.1679 231.469 54.405 231.256 54.5992C231.048 54.7934 230.799 54.8905 230.51 54.8905ZM231.087 59.8563C231.087 60.1137 231.094 60.5269 231.107 61.096C231.125 61.6651 231.134 62.0783 231.134 62.3358C231.134 62.5977 231.046 62.8145 230.87 62.9861C230.693 63.1532 230.469 63.2368 230.198 63.2368C229.926 63.2368 229.702 63.1532 229.526 62.9861C229.35 62.8145 229.261 62.5977 229.261 62.3358C229.261 62.0783 229.252 61.6651 229.234 61.096C229.221 60.5269 229.214 60.1137 229.214 59.8563C229.214 59.4543 229.236 58.9507 229.282 58.3455C229.327 57.7403 229.35 57.2368 229.35 56.8348C229.35 56.5728 229.438 56.3583 229.614 56.1912C229.791 56.0196 230.015 55.9338 230.286 55.9338C230.557 55.9338 230.781 56.0196 230.958 56.1912C231.134 56.3583 231.222 56.5728 231.222 56.8348C231.222 57.2368 231.2 57.7403 231.155 58.3455C231.109 58.9507 231.087 59.4543 231.087 59.8563Z" fill="#FDFDFD"/>
<path d="M235.993 63.4332C235.604 63.4332 235.194 63.3881 234.765 63.2977L234.758 66.0618C234.758 66.3237 234.67 66.5405 234.493 66.7121C234.317 66.8838 234.093 66.9696 233.821 66.9696C233.55 66.9696 233.326 66.8838 233.15 66.7121C232.973 66.5405 232.885 66.3237 232.885 66.0618C232.885 65.8495 232.89 65.0072 232.899 63.5349C232.908 62.4419 232.908 61.5499 232.899 60.8589C232.885 59.8834 232.853 59.0433 232.804 58.3388C232.736 57.3677 232.702 56.9229 232.702 57.0042C232.702 56.6293 232.785 56.3086 232.953 56.0422C233.147 55.7396 233.41 55.5883 233.74 55.5883C233.993 55.5883 234.206 55.6741 234.378 55.8457C234.55 56.0173 234.636 56.2228 234.636 56.4622L234.629 56.5299C234.932 56.3583 235.235 56.2319 235.538 56.1506C235.846 56.0648 236.154 56.0219 236.461 56.0219C237.502 56.0219 238.262 56.4622 238.741 57.3429C239.099 58.0068 239.277 58.8672 239.277 59.924C239.277 60.9131 238.995 61.7328 238.429 62.3832C237.823 63.0832 237.011 63.4332 235.993 63.4332ZM236.461 57.8307C236.176 57.8307 235.887 57.8984 235.593 58.0339C235.299 58.1649 235.002 58.3636 234.704 58.6301C234.758 59.5604 234.785 60.4931 234.785 61.428C235.188 61.5589 235.59 61.6244 235.993 61.6244C236.459 61.6244 236.816 61.4596 237.065 61.1299C237.291 60.8318 237.404 60.4298 237.404 59.924C237.404 59.3143 237.377 58.892 237.323 58.6572C237.192 58.1062 236.905 57.8307 236.461 57.8307Z" fill="#FDFDFD"/>
<path d="M243.43 63.4332C243.041 63.4332 242.632 63.3881 242.202 63.2977L242.195 66.0618C242.195 66.3237 242.107 66.5405 241.931 66.7121C241.754 66.8838 241.53 66.9696 241.259 66.9696C240.987 66.9696 240.763 66.8838 240.587 66.7121C240.411 66.5405 240.322 66.3237 240.322 66.0618C240.322 65.8495 240.327 65.0072 240.336 63.5349C240.345 62.4419 240.345 61.5499 240.336 60.8589C240.322 59.8834 240.291 59.0433 240.241 58.3388C240.173 57.3677 240.139 56.9229 240.139 57.0042C240.139 56.6293 240.223 56.3086 240.39 56.0422C240.585 55.7396 240.847 55.5883 241.177 55.5883C241.431 55.5883 241.643 55.6741 241.815 55.8457C241.987 56.0173 242.073 56.2228 242.073 56.4622L242.066 56.5299C242.369 56.3583 242.672 56.2319 242.976 56.1506C243.283 56.0648 243.591 56.0219 243.898 56.0219C244.939 56.0219 245.699 56.4622 246.179 57.3429C246.536 58.0068 246.715 58.8672 246.715 59.924C246.715 60.9131 246.432 61.7328 245.866 62.3832C245.26 63.0832 244.448 63.4332 243.43 63.4332ZM243.898 57.8307C243.613 57.8307 243.324 57.8984 243.03 58.0339C242.736 58.1649 242.44 58.3636 242.141 58.6301C242.195 59.5604 242.222 60.4931 242.222 61.428C242.625 61.5589 243.028 61.6244 243.43 61.6244C243.896 61.6244 244.254 61.4596 244.502 61.1299C244.729 60.8318 244.842 60.4298 244.842 59.924C244.842 59.3143 244.815 58.892 244.76 58.6572C244.629 58.1062 244.342 57.8307 243.898 57.8307Z" fill="#FDFDFD"/>
<path d="M250.528 63.4332C249.691 63.4332 248.972 63.1464 248.37 62.5729C247.71 61.9451 247.364 61.1073 247.332 60.0595C247.3 59.0614 247.574 58.1716 248.153 57.3903C248.841 56.469 249.798 56.0083 251.024 56.0083C251.928 56.0083 252.648 56.3696 253.182 57.0922C253.661 57.7426 253.901 58.5488 253.901 59.5108C253.901 60.5586 253.62 61.4528 253.059 62.1935C252.431 63.02 251.587 63.4332 250.528 63.4332ZM250.935 57.7968C250.379 57.7923 249.94 58.0452 249.619 58.5555C249.348 58.9846 249.212 59.4859 249.212 60.0595C249.212 60.6015 249.366 61.017 249.673 61.306C249.918 61.5364 250.203 61.6515 250.528 61.6515C250.922 61.6515 251.263 61.5183 251.553 61.2518C251.883 60.9402 252.06 60.5179 252.082 59.985C252.141 58.5307 251.759 57.8013 250.935 57.7968Z" fill="#FDFDFD"/>
<path d="M260.751 63.5279C260.362 63.5279 259.952 63.4827 259.522 63.3924L259.516 66.1564C259.516 66.4184 259.427 66.6352 259.251 66.8068C259.075 66.9784 258.851 67.0642 258.579 67.0642C258.308 67.0642 258.084 66.9784 257.907 66.8068C257.731 66.6352 257.643 66.4184 257.643 66.1564C257.643 65.9441 257.647 65.1018 257.656 63.6295C257.665 62.5365 257.665 61.6445 257.656 60.9535C257.643 59.978 257.611 59.138 257.561 58.4334C257.493 57.4624 257.459 57.0175 257.459 57.0988C257.459 56.7239 257.543 56.4033 257.711 56.1368C257.905 55.8342 258.167 55.6829 258.498 55.6829C258.751 55.6829 258.964 55.7687 259.136 55.9404C259.307 56.112 259.393 56.3175 259.393 56.5568L259.387 56.6246C259.69 56.453 259.993 56.3265 260.296 56.2452C260.604 56.1594 260.911 56.1165 261.219 56.1165C262.259 56.1165 263.019 56.5568 263.499 57.4375C263.856 58.1014 264.035 58.9618 264.035 60.0187C264.035 61.0077 263.752 61.8275 263.187 62.4778C262.581 63.1779 261.768 63.5279 260.751 63.5279ZM261.219 57.9253C260.934 57.9253 260.644 57.9931 260.35 58.1285C260.056 58.2595 259.76 58.4582 259.461 58.7247C259.516 59.6551 259.543 60.5877 259.543 61.5226C259.945 61.6536 260.348 61.7191 260.751 61.7191C261.217 61.7191 261.574 61.5542 261.823 61.2245C262.049 60.9264 262.162 60.5245 262.162 60.0187C262.162 59.4089 262.135 58.9867 262.081 58.7518C261.949 58.2008 261.662 57.9253 261.219 57.9253Z" fill="#FDFDFD"/>
<path d="M270.909 63.5753C270.701 63.5753 270.371 63.3495 269.918 62.8978C269.502 63.0966 269.136 63.2456 268.819 63.345C268.502 63.4488 268.233 63.5008 268.011 63.5008C266.921 63.5008 266.102 63.2095 265.555 62.6269C265.012 62.0442 264.741 61.1726 264.741 60.0119C264.741 58.9234 265.143 57.9931 265.949 57.2208C266.754 56.4439 267.717 56.0555 268.839 56.0555C269.269 56.0555 269.767 56.1775 270.332 56.4214C271.015 56.7149 271.357 57.0559 271.357 57.4443C271.357 57.6069 271.305 57.7492 271.201 57.8711C271.156 58.0518 271.119 58.2798 271.092 58.5553C271.07 58.8263 271.058 59.1447 271.058 59.5106C271.058 60.3732 271.119 60.9942 271.242 61.3736C271.255 61.4142 271.359 61.6491 271.554 62.0781C271.73 62.4665 271.818 62.6878 271.818 62.742C271.818 62.9814 271.726 63.1801 271.54 63.3382C271.359 63.4963 271.149 63.5753 270.909 63.5753ZM269.226 58.9279C269.226 58.7834 269.235 58.6186 269.253 58.4334C269.276 58.2437 269.308 58.0337 269.348 57.8034C269.258 57.7582 269.176 57.7266 269.104 57.7085C269.036 57.6859 268.977 57.6746 268.928 57.6746C268.312 57.6746 267.774 57.9163 267.313 58.3995C266.851 58.8783 266.62 59.4338 266.62 60.0661C266.62 60.6713 266.729 61.1274 266.946 61.4345C267.163 61.7371 267.489 61.8884 267.923 61.8884C268.204 61.8884 268.468 61.8433 268.717 61.7529C268.971 61.6581 269.208 61.5203 269.43 61.3397C269.294 60.2648 269.226 59.4609 269.226 58.9279Z" fill="#FDFDFD"/>
<path d="M279.52 57.4037C279.027 58.4289 278.247 60.039 277.179 62.2339C276.6 63.4127 276.159 64.3905 275.856 65.1673C275.761 65.4473 275.612 65.8629 275.408 66.4138C275.245 66.8384 274.956 67.0507 274.539 67.0507C274.282 67.0507 274.055 66.9671 273.861 66.8C273.666 66.6329 273.569 66.4229 273.569 66.17C273.569 65.7499 274.049 64.5057 275.008 62.4372C274.51 61.4571 273.721 60.0141 272.639 58.1082C272.531 57.9366 272.42 57.7627 272.307 57.5866C272.185 57.3788 272.124 57.1891 272.124 57.0175C272.124 56.7736 272.221 56.5591 272.416 56.3739C272.61 56.1888 272.834 56.0962 273.087 56.0962C273.386 56.0962 273.619 56.2068 273.786 56.4281C274.429 57.2817 275.177 58.5666 276.032 60.2829C276.516 59.2125 276.81 58.5666 276.915 58.3453C277.236 57.6724 277.55 57.0807 277.858 56.5704C278.052 56.2452 278.319 56.0826 278.659 56.0826C278.912 56.0826 279.138 56.1684 279.337 56.3401C279.536 56.5117 279.636 56.7217 279.636 56.9701C279.636 57.1011 279.597 57.2456 279.52 57.4037Z" fill="#FDFDFD"/>
<path d="M214.081 55.1942H211.178C210.714 55.1942 210.335 54.8168 210.335 54.3528C210.335 53.8888 210.714 53.5114 211.178 53.5114H215.295C215.555 53.5114 215.764 53.3036 215.764 53.0439C215.764 52.7842 215.555 52.5765 215.295 52.5765H213.61C213.145 52.5765 212.767 52.199 212.767 51.735C212.767 51.271 213.145 50.8936 213.61 50.8936H215.864C216.523 50.8936 217.161 51.129 217.668 51.555L225.919 58.5357C226.11 58.695 226.107 58.9859 225.916 59.1452L217.661 65.9563C217.161 66.3683 216.534 66.5934 215.885 66.5934H212.489C212.025 66.5934 211.647 66.216 211.647 65.752C211.647 65.288 212.025 64.9105 212.489 64.9105H215.205C215.514 64.9105 215.767 64.6612 215.767 64.3496C215.767 64.0414 215.517 63.7886 215.205 63.7886H213.519C213.107 63.7886 212.77 63.4527 212.77 63.0407C212.77 62.6286 213.107 62.2927 213.519 62.2927H216.142C216.554 62.2927 216.891 61.9569 216.891 61.5448C216.891 61.1327 216.554 60.7969 216.142 60.7969H215.392C214.98 60.7969 214.643 60.461 214.643 60.0489C214.643 59.6369 214.98 59.301 215.392 59.301H217.265C217.574 59.301 217.827 59.0517 217.827 58.74C217.827 58.4284 217.578 58.1791 217.265 58.1791H212.774C212.361 58.1791 212.025 57.8432 212.025 57.4311C212.025 57.0191 212.361 56.6832 212.774 56.6832H214.085C214.498 56.6832 214.834 56.3473 214.834 55.9353C214.831 55.5301 214.498 55.1942 214.081 55.1942Z" fill="#FDFDFD"/>
<path d="M208.933 55.142C209.399 55.142 209.776 54.7653 209.776 54.3006C209.776 53.8359 209.399 53.4592 208.933 53.4592C208.468 53.4592 208.09 53.8359 208.09 54.3006C208.09 54.7653 208.468 55.142 208.933 55.142Z" fill="#FDFDFD"/>
<path d="M211.181 63.7922C211.646 63.7922 212.024 63.4155 212.024 62.9507C212.024 62.486 211.646 62.1093 211.181 62.1093C210.715 62.1093 210.338 62.486 210.338 62.9507C210.338 63.4155 210.715 63.7922 211.181 63.7922Z" fill="#FDFDFD"/>
<path d="M208.521 56.6625H210.769C211.181 56.6625 211.518 56.9984 211.518 57.4104C211.518 57.8225 211.181 58.1584 210.769 58.1584H208.521C208.108 58.1584 207.772 57.8225 207.772 57.4104C207.772 56.9984 208.105 56.6625 208.521 56.6625Z" fill="#FDFDFD"/>
<path d="M210.712 59.3043H213.334C213.747 59.3043 214.083 59.6402 214.083 60.0523C214.083 60.4643 213.747 60.8002 213.334 60.8002H210.712C210.299 60.8002 209.963 60.4643 209.963 60.0523C209.963 59.6402 210.299 59.3043 210.712 59.3043Z" fill="#FDFDFD"/>
<rect x="211.882" y="79.5893" width="22.9821" height="17.3086" rx="3.42697" fill="url(#paint1_linear_3833_181)" stroke="#666666" stroke-width="0.657227"/>
<path fill-rule="evenodd" clip-rule="evenodd" d="M219.382 90.9043C219.398 93.1355 221.502 95.7954 222.951 96.6551C222.979 96.6697 223.004 96.69 223.024 96.7146C223.043 96.7393 223.057 96.7678 223.065 96.7982C223.073 96.8287 223.074 96.8605 223.069 96.8915C223.064 96.9226 223.052 96.9521 223.035 96.9784C223.013 97.0137 222.983 97.043 222.948 97.0634C222.912 97.0839 222.871 97.0948 222.83 97.0951C222.788 97.0952 222.746 97.0835 222.711 97.0614C221.165 96.1523 219.049 93.4946 218.914 91.1153H211.79C211.731 91.1096 211.676 91.0821 211.636 91.0384C211.597 90.9946 211.575 90.9376 211.575 90.8785C211.575 90.8194 211.597 90.7624 211.636 90.7186C211.676 90.6748 211.731 90.6474 211.79 90.6417H218.959C219.408 89.0718 219.408 87.408 218.959 85.8381H211.79C211.727 85.8381 211.667 85.8133 211.623 85.7691C211.579 85.7249 211.554 85.6649 211.554 85.6024C211.554 85.5399 211.579 85.4799 211.623 85.4357C211.667 85.3915 211.727 85.3667 211.79 85.3667H218.914C219.049 82.9784 221.174 80.3297 222.711 79.4206C222.766 79.3887 222.831 79.3801 222.893 79.3965C222.955 79.4129 223.007 79.4531 223.039 79.5081C223.071 79.5632 223.08 79.6287 223.063 79.6901C223.047 79.7516 223.007 79.804 222.951 79.8359C221.502 80.6843 219.398 83.3465 219.382 85.58C219.898 87.3175 219.898 89.1667 219.382 90.9043ZM226.697 83.2049C225.889 81.5954 224.62 80.3317 223.785 79.8379C223.729 79.806 223.689 79.7536 223.673 79.6921C223.656 79.6307 223.665 79.5652 223.697 79.5101C223.729 79.4551 223.781 79.4149 223.843 79.3985C223.905 79.3821 223.97 79.3907 224.025 79.4226C225.119 80.0623 226.391 81.5303 227.12 82.9804C227.137 83.0082 227.148 83.0394 227.153 83.072C227.157 83.1046 227.154 83.1376 227.143 83.1689C227.133 83.2001 227.117 83.2288 227.094 83.2529C227.072 83.2769 227.044 83.2958 227.014 83.3081C226.981 83.3256 226.945 83.3349 226.908 83.335C226.864 83.3351 226.821 83.3229 226.784 83.2999C226.746 83.2769 226.716 83.244 226.697 83.2049ZM234.958 90.6437H227.775C227.326 89.0738 227.326 87.4099 227.775 85.8401H234.958C235.02 85.8401 235.08 85.8152 235.125 85.771C235.169 85.7268 235.194 85.6669 235.194 85.6044C235.194 85.5419 235.169 85.4819 235.125 85.4377C235.08 85.3935 235.02 85.3687 234.958 85.3687H227.592C227.541 85.3693 227.491 85.3865 227.451 85.4176C227.41 85.4488 227.381 85.4923 227.367 85.5415C226.844 87.2917 226.844 89.1561 227.367 90.9063C227.352 93.1375 225.248 95.7974 223.798 96.6571C223.77 96.6709 223.744 96.6905 223.724 96.7148C223.703 96.7391 223.688 96.7675 223.679 96.798C223.671 96.8286 223.668 96.8606 223.673 96.892C223.678 96.9235 223.689 96.9536 223.706 96.9803C223.727 97.0157 223.757 97.045 223.793 97.0654C223.829 97.0859 223.87 97.0968 223.911 97.0971C223.953 97.0972 223.994 97.0855 224.03 97.0634C225.567 96.1655 227.691 93.4966 227.826 91.1173H234.958C235.016 91.1115 235.071 91.0841 235.111 91.0403C235.151 90.9966 235.173 90.9396 235.173 90.8805C235.173 90.8214 235.151 90.7644 235.111 90.7206C235.071 90.6768 235.016 90.6494 234.958 90.6437ZM223.133 80.708C223.203 80.6616 223.285 80.6368 223.369 80.6368C223.481 80.6368 223.589 80.6813 223.669 80.7606C223.748 80.8399 223.793 80.9474 223.793 81.0595C223.793 81.1431 223.768 81.2248 223.721 81.2944C223.675 81.3639 223.609 81.4181 223.531 81.45C223.454 81.482 223.368 81.4904 223.286 81.4741C223.204 81.4578 223.129 81.4175 223.069 81.3584C223.01 81.2993 222.97 81.224 222.953 81.142C222.937 81.06 222.945 80.975 222.977 80.8977C223.009 80.8205 223.064 80.7545 223.133 80.708Z" fill="#666666"/>
<g clip-path="url(#clip0_3833_181)">
<path d="M403.563 171.566H399.912L402.196 156.668H405.847L403.563 171.566Z" fill="white"/>
<path d="M416.799 157.032C416.079 156.731 414.936 156.398 413.524 156.398C409.918 156.398 407.379 158.427 407.364 161.327C407.334 163.467 409.181 164.655 410.564 165.369C411.976 166.098 412.456 166.574 412.456 167.224C412.442 168.222 411.315 168.682 410.264 168.682C408.806 168.682 408.025 168.445 406.838 167.889L406.357 167.651L405.846 170.996C406.703 171.407 408.28 171.772 409.918 171.788C413.749 171.788 416.243 169.791 416.273 166.701C416.288 165.005 415.312 163.705 413.208 162.643C411.931 161.961 411.149 161.502 411.149 160.804C411.164 160.17 411.811 159.521 413.252 159.521C414.439 159.489 415.311 159.79 415.972 160.091L416.302 160.249L416.799 157.032V157.032Z" fill="white"/>
<path d="M421.652 166.288C421.953 165.432 423.11 162.12 423.11 162.12C423.095 162.152 423.41 161.248 423.59 160.693L423.846 161.977C423.846 161.977 424.537 165.543 424.687 166.288C424.117 166.288 422.374 166.288 421.652 166.288ZM426.159 156.668H423.335C422.464 156.668 421.803 156.937 421.427 157.904L416.003 171.566H419.834C419.834 171.566 420.465 169.727 420.601 169.331C421.021 169.331 424.748 169.331 425.289 169.331C425.393 169.854 425.724 171.566 425.724 171.566H429.105L426.159 156.668V156.668Z" fill="white"/>
<path d="M396.862 156.668L393.286 166.827L392.896 164.767C392.235 162.389 390.161 159.806 387.848 158.522L391.123 171.55H394.984L400.723 156.668H396.862V156.668Z" fill="white"/>
<path d="M389.966 156.67H384.092L384.032 156.971C388.614 158.207 391.649 161.187 392.896 164.769L391.619 157.922C391.409 156.971 390.762 156.701 389.966 156.67Z" fill="white"/>
</g>
<path d="M242.882 86.7411C242.832 86.6728 242.797 86.5953 242.777 86.5129C242.757 86.4306 242.753 86.345 242.765 86.2611C242.79 86.0916 242.88 85.9392 243.014 85.8374C243.149 85.7356 243.317 85.6927 243.482 85.7182C243.648 85.7437 243.796 85.8354 243.896 85.9733C244.128 86.2937 244.311 86.6499 244.435 87.0286C244.564 87.4215 244.63 87.8335 244.629 88.2482C244.63 88.6618 244.564 89.0728 244.435 89.4647C244.311 89.8434 244.128 90.1996 243.896 90.52C243.796 90.6578 243.648 90.7496 243.482 90.7751C243.317 90.8006 243.149 90.7577 243.014 90.6559C242.88 90.554 242.79 90.4016 242.765 90.2322C242.74 90.0627 242.782 89.89 242.882 89.7522C243.035 89.5422 243.156 89.3087 243.239 89.0602C243.327 88.799 243.373 88.5247 243.375 88.2482C243.376 87.9733 243.333 87.7001 243.248 87.4393C243.163 87.1881 243.039 86.9523 242.882 86.7411V86.7411ZM245.039 85.5372C245.53 86.3518 245.788 87.2909 245.785 88.2482C245.789 89.2038 245.533 90.1416 245.045 90.956C245.002 91.0282 244.972 91.1085 244.959 91.1923C244.946 91.276 244.949 91.3617 244.968 91.4443C244.987 91.5268 245.022 91.6048 245.07 91.6736C245.119 91.7425 245.18 91.8008 245.25 91.8455C245.321 91.8901 245.399 91.92 245.481 91.9336C245.562 91.9472 245.646 91.9441 245.726 91.9246C245.807 91.9051 245.883 91.8695 245.95 91.8199C246.017 91.7702 246.074 91.7075 246.118 91.6353C246.729 90.6172 247.049 89.4437 247.042 88.2482C247.05 87.0517 246.729 85.8771 246.118 84.8579C246.074 84.7857 246.017 84.723 245.95 84.6734C245.883 84.6238 245.807 84.5882 245.726 84.5687C245.646 84.5492 245.562 84.5461 245.481 84.5597C245.399 84.5733 245.321 84.6032 245.25 84.6478C245.18 84.6924 245.119 84.7508 245.07 84.8196C245.022 84.8885 244.987 84.9664 244.968 85.049C244.949 85.1316 244.946 85.2172 244.959 85.301C244.972 85.3848 245.002 85.4651 245.045 85.5372H245.039ZM247.335 84.3208C248.016 85.5164 248.375 86.8763 248.374 88.2609C248.374 89.6444 248.016 91.0031 247.335 92.1978C247.293 92.271 247.266 92.352 247.254 92.4361C247.243 92.5202 247.248 92.6057 247.269 92.6879C247.29 92.77 247.326 92.8472 247.376 92.9149C247.426 92.9826 247.489 93.0395 247.56 93.0824C247.632 93.1254 247.711 93.1535 247.793 93.1651C247.875 93.1768 247.958 93.1718 248.038 93.1504C248.118 93.1289 248.194 93.0915 248.26 93.0403C248.326 92.9891 248.381 92.925 248.423 92.8518C249.219 91.4607 249.637 89.8767 249.634 88.264C249.64 86.6455 249.222 85.0549 248.426 83.6573C248.34 83.5089 248.201 83.4016 248.038 83.359C247.875 83.3163 247.702 83.3418 247.557 83.4298C247.412 83.5178 247.308 83.6611 247.266 83.8282C247.224 83.9953 247.249 84.1725 247.335 84.3208V84.3208ZM249.622 83.0885C250.498 84.6642 250.957 86.4473 250.953 88.2609C250.957 90.0734 250.498 91.8553 249.622 93.43C249.582 93.5037 249.556 93.5848 249.546 93.6687C249.536 93.7526 249.542 93.8377 249.564 93.9191C249.586 94.0005 249.624 94.0767 249.675 94.1432C249.726 94.2097 249.789 94.2653 249.861 94.3068C249.933 94.3483 250.012 94.3749 250.094 94.385C250.176 94.3952 250.259 94.3887 250.338 94.366C250.417 94.3432 250.492 94.3047 250.557 94.2525C250.621 94.2003 250.676 94.1356 250.716 94.0619C251.7 92.2916 252.216 90.2888 252.214 88.2514C252.219 86.2086 251.702 84.2001 250.716 82.425C250.634 82.2763 250.498 82.1669 250.338 82.121C250.178 82.0751 250.006 82.0963 249.861 82.1801C249.716 82.2639 249.609 82.4034 249.564 82.5678C249.52 82.7323 249.54 82.9082 249.622 83.0569" fill="white"/>
<path d="M68 19.5809C68 8.76668 76.7667 0 87.5809 0H324.51C335.324 0 344.09 8.76666 344.09 19.5809V293.713H68V19.5809Z" fill="url(#paint2_linear_3833_181)"/>
<g clip-path="url(#clip1_3833_181)">
<path d="M75.832 29.3713C75.832 18.2947 75.832 12.7564 79.2731 9.31536C82.7142 5.8743 88.2525 5.8743 99.3291 5.8743H312.761C323.837 5.8743 329.376 5.8743 332.817 9.31536C336.258 12.7564 336.258 18.2947 336.258 29.3714V277.07H75.832V29.3713Z" fill="url(#paint3_linear_3833_181)"/>
<rect x="75.832" y="-11.7485" width="261.405" height="65.5959" fill="white"/>
<path d="M126.004 28.6175V29.5936H123.707V36.3823H122.687V29.5936H120.402V28.6175H126.004ZM130.51 30.836H131.475V36.3823H130.51V35.4283C130.029 36.1604 129.33 36.5265 128.413 36.5265C127.637 36.5265 126.975 36.2455 126.428 35.6835C125.88 35.114 125.607 34.4226 125.607 33.6091C125.607 32.7957 125.88 32.1079 126.428 31.5459C126.975 30.9765 127.637 30.6918 128.413 30.6918C129.33 30.6918 130.029 31.0578 130.51 31.7899V30.836ZM128.535 35.5947C129.097 35.5947 129.567 35.4061 129.944 35.029C130.321 34.6445 130.51 34.1712 130.51 33.6091C130.51 33.0471 130.321 32.5775 129.944 32.2004C129.567 31.8158 129.097 31.6236 128.535 31.6236C127.981 31.6236 127.515 31.8158 127.137 32.2004C126.76 32.5775 126.572 33.0471 126.572 33.6091C126.572 34.1712 126.76 34.6445 127.137 35.029C127.515 35.4061 127.981 35.5947 128.535 35.5947ZM135.998 30.6918C136.775 30.6918 137.437 30.9765 137.984 31.5459C138.531 32.1079 138.805 32.7957 138.805 33.6091C138.805 34.4226 138.531 35.114 137.984 35.6835C137.437 36.2455 136.775 36.5265 135.998 36.5265C135.081 36.5265 134.383 36.1604 133.902 35.4283V38.6008H132.937V30.836H133.902V31.7899C134.383 31.0578 135.081 30.6918 135.998 30.6918ZM135.876 35.5947C136.431 35.5947 136.897 35.4061 137.274 35.029C137.651 34.6445 137.84 34.1712 137.84 33.6091C137.84 33.0471 137.651 32.5775 137.274 32.2004C136.897 31.8158 136.431 31.6236 135.876 31.6236C135.314 31.6236 134.845 31.8158 134.468 32.2004C134.09 32.5775 133.902 33.0471 133.902 33.6091C133.902 34.1712 134.09 34.6445 134.468 35.029C134.845 35.4061 135.314 35.5947 135.876 35.5947ZM145.747 31.7678H144.271V34.7739C144.271 35.0475 144.323 35.2435 144.427 35.3618C144.538 35.4727 144.704 35.5319 144.926 35.5393C145.148 35.5393 145.421 35.5319 145.747 35.5171V36.3823C144.904 36.4932 144.286 36.4267 143.894 36.1826C143.502 35.9312 143.306 35.4616 143.306 34.7739V31.7678H142.208V30.836H143.306V29.5714L144.271 29.283V30.836H145.747V31.7678ZM151.289 35.6835C150.719 36.2455 150.028 36.5265 149.214 36.5265C148.401 36.5265 147.709 36.2455 147.14 35.6835C146.578 35.1214 146.297 34.43 146.297 33.6091C146.297 32.7883 146.578 32.0968 147.14 31.5348C147.709 30.9728 148.401 30.6918 149.214 30.6918C150.028 30.6918 150.719 30.9728 151.289 31.5348C151.858 32.0968 152.143 32.7883 152.143 33.6091C152.143 34.43 151.858 35.1214 151.289 35.6835ZM149.214 35.5836C149.769 35.5836 150.235 35.3951 150.612 35.0179C150.989 34.6408 151.178 34.1712 151.178 33.6091C151.178 33.0471 150.989 32.5775 150.612 32.2004C150.235 31.8232 149.769 31.6347 149.214 31.6347C148.667 31.6347 148.205 31.8232 147.828 32.2004C147.451 32.5775 147.262 33.0471 147.262 33.6091C147.262 34.1712 147.451 34.6408 147.828 35.0179C148.205 35.3951 148.667 35.5836 149.214 35.5836ZM158.971 28.6175C159.688 28.6175 160.284 28.8578 160.757 29.3385C161.238 29.8118 161.478 30.4034 161.478 31.1133C161.478 31.8158 161.238 32.4074 160.757 32.8881C160.284 33.3688 159.688 33.6091 158.971 33.6091H157.185V36.3823H156.153V28.6175H158.971ZM158.971 32.6441C159.4 32.6441 159.755 32.4999 160.036 32.2115C160.317 31.9157 160.457 31.5496 160.457 31.1133C160.457 30.6696 160.317 30.3035 160.036 30.0151C159.755 29.7267 159.4 29.5825 158.971 29.5825H157.185V32.6441H158.971ZM165.359 30.6918C166.009 30.6918 166.531 30.8988 166.923 31.313C167.315 31.7197 167.511 32.2743 167.511 32.9769V36.3823H166.546V33.0323C166.546 32.5812 166.424 32.2337 166.179 31.9896C165.935 31.7382 165.599 31.6125 165.17 31.6125C164.689 31.6125 164.301 31.7641 164.005 32.0673C163.71 32.3631 163.562 32.8216 163.562 33.4427V36.3823H162.597V28.6175H163.562V31.6347C163.954 31.0061 164.553 30.6918 165.359 30.6918ZM173.539 35.6835C172.97 36.2455 172.278 36.5265 171.465 36.5265C170.651 36.5265 169.96 36.2455 169.39 35.6835C168.828 35.1214 168.547 34.43 168.547 33.6091C168.547 32.7883 168.828 32.0968 169.39 31.5348C169.96 30.9728 170.651 30.6918 171.465 30.6918C172.278 30.6918 172.97 30.9728 173.539 31.5348C174.108 32.0968 174.393 32.7883 174.393 33.6091C174.393 34.43 174.108 35.1214 173.539 35.6835ZM171.465 35.5836C172.019 35.5836 172.485 35.3951 172.862 35.0179C173.239 34.6408 173.428 34.1712 173.428 33.6091C173.428 33.0471 173.239 32.5775 172.862 32.2004C172.485 31.8232 172.019 31.6347 171.465 31.6347C170.917 31.6347 170.455 31.8232 170.078 32.2004C169.701 32.5775 169.512 33.0471 169.512 33.6091C169.512 34.1712 169.701 34.6408 170.078 35.0179C170.455 35.3951 170.917 35.5836 171.465 35.5836ZM178.293 30.6918C178.944 30.6918 179.465 30.8988 179.857 31.313C180.249 31.7197 180.445 32.2743 180.445 32.9769V36.3823H179.48V33.0323C179.48 32.5812 179.358 32.2337 179.114 31.9896C178.87 31.7382 178.533 31.6125 178.104 31.6125C177.624 31.6125 177.235 31.7641 176.94 32.0673C176.644 32.3631 176.496 32.8216 176.496 33.4427V36.3823H175.531V30.836H176.496V31.6347C176.888 31.0061 177.487 30.6918 178.293 30.6918ZM182.469 34.0528C182.565 34.5483 182.79 34.9329 183.145 35.2065C183.508 35.4801 183.951 35.6169 184.476 35.6169C185.209 35.6169 185.741 35.347 186.074 34.8071L186.895 35.273C186.355 36.1087 185.541 36.5265 184.454 36.5265C183.574 36.5265 182.857 36.2529 182.302 35.7056C181.755 35.151 181.481 34.4522 181.481 33.6091C181.481 32.7735 181.751 32.0784 182.291 31.5237C182.831 30.9691 183.53 30.6918 184.388 30.6918C185.201 30.6918 185.863 30.9802 186.373 31.557C186.891 32.1264 187.15 32.8142 187.15 33.6202C187.15 33.7607 187.139 33.9049 187.116 34.0528H182.469ZM184.388 31.6014C183.87 31.6014 183.441 31.7493 183.101 32.0451C182.761 32.3335 182.55 32.7217 182.469 33.2098H186.174C186.092 32.6848 185.885 32.2854 185.552 32.0118C185.22 31.7382 184.831 31.6014 184.388 31.6014Z" fill="#303030"/>
<path d="M142.596 202.851V203.497H140.491V209.704H139.805V203.497H137.7V202.851H142.596ZM146.807 204.809H147.454V209.704H146.807V208.745C146.357 209.463 145.698 209.822 144.83 209.822C144.131 209.822 143.534 209.574 143.038 209.077C142.549 208.581 142.304 207.974 142.304 207.256C142.304 206.538 142.549 205.931 143.038 205.435C143.534 204.939 144.131 204.691 144.83 204.691C145.698 204.691 146.357 205.05 146.807 205.768V204.809ZM143.508 208.637C143.88 209.009 144.337 209.195 144.879 209.195C145.42 209.195 145.877 209.009 146.249 208.637C146.621 208.258 146.807 207.798 146.807 207.256C146.807 206.715 146.621 206.258 146.249 205.886C145.877 205.507 145.42 205.318 144.879 205.318C144.337 205.318 143.88 205.507 143.508 205.886C143.136 206.258 142.95 206.715 142.95 207.256C142.95 207.798 143.136 208.258 143.508 208.637ZM151.446 204.691C152.144 204.691 152.738 204.939 153.227 205.435C153.723 205.931 153.971 206.538 153.971 207.256C153.971 207.974 153.723 208.581 153.227 209.077C152.738 209.574 152.144 209.822 151.446 209.822C150.577 209.822 149.918 209.463 149.468 208.745V211.662H148.822V204.809H149.468V205.768C149.918 205.05 150.577 204.691 151.446 204.691ZM150.026 208.637C150.398 209.009 150.855 209.195 151.397 209.195C151.938 209.195 152.395 209.009 152.767 208.637C153.139 208.258 153.325 207.798 153.325 207.256C153.325 206.715 153.139 206.258 152.767 205.886C152.395 205.507 151.938 205.318 151.397 205.318C150.855 205.318 150.398 205.507 150.026 205.886C149.654 206.258 149.468 206.715 149.468 207.256C149.468 207.798 149.654 208.258 150.026 208.637ZM161.596 209.087C161.1 209.577 160.493 209.822 159.775 209.822C159.057 209.822 158.446 209.577 157.944 209.087C157.448 208.591 157.2 207.981 157.2 207.256C157.2 206.532 157.448 205.925 157.944 205.435C158.446 204.939 159.057 204.691 159.775 204.691C160.493 204.691 161.1 204.939 161.596 205.435C162.098 205.925 162.35 206.532 162.35 207.256C162.35 207.981 162.098 208.591 161.596 209.087ZM158.404 208.637C158.776 209.009 159.233 209.195 159.775 209.195C160.316 209.195 160.773 209.009 161.145 208.637C161.517 208.258 161.703 207.798 161.703 207.256C161.703 206.715 161.517 206.258 161.145 205.886C160.773 205.507 160.316 205.318 159.775 205.318C159.233 205.318 158.776 205.507 158.404 205.886C158.032 206.258 157.846 206.715 157.846 207.256C157.846 207.798 158.032 208.258 158.404 208.637ZM165.722 204.691C166.316 204.691 166.782 204.874 167.122 205.24C167.468 205.599 167.641 206.085 167.641 206.698V209.704H166.995V206.698C166.995 206.261 166.877 205.922 166.642 205.68C166.414 205.439 166.087 205.318 165.663 205.318C165.193 205.318 164.811 205.468 164.518 205.768C164.224 206.062 164.077 206.519 164.077 207.139V209.704H163.431V204.809H164.077V205.572C164.443 204.985 164.991 204.691 165.722 204.691ZM174.862 204.809H175.548L173.453 210.154C173.263 210.637 172.992 211.016 172.64 211.29C172.294 211.571 171.906 211.695 171.475 211.662V211.055C172.062 211.12 172.509 210.781 172.816 210.037L172.943 209.733L170.75 204.809H171.436L173.276 208.911L174.862 204.809ZM180.24 209.087C179.744 209.577 179.137 209.822 178.419 209.822C177.701 209.822 177.09 209.577 176.588 209.087C176.092 208.591 175.844 207.981 175.844 207.256C175.844 206.532 176.092 205.925 176.588 205.435C177.09 204.939 177.701 204.691 178.419 204.691C179.137 204.691 179.744 204.939 180.24 205.435C180.742 205.925 180.993 206.532 180.993 207.256C180.993 207.981 180.742 208.591 180.24 209.087ZM177.048 208.637C177.42 209.009 177.877 209.195 178.419 209.195C178.96 209.195 179.417 209.009 179.789 208.637C180.161 208.258 180.347 207.798 180.347 207.256C180.347 206.715 180.161 206.258 179.789 205.886C179.417 205.507 178.96 205.318 178.419 205.318C177.877 205.318 177.42 205.507 177.048 205.886C176.676 206.258 176.49 206.715 176.49 207.256C176.49 207.798 176.676 208.258 177.048 208.637ZM185.521 204.809H186.167V209.704H185.521V208.94C185.156 209.528 184.607 209.822 183.876 209.822C183.282 209.822 182.812 209.642 182.466 209.283C182.127 208.918 181.957 208.428 181.957 207.814V204.809H182.603V207.814C182.603 208.252 182.718 208.591 182.946 208.833C183.181 209.074 183.511 209.195 183.935 209.195C184.405 209.195 184.787 209.048 185.08 208.754C185.374 208.454 185.521 207.994 185.521 207.374V204.809ZM188.18 205.621C188.481 205.027 188.996 204.73 189.727 204.73V205.357C189.283 205.357 188.915 205.488 188.621 205.749C188.327 206.01 188.18 206.421 188.18 206.982V209.704H187.534V204.809H188.18V205.621ZM196.36 209.822C195.322 209.822 194.464 209.479 193.785 208.794C193.106 208.108 192.767 207.269 192.767 206.277C192.767 205.285 193.106 204.447 193.785 203.761C194.464 203.076 195.322 202.733 196.36 202.733C196.993 202.733 197.574 202.887 198.102 203.193C198.631 203.494 199.039 203.902 199.326 204.417L198.719 204.77C198.504 204.352 198.184 204.019 197.76 203.771C197.336 203.523 196.869 203.399 196.36 203.399C195.505 203.399 194.806 203.676 194.265 204.231C193.723 204.786 193.452 205.468 193.452 206.277C193.452 207.087 193.723 207.769 194.265 208.324C194.806 208.878 195.505 209.156 196.36 209.156C196.869 209.156 197.336 209.032 197.76 208.784C198.184 208.536 198.504 208.203 198.719 207.785L199.326 208.128C199.046 208.643 198.638 209.055 198.102 209.361C197.574 209.668 196.993 209.822 196.36 209.822ZM204.517 204.809H205.164V209.704H204.517V208.745C204.067 209.463 203.408 209.822 202.54 209.822C201.841 209.822 201.244 209.574 200.748 209.077C200.259 208.581 200.014 207.974 200.014 207.256C200.014 206.538 200.259 205.931 200.748 205.435C201.244 204.939 201.841 204.691 202.54 204.691C203.408 204.691 204.067 205.05 204.517 205.768V204.809ZM201.218 208.637C201.59 209.009 202.047 209.195 202.589 209.195C203.131 209.195 203.587 209.009 203.959 208.637C204.331 208.258 204.517 207.798 204.517 207.256C204.517 206.715 204.331 206.258 203.959 205.886C203.587 205.507 203.131 205.318 202.589 205.318C202.047 205.318 201.59 205.507 201.218 205.886C200.846 206.258 200.66 206.715 200.66 207.256C200.66 207.798 200.846 208.258 201.218 208.637ZM207.178 205.621C207.478 205.027 207.994 204.73 208.725 204.73V205.357C208.281 205.357 207.912 205.488 207.619 205.749C207.325 206.01 207.178 206.421 207.178 206.982V209.704H206.532V204.809H207.178V205.621ZM213.524 202.851H214.17V209.704H213.524V208.745C213.074 209.463 212.414 209.822 211.546 209.822C210.848 209.822 210.251 209.574 209.755 209.077C209.265 208.581 209.02 207.974 209.02 207.256C209.02 206.538 209.265 205.931 209.755 205.435C210.251 204.939 210.848 204.691 211.546 204.691C212.414 204.691 213.074 205.05 213.524 205.768V202.851ZM210.225 208.637C210.597 209.009 211.053 209.195 211.595 209.195C212.137 209.195 212.594 209.009 212.966 208.637C213.338 208.258 213.524 207.798 213.524 207.256C213.524 206.715 213.338 206.258 212.966 205.886C212.594 205.507 212.137 205.318 211.595 205.318C211.053 205.318 210.597 205.507 210.225 205.886C209.853 206.258 209.666 206.715 209.666 207.256C209.666 207.798 209.853 208.258 210.225 208.637ZM222.088 209.087C221.592 209.577 220.985 209.822 220.267 209.822C219.549 209.822 218.939 209.577 218.436 209.087C217.94 208.591 217.692 207.981 217.692 207.256C217.692 206.532 217.94 205.925 218.436 205.435C218.939 204.939 219.549 204.691 220.267 204.691C220.985 204.691 221.592 204.939 222.088 205.435C222.591 205.925 222.842 206.532 222.842 207.256C222.842 207.981 222.591 208.591 222.088 209.087ZM218.896 208.637C219.268 209.009 219.725 209.195 220.267 209.195C220.809 209.195 221.266 209.009 221.638 208.637C222.01 208.258 222.196 207.798 222.196 207.256C222.196 206.715 222.01 206.258 221.638 205.886C221.266 205.507 220.809 205.318 220.267 205.318C219.725 205.318 219.268 205.507 218.896 205.886C218.524 206.258 218.338 206.715 218.338 207.256C218.338 207.798 218.524 208.258 218.896 208.637ZM226.214 204.691C226.808 204.691 227.275 204.874 227.614 205.24C227.96 205.599 228.133 206.085 228.133 206.698V209.704H227.487V206.698C227.487 206.261 227.369 205.922 227.134 205.68C226.906 205.439 226.58 205.318 226.155 205.318C225.685 205.318 225.304 205.468 225.01 205.768C224.716 206.062 224.569 206.519 224.569 207.139V209.704H223.923V204.809H224.569V205.572C224.935 204.985 225.483 204.691 226.214 204.691ZM235.727 206.15C236.06 206.294 236.324 206.512 236.52 206.806C236.722 207.093 236.823 207.423 236.823 207.795C236.823 208.324 236.637 208.774 236.265 209.146C235.893 209.518 235.443 209.704 234.914 209.704H231.928V202.851H234.689C235.198 202.851 235.632 203.033 235.991 203.399C236.35 203.758 236.53 204.189 236.53 204.691C236.53 205.331 236.262 205.817 235.727 206.15ZM234.689 203.497H232.613V205.886H234.689C235.009 205.886 235.28 205.772 235.502 205.543C235.73 205.308 235.844 205.024 235.844 204.691C235.844 204.365 235.73 204.084 235.502 203.849C235.28 203.614 235.009 203.497 234.689 203.497ZM234.914 209.058C235.254 209.058 235.541 208.937 235.776 208.696C236.017 208.448 236.138 208.147 236.138 207.795C236.138 207.449 236.017 207.152 235.776 206.904C235.541 206.656 235.254 206.532 234.914 206.532H232.613V209.058H234.914ZM242.111 204.809H242.757V209.704H242.111V208.745C241.661 209.463 241.002 209.822 240.134 209.822C239.435 209.822 238.838 209.574 238.342 209.077C237.852 208.581 237.608 207.974 237.608 207.256C237.608 206.538 237.852 205.931 238.342 205.435C238.838 204.939 239.435 204.691 240.134 204.691C241.002 204.691 241.661 205.05 242.111 205.768V204.809ZM238.812 208.637C239.184 209.009 239.641 209.195 240.183 209.195C240.724 209.195 241.181 209.009 241.553 208.637C241.925 208.258 242.111 207.798 242.111 207.256C242.111 206.715 241.925 206.258 241.553 205.886C241.181 205.507 240.724 205.318 240.183 205.318C239.641 205.318 239.184 205.507 238.812 205.886C238.44 206.258 238.254 206.715 238.254 207.256C238.254 207.798 238.44 208.258 238.812 208.637ZM246.407 209.822C245.669 209.822 245.056 209.577 244.566 209.087C244.077 208.591 243.832 207.981 243.832 207.256C243.832 206.532 244.077 205.925 244.566 205.435C245.056 204.939 245.669 204.691 246.407 204.691C246.89 204.691 247.324 204.809 247.709 205.044C248.094 205.272 248.375 205.582 248.551 205.974L248.022 206.277C247.892 205.984 247.679 205.752 247.386 205.582C247.099 205.406 246.772 205.318 246.407 205.318C245.865 205.318 245.408 205.507 245.036 205.886C244.664 206.258 244.478 206.715 244.478 207.256C244.478 207.798 244.664 208.258 245.036 208.637C245.408 209.009 245.865 209.195 246.407 209.195C246.772 209.195 247.099 209.11 247.386 208.94C247.673 208.764 247.898 208.529 248.061 208.235L248.6 208.549C248.397 208.94 248.1 209.25 247.709 209.479C247.317 209.707 246.883 209.822 246.407 209.822ZM253.483 209.704H252.621L250.174 207.345V209.704H249.528V202.851H250.174V206.973L252.504 204.809H253.385L250.859 207.159L253.483 209.704ZM259.065 209.822C258.438 209.822 257.9 209.675 257.449 209.381C257.006 209.081 256.695 208.67 256.519 208.147L257.107 207.805C257.231 208.229 257.459 208.562 257.792 208.803C258.125 209.038 258.552 209.156 259.075 209.156C259.584 209.156 259.979 209.045 260.259 208.823C260.546 208.594 260.69 208.294 260.69 207.922C260.69 207.563 260.559 207.292 260.298 207.11C260.037 206.927 259.607 206.738 259.006 206.542C258.295 206.307 257.825 206.117 257.596 205.974C257.074 205.661 256.813 205.207 256.813 204.613C256.813 204.032 257.015 203.575 257.42 203.242C257.825 202.903 258.324 202.733 258.918 202.733C259.453 202.733 259.917 202.874 260.308 203.154C260.7 203.428 260.99 203.781 261.18 204.212L260.602 204.535C260.289 203.778 259.727 203.399 258.918 203.399C258.494 203.399 258.151 203.503 257.89 203.712C257.629 203.921 257.498 204.212 257.498 204.584C257.498 204.923 257.616 205.178 257.851 205.347C258.086 205.517 258.474 205.69 259.016 205.866C259.264 205.951 259.44 206.013 259.545 206.052C259.655 206.085 259.812 206.144 260.014 206.228C260.223 206.307 260.377 206.379 260.475 206.444C260.573 206.503 260.69 206.587 260.827 206.698C260.971 206.803 261.072 206.911 261.131 207.021C261.196 207.126 261.251 207.256 261.297 207.413C261.349 207.563 261.375 207.726 261.375 207.903C261.375 208.483 261.163 208.95 260.739 209.303C260.315 209.649 259.757 209.822 259.065 209.822ZM263.11 203.634C263.019 203.725 262.908 203.771 262.777 203.771C262.646 203.771 262.536 203.725 262.444 203.634C262.353 203.543 262.307 203.432 262.307 203.301C262.307 203.171 262.353 203.06 262.444 202.968C262.536 202.877 262.646 202.831 262.777 202.831C262.908 202.831 263.019 202.877 263.11 202.968C263.201 203.06 263.247 203.171 263.247 203.301C263.247 203.432 263.201 203.543 263.11 203.634ZM262.454 209.704V204.809H263.1V209.704H262.454ZM268.681 202.851H269.327V209.704H268.681V208.745C268.231 209.463 267.572 209.822 266.704 209.822C266.005 209.822 265.408 209.574 264.912 209.077C264.422 208.581 264.178 207.974 264.178 207.256C264.178 206.538 264.422 205.931 264.912 205.435C265.408 204.939 266.005 204.691 266.704 204.691C267.572 204.691 268.231 205.05 268.681 205.768V202.851ZM265.382 208.637C265.754 209.009 266.211 209.195 266.752 209.195C267.294 209.195 267.751 209.009 268.123 208.637C268.495 208.258 268.681 207.798 268.681 207.256C268.681 206.715 268.495 206.258 268.123 205.886C267.751 205.507 267.294 205.318 266.752 205.318C266.211 205.318 265.754 205.507 265.382 205.886C265.01 206.258 264.824 206.715 264.824 207.256C264.824 207.798 265.01 208.258 265.382 208.637ZM272.957 204.691C273.682 204.691 274.266 204.949 274.71 205.465C275.16 205.974 275.385 206.578 275.385 207.276C275.385 207.348 275.379 207.449 275.366 207.58H271.068C271.133 208.076 271.342 208.47 271.694 208.764C272.053 209.051 272.494 209.195 273.016 209.195C273.388 209.195 273.708 209.12 273.975 208.97C274.249 208.813 274.455 208.611 274.592 208.363L275.16 208.696C274.945 209.042 274.651 209.316 274.279 209.518C273.907 209.72 273.483 209.822 273.006 209.822C272.236 209.822 271.609 209.58 271.126 209.097C270.643 208.614 270.402 208.001 270.402 207.256C270.402 206.525 270.64 205.915 271.117 205.426C271.593 204.936 272.207 204.691 272.957 204.691ZM272.957 205.318C272.448 205.318 272.02 205.471 271.675 205.778C271.335 206.078 271.133 206.47 271.068 206.953H274.719C274.654 206.437 274.455 206.036 274.122 205.749C273.789 205.462 273.401 205.318 272.957 205.318ZM164.88 223.087C164.384 223.577 163.777 223.822 163.059 223.822C162.341 223.822 161.731 223.577 161.228 223.087C160.732 222.591 160.484 221.981 160.484 221.256C160.484 220.532 160.732 219.925 161.228 219.435C161.731 218.939 162.341 218.691 163.059 218.691C163.777 218.691 164.384 218.939 164.88 219.435C165.383 219.925 165.634 220.532 165.634 221.256C165.634 221.981 165.383 222.591 164.88 223.087ZM161.688 222.637C162.06 223.009 162.517 223.195 163.059 223.195C163.601 223.195 164.058 223.009 164.43 222.637C164.802 222.258 164.988 221.798 164.988 221.256C164.988 220.715 164.802 220.258 164.43 219.886C164.058 219.507 163.601 219.318 163.059 219.318C162.517 219.318 162.06 219.507 161.688 219.886C161.316 220.258 161.13 220.715 161.13 221.256C161.13 221.798 161.316 222.258 161.688 222.637ZM168.971 217.36C168.495 217.321 168.139 217.402 167.904 217.605C167.676 217.807 167.562 218.143 167.562 218.613V218.809H168.971V219.435H167.562V223.704H166.915V219.435H166.083V218.809H166.915V218.613C166.915 217.973 167.092 217.49 167.444 217.164C167.803 216.831 168.312 216.688 168.971 216.733V217.36ZM175.632 218.809H176.317L174.222 224.154C174.033 224.637 173.762 225.016 173.41 225.29C173.064 225.571 172.675 225.695 172.245 225.662V225.055C172.832 225.12 173.279 224.781 173.586 224.037L173.713 223.733L171.52 218.809H172.205L174.046 222.911L175.632 218.809ZM181.009 223.087C180.513 223.577 179.906 223.822 179.188 223.822C178.47 223.822 177.86 223.577 177.357 223.087C176.861 222.591 176.613 221.981 176.613 221.256C176.613 220.532 176.861 219.925 177.357 219.435C177.86 218.939 178.47 218.691 179.188 218.691C179.906 218.691 180.513 218.939 181.009 219.435C181.512 219.925 181.763 220.532 181.763 221.256C181.763 221.981 181.512 222.591 181.009 223.087ZM177.818 222.637C178.19 223.009 178.647 223.195 179.188 223.195C179.73 223.195 180.187 223.009 180.559 222.637C180.931 222.258 181.117 221.798 181.117 221.256C181.117 220.715 180.931 220.258 180.559 219.886C180.187 219.507 179.73 219.318 179.188 219.318C178.647 219.318 178.19 219.507 177.818 219.886C177.446 220.258 177.26 220.715 177.26 221.256C177.26 221.798 177.446 222.258 177.818 222.637ZM186.291 218.809H186.937V223.704H186.291V222.94C185.925 223.528 185.377 223.822 184.646 223.822C184.052 223.822 183.582 223.642 183.236 223.283C182.897 222.918 182.727 222.428 182.727 221.814V218.809H183.373V221.814C183.373 222.252 183.487 222.591 183.716 222.833C183.951 223.074 184.28 223.195 184.705 223.195C185.175 223.195 185.556 223.048 185.85 222.754C186.144 222.454 186.291 221.994 186.291 221.374V218.809ZM188.95 219.621C189.25 219.027 189.766 218.73 190.497 218.73V219.357C190.053 219.357 189.684 219.488 189.391 219.749C189.097 220.01 188.95 220.421 188.95 220.982V223.704H188.304V218.809H188.95V219.621ZM196.376 216.851C196.989 216.851 197.501 217.056 197.913 217.468C198.324 217.879 198.529 218.391 198.529 219.005C198.529 219.618 198.324 220.131 197.913 220.542C197.501 220.953 196.989 221.159 196.376 221.159H194.613V223.704H193.928V216.851H196.376ZM196.376 220.512C196.8 220.512 197.149 220.372 197.423 220.091C197.704 219.804 197.844 219.442 197.844 219.005C197.844 218.567 197.704 218.208 197.423 217.928C197.149 217.64 196.8 217.497 196.376 217.497H194.613V220.512H196.376ZM201.896 218.691C202.49 218.691 202.956 218.874 203.296 219.24C203.642 219.599 203.815 220.085 203.815 220.698V223.704H203.169V220.698C203.169 220.261 203.051 219.922 202.816 219.68C202.588 219.439 202.261 219.318 201.837 219.318C201.367 219.318 200.985 219.468 200.692 219.768C200.398 220.062 200.251 220.519 200.251 221.139V223.704H199.605V216.851H200.251V219.572C200.617 218.985 201.165 218.691 201.896 218.691ZM209.166 223.087C208.67 223.577 208.063 223.822 207.345 223.822C206.627 223.822 206.017 223.577 205.515 223.087C205.018 222.591 204.77 221.981 204.77 221.256C204.77 220.532 205.018 219.925 205.515 219.435C206.017 218.939 206.627 218.691 207.345 218.691C208.063 218.691 208.67 218.939 209.166 219.435C209.669 219.925 209.92 220.532 209.92 221.256C209.92 221.981 209.669 222.591 209.166 223.087ZM205.975 222.637C206.347 223.009 206.804 223.195 207.345 223.195C207.887 223.195 208.344 223.009 208.716 222.637C209.088 222.258 209.274 221.798 209.274 221.256C209.274 220.715 209.088 220.258 208.716 219.886C208.344 219.507 207.887 219.318 207.345 219.318C206.804 219.318 206.347 219.507 205.975 219.886C205.603 220.258 205.417 220.715 205.417 221.256C205.417 221.798 205.603 222.258 205.975 222.637ZM213.293 218.691C213.886 218.691 214.353 218.874 214.693 219.24C215.038 219.599 215.211 220.085 215.211 220.698V223.704H214.565V220.698C214.565 220.261 214.448 219.922 214.213 219.68C213.984 219.439 213.658 219.318 213.234 219.318C212.764 219.318 212.382 219.468 212.088 219.768C211.795 220.062 211.648 220.519 211.648 221.139V223.704H211.002V218.809H211.648V219.572C212.013 218.985 212.561 218.691 213.293 218.691ZM218.722 218.691C219.447 218.691 220.031 218.949 220.475 219.465C220.925 219.974 221.15 220.578 221.15 221.276C221.15 221.348 221.144 221.449 221.131 221.58H216.833C216.898 222.076 217.107 222.47 217.459 222.764C217.818 223.051 218.259 223.195 218.781 223.195C219.153 223.195 219.473 223.12 219.741 222.97C220.015 222.813 220.22 222.611 220.357 222.363L220.925 222.696C220.71 223.042 220.416 223.316 220.044 223.518C219.672 223.72 219.248 223.822 218.771 223.822C218.001 223.822 217.375 223.58 216.892 223.097C216.409 222.614 216.167 222.001 216.167 221.256C216.167 220.525 216.405 219.915 216.882 219.426C217.358 218.936 217.972 218.691 218.722 218.691ZM218.722 219.318C218.213 219.318 217.786 219.471 217.44 219.778C217.101 220.078 216.898 220.47 216.833 220.953H220.485C220.419 220.437 220.22 220.036 219.888 219.749C219.555 219.462 219.166 219.318 218.722 219.318ZM227.22 219.435H225.811V222.402C225.811 222.67 225.863 222.862 225.967 222.98C226.072 223.091 226.228 223.149 226.437 223.156C226.646 223.156 226.907 223.149 227.22 223.136V223.704C226.535 223.808 226.019 223.76 225.674 223.557C225.334 223.355 225.164 222.97 225.164 222.402V219.435H224.136V218.809H225.164V217.634L225.811 217.438V218.809H227.22V219.435ZM232.103 223.087C231.607 223.577 231 223.822 230.282 223.822C229.564 223.822 228.954 223.577 228.451 223.087C227.955 222.591 227.707 221.981 227.707 221.256C227.707 220.532 227.955 219.925 228.451 219.435C228.954 218.939 229.564 218.691 230.282 218.691C231 218.691 231.607 218.939 232.103 219.435C232.606 219.925 232.857 220.532 232.857 221.256C232.857 221.981 232.606 222.591 232.103 223.087ZM228.911 222.637C229.284 223.009 229.74 223.195 230.282 223.195C230.824 223.195 231.281 223.009 231.653 222.637C232.025 222.258 232.211 221.798 232.211 221.256C232.211 220.715 232.025 220.258 231.653 219.886C231.281 219.507 230.824 219.318 230.282 219.318C229.74 219.318 229.284 219.507 228.911 219.886C228.539 220.258 228.353 220.715 228.353 221.256C228.353 221.798 228.539 222.258 228.911 222.637ZM239.01 218.691C239.708 218.691 240.302 218.939 240.792 219.435C241.288 219.931 241.536 220.538 241.536 221.256C241.536 221.974 241.288 222.581 240.792 223.077C240.302 223.574 239.708 223.822 239.01 223.822C238.142 223.822 237.482 223.463 237.032 222.745V225.662H236.386V218.809H237.032V219.768C237.482 219.05 238.142 218.691 239.01 218.691ZM237.59 222.637C237.962 223.009 238.419 223.195 238.961 223.195C239.503 223.195 239.959 223.009 240.331 222.637C240.704 222.258 240.89 221.798 240.89 221.256C240.89 220.715 240.704 220.258 240.331 219.886C239.959 219.507 239.503 219.318 238.961 219.318C238.419 219.318 237.962 219.507 237.59 219.886C237.218 220.258 237.032 220.715 237.032 221.256C237.032 221.798 237.218 222.258 237.59 222.637ZM246.82 218.809H247.466V223.704H246.82V222.745C246.37 223.463 245.71 223.822 244.842 223.822C244.144 223.822 243.547 223.574 243.051 223.077C242.561 222.581 242.316 221.974 242.316 221.256C242.316 220.538 242.561 219.931 243.051 219.435C243.547 218.939 244.144 218.691 244.842 218.691C245.71 218.691 246.37 219.05 246.82 219.768V218.809ZM243.521 222.637C243.893 223.009 244.35 223.195 244.891 223.195C245.433 223.195 245.89 223.009 246.262 222.637C246.634 222.258 246.82 221.798 246.82 221.256C246.82 220.715 246.634 220.258 246.262 219.886C245.89 219.507 245.433 219.318 244.891 219.318C244.35 219.318 243.893 219.507 243.521 219.886C243.149 220.258 242.963 220.715 242.963 221.256C242.963 221.798 243.149 222.258 243.521 222.637ZM252.359 218.809H253.044L250.949 224.154C250.76 224.637 250.489 225.016 250.136 225.29C249.791 225.571 249.402 225.695 248.971 225.662V225.055C249.559 225.12 250.006 224.781 250.313 224.037L250.44 223.733L248.247 218.809H248.932L250.773 222.911L252.359 218.809Z" fill="#757575"/>
<path d="M150.461 112.261L146.02 104.507V103.473H146.537C147.79 103.473 148.746 103.293 149.403 102.932C150.077 102.572 150.469 101.922 150.578 100.982H146.02V99.4783H150.555C150.398 98.6011 149.983 97.9667 149.309 97.5751C148.652 97.1835 147.727 96.9877 146.537 96.9877H146.02V95.4838H155.748V96.9877H151.307C152.059 97.5986 152.505 98.4288 152.646 99.4783H155.748V100.982H152.693C152.583 102.126 152.145 103.019 151.377 103.661C150.625 104.287 149.623 104.687 148.37 104.859L152.857 112.261H150.461ZM172.57 88.833H175.917V112.261H172.068V92.9496L167.349 94.2884L166.412 91.0085L172.57 88.833ZM185.558 108.245L183.216 116.946H180.203L181.542 108.245H185.558ZM203.577 109.382C201.97 111.591 199.717 112.696 196.816 112.696C193.916 112.696 191.651 111.591 190.022 109.382C188.416 107.174 187.612 104.228 187.612 100.547C187.612 96.8654 188.416 93.9202 190.022 91.7113C191.651 89.5024 193.916 88.398 196.816 88.398C199.717 88.398 201.97 89.5024 203.577 91.7113C205.206 93.9202 206.02 96.8654 206.02 100.547C206.02 104.228 205.206 107.174 203.577 109.382ZM196.816 108.947C198.557 108.947 199.884 108.222 200.799 106.772C201.714 105.322 202.171 103.247 202.171 100.547C202.171 97.8471 201.714 95.7721 200.799 94.3218C199.884 92.8715 198.557 92.1464 196.816 92.1464C195.098 92.1464 193.771 92.8715 192.834 94.3218C191.919 95.7721 191.461 97.8471 191.461 100.547C191.461 103.247 191.919 105.322 192.834 106.772C193.771 108.222 195.098 108.947 196.816 108.947ZM224.658 109.382C223.051 111.591 220.798 112.696 217.897 112.696C214.997 112.696 212.732 111.591 211.103 109.382C209.497 107.174 208.693 104.228 208.693 100.547C208.693 96.8654 209.497 93.9202 211.103 91.7113C212.732 89.5024 214.997 88.398 217.897 88.398C220.798 88.398 223.051 89.5024 224.658 91.7113C226.287 93.9202 227.101 96.8654 227.101 100.547C227.101 104.228 226.287 107.174 224.658 109.382ZM217.897 108.947C219.638 108.947 220.965 108.222 221.88 106.772C222.795 105.322 223.252 103.247 223.252 100.547C223.252 97.8471 222.795 95.7721 221.88 94.3218C220.965 92.8715 219.638 92.1464 217.897 92.1464C216.179 92.1464 214.852 92.8715 213.915 94.3218C213 95.7721 212.542 97.8471 212.542 100.547C212.542 103.247 213 105.322 213.915 106.772C214.852 108.222 216.179 108.947 217.897 108.947ZM245.739 109.382C244.132 111.591 241.879 112.696 238.978 112.696C236.078 112.696 233.813 111.591 232.184 109.382C230.578 107.174 229.774 104.228 229.774 100.547C229.774 96.8654 230.578 93.9202 232.184 91.7113C233.813 89.5024 236.078 88.398 238.978 88.398C241.879 88.398 244.132 89.5024 245.739 91.7113C247.368 93.9202 248.182 96.8654 248.182 100.547C248.182 104.228 247.368 107.174 245.739 109.382ZM238.978 108.947C240.719 108.947 242.046 108.222 242.961 106.772C243.876 105.322 244.333 103.247 244.333 100.547C244.333 97.8471 243.876 95.7721 242.961 94.3218C242.046 92.8715 240.719 92.1464 238.978 92.1464C237.26 92.1464 235.933 92.8715 234.996 94.3218C234.081 95.7721 233.623 97.8471 233.623 100.547C233.623 103.247 234.081 105.322 234.996 106.772C235.933 108.222 237.26 108.947 238.978 108.947Z" fill="black"/>
<path d="M162.291 157.301C162.291 148.829 169.159 141.961 177.631 141.961H236.2C244.672 141.961 251.539 148.829 251.539 157.301V157.301C251.539 165.773 244.672 172.641 236.2 172.641H177.631C169.159 172.641 162.291 165.773 162.291 157.301V157.301Z" fill="#F4F4F4"/>
<path d="M190.879 156.457V156.926C190.879 157.945 190.53 158.793 189.831 159.47C189.131 160.139 188.206 160.474 187.053 160.474C185.863 160.474 184.877 160.083 184.096 159.302C183.323 158.514 182.936 157.554 182.936 156.424C182.936 155.294 183.323 154.338 184.096 153.557C184.877 152.769 185.855 152.374 187.03 152.374C187.752 152.374 188.414 152.549 189.016 152.899C189.619 153.241 190.083 153.694 190.411 154.26L189.518 154.784C189.295 154.36 188.957 154.022 188.503 153.769C188.057 153.509 187.562 153.378 187.019 153.378C186.127 153.378 185.394 153.672 184.822 154.26C184.249 154.84 183.962 155.561 183.962 156.424C183.962 157.287 184.249 158.008 184.822 158.588C185.402 159.168 186.149 159.458 187.064 159.458C187.845 159.458 188.477 159.269 188.96 158.889C189.444 158.503 189.738 158.004 189.842 157.395H186.975V156.457H190.879ZM193.011 155.688C193.331 154.996 193.911 154.65 194.751 154.65V155.665C194.275 155.643 193.866 155.77 193.524 156.045C193.182 156.32 193.011 156.762 193.011 157.372V160.329H192.04V154.751H193.011V155.688ZM200.104 159.626C199.531 160.191 198.836 160.474 198.018 160.474C197.2 160.474 196.504 160.191 195.931 159.626C195.366 159.061 195.084 158.365 195.084 157.54C195.084 156.714 195.366 156.019 195.931 155.453C196.504 154.888 197.2 154.606 198.018 154.606C198.836 154.606 199.531 154.888 200.104 155.453C200.676 156.019 200.963 156.714 200.963 157.54C200.963 158.365 200.676 159.061 200.104 159.626ZM198.018 159.525C198.575 159.525 199.044 159.336 199.423 158.956C199.803 158.577 199.992 158.105 199.992 157.54C199.992 156.974 199.803 156.502 199.423 156.123C199.044 155.743 198.575 155.554 198.018 155.554C197.467 155.554 197.002 155.743 196.623 156.123C196.244 156.502 196.054 156.974 196.054 157.54C196.054 158.105 196.244 158.577 196.623 158.956C197.002 159.336 197.467 159.525 198.018 159.525ZM204.729 160.474C203.888 160.474 203.189 160.195 202.631 159.637C202.074 159.072 201.795 158.373 201.795 157.54C201.795 156.707 202.074 156.011 202.631 155.453C203.189 154.888 203.888 154.606 204.729 154.606C205.279 154.606 205.774 154.739 206.212 155.007C206.651 155.267 206.978 155.621 207.194 156.067L206.38 156.536C206.238 156.238 206.019 156 205.722 155.822C205.432 155.643 205.101 155.554 204.729 155.554C204.171 155.554 203.702 155.743 203.323 156.123C202.951 156.502 202.765 156.974 202.765 157.54C202.765 158.097 202.951 158.566 203.323 158.945C203.702 159.325 204.171 159.514 204.729 159.514C205.101 159.514 205.435 159.429 205.733 159.258C206.03 159.079 206.257 158.841 206.413 158.544L207.239 159.023C207.001 159.462 206.659 159.815 206.212 160.083C205.766 160.343 205.272 160.474 204.729 160.474ZM208.801 157.986C208.898 158.484 209.125 158.871 209.482 159.146C209.846 159.421 210.293 159.559 210.821 159.559C211.557 159.559 212.092 159.287 212.427 158.744L213.253 159.213C212.71 160.053 211.892 160.474 210.798 160.474C209.913 160.474 209.192 160.198 208.634 159.648C208.084 159.09 207.808 158.387 207.808 157.54C207.808 156.699 208.08 156 208.623 155.442C209.166 154.884 209.869 154.606 210.731 154.606C211.549 154.606 212.215 154.896 212.728 155.476C213.249 156.048 213.509 156.74 213.509 157.551C213.509 157.692 213.498 157.837 213.476 157.986H208.801ZM210.731 155.52C210.211 155.52 209.779 155.669 209.437 155.967C209.095 156.257 208.883 156.647 208.801 157.138H212.527C212.446 156.61 212.237 156.208 211.903 155.933C211.568 155.658 211.178 155.52 210.731 155.52ZM215.595 155.688C215.915 154.996 216.495 154.65 217.336 154.65V155.665C216.86 155.643 216.451 155.77 216.109 156.045C215.767 156.32 215.595 156.762 215.595 157.372V160.329H214.625V154.751H215.595V155.688ZM218.776 153.735C218.59 153.735 218.434 153.672 218.308 153.546C218.181 153.419 218.118 153.267 218.118 153.088C218.118 152.91 218.181 152.757 218.308 152.631C218.434 152.497 218.59 152.43 218.776 152.43C218.955 152.43 219.107 152.497 219.234 152.631C219.36 152.757 219.423 152.91 219.423 153.088C219.423 153.267 219.36 153.419 219.234 153.546C219.107 153.672 218.955 153.735 218.776 153.735ZM218.285 160.329V154.751H219.256V160.329H218.285ZM221.417 157.986C221.514 158.484 221.741 158.871 222.098 159.146C222.462 159.421 222.908 159.559 223.437 159.559C224.173 159.559 224.708 159.287 225.043 158.744L225.869 159.213C225.326 160.053 224.507 160.474 223.414 160.474C222.529 160.474 221.808 160.198 221.25 159.648C220.7 159.09 220.424 158.387 220.424 157.54C220.424 156.699 220.696 156 221.239 155.442C221.782 154.884 222.485 154.606 223.347 154.606C224.165 154.606 224.831 154.896 225.344 155.476C225.865 156.048 226.125 156.74 226.125 157.551C226.125 157.692 226.114 157.837 226.092 157.986H221.417ZM223.347 155.52C222.827 155.52 222.395 155.669 222.053 155.967C221.711 156.257 221.499 156.647 221.417 157.138H225.143C225.062 156.61 224.853 156.208 224.519 155.933C224.184 155.658 223.793 155.52 223.347 155.52ZM227.86 156.257C227.86 156.472 227.967 156.647 228.183 156.781C228.399 156.907 228.659 157.012 228.964 157.093C229.269 157.168 229.574 157.257 229.879 157.361C230.184 157.458 230.444 157.629 230.66 157.874C230.875 158.112 230.983 158.421 230.983 158.8C230.983 159.306 230.786 159.711 230.392 160.016C230.005 160.321 229.507 160.474 228.897 160.474C228.354 160.474 227.889 160.355 227.503 160.117C227.116 159.879 226.841 159.563 226.677 159.168L227.514 158.689C227.603 158.956 227.77 159.168 228.016 159.325C228.261 159.481 228.555 159.559 228.897 159.559C229.217 159.559 229.481 159.499 229.689 159.38C229.897 159.254 230.002 159.061 230.002 158.8C230.002 158.585 229.894 158.413 229.678 158.287C229.462 158.153 229.202 158.049 228.897 157.975C228.592 157.893 228.287 157.8 227.982 157.696C227.677 157.592 227.417 157.421 227.201 157.183C226.986 156.945 226.878 156.64 226.878 156.268C226.878 155.784 227.064 155.386 227.436 155.074C227.815 154.762 228.287 154.606 228.853 154.606C229.306 154.606 229.708 154.71 230.057 154.918C230.414 155.119 230.682 155.401 230.861 155.766L230.046 156.223C229.845 155.747 229.447 155.509 228.853 155.509C228.577 155.509 228.343 155.576 228.15 155.71C227.956 155.836 227.86 156.019 227.86 156.257Z" fill="#757575"/>
<g clip-path="url(#clip2_3833_181)">
<path d="M92.3525 31.9287H100.791V33.3153H92.3525L96.0712 37.0339L95.0909 38.0142L89.6987 32.622L95.0909 27.2298L96.0712 28.2101L92.3525 31.9287Z" fill="#606060"/>
</g>
</g>
<defs>
<linearGradient id="paint0_linear_3833_181" x1="193.589" y1="42.3832" x2="444.165" y2="184.219" gradientUnits="userSpaceOnUse">
<stop stop-color="#2F2C53"/>
<stop offset="1" stop-color="#2F2C4F"/>
</linearGradient>
<linearGradient id="paint1_linear_3833_181" x1="209.302" y1="79.2607" x2="237.065" y2="97.29" gradientUnits="userSpaceOnUse">
<stop stop-color="#DDD9D6"/>
<stop offset="0.212761" stop-color="#8A868C"/>
<stop offset="0.548384" stop-color="#F2F3F3" stop-opacity="0.8"/>
<stop offset="0.914316" stop-color="#807C80"/>
<stop offset="1" stop-color="#A6A8AB"/>
</linearGradient>
<linearGradient id="paint2_linear_3833_181" x1="206.045" y1="3.08522" x2="206.045" y2="293.713" gradientUnits="userSpaceOnUse">
<stop offset="0.508831" stop-color="#DEDEDE"/>
<stop offset="1" stop-color="#DEDEDE" stop-opacity="0.06"/>
</linearGradient>
<linearGradient id="paint3_linear_3833_181" x1="206.045" y1="5.8743" x2="206.045" y2="277.07" gradientUnits="userSpaceOnUse">
<stop offset="0.823604" stop-color="#F9FBFF"/>
<stop offset="1" stop-color="#FCFDFF" stop-opacity="0"/>
</linearGradient>
<clipPath id="clip0_3833_181">
<rect width="45.0722" height="15.3905" fill="white" transform="translate(384.033 156.398)"/>
</clipPath>
<clipPath id="clip1_3833_181">
<path d="M75.832 29.3713C75.832 18.2947 75.832 12.7564 79.2731 9.31536C82.7142 5.8743 88.2525 5.8743 99.3291 5.8743H312.761C323.837 5.8743 329.376 5.8743 332.817 9.31536C336.258 12.7564 336.258 18.2947 336.258 29.3714V277.07H75.832V29.3713Z" fill="white"/>
</clipPath>
<clipPath id="clip2_3833_181">
<rect width="16.6383" height="16.6383" fill="white" transform="translate(86.9248 24.3025)"/>
</clipPath>
</defs>
</svg>
