<svg width="512" height="504" viewBox="0 0 512 504" fill="none" xmlns="http://www.w3.org/2000/svg">
<g clip-path="url(#clip0_3812_80)">
<path d="M68.5708 26.5794C68.5708 11.9 80.4708 0 95.1502 0H415.526C430.205 0 442.105 11.9 442.105 26.5794V504.669H68.5708V26.5794Z" fill="url(#paint0_linear_3812_80)"/>
<g clip-path="url(#clip1_3812_80)">
<path d="M79.1675 42.4917C79.1675 27.4562 79.1675 19.9384 83.8384 15.2675C88.5094 10.5965 96.0272 10.5965 111.063 10.5965H399.613C414.649 10.5965 422.167 10.5965 426.838 15.2675C431.508 19.9384 431.508 27.4562 431.508 42.4918V476.852H79.1675V42.4917Z" fill="url(#paint1_linear_3812_80)"/>
<rect x="94.2251" y="86.4296" width="322.79" height="75.2864" fill="white"/>
<rect x="94.2251" y="86.4296" width="322.79" height="75.2864" fill="#0B4A94"/>
<rect x="79.1675" y="-13.3247" width="352.905" height="88.4615" fill="white"/>
<path d="M147.272 41.8945V43.2195H144.155V52.4346H142.77V43.2195H139.668V41.8945H147.272ZM148.803 46.1708C149.235 45.2372 150.018 44.7704 151.152 44.7704V46.1407C150.509 46.1105 149.957 46.2812 149.496 46.6526C149.034 47.024 148.803 47.6213 148.803 48.4444V52.4346H147.493V44.906H148.803V46.1708ZM158.256 44.906H159.566V52.4346H158.256V51.1397C157.603 52.1335 156.655 52.6303 155.41 52.6303C154.356 52.6303 153.457 52.2489 152.715 51.486C151.972 50.7131 151.6 49.7745 151.6 48.6703C151.6 47.5661 151.972 46.6325 152.715 45.8696C153.457 45.0967 154.356 44.7102 155.41 44.7102C156.655 44.7102 157.603 45.2071 158.256 46.2009V44.906ZM155.575 51.3655C156.338 51.3655 156.976 51.1096 157.488 50.5976C158 50.0756 158.256 49.4332 158.256 48.6703C158.256 47.9074 158 47.27 157.488 46.758C156.976 46.236 156.338 45.975 155.575 45.975C154.823 45.975 154.19 46.236 153.678 46.758C153.166 47.27 152.91 47.9074 152.91 48.6703C152.91 49.4332 153.166 50.0756 153.678 50.5976C154.19 51.1096 154.823 51.3655 155.575 51.3655ZM165.3 44.7102C166.183 44.7102 166.891 44.9913 167.423 45.5534C167.955 46.1055 168.221 46.8584 168.221 47.812V52.4346H166.911V47.8873C166.911 47.275 166.745 46.8032 166.414 46.4719C166.083 46.1306 165.626 45.96 165.044 45.96C164.391 45.96 163.864 46.1658 163.463 46.5773C163.061 46.9788 162.86 47.6012 162.86 48.4444V52.4346H161.55V44.906H162.86V45.9901C163.392 45.1368 164.205 44.7102 165.3 44.7102ZM171.179 46.9387C171.179 47.2298 171.324 47.4657 171.615 47.6464C171.907 47.817 172.258 47.9576 172.669 48.068C173.081 48.1684 173.493 48.2888 173.904 48.4294C174.316 48.5599 174.667 48.7907 174.958 49.122C175.249 49.4432 175.395 49.8598 175.395 50.3718C175.395 51.0544 175.129 51.6014 174.597 52.013C174.075 52.4246 173.402 52.6303 172.579 52.6303C171.846 52.6303 171.219 52.4697 170.697 52.1485C170.175 51.8273 169.804 51.4007 169.583 50.8686L170.712 50.2212C170.832 50.5826 171.058 50.8686 171.39 51.0794C171.721 51.2902 172.117 51.3956 172.579 51.3956C173.011 51.3956 173.367 51.3153 173.648 51.1547C173.929 50.9841 174.07 50.7231 174.07 50.3718C174.07 50.0806 173.924 49.8498 173.633 49.6791C173.342 49.4984 172.991 49.3579 172.579 49.2575C172.168 49.1471 171.756 49.0216 171.344 48.8811C170.933 48.7405 170.581 48.5097 170.29 48.1884C169.999 47.8672 169.854 47.4557 169.854 46.9538C169.854 46.3013 170.105 45.7642 170.607 45.3426C171.119 44.921 171.756 44.7102 172.519 44.7102C173.131 44.7102 173.673 44.8508 174.145 45.1318C174.627 45.4029 174.988 45.7843 175.229 46.2762L174.13 46.8935C173.859 46.2511 173.322 45.9299 172.519 45.9299C172.147 45.9299 171.831 46.0202 171.57 46.2009C171.309 46.3715 171.179 46.6175 171.179 46.9387ZM182.974 44.906H184.284V52.4346H182.974V51.1397C182.321 52.1335 181.373 52.6303 180.128 52.6303C179.074 52.6303 178.175 52.2489 177.433 51.486C176.69 50.7131 176.318 49.7745 176.318 48.6703C176.318 47.5661 176.69 46.6325 177.433 45.8696C178.175 45.0967 179.074 44.7102 180.128 44.7102C181.373 44.7102 182.321 45.2071 182.974 46.2009V44.906ZM180.293 51.3655C181.056 51.3655 181.694 51.1096 182.206 50.5976C182.718 50.0756 182.974 49.4332 182.974 48.6703C182.974 47.9074 182.718 47.27 182.206 46.758C181.694 46.236 181.056 45.975 180.293 45.975C179.541 45.975 178.908 46.236 178.396 46.758C177.884 47.27 177.628 47.9074 177.628 48.6703C177.628 49.4332 177.884 50.0756 178.396 50.5976C178.908 51.1096 179.541 51.3655 180.293 51.3655ZM189.807 52.6303C188.673 52.6303 187.729 52.2539 186.976 51.501C186.223 50.7381 185.847 49.7946 185.847 48.6703C185.847 47.546 186.223 46.6074 186.976 45.8546C187.729 45.0917 188.673 44.7102 189.807 44.7102C190.55 44.7102 191.217 44.8909 191.809 45.2523C192.402 45.6036 192.843 46.0804 193.135 46.6827L192.035 47.3151C191.845 46.9136 191.548 46.5924 191.147 46.3515C190.755 46.1105 190.309 45.9901 189.807 45.9901C189.054 45.9901 188.422 46.2461 187.91 46.758C187.408 47.27 187.157 47.9074 187.157 48.6703C187.157 49.4231 187.408 50.0556 187.91 50.5675C188.422 51.0794 189.054 51.3354 189.807 51.3354C190.309 51.3354 190.76 51.22 191.162 50.9891C191.564 50.7482 191.87 50.427 192.081 50.0254L193.195 50.6729C192.874 51.2652 192.412 51.742 191.809 52.1033C191.207 52.4547 190.54 52.6303 189.807 52.6303ZM198.584 46.1708H196.581V50.2513C196.581 50.6227 196.651 50.8887 196.792 51.0493C196.942 51.1999 197.168 51.2802 197.469 51.2902C197.771 51.2902 198.142 51.2802 198.584 51.2601V52.4346C197.439 52.5852 196.601 52.4948 196.069 52.1636C195.537 51.8223 195.271 51.1848 195.271 50.2513V46.1708H193.78V44.906H195.271V43.1894L196.581 42.7979V44.906H198.584V46.1708ZM200.797 43.5357C200.546 43.5357 200.335 43.4504 200.165 43.2798C199.994 43.1091 199.909 42.9033 199.909 42.6624C199.909 42.4215 199.994 42.2157 200.165 42.0451C200.335 41.8644 200.546 41.774 200.797 41.774C201.038 41.774 201.244 41.8644 201.414 42.0451C201.585 42.2157 201.67 42.4215 201.67 42.6624C201.67 42.9033 201.585 43.1091 201.414 43.2798C201.244 43.4504 201.038 43.5357 200.797 43.5357ZM200.135 52.4346V44.906H201.445V52.4346H200.135ZM209.797 51.486C209.024 52.2489 208.086 52.6303 206.982 52.6303C205.877 52.6303 204.939 52.2489 204.166 51.486C203.403 50.7231 203.022 49.7845 203.022 48.6703C203.022 47.556 203.403 46.6175 204.166 45.8546C204.939 45.0917 205.877 44.7102 206.982 44.7102C208.086 44.7102 209.024 45.0917 209.797 45.8546C210.57 46.6175 210.957 47.556 210.957 48.6703C210.957 49.7845 210.57 50.7231 209.797 51.486ZM206.982 51.3505C207.734 51.3505 208.367 51.0945 208.879 50.5826C209.391 50.0706 209.647 49.4332 209.647 48.6703C209.647 47.9074 209.391 47.27 208.879 46.758C208.367 46.2461 207.734 45.9901 206.982 45.9901C206.239 45.9901 205.611 46.2461 205.099 46.758C204.587 47.27 204.331 47.9074 204.331 48.6703C204.331 49.4332 204.587 50.0706 205.099 50.5826C205.611 51.0945 206.239 51.3505 206.982 51.3505ZM216.25 44.7102C217.134 44.7102 217.841 44.9913 218.373 45.5534C218.905 46.1055 219.171 46.8584 219.171 47.812V52.4346H217.861V47.8873C217.861 47.275 217.696 46.8032 217.364 46.4719C217.033 46.1306 216.577 45.96 215.994 45.96C215.342 45.96 214.815 46.1658 214.413 46.5773C214.012 46.9788 213.811 47.6012 213.811 48.4444V52.4346H212.501V44.906H213.811V45.9901C214.343 45.1368 215.156 44.7102 216.25 44.7102ZM222.129 46.9387C222.129 47.2298 222.275 47.4657 222.566 47.6464C222.857 47.817 223.209 47.9576 223.62 48.068C224.032 48.1684 224.443 48.2888 224.855 48.4294C225.266 48.5599 225.618 48.7907 225.909 49.122C226.2 49.4432 226.345 49.8598 226.345 50.3718C226.345 51.0544 226.079 51.6014 225.547 52.013C225.025 52.4246 224.353 52.6303 223.53 52.6303C222.797 52.6303 222.17 52.4697 221.648 52.1485C221.126 51.8273 220.754 51.4007 220.533 50.8686L221.663 50.2212C221.783 50.5826 222.009 50.8686 222.34 51.0794C222.671 51.2902 223.068 51.3956 223.53 51.3956C223.961 51.3956 224.318 51.3153 224.599 51.1547C224.88 50.9841 225.02 50.7231 225.02 50.3718C225.02 50.0806 224.875 49.8498 224.584 49.6791C224.293 49.4984 223.941 49.3579 223.53 49.2575C223.118 49.1471 222.707 49.0216 222.295 48.8811C221.883 48.7405 221.532 48.5097 221.241 48.1884C220.95 47.8672 220.804 47.4557 220.804 46.9538C220.804 46.3013 221.055 45.7642 221.557 45.3426C222.069 44.921 222.707 44.7102 223.47 44.7102C224.082 44.7102 224.624 44.8508 225.096 45.1318C225.578 45.4029 225.939 45.7843 226.18 46.2762L225.081 46.8935C224.81 46.2511 224.273 45.9299 223.47 45.9299C223.098 45.9299 222.782 46.0202 222.521 46.2009C222.26 46.3715 222.129 46.6175 222.129 46.9387Z" fill="#303030"/>
<rect x="93.1284" y="269.745" width="322.939" height="191.371" fill="white"/>
<rect x="105.518" y="284.997" width="39.5254" height="39.5254" fill="#F4F6FA"/>
<rect x="105.518" y="346.168" width="39.5254" height="39.5254" fill="#F4F6FA"/>
<rect x="105.518" y="407.338" width="39.5254" height="39.5254" fill="#F4F6FA"/>
<path d="M162.095 319.436C161.576 320.173 160.842 320.542 159.893 320.542C158.945 320.542 158.207 320.173 157.68 319.436C157.16 318.69 156.901 317.697 156.901 316.454C156.901 315.212 157.16 314.222 157.68 313.484C158.207 312.739 158.945 312.366 159.893 312.366C160.842 312.366 161.576 312.739 162.095 313.484C162.622 314.222 162.886 315.212 162.886 316.454C162.886 317.697 162.622 318.69 162.095 319.436ZM158.267 318.905C158.659 319.485 159.201 319.774 159.893 319.774C160.586 319.774 161.124 319.485 161.508 318.905C161.9 318.325 162.095 317.508 162.095 316.454C162.095 315.4 161.9 314.583 161.508 314.004C161.124 313.424 160.586 313.134 159.893 313.134C159.201 313.134 158.659 313.424 158.267 314.004C157.883 314.583 157.691 315.4 157.691 316.454C157.691 317.508 157.883 318.325 158.267 318.905ZM166.442 315.325C167.217 315.325 167.853 315.57 168.35 316.059C168.847 316.541 169.096 317.166 169.096 317.934C169.096 318.702 168.847 319.33 168.35 319.82C167.853 320.301 167.217 320.542 166.442 320.542C165.666 320.542 165.03 320.301 164.533 319.82C164.036 319.33 163.788 318.702 163.788 317.934C163.788 317.339 163.95 316.812 164.274 316.353L166.86 312.502H167.752L165.809 315.393C166.013 315.348 166.223 315.325 166.442 315.325ZM165.087 319.266C165.433 319.605 165.885 319.774 166.442 319.774C166.999 319.774 167.447 319.605 167.786 319.266C168.132 318.927 168.305 318.483 168.305 317.934C168.305 317.384 168.132 316.94 167.786 316.601C167.447 316.262 166.999 316.093 166.442 316.093C165.885 316.093 165.433 316.262 165.087 316.601C164.748 316.94 164.578 317.384 164.578 317.934C164.578 318.483 164.748 318.927 165.087 319.266ZM171.066 315.709C170.946 315.829 170.799 315.89 170.626 315.89C170.453 315.89 170.306 315.829 170.186 315.709C170.065 315.589 170.005 315.442 170.005 315.269C170.005 315.095 170.065 314.949 170.186 314.828C170.306 314.708 170.453 314.647 170.626 314.647C170.799 314.647 170.946 314.708 171.066 314.828C171.187 314.949 171.247 315.095 171.247 315.269C171.247 315.442 171.187 315.589 171.066 315.709ZM171.066 320.339C170.946 320.46 170.799 320.52 170.626 320.52C170.453 320.52 170.306 320.46 170.186 320.339C170.065 320.219 170.005 320.072 170.005 319.899C170.005 319.726 170.065 319.579 170.186 319.458C170.306 319.338 170.453 319.278 170.626 319.278C170.799 319.278 170.946 319.338 171.066 319.458C171.187 319.579 171.247 319.726 171.247 319.899C171.247 320.072 171.187 320.219 171.066 320.339ZM177.689 319.436C177.17 320.173 176.436 320.542 175.487 320.542C174.539 320.542 173.801 320.173 173.274 319.436C172.754 318.69 172.495 317.697 172.495 316.454C172.495 315.212 172.754 314.222 173.274 313.484C173.801 312.739 174.539 312.366 175.487 312.366C176.436 312.366 177.17 312.739 177.689 313.484C178.216 314.222 178.48 315.212 178.48 316.454C178.48 317.697 178.216 318.69 177.689 319.436ZM173.861 318.905C174.253 319.485 174.795 319.774 175.487 319.774C176.18 319.774 176.718 319.485 177.102 318.905C177.494 318.325 177.689 317.508 177.689 316.454C177.689 315.4 177.494 314.583 177.102 314.004C176.718 313.424 176.18 313.134 175.487 313.134C174.795 313.134 174.253 313.424 173.861 314.004C173.477 314.583 173.285 315.4 173.285 316.454C173.285 317.508 173.477 318.325 173.861 318.905ZM184.803 319.436C184.283 320.173 183.549 320.542 182.6 320.542C181.652 320.542 180.914 320.173 180.387 319.436C179.868 318.69 179.608 317.697 179.608 316.454C179.608 315.212 179.868 314.222 180.387 313.484C180.914 312.739 181.652 312.366 182.6 312.366C183.549 312.366 184.283 312.739 184.803 313.484C185.33 314.222 185.593 315.212 185.593 316.454C185.593 317.697 185.33 318.69 184.803 319.436ZM180.974 318.905C181.366 319.485 181.908 319.774 182.6 319.774C183.293 319.774 183.831 319.485 184.215 318.905C184.607 318.325 184.803 317.508 184.803 316.454C184.803 315.4 184.607 314.583 184.215 314.004C183.831 313.424 183.293 313.134 182.6 313.134C181.908 313.134 181.366 313.424 180.974 314.004C180.59 314.583 180.398 315.4 180.398 316.454C180.398 317.508 180.59 318.325 180.974 318.905ZM192.706 312.502C193.414 312.502 194.005 312.739 194.479 313.213C194.954 313.688 195.191 314.279 195.191 314.986C195.191 315.694 194.954 316.285 194.479 316.759C194.005 317.234 193.414 317.471 192.706 317.471H190.674V320.407H189.883V312.502H192.706ZM192.706 316.725C193.196 316.725 193.598 316.563 193.915 316.24C194.238 315.908 194.4 315.491 194.4 314.986C194.4 314.482 194.238 314.068 193.915 313.744C193.598 313.413 193.196 313.247 192.706 313.247H190.674V316.725H192.706ZM203.772 312.502V320.407H202.981V313.699L200.214 318.329H200.101L197.335 313.699V320.407H196.544V312.502H197.527L200.158 316.906L202.789 312.502H203.772Z" fill="#757575"/>
<path d="M162.095 380.606C161.576 381.344 160.842 381.712 159.893 381.712C158.945 381.712 158.207 381.344 157.68 380.606C157.16 379.86 156.901 378.867 156.901 377.624C156.901 376.382 157.16 375.392 157.68 374.654C158.207 373.909 158.945 373.536 159.893 373.536C160.842 373.536 161.576 373.909 162.095 374.654C162.622 375.392 162.886 376.382 162.886 377.624C162.886 378.867 162.622 379.86 162.095 380.606ZM158.267 380.075C158.659 380.655 159.201 380.944 159.893 380.944C160.586 380.944 161.124 380.655 161.508 380.075C161.9 379.495 162.095 378.678 162.095 377.624C162.095 376.57 161.9 375.754 161.508 375.174C161.124 374.594 160.586 374.304 159.893 374.304C159.201 374.304 158.659 374.594 158.267 375.174C157.883 375.754 157.691 376.57 157.691 377.624C157.691 378.678 157.883 379.495 158.267 380.075ZM166.442 376.495C167.217 376.495 167.853 376.74 168.35 377.229C168.847 377.711 169.096 378.336 169.096 379.104C169.096 379.872 168.847 380.5 168.35 380.99C167.853 381.472 167.217 381.712 166.442 381.712C165.666 381.712 165.03 381.472 164.533 380.99C164.036 380.5 163.788 379.872 163.788 379.104C163.788 378.509 163.95 377.982 164.274 377.523L166.86 373.672H167.752L165.809 376.563C166.013 376.518 166.223 376.495 166.442 376.495ZM165.087 380.436C165.433 380.775 165.885 380.944 166.442 380.944C166.999 380.944 167.447 380.775 167.786 380.436C168.132 380.098 168.305 379.653 168.305 379.104C168.305 378.554 168.132 378.11 167.786 377.771C167.447 377.432 166.999 377.263 166.442 377.263C165.885 377.263 165.433 377.432 165.087 377.771C164.748 378.11 164.578 378.554 164.578 379.104C164.578 379.653 164.748 380.098 165.087 380.436ZM171.066 376.879C170.946 376.999 170.799 377.06 170.626 377.06C170.453 377.06 170.306 376.999 170.186 376.879C170.065 376.759 170.005 376.612 170.005 376.439C170.005 376.265 170.065 376.119 170.186 375.998C170.306 375.878 170.453 375.817 170.626 375.817C170.799 375.817 170.946 375.878 171.066 375.998C171.187 376.119 171.247 376.265 171.247 376.439C171.247 376.612 171.187 376.759 171.066 376.879ZM171.066 381.509C170.946 381.63 170.799 381.69 170.626 381.69C170.453 381.69 170.306 381.63 170.186 381.509C170.065 381.389 170.005 381.242 170.005 381.069C170.005 380.896 170.065 380.749 170.186 380.628C170.306 380.508 170.453 380.448 170.626 380.448C170.799 380.448 170.946 380.508 171.066 380.628C171.187 380.749 171.247 380.896 171.247 381.069C171.247 381.242 171.187 381.389 171.066 381.509ZM177.689 380.606C177.17 381.344 176.436 381.712 175.487 381.712C174.539 381.712 173.801 381.344 173.274 380.606C172.754 379.86 172.495 378.867 172.495 377.624C172.495 376.382 172.754 375.392 173.274 374.654C173.801 373.909 174.539 373.536 175.487 373.536C176.436 373.536 177.17 373.909 177.689 374.654C178.216 375.392 178.48 376.382 178.48 377.624C178.48 378.867 178.216 379.86 177.689 380.606ZM173.861 380.075C174.253 380.655 174.795 380.944 175.487 380.944C176.18 380.944 176.718 380.655 177.102 380.075C177.494 379.495 177.689 378.678 177.689 377.624C177.689 376.57 177.494 375.754 177.102 375.174C176.718 374.594 176.18 374.304 175.487 374.304C174.795 374.304 174.253 374.594 173.861 375.174C173.477 375.754 173.285 376.57 173.285 377.624C173.285 378.678 173.477 379.495 173.861 380.075ZM184.803 380.606C184.283 381.344 183.549 381.712 182.6 381.712C181.652 381.712 180.914 381.344 180.387 380.606C179.868 379.86 179.608 378.867 179.608 377.624C179.608 376.382 179.868 375.392 180.387 374.654C180.914 373.909 181.652 373.536 182.6 373.536C183.549 373.536 184.283 373.909 184.803 374.654C185.33 375.392 185.593 376.382 185.593 377.624C185.593 378.867 185.33 379.86 184.803 380.606ZM180.974 380.075C181.366 380.655 181.908 380.944 182.6 380.944C183.293 380.944 183.831 380.655 184.215 380.075C184.607 379.495 184.803 378.678 184.803 377.624C184.803 376.57 184.607 375.754 184.215 375.174C183.831 374.594 183.293 374.304 182.6 374.304C181.908 374.304 181.366 374.594 180.974 375.174C180.59 375.754 180.398 376.57 180.398 377.624C180.398 378.678 180.59 379.495 180.974 380.075ZM192.706 373.672C193.414 373.672 194.005 373.909 194.479 374.383C194.954 374.858 195.191 375.449 195.191 376.156C195.191 376.864 194.954 377.455 194.479 377.929C194.005 378.404 193.414 378.641 192.706 378.641H190.674V381.577H189.883V373.672H192.706ZM192.706 377.895C193.196 377.895 193.598 377.734 193.915 377.41C194.238 377.079 194.4 376.661 194.4 376.156C194.4 375.652 194.238 375.238 193.915 374.914C193.598 374.583 193.196 374.417 192.706 374.417H190.674V377.895H192.706ZM203.772 373.672V381.577H202.981V374.869L200.214 379.499H200.101L197.335 374.869V381.577H196.544V373.672H197.527L200.158 378.076L202.789 373.672H203.772Z" fill="#757575"/>
<path d="M162.095 440.908C161.576 441.646 160.842 442.015 159.893 442.015C158.945 442.015 158.207 441.646 157.68 440.908C157.16 440.163 156.901 439.169 156.901 437.927C156.901 436.685 157.16 435.695 157.68 434.957C158.207 434.212 158.945 433.839 159.893 433.839C160.842 433.839 161.576 434.212 162.095 434.957C162.622 435.695 162.886 436.685 162.886 437.927C162.886 439.169 162.622 440.163 162.095 440.908ZM158.267 440.378C158.659 440.957 159.201 441.247 159.893 441.247C160.586 441.247 161.124 440.957 161.508 440.378C161.9 439.798 162.095 438.981 162.095 437.927C162.095 436.873 161.9 436.056 161.508 435.477C161.124 434.897 160.586 434.607 159.893 434.607C159.201 434.607 158.659 434.897 158.267 435.477C157.883 436.056 157.691 436.873 157.691 437.927C157.691 438.981 157.883 439.798 158.267 440.378ZM166.442 436.798C167.217 436.798 167.853 437.042 168.35 437.532C168.847 438.014 169.096 438.639 169.096 439.406C169.096 440.174 168.847 440.803 168.35 441.292C167.853 441.774 167.217 442.015 166.442 442.015C165.666 442.015 165.03 441.774 164.533 441.292C164.036 440.803 163.788 440.174 163.788 439.406C163.788 438.812 163.95 438.285 164.274 437.825L166.86 433.975H167.752L165.809 436.866C166.013 436.82 166.223 436.798 166.442 436.798ZM165.087 440.739C165.433 441.078 165.885 441.247 166.442 441.247C166.999 441.247 167.447 441.078 167.786 440.739C168.132 440.4 168.305 439.956 168.305 439.406C168.305 438.857 168.132 438.413 167.786 438.074C167.447 437.735 166.999 437.566 166.442 437.566C165.885 437.566 165.433 437.735 165.087 438.074C164.748 438.413 164.578 438.857 164.578 439.406C164.578 439.956 164.748 440.4 165.087 440.739ZM171.066 437.182C170.946 437.302 170.799 437.362 170.626 437.362C170.453 437.362 170.306 437.302 170.186 437.182C170.065 437.061 170.005 436.915 170.005 436.741C170.005 436.568 170.065 436.421 170.186 436.301C170.306 436.18 170.453 436.12 170.626 436.12C170.799 436.12 170.946 436.18 171.066 436.301C171.187 436.421 171.247 436.568 171.247 436.741C171.247 436.915 171.187 437.061 171.066 437.182ZM171.066 441.812C170.946 441.932 170.799 441.993 170.626 441.993C170.453 441.993 170.306 441.932 170.186 441.812C170.065 441.691 170.005 441.545 170.005 441.371C170.005 441.198 170.065 441.051 170.186 440.931C170.306 440.811 170.453 440.75 170.626 440.75C170.799 440.75 170.946 440.811 171.066 440.931C171.187 441.051 171.247 441.198 171.247 441.371C171.247 441.545 171.187 441.691 171.066 441.812ZM177.689 440.908C177.17 441.646 176.436 442.015 175.487 442.015C174.539 442.015 173.801 441.646 173.274 440.908C172.754 440.163 172.495 439.169 172.495 437.927C172.495 436.685 172.754 435.695 173.274 434.957C173.801 434.212 174.539 433.839 175.487 433.839C176.436 433.839 177.17 434.212 177.689 434.957C178.216 435.695 178.48 436.685 178.48 437.927C178.48 439.169 178.216 440.163 177.689 440.908ZM173.861 440.378C174.253 440.957 174.795 441.247 175.487 441.247C176.18 441.247 176.718 440.957 177.102 440.378C177.494 439.798 177.689 438.981 177.689 437.927C177.689 436.873 177.494 436.056 177.102 435.477C176.718 434.897 176.18 434.607 175.487 434.607C174.795 434.607 174.253 434.897 173.861 435.477C173.477 436.056 173.285 436.873 173.285 437.927C173.285 438.981 173.477 439.798 173.861 440.378ZM184.803 440.908C184.283 441.646 183.549 442.015 182.6 442.015C181.652 442.015 180.914 441.646 180.387 440.908C179.868 440.163 179.608 439.169 179.608 437.927C179.608 436.685 179.868 435.695 180.387 434.957C180.914 434.212 181.652 433.839 182.6 433.839C183.549 433.839 184.283 434.212 184.803 434.957C185.33 435.695 185.593 436.685 185.593 437.927C185.593 439.169 185.33 440.163 184.803 440.908ZM180.974 440.378C181.366 440.957 181.908 441.247 182.6 441.247C183.293 441.247 183.831 440.957 184.215 440.378C184.607 439.798 184.803 438.981 184.803 437.927C184.803 436.873 184.607 436.056 184.215 435.477C183.831 434.897 183.293 434.607 182.6 434.607C181.908 434.607 181.366 434.897 180.974 435.477C180.59 436.056 180.398 436.873 180.398 437.927C180.398 438.981 180.59 439.798 180.974 440.378ZM192.706 433.975C193.414 433.975 194.005 434.212 194.479 434.686C194.954 435.16 195.191 435.751 195.191 436.459C195.191 437.167 194.954 437.758 194.479 438.232C194.005 438.706 193.414 438.943 192.706 438.943H190.674V441.88H189.883V433.975H192.706ZM192.706 438.198C193.196 438.198 193.598 438.036 193.915 437.713C194.238 437.381 194.4 436.963 194.4 436.459C194.4 435.955 194.238 435.541 193.915 435.217C193.598 434.886 193.196 434.72 192.706 434.72H190.674V438.198H192.706ZM203.772 433.975V441.88H202.981V435.172L200.214 439.802H200.101L197.335 435.172V441.88H196.544V433.975H197.527L200.158 438.379L202.789 433.975H203.772Z" fill="#757575"/>
<path d="M158.945 291.539H159.999V300.762H158.787V292.857L156.823 293.436L156.52 292.382L158.945 291.539ZM165.195 295.32C165.898 295.452 166.473 295.755 166.921 296.23C167.369 296.704 167.593 297.306 167.593 298.035C167.593 298.93 167.286 299.638 166.671 300.156C166.056 300.674 165.31 300.933 164.431 300.933C163.729 300.933 163.105 300.775 162.56 300.459C162.016 300.134 161.629 299.668 161.401 299.062L162.429 298.456C162.701 299.308 163.369 299.734 164.431 299.734C165.002 299.734 165.468 299.585 165.828 299.286C166.188 298.988 166.368 298.57 166.368 298.035C166.368 297.499 166.188 297.082 165.828 296.783C165.468 296.475 165.002 296.322 164.431 296.322H164.115L163.628 295.571L165.762 292.685H161.665V291.539H167.198V292.62L165.195 295.32ZM175.576 297.863V299.009H174.457V300.762H173.231V299.009H168.528V297.863L171.835 291.539H173.152L169.845 297.863H173.231V295.255H174.457V297.863H175.576ZM178.154 291.539H179.208V300.762H177.996V292.857L176.033 293.436L175.73 292.382L178.154 291.539ZM187.606 297.863V299.009H186.487V300.762H185.261V299.009H180.558V297.863L183.865 291.539H185.182L181.875 297.863H185.261V295.255H186.487V297.863H187.606ZM188.294 300.762V299.76L191.548 296.44C192.418 295.571 192.853 294.824 192.853 294.201C192.853 293.682 192.695 293.278 192.378 292.988C192.062 292.699 191.676 292.554 191.219 292.554C190.349 292.554 189.717 292.967 189.322 293.792L188.294 293.186C188.584 292.589 188.984 292.136 189.493 291.829C190.011 291.522 190.582 291.368 191.206 291.368C191.979 291.368 192.651 291.623 193.222 292.132C193.793 292.642 194.078 293.327 194.078 294.187C194.078 295.118 193.529 296.133 192.431 297.231L190.073 299.576H194.249V300.762H188.294ZM198.802 295.32C199.505 295.452 200.08 295.755 200.528 296.23C200.976 296.704 201.2 297.306 201.2 298.035C201.2 298.93 200.893 299.638 200.278 300.156C199.663 300.674 198.917 300.933 198.038 300.933C197.335 300.933 196.712 300.775 196.167 300.459C195.623 300.134 195.236 299.668 195.008 299.062L196.036 298.456C196.308 299.308 196.975 299.734 198.038 299.734C198.609 299.734 199.075 299.585 199.435 299.286C199.795 298.988 199.975 298.57 199.975 298.035C199.975 297.499 199.795 297.082 199.435 296.783C199.075 296.475 198.609 296.322 198.038 296.322H197.722L197.234 295.571L199.369 292.685H195.271V291.539H200.805V292.62L198.802 295.32Z" fill="#212121"/>
<path d="M160.499 356.491C161.202 356.622 161.777 356.925 162.225 357.4C162.673 357.874 162.897 358.476 162.897 359.205C162.897 360.101 162.59 360.808 161.975 361.326C161.36 361.844 160.613 362.103 159.735 362.103C159.032 362.103 158.409 361.945 157.864 361.629C157.32 361.304 156.933 360.838 156.705 360.232L157.733 359.626C158.005 360.478 158.672 360.904 159.735 360.904C160.306 360.904 160.772 360.755 161.132 360.456C161.492 360.158 161.672 359.74 161.672 359.205C161.672 358.669 161.492 358.252 161.132 357.953C160.772 357.646 160.306 357.492 159.735 357.492H159.419L158.931 356.741L161.066 353.856H156.968V352.709H162.502V353.79L160.499 356.491ZM170.88 359.033V360.18H169.76V361.932H168.535V360.18H163.832V359.033L167.139 352.709H168.456L165.149 359.033H168.535V356.425H169.76V359.033H170.88ZM178.652 359.033V360.18H177.532V361.932H176.306V360.18H171.603V359.033L174.91 352.709H176.227L172.92 359.033H176.306V356.425H177.532V359.033H178.652ZM181.229 352.709H182.283V361.932H181.071V354.027L179.108 354.607L178.805 353.553L181.229 352.709ZM190.682 359.033V360.18H189.562V361.932H188.336V360.18H183.633V359.033L186.94 352.709H188.257L184.95 359.033H188.336V356.425H189.562V359.033H190.682ZM190.939 352.709H196.697V353.803L193.337 361.932H192.059L195.392 353.869H190.939V352.709ZM199.808 352.709H200.862V361.932H199.65V354.027L197.687 354.607L197.384 353.553L199.808 352.709Z" fill="#212121"/>
<path d="M156.81 423.102V422.101L160.064 418.781C160.934 417.911 161.369 417.164 161.369 416.541C161.369 416.023 161.211 415.619 160.895 415.329C160.578 415.039 160.192 414.894 159.735 414.894C158.866 414.894 158.233 415.307 157.838 416.132L156.81 415.526C157.1 414.929 157.5 414.477 158.009 414.169C158.527 413.862 159.098 413.708 159.722 413.708C160.495 413.708 161.167 413.963 161.738 414.472C162.309 414.982 162.594 415.667 162.594 416.528C162.594 417.459 162.045 418.473 160.947 419.571L158.589 421.916H162.765V423.102H156.81ZM167.318 417.661C168.021 417.792 168.596 418.096 169.044 418.57C169.492 419.044 169.716 419.646 169.716 420.375C169.716 421.271 169.409 421.978 168.794 422.496C168.179 423.014 167.433 423.273 166.554 423.273C165.852 423.273 165.228 423.115 164.683 422.799C164.139 422.474 163.752 422.009 163.524 421.402L164.552 420.796C164.824 421.648 165.491 422.074 166.554 422.074C167.125 422.074 167.591 421.925 167.951 421.626C168.311 421.328 168.491 420.911 168.491 420.375C168.491 419.839 168.311 419.422 167.951 419.123C167.591 418.816 167.125 418.662 166.554 418.662H166.238L165.751 417.911L167.885 415.026H163.787V413.879H169.321V414.96L167.318 417.661ZM177.699 420.204V421.35H176.58V423.102H175.354V421.35H170.651V420.204L173.958 413.879H175.275L171.968 420.204H175.354V417.595H176.58V420.204H177.699ZM182.14 417.661C182.843 417.792 183.418 418.096 183.866 418.57C184.314 419.044 184.538 419.646 184.538 420.375C184.538 421.271 184.231 421.978 183.616 422.496C183.001 423.014 182.255 423.273 181.376 423.273C180.674 423.273 180.05 423.115 179.505 422.799C178.961 422.474 178.574 422.009 178.346 421.402L179.374 420.796C179.646 421.648 180.313 422.074 181.376 422.074C181.947 422.074 182.413 421.925 182.773 421.626C183.133 421.328 183.313 420.911 183.313 420.375C183.313 419.839 183.133 419.422 182.773 419.123C182.413 418.816 181.947 418.662 181.376 418.662H181.06L180.573 417.911L182.707 415.026H178.61V413.879H184.143V414.96L182.14 417.661ZM185.464 423.102V422.101L188.718 418.781C189.587 417.911 190.022 417.164 190.022 416.541C190.022 416.023 189.864 415.619 189.548 415.329C189.232 415.039 188.845 414.894 188.388 414.894C187.519 414.894 186.886 415.307 186.491 416.132L185.464 415.526C185.753 414.929 186.153 414.477 186.662 414.169C187.181 413.862 187.752 413.708 188.375 413.708C189.148 413.708 189.82 413.963 190.391 414.472C190.962 414.982 191.247 415.667 191.247 416.528C191.247 417.459 190.698 418.473 189.601 419.571L187.242 421.916H191.419V423.102H185.464ZM191.917 413.879H197.674V414.973L194.315 423.102H193.037L196.37 415.039H191.917V413.879ZM200.786 413.879H201.84V423.102H200.628V415.197L198.665 415.777L198.362 414.723L200.786 413.879Z" fill="#212121"/>
<path d="M362.918 294.842V296.378H360.373V298.922H358.837V296.378H356.293V294.842H358.837V292.297H360.373V294.842H362.918ZM371.196 300.88L368.486 296.152V295.038H369.389C369.922 295.038 370.368 294.922 370.73 294.691C371.091 294.45 371.322 294.119 371.422 293.697H368.486V292.583H371.407C371.317 292.202 371.131 291.886 370.85 291.635C370.569 291.374 370.177 291.243 369.676 291.243H368.486V290.129H375.277V291.243H372.913C373.264 291.625 373.485 292.071 373.575 292.583H375.277V293.697H373.606C373.505 294.44 373.219 295.022 372.747 295.444C372.275 295.856 371.668 296.137 370.925 296.287L373.877 300.88H371.196ZM382.855 290.34H384.36V300.88H382.629V292.192L380.506 292.794L380.084 291.318L382.855 290.34ZM393.275 299.585C392.553 300.579 391.539 301.076 390.234 301.076C388.929 301.076 387.91 300.579 387.177 299.585C386.454 298.591 386.093 297.266 386.093 295.61C386.093 293.953 386.454 292.628 387.177 291.635C387.91 290.641 388.929 290.144 390.234 290.144C391.539 290.144 392.553 290.641 393.275 291.635C394.008 292.628 394.375 293.953 394.375 295.61C394.375 297.266 394.008 298.591 393.275 299.585ZM390.234 299.389C391.017 299.389 391.614 299.063 392.026 298.41C392.437 297.758 392.643 296.824 392.643 295.61C392.643 294.395 392.437 293.462 392.026 292.809C391.614 292.157 391.017 291.83 390.234 291.83C389.461 291.83 388.864 292.157 388.442 292.809C388.03 293.462 387.825 294.395 387.825 295.61C387.825 296.824 388.03 297.758 388.442 298.41C388.864 299.063 389.461 299.389 390.234 299.389ZM402.76 299.585C402.037 300.579 401.023 301.076 399.718 301.076C398.413 301.076 397.394 300.579 396.662 299.585C395.939 298.591 395.577 297.266 395.577 295.61C395.577 293.953 395.939 292.628 396.662 291.635C397.394 290.641 398.413 290.144 399.718 290.144C401.023 290.144 402.037 290.641 402.76 291.635C403.492 292.628 403.859 293.953 403.859 295.61C403.859 297.266 403.492 298.591 402.76 299.585ZM399.718 299.389C400.501 299.389 401.098 299.063 401.51 298.41C401.922 297.758 402.127 296.824 402.127 295.61C402.127 294.395 401.922 293.462 401.51 292.809C401.098 292.157 400.501 291.83 399.718 291.83C398.945 291.83 398.348 292.157 397.926 292.809C397.515 293.462 397.309 294.395 397.309 295.61C397.309 296.824 397.515 297.758 397.926 298.41C398.348 299.063 398.945 299.389 399.718 299.389Z" fill="#00B733"/>
<path d="M360.698 356.012V357.548H358.153V360.092H356.617V357.548H354.072V356.012H356.617V353.467H358.153V356.012H360.698ZM368.976 362.05L366.266 357.322V356.208H367.169C367.701 356.208 368.148 356.092 368.509 355.861C368.871 355.62 369.102 355.289 369.202 354.867H366.266V353.753H369.187C369.097 353.372 368.911 353.056 368.63 352.805C368.349 352.544 367.957 352.413 367.455 352.413H366.266V351.299H373.057V352.413H370.693C371.044 352.795 371.265 353.241 371.355 353.753H373.057V354.867H371.385C371.285 355.61 370.999 356.192 370.527 356.614C370.055 357.026 369.448 357.307 368.705 357.457L371.656 362.05H368.976ZM378.135 362.05V360.695L381.809 356.945C382.702 356.052 383.149 355.279 383.149 354.627C383.149 354.115 382.993 353.718 382.682 353.437C382.381 353.146 381.995 353 381.523 353C380.64 353 379.987 353.437 379.565 354.31L378.105 353.452C378.436 352.749 378.903 352.217 379.505 351.856C380.107 351.495 380.775 351.314 381.508 351.314C382.431 351.314 383.224 351.605 383.887 352.187C384.549 352.769 384.881 353.562 384.881 354.566C384.881 355.64 384.283 356.785 383.089 357.999L380.71 360.378H385.076V362.05H378.135ZM393.276 360.755C392.553 361.749 391.539 362.245 390.234 362.245C388.929 362.245 387.91 361.749 387.177 360.755C386.455 359.761 386.093 358.436 386.093 356.78C386.093 355.123 386.455 353.798 387.177 352.805C387.91 351.811 388.929 351.314 390.234 351.314C391.539 351.314 392.553 351.811 393.276 352.805C394.008 353.798 394.375 355.123 394.375 356.78C394.375 358.436 394.008 359.761 393.276 360.755ZM390.234 360.559C391.017 360.559 391.614 360.233 392.026 359.58C392.437 358.928 392.643 357.994 392.643 356.78C392.643 355.565 392.437 354.632 392.026 353.979C391.614 353.327 391.017 353 390.234 353C389.461 353 388.864 353.327 388.442 353.979C388.031 354.632 387.825 355.565 387.825 356.78C387.825 357.994 388.031 358.928 388.442 359.58C388.864 360.233 389.461 360.559 390.234 360.559ZM402.76 360.755C402.037 361.749 401.023 362.245 399.718 362.245C398.413 362.245 397.394 361.749 396.662 360.755C395.939 359.761 395.578 358.436 395.578 356.78C395.578 355.123 395.939 353.798 396.662 352.805C397.394 351.811 398.413 351.314 399.718 351.314C401.023 351.314 402.037 351.811 402.76 352.805C403.493 353.798 403.859 355.123 403.859 356.78C403.859 358.436 403.493 359.761 402.76 360.755ZM399.718 360.559C400.501 360.559 401.099 360.233 401.51 359.58C401.922 358.928 402.127 357.994 402.127 356.78C402.127 355.565 401.922 354.632 401.51 353.979C401.099 353.327 400.501 353 399.718 353C398.945 353 398.348 353.327 397.926 353.979C397.515 354.632 397.309 355.565 397.309 356.78C397.309 357.994 397.515 358.928 397.926 359.58C398.348 360.233 398.945 360.559 399.718 360.559Z" fill="#00B733"/>
<path d="M362.918 417.182V418.718H360.373V421.263H358.837V418.718H356.292V417.182H358.837V414.637H360.373V417.182H362.918ZM371.196 423.22L368.486 418.492V417.378H369.389C369.921 417.378 370.368 417.262 370.729 417.031C371.091 416.791 371.322 416.459 371.422 416.038H368.486V414.923H371.407C371.317 414.542 371.131 414.226 370.85 413.975C370.569 413.714 370.177 413.583 369.675 413.583H368.486V412.469H375.277V413.583H372.913C373.264 413.965 373.485 414.412 373.575 414.923H375.277V416.038H373.605C373.505 416.781 373.219 417.363 372.747 417.784C372.275 418.196 371.668 418.477 370.925 418.628L373.876 423.22H371.196ZM382.855 412.68H384.36V423.22H382.629V414.532L380.506 415.134L380.084 413.659L382.855 412.68ZM393.275 421.925C392.552 422.919 391.539 423.416 390.234 423.416C388.929 423.416 387.91 422.919 387.177 421.925C386.454 420.931 386.093 419.606 386.093 417.95C386.093 416.294 386.454 414.969 387.177 413.975C387.91 412.981 388.929 412.484 390.234 412.484C391.539 412.484 392.552 412.981 393.275 413.975C394.008 414.969 394.374 416.294 394.374 417.95C394.374 419.606 394.008 420.931 393.275 421.925ZM390.234 421.729C391.017 421.729 391.614 421.403 392.025 420.751C392.437 420.098 392.643 419.165 392.643 417.95C392.643 416.735 392.437 415.802 392.025 415.149C391.614 414.497 391.017 414.171 390.234 414.171C389.461 414.171 388.863 414.497 388.442 415.149C388.03 415.802 387.825 416.735 387.825 417.95C387.825 419.165 388.03 420.098 388.442 420.751C388.863 421.403 389.461 421.729 390.234 421.729ZM402.76 421.925C402.037 422.919 401.023 423.416 399.718 423.416C398.413 423.416 397.394 422.919 396.661 421.925C395.939 420.931 395.577 419.606 395.577 417.95C395.577 416.294 395.939 414.969 396.661 413.975C397.394 412.981 398.413 412.484 399.718 412.484C401.023 412.484 402.037 412.981 402.76 413.975C403.492 414.969 403.859 416.294 403.859 417.95C403.859 419.606 403.492 420.931 402.76 421.925ZM399.718 421.729C400.501 421.729 401.098 421.403 401.51 420.751C401.921 420.098 402.127 419.165 402.127 417.95C402.127 416.735 401.921 415.802 401.51 415.149C401.098 414.497 400.501 414.171 399.718 414.171C398.945 414.171 398.348 414.497 397.926 415.149C397.515 415.802 397.309 416.735 397.309 417.95C397.309 419.165 397.515 420.098 397.926 420.751C398.348 421.403 398.945 421.729 399.718 421.729Z" fill="#00B733"/>
<path d="M151.631 334.875L417.016 334.875" stroke="#F4F6FA" stroke-width="0.94108" stroke-linecap="round"/>
<path d="M151.631 396.045L417.016 396.045" stroke="#F4F6FA" stroke-width="0.94108" stroke-linecap="round"/>
<g clip-path="url(#clip2_3812_80)">
<path d="M130.509 430.111H133.123V421.077H122.144V422.583H129.568C130.087 422.583 130.509 423.004 130.509 423.524V430.111ZM130.509 431.617V433.876C130.509 434.291 130.038 434.628 129.456 434.628H116.923C116.785 434.629 116.648 434.61 116.521 434.572C116.393 434.535 116.277 434.48 116.179 434.41C116.081 434.34 116.004 434.256 115.951 434.165C115.898 434.073 115.87 433.975 115.87 433.876L115.873 423.336C115.873 422.92 116.344 422.583 116.926 422.583H120.053V420.325C120.053 420.125 120.163 419.933 120.359 419.792C120.555 419.651 120.821 419.572 121.098 419.572H133.645C133.923 419.572 134.189 419.651 134.385 419.792C134.581 419.933 134.691 420.125 134.691 420.325V430.864C134.691 431.064 134.581 431.255 134.385 431.397C134.189 431.538 133.923 431.617 133.645 431.617H130.509ZM117.439 424.089V433.123H128.94V424.089H117.439Z" fill="#606060"/>
<path d="M120.73 428.656C120.691 428.607 120.655 428.538 120.623 428.447C120.591 428.356 120.575 428.259 120.575 428.156C120.575 427.963 120.62 427.826 120.71 427.748C120.807 427.663 120.923 427.621 121.059 427.621H125.125C125.157 427.675 125.19 427.748 125.222 427.839C125.261 427.929 125.28 428.026 125.28 428.129C125.28 428.317 125.232 428.453 125.135 428.538C125.044 428.616 124.931 428.656 124.796 428.656H124.205C124.173 428.97 124.05 429.246 123.837 429.482C123.624 429.712 123.318 429.878 122.918 429.981L124.321 430.87C124.321 431.143 124.247 431.367 124.099 431.542C123.957 431.718 123.741 431.805 123.45 431.805C123.282 431.805 123.127 431.763 122.985 431.678C122.85 431.594 122.718 431.497 122.588 431.388L120.972 429.999C120.926 429.908 120.904 429.802 120.904 429.681C120.904 429.439 121.007 429.258 121.214 429.137H121.785C121.991 429.137 122.153 429.094 122.269 429.01C122.392 428.919 122.479 428.801 122.53 428.656H120.73ZM120.73 427.194C120.691 427.14 120.655 427.067 120.623 426.976C120.591 426.885 120.575 426.789 120.575 426.686C120.575 426.498 120.62 426.365 120.71 426.286C120.807 426.202 120.923 426.159 121.059 426.159H125.125C125.157 426.208 125.19 426.28 125.222 426.377C125.261 426.468 125.28 426.562 125.28 426.658C125.28 426.852 125.232 426.991 125.135 427.076C125.044 427.155 124.931 427.194 124.796 427.194H120.73Z" fill="#606060"/>
</g>
<g clip-path="url(#clip3_3812_80)">
<path d="M130.509 368.941H133.123V359.907H122.144V361.413H129.568C130.087 361.413 130.509 361.834 130.509 362.354V368.941ZM130.509 370.447V372.706C130.509 373.121 130.038 373.458 129.456 373.458H116.923C116.785 373.459 116.648 373.44 116.521 373.402C116.393 373.365 116.277 373.31 116.179 373.24C116.081 373.17 116.004 373.086 115.951 372.995C115.898 372.903 115.87 372.805 115.87 372.706L115.873 362.166C115.873 361.75 116.344 361.413 116.926 361.413H120.053V359.155C120.053 358.955 120.163 358.763 120.359 358.622C120.555 358.481 120.821 358.402 121.098 358.402H133.645C133.923 358.402 134.189 358.481 134.385 358.622C134.581 358.763 134.691 358.955 134.691 359.155V369.694C134.691 369.894 134.581 370.085 134.385 370.227C134.189 370.368 133.923 370.447 133.645 370.447H130.509ZM117.439 362.919V371.953H128.94V362.919H117.439Z" fill="#606060"/>
<path d="M120.73 367.485C120.691 367.437 120.655 367.367 120.623 367.277C120.591 367.186 120.575 367.089 120.575 366.986C120.575 366.792 120.62 366.656 120.71 366.578C120.807 366.493 120.923 366.451 121.059 366.451H125.125C125.157 366.505 125.19 366.578 125.222 366.668C125.261 366.759 125.28 366.856 125.28 366.959C125.28 367.146 125.232 367.283 125.135 367.367C125.044 367.446 124.931 367.485 124.796 367.485H124.205C124.173 367.8 124.05 368.075 123.837 368.311C123.624 368.541 123.318 368.708 122.918 368.811L124.321 369.7C124.321 369.973 124.247 370.197 124.099 370.372C123.957 370.548 123.741 370.635 123.45 370.635C123.282 370.635 123.127 370.593 122.985 370.508C122.85 370.423 122.718 370.327 122.588 370.218L120.972 368.829C120.926 368.738 120.904 368.632 120.904 368.511C120.904 368.269 121.007 368.088 121.214 367.966H121.785C121.991 367.966 122.153 367.924 122.269 367.839C122.392 367.749 122.479 367.631 122.53 367.485H120.73ZM120.73 366.024C120.691 365.969 120.655 365.897 120.623 365.806C120.591 365.715 120.575 365.618 120.575 365.516C120.575 365.328 120.62 365.195 120.71 365.116C120.807 365.031 120.923 364.989 121.059 364.989H125.125C125.157 365.037 125.19 365.11 125.222 365.207C125.261 365.298 125.28 365.391 125.28 365.488C125.28 365.682 125.232 365.821 125.135 365.906C125.044 365.985 124.931 366.024 124.796 366.024H120.73Z" fill="#606060"/>
</g>
<g clip-path="url(#clip4_3812_80)">
<path d="M130.509 307.771H133.123V298.737H122.144V300.243H129.568C130.087 300.243 130.509 300.664 130.509 301.184V307.771ZM130.509 309.277V311.535C130.509 311.951 130.038 312.288 129.456 312.288H116.923C116.785 312.289 116.648 312.27 116.521 312.232C116.393 312.195 116.277 312.139 116.179 312.069C116.081 311.999 116.004 311.916 115.951 311.825C115.898 311.733 115.87 311.635 115.87 311.535L115.873 300.996C115.873 300.58 116.344 300.243 116.926 300.243H120.053V297.984C120.053 297.785 120.163 297.593 120.359 297.452C120.555 297.311 120.821 297.232 121.098 297.232H133.645C133.923 297.232 134.189 297.311 134.385 297.452C134.581 297.593 134.691 297.785 134.691 297.984V308.524C134.691 308.724 134.581 308.915 134.385 309.056C134.189 309.198 133.923 309.277 133.645 309.277H130.509ZM117.439 301.749V310.783H128.94V301.749H117.439Z" fill="#606060"/>
<path d="M120.73 306.315C120.691 306.267 120.655 306.197 120.623 306.106C120.591 306.016 120.575 305.919 120.575 305.816C120.575 305.622 120.62 305.486 120.71 305.407C120.807 305.323 120.923 305.28 121.059 305.28H125.125C125.157 305.335 125.19 305.407 125.222 305.498C125.261 305.589 125.28 305.686 125.28 305.789C125.28 305.976 125.232 306.112 125.135 306.197C125.044 306.276 124.931 306.315 124.796 306.315H124.205C124.173 306.63 124.05 306.905 123.837 307.141C123.624 307.371 123.318 307.538 122.918 307.64L124.321 308.53C124.321 308.802 124.247 309.026 124.099 309.202C123.957 309.377 123.741 309.465 123.45 309.465C123.282 309.465 123.127 309.423 122.985 309.338C122.85 309.253 122.718 309.156 122.588 309.047L120.972 307.659C120.926 307.568 120.904 307.462 120.904 307.341C120.904 307.099 121.007 306.917 121.214 306.796H121.785C121.991 306.796 122.153 306.754 122.269 306.669C122.392 306.578 122.479 306.46 122.53 306.315H120.73ZM120.73 304.854C120.691 304.799 120.655 304.726 120.623 304.636C120.591 304.545 120.575 304.448 120.575 304.345C120.575 304.158 120.62 304.024 120.71 303.946C120.807 303.861 120.923 303.819 121.059 303.819H125.125C125.157 303.867 125.19 303.94 125.222 304.037C125.261 304.127 125.28 304.221 125.28 304.318C125.28 304.512 125.232 304.651 125.135 304.736C125.044 304.814 124.931 304.854 124.796 304.854H120.73Z" fill="#606060"/>
</g>
<path d="M256.09 103.369L256.09 144.777" stroke="#DDDDDD" stroke-width="0.94108"/>
<g clip-path="url(#clip5_3812_80)">
<path d="M101.592 45.9631H113.046V47.8452H101.592L106.639 52.893L105.309 54.2236L97.9893 46.9042L105.309 39.5847L106.639 40.9154L101.592 45.9631Z" fill="#606060"/>
</g>
<path d="M145.303 137.461V138.454H142.966V145.366H141.927V138.454H139.6V137.461H145.303ZM149.981 144.654C149.401 145.226 148.697 145.513 147.869 145.513C147.041 145.513 146.337 145.226 145.757 144.654C145.185 144.082 144.899 143.378 144.899 142.542C144.899 141.707 145.185 141.003 145.757 140.431C146.337 139.859 147.041 139.572 147.869 139.572C148.697 139.572 149.401 139.859 149.981 140.431C150.561 141.003 150.851 141.707 150.851 142.542C150.851 143.378 150.561 144.082 149.981 144.654ZM147.869 144.553C148.434 144.553 148.908 144.361 149.292 143.977C149.676 143.593 149.868 143.115 149.868 142.542C149.868 141.97 149.676 141.492 149.292 141.108C148.908 140.724 148.434 140.532 147.869 140.532C147.312 140.532 146.842 140.724 146.458 141.108C146.074 141.492 145.882 141.97 145.882 142.542C145.882 143.115 146.074 143.593 146.458 143.977C146.842 144.361 147.312 144.553 147.869 144.553ZM154.959 140.668H153.457V143.728C153.457 144.007 153.51 144.206 153.615 144.327C153.728 144.44 153.898 144.5 154.123 144.507C154.349 144.507 154.628 144.5 154.959 144.485V145.366C154.101 145.479 153.472 145.411 153.073 145.162C152.674 144.906 152.475 144.428 152.475 143.728V140.668H151.357V139.719H152.475V138.432L153.457 138.138V139.719H154.959V140.668ZM160.511 139.719H161.493V145.366H160.511V144.395C160.021 145.14 159.31 145.513 158.376 145.513C157.586 145.513 156.912 145.226 156.355 144.654C155.798 144.075 155.519 143.371 155.519 142.542C155.519 141.714 155.798 141.014 156.355 140.442C156.912 139.862 157.586 139.572 158.376 139.572C159.31 139.572 160.021 139.945 160.511 140.69V139.719ZM158.501 144.564C159.073 144.564 159.551 144.372 159.935 143.988C160.319 143.596 160.511 143.115 160.511 142.542C160.511 141.97 160.319 141.492 159.935 141.108C159.551 140.717 159.073 140.521 158.501 140.521C157.936 140.521 157.462 140.717 157.078 141.108C156.694 141.492 156.502 141.97 156.502 142.542C156.502 143.115 156.694 143.596 157.078 143.988C157.462 144.372 157.936 144.564 158.501 144.564ZM162.982 145.366V137.122H163.964V145.366H162.982ZM173.594 145.366L172.95 143.593H169.393L168.749 145.366H167.631L170.579 137.461H171.765L174.712 145.366H173.594ZM169.755 142.61H172.589L171.166 138.714L169.755 142.61ZM181.641 139.572C182.274 139.572 182.786 139.779 183.177 140.194C183.569 140.6 183.764 141.153 183.764 141.854V145.366H182.782V141.887C182.782 141.451 182.669 141.112 182.443 140.871C182.217 140.63 181.916 140.51 181.54 140.51C181.118 140.51 180.779 140.653 180.523 140.939C180.275 141.217 180.151 141.647 180.151 142.226V145.366H179.168V141.887C179.168 141.451 179.059 141.112 178.841 140.871C178.63 140.63 178.34 140.51 177.971 140.51C177.557 140.51 177.211 140.653 176.932 140.939C176.661 141.225 176.526 141.654 176.526 142.226V145.366H175.543V139.719H176.526V140.476C176.91 139.874 177.47 139.572 178.208 139.572C178.969 139.572 179.522 139.892 179.868 140.532C180.26 139.892 180.851 139.572 181.641 139.572ZM189.892 144.654C189.313 145.226 188.609 145.513 187.781 145.513C186.952 145.513 186.248 145.226 185.669 144.654C185.097 144.082 184.81 143.378 184.81 142.542C184.81 141.707 185.097 141.003 185.669 140.431C186.248 139.859 186.952 139.572 187.781 139.572C188.609 139.572 189.313 139.859 189.892 140.431C190.472 141.003 190.762 141.707 190.762 142.542C190.762 143.378 190.472 144.082 189.892 144.654ZM187.781 144.553C188.345 144.553 188.819 144.361 189.203 143.977C189.587 143.593 189.779 143.115 189.779 142.542C189.779 141.97 189.587 141.492 189.203 141.108C188.819 140.724 188.345 140.532 187.781 140.532C187.223 140.532 186.753 140.724 186.369 141.108C185.985 141.492 185.793 141.97 185.793 142.542C185.793 143.115 185.985 143.593 186.369 143.977C186.753 144.361 187.223 144.553 187.781 144.553ZM195.816 139.719H196.799V145.366H195.816V144.553C195.417 145.193 194.807 145.513 193.987 145.513C193.324 145.513 192.793 145.305 192.394 144.891C191.995 144.47 191.796 143.901 191.796 143.186V139.719H192.778V143.13C192.778 143.589 192.903 143.947 193.151 144.203C193.399 144.451 193.742 144.575 194.179 144.575C194.668 144.575 195.063 144.425 195.364 144.123C195.666 143.815 195.816 143.344 195.816 142.712V139.719ZM201.106 139.572C201.769 139.572 202.3 139.783 202.699 140.205C203.098 140.619 203.297 141.184 203.297 141.899V145.366H202.315V141.955C202.315 141.496 202.19 141.142 201.942 140.894C201.694 140.638 201.351 140.51 200.914 140.51C200.425 140.51 200.03 140.664 199.729 140.973C199.427 141.274 199.277 141.741 199.277 142.373V145.366H198.294V139.719H199.277V140.532C199.676 139.892 200.286 139.572 201.106 139.572ZM207.74 140.668H206.238V143.728C206.238 144.007 206.291 144.206 206.397 144.327C206.51 144.44 206.679 144.5 206.905 144.507C207.131 144.507 207.409 144.5 207.74 144.485V145.366C206.882 145.479 206.254 145.411 205.855 145.162C205.456 144.906 205.256 144.428 205.256 143.728V140.668H204.138V139.719H205.256V138.432L206.238 138.138V139.719H207.74V140.668Z" fill="white"/>
<path d="M298.699 137.461V138.454H296.362V145.366H295.323V138.454H292.996V137.461H298.699ZM303.377 144.654C302.797 145.226 302.093 145.513 301.265 145.513C300.437 145.513 299.733 145.226 299.153 144.654C298.581 144.082 298.295 143.378 298.295 142.542C298.295 141.707 298.581 141.003 299.153 140.431C299.733 139.859 300.437 139.572 301.265 139.572C302.093 139.572 302.797 139.859 303.377 140.431C303.957 141.003 304.246 141.707 304.246 142.542C304.246 143.378 303.957 144.082 303.377 144.654ZM301.265 144.553C301.83 144.553 302.304 144.361 302.688 143.977C303.072 143.593 303.264 143.115 303.264 142.542C303.264 141.97 303.072 141.492 302.688 141.108C302.304 140.724 301.83 140.532 301.265 140.532C300.708 140.532 300.237 140.724 299.854 141.108C299.47 141.492 299.278 141.97 299.278 142.542C299.278 143.115 299.47 143.593 299.854 143.977C300.237 144.361 300.708 144.553 301.265 144.553ZM308.355 140.668H306.853V143.728C306.853 144.007 306.906 144.206 307.011 144.327C307.124 144.44 307.294 144.5 307.519 144.507C307.745 144.507 308.024 144.5 308.355 144.485V145.366C307.497 145.479 306.868 145.411 306.469 145.162C306.07 144.906 305.871 144.428 305.871 143.728V140.668H304.753V139.719H305.871V138.432L306.853 138.138V139.719H308.355V140.668ZM313.907 139.719H314.889V145.366H313.907V144.395C313.417 145.14 312.706 145.513 311.772 145.513C310.982 145.513 310.308 145.226 309.751 144.654C309.194 144.075 308.915 143.371 308.915 142.542C308.915 141.714 309.194 141.014 309.751 140.442C310.308 139.862 310.982 139.572 311.772 139.572C312.706 139.572 313.417 139.945 313.907 140.69V139.719ZM311.897 144.564C312.469 144.564 312.947 144.372 313.331 143.988C313.715 143.596 313.907 143.115 313.907 142.542C313.907 141.97 313.715 141.492 313.331 141.108C312.947 140.717 312.469 140.521 311.897 140.521C311.332 140.521 310.858 140.717 310.474 141.108C310.09 141.492 309.898 141.97 309.898 142.542C309.898 143.115 310.09 143.596 310.474 143.988C310.858 144.372 311.332 144.564 311.897 144.564ZM316.378 145.366V137.122H317.36V145.366H316.378ZM326.843 137.461V138.454H324.506V145.366H323.467V138.454H321.14V137.461H326.843ZM327.992 140.668C328.315 139.968 328.903 139.618 329.753 139.618V140.645C329.271 140.623 328.857 140.751 328.511 141.029C328.165 141.308 327.992 141.756 327.992 142.373V145.366H327.009V139.719H327.992V140.668ZM335.081 139.719H336.064V145.366H335.081V144.395C334.592 145.14 333.88 145.513 332.947 145.513C332.156 145.513 331.482 145.226 330.925 144.654C330.368 144.075 330.09 143.371 330.09 142.542C330.09 141.714 330.368 141.014 330.925 140.442C331.482 139.862 332.156 139.572 332.947 139.572C333.88 139.572 334.592 139.945 335.081 140.69V139.719ZM333.071 144.564C333.643 144.564 334.121 144.372 334.505 143.988C334.889 143.596 335.081 143.115 335.081 142.542C335.081 141.97 334.889 141.492 334.505 141.108C334.121 140.717 333.643 140.521 333.071 140.521C332.506 140.521 332.032 140.717 331.648 141.108C331.264 141.492 331.072 141.97 331.072 142.542C331.072 143.115 331.264 143.596 331.648 143.988C332.032 144.372 332.506 144.564 333.071 144.564ZM340.364 139.572C341.027 139.572 341.557 139.783 341.956 140.205C342.355 140.619 342.555 141.184 342.555 141.899V145.366H341.572V141.955C341.572 141.496 341.448 141.142 341.2 140.894C340.951 140.638 340.609 140.51 340.172 140.51C339.683 140.51 339.288 140.664 338.986 140.973C338.685 141.274 338.535 141.741 338.535 142.373V145.366H337.552V139.719H338.535V140.532C338.934 139.892 339.543 139.572 340.364 139.572ZM344.773 141.244C344.773 141.462 344.883 141.639 345.101 141.775C345.319 141.903 345.583 142.008 345.891 142.091C346.2 142.166 346.509 142.256 346.818 142.362C347.126 142.46 347.39 142.633 347.608 142.881C347.826 143.122 347.936 143.435 347.936 143.819C347.936 144.331 347.736 144.741 347.337 145.05C346.945 145.358 346.441 145.513 345.824 145.513C345.274 145.513 344.804 145.392 344.412 145.151C344.021 144.91 343.742 144.59 343.576 144.191L344.423 143.706C344.514 143.977 344.683 144.191 344.932 144.349C345.18 144.507 345.477 144.587 345.824 144.587C346.147 144.587 346.415 144.526 346.626 144.406C346.836 144.278 346.942 144.082 346.942 143.819C346.942 143.6 346.833 143.427 346.614 143.299C346.396 143.164 346.132 143.058 345.824 142.983C345.515 142.9 345.206 142.806 344.898 142.701C344.589 142.595 344.326 142.422 344.107 142.181C343.889 141.94 343.78 141.632 343.78 141.255C343.78 140.766 343.968 140.363 344.344 140.047C344.728 139.731 345.206 139.572 345.779 139.572C346.238 139.572 346.644 139.678 346.998 139.889C347.36 140.092 347.631 140.378 347.811 140.747L346.987 141.21C346.784 140.728 346.381 140.487 345.779 140.487C345.5 140.487 345.263 140.555 345.067 140.69C344.871 140.818 344.773 141.003 344.773 141.244ZM353.62 139.719H354.602V145.366H353.62V144.395C353.13 145.14 352.419 145.513 351.485 145.513C350.695 145.513 350.021 145.226 349.464 144.654C348.907 144.075 348.628 143.371 348.628 142.542C348.628 141.714 348.907 141.014 349.464 140.442C350.021 139.862 350.695 139.572 351.485 139.572C352.419 139.572 353.13 139.945 353.62 140.69V139.719ZM351.61 144.564C352.182 144.564 352.66 144.372 353.044 143.988C353.428 143.596 353.62 143.115 353.62 142.542C353.62 141.97 353.428 141.492 353.044 141.108C352.66 140.717 352.182 140.521 351.61 140.521C351.045 140.521 350.571 140.717 350.187 141.108C349.803 141.492 349.611 141.97 349.611 142.542C349.611 143.115 349.803 143.596 350.187 143.988C350.571 144.372 351.045 144.564 351.61 144.564ZM358.745 145.513C357.894 145.513 357.186 145.23 356.621 144.666C356.057 144.093 355.774 143.386 355.774 142.542C355.774 141.699 356.057 140.995 356.621 140.431C357.186 139.859 357.894 139.572 358.745 139.572C359.302 139.572 359.802 139.708 360.247 139.979C360.691 140.242 361.022 140.6 361.24 141.052L360.416 141.526C360.273 141.225 360.051 140.984 359.75 140.803C359.456 140.623 359.121 140.532 358.745 140.532C358.18 140.532 357.706 140.724 357.322 141.108C356.945 141.492 356.757 141.97 356.757 142.542C356.757 143.107 356.945 143.581 357.322 143.965C357.706 144.349 358.18 144.541 358.745 144.541C359.121 144.541 359.46 144.455 359.761 144.282C360.062 144.101 360.292 143.86 360.45 143.559L361.285 144.044C361.045 144.489 360.698 144.846 360.247 145.117C359.795 145.381 359.294 145.513 358.745 145.513ZM365.327 140.668H363.825V143.728C363.825 144.007 363.878 144.206 363.983 144.327C364.096 144.44 364.266 144.5 364.492 144.507C364.717 144.507 364.996 144.5 365.327 144.485V145.366C364.469 145.479 363.84 145.411 363.441 145.162C363.042 144.906 362.843 144.428 362.843 143.728V140.668H361.725V139.719H362.843V138.432L363.825 138.138V139.719H365.327V140.668ZM366.987 138.692C366.799 138.692 366.641 138.628 366.513 138.5C366.385 138.372 366.321 138.217 366.321 138.037C366.321 137.856 366.385 137.702 366.513 137.574C366.641 137.438 366.799 137.37 366.987 137.37C367.168 137.37 367.322 137.438 367.45 137.574C367.578 137.702 367.642 137.856 367.642 138.037C367.642 138.217 367.578 138.372 367.45 138.5C367.322 138.628 367.168 138.692 366.987 138.692ZM366.49 145.366V139.719H367.473V145.366H366.49ZM373.737 144.654C373.158 145.226 372.454 145.513 371.626 145.513C370.797 145.513 370.093 145.226 369.514 144.654C368.942 144.082 368.656 143.378 368.656 142.542C368.656 141.707 368.942 141.003 369.514 140.431C370.093 139.859 370.797 139.572 371.626 139.572C372.454 139.572 373.158 139.859 373.737 140.431C374.317 141.003 374.607 141.707 374.607 142.542C374.607 143.378 374.317 144.082 373.737 144.654ZM371.626 144.553C372.19 144.553 372.665 144.361 373.048 143.977C373.432 143.593 373.624 143.115 373.624 142.542C373.624 141.97 373.432 141.492 373.048 141.108C372.665 140.724 372.19 140.532 371.626 140.532C371.068 140.532 370.598 140.724 370.214 141.108C369.83 141.492 369.638 141.97 369.638 142.542C369.638 143.115 369.83 143.593 370.214 143.977C370.598 144.361 371.068 144.553 371.626 144.553ZM378.577 139.572C379.24 139.572 379.77 139.783 380.169 140.205C380.568 140.619 380.768 141.184 380.768 141.899V145.366H379.785V141.955C379.785 141.496 379.661 141.142 379.413 140.894C379.164 140.638 378.822 140.51 378.385 140.51C377.896 140.51 377.5 140.664 377.199 140.973C376.898 141.274 376.748 141.741 376.748 142.373V145.366H375.765V139.719H376.748V140.532C377.147 139.892 377.756 139.572 378.577 139.572Z" fill="white"/>
<path d="M141.882 124.369L139.392 120.021V119.442H139.681C140.384 119.442 140.92 119.341 141.289 119.139C141.667 118.937 141.886 118.572 141.948 118.045H139.392V117.202H141.934C141.847 116.71 141.614 116.354 141.236 116.135C140.867 115.915 140.349 115.805 139.681 115.805H139.392V114.962H144.846V115.805H142.356C142.778 116.148 143.028 116.613 143.107 117.202H144.846V118.045H143.133C143.072 118.686 142.826 119.187 142.396 119.547C141.974 119.898 141.412 120.122 140.709 120.219L143.226 124.369H141.882ZM153.634 108.559H155.892V124.369H153.295V111.337L150.11 112.241L149.478 110.027L153.634 108.559ZM158.288 124.369V122.336L163.799 116.713C165.139 115.372 165.809 114.213 165.809 113.234C165.809 112.466 165.576 111.872 165.109 111.45C164.657 111.013 164.077 110.795 163.37 110.795C162.045 110.795 161.066 111.45 160.434 112.76L158.243 111.473C158.74 110.419 159.44 109.621 160.343 109.078C161.247 108.536 162.248 108.265 163.347 108.265C164.732 108.265 165.922 108.702 166.916 109.575C167.91 110.449 168.406 111.638 168.406 113.144C168.406 114.755 167.511 116.472 165.719 118.294L162.15 121.862H168.7V124.369H158.288ZM169.44 108.559H179.491V110.818L173.935 124.369H171.202L176.668 111.043H169.44V108.559ZM180.653 124.369V122.336L186.164 116.713C187.504 115.372 188.174 114.213 188.174 113.234C188.174 112.466 187.941 111.872 187.474 111.45C187.023 111.013 186.443 110.795 185.735 110.795C184.41 110.795 183.431 111.45 182.799 112.76L180.608 111.473C181.105 110.419 181.805 109.621 182.709 109.078C183.612 108.536 184.613 108.265 185.713 108.265C187.098 108.265 188.287 108.702 189.281 109.575C190.275 110.449 190.772 111.638 190.772 113.144C190.772 114.755 189.876 116.472 188.084 118.294L184.516 121.862H191.065V124.369H180.653ZM195.996 124.143C195.665 124.475 195.266 124.64 194.799 124.64C194.332 124.64 193.933 124.475 193.602 124.143C193.27 123.812 193.105 123.413 193.105 122.946C193.105 122.479 193.263 122.08 193.579 121.749C193.91 121.418 194.317 121.252 194.799 121.252C195.266 121.252 195.665 121.418 195.996 121.749C196.327 122.08 196.493 122.479 196.493 122.946C196.493 123.413 196.327 123.812 195.996 124.143ZM208.658 122.427C207.574 123.917 206.053 124.663 204.095 124.663C202.138 124.663 200.61 123.917 199.51 122.427C198.426 120.936 197.884 118.949 197.884 116.464C197.884 113.98 198.426 111.992 199.51 110.501C200.61 109.011 202.138 108.265 204.095 108.265C206.053 108.265 207.574 109.011 208.658 110.501C209.757 111.992 210.307 113.98 210.307 116.464C210.307 118.949 209.757 120.936 208.658 122.427ZM204.095 122.133C205.27 122.133 206.166 121.644 206.783 120.665C207.4 119.686 207.709 118.286 207.709 116.464C207.709 114.642 207.4 113.242 206.783 112.263C206.166 111.284 205.27 110.795 204.095 110.795C202.936 110.795 202.04 111.284 201.408 112.263C200.79 113.242 200.482 114.642 200.482 116.464C200.482 118.286 200.79 119.686 201.408 120.665C202.04 121.644 202.936 122.133 204.095 122.133Z" fill="white"/>
<path d="M326.112 124.369V122.336L331.623 116.713C332.963 115.372 333.633 114.213 333.633 113.234C333.633 112.466 333.4 111.872 332.933 111.45C332.481 111.013 331.902 110.795 331.194 110.795C329.869 110.795 328.89 111.45 328.258 112.76L326.067 111.473C326.564 110.419 327.264 109.621 328.167 109.078C329.071 108.536 330.072 108.265 331.171 108.265C332.557 108.265 333.746 108.702 334.74 109.575C335.734 110.449 336.231 111.638 336.231 113.144C336.231 114.755 335.335 116.472 333.543 118.294L329.974 121.862H336.524V124.369H326.112ZM337.264 108.559H347.315V110.818L341.759 124.369H339.026L344.492 111.043H337.264V108.559Z" fill="white"/>
</g>
<g filter="url(#filter0_d_3812_80)">
<path d="M54 200.013H458V252.997H54V200.013Z" fill="white"/>
</g>
<path d="M187.507 213.432L187.507 241.359" stroke="#DDDDDD" stroke-width="1.16749"/>
<path d="M337.618 213.432L337.618 241.359" stroke="#DDDDDD" stroke-width="1.16749"/>
<path d="M103.006 233.3C101.285 233.3 99.8573 232.733 98.7241 231.6C97.5908 230.456 97.0242 229.044 97.0242 227.366C97.0242 225.688 97.5908 224.283 98.7241 223.149C99.8573 222.005 101.285 221.433 103.006 221.433C104.042 221.433 104.995 221.678 105.867 222.169C106.749 222.659 107.436 223.324 107.926 224.163L106.292 225.111C105.987 224.544 105.54 224.097 104.952 223.77C104.374 223.433 103.726 223.264 103.006 223.264C101.786 223.264 100.794 223.651 100.032 224.424C99.2798 225.198 98.9039 226.179 98.9039 227.366C98.9039 228.554 99.2798 229.535 100.032 230.308C100.794 231.082 101.786 231.469 103.006 231.469C103.726 231.469 104.379 231.306 104.968 230.979C105.556 230.641 105.998 230.189 106.292 229.622L107.926 230.554C107.447 231.393 106.766 232.063 105.883 232.564C105.011 233.054 104.053 233.3 103.006 233.3ZM115.83 224.915H117.595V233.087H115.83V231.91C115.165 232.836 114.212 233.3 112.97 233.3C111.847 233.3 110.888 232.886 110.093 232.057C109.298 231.218 108.9 230.199 108.9 229.001C108.9 227.791 109.298 226.773 110.093 225.944C110.888 225.116 111.847 224.702 112.97 224.702C114.212 224.702 115.165 225.16 115.83 226.075V224.915ZM111.401 230.881C111.891 231.371 112.507 231.616 113.248 231.616C113.989 231.616 114.604 231.371 115.095 230.881C115.585 230.379 115.83 229.753 115.83 229.001C115.83 228.249 115.585 227.628 115.095 227.138C114.604 226.636 113.989 226.386 113.248 226.386C112.507 226.386 111.891 226.636 111.401 227.138C110.91 227.628 110.665 228.249 110.665 229.001C110.665 229.753 110.91 230.379 111.401 230.881ZM121.19 227.17C121.19 227.443 121.338 227.661 121.632 227.824C121.937 227.977 122.302 228.113 122.727 228.233C123.163 228.342 123.599 228.472 124.034 228.625C124.47 228.777 124.835 229.039 125.13 229.409C125.435 229.769 125.587 230.227 125.587 230.782C125.587 231.567 125.282 232.183 124.672 232.629C124.073 233.076 123.315 233.3 122.4 233.3C121.594 233.3 120.902 233.131 120.324 232.793C119.747 232.455 119.327 231.987 119.066 231.387L120.586 230.505C120.869 231.289 121.474 231.681 122.4 231.681C123.326 231.681 123.789 231.376 123.789 230.766C123.789 230.505 123.637 230.292 123.332 230.129C123.037 229.965 122.672 229.829 122.237 229.72C121.812 229.6 121.381 229.464 120.945 229.311C120.509 229.159 120.139 228.908 119.834 228.56C119.54 228.2 119.393 227.748 119.393 227.203C119.393 226.451 119.676 225.846 120.242 225.389C120.82 224.931 121.534 224.702 122.384 224.702C123.059 224.702 123.659 224.855 124.182 225.16C124.715 225.454 125.124 225.868 125.407 226.402L123.92 227.236C123.637 226.615 123.125 226.304 122.384 226.304C122.046 226.304 121.763 226.38 121.534 226.533C121.305 226.674 121.19 226.887 121.19 227.17ZM131.342 224.702C132.279 224.702 133.036 225.002 133.614 225.601C134.191 226.2 134.48 227.023 134.48 228.069V233.087H132.715V228.249C132.715 227.639 132.551 227.17 132.225 226.843C131.898 226.516 131.451 226.353 130.884 226.353C130.263 226.353 129.762 226.549 129.381 226.941C128.999 227.323 128.808 227.911 128.808 228.707V233.087H127.043V221.646H128.808V225.961C129.342 225.122 130.187 224.702 131.342 224.702Z" fill="#959595"/>
<path d="M222.278 234.596L218.496 227.998V226.442H219.757C220.499 226.442 221.123 226.281 221.627 225.959C222.131 225.623 222.453 225.161 222.594 224.572H218.496V223.017H222.573C222.446 222.485 222.187 222.043 221.795 221.693C221.403 221.329 220.856 221.147 220.156 221.147H218.496V219.592H227.973V221.147H224.674C225.164 221.679 225.473 222.302 225.599 223.017H227.973V224.572H225.641C225.501 225.609 225.101 226.421 224.443 227.01C223.784 227.584 222.937 227.976 221.9 228.187L226.019 234.596H222.278ZM238.549 219.886H240.651V234.596H238.234V222.471L235.271 223.311L234.683 221.252L238.549 219.886ZM242.88 234.596V232.705L248.008 227.472C249.255 226.225 249.878 225.146 249.878 224.236C249.878 223.521 249.661 222.968 249.227 222.576C248.806 222.169 248.267 221.966 247.608 221.966C246.376 221.966 245.465 222.576 244.876 223.795L242.838 222.597C243.3 221.616 243.952 220.873 244.792 220.369C245.633 219.865 246.565 219.613 247.587 219.613C248.876 219.613 249.983 220.019 250.908 220.831C251.832 221.644 252.295 222.751 252.295 224.152C252.295 225.651 251.461 227.248 249.794 228.943L246.474 232.264H252.568V234.596H242.88ZM253.256 219.886H262.608V221.987L257.438 234.596H254.896L259.981 222.197H253.256V219.886ZM263.69 234.596V232.705L268.817 227.472C270.064 226.225 270.688 225.146 270.688 224.236C270.688 223.521 270.471 222.968 270.036 222.576C269.616 222.169 269.077 221.966 268.418 221.966C267.185 221.966 266.275 222.576 265.686 223.795L263.648 222.597C264.11 221.616 264.761 220.873 265.602 220.369C266.443 219.865 267.374 219.613 268.397 219.613C269.686 219.613 270.793 220.019 271.717 220.831C272.642 221.644 273.104 222.751 273.104 224.152C273.104 225.651 272.271 227.248 270.604 228.943L267.283 232.264H273.378V234.596H263.69ZM277.965 234.386C277.657 234.694 277.286 234.848 276.851 234.848C276.417 234.848 276.046 234.694 275.737 234.386C275.429 234.078 275.275 233.707 275.275 233.272C275.275 232.838 275.422 232.467 275.716 232.158C276.025 231.85 276.403 231.696 276.851 231.696C277.286 231.696 277.657 231.85 277.965 232.158C278.273 232.467 278.427 232.838 278.427 233.272C278.427 233.707 278.273 234.078 277.965 234.386ZM289.746 232.789C288.737 234.176 287.322 234.869 285.501 234.869C283.68 234.869 282.258 234.176 281.235 232.789C280.226 231.402 279.722 229.553 279.722 227.241C279.722 224.929 280.226 223.08 281.235 221.693C282.258 220.306 283.68 219.613 285.501 219.613C287.322 219.613 288.737 220.306 289.746 221.693C290.769 223.08 291.28 224.929 291.28 227.241C291.28 229.553 290.769 231.402 289.746 232.789ZM285.501 232.516C286.594 232.516 287.428 232.06 288.002 231.15C288.576 230.239 288.864 228.936 288.864 227.241C288.864 225.546 288.576 224.243 288.002 223.332C287.428 222.422 286.594 221.966 285.501 221.966C284.422 221.966 283.589 222.422 283 223.332C282.426 224.243 282.139 225.546 282.139 227.241C282.139 228.936 282.426 230.239 283 231.15C283.589 232.06 284.422 232.516 285.501 232.516Z" fill="#303030"/>
<path d="M400.117 234.596V232.705L405.244 227.472C406.491 226.225 407.115 225.146 407.115 224.236C407.115 223.521 406.898 222.968 406.463 222.576C406.043 222.169 405.504 221.966 404.845 221.966C403.612 221.966 402.702 222.576 402.113 223.795L400.075 222.597C400.537 221.616 401.189 220.873 402.029 220.369C402.87 219.865 403.801 219.613 404.824 219.613C406.113 219.613 407.22 220.019 408.144 220.831C409.069 221.644 409.531 222.751 409.531 224.152C409.531 225.651 408.698 227.248 407.031 228.943L403.71 232.264H409.805V234.596H400.117ZM410.493 219.886H419.845V221.987L414.675 234.596H412.132L417.218 222.197H410.493V219.886Z" fill="#303030"/>
<path d="M122.383 182.699V191.634H120.916V185.265L118.197 189.758H118.018L115.299 185.252V191.634H113.831V182.699H115.414L118.107 187.167L120.813 182.699H122.383ZM127.088 191.8C126.152 191.8 125.356 191.477 124.701 190.83C124.046 190.183 123.718 189.388 123.718 188.443C123.718 187.499 124.046 186.703 124.701 186.056C125.356 185.409 126.152 185.086 127.088 185.086C128.033 185.086 128.828 185.409 129.475 186.056C130.13 186.703 130.458 187.499 130.458 188.443C130.458 189.388 130.13 190.183 129.475 190.83C128.828 191.477 128.033 191.8 127.088 191.8ZM125.671 189.886C126.054 190.269 126.527 190.46 127.088 190.46C127.65 190.46 128.122 190.269 128.505 189.886C128.888 189.503 129.079 189.022 129.079 188.443C129.079 187.865 128.888 187.384 128.505 187.001C128.122 186.618 127.65 186.426 127.088 186.426C126.527 186.426 126.054 186.618 125.671 187.001C125.288 187.384 125.097 187.865 125.097 188.443C125.097 189.022 125.288 189.503 125.671 189.886ZM136.76 182.699H138.138V191.634H136.76V190.715C136.24 191.439 135.496 191.8 134.526 191.8C133.649 191.8 132.9 191.477 132.279 190.83C131.658 190.175 131.347 189.379 131.347 188.443C131.347 187.499 131.658 186.703 132.279 186.056C132.9 185.409 133.649 185.086 134.526 185.086C135.496 185.086 136.24 185.443 136.76 186.158V182.699ZM133.3 189.911C133.683 190.294 134.164 190.486 134.743 190.486C135.321 190.486 135.802 190.294 136.185 189.911C136.568 189.52 136.76 189.03 136.76 188.443C136.76 187.856 136.568 187.371 136.185 186.988C135.802 186.597 135.321 186.401 134.743 186.401C134.164 186.401 133.683 186.597 133.3 186.988C132.917 187.371 132.726 187.856 132.726 188.443C132.726 189.03 132.917 189.52 133.3 189.911ZM140.83 189.03C140.932 189.515 141.166 189.89 141.532 190.154C141.898 190.409 142.345 190.537 142.872 190.537C143.604 190.537 144.153 190.273 144.519 189.745L145.655 190.409C145.025 191.337 144.094 191.8 142.86 191.8C141.821 191.8 140.983 191.485 140.345 190.856C139.707 190.218 139.388 189.413 139.388 188.443C139.388 187.49 139.702 186.694 140.332 186.056C140.962 185.409 141.77 185.086 142.757 185.086C143.694 185.086 144.459 185.414 145.055 186.069C145.659 186.724 145.961 187.52 145.961 188.456C145.961 188.601 145.944 188.792 145.91 189.03H140.83ZM140.817 187.907H144.57C144.476 187.388 144.259 186.997 143.919 186.733C143.587 186.469 143.196 186.337 142.745 186.337C142.234 186.337 141.809 186.477 141.468 186.758C141.128 187.039 140.911 187.422 140.817 187.907Z" fill="#959595"/>
<path d="M238.493 191.634L237.867 189.835H234.063L233.438 191.634H231.842L235.084 182.699H236.846L240.075 191.634H238.493ZM234.548 188.456H237.382L235.965 184.422L234.548 188.456ZM247.917 185.086C248.64 185.086 249.223 185.32 249.665 185.788C250.108 186.256 250.329 186.886 250.329 187.677V191.634H248.95V187.767C248.95 187.324 248.84 186.984 248.619 186.745C248.397 186.499 248.095 186.375 247.712 186.375C247.287 186.375 246.946 186.516 246.691 186.797C246.444 187.077 246.321 187.499 246.321 188.06V191.634H244.942V187.767C244.942 187.324 244.836 186.984 244.623 186.745C244.419 186.499 244.125 186.375 243.742 186.375C243.325 186.375 242.985 186.52 242.721 186.809C242.457 187.09 242.326 187.507 242.326 188.06V191.634H240.947V185.252H242.326V186.018C242.734 185.397 243.342 185.086 244.151 185.086C244.968 185.086 245.572 185.422 245.964 186.094C246.389 185.422 247.04 185.086 247.917 185.086ZM254.817 191.8C253.881 191.8 253.085 191.477 252.43 190.83C251.775 190.183 251.447 189.388 251.447 188.443C251.447 187.499 251.775 186.703 252.43 186.056C253.085 185.409 253.881 185.086 254.817 185.086C255.762 185.086 256.557 185.409 257.204 186.056C257.859 186.703 258.187 187.499 258.187 188.443C258.187 189.388 257.859 190.183 257.204 190.83C256.557 191.477 255.762 191.8 254.817 191.8ZM253.4 189.886C253.783 190.269 254.255 190.46 254.817 190.46C255.379 190.46 255.851 190.269 256.234 189.886C256.617 189.503 256.808 189.022 256.808 188.443C256.808 187.865 256.617 187.384 256.234 187.001C255.851 186.618 255.379 186.426 254.817 186.426C254.255 186.426 253.783 186.618 253.4 187.001C253.017 187.384 252.826 187.865 252.826 188.443C252.826 189.022 253.017 189.503 253.4 189.886ZM263.735 185.252H265.114V191.634H263.735V190.817C263.318 191.473 262.659 191.8 261.757 191.8C261.025 191.8 260.433 191.566 259.982 191.098C259.531 190.63 259.306 189.988 259.306 189.171V185.252H260.684V189.03C260.684 189.507 260.812 189.873 261.067 190.128C261.323 190.383 261.672 190.511 262.114 190.511C262.599 190.511 262.991 190.362 263.288 190.064C263.586 189.758 263.735 189.294 263.735 188.673V185.252ZM270.083 185.086C270.815 185.086 271.406 185.32 271.857 185.788C272.308 186.256 272.534 186.899 272.534 187.716V191.634H271.155V187.856C271.155 187.379 271.028 187.014 270.772 186.758C270.517 186.503 270.168 186.375 269.726 186.375C269.241 186.375 268.849 186.528 268.551 186.835C268.253 187.133 268.104 187.592 268.104 188.213V191.634H266.726V185.252H268.104V186.069C268.521 185.414 269.181 185.086 270.083 185.086ZM277.58 186.58H275.997V189.643C275.997 189.907 276.056 190.098 276.175 190.218C276.295 190.328 276.469 190.392 276.699 190.409C276.937 190.417 277.231 190.413 277.58 190.396V191.634C276.524 191.762 275.767 191.673 275.307 191.366C274.848 191.051 274.618 190.477 274.618 189.643V186.58H273.444V185.252H274.618V183.873L275.997 183.465V185.252H277.58V186.58Z" fill="#959595"/>
<path d="M359.39 182.699V184.103H356.875V191.634H355.407V184.103H352.88V182.699H359.39ZM360.93 186.324C361.278 185.533 361.934 185.137 362.895 185.137V186.631C362.368 186.597 361.908 186.724 361.517 187.014C361.125 187.294 360.93 187.762 360.93 188.418V191.634H359.551V185.252H360.93V186.324ZM368.67 185.252H370.048V191.634H368.67V190.715C368.151 191.439 367.406 191.8 366.436 191.8C365.559 191.8 364.81 191.477 364.189 190.83C363.568 190.175 363.257 189.379 363.257 188.443C363.257 187.499 363.568 186.703 364.189 186.056C364.81 185.409 365.559 185.086 366.436 185.086C367.406 185.086 368.151 185.443 368.67 186.158V185.252ZM365.21 189.911C365.593 190.294 366.074 190.486 366.653 190.486C367.231 190.486 367.712 190.294 368.095 189.911C368.478 189.52 368.67 189.03 368.67 188.443C368.67 187.856 368.478 187.371 368.095 186.988C367.712 186.597 367.231 186.401 366.653 186.401C366.074 186.401 365.593 186.597 365.21 186.988C364.827 187.371 364.636 187.856 364.636 188.443C364.636 189.03 364.827 189.52 365.21 189.911ZM375.012 185.086C375.744 185.086 376.336 185.32 376.787 185.788C377.238 186.256 377.463 186.899 377.463 187.716V191.634H376.084V187.856C376.084 187.379 375.957 187.014 375.702 186.758C375.446 186.503 375.097 186.375 374.655 186.375C374.17 186.375 373.778 186.528 373.48 186.835C373.183 187.133 373.034 187.592 373.034 188.213V191.634H371.655V185.252H373.034V186.069C373.451 185.414 374.11 185.086 375.012 185.086ZM380.186 187.014C380.186 187.226 380.301 187.396 380.53 187.524C380.769 187.643 381.054 187.75 381.386 187.843C381.726 187.928 382.066 188.03 382.407 188.15C382.747 188.269 383.032 188.473 383.262 188.762C383.5 189.043 383.619 189.401 383.619 189.835C383.619 190.447 383.381 190.928 382.905 191.277C382.437 191.626 381.845 191.8 381.13 191.8C380.501 191.8 379.96 191.668 379.509 191.405C379.058 191.141 378.73 190.775 378.526 190.307L379.713 189.618C379.935 190.23 380.407 190.537 381.13 190.537C381.854 190.537 382.215 190.298 382.215 189.822C382.215 189.618 382.096 189.452 381.858 189.324C381.628 189.196 381.343 189.09 381.003 189.005C380.671 188.911 380.335 188.805 379.994 188.686C379.654 188.567 379.364 188.371 379.126 188.099C378.896 187.818 378.782 187.465 378.782 187.039C378.782 186.452 379.003 185.98 379.445 185.622C379.896 185.265 380.454 185.086 381.117 185.086C381.645 185.086 382.113 185.205 382.522 185.443C382.939 185.673 383.258 185.997 383.479 186.414L382.317 187.065C382.096 186.58 381.696 186.337 381.117 186.337C380.854 186.337 380.632 186.397 380.454 186.516C380.275 186.626 380.186 186.792 380.186 187.014ZM389.724 185.252H391.103V191.634H389.724V190.715C389.205 191.439 388.46 191.8 387.49 191.8C386.614 191.8 385.865 191.477 385.244 190.83C384.622 190.175 384.312 189.379 384.312 188.443C384.312 187.499 384.622 186.703 385.244 186.056C385.865 185.409 386.614 185.086 387.49 185.086C388.46 185.086 389.205 185.443 389.724 186.158V185.252ZM386.265 189.911C386.648 190.294 387.129 190.486 387.707 190.486C388.286 190.486 388.767 190.294 389.15 189.911C389.533 189.52 389.724 189.03 389.724 188.443C389.724 187.856 389.533 187.371 389.15 186.988C388.767 186.597 388.286 186.401 387.707 186.401C387.129 186.401 386.648 186.597 386.265 186.988C385.882 187.371 385.69 187.856 385.69 188.443C385.69 189.03 385.882 189.52 386.265 189.911ZM395.722 191.8C394.76 191.8 393.956 191.477 393.309 190.83C392.671 190.183 392.352 189.388 392.352 188.443C392.352 187.49 392.671 186.694 393.309 186.056C393.956 185.409 394.76 185.086 395.722 185.086C396.343 185.086 396.909 185.235 397.42 185.533C397.93 185.831 398.313 186.231 398.569 186.733L397.381 187.422C397.237 187.116 397.016 186.877 396.718 186.707C396.428 186.528 396.092 186.439 395.709 186.439C395.148 186.439 394.675 186.631 394.292 187.014C393.918 187.396 393.731 187.873 393.731 188.443C393.731 189.013 393.918 189.49 394.292 189.873C394.675 190.256 395.148 190.447 395.709 190.447C396.084 190.447 396.42 190.358 396.718 190.179C397.024 190.001 397.254 189.762 397.407 189.464L398.594 190.141C398.322 190.652 397.93 191.056 397.42 191.354C396.909 191.651 396.343 191.8 395.722 191.8ZM403.152 186.58H401.569V189.643C401.569 189.907 401.629 190.098 401.748 190.218C401.867 190.328 402.041 190.392 402.271 190.409C402.509 190.417 402.803 190.413 403.152 190.396V191.634C402.097 191.762 401.339 191.673 400.88 191.366C400.42 191.051 400.19 190.477 400.19 189.643V186.58H399.016V185.252H400.19V183.873L401.569 183.465V185.252H403.152V186.58ZM405.704 184.039C405.534 184.21 405.33 184.295 405.092 184.295C404.853 184.295 404.645 184.21 404.466 184.039C404.296 183.861 404.211 183.652 404.211 183.414C404.211 183.176 404.296 182.971 404.466 182.801C404.636 182.622 404.845 182.533 405.092 182.533C405.338 182.533 405.547 182.622 405.717 182.801C405.887 182.971 405.972 183.176 405.972 183.414C405.972 183.652 405.883 183.861 405.704 184.039ZM404.402 191.634V185.252H405.781V191.634H404.402ZM410.394 191.8C409.458 191.8 408.662 191.477 408.007 190.83C407.352 190.183 407.024 189.388 407.024 188.443C407.024 187.499 407.352 186.703 408.007 186.056C408.662 185.409 409.458 185.086 410.394 185.086C411.339 185.086 412.134 185.409 412.781 186.056C413.436 186.703 413.764 187.499 413.764 188.443C413.764 189.388 413.436 190.183 412.781 190.83C412.134 191.477 411.339 191.8 410.394 191.8ZM408.977 189.886C409.36 190.269 409.832 190.46 410.394 190.46C410.956 190.46 411.428 190.269 411.811 189.886C412.194 189.503 412.385 189.022 412.385 188.443C412.385 187.865 412.194 187.384 411.811 187.001C411.428 186.618 410.956 186.426 410.394 186.426C409.832 186.426 409.36 186.618 408.977 187.001C408.594 187.384 408.403 187.865 408.403 188.443C408.403 189.022 408.594 189.503 408.977 189.886ZM418.368 185.086C419.1 185.086 419.691 185.32 420.142 185.788C420.593 186.256 420.819 186.899 420.819 187.716V191.634H419.44V187.856C419.44 187.379 419.312 187.014 419.057 186.758C418.802 186.503 418.453 186.375 418.01 186.375C417.525 186.375 417.134 186.528 416.836 186.835C416.538 187.133 416.389 187.592 416.389 188.213V191.634H415.011V185.252H416.389V186.069C416.806 185.414 417.466 185.086 418.368 185.086Z" fill="#959595"/>
<g clip-path="url(#clip6_3812_80)">
<path d="M80.1071 229.878H82.2619V222.431H73.2116V223.672H78.9396C79.5843 223.672 80.1071 224.195 80.1071 224.84V229.878ZM80.1071 231.119V232.981C80.1071 233.324 79.7192 233.602 79.2391 233.602H68.908C68.7943 233.602 68.6817 233.586 68.5764 233.556C68.4712 233.525 68.3755 233.479 68.2949 233.421C68.2142 233.364 68.1502 233.295 68.1065 233.219C68.0627 233.144 68.0402 233.063 68.04 232.981L68.0426 224.293C68.0426 223.95 68.4305 223.672 68.9106 223.672H71.4878V221.81C71.4878 221.646 71.5786 221.488 71.7402 221.372C71.9019 221.255 72.1211 221.19 72.3497 221.19H82.6928C82.9214 221.19 83.1407 221.255 83.3023 221.372C83.464 221.488 83.5548 221.646 83.5548 221.81V230.499C83.5548 230.663 83.464 230.821 83.3023 230.938C83.1407 231.054 82.9214 231.119 82.6928 231.119H80.1071ZM69.3329 224.913V232.36H78.8142V224.913H69.3329Z" fill="#959595"/>
<path d="M72.0462 228.678C72.0142 228.638 71.985 228.581 71.9584 228.506C71.9318 228.431 71.9185 228.351 71.9185 228.266C71.9185 228.107 71.9557 227.995 72.0302 227.93C72.11 227.86 72.2058 227.825 72.3175 227.825H75.6694C75.6961 227.87 75.7227 227.93 75.7493 228.005C75.7812 228.079 75.7971 228.159 75.7971 228.244C75.7971 228.399 75.7572 228.511 75.6774 228.581C75.6029 228.646 75.5098 228.678 75.3981 228.678H74.9113C74.8847 228.937 74.7836 229.164 74.608 229.359C74.4324 229.549 74.1797 229.686 73.8498 229.771L75.007 230.504C75.007 230.728 74.9459 230.913 74.8235 231.058C74.7064 231.202 74.5282 231.275 74.2888 231.275C74.1504 231.275 74.0227 231.24 73.9057 231.17C73.794 231.1 73.6849 231.02 73.5785 230.93L72.2457 229.785C72.2084 229.711 72.1898 229.623 72.1898 229.524C72.1898 229.324 72.2749 229.174 72.4452 229.075H72.9161C73.0863 229.075 73.2193 229.04 73.3151 228.97C73.4162 228.895 73.488 228.798 73.5306 228.678H72.0462ZM72.0462 227.473C72.0142 227.428 71.985 227.368 71.9584 227.294C71.9318 227.219 71.9185 227.139 71.9185 227.054C71.9185 226.9 71.9557 226.79 72.0302 226.725C72.11 226.655 72.2058 226.62 72.3175 226.62H75.6694C75.6961 226.66 75.7227 226.72 75.7493 226.8C75.7812 226.875 75.7971 226.952 75.7971 227.032C75.7971 227.191 75.7572 227.306 75.6774 227.376C75.6029 227.441 75.5098 227.473 75.3981 227.473H72.0462Z" fill="#959595"/>
</g>
</g>
<defs>
<filter id="filter0_d_3812_80" x="34.0655" y="186.723" width="443.869" height="92.8526" filterUnits="userSpaceOnUse" color-interpolation-filters="sRGB">
<feFlood flood-opacity="0" result="BackgroundImageFix"/>
<feColorMatrix in="SourceAlpha" type="matrix" values="0 0 0 0 0 0 0 0 0 0 0 0 0 0 0 0 0 0 127 0" result="hardAlpha"/>
<feOffset dy="6.64484"/>
<feGaussianBlur stdDeviation="9.96726"/>
<feColorMatrix type="matrix" values="0 0 0 0 0 0 0 0 0 0 0 0 0 0 0 0 0 0 0.05 0"/>
<feBlend mode="normal" in2="BackgroundImageFix" result="effect1_dropShadow_3812_80"/>
<feBlend mode="normal" in="SourceGraphic" in2="effect1_dropShadow_3812_80" result="shape"/>
</filter>
<linearGradient id="paint0_linear_3812_80" x1="255.338" y1="5.30114" x2="255.338" y2="504.669" gradientUnits="userSpaceOnUse">
<stop offset="0.508831" stop-color="#DEDEDE"/>
<stop offset="1" stop-color="#DEDEDE" stop-opacity="0.06"/>
</linearGradient>
<linearGradient id="paint1_linear_3812_80" x1="255.338" y1="10.5965" x2="255.338" y2="476.852" gradientUnits="userSpaceOnUse">
<stop offset="0.823604" stop-color="#FCFDFF"/>
<stop offset="1" stop-color="#FCFDFF" stop-opacity="0"/>
</linearGradient>
<clipPath id="clip0_3812_80">
<rect width="512" height="504" fill="white"/>
</clipPath>
<clipPath id="clip1_3812_80">
<path d="M79.1675 42.4917C79.1675 27.4562 79.1675 19.9384 83.8384 15.2675C88.5094 10.5965 96.0272 10.5965 111.063 10.5965H399.613C414.649 10.5965 422.167 10.5965 426.838 15.2675C431.508 19.9384 431.508 27.4562 431.508 42.4918V476.852H79.1675V42.4917Z" fill="white"/>
</clipPath>
<clipPath id="clip2_3812_80">
<rect width="22.5851" height="22.5851" fill="white" transform="translate(113.988 415.807)"/>
</clipPath>
<clipPath id="clip3_3812_80">
<rect width="22.5851" height="22.5851" fill="white" transform="translate(113.988 354.637)"/>
</clipPath>
<clipPath id="clip4_3812_80">
<rect width="22.5851" height="22.5851" fill="white" transform="translate(113.988 293.467)"/>
</clipPath>
<clipPath id="clip5_3812_80">
<rect width="22.5851" height="22.5851" fill="white" transform="translate(94.2251 35.6112)"/>
</clipPath>
<clipPath id="clip6_3812_80">
<rect width="18.6177" height="18.6177" fill="white" transform="translate(66.4878 218.087)"/>
</clipPath>
</defs>
</svg>
