<svg width="528" height="377" viewBox="0 0 528 377" fill="none" xmlns="http://www.w3.org/2000/svg">
<g filter="url(#filter0_d_6513_255)">
<rect x="55" y="57.4199" width="398.209" height="230" rx="13.6344" transform="rotate(-5.39207 55 57.4199)" fill="#EBF4FF"/>
<rect x="58.6609" y="61.2753" width="390.72" height="221.76" rx="10.2258" transform="rotate(-5.39207 58.6609 61.2753)" fill="url(#paint0_linear_6513_255)"/>
<path fill-rule="evenodd" clip-rule="evenodd" d="M374.742 192.217L415.345 188.384C421.846 187.771 427.627 192.498 428.233 198.924C428.839 205.349 424.045 211.075 417.545 211.689L359.963 217.124C356.325 217.467 353.686 220.619 354.025 224.215C354.365 227.812 357.547 230.414 361.185 230.071L384.761 227.845C391.262 227.232 397.043 231.959 397.649 238.385C398.256 244.81 393.461 250.536 386.961 251.15L355.429 254.126C346.212 254.996 336.979 252.578 329.34 247.348L204.809 161.571C201.933 159.617 201.601 155.584 204.061 153.127L310.613 47.9083C317.059 41.5427 325.546 37.5971 334.617 36.7409L382.109 32.2582C388.609 31.6447 394.39 36.3723 394.996 42.7978C395.603 49.2233 390.809 54.9492 384.308 55.5627L346.325 59.1479C342.007 59.5554 338.792 63.3422 339.199 67.6578C339.602 71.9255 343.425 75.0963 347.791 74.6843L371.367 72.459C377.14 71.9141 382.284 76.1212 382.823 81.8275C383.362 87.5337 379.095 92.6292 373.322 93.174L336.649 96.6356C330.876 97.1805 326.61 102.276 327.148 107.982C327.687 113.688 332.831 117.896 338.604 117.351L349.082 116.362C354.855 115.817 359.999 120.024 360.538 125.73C361.077 131.436 356.81 136.532 351.037 137.077L324.842 139.549C320.525 139.957 317.309 143.744 317.716 148.059C318.124 152.375 321.942 155.498 326.308 155.086L389.129 149.156C394.902 148.611 400.046 152.818 400.585 158.525C401.123 164.231 396.857 169.326 391.084 169.871L372.747 171.602C366.975 172.147 362.708 177.242 363.247 182.949C363.825 188.554 368.921 192.766 374.742 192.217ZM447.047 192.052C440.536 192.666 435.774 198.628 436.41 205.367C437.046 212.106 442.84 217.071 449.351 216.457C455.862 215.842 460.624 209.881 459.988 203.141C459.352 196.402 453.558 191.437 447.047 192.052ZM393.132 82.8915C392.496 76.1521 397.258 70.1906 403.769 69.576C410.28 68.9615 416.074 73.9266 416.71 80.6659C417.346 87.4053 412.584 93.3668 406.073 93.9814C399.562 94.5959 393.768 89.6308 393.132 82.8915ZM450.74 169.461L419.302 172.428C413.529 172.973 408.363 168.546 407.799 162.57C407.235 156.595 411.481 151.279 417.255 150.735L448.692 147.767C454.466 147.222 459.631 151.649 460.195 157.625C460.759 163.601 456.562 168.911 450.74 169.461ZM379.786 137.502L416.463 134.04C422.237 133.495 426.483 128.18 425.919 122.204C425.355 116.228 420.189 111.801 414.416 112.346L377.738 115.808C371.965 116.353 367.719 121.668 368.283 127.644C368.847 133.62 374.013 138.047 379.786 137.502Z" fill="#184882"/>
<path d="M99.7835 175.23C97.218 175.472 95.1565 176.814 94.4231 178.938C94.3177 178.387 94.2414 177.861 94.2014 177.438C93.7271 172.412 96.0505 169.605 100.044 169.228C101.42 169.098 102.712 169.216 103.724 169.761L104.346 168.155C103.115 167.55 101.527 167.407 99.8605 167.564C94.8352 168.038 91.7065 171.643 92.3006 177.937C92.8523 183.783 95.8457 186.942 100.765 186.478C104.362 186.138 106.877 183.66 106.55 180.195C106.23 176.809 103.46 174.883 99.7835 175.23ZM100.534 184.872C97.3332 185.174 95.4583 183.403 95.2661 181.367C95.0489 179.066 96.8149 177.138 99.6449 176.871C102.501 176.601 104.447 177.992 104.677 180.425C104.909 182.885 103.205 184.62 100.534 184.872ZM117.729 184.877C122.013 184.472 124.802 180.66 124.246 174.762C123.689 168.864 120.236 165.641 115.951 166.045C111.667 166.45 108.904 170.259 109.461 176.158C110.018 182.056 113.444 185.281 117.729 184.877ZM117.564 183.131C114.337 183.436 111.858 180.921 111.392 175.975C110.925 171.029 112.889 168.095 116.116 167.791C119.343 167.486 121.822 170.001 122.288 174.947C122.755 179.893 120.791 182.827 117.564 183.131ZM126.421 165.217L126.908 170.375L128.786 170.197L128.459 166.733L137.981 165.834L131.951 183.374L134.014 183.18L140.143 165.283L140.016 163.934L126.421 165.217ZM158.718 174.23L155.015 174.58L154.611 170.295L152.759 170.47L153.164 174.754L145.123 175.513L153.464 162.665L151.348 162.864L142.694 176.063L142.823 177.438L153.271 176.452L153.73 181.319L155.634 181.139L155.175 176.272L158.878 175.923L158.718 174.23ZM172.424 177.846L178.135 171.063C180.391 168.395 180.797 166.756 180.63 164.984C180.338 161.889 177.778 160.21 174.022 160.564C171.192 160.831 168.981 162.001 167.712 163.828L169.171 164.865C170.255 163.348 171.859 162.529 174.028 162.325C176.858 162.058 178.49 163.238 178.693 165.38C178.812 166.65 178.533 167.93 176.638 170.19L169.653 178.455L169.781 179.804L182.767 178.578L182.607 176.885L172.424 177.846ZM183.835 159.798L184.322 164.955L186.2 164.778L185.873 161.313L195.394 160.415L189.365 177.955L191.428 177.76L197.557 159.864L197.43 158.515L183.835 159.798ZM209.622 176.203C213.907 175.799 216.695 171.986 216.139 166.088C215.582 160.19 212.129 156.967 207.844 157.372C203.56 157.776 200.797 161.586 201.354 167.484C201.911 173.382 205.337 176.608 209.622 176.203ZM209.457 174.458C206.23 174.762 203.751 172.248 203.285 167.302C202.818 162.356 204.782 159.422 208.009 159.117C211.236 158.813 213.715 161.327 214.182 166.273C214.648 171.219 212.684 174.153 209.457 174.458ZM228.192 174.45C232.476 174.046 235.265 170.234 234.709 164.336C234.152 158.438 230.699 155.214 226.414 155.619C222.13 156.023 219.367 159.833 219.924 165.731C220.481 171.629 223.907 174.855 228.192 174.45ZM228.027 172.705C224.8 173.009 222.321 170.495 221.855 165.549C221.388 160.603 223.352 157.669 226.579 157.364C229.806 157.06 232.285 159.574 232.751 164.52C233.218 169.466 231.254 172.4 228.027 172.705ZM254.742 171.944C259.027 171.54 261.815 167.728 261.259 161.83C260.702 155.932 257.249 152.708 252.964 153.113C248.68 153.517 245.917 157.327 246.474 163.225C247.031 169.123 250.457 172.349 254.742 171.944ZM254.577 170.199C251.35 170.503 248.871 167.989 248.405 163.043C247.938 158.097 249.902 155.163 253.129 154.858C256.356 154.554 258.835 157.068 259.302 162.014C259.768 166.96 257.804 169.894 254.577 170.199ZM273.312 170.192C277.596 169.787 280.385 165.975 279.829 160.077C279.272 154.179 275.819 150.956 271.534 151.36C267.25 151.764 264.487 155.574 265.044 161.472C265.601 167.37 269.027 170.596 273.312 170.192ZM273.147 168.446C269.92 168.751 267.441 166.236 266.975 161.29C266.508 156.344 268.472 153.41 271.699 153.106C274.926 152.801 277.405 155.316 277.871 160.262C278.338 165.207 276.374 168.141 273.147 168.446ZM291.882 168.439C296.166 168.034 298.955 164.222 298.399 158.324C297.842 152.426 294.389 149.203 290.104 149.607C285.82 150.012 283.057 153.821 283.614 159.72C284.17 165.618 287.597 168.843 291.882 168.439ZM291.717 166.693C288.49 166.998 286.011 164.483 285.545 159.537C285.078 154.591 287.042 151.657 290.269 151.353C293.496 151.048 295.975 153.563 296.441 158.509C296.908 163.455 294.944 166.389 291.717 166.693ZM310.452 166.686C314.736 166.282 317.525 162.469 316.969 156.571C316.412 150.673 312.959 147.45 308.674 147.854C304.389 148.259 301.627 152.069 302.184 157.967C302.74 163.865 306.167 167.09 310.452 166.686ZM310.287 164.94C307.06 165.245 304.581 162.73 304.114 157.785C303.648 152.839 305.612 149.905 308.839 149.6C312.066 149.296 314.545 151.81 315.011 156.756C315.478 161.702 313.514 164.636 310.287 164.94ZM337.002 164.18C341.286 163.776 344.075 159.963 343.519 154.065C342.962 148.167 339.509 144.944 335.224 145.348C330.94 145.753 328.177 149.563 328.734 155.461C329.29 161.359 332.717 164.584 337.002 164.18ZM336.837 162.434C333.61 162.739 331.131 160.224 330.665 155.279C330.198 150.333 332.162 147.399 335.389 147.094C338.616 146.79 341.095 149.304 341.561 154.25C342.028 159.196 340.064 162.13 336.837 162.434ZM355.572 162.427C359.856 162.023 362.645 158.211 362.089 152.312C361.532 146.414 358.079 143.191 353.794 143.596C349.509 144 346.747 147.81 347.304 153.708C347.86 159.606 351.287 162.832 355.572 162.427ZM355.407 160.682C352.18 160.986 349.701 158.472 349.234 153.526C348.768 148.58 350.732 145.646 353.959 145.341C357.186 145.037 359.665 147.551 360.131 152.497C360.598 157.443 358.634 160.377 355.407 160.682ZM374.142 160.674C378.426 160.27 381.215 156.458 380.659 150.56C380.102 144.662 376.649 141.438 372.364 141.843C368.079 142.247 365.317 146.057 365.874 151.955C366.43 157.853 369.857 161.079 374.142 160.674ZM373.977 158.929C370.75 159.233 368.271 156.719 367.804 151.773C367.338 146.827 369.302 143.893 372.529 143.589C375.756 143.284 378.234 145.798 378.701 150.744C379.168 155.69 377.204 158.624 373.977 158.929ZM392.712 158.922C396.996 158.517 399.785 154.705 399.228 148.807C398.672 142.909 395.219 139.686 390.934 140.09C386.649 140.495 383.887 144.304 384.444 150.202C385 156.1 388.427 159.326 392.712 158.922ZM392.547 157.176C389.32 157.481 386.841 154.966 386.374 150.02C385.908 145.074 387.872 142.14 391.099 141.836C394.326 141.531 396.804 144.046 397.271 148.992C397.738 153.938 395.774 156.871 392.547 157.176Z" fill="white"/>
<path d="M246.304 196.603L247.639 210.746L246.184 210.884L244.972 198.034L241.638 198.348L241.516 197.055L246.304 196.603ZM261.363 208.146L261.485 209.439L251.565 210.376L251.468 209.345L256.804 203.032C257.476 202.235 257.915 201.562 258.122 201.012C258.34 200.448 258.424 199.896 258.373 199.358C258.294 198.523 257.944 197.903 257.321 197.5C256.711 197.082 255.874 196.923 254.81 197.024C253.153 197.18 251.916 197.827 251.1 198.964L249.985 198.172C250.477 197.473 251.13 196.909 251.945 196.479C252.774 196.047 253.728 195.78 254.805 195.679C256.246 195.543 257.417 195.779 258.317 196.387C259.229 196.98 259.741 197.87 259.853 199.055C259.922 199.782 259.826 200.498 259.566 201.202C259.307 201.906 258.767 202.738 257.947 203.699L253.585 208.88L261.363 208.146ZM267.822 191.678L269.136 191.554L264.265 211.215L262.952 211.339L267.822 191.678ZM275.938 199.922C277.427 199.863 278.59 200.16 279.426 200.815C280.275 201.455 280.754 202.355 280.863 203.513C280.94 204.321 280.812 205.06 280.481 205.73C280.149 206.387 279.617 206.933 278.883 207.369C278.15 207.805 277.231 208.075 276.126 208.18C275.103 208.276 274.118 208.206 273.171 207.969C272.237 207.718 271.468 207.342 270.863 206.842L271.462 205.623C271.979 206.064 272.643 206.402 273.453 206.638C274.262 206.861 275.111 206.93 276 206.846C277.159 206.737 278.031 206.403 278.617 205.845C279.202 205.273 279.452 204.543 279.368 203.654C279.286 202.779 278.904 202.122 278.224 201.683C277.544 201.244 276.564 201.085 275.285 201.206L274.274 201.302L274.173 200.231L277.63 194.951L270.397 195.634L270.274 194.341L279.366 193.483L279.463 194.513L275.938 199.922ZM286.837 198.628C288.885 198.435 290.408 198.664 291.407 199.318C292.419 199.956 292.987 200.935 293.111 202.255C293.189 203.077 293.063 203.829 292.733 204.513C292.417 205.195 291.893 205.761 291.161 206.21C290.427 206.646 289.502 206.917 288.384 207.023C287.374 207.118 286.395 207.047 285.449 206.811C284.515 206.559 283.745 206.183 283.141 205.683L283.739 204.465C284.257 204.905 284.914 205.244 285.711 205.481C286.506 205.705 287.349 205.775 288.238 205.691C289.41 205.581 290.287 205.233 290.871 204.648C291.468 204.061 291.725 203.33 291.642 202.455C291.551 201.485 291.118 200.785 290.343 200.356C289.582 199.925 288.347 199.79 286.636 199.951L283.626 200.236L283.684 193.075L291.422 192.345L291.544 193.638L285.078 194.248L285.019 198.799L286.837 198.628Z" fill="white"/>
<path d="M98.8436 200.556C97.7001 200.664 96.7814 201.262 96.4545 202.209C96.4075 201.964 96.3735 201.729 96.3557 201.54C96.1443 199.301 97.1798 198.049 98.9598 197.881C99.5727 197.824 100.149 197.876 100.6 198.119L100.877 197.403C100.328 197.134 99.6205 197.07 98.8779 197.14C96.6382 197.351 95.2437 198.958 95.5085 201.763C95.7544 204.368 97.0885 205.777 99.2811 205.57C100.884 205.418 102.005 204.313 101.859 202.769C101.717 201.26 100.482 200.402 98.8436 200.556ZM99.1778 204.854C97.7515 204.988 96.9159 204.199 96.8302 203.291C96.7334 202.266 97.5205 201.407 98.7818 201.288C100.055 201.168 100.922 201.787 101.024 202.872C101.128 203.968 100.368 204.741 99.1778 204.854ZM106.842 204.856C108.751 204.676 109.994 202.977 109.746 200.348C109.498 197.719 107.959 196.283 106.049 196.463C104.14 196.643 102.908 198.341 103.157 200.97C103.405 203.599 104.932 205.036 106.842 204.856ZM106.768 204.078C105.33 204.214 104.225 203.093 104.017 200.889C103.809 198.684 104.685 197.377 106.123 197.241C107.561 197.105 108.666 198.226 108.874 200.43C109.082 202.635 108.206 203.942 106.768 204.078ZM110.716 196.094L110.933 198.393L111.77 198.314L111.624 196.769L115.867 196.369L113.18 204.186L114.1 204.099L116.831 196.123L116.775 195.522L110.716 196.094ZM125.11 200.111L123.46 200.267L123.279 198.357L122.454 198.435L122.634 200.344L119.051 200.683L122.768 194.956L121.825 195.045L117.968 200.928L118.026 201.541L122.682 201.101L122.887 203.27L123.735 203.19L123.531 201.021L125.181 200.865L125.11 200.111Z" fill="white"/>
<path d="M110.189 242.797L111.354 255.14L110.119 255.256L109.131 244.783L105.493 252.42L105.317 252.436L100.314 245.615L101.303 256.088L100.069 256.205L98.9037 243.862L100.438 243.717L105.195 250.206L108.654 242.942L110.189 242.797ZM119.369 245.488L120.533 245.378L121.365 254.195L120.202 254.305L120.072 252.929C119.513 254.049 118.576 254.672 117.259 254.796C116.19 254.897 115.313 254.653 114.629 254.066C113.955 253.465 113.566 252.612 113.462 251.507L112.951 246.094L114.115 245.984L114.626 251.397C114.7 252.185 114.964 252.777 115.416 253.173C115.88 253.568 116.495 253.729 117.259 253.657C118.105 253.577 118.768 253.248 119.247 252.669C119.725 252.078 119.911 251.225 119.805 250.108L119.369 245.488ZM124.297 246.5C124.737 245.379 125.615 244.757 126.931 244.632L127.038 245.761C126.239 245.836 125.597 246.134 125.112 246.654C124.627 247.174 124.433 247.94 124.528 248.951L124.991 253.853L123.827 253.962L122.995 245.146L124.159 245.036L124.297 246.5ZM134.746 244.037L135.91 243.927L136.742 252.743L135.578 252.853L135.449 251.478C134.89 252.598 133.953 253.22 132.636 253.344C131.566 253.445 130.69 253.202 130.005 252.614C129.332 252.014 128.943 251.161 128.839 250.056L128.328 244.643L129.492 244.533L130.003 249.946C130.077 250.734 130.34 251.326 130.793 251.722C131.257 252.117 131.871 252.278 132.635 252.206C133.482 252.126 134.144 251.797 134.624 251.218C135.101 250.627 135.288 249.773 135.182 248.657L134.746 244.037ZM145.954 242.979L147.118 242.869L147.916 251.333C148.036 252.602 147.696 253.643 146.895 254.454C146.093 255.264 145.088 255.727 143.877 255.841C141.808 256.037 140.347 255.451 139.495 254.085L140.463 253.406C141.093 254.426 142.195 254.862 143.77 254.713C144.781 254.617 145.549 254.272 146.074 253.677C146.612 253.093 146.838 252.348 146.753 251.443L146.623 250.067C145.934 251.437 144.808 252.196 143.244 252.343C141.986 252.462 140.869 252.117 139.891 251.308C138.925 250.497 138.381 249.446 138.259 248.153C138.137 246.86 138.474 245.725 139.272 244.748C140.081 243.771 141.114 243.222 142.372 243.104C143.935 242.956 145.184 243.491 146.117 244.707L145.954 242.979ZM140.662 250.434C141.396 251.041 142.25 251.298 143.226 251.206C144.201 251.114 144.993 250.702 145.599 249.968C146.205 249.223 146.462 248.363 146.37 247.387C146.278 246.412 145.865 245.62 145.132 245.014C144.397 244.395 143.542 244.132 142.567 244.224C141.591 244.316 140.8 244.734 140.195 245.48C139.588 246.213 139.331 247.067 139.423 248.043C139.515 249.019 139.928 249.816 140.662 250.434ZM157.164 241.921L158.327 241.811L159.159 250.627L157.996 250.737L157.833 249.009C157.144 250.379 156.017 251.137 154.454 251.285C153.196 251.404 152.078 251.059 151.101 250.25C150.135 249.439 149.591 248.388 149.469 247.095C149.347 245.802 149.684 244.667 150.482 243.69C151.291 242.713 152.324 242.164 153.582 242.046C155.145 241.898 156.393 242.432 157.327 243.649L157.164 241.921ZM151.872 249.376C152.605 249.983 153.46 250.24 154.436 250.148C155.411 250.056 156.202 249.643 156.809 248.91C157.415 248.165 157.672 247.305 157.58 246.329C157.488 245.353 157.075 244.562 156.342 243.955C155.607 243.337 154.752 243.074 153.776 243.166C152.801 243.258 152.01 243.676 151.404 244.421C150.798 245.155 150.54 246.009 150.632 246.985C150.724 247.961 151.138 248.758 151.872 249.376ZM164.897 240.978C165.967 240.877 166.839 241.126 167.512 241.727C168.196 242.315 168.59 243.161 168.694 244.266L169.205 249.679L168.042 249.789L167.531 244.376C167.456 243.588 167.187 242.997 166.723 242.602C166.27 242.206 165.662 242.044 164.898 242.116C164.052 242.196 163.39 242.531 162.912 243.122C162.433 243.701 162.246 244.549 162.351 245.665L162.787 250.285L161.623 250.395L160.791 241.579L161.955 241.469L162.085 242.844C162.643 241.724 163.581 241.102 164.897 240.978ZM179.939 248.88C178.811 248.986 177.816 248.813 176.955 248.361C176.105 247.895 175.476 247.208 175.07 246.297L176.07 245.58C176.365 246.323 176.833 246.884 177.474 247.262C178.113 247.629 178.903 247.768 179.844 247.679C180.761 247.592 181.453 247.325 181.921 246.878C182.399 246.418 182.607 245.853 182.543 245.183C182.482 244.536 182.201 244.07 181.7 243.786C181.199 243.501 180.391 243.233 179.276 242.983C177.955 242.68 177.076 242.419 176.64 242.2C175.647 241.724 175.099 240.952 174.998 239.882C174.9 238.836 175.186 237.978 175.859 237.31C176.53 236.63 177.4 236.24 178.47 236.139C179.434 236.048 180.292 236.222 181.045 236.66C181.797 237.088 182.38 237.673 182.794 238.417L181.809 239.097C181.116 237.786 180.041 237.2 178.583 237.338C177.819 237.41 177.22 237.656 176.785 238.077C176.35 238.497 176.164 239.042 176.228 239.712C176.285 240.324 176.54 240.762 176.992 241.028C177.444 241.294 178.173 241.539 179.179 241.764C179.64 241.875 179.968 241.957 180.162 242.009C180.368 242.049 180.66 242.129 181.039 242.247C181.428 242.353 181.717 242.456 181.904 242.557C182.09 242.646 182.316 242.779 182.582 242.955C182.859 243.119 183.059 243.296 183.184 243.485C183.319 243.662 183.441 243.888 183.55 244.162C183.67 244.424 183.744 244.713 183.774 245.031C183.873 246.077 183.57 246.954 182.866 247.66C182.161 248.356 181.185 248.762 179.939 248.88ZM189.712 239.987L187.173 240.227L187.677 245.57C187.723 246.052 187.849 246.39 188.057 246.583C188.264 246.765 188.556 246.845 188.934 246.821C189.31 246.785 189.779 246.729 190.341 246.652L190.437 247.675C189.221 247.98 188.284 247.979 187.627 247.674C186.981 247.367 186.61 246.702 186.513 245.68L186.009 240.337L184.158 240.512L184.051 239.383L185.902 239.208L185.703 237.092L186.833 236.63L187.066 239.099L189.605 238.859L189.712 239.987ZM199.126 245.734C198.316 246.7 197.265 247.244 195.972 247.366C194.679 247.488 193.538 247.151 192.55 246.355C191.572 245.546 191.021 244.489 190.898 243.184C190.775 241.879 191.119 240.744 191.929 239.778C192.75 238.799 193.806 238.249 195.1 238.127C196.393 238.005 197.528 238.348 198.506 239.157C199.494 239.954 200.05 241.004 200.173 242.309C200.296 243.614 199.947 244.755 199.126 245.734ZM193.302 245.466C194.035 246.073 194.889 246.33 195.865 246.238C196.841 246.146 197.632 245.733 198.239 245C198.844 244.255 199.101 243.394 199.009 242.419C198.917 241.443 198.504 240.652 197.771 240.045C197.037 239.426 196.182 239.163 195.206 239.255C194.23 239.347 193.44 239.766 192.834 240.511C192.227 241.244 191.97 242.099 192.062 243.074C192.154 244.05 192.567 244.847 193.302 245.466ZM203.006 239.071C203.446 237.95 204.324 237.327 205.641 237.203L205.747 238.331C204.948 238.407 204.306 238.705 203.821 239.225C203.337 239.745 203.142 240.511 203.237 241.521L203.7 246.423L202.536 246.533L201.704 237.717L202.868 237.607L203.006 239.071ZM210.768 236.648C212.073 236.525 213.169 236.89 214.056 237.743C214.954 238.583 215.462 239.632 215.58 240.89C215.593 241.019 215.598 241.203 215.597 241.44L207.856 242.171C208.058 243.053 208.501 243.729 209.186 244.198C209.881 244.654 210.699 244.838 211.64 244.749C212.31 244.686 212.873 244.496 213.329 244.18C213.796 243.851 214.132 243.452 214.337 242.982L215.416 243.485C215.087 244.145 214.605 244.688 213.969 245.116C213.333 245.544 212.587 245.798 211.728 245.879C210.341 246.01 209.172 245.682 208.22 244.894C207.268 244.106 206.729 243.042 206.602 241.702C206.478 240.385 206.803 239.246 207.578 238.283C208.353 237.321 209.416 236.775 210.768 236.648ZM210.875 237.776C209.958 237.863 209.214 238.212 208.643 238.823C208.083 239.422 207.785 240.161 207.75 241.042L214.327 240.421C214.121 239.504 213.695 238.815 213.046 238.354C212.398 237.894 211.674 237.701 210.875 237.776ZM217.803 238.528C217.84 238.927 218.047 239.228 218.422 239.43C218.796 239.632 219.243 239.774 219.76 239.855C220.278 239.937 220.797 240.036 221.318 240.153C221.838 240.258 222.292 240.482 222.68 240.825C223.067 241.156 223.289 241.621 223.346 242.221C223.417 242.973 223.175 243.613 222.62 244.139C222.076 244.665 221.334 244.972 220.394 245.061C219.548 245.141 218.807 245.021 218.172 244.702C217.549 244.381 217.091 243.932 216.8 243.355L217.732 242.679C217.94 243.122 218.268 243.459 218.717 243.689C219.176 243.907 219.7 243.988 220.288 243.933C220.864 243.878 221.335 243.721 221.702 243.461C222.068 243.189 222.228 242.813 222.182 242.331C222.144 241.931 221.938 241.63 221.563 241.428C221.188 241.227 220.742 241.085 220.225 241.003C219.707 240.922 219.188 240.828 218.668 240.723C218.147 240.606 217.693 240.382 217.306 240.051C216.918 239.708 216.696 239.237 216.639 238.638C216.571 237.921 216.797 237.294 217.316 236.759C217.846 236.223 218.546 235.914 219.416 235.832C220.133 235.764 220.778 235.869 221.349 236.147C221.92 236.414 222.361 236.811 222.672 237.339L221.755 237.995C221.337 237.204 220.592 236.859 219.523 236.96C219.017 237.008 218.594 237.172 218.253 237.454C217.911 237.723 217.761 238.081 217.803 238.528Z" fill="white"/>
<path d="M215.798 202.979L213.131 197.417L213.756 197.358L216.022 202.185L217.345 197.019L217.971 196.96L216.391 202.923L215.798 202.979ZM222.765 202.321L222.096 200.956L219.363 201.214L218.962 202.68L218.353 202.738L220.023 196.767L220.616 196.711L223.374 202.264L222.765 202.321ZM219.518 200.651L221.839 200.432L220.387 197.455L219.518 200.651ZM223.57 196.432L224.146 196.378L224.69 202.139L224.114 202.194L223.57 196.432ZM226.536 201.417L229.17 201.168L229.221 201.712L226.011 202.015L225.467 196.253L226.043 196.199L226.536 201.417ZM231.724 195.662C232.509 195.588 233.183 195.807 233.746 196.318C234.314 196.824 234.637 197.48 234.713 198.287C234.789 199.093 234.595 199.801 234.132 200.409C233.674 201.012 233.053 201.35 232.268 201.424L230.046 201.634L229.502 195.872L231.724 195.662ZM232.217 200.881C232.848 200.821 233.343 200.548 233.701 200.06C234.064 199.572 234.215 198.998 234.153 198.34C234.091 197.681 233.835 197.146 233.387 196.734C232.944 196.322 232.407 196.146 231.776 196.205L230.13 196.361L230.571 201.036L232.217 200.881ZM218.752 212.279C218.392 212.69 217.894 212.925 217.257 212.985C216.621 213.045 216.087 212.907 215.657 212.571C215.227 212.236 214.982 211.755 214.923 211.129L214.564 207.326L215.14 207.272L215.499 211.075C215.543 211.536 215.714 211.888 216.014 212.131C216.314 212.374 216.711 212.472 217.205 212.425C217.699 212.379 218.07 212.208 218.319 211.913C218.568 211.618 218.671 211.241 218.627 210.78L218.268 206.977L218.844 206.922L219.203 210.725C219.262 211.351 219.112 211.869 218.752 212.279ZM222.138 206.612C222.654 206.563 223.101 206.695 223.479 207.008C223.858 207.321 224.071 207.736 224.12 208.251C224.169 208.767 224.036 209.214 223.723 209.593C223.41 209.971 222.996 210.185 222.48 210.233L220.998 210.373L221.2 212.513L220.624 212.568L220.08 206.806L222.138 206.612ZM222.429 209.69C222.785 209.656 223.068 209.511 223.276 209.253C223.489 208.989 223.578 208.674 223.544 208.306C223.509 207.938 223.363 207.648 223.104 207.434C222.851 207.214 222.546 207.121 222.189 207.155L220.708 207.295L220.947 209.83L222.429 209.69ZM228.396 206.021L228.448 206.564L226.678 206.731L227.171 211.95L226.594 212.004L226.102 206.785L224.332 206.953L224.281 206.409L228.396 206.021ZM234.128 210.521C233.606 211.151 232.928 211.506 232.094 211.585C231.26 211.663 230.528 211.442 229.897 210.92C229.266 210.393 228.911 209.715 228.833 208.886C228.755 208.058 228.977 207.328 229.498 206.697C230.02 206.061 230.697 205.704 231.532 205.625C232.366 205.547 233.098 205.771 233.729 206.298C234.36 206.82 234.714 207.495 234.792 208.324C234.871 209.152 234.649 209.885 234.128 210.521ZM230.263 210.487C230.768 210.91 231.361 211.089 232.041 211.025C232.722 210.961 233.27 210.674 233.687 210.164C234.104 209.648 234.28 209.053 234.216 208.378C234.153 207.703 233.868 207.154 233.363 206.731C232.858 206.303 232.265 206.121 231.584 206.185C230.904 206.249 230.355 206.539 229.939 207.054C229.522 207.564 229.346 208.157 229.409 208.832C229.473 209.507 229.758 210.058 230.263 210.487Z" fill="white"/>
<path d="M117.608 75.0672C117.158 75.1097 116.753 74.9956 116.394 74.7249C116.035 74.4542 115.835 74.1013 115.794 73.666C115.753 73.2307 115.883 72.8466 116.185 72.5135C116.487 72.1804 116.863 71.9926 117.314 71.9502C117.764 71.9077 118.165 72.0221 118.517 72.2935C118.876 72.5641 119.076 72.9171 119.117 73.3524C119.158 73.7876 119.027 74.1718 118.725 74.5049C118.43 74.8373 118.058 75.0247 117.608 75.0672ZM119.233 82.7015C119.271 83.1017 119.342 83.7431 119.446 84.6256C119.558 85.5076 119.633 86.1486 119.671 86.5488C119.709 86.956 119.604 87.3059 119.355 87.5985C119.105 87.8842 118.769 88.0469 118.347 88.0867C117.925 88.1266 117.565 88.0295 117.266 87.7957C116.967 87.5548 116.798 87.2307 116.759 86.8236C116.721 86.4234 116.647 85.7824 116.535 84.9004C116.431 84.0179 116.359 83.3765 116.322 82.9763C116.263 82.3515 116.224 81.5654 116.205 80.618C116.187 79.6707 116.148 78.8846 116.089 78.2598C116.051 77.8526 116.156 77.5062 116.406 77.2205C116.655 76.9279 116.991 76.7616 117.413 76.7218C117.835 76.682 118.195 76.7825 118.495 77.0234C118.794 77.2573 118.962 77.5778 119.001 77.985C119.06 78.6098 119.098 79.3959 119.117 80.3432C119.135 81.2906 119.174 82.0767 119.233 82.7015Z" fill="#FDFDFD"/>
<path d="M127.384 87.5419C126.779 87.5989 126.136 87.5888 125.455 87.5115L125.85 91.8089C125.888 92.2161 125.783 92.566 125.534 92.8587C125.285 93.1514 124.949 93.3176 124.527 93.3574C124.106 93.3973 123.745 93.2967 123.445 93.0558C123.146 92.815 122.977 92.4909 122.939 92.0837C122.908 91.7538 122.791 90.4438 122.589 88.1538C122.443 86.4536 122.312 85.067 122.196 83.9942C122.032 82.4798 121.86 81.1787 121.679 80.0908C121.431 78.5913 121.313 77.9048 121.325 78.0312C121.27 77.4485 121.353 76.9378 121.574 76.499C121.832 76.0001 122.218 75.7264 122.731 75.678C123.125 75.6408 123.468 75.743 123.76 75.9845C124.053 76.2261 124.217 76.5329 124.252 76.905L124.251 77.0113C124.697 76.7 125.15 76.459 125.609 76.2882C126.074 76.1096 126.546 75.9978 127.024 75.9527C128.642 75.8 129.888 76.373 130.762 77.6716C131.415 78.6512 131.819 79.9623 131.974 81.6051C132.12 83.1426 131.8 84.4583 131.017 85.5522C130.177 86.7293 128.966 87.3925 127.384 87.5419ZM127.29 78.7643C126.847 78.8062 126.407 78.9539 125.97 79.2077C125.532 79.4544 125.1 79.8068 124.675 80.2648C124.896 81.7031 125.075 83.1488 125.212 84.602C125.857 84.7465 126.493 84.7893 127.119 84.7302C127.843 84.6618 128.374 84.3531 128.713 83.8041C129.021 83.3076 129.137 82.6662 129.063 81.8799C128.974 80.9322 128.87 80.2797 128.751 79.9226C128.466 79.0854 127.979 78.6993 127.29 78.7643Z" fill="#FDFDFD"/>
<path d="M138.945 86.4507C138.34 86.5077 137.697 86.4976 137.016 86.4203L137.411 90.7177C137.449 91.1249 137.344 91.4748 137.095 91.7675C136.846 92.0602 136.51 92.2264 136.088 92.2662C135.666 92.3061 135.306 92.2055 135.006 91.9646C134.707 91.7238 134.538 91.3997 134.499 90.9925C134.468 90.6626 134.352 89.3526 134.15 87.0626C134.003 85.3624 133.873 83.9758 133.757 82.903C133.593 81.3886 133.42 80.0875 133.24 78.9996C132.992 77.5001 132.874 76.8136 132.886 76.94C132.831 76.3573 132.914 75.8466 133.135 75.4078C133.393 74.9089 133.778 74.6352 134.292 74.5868C134.686 74.5496 135.029 74.6518 135.321 74.8933C135.614 75.1349 135.777 75.4417 135.812 75.8138L135.812 75.9201C136.258 75.6088 136.71 75.3678 137.17 75.197C137.635 75.0184 138.107 74.9066 138.585 74.8615C140.203 74.7088 141.449 75.2818 142.323 76.5804C142.976 77.56 143.38 78.8711 143.535 80.5139C143.68 82.0514 143.361 83.3671 142.578 84.461C141.738 85.6381 140.527 86.3013 138.945 86.4507ZM138.851 77.6731C138.408 77.715 137.968 77.8627 137.53 78.1165C137.092 78.3632 136.661 78.7156 136.236 79.1736C136.457 80.6119 136.636 82.0576 136.773 83.5108C137.418 83.6553 138.054 83.6981 138.679 83.639C139.404 83.5706 139.935 83.2619 140.273 82.7129C140.581 82.2164 140.698 81.575 140.624 80.7887C140.535 79.841 140.43 79.1885 140.312 78.8314C140.027 77.9942 139.54 77.6081 138.851 77.6731Z" fill="#FDFDFD"/>
<path d="M149.978 85.4092C148.677 85.532 147.517 85.1918 146.498 84.3885C145.379 83.5095 144.718 82.258 144.515 80.6339C144.319 79.0871 144.614 77.6639 145.4 76.3644C146.333 74.8313 147.753 73.9749 149.659 73.795C151.065 73.6623 152.236 74.1183 153.172 75.1633C154.013 76.1039 154.504 77.3218 154.645 78.8172C154.799 80.4459 154.494 81.8771 153.731 83.1108C152.875 84.4878 151.624 85.2539 149.978 85.4092ZM149.784 76.588C148.918 76.6626 148.273 77.1202 147.849 77.9606C147.49 78.6674 147.353 79.4665 147.437 80.3581C147.516 81.2006 147.816 81.8239 148.337 82.2281C148.751 82.5503 149.21 82.6875 149.717 82.6397C150.329 82.5819 150.84 82.3247 151.251 81.868C151.719 81.3352 151.931 80.6529 151.888 79.8212C151.766 77.552 151.065 76.4742 149.784 76.588Z" fill="#FDFDFD"/>
<path d="M165.881 84.0562C165.277 84.1133 164.634 84.1032 163.952 84.0258L164.347 88.3233C164.386 88.7305 164.28 89.0804 164.031 89.3731C163.782 89.6658 163.447 89.832 163.025 89.8718C162.603 89.9116 162.242 89.8111 161.943 89.5702C161.643 89.3293 161.474 89.0053 161.436 88.5981C161.405 88.2682 161.288 86.9582 161.086 84.6682C160.94 82.9679 160.809 81.5814 160.694 80.5086C160.529 78.9942 160.357 77.693 160.176 76.6052C159.928 75.1057 159.81 74.4192 159.822 74.5456C159.767 73.9629 159.85 73.4521 160.071 73.0134C160.329 72.5145 160.715 72.2408 161.228 72.1923C161.622 72.1552 161.965 72.2574 162.258 72.4989C162.55 72.7405 162.714 73.0473 162.749 73.4194L162.748 73.5257C163.194 73.2144 163.647 72.9734 164.106 72.8025C164.572 72.624 165.044 72.5122 165.522 72.467C167.139 72.3144 168.385 72.8874 169.26 74.186C169.913 75.1656 170.317 76.4767 170.472 78.1195C170.617 79.657 170.298 80.9727 169.514 82.0666C168.675 83.2437 167.464 83.9069 165.881 84.0562ZM165.787 75.2787C165.344 75.3205 164.904 75.4683 164.467 75.7221C164.029 75.9688 163.598 76.3212 163.173 76.7792C163.393 78.2174 163.572 79.6632 163.71 81.1164C164.355 81.2609 164.99 81.3036 165.616 81.2446C166.34 81.1762 166.872 80.8675 167.21 80.3185C167.518 79.822 167.635 79.1806 167.561 78.3943C167.471 77.4465 167.367 76.7941 167.248 76.437C166.963 75.5998 166.476 75.2137 165.787 75.2787Z" fill="#FDFDFD"/>
<path d="M181.679 82.6395C181.355 82.67 180.809 82.3675 180.039 81.7318C179.422 82.1018 178.874 82.3872 178.396 82.5881C177.919 82.7961 177.509 82.9163 177.164 82.9488C175.469 83.1088 174.154 82.7761 173.217 81.9508C172.288 81.1248 171.738 79.8097 171.568 78.0054C171.408 76.3135 171.897 74.8082 173.036 73.4896C174.174 72.1639 175.614 71.4188 177.358 71.2542C178.026 71.1911 178.818 71.3077 179.733 71.6038C180.838 71.9599 181.419 72.4398 181.476 73.0436C181.499 73.2963 181.439 73.5251 181.296 73.7299C181.252 74.0174 181.229 74.3772 181.227 74.8094C181.232 75.234 181.261 75.7306 181.315 76.2992C181.441 77.6401 181.627 78.5965 181.873 79.1683C181.9 79.2295 182.096 79.5793 182.461 80.2177C182.793 80.7955 182.962 81.1266 182.97 81.2108C183.005 81.5829 182.89 81.9054 182.625 82.1783C182.367 82.4506 182.052 82.6043 181.679 82.6395ZM178.381 75.6624C178.36 75.4378 178.35 75.1802 178.351 74.8897C178.358 74.5915 178.376 74.2604 178.406 73.8964C178.259 73.8395 178.128 73.8023 178.012 73.7848C177.904 73.7597 177.81 73.7508 177.733 73.7581C176.777 73.8483 175.975 74.3029 175.329 75.1218C174.682 75.9337 174.405 76.831 174.498 77.8139C174.586 78.7546 174.822 79.4477 175.205 79.8933C175.587 80.3318 176.115 80.5192 176.79 80.4555C177.226 80.4143 177.631 80.3053 178.004 80.1284C178.384 79.9438 178.733 79.6948 179.051 79.3815C178.683 77.7305 178.459 76.4908 178.381 75.6624Z" fill="#FDFDFD"/>
<path d="M194.159 71.7827C193.543 73.4487 192.566 76.0659 191.229 79.6345C190.501 81.5518 189.959 83.1364 189.602 84.3884C189.496 84.8376 189.324 85.5054 189.089 86.3917C188.898 87.0756 188.479 87.448 187.832 87.5091C187.431 87.5469 187.067 87.4502 186.741 87.219C186.414 86.9878 186.232 86.6756 186.194 86.2824C186.133 85.6296 186.696 83.6251 187.883 80.269C186.966 78.8186 185.527 76.6914 183.567 73.8874C183.373 73.6366 183.175 73.3825 182.973 73.1253C182.753 72.8203 182.63 72.5344 182.605 72.2677C182.569 71.8886 182.689 71.5408 182.964 71.2244C183.239 70.9081 183.574 70.7313 183.968 70.6941C184.432 70.6503 184.81 70.7881 185.103 71.1076C186.227 72.3402 187.579 74.2276 189.16 76.7699C189.755 75.0351 190.117 73.988 190.247 73.6287C190.647 72.5356 191.049 71.5698 191.452 70.7313C191.707 70.1973 192.098 69.9054 192.626 69.8556C193.019 69.8185 193.384 69.9187 193.718 70.1562C194.053 70.3938 194.238 70.7057 194.275 71.0918C194.294 71.2954 194.255 71.5257 194.159 71.7827Z" fill="#FDFDFD"/>
<path d="M92.1144 77.9498L87.6018 78.3757C86.8793 78.4439 86.2363 77.9127 86.1682 77.1915C86.1001 76.4702 86.6324 75.828 87.3549 75.7598L93.7545 75.1558C94.1589 75.1176 94.4519 74.7641 94.4138 74.3605C94.3757 73.9568 94.0217 73.6643 93.6174 73.7025L90.9971 73.9498C90.2747 74.018 89.6316 73.4868 89.5635 72.7655C89.4954 72.0443 90.0277 71.4021 90.7502 71.3339L94.2547 71.0032C95.279 70.9065 96.3056 71.1788 97.1553 71.7666L111.006 81.4071C111.326 81.6267 111.363 82.0793 111.09 82.3549L99.2574 94.1535C98.5415 94.8673 97.5987 95.3092 96.5905 95.4044L91.3122 95.9026C90.5898 95.9708 89.9467 95.4396 89.8786 94.7183C89.8106 93.9971 90.3429 93.3549 91.0653 93.2867L95.2868 92.8883C95.7667 92.843 96.1237 92.4183 96.078 91.9338C96.0327 91.4548 95.6075 91.0985 95.1222 91.1443L92.502 91.3916C91.8604 91.4522 91.2881 90.9795 91.2277 90.3389C91.1672 89.6984 91.6409 89.127 92.2825 89.0664L96.3585 88.6817C97 88.6211 97.4737 88.0496 97.4133 87.4091C97.3528 86.7686 96.7806 86.2959 96.139 86.3564L94.9744 86.4663C94.3328 86.5269 93.7606 86.0542 93.7001 85.4136C93.6397 84.7731 94.1134 84.2017 94.755 84.1411L97.6663 83.8663C98.1462 83.821 98.5032 83.3963 98.4575 82.9119C98.4117 82.4275 97.987 82.0766 97.5017 82.1224L90.5198 82.7814C89.8782 82.8419 89.3059 82.3692 89.2455 81.7287C89.185 81.0882 89.6587 80.5167 90.3003 80.4561L92.3383 80.2638C92.9799 80.2032 93.4536 79.6318 93.3931 78.9912C93.3283 78.362 92.7614 77.8887 92.1144 77.9498Z" fill="#FDFDFD"/>
<path d="M84.1059 78.6241C84.8294 78.5558 85.3607 77.9148 85.2925 77.1925C85.2244 76.4701 84.5825 75.9399 83.859 76.0082C83.1354 76.0765 82.6041 76.7174 82.6723 77.4398C82.7405 78.1621 83.3823 78.6924 84.1059 78.6241Z" fill="#FDFDFD"/>
<path d="M88.8688 91.7399C89.5924 91.6716 90.1237 91.0306 90.0555 90.3082C89.9873 89.5859 89.3455 89.0557 88.6219 89.124C87.8983 89.1923 87.367 89.8332 87.4352 90.5556C87.5034 91.2779 88.1452 91.8082 88.8688 91.7399Z" fill="#FDFDFD"/>
<path d="M83.6873 81.0477L87.1809 80.7179C87.8225 80.6574 88.3948 81.1301 88.4552 81.7706C88.5157 82.4111 88.042 82.9826 87.4004 83.0432L83.9067 83.3729C83.2652 83.4335 82.6929 82.9607 82.6324 82.3202C82.572 81.6797 83.0403 81.1087 83.6873 81.0477Z" fill="#FDFDFD"/>
<path d="M87.4819 84.833L91.5579 84.4482C92.1995 84.3877 92.7717 84.8604 92.8322 85.5009C92.8927 86.1414 92.419 86.7129 91.7774 86.7735L87.7014 87.1582C87.0598 87.2188 86.4876 86.746 86.4271 86.1055C86.3667 85.465 86.8404 84.8935 87.4819 84.833Z" fill="#FDFDFD"/>
<rect x="92.2763" y="116.193" width="35.8828" height="27.0247" rx="5.35067" transform="rotate(-5.39207 92.2763 116.193)" fill="url(#paint1_linear_6513_255)" stroke="#666666" stroke-width="1.02616"/>
<path fill-rule="evenodd" clip-rule="evenodd" d="M105.595 132.684C105.947 136.15 109.608 139.976 111.987 141.1C112.032 141.118 112.073 141.146 112.108 141.182C112.142 141.217 112.168 141.259 112.185 141.306C112.201 141.352 112.208 141.401 112.204 141.45C112.201 141.499 112.187 141.547 112.164 141.59C112.136 141.648 112.093 141.698 112.041 141.735C111.988 141.772 111.927 141.795 111.862 141.802C111.797 141.808 111.731 141.796 111.672 141.767C109.136 140.58 105.458 136.76 104.899 133.081L93.8242 134.126C93.7317 134.126 93.6426 134.091 93.5743 134.029C93.506 133.967 93.4633 133.882 93.4546 133.79C93.446 133.698 93.4719 133.606 93.5274 133.532C93.5828 133.458 93.6639 133.408 93.7547 133.39L104.899 132.338C105.367 129.832 105.123 127.246 104.194 124.871L93.0499 125.923C92.9525 125.932 92.8554 125.903 92.7801 125.84C92.7047 125.778 92.6572 125.689 92.6481 125.591C92.6389 125.494 92.6688 125.397 92.7312 125.322C92.7936 125.247 92.8833 125.2 92.9808 125.19L104.055 124.145C103.915 120.413 106.828 115.984 109.084 114.345C109.165 114.288 109.266 114.265 109.364 114.281C109.462 114.298 109.55 114.352 109.607 114.433C109.665 114.514 109.688 114.615 109.672 114.712C109.655 114.81 109.6 114.898 109.519 114.955C107.391 116.487 104.511 120.934 104.814 124.408C105.87 127.033 106.141 129.908 105.595 132.684ZM115.834 119.64C114.342 117.257 112.183 115.479 110.813 114.834C110.723 114.792 110.653 114.717 110.618 114.624C110.583 114.53 110.587 114.427 110.629 114.337C110.67 114.247 110.746 114.177 110.84 114.142C110.933 114.108 111.036 114.111 111.127 114.153C112.921 114.987 115.112 117.082 116.458 119.229C116.49 119.27 116.512 119.317 116.523 119.367C116.534 119.417 116.534 119.469 116.523 119.519C116.512 119.569 116.49 119.616 116.459 119.656C116.427 119.697 116.388 119.73 116.342 119.754C116.294 119.786 116.239 119.806 116.182 119.812C116.113 119.818 116.045 119.805 115.983 119.775C115.922 119.745 115.87 119.698 115.834 119.64ZM129.766 129.991L118.601 131.045C117.672 128.671 117.428 126.085 117.896 123.578L129.061 122.525C129.159 122.515 129.248 122.468 129.311 122.393C129.373 122.318 129.403 122.221 129.394 122.124C129.385 122.026 129.337 121.937 129.262 121.875C129.186 121.812 129.089 121.783 128.992 121.792L117.543 122.872C117.464 122.881 117.389 122.915 117.331 122.969C117.272 123.024 117.233 123.096 117.219 123.174C116.662 125.971 116.936 128.87 118.006 131.513C118.309 134.984 115.429 139.427 113.302 140.976C113.259 141.002 113.223 141.036 113.194 141.077C113.166 141.118 113.147 141.164 113.138 141.213C113.129 141.261 113.13 141.312 113.142 141.36C113.154 141.408 113.175 141.453 113.206 141.492C113.244 141.544 113.295 141.585 113.354 141.612C113.413 141.638 113.477 141.649 113.541 141.644C113.607 141.638 113.669 141.613 113.722 141.574C115.979 139.953 118.89 135.492 118.75 131.774L129.835 130.728C129.926 130.71 130.007 130.659 130.063 130.586C130.118 130.512 130.144 130.42 130.135 130.328C130.127 130.236 130.084 130.151 130.016 130.089C129.948 130.026 129.858 129.992 129.766 129.991ZM109.929 116.282C110.03 116.199 110.154 116.149 110.284 116.137C110.458 116.12 110.632 116.173 110.767 116.285C110.902 116.396 110.987 116.556 111.003 116.73C111.015 116.86 110.989 116.991 110.927 117.105C110.865 117.22 110.77 117.314 110.654 117.375C110.539 117.436 110.408 117.461 110.278 117.448C110.148 117.435 110.025 117.383 109.924 117.3C109.824 117.217 109.75 117.106 109.713 116.981C109.675 116.856 109.676 116.723 109.714 116.599C109.753 116.474 109.827 116.364 109.929 116.282Z" fill="#666666"/>
<g clip-path="url(#clip0_6513_255)">
<path d="M403.726 231.042L398.051 231.577L399.415 208.084L405.09 207.548L403.726 231.042Z" fill="white"/>
<path d="M422.168 206.507C421.005 206.144 419.18 205.795 416.985 206.002C411.38 206.531 407.731 210.057 408.132 214.567C408.4 217.898 411.446 219.474 413.699 220.381C416.002 221.307 416.818 221.976 416.914 222.986C417.038 224.54 415.353 225.42 413.719 225.574C411.453 225.788 410.204 225.534 408.278 224.845L407.496 224.546L407.192 229.819C408.584 230.333 411.09 230.67 413.638 230.454C419.593 229.892 423.177 226.422 422.77 221.613C422.543 218.975 420.836 217.098 417.41 215.756C415.325 214.883 414.042 214.284 413.94 213.2C413.87 212.212 414.78 211.107 417.021 210.896C418.861 210.672 420.261 211.012 421.332 211.384L421.868 211.581L422.168 206.507V206.507Z" fill="white"/>
<path d="M431.07 220.183C431.412 218.809 432.724 213.49 432.724 213.49C432.705 213.542 433.063 212.091 433.262 211.202L433.847 213.16C433.847 213.16 435.445 218.602 435.787 219.738C434.9 219.822 432.191 220.078 431.07 220.183ZM436.664 204.568L432.274 204.982C430.92 205.11 429.931 205.626 429.489 207.184L423.063 229.216L429.018 228.654C429.018 228.654 429.729 225.703 429.882 225.068C430.535 225.006 436.328 224.459 437.169 224.38C437.408 225.178 438.174 227.79 438.174 227.79L443.429 227.294L436.664 204.568V204.568Z" fill="white"/>
<path d="M391.124 208.866L387.057 225.183L386.147 222.037C384.771 218.439 381.169 214.728 377.384 213.071L384.387 232.842L390.388 232.276L397.126 208.3L391.124 208.866V208.866Z" fill="white"/>
<path d="M380.406 209.879L371.274 210.741L371.225 211.218C378.529 212.467 383.684 216.654 386.148 222.039L383.158 211.583C382.692 210.135 381.648 209.811 380.406 209.879Z" fill="white"/>
</g>
<path d="M141.511 122.762C141.424 122.663 141.358 122.548 141.315 122.423C141.272 122.298 141.253 122.165 141.26 122.033C141.274 121.766 141.39 121.516 141.584 121.338C141.778 121.16 142.034 121.069 142.295 121.084C142.555 121.099 142.8 121.22 142.974 121.42C143.384 121.884 143.719 122.411 143.968 122.981C144.226 123.573 144.389 124.204 144.448 124.849C144.51 125.491 144.468 126.14 144.325 126.768C144.187 127.375 143.957 127.955 143.642 128.487C143.507 128.716 143.29 128.881 143.037 128.945C142.783 129.008 142.515 128.967 142.291 128.828C142.067 128.689 141.906 128.466 141.842 128.206C141.779 127.946 141.819 127.672 141.953 127.443C142.161 127.094 142.314 126.713 142.407 126.315C142.506 125.896 142.537 125.463 142.499 125.033C142.46 124.605 142.353 124.187 142.183 123.794C142.014 123.416 141.787 123.067 141.511 122.762V122.762ZM144.688 120.574C145.57 121.769 146.109 123.19 146.245 124.679C146.392 126.164 146.131 127.659 145.493 128.997C145.435 129.115 145.402 129.244 145.394 129.376C145.385 129.509 145.402 129.641 145.444 129.767C145.486 129.892 145.551 130.008 145.637 130.108C145.722 130.208 145.826 130.29 145.942 130.349C146.058 130.408 146.184 130.443 146.313 130.452C146.442 130.461 146.571 130.444 146.693 130.402C146.816 130.36 146.929 130.294 147.026 130.207C147.123 130.12 147.202 130.014 147.259 129.895C148.06 128.223 148.386 126.352 148.2 124.494C148.035 122.633 147.365 120.855 146.265 119.36C146.187 119.254 146.089 119.165 145.977 119.098C145.866 119.031 145.742 118.986 145.614 118.968C145.486 118.949 145.356 118.957 145.231 118.99C145.106 119.023 144.988 119.081 144.886 119.161C144.783 119.24 144.696 119.34 144.631 119.454C144.566 119.568 144.523 119.695 144.506 119.826C144.488 119.957 144.496 120.091 144.529 120.219C144.562 120.347 144.619 120.468 144.697 120.573L144.688 120.574ZM148.079 118.347C149.313 120.105 150.069 122.166 150.271 124.319C150.475 126.469 150.117 128.634 149.234 130.591C149.18 130.711 149.149 130.841 149.144 130.973C149.139 131.105 149.159 131.238 149.203 131.362C149.248 131.487 149.316 131.602 149.403 131.699C149.491 131.797 149.596 131.877 149.714 131.933C149.831 131.989 149.958 132.021 150.087 132.027C150.216 132.033 150.345 132.013 150.467 131.968C150.588 131.923 150.7 131.854 150.795 131.765C150.89 131.676 150.967 131.568 151.021 131.448C152.054 129.169 152.472 126.645 152.231 124.139C152.002 121.622 151.12 119.211 149.677 117.155C149.522 116.937 149.289 116.791 149.029 116.748C148.77 116.706 148.505 116.771 148.293 116.929C148.081 117.087 147.939 117.325 147.899 117.591C147.859 117.857 147.923 118.129 148.079 118.347V118.347ZM151.453 116.096C153.045 118.416 154.02 121.121 154.281 123.94C154.552 126.757 154.1 129.594 152.97 132.171C152.918 132.291 152.889 132.421 152.886 132.553C152.883 132.685 152.905 132.816 152.952 132.939C152.998 133.063 153.068 133.176 153.157 133.272C153.246 133.367 153.352 133.445 153.47 133.499C153.588 133.553 153.714 133.582 153.843 133.586C153.972 133.59 154.1 133.568 154.22 133.521C154.34 133.474 154.45 133.403 154.543 133.312C154.636 133.222 154.711 133.113 154.763 132.992C156.033 130.096 156.541 126.907 156.239 123.741C155.946 120.565 154.849 117.518 153.056 114.904C152.907 114.684 152.68 114.534 152.423 114.487C152.167 114.439 151.904 114.497 151.691 114.649C151.477 114.8 151.332 115.032 151.286 115.295C151.241 115.557 151.299 115.827 151.448 116.046" fill="white"/>
</g>
<defs>
<filter id="filter0_d_6513_255" x="0.219971" y="0.219971" width="527.62" height="375.962" filterUnits="userSpaceOnUse" color-interpolation-filters="sRGB">
<feFlood flood-opacity="0" result="BackgroundImageFix"/>
<feColorMatrix in="SourceAlpha" type="matrix" values="0 0 0 0 0 0 0 0 0 0 0 0 0 0 0 0 0 0 127 0" result="hardAlpha"/>
<feOffset dy="35"/>
<feGaussianBlur stdDeviation="28"/>
<feComposite in2="hardAlpha" operator="out"/>
<feColorMatrix type="matrix" values="0 0 0 0 0 0 0 0 0 0 0 0 0 0 0 0 0 0 0.12 0"/>
<feBlend mode="normal" in2="BackgroundImageFix" result="effect1_dropShadow_6513_255"/>
<feBlend mode="normal" in="SourceGraphic" in2="effect1_dropShadow_6513_255" result="shape"/>
</filter>
<linearGradient id="paint0_linear_6513_255" x1="58.6609" y1="61.2753" x2="436.559" y2="24.1306" gradientUnits="userSpaceOnUse">
<stop stop-color="#144378"/>
<stop offset="0.515625" stop-color="#1C5CA7"/>
<stop offset="1" stop-color="#144378"/>
</linearGradient>
<linearGradient id="paint1_linear_6513_255" x1="88.2021" y1="115.731" x2="131.55" y2="143.881" gradientUnits="userSpaceOnUse">
<stop stop-color="#DDD9D6"/>
<stop offset="0.212761" stop-color="#8A868C"/>
<stop offset="0.548384" stop-color="#F2F3F3" stop-opacity="0.8"/>
<stop offset="0.914316" stop-color="#807C80"/>
<stop offset="1" stop-color="#A6A8AB"/>
</linearGradient>
<clipPath id="clip0_6513_255">
<rect width="70.3731" height="24.0299" fill="white" transform="translate(371.141 210.329) rotate(-5.39207)"/>
</clipPath>
</defs>
</svg>
