<svg width="512" height="390" viewBox="0 0 512 390" fill="none" xmlns="http://www.w3.org/2000/svg">
<path d="M73 25.9848C73 11.6338 84.6338 0 98.9848 0H413.015C427.366 0 439 11.6338 439 25.9848V390H73V25.9848Z" fill="url(#paint0_linear_3835_1083)"/>
<g clip-path="url(#clip0_3835_1083)">
<path d="M83 39.1817C83 24.4825 83 17.1329 87.5665 12.5665C92.1329 8 99.4825 8 114.182 8H397.818C412.517 8 419.867 8 424.434 12.5665C429 17.1329 429 24.4825 429 39.1817V368H83V39.1817Z" fill="url(#paint1_linear_3835_1083)"/>
<rect x="83" y="-15.3863" width="346.897" height="87.049" fill="white"/>
<path d="M147.829 49.4065C146.269 49.4065 144.978 48.8913 143.957 47.8609C142.947 46.8304 142.441 45.5645 142.441 44.063C142.441 42.5615 142.947 41.2955 143.957 40.2651C144.978 39.2347 146.269 38.7195 147.829 38.7195C148.771 38.7195 149.635 38.9452 150.42 39.3966C151.215 39.848 151.833 40.4565 152.274 41.2219L151.082 41.9138C150.788 41.3446 150.346 40.8932 149.757 40.5595C149.178 40.216 148.535 40.0443 147.829 40.0443C146.641 40.0443 145.67 40.427 144.914 41.1925C144.168 41.958 143.795 42.9148 143.795 44.063C143.795 45.2014 144.168 46.1533 144.914 46.9188C145.67 47.6842 146.641 48.067 147.829 48.067C148.535 48.067 149.178 47.9001 149.757 47.5665C150.346 47.223 150.788 46.7716 151.082 46.2122L152.274 46.8893C151.843 47.6548 151.229 48.2681 150.434 48.7294C149.64 49.1808 148.771 49.4065 147.829 49.4065ZM157.401 41.6636C158.265 41.6636 158.956 41.9383 159.477 42.4879C159.997 43.0277 160.257 43.7637 160.257 44.696V49.2151H158.976V44.7696C158.976 44.1709 158.814 43.7097 158.49 43.3859C158.166 43.0522 157.72 42.8854 157.151 42.8854C156.513 42.8854 155.998 43.0865 155.605 43.4889C155.213 43.8814 155.016 44.4899 155.016 45.3142V49.2151H153.736V38.9108H155.016V42.9148C155.536 42.0806 156.331 41.6636 157.401 41.6636ZM168.257 48.2878C167.501 49.0336 166.583 49.4065 165.504 49.4065C164.424 49.4065 163.507 49.0336 162.751 48.2878C162.005 47.5419 161.632 46.6244 161.632 45.535C161.632 44.4457 162.005 43.5281 162.751 42.7823C163.507 42.0365 164.424 41.6636 165.504 41.6636C166.583 41.6636 167.501 42.0365 168.257 42.7823C169.012 43.5281 169.39 44.4457 169.39 45.535C169.39 46.6244 169.012 47.5419 168.257 48.2878ZM165.504 48.1553C166.24 48.1553 166.858 47.905 167.359 47.4045C167.859 46.904 168.109 46.2809 168.109 45.535C168.109 44.7892 167.859 44.166 167.359 43.6655C166.858 43.165 166.24 42.9148 165.504 42.9148C164.778 42.9148 164.164 43.165 163.664 43.6655C163.163 44.166 162.913 44.7892 162.913 45.535C162.913 46.2809 163.163 46.904 163.664 47.4045C164.164 47.905 164.778 48.1553 165.504 48.1553ZM177.112 48.2878C176.356 49.0336 175.439 49.4065 174.359 49.4065C173.28 49.4065 172.362 49.0336 171.606 48.2878C170.861 47.5419 170.488 46.6244 170.488 45.535C170.488 44.4457 170.861 43.5281 171.606 42.7823C172.362 42.0365 173.28 41.6636 174.359 41.6636C175.439 41.6636 176.356 42.0365 177.112 42.7823C177.868 43.5281 178.245 44.4457 178.245 45.535C178.245 46.6244 177.868 47.5419 177.112 48.2878ZM174.359 48.1553C175.095 48.1553 175.713 47.905 176.214 47.4045C176.714 46.904 176.965 46.2809 176.965 45.535C176.965 44.7892 176.714 44.166 176.214 43.6655C175.713 43.165 175.095 42.9148 174.359 42.9148C173.633 42.9148 173.02 43.165 172.519 43.6655C172.019 44.166 171.768 44.7892 171.768 45.535C171.768 46.2809 172.019 46.904 172.519 47.4045C173.02 47.905 173.633 48.1553 174.359 48.1553ZM180.701 43.8422C180.701 44.1268 180.843 44.3574 181.128 44.534C181.413 44.7009 181.756 44.8383 182.158 44.9462C182.561 45.0444 182.963 45.1621 183.365 45.2995C183.768 45.4271 184.111 45.6528 184.396 45.9767C184.68 46.2907 184.823 46.698 184.823 47.1984C184.823 47.8658 184.563 48.4006 184.043 48.803C183.532 49.2053 182.875 49.4065 182.07 49.4065C181.354 49.4065 180.74 49.2495 180.23 48.9355C179.72 48.6214 179.357 48.2043 179.141 47.6842L180.245 47.0512C180.362 47.4045 180.583 47.6842 180.907 47.8903C181.231 48.0964 181.619 48.1994 182.07 48.1994C182.492 48.1994 182.84 48.1209 183.115 47.9639C183.39 47.7971 183.527 47.5419 183.527 47.1984C183.527 46.9139 183.385 46.6881 183.1 46.5213C182.816 46.3447 182.472 46.2073 182.07 46.1091C181.668 46.0012 181.265 45.8785 180.863 45.7411C180.461 45.6037 180.117 45.378 179.833 45.064C179.548 44.7499 179.406 44.3476 179.406 43.8569C179.406 43.219 179.651 42.694 180.142 42.2818C180.642 41.8696 181.265 41.6636 182.011 41.6636C182.61 41.6636 183.14 41.8009 183.601 42.0757C184.072 42.3407 184.425 42.7136 184.661 43.1945L183.586 43.798C183.321 43.17 182.796 42.8559 182.011 42.8559C181.648 42.8559 181.339 42.9442 181.084 43.1209C180.829 43.2877 180.701 43.5281 180.701 43.8422ZM187.036 46.1239C187.163 46.7814 187.463 47.2917 187.934 47.6548C188.415 48.0179 189.003 48.1994 189.7 48.1994C190.672 48.1994 191.378 47.8412 191.82 47.1248L192.909 47.7431C192.193 48.852 191.113 49.4065 189.671 49.4065C188.503 49.4065 187.551 49.0434 186.815 48.3172C186.089 47.5812 185.726 46.6538 185.726 45.535C185.726 44.4261 186.084 43.5036 186.8 42.7676C187.517 42.0316 188.444 41.6636 189.582 41.6636C190.662 41.6636 191.54 42.0463 192.217 42.8118C192.904 43.5674 193.248 44.4801 193.248 45.5498C193.248 45.7362 193.233 45.9276 193.204 46.1239H187.036ZM189.582 42.8706C188.895 42.8706 188.326 43.0669 187.875 43.4595C187.423 43.8422 187.144 44.3574 187.036 45.0051H191.952C191.844 44.3083 191.57 43.7784 191.128 43.4153C190.686 43.0522 190.171 42.8706 189.582 42.8706ZM204.421 43.8716C204.892 44.0973 205.265 44.4212 205.539 44.8432C205.824 45.2652 205.966 45.7509 205.966 46.3005C205.966 47.1248 205.677 47.8167 205.098 48.3761C204.519 48.9355 203.812 49.2151 202.978 49.2151H198.533V38.9108H202.654C203.459 38.9108 204.141 39.1807 204.7 39.7205C205.26 40.2602 205.539 40.9275 205.539 41.7224C205.539 42.6351 205.167 43.3515 204.421 43.8716ZM202.654 40.1915H199.902V43.3417H202.654C203.086 43.3417 203.449 43.1896 203.744 42.8854C204.038 42.5811 204.185 42.2082 204.185 41.7666C204.185 41.3348 204.033 40.9668 203.729 40.6626C203.434 40.3485 203.076 40.1915 202.654 40.1915ZM202.978 47.9345C203.439 47.9345 203.827 47.7725 204.141 47.4487C204.455 47.1248 204.612 46.7274 204.612 46.2563C204.612 45.7951 204.45 45.4026 204.126 45.0787C203.812 44.7549 203.43 44.5929 202.978 44.5929H199.902V47.9345H202.978ZM208.398 46.1239C208.525 46.7814 208.825 47.2917 209.296 47.6548C209.776 48.0179 210.365 48.1994 211.062 48.1994C212.034 48.1994 212.74 47.8412 213.182 47.1248L214.271 47.7431C213.555 48.852 212.475 49.4065 211.033 49.4065C209.865 49.4065 208.913 49.0434 208.177 48.3172C207.451 47.5812 207.088 46.6538 207.088 45.535C207.088 44.4261 207.446 43.5036 208.162 42.7676C208.879 42.0316 209.806 41.6636 210.944 41.6636C212.024 41.6636 212.902 42.0463 213.579 42.8118C214.266 43.5674 214.61 44.4801 214.61 45.5498C214.61 45.7362 214.595 45.9276 214.566 46.1239H208.398ZM210.944 42.8706C210.257 42.8706 209.688 43.0669 209.237 43.4595C208.785 43.8422 208.506 44.3574 208.398 45.0051H213.314C213.206 44.3083 212.932 43.7784 212.49 43.4153C212.048 43.0522 211.533 42.8706 210.944 42.8706ZM219.747 41.6636C220.611 41.6636 221.303 41.9383 221.823 42.4879C222.343 43.0277 222.603 43.7637 222.603 44.696V49.2151H221.322V44.7696C221.322 44.1709 221.16 43.7097 220.837 43.3859C220.513 43.0522 220.066 42.8854 219.497 42.8854C218.859 42.8854 218.344 43.0865 217.951 43.4889C217.559 43.8814 217.363 44.4899 217.363 45.3142V49.2151H216.082V41.8549H217.363V42.9148C217.883 42.0806 218.678 41.6636 219.747 41.6636ZM225.289 46.1239C225.416 46.7814 225.716 47.2917 226.187 47.6548C226.668 48.0179 227.256 48.1994 227.953 48.1994C228.925 48.1994 229.631 47.8412 230.073 47.1248L231.162 47.7431C230.446 48.852 229.366 49.4065 227.924 49.4065C226.756 49.4065 225.804 49.0434 225.068 48.3172C224.342 47.5812 223.979 46.6538 223.979 45.535C223.979 44.4261 224.337 43.5036 225.053 42.7676C225.77 42.0316 226.697 41.6636 227.835 41.6636C228.915 41.6636 229.793 42.0463 230.47 42.8118C231.157 43.5674 231.501 44.4801 231.501 45.5498C231.501 45.7362 231.486 45.9276 231.457 46.1239H225.289ZM227.835 42.8706C227.148 42.8706 226.579 43.0669 226.128 43.4595C225.676 43.8422 225.397 44.3574 225.289 45.0051H230.205C230.097 44.3083 229.823 43.7784 229.381 43.4153C228.939 43.0522 228.424 42.8706 227.835 42.8706ZM238.601 41.8549V49.2151H237.321V43.0914H234.597V49.2151H233.317V43.0914H232.139V41.8549H233.317V41.6341C233.317 39.691 234.391 38.7195 236.541 38.7195C236.943 38.7195 237.448 38.7833 238.057 38.9108V40.0738C237.458 39.9952 236.953 39.956 236.541 39.956C235.873 39.956 235.383 40.0836 235.068 40.3387C234.754 40.5841 234.597 41.0159 234.597 41.6341V41.8549H238.601ZM244.023 49.4065C242.914 49.4065 241.991 49.0385 241.255 48.3025C240.519 47.5566 240.151 46.6342 240.151 45.535C240.151 44.4359 240.519 43.5183 241.255 42.7823C241.991 42.0365 242.914 41.6636 244.023 41.6636C244.749 41.6636 245.401 41.8402 245.98 42.1935C246.559 42.537 246.991 43.0031 247.276 43.5919L246.201 44.2102C246.015 43.8177 245.725 43.5036 245.333 43.2681C244.95 43.0326 244.513 42.9148 244.023 42.9148C243.287 42.9148 242.668 43.165 242.168 43.6655C241.677 44.166 241.432 44.7892 241.432 45.535C241.432 46.2711 241.677 46.8893 242.168 47.3898C242.668 47.8903 243.287 48.1406 244.023 48.1406C244.513 48.1406 244.955 48.0277 245.347 47.802C245.74 47.5665 246.039 47.2524 246.245 46.8599L247.335 47.4929C247.021 48.0719 246.569 48.538 245.98 48.8913C245.392 49.2348 244.739 49.4065 244.023 49.4065ZM249.247 40.5154C249.001 40.5154 248.795 40.4319 248.629 40.2651C248.462 40.0983 248.378 39.8971 248.378 39.6616C248.378 39.4261 248.462 39.2249 248.629 39.058C248.795 38.8814 249.001 38.7931 249.247 38.7931C249.482 38.7931 249.684 38.8814 249.85 39.058C250.017 39.2249 250.101 39.4261 250.101 39.6616C250.101 39.8971 250.017 40.0983 249.85 40.2651C249.684 40.4319 249.482 40.5154 249.247 40.5154ZM248.599 49.2151V41.8549H249.88V49.2151H248.599ZM257.928 41.8549H259.209V49.2151H257.928V47.9492C257.29 48.9207 256.363 49.4065 255.146 49.4065C254.115 49.4065 253.237 49.0336 252.511 48.2878C251.785 47.5321 251.421 46.6145 251.421 45.535C251.421 44.4555 251.785 43.5429 252.511 42.797C253.237 42.0414 254.115 41.6636 255.146 41.6636C256.363 41.6636 257.29 42.1493 257.928 43.1209V41.8549ZM255.308 48.17C256.053 48.17 256.677 47.9197 257.177 47.4193C257.678 46.9089 257.928 46.2809 257.928 45.535C257.928 44.7892 257.678 44.166 257.177 43.6655C256.677 43.1552 256.053 42.9001 255.308 42.9001C254.572 42.9001 253.953 43.1552 253.453 43.6655C252.952 44.166 252.702 44.7892 252.702 45.535C252.702 46.2809 252.952 46.9089 253.453 47.4193C253.953 47.9197 254.572 48.17 255.308 48.17ZM262.43 43.0914C262.852 42.1788 263.617 41.7224 264.726 41.7224V43.062C264.098 43.0326 263.558 43.1994 263.107 43.5625C262.655 43.9256 262.43 44.5095 262.43 45.3142V49.2151H261.149V41.8549H262.43V43.0914ZM271.275 41.8549H272.644L269.641 49.6715C269.327 50.5056 268.885 51.1386 268.316 51.5704C267.756 52.012 267.109 52.2083 266.373 52.1592V50.9669C267.276 51.0356 267.938 50.5351 268.36 49.4654L268.492 49.1857L265.283 41.8549H266.652L269.155 47.6253L271.275 41.8549Z" fill="#303030"/>
<rect x="97.292" y="87.2537" width="316.107" height="51.6093" fill="white"/>
<g clip-path="url(#clip1_3835_1083)">
<path d="M124.968 117.313L128.916 121.259L127.612 122.563L123.665 118.616C122.197 119.793 120.371 120.434 118.489 120.431C113.91 120.431 110.194 116.715 110.194 112.137C110.194 107.558 113.91 103.842 118.489 103.842C123.067 103.842 126.783 107.558 126.783 112.137C126.786 114.018 126.145 115.845 124.968 117.313ZM123.12 116.629C124.289 115.427 124.942 113.814 124.94 112.137C124.94 108.572 122.052 105.685 118.489 105.685C114.924 105.685 112.038 108.572 112.038 112.137C112.038 115.7 114.924 118.588 118.489 118.588C120.166 118.59 121.779 117.937 122.981 116.768L123.12 116.629V116.629Z" fill="#606060"/>
</g>
<path d="M147.796 118.019C146.852 118.019 146.041 117.798 145.363 117.356C144.694 116.904 144.227 116.284 143.962 115.498L144.847 114.982C145.033 115.621 145.377 116.122 145.879 116.486C146.38 116.84 147.024 117.017 147.81 117.017C148.577 117.017 149.172 116.849 149.595 116.515C150.027 116.171 150.243 115.719 150.243 115.159C150.243 114.618 150.047 114.21 149.654 113.935C149.26 113.66 148.612 113.374 147.707 113.08C146.636 112.726 145.928 112.441 145.584 112.224C144.797 111.752 144.404 111.069 144.404 110.175C144.404 109.3 144.709 108.612 145.318 108.11C145.928 107.599 146.68 107.344 147.575 107.344C148.381 107.344 149.079 107.555 149.668 107.978C150.258 108.39 150.696 108.921 150.981 109.57L150.111 110.057C149.639 108.916 148.793 108.346 147.575 108.346C146.936 108.346 146.419 108.504 146.026 108.818C145.633 109.133 145.436 109.57 145.436 110.13C145.436 110.642 145.613 111.025 145.967 111.281C146.321 111.536 146.906 111.797 147.722 112.062C148.096 112.19 148.361 112.283 148.518 112.342C148.685 112.391 148.921 112.48 149.226 112.608C149.541 112.726 149.772 112.834 149.919 112.932C150.067 113.021 150.243 113.148 150.45 113.315C150.666 113.473 150.819 113.635 150.907 113.802C151.005 113.959 151.089 114.156 151.158 114.392C151.236 114.618 151.276 114.864 151.276 115.129C151.276 116.004 150.956 116.707 150.317 117.238C149.678 117.759 148.838 118.019 147.796 118.019ZM156.45 110.293C157.542 110.293 158.421 110.681 159.09 111.458C159.768 112.224 160.107 113.134 160.107 114.185C160.107 114.294 160.097 114.446 160.078 114.643H153.605C153.703 115.39 154.017 115.984 154.548 116.427C155.089 116.859 155.752 117.076 156.539 117.076C157.099 117.076 157.581 116.963 157.984 116.736C158.397 116.501 158.706 116.196 158.913 115.822L159.768 116.324C159.444 116.845 159.001 117.257 158.441 117.562C157.881 117.867 157.242 118.019 156.524 118.019C155.364 118.019 154.42 117.656 153.693 116.928C152.966 116.201 152.602 115.277 152.602 114.156C152.602 113.055 152.961 112.136 153.678 111.399C154.396 110.661 155.32 110.293 156.45 110.293ZM156.45 111.236C155.684 111.236 155.04 111.467 154.519 111.929C154.008 112.382 153.703 112.971 153.605 113.699H159.105C159.006 112.922 158.706 112.318 158.205 111.885C157.704 111.453 157.119 111.236 156.45 111.236ZM167.996 110.47H168.969V117.842H167.996V116.397C167.318 117.479 166.325 118.019 165.017 118.019C163.965 118.019 163.066 117.646 162.319 116.899C161.582 116.152 161.213 115.237 161.213 114.156C161.213 113.075 161.582 112.16 162.319 111.413C163.066 110.666 163.965 110.293 165.017 110.293C166.325 110.293 167.318 110.833 167.996 111.915V110.47ZM163.027 116.235C163.587 116.795 164.275 117.076 165.091 117.076C165.907 117.076 166.595 116.795 167.155 116.235C167.716 115.665 167.996 114.972 167.996 114.156C167.996 113.34 167.716 112.652 167.155 112.092C166.595 111.521 165.907 111.236 165.091 111.236C164.275 111.236 163.587 111.521 163.027 112.092C162.466 112.652 162.186 113.34 162.186 114.156C162.186 114.972 162.466 115.665 163.027 116.235ZM172.003 111.693C172.455 110.799 173.232 110.352 174.333 110.352V111.295C173.664 111.295 173.109 111.492 172.666 111.885C172.224 112.278 172.003 112.898 172.003 113.743V117.842H171.03V110.47H172.003V111.693ZM178.656 118.019C177.545 118.019 176.621 117.651 175.884 116.913C175.146 116.166 174.778 115.247 174.778 114.156C174.778 113.065 175.146 112.151 175.884 111.413C176.621 110.666 177.545 110.293 178.656 110.293C179.383 110.293 180.037 110.47 180.617 110.823C181.197 111.168 181.62 111.634 181.885 112.224L181.089 112.681C180.892 112.239 180.573 111.89 180.13 111.634C179.698 111.369 179.206 111.236 178.656 111.236C177.84 111.236 177.152 111.521 176.591 112.092C176.031 112.652 175.751 113.34 175.751 114.156C175.751 114.972 176.031 115.665 176.591 116.235C177.152 116.795 177.84 117.076 178.656 117.076C179.206 117.076 179.698 116.948 180.13 116.692C180.563 116.427 180.902 116.073 181.148 115.631L181.959 116.102C181.654 116.692 181.207 117.159 180.617 117.503C180.027 117.847 179.373 118.019 178.656 118.019ZM186.806 110.293C187.701 110.293 188.404 110.568 188.915 111.118C189.436 111.659 189.697 112.391 189.697 113.315V117.842H188.723V113.315C188.723 112.657 188.546 112.146 188.193 111.782C187.848 111.418 187.357 111.236 186.718 111.236C186.01 111.236 185.435 111.462 184.993 111.915C184.55 112.357 184.329 113.045 184.329 113.979V117.842H183.356V107.52H184.329V111.62C184.88 110.735 185.705 110.293 186.806 110.293ZM201.133 112.49C201.635 112.706 202.033 113.035 202.328 113.478C202.633 113.91 202.785 114.407 202.785 114.967C202.785 115.763 202.505 116.442 201.944 117.002C201.384 117.562 200.706 117.842 199.91 117.842H195.412V107.52H199.57C200.337 107.52 200.991 107.796 201.532 108.346C202.072 108.887 202.343 109.536 202.343 110.293C202.343 111.256 201.94 111.988 201.133 112.49ZM199.57 108.494H196.444V112.092H199.57C200.052 112.092 200.46 111.92 200.794 111.576C201.138 111.222 201.31 110.794 201.31 110.293C201.31 109.801 201.138 109.378 200.794 109.025C200.46 108.671 200.052 108.494 199.57 108.494ZM199.91 116.869C200.421 116.869 200.853 116.687 201.207 116.324C201.571 115.95 201.753 115.498 201.753 114.967C201.753 114.446 201.571 113.999 201.207 113.625C200.853 113.252 200.421 113.065 199.91 113.065H196.444V116.869H199.91ZM207.815 110.293C208.906 110.293 209.786 110.681 210.454 111.458C211.133 112.224 211.472 113.134 211.472 114.185C211.472 114.294 211.462 114.446 211.442 114.643H204.969C205.067 115.39 205.382 115.984 205.913 116.427C206.453 116.859 207.117 117.076 207.903 117.076C208.464 117.076 208.945 116.963 209.348 116.736C209.761 116.501 210.071 116.196 210.277 115.822L211.133 116.324C210.808 116.845 210.366 117.257 209.806 117.562C209.245 117.867 208.606 118.019 207.889 118.019C206.729 118.019 205.785 117.656 205.057 116.928C204.33 116.201 203.966 115.277 203.966 114.156C203.966 113.055 204.325 112.136 205.043 111.399C205.76 110.661 206.684 110.293 207.815 110.293ZM207.815 111.236C207.048 111.236 206.404 111.467 205.883 111.929C205.372 112.382 205.067 112.971 204.969 113.699H210.469C210.371 112.922 210.071 112.318 209.57 111.885C209.068 111.453 208.483 111.236 207.815 111.236ZM216.47 110.293C217.365 110.293 218.068 110.568 218.579 111.118C219.1 111.659 219.36 112.391 219.36 113.315V117.842H218.387V113.315C218.387 112.657 218.21 112.146 217.856 111.782C217.512 111.418 217.021 111.236 216.382 111.236C215.674 111.236 215.099 111.462 214.657 111.915C214.214 112.357 213.993 113.045 213.993 113.979V117.842H213.02V110.47H213.993V111.62C214.543 110.735 215.369 110.293 216.47 110.293ZM224.648 110.293C225.74 110.293 226.619 110.681 227.288 111.458C227.966 112.224 228.305 113.134 228.305 114.185C228.305 114.294 228.295 114.446 228.276 114.643H221.802C221.901 115.39 222.215 115.984 222.746 116.427C223.287 116.859 223.95 117.076 224.737 117.076C225.297 117.076 225.779 116.963 226.182 116.736C226.595 116.501 226.904 116.196 227.111 115.822L227.966 116.324C227.642 116.845 227.199 117.257 226.639 117.562C226.079 117.867 225.44 118.019 224.722 118.019C223.562 118.019 222.618 117.656 221.891 116.928C221.163 116.201 220.8 115.277 220.8 114.156C220.8 113.055 221.159 112.136 221.876 111.399C222.594 110.661 223.518 110.293 224.648 110.293ZM224.648 111.236C223.882 111.236 223.238 111.467 222.717 111.929C222.206 112.382 221.901 112.971 221.802 113.699H227.303C227.204 112.922 226.904 112.318 226.403 111.885C225.902 111.453 225.317 111.236 224.648 111.236ZM235.182 110.47V117.842H234.208V111.413H231.2V117.842H230.227V111.413H228.974V110.47H230.227V110.175C230.227 108.287 231.259 107.344 233.324 107.344C233.737 107.344 234.208 107.403 234.739 107.52V108.405C234.277 108.327 233.805 108.287 233.324 108.287C232.586 108.287 232.046 108.43 231.702 108.715C231.367 109 231.2 109.487 231.2 110.175V110.47H235.182ZM240.676 118.019C239.565 118.019 238.641 117.651 237.904 116.913C237.167 116.166 236.798 115.247 236.798 114.156C236.798 113.065 237.167 112.151 237.904 111.413C238.641 110.666 239.565 110.293 240.676 110.293C241.404 110.293 242.057 110.47 242.637 110.823C243.217 111.168 243.64 111.634 243.905 112.224L243.109 112.681C242.913 112.239 242.593 111.89 242.151 111.634C241.718 111.369 241.227 111.236 240.676 111.236C239.86 111.236 239.172 111.521 238.612 112.092C238.051 112.652 237.771 113.34 237.771 114.156C237.771 114.972 238.051 115.665 238.612 116.235C239.172 116.795 239.86 117.076 240.676 117.076C241.227 117.076 241.718 116.948 242.151 116.692C242.583 116.427 242.922 116.073 243.168 115.631L243.979 116.102C243.674 116.692 243.227 117.159 242.637 117.503C242.047 117.847 241.394 118.019 240.676 118.019ZM246.364 108.7C246.227 108.838 246.06 108.907 245.863 108.907C245.666 108.907 245.499 108.838 245.362 108.7C245.224 108.563 245.155 108.395 245.155 108.199C245.155 108.002 245.224 107.835 245.362 107.697C245.499 107.56 245.666 107.491 245.863 107.491C246.06 107.491 246.227 107.56 246.364 107.697C246.502 107.835 246.571 108.002 246.571 108.199C246.571 108.395 246.502 108.563 246.364 108.7ZM245.376 117.842V110.47H246.35V117.842H245.376ZM254.755 110.47H255.729V117.842H254.755V116.397C254.077 117.479 253.084 118.019 251.777 118.019C250.725 118.019 249.825 117.646 249.078 116.899C248.341 116.152 247.972 115.237 247.972 114.156C247.972 113.075 248.341 112.16 249.078 111.413C249.825 110.666 250.725 110.293 251.777 110.293C253.084 110.293 254.077 110.833 254.755 111.915V110.47ZM249.786 116.235C250.346 116.795 251.035 117.076 251.85 117.076C252.666 117.076 253.355 116.795 253.915 116.235C254.475 115.665 254.755 114.972 254.755 114.156C254.755 113.34 254.475 112.652 253.915 112.092C253.355 111.521 252.666 111.236 251.85 111.236C251.035 111.236 250.346 111.521 249.786 112.092C249.226 112.652 248.946 113.34 248.946 114.156C248.946 114.972 249.226 115.665 249.786 116.235ZM258.762 111.693C259.214 110.799 259.991 110.352 261.092 110.352V111.295C260.424 111.295 259.868 111.492 259.426 111.885C258.983 112.278 258.762 112.898 258.762 113.743V117.842H257.789V110.47H258.762V111.693ZM267.878 110.47H268.91L265.755 118.521C265.47 119.248 265.062 119.818 264.531 120.231C264.01 120.654 263.425 120.841 262.776 120.791V119.877C263.661 119.976 264.334 119.464 264.796 118.344L264.988 117.887L261.685 110.47H262.717L265.489 116.648L267.878 110.47Z" fill="#989898"/>
<rect x="97.292" y="155.119" width="316.107" height="188.005" fill="white"/>
<path d="M108.351 214.101L402.339 214.101" stroke="#F4F6FA" stroke-width="0.921594" stroke-linecap="round"/>
<path d="M108.351 273.083L402.339 273.083" stroke="#F4F6FA" stroke-width="0.921594" stroke-linecap="round"/>
<path d="M117.456 259.121H116.582L114.857 256.843L113.132 259.121H112.258L114.426 256.257L112.402 253.592H113.276L114.857 255.682L116.439 253.592H117.312L115.3 256.257L117.456 259.121ZM123.094 259.121H122.22L120.495 256.843L118.77 259.121H117.896L120.063 256.257L118.04 253.592H118.913L120.495 255.682L122.076 253.592H122.95L120.937 256.257L123.094 259.121ZM128.731 259.121H127.858L126.132 256.843L124.407 259.121H123.533L125.701 256.257L123.677 253.592H124.551L126.132 255.682L127.714 253.592H128.587L126.575 256.257L128.731 259.121ZM134.369 259.121H133.495L131.77 256.843L130.045 259.121H129.171L131.339 256.257L129.315 253.592H130.188L131.77 255.682L133.351 253.592H134.225L132.212 256.257L134.369 259.121ZM140.006 259.121H139.133L137.407 256.843L135.682 259.121H134.809L136.976 256.257L134.952 253.592H135.826L137.407 255.682L138.989 253.592H139.863L137.85 256.257L140.006 259.121ZM145.644 259.121H144.77L143.045 256.843L141.32 259.121H140.446L142.614 256.257L140.59 253.592H141.464L143.045 255.682L144.626 253.592H145.5L143.487 256.257L145.644 259.121ZM151.281 259.121H150.408L148.683 256.843L146.957 259.121H146.084L148.251 256.257L146.227 253.592H147.101L148.683 255.682L150.264 253.592H151.138L149.125 256.257L151.281 259.121ZM156.919 259.121H156.045L154.32 256.843L152.595 259.121H151.721L153.889 256.257L151.865 253.592H152.739L154.32 255.682L155.902 253.592H156.775L154.762 256.257L156.919 259.121ZM162.557 259.121H161.683L159.958 256.843L158.232 259.121H157.359L159.526 256.257L157.503 253.592H158.376L159.958 255.682L161.539 253.592H162.413L160.4 256.257L162.557 259.121ZM168.913 256.843V257.573H167.918V259.121H167.144V257.573H163.052V256.843L165.927 251.38H166.779L163.903 256.843H167.144V254.477H167.918V256.843H168.913ZM174.504 253.802C174.504 254.384 174.345 254.901 174.028 255.35L171.496 259.121H170.622L172.524 256.29C172.325 256.335 172.119 256.357 171.905 256.357C171.146 256.357 170.523 256.121 170.036 255.649C169.549 255.17 169.306 254.554 169.306 253.802C169.306 253.05 169.549 252.438 170.036 251.966C170.523 251.487 171.146 251.247 171.905 251.247C172.664 251.247 173.287 251.487 173.774 251.966C174.261 252.438 174.504 253.05 174.504 253.802ZM170.578 252.497C170.246 252.829 170.08 253.264 170.08 253.802C170.08 254.34 170.246 254.775 170.578 255.107C170.917 255.439 171.359 255.605 171.905 255.605C172.451 255.605 172.889 255.439 173.221 255.107C173.56 254.775 173.73 254.34 173.73 253.802C173.73 253.264 173.56 252.829 173.221 252.497C172.889 252.165 172.451 251.999 171.905 251.999C171.359 251.999 170.917 252.165 170.578 252.497ZM174.952 251.38H179.707V252.11L176.788 259.121H175.98L178.9 252.11H174.952V251.38ZM180.379 259.121V258.425L183.166 255.616C183.962 254.819 184.36 254.137 184.36 253.57C184.36 253.076 184.205 252.692 183.895 252.42C183.593 252.139 183.228 251.999 182.801 251.999C182.004 251.999 181.426 252.364 181.064 253.094L180.412 252.707C180.655 252.228 180.987 251.867 181.407 251.623C181.827 251.373 182.292 251.247 182.801 251.247C183.42 251.247 183.962 251.457 184.426 251.878C184.898 252.291 185.134 252.855 185.134 253.57C185.134 254.019 185.009 254.451 184.758 254.864C184.507 255.277 184.153 255.712 183.696 256.169L181.485 258.369H185.3V259.121H180.379Z" fill="#757575"/>
<path d="M117.456 318.103H116.582L114.857 315.825L113.132 318.103H112.258L114.426 315.239L112.402 312.574H113.276L114.857 314.664L116.439 312.574H117.312L115.3 315.239L117.456 318.103ZM123.094 318.103H122.22L120.495 315.825L118.77 318.103H117.896L120.063 315.239L118.04 312.574H118.913L120.495 314.664L122.076 312.574H122.95L120.937 315.239L123.094 318.103ZM128.731 318.103H127.858L126.132 315.825L124.407 318.103H123.533L125.701 315.239L123.677 312.574H124.551L126.132 314.664L127.714 312.574H128.587L126.575 315.239L128.731 318.103ZM134.369 318.103H133.495L131.77 315.825L130.045 318.103H129.171L131.339 315.239L129.315 312.574H130.188L131.77 314.664L133.351 312.574H134.225L132.212 315.239L134.369 318.103ZM140.006 318.103H139.133L137.407 315.825L135.682 318.103H134.809L136.976 315.239L134.952 312.574H135.826L137.407 314.664L138.989 312.574H139.863L137.85 315.239L140.006 318.103ZM145.644 318.103H144.77L143.045 315.825L141.32 318.103H140.446L142.614 315.239L140.59 312.574H141.464L143.045 314.664L144.626 312.574H145.5L143.487 315.239L145.644 318.103ZM151.281 318.103H150.408L148.683 315.825L146.957 318.103H146.084L148.251 315.239L146.227 312.574H147.101L148.683 314.664L150.264 312.574H151.138L149.125 315.239L151.281 318.103ZM156.919 318.103H156.045L154.32 315.825L152.595 318.103H151.721L153.889 315.239L151.865 312.574H152.739L154.32 314.664L155.902 312.574H156.775L154.762 315.239L156.919 318.103ZM162.557 318.103H161.683L159.958 315.825L158.232 318.103H157.359L159.526 315.239L157.503 312.574H158.376L159.958 314.664L161.539 312.574H162.413L160.4 315.239L162.557 318.103ZM168.913 315.825V316.555H167.918V318.103H167.144V316.555H163.052V315.825L165.927 310.362H166.779L163.903 315.825H167.144V313.459H167.918V315.825H168.913ZM174.504 312.784C174.504 313.366 174.345 313.882 174.028 314.332L171.496 318.103H170.622L172.524 315.272C172.325 315.316 172.119 315.339 171.905 315.339C171.146 315.339 170.523 315.103 170.036 314.631C169.549 314.152 169.306 313.536 169.306 312.784C169.306 312.032 169.549 311.42 170.036 310.948C170.523 310.469 171.146 310.229 171.905 310.229C172.664 310.229 173.287 310.469 173.774 310.948C174.261 311.42 174.504 312.032 174.504 312.784ZM170.578 311.479C170.246 311.811 170.08 312.246 170.08 312.784C170.08 313.322 170.246 313.757 170.578 314.089C170.917 314.421 171.359 314.587 171.905 314.587C172.451 314.587 172.889 314.421 173.221 314.089C173.56 313.757 173.73 313.322 173.73 312.784C173.73 312.246 173.56 311.811 173.221 311.479C172.889 311.147 172.451 310.981 171.905 310.981C171.359 310.981 170.917 311.147 170.578 311.479ZM174.952 310.362H179.707V311.092L176.788 318.103H175.98L178.9 311.092H174.952V310.362ZM180.379 318.103V317.407L183.166 314.598C183.962 313.801 184.36 313.119 184.36 312.552C184.36 312.058 184.205 311.674 183.895 311.402C183.593 311.121 183.228 310.981 182.801 310.981C182.004 310.981 181.426 311.346 181.064 312.076L180.412 311.689C180.655 311.21 180.987 310.849 181.407 310.605C181.827 310.355 182.292 310.229 182.801 310.229C183.42 310.229 183.962 310.439 184.426 310.86C184.898 311.273 185.134 311.837 185.134 312.552C185.134 313.001 185.009 313.433 184.758 313.846C184.507 314.259 184.153 314.693 183.696 315.151L181.485 317.351H185.3V318.103H180.379Z" fill="#757575"/>
<path d="M358.043 252.302L355.245 256.869V260.043H354.471V256.847L351.684 252.302H352.558L354.869 256.095L357.169 252.302H358.043ZM359.809 259.313H363.569V260.043H359.035V252.302H363.514V253.032H359.809V255.774H363.238V256.504H359.809V259.313ZM367.332 260.176C366.625 260.176 366.016 260.01 365.508 259.678C365.006 259.339 364.656 258.875 364.457 258.285L365.121 257.898C365.261 258.377 365.519 258.753 365.895 259.026C366.271 259.291 366.754 259.424 367.344 259.424C367.919 259.424 368.365 259.299 368.682 259.048C369.006 258.79 369.168 258.451 369.168 258.03C369.168 257.625 369.021 257.319 368.726 257.113C368.431 256.906 367.944 256.692 367.266 256.471C366.463 256.206 365.932 255.992 365.674 255.83C365.084 255.476 364.789 254.963 364.789 254.292C364.789 253.636 365.017 253.12 365.475 252.744C365.932 252.361 366.496 252.169 367.167 252.169C367.771 252.169 368.295 252.328 368.737 252.645C369.179 252.954 369.507 253.352 369.721 253.839L369.069 254.204C368.715 253.349 368.081 252.921 367.167 252.921C366.687 252.921 366.3 253.039 366.005 253.275C365.71 253.511 365.563 253.839 365.563 254.259C365.563 254.643 365.696 254.93 365.961 255.122C366.227 255.314 366.665 255.509 367.277 255.708C367.557 255.804 367.756 255.874 367.874 255.918C368 255.955 368.177 256.021 368.405 256.117C368.641 256.206 368.814 256.287 368.925 256.361C369.036 256.427 369.168 256.523 369.323 256.648C369.485 256.766 369.6 256.888 369.666 257.013C369.74 257.131 369.802 257.278 369.854 257.455C369.913 257.625 369.942 257.809 369.942 258.008C369.942 258.665 369.703 259.192 369.224 259.59C368.744 259.981 368.114 260.176 367.332 260.176ZM375.508 256.029C375.884 256.191 376.183 256.438 376.404 256.77C376.633 257.094 376.747 257.466 376.747 257.887C376.747 258.484 376.537 258.993 376.117 259.413C375.696 259.833 375.188 260.043 374.59 260.043H371.217V252.302H374.336C374.911 252.302 375.401 252.508 375.807 252.921C376.212 253.327 376.415 253.813 376.415 254.381C376.415 255.103 376.113 255.653 375.508 256.029ZM374.336 253.032H371.992V255.73H374.336C374.697 255.73 375.003 255.601 375.254 255.343C375.512 255.078 375.641 254.757 375.641 254.381C375.641 254.012 375.512 253.695 375.254 253.43C375.003 253.164 374.697 253.032 374.336 253.032ZM374.59 259.313C374.974 259.313 375.298 259.177 375.564 258.904C375.836 258.624 375.973 258.285 375.973 257.887C375.973 257.496 375.836 257.16 375.564 256.88C375.298 256.6 374.974 256.46 374.59 256.46H371.992V259.313H374.59ZM382.777 259.092C382.268 259.815 381.549 260.176 380.62 260.176C379.691 260.176 378.969 259.815 378.453 259.092C377.944 258.362 377.69 257.389 377.69 256.173C377.69 254.956 377.944 253.986 378.453 253.264C378.969 252.534 379.691 252.169 380.62 252.169C381.549 252.169 382.268 252.534 382.777 253.264C383.293 253.986 383.551 254.956 383.551 256.173C383.551 257.389 383.293 258.362 382.777 259.092ZM379.028 258.572C379.411 259.14 379.942 259.424 380.62 259.424C381.299 259.424 381.826 259.14 382.202 258.572C382.585 258.005 382.777 257.205 382.777 256.173C382.777 255.14 382.585 254.34 382.202 253.773C381.826 253.205 381.299 252.921 380.62 252.921C379.942 252.921 379.411 253.205 379.028 253.773C378.652 254.34 378.464 255.14 378.464 256.173C378.464 257.205 378.652 258.005 379.028 258.572ZM388.604 260.176C387.431 260.176 386.462 259.789 385.695 259.015C384.928 258.241 384.545 257.293 384.545 256.173C384.545 255.052 384.928 254.104 385.695 253.33C386.462 252.556 387.431 252.169 388.604 252.169C389.319 252.169 389.975 252.342 390.572 252.689C391.169 253.028 391.63 253.489 391.955 254.071L391.269 254.469C391.026 253.998 390.664 253.622 390.185 253.341C389.706 253.061 389.179 252.921 388.604 252.921C387.638 252.921 386.849 253.234 386.237 253.861C385.625 254.488 385.319 255.258 385.319 256.173C385.319 257.087 385.625 257.857 386.237 258.484C386.849 259.111 387.638 259.424 388.604 259.424C389.179 259.424 389.706 259.284 390.185 259.004C390.664 258.723 391.026 258.347 391.269 257.876L391.955 258.263C391.638 258.845 391.177 259.31 390.572 259.656C389.975 260.003 389.319 260.176 388.604 260.176ZM400.306 252.302V260.043H399.531V253.474L396.822 258.008H396.711L394.002 253.474V260.043H393.228V252.302H394.19L396.767 256.615L399.343 252.302H400.306Z" fill="#757575"/>
<path d="M358.043 313.127L355.245 317.694V320.868H354.471V317.672L351.684 313.127H352.558L354.869 316.92L357.169 313.127H358.043ZM359.809 320.138H363.569V320.868H359.035V313.127H363.514V313.857H359.809V316.599H363.238V317.329H359.809V320.138ZM367.332 321.001C366.625 321.001 366.016 320.835 365.508 320.503C365.006 320.164 364.656 319.7 364.457 319.11L365.121 318.723C365.261 319.202 365.519 319.578 365.895 319.851C366.271 320.116 366.754 320.249 367.344 320.249C367.919 320.249 368.365 320.124 368.682 319.873C369.006 319.615 369.168 319.276 369.168 318.855C369.168 318.45 369.021 318.144 368.726 317.937C368.431 317.731 367.944 317.517 367.266 317.296C366.463 317.031 365.932 316.817 365.674 316.655C365.084 316.301 364.789 315.788 364.789 315.117C364.789 314.461 365.017 313.945 365.475 313.569C365.932 313.186 366.496 312.994 367.167 312.994C367.771 312.994 368.295 313.153 368.737 313.47C369.179 313.779 369.507 314.177 369.721 314.664L369.069 315.029C368.715 314.174 368.081 313.746 367.167 313.746C366.687 313.746 366.3 313.864 366.005 314.1C365.71 314.336 365.563 314.664 365.563 315.084C365.563 315.468 365.696 315.755 365.961 315.947C366.227 316.139 366.665 316.334 367.277 316.533C367.557 316.629 367.756 316.699 367.874 316.743C368 316.78 368.177 316.846 368.405 316.942C368.641 317.031 368.814 317.112 368.925 317.185C369.036 317.252 369.168 317.348 369.323 317.473C369.485 317.591 369.6 317.713 369.666 317.838C369.74 317.956 369.802 318.103 369.854 318.28C369.913 318.45 369.942 318.634 369.942 318.833C369.942 319.489 369.703 320.017 369.224 320.415C368.744 320.805 368.114 321.001 367.332 321.001ZM375.508 316.854C375.884 317.016 376.183 317.263 376.404 317.595C376.633 317.919 376.747 318.291 376.747 318.712C376.747 319.309 376.537 319.818 376.117 320.238C375.696 320.658 375.188 320.868 374.59 320.868H371.217V313.127H374.336C374.911 313.127 375.401 313.333 375.807 313.746C376.212 314.152 376.415 314.638 376.415 315.206C376.415 315.928 376.113 316.478 375.508 316.854ZM374.336 313.857H371.992V316.555H374.336C374.697 316.555 375.003 316.426 375.254 316.168C375.512 315.903 375.641 315.582 375.641 315.206C375.641 314.837 375.512 314.52 375.254 314.255C375.003 313.989 374.697 313.857 374.336 313.857ZM374.59 320.138C374.974 320.138 375.298 320.002 375.564 319.729C375.836 319.449 375.973 319.11 375.973 318.712C375.973 318.321 375.836 317.985 375.564 317.705C375.298 317.425 374.974 317.285 374.59 317.285H371.992V320.138H374.59ZM382.777 319.917C382.268 320.64 381.549 321.001 380.62 321.001C379.691 321.001 378.969 320.64 378.453 319.917C377.944 319.187 377.69 318.214 377.69 316.997C377.69 315.781 377.944 314.811 378.453 314.089C378.969 313.359 379.691 312.994 380.62 312.994C381.549 312.994 382.268 313.359 382.777 314.089C383.293 314.811 383.551 315.781 383.551 316.997C383.551 318.214 383.293 319.187 382.777 319.917ZM379.028 319.397C379.411 319.965 379.942 320.249 380.62 320.249C381.299 320.249 381.826 319.965 382.202 319.397C382.585 318.83 382.777 318.03 382.777 316.997C382.777 315.965 382.585 315.165 382.202 314.598C381.826 314.03 381.299 313.746 380.62 313.746C379.942 313.746 379.411 314.03 379.028 314.598C378.652 315.165 378.464 315.965 378.464 316.997C378.464 318.03 378.652 318.83 379.028 319.397ZM388.604 321.001C387.431 321.001 386.462 320.614 385.695 319.84C384.928 319.066 384.545 318.118 384.545 316.997C384.545 315.877 384.928 314.929 385.695 314.155C386.462 313.381 387.431 312.994 388.604 312.994C389.319 312.994 389.975 313.167 390.572 313.514C391.169 313.853 391.63 314.314 391.955 314.896L391.269 315.294C391.026 314.823 390.664 314.446 390.185 314.166C389.706 313.886 389.179 313.746 388.604 313.746C387.638 313.746 386.849 314.059 386.237 314.686C385.625 315.313 385.319 316.083 385.319 316.997C385.319 317.912 385.625 318.682 386.237 319.309C386.849 319.936 387.638 320.249 388.604 320.249C389.179 320.249 389.706 320.109 390.185 319.829C390.664 319.548 391.026 319.172 391.269 318.701L391.955 319.088C391.638 319.67 391.177 320.135 390.572 320.481C389.975 320.828 389.319 321.001 388.604 321.001ZM400.306 313.127V320.868H399.531V314.299L396.822 318.833H396.711L394.002 314.299V320.868H393.228V313.127H394.19L396.767 317.44L399.343 313.127H400.306Z" fill="#757575"/>
<path d="M117.456 200.139H116.582L114.857 197.861L113.132 200.139H112.258L114.426 197.275L112.402 194.61H113.276L114.857 196.7L116.439 194.61H117.312L115.3 197.275L117.456 200.139ZM123.094 200.139H122.22L120.495 197.861L118.77 200.139H117.896L120.063 197.275L118.04 194.61H118.913L120.495 196.7L122.076 194.61H122.95L120.937 197.275L123.094 200.139ZM128.731 200.139H127.858L126.132 197.861L124.407 200.139H123.533L125.701 197.275L123.677 194.61H124.551L126.132 196.7L127.714 194.61H128.587L126.575 197.275L128.731 200.139ZM134.369 200.139H133.495L131.77 197.861L130.045 200.139H129.171L131.339 197.275L129.315 194.61H130.188L131.77 196.7L133.351 194.61H134.225L132.212 197.275L134.369 200.139ZM140.006 200.139H139.133L137.407 197.861L135.682 200.139H134.809L136.976 197.275L134.952 194.61H135.826L137.407 196.7L138.989 194.61H139.863L137.85 197.275L140.006 200.139ZM145.644 200.139H144.77L143.045 197.861L141.32 200.139H140.446L142.614 197.275L140.59 194.61H141.464L143.045 196.7L144.626 194.61H145.5L143.487 197.275L145.644 200.139ZM151.281 200.139H150.408L148.683 197.861L146.957 200.139H146.084L148.251 197.275L146.227 194.61H147.101L148.683 196.7L150.264 194.61H151.138L149.125 197.275L151.281 200.139ZM156.919 200.139H156.045L154.32 197.861L152.595 200.139H151.721L153.889 197.275L151.865 194.61H152.739L154.32 196.7L155.902 194.61H156.775L154.762 197.275L156.919 200.139ZM162.557 200.139H161.683L159.958 197.861L158.232 200.139H157.359L159.526 197.275L157.503 194.61H158.376L159.958 196.7L161.539 194.61H162.413L160.4 197.275L162.557 200.139ZM168.913 197.861V198.591H167.918V200.139H167.144V198.591H163.052V197.861L165.927 192.398H166.779L163.903 197.861H167.144V195.495H167.918V197.861H168.913ZM174.504 194.82C174.504 195.402 174.345 195.919 174.028 196.368L171.496 200.139H170.622L172.524 197.308C172.325 197.353 172.119 197.375 171.905 197.375C171.146 197.375 170.523 197.139 170.036 196.667C169.549 196.188 169.306 195.572 169.306 194.82C169.306 194.068 169.549 193.456 170.036 192.984C170.523 192.505 171.146 192.265 171.905 192.265C172.664 192.265 173.287 192.505 173.774 192.984C174.261 193.456 174.504 194.068 174.504 194.82ZM170.578 193.515C170.246 193.847 170.08 194.282 170.08 194.82C170.08 195.358 170.246 195.793 170.578 196.125C170.917 196.457 171.359 196.623 171.905 196.623C172.451 196.623 172.889 196.457 173.221 196.125C173.56 195.793 173.73 195.358 173.73 194.82C173.73 194.282 173.56 193.847 173.221 193.515C172.889 193.183 172.451 193.017 171.905 193.017C171.359 193.017 170.917 193.183 170.578 193.515ZM174.952 192.398H179.707V193.128L176.788 200.139H175.98L178.9 193.128H174.952V192.398ZM180.379 200.139V199.443L183.166 196.634C183.962 195.837 184.36 195.155 184.36 194.588C184.36 194.094 184.205 193.71 183.895 193.438C183.593 193.157 183.228 193.017 182.801 193.017C182.004 193.017 181.426 193.382 181.064 194.112L180.412 193.725C180.655 193.246 180.987 192.885 181.407 192.641C181.827 192.391 182.292 192.265 182.801 192.265C183.42 192.265 183.962 192.475 184.426 192.896C184.898 193.309 185.134 193.873 185.134 194.588C185.134 195.037 185.009 195.469 184.758 195.882C184.507 196.295 184.153 196.73 183.696 197.187L181.485 199.387H185.3V200.139H180.379Z" fill="#757575"/>
<path d="M358.043 192.398L355.245 196.965V200.139H354.471V196.943L351.684 192.398H352.558L354.869 196.191L357.169 192.398H358.043ZM359.809 199.41H363.569V200.139H359.035V192.398H363.514V193.128H359.809V195.871H363.238V196.6H359.809V199.41ZM367.332 200.272C366.625 200.272 366.016 200.106 365.508 199.774C365.006 199.435 364.656 198.971 364.457 198.381L365.121 197.994C365.261 198.473 365.519 198.849 365.895 199.122C366.271 199.387 366.754 199.52 367.344 199.52C367.919 199.52 368.365 199.395 368.682 199.144C369.006 198.886 369.168 198.547 369.168 198.127C369.168 197.721 369.021 197.415 368.726 197.209C368.431 197.002 367.944 196.788 367.266 196.567C366.463 196.302 365.932 196.088 365.674 195.926C365.084 195.572 364.789 195.06 364.789 194.389C364.789 193.732 365.017 193.216 365.475 192.84C365.932 192.457 366.496 192.265 367.167 192.265C367.771 192.265 368.295 192.424 368.737 192.741C369.179 193.051 369.507 193.449 369.721 193.935L369.069 194.3C368.715 193.445 368.081 193.017 367.167 193.017C366.687 193.017 366.3 193.135 366.005 193.371C365.71 193.607 365.563 193.935 365.563 194.355C365.563 194.739 365.696 195.026 365.961 195.218C366.227 195.41 366.665 195.605 367.277 195.804C367.557 195.9 367.756 195.97 367.874 196.014C368 196.051 368.177 196.118 368.405 196.213C368.641 196.302 368.814 196.383 368.925 196.457C369.036 196.523 369.168 196.619 369.323 196.744C369.485 196.862 369.6 196.984 369.666 197.109C369.74 197.227 369.802 197.375 369.854 197.552C369.913 197.721 369.942 197.905 369.942 198.105C369.942 198.761 369.703 199.288 369.224 199.686C368.744 200.077 368.114 200.272 367.332 200.272ZM375.508 196.125C375.884 196.287 376.183 196.534 376.404 196.866C376.633 197.19 376.747 197.563 376.747 197.983C376.747 198.58 376.537 199.089 376.117 199.509C375.696 199.929 375.188 200.139 374.59 200.139H371.217V192.398H374.336C374.911 192.398 375.401 192.604 375.807 193.017C376.212 193.423 376.415 193.909 376.415 194.477C376.415 195.2 376.113 195.749 375.508 196.125ZM374.336 193.128H371.992V195.826H374.336C374.697 195.826 375.003 195.697 375.254 195.439C375.512 195.174 375.641 194.853 375.641 194.477C375.641 194.108 375.512 193.791 375.254 193.526C375.003 193.261 374.697 193.128 374.336 193.128ZM374.59 199.41C374.974 199.41 375.298 199.273 375.564 199C375.836 198.72 375.973 198.381 375.973 197.983C375.973 197.592 375.836 197.257 375.564 196.976C375.298 196.696 374.974 196.556 374.59 196.556H371.992V199.41H374.59ZM382.777 199.188C382.268 199.911 381.549 200.272 380.62 200.272C379.691 200.272 378.969 199.911 378.453 199.188C377.944 198.458 377.69 197.485 377.69 196.269C377.69 195.052 377.944 194.083 378.453 193.36C378.969 192.63 379.691 192.265 380.62 192.265C381.549 192.265 382.268 192.63 382.777 193.36C383.293 194.083 383.551 195.052 383.551 196.269C383.551 197.485 383.293 198.458 382.777 199.188ZM379.028 198.669C379.411 199.236 379.942 199.52 380.62 199.52C381.299 199.52 381.826 199.236 382.202 198.669C382.585 198.101 382.777 197.301 382.777 196.269C382.777 195.237 382.585 194.437 382.202 193.869C381.826 193.301 381.299 193.017 380.62 193.017C379.942 193.017 379.411 193.301 379.028 193.869C378.652 194.437 378.464 195.237 378.464 196.269C378.464 197.301 378.652 198.101 379.028 198.669ZM388.604 200.272C387.431 200.272 386.462 199.885 385.695 199.111C384.928 198.337 384.545 197.389 384.545 196.269C384.545 195.148 384.928 194.201 385.695 193.427C386.462 192.652 387.431 192.265 388.604 192.265C389.319 192.265 389.975 192.439 390.572 192.785C391.169 193.124 391.63 193.585 391.955 194.167L391.269 194.566C391.026 194.094 390.664 193.718 390.185 193.438C389.706 193.157 389.179 193.017 388.604 193.017C387.638 193.017 386.849 193.331 386.237 193.957C385.625 194.584 385.319 195.354 385.319 196.269C385.319 197.183 385.625 197.953 386.237 198.58C386.849 199.207 387.638 199.52 388.604 199.52C389.179 199.52 389.706 199.38 390.185 199.1C390.664 198.82 391.026 198.444 391.269 197.972L391.955 198.359C391.638 198.941 391.177 199.406 390.572 199.752C389.975 200.099 389.319 200.272 388.604 200.272ZM400.306 192.398V200.139H399.531V193.57L396.822 198.105H396.711L394.002 193.57V200.139H393.228V192.398H394.19L396.767 196.711L399.343 192.398H400.306Z" fill="#757575"/>
<path d="M121.456 172.833V181.865H120.269V174.807L117.314 179.723H117.159L114.205 174.82V181.865H113.005V172.833H114.36L117.237 177.607L120.101 172.833H121.456ZM128.716 181.052C128.053 181.705 127.249 182.032 126.303 182.032C125.357 182.032 124.553 181.705 123.89 181.052C123.237 180.398 122.91 179.594 122.91 178.639C122.91 177.684 123.237 176.88 123.89 176.226C124.553 175.572 125.357 175.246 126.303 175.246C127.249 175.246 128.053 175.572 128.716 176.226C129.378 176.88 129.709 177.684 129.709 178.639C129.709 179.594 129.378 180.398 128.716 181.052ZM126.303 180.936C126.948 180.936 127.49 180.716 127.929 180.278C128.367 179.839 128.587 179.293 128.587 178.639C128.587 177.985 128.367 177.439 127.929 177C127.49 176.562 126.948 176.342 126.303 176.342C125.667 176.342 125.129 176.562 124.69 177C124.252 177.439 124.032 177.985 124.032 178.639C124.032 179.293 124.252 179.839 124.69 180.278C125.129 180.716 125.667 180.936 126.303 180.936ZM134.245 175.246C135.002 175.246 135.609 175.486 136.064 175.968C136.52 176.441 136.748 177.086 136.748 177.903V181.865H135.626V177.968C135.626 177.443 135.484 177.039 135.2 176.755C134.916 176.463 134.525 176.317 134.026 176.317C133.467 176.317 133.015 176.493 132.671 176.846C132.327 177.19 132.155 177.723 132.155 178.445V181.865H131.033V172.833H132.155V176.342C132.611 175.611 133.308 175.246 134.245 175.246ZM143.657 175.413H144.779V181.865H143.657V180.755C143.098 181.606 142.285 182.032 141.218 182.032C140.315 182.032 139.545 181.705 138.909 181.052C138.272 180.389 137.954 179.585 137.954 178.639C137.954 177.693 138.272 176.893 138.909 176.239C139.545 175.577 140.315 175.246 141.218 175.246C142.285 175.246 143.098 175.671 143.657 176.523V175.413ZM141.36 180.948C142.014 180.948 142.56 180.729 142.999 180.29C143.438 179.843 143.657 179.293 143.657 178.639C143.657 177.985 143.438 177.439 142.999 177C142.56 176.553 142.014 176.329 141.36 176.329C140.715 176.329 140.173 176.553 139.735 177C139.296 177.439 139.077 177.985 139.077 178.639C139.077 179.293 139.296 179.843 139.735 180.29C140.173 180.729 140.715 180.948 141.36 180.948ZM149.693 175.246C150.45 175.246 151.056 175.486 151.512 175.968C151.968 176.441 152.196 177.086 152.196 177.903V181.865H151.073V177.968C151.073 177.443 150.931 177.039 150.647 176.755C150.364 176.463 149.972 176.317 149.473 176.317C148.914 176.317 148.463 176.493 148.119 176.846C147.775 177.19 147.603 177.723 147.603 178.445V181.865H146.48V175.413H147.603V176.342C148.058 175.611 148.755 175.246 149.693 175.246ZM163.672 181.865H162.201L158.304 177.529V181.865H157.104V172.833H158.304V176.91L162.072 172.833H163.543L159.556 177.22L163.672 181.865Z" fill="#212121"/>
<path d="M115.353 241.014C114.699 241.014 114.123 240.877 113.624 240.601C113.125 240.326 112.76 239.926 112.527 239.401L113.547 238.808C113.813 239.496 114.415 239.84 115.353 239.84C115.929 239.84 116.381 239.702 116.708 239.427C117.035 239.152 117.198 238.743 117.198 238.201V231.815H118.385V238.201C118.385 239.105 118.097 239.801 117.521 240.292C116.953 240.773 116.23 241.014 115.353 241.014ZM125.362 234.395H126.484V240.846H125.362V239.737C124.803 240.588 123.99 241.014 122.923 241.014C122.02 241.014 121.25 240.687 120.614 240.034C119.977 239.371 119.659 238.567 119.659 237.621C119.659 236.675 119.977 235.875 120.614 235.221C121.25 234.559 122.02 234.228 122.923 234.228C123.99 234.228 124.803 234.653 125.362 235.505V234.395ZM123.065 239.93C123.719 239.93 124.265 239.711 124.704 239.272C125.142 238.825 125.362 238.275 125.362 237.621C125.362 236.967 125.142 236.421 124.704 235.982C124.265 235.535 123.719 235.311 123.065 235.311C122.42 235.311 121.878 235.535 121.439 235.982C121.001 236.421 120.781 236.967 120.781 237.621C120.781 238.275 121.001 238.825 121.439 239.272C121.878 239.711 122.42 239.93 123.065 239.93ZM128.753 233.221C128.538 233.221 128.357 233.148 128.211 233.002C128.065 232.856 127.991 232.679 127.991 232.473C127.991 232.266 128.065 232.09 128.211 231.944C128.357 231.789 128.538 231.712 128.753 231.712C128.959 231.712 129.135 231.789 129.282 231.944C129.428 232.09 129.501 232.266 129.501 232.473C129.501 232.679 129.428 232.856 129.282 233.002C129.135 233.148 128.959 233.221 128.753 233.221ZM128.185 240.846V234.395H129.307V240.846H128.185ZM139.703 240.846H138.31L135.368 237.789V240.846H134.246V231.815H135.368V237.247L138.155 234.395H139.6L136.516 237.518L139.703 240.846ZM144.946 234.395H146.069V240.846H144.946V239.917C144.49 240.649 143.794 241.014 142.856 241.014C142.099 241.014 141.493 240.778 141.037 240.305C140.581 239.823 140.353 239.173 140.353 238.356V234.395H141.476V238.292C141.476 238.817 141.618 239.225 141.901 239.518C142.185 239.801 142.577 239.943 143.076 239.943C143.635 239.943 144.086 239.771 144.43 239.427C144.774 239.075 144.946 238.537 144.946 237.814V234.395ZM154.745 234.228C155.468 234.228 156.053 234.464 156.5 234.937C156.947 235.402 157.171 236.034 157.171 236.834V240.846H156.048V236.873C156.048 236.374 155.919 235.987 155.661 235.711C155.403 235.436 155.059 235.298 154.629 235.298C154.147 235.298 153.76 235.462 153.468 235.789C153.184 236.107 153.042 236.597 153.042 237.26V240.846H151.919V236.873C151.919 236.374 151.795 235.987 151.545 235.711C151.304 235.436 150.973 235.298 150.552 235.298C150.079 235.298 149.683 235.462 149.365 235.789C149.055 236.116 148.9 236.606 148.9 237.26V240.846H147.778V234.395H148.9V235.26C149.339 234.572 149.98 234.228 150.823 234.228C151.692 234.228 152.324 234.593 152.719 235.324C153.167 234.593 153.842 234.228 154.745 234.228ZM164.069 234.395H165.191V240.846H164.069V239.737C163.51 240.588 162.697 241.014 161.63 241.014C160.727 241.014 159.957 240.687 159.321 240.034C158.684 239.371 158.366 238.567 158.366 237.621C158.366 236.675 158.684 235.875 159.321 235.221C159.957 234.559 160.727 234.228 161.63 234.228C162.697 234.228 163.51 234.653 164.069 235.505V234.395ZM161.772 239.93C162.426 239.93 162.972 239.711 163.411 239.272C163.849 238.825 164.069 238.275 164.069 237.621C164.069 236.967 163.849 236.421 163.411 235.982C162.972 235.535 162.426 235.311 161.772 235.311C161.127 235.311 160.585 235.535 160.146 235.982C159.708 236.421 159.488 236.967 159.488 237.621C159.488 238.275 159.708 238.825 160.146 239.272C160.585 239.711 161.127 239.93 161.772 239.93ZM168.014 235.479C168.384 234.679 169.055 234.279 170.027 234.279V235.453C169.477 235.427 169.004 235.574 168.608 235.892C168.212 236.21 168.014 236.722 168.014 237.427V240.846H166.892V234.395H168.014V235.479Z" fill="#212121"/>
<path d="M118.166 295.145C118.579 295.343 118.905 295.627 119.146 295.996C119.396 296.366 119.52 296.792 119.52 297.274C119.52 297.996 119.267 298.603 118.759 299.093C118.252 299.583 117.632 299.828 116.901 299.828H113.005V290.797H116.617C117.323 290.797 117.921 291.033 118.411 291.506C118.901 291.979 119.146 292.564 119.146 293.261C119.146 294.061 118.819 294.689 118.166 295.145ZM116.617 291.919H114.205V294.68H116.617C116.996 294.68 117.314 294.547 117.572 294.28C117.83 294.014 117.959 293.687 117.959 293.3C117.959 292.921 117.826 292.599 117.559 292.332C117.301 292.057 116.987 291.919 116.617 291.919ZM116.901 298.706C117.306 298.706 117.645 298.564 117.921 298.28C118.196 297.996 118.333 297.648 118.333 297.235C118.333 296.831 118.192 296.487 117.908 296.203C117.632 295.919 117.297 295.777 116.901 295.777H114.205V298.706H116.901ZM126.206 293.377H127.328V299.828H126.206V298.719C125.647 299.57 124.834 299.996 123.767 299.996C122.864 299.996 122.094 299.669 121.458 299.016C120.821 298.353 120.503 297.549 120.503 296.603C120.503 295.657 120.821 294.857 121.458 294.203C122.094 293.541 122.864 293.21 123.767 293.21C124.834 293.21 125.647 293.635 126.206 294.487V293.377ZM123.909 298.912C124.563 298.912 125.109 298.693 125.548 298.254C125.987 297.807 126.206 297.257 126.206 296.603C126.206 295.949 125.987 295.403 125.548 294.964C125.109 294.517 124.563 294.293 123.909 294.293C123.264 294.293 122.722 294.517 122.284 294.964C121.845 295.403 121.626 295.949 121.626 296.603C121.626 297.257 121.845 297.807 122.284 298.254C122.722 298.693 123.264 298.912 123.909 298.912ZM129.029 299.828V290.41H130.152V299.828H129.029ZM137.206 293.377H138.328V299.828H137.206V298.719C136.647 299.57 135.834 299.996 134.767 299.996C133.864 299.996 133.094 299.669 132.458 299.016C131.821 298.353 131.503 297.549 131.503 296.603C131.503 295.657 131.821 294.857 132.458 294.203C133.094 293.541 133.864 293.21 134.767 293.21C135.834 293.21 136.647 293.635 137.206 294.487V293.377ZM134.909 298.912C135.563 298.912 136.109 298.693 136.548 298.254C136.986 297.807 137.206 297.257 137.206 296.603C137.206 295.949 136.986 295.403 136.548 294.964C136.109 294.517 135.563 294.293 134.909 294.293C134.264 294.293 133.722 294.517 133.283 294.964C132.845 295.403 132.625 295.949 132.625 296.603C132.625 297.257 132.845 297.807 133.283 298.254C133.722 298.693 134.264 298.912 134.909 298.912ZM140.742 292.203C140.527 292.203 140.346 292.13 140.2 291.984C140.054 291.838 139.981 291.661 139.981 291.455C139.981 291.248 140.054 291.072 140.2 290.926C140.346 290.771 140.527 290.694 140.742 290.694C140.948 290.694 141.125 290.771 141.271 290.926C141.417 291.072 141.49 291.248 141.49 291.455C141.49 291.661 141.417 291.838 141.271 291.984C141.125 292.13 140.948 292.203 140.742 292.203ZM140.174 300.215V293.377H141.297V300.215C141.297 301.05 141.086 301.665 140.664 302.06C140.243 302.465 139.624 302.637 138.806 302.577V301.493C139.28 301.536 139.624 301.458 139.839 301.261C140.062 301.063 140.174 300.714 140.174 300.215ZM143.57 292.203C143.355 292.203 143.174 292.13 143.028 291.984C142.882 291.838 142.809 291.661 142.809 291.455C142.809 291.248 142.882 291.072 143.028 290.926C143.174 290.771 143.355 290.694 143.57 290.694C143.777 290.694 143.953 290.771 144.099 290.926C144.245 291.072 144.318 291.248 144.318 291.455C144.318 291.661 144.245 291.838 144.099 291.984C143.953 292.13 143.777 292.203 143.57 292.203ZM143.002 299.828V293.377H144.125V299.828H143.002Z" fill="#212121"/>
<g clip-path="url(#clip2_3835_1083)">
<path d="M104.921 42.5753H116.119V44.4153H104.921L109.856 49.3502L108.555 50.651L101.399 43.4953L108.555 36.3396L109.856 37.6405L104.921 42.5753Z" fill="#606060"/>
</g>
</g>
<defs>
<linearGradient id="paint0_linear_3835_1083" x1="256" y1="4.09664" x2="256" y2="390" gradientUnits="userSpaceOnUse">
<stop offset="0.508831" stop-color="#DEDEDE"/>
<stop offset="1" stop-color="#DEDEDE" stop-opacity="0.06"/>
</linearGradient>
<linearGradient id="paint1_linear_3835_1083" x1="256" y1="8" x2="256" y2="368" gradientUnits="userSpaceOnUse">
<stop offset="0.823604" stop-color="#F9FBFF"/>
<stop offset="1" stop-color="#FCFDFF" stop-opacity="0"/>
</linearGradient>
<clipPath id="clip0_3835_1083">
<path d="M83 39.1817C83 24.4825 83 17.1329 87.5665 12.5665C92.1329 8 99.4825 8 114.182 8H397.818C412.517 8 419.867 8 424.434 12.5665C429 17.1329 429 24.4825 429 39.1817V368H83V39.1817Z" fill="white"/>
</clipPath>
<clipPath id="clip1_3835_1083">
<rect width="22.1183" height="22.1183" fill="white" transform="translate(108.351 101.999)"/>
</clipPath>
<clipPath id="clip2_3835_1083">
<rect width="22.0798" height="22.0798" fill="white" transform="translate(97.7197 32.4551)"/>
</clipPath>
</defs>
</svg>
