<svg width="512" height="400" viewBox="0 0 512 400" fill="none" xmlns="http://www.w3.org/2000/svg">
<path d="M68 26.7376C68 11.9708 79.9708 0 94.7376 0H417.262C432.029 0 444 11.9708 444 26.7376V400H68V26.7376Z" fill="url(#paint0_linear_3833_254)"/>
<g clip-path="url(#clip0_3833_254)">
<path d="M78.667 40.0851C78.667 24.96 78.667 17.3975 83.3657 12.6987C88.0645 7.99997 95.627 7.99997 110.752 7.99997H401.249C416.374 7.99997 423.936 7.99997 428.635 12.6987C433.334 17.3975 433.334 24.96 433.334 40.0851V377.333H78.667V40.0851Z" fill="url(#paint1_linear_3833_254)"/>
<rect x="78.6665" y="-16.0638" width="356.947" height="89.5709" fill="white"/>
<path d="M143.813 50.2006C142.824 50.2006 141.975 49.9684 141.268 49.5039C140.572 49.0394 140.082 48.4032 139.799 47.5954L141.011 46.8986C141.425 48.181 142.369 48.8223 143.843 48.8223C144.57 48.8223 145.126 48.6758 145.51 48.383C145.893 48.0801 146.085 47.6812 146.085 47.1864C146.085 46.6815 145.893 46.3028 145.51 46.0504C145.126 45.7979 144.485 45.5303 143.586 45.2476C143.142 45.1062 142.803 44.9951 142.571 44.9144C142.339 44.8235 142.046 44.6922 141.693 44.5205C141.349 44.3388 141.092 44.157 140.92 43.9753C140.748 43.7834 140.592 43.536 140.451 43.2331C140.319 42.9301 140.254 42.5868 140.254 42.2031C140.254 41.2842 140.577 40.5571 141.223 40.0219C141.869 39.4766 142.657 39.204 143.586 39.204C144.424 39.204 145.151 39.416 145.767 39.8401C146.393 40.2643 146.863 40.8247 147.176 41.5215L145.994 42.2031C145.54 41.1125 144.737 40.5672 143.586 40.5672C143.01 40.5672 142.546 40.7086 142.192 40.9913C141.839 41.2741 141.662 41.6578 141.662 42.1425C141.662 42.607 141.829 42.9604 142.162 43.2028C142.495 43.4451 143.071 43.6976 143.889 43.9601C144.182 44.051 144.389 44.1166 144.51 44.157C144.631 44.1974 144.818 44.2681 145.07 44.3691C145.333 44.4701 145.525 44.5508 145.646 44.6114C145.767 44.672 145.929 44.7578 146.131 44.8689C146.343 44.98 146.499 45.086 146.6 45.187C146.701 45.288 146.817 45.4142 146.949 45.5657C147.09 45.707 147.191 45.8535 147.251 46.0049C147.312 46.1564 147.363 46.3331 147.403 46.5351C147.453 46.7269 147.479 46.9339 147.479 47.1561C147.479 48.0851 147.14 48.8273 146.464 49.3827C145.787 49.928 144.904 50.2006 143.813 50.2006ZM154.236 42.4303H155.554V50.0037H154.236V48.9131C153.701 49.7715 152.883 50.2006 151.782 50.2006C150.894 50.2006 150.182 49.9229 149.647 49.3676C149.111 48.8021 148.844 48.0397 148.844 47.0804V42.4303H150.162V47.0046C150.162 47.6206 150.328 48.1003 150.661 48.4436C150.995 48.7768 151.454 48.9434 152.04 48.9434C152.696 48.9434 153.226 48.7415 153.63 48.3376C154.034 47.9235 154.236 47.2924 154.236 46.4442V42.4303ZM161.741 42.2334C162.801 42.2334 163.705 42.6221 164.452 43.3997C165.199 44.1671 165.573 45.1062 165.573 46.217C165.573 47.3278 165.199 48.2719 164.452 49.0495C163.705 49.8169 162.801 50.2006 161.741 50.2006C160.489 50.2006 159.534 49.7008 158.878 48.7011V50.0037H157.56V39.4009H158.878V43.7329C159.534 42.7332 160.489 42.2334 161.741 42.2334ZM161.574 48.9283C162.331 48.9283 162.968 48.6708 163.483 48.1558C163.998 47.6307 164.255 46.9844 164.255 46.217C164.255 45.4496 163.998 44.8083 163.483 44.2933C162.968 43.7682 162.331 43.5057 161.574 43.5057C160.807 43.5057 160.165 43.7682 159.65 44.2933C159.135 44.8083 158.878 45.4496 158.878 46.217C158.878 46.9844 159.135 47.6307 159.65 48.1558C160.165 48.6708 160.807 48.9283 161.574 48.9283ZM177.778 49.1858C177.041 49.8624 176.087 50.2006 174.916 50.2006C173.744 50.2006 172.785 49.8624 172.038 49.1858C171.301 48.4991 170.932 47.5853 170.932 46.4442V39.4009H172.341V46.3836C172.341 47.1309 172.563 47.7266 173.007 48.1709C173.451 48.6052 174.088 48.8223 174.916 48.8223C175.744 48.8223 176.38 48.6052 176.824 48.1709C177.268 47.7266 177.491 47.1309 177.491 46.3836V39.4009H178.884V46.4442C178.884 47.5853 178.516 48.4991 177.778 49.1858ZM181.964 44.4751C181.964 44.7679 182.11 45.0052 182.403 45.187C182.696 45.3587 183.049 45.5 183.463 45.6111C183.877 45.7121 184.291 45.8333 184.705 45.9746C185.119 46.1059 185.473 46.3382 185.766 46.6714C186.059 46.9945 186.205 47.4136 186.205 47.9286C186.205 48.6153 185.937 49.1656 185.402 49.5796C184.877 49.9936 184.201 50.2006 183.372 50.2006C182.635 50.2006 182.004 50.0391 181.479 49.7159C180.954 49.3928 180.58 48.9636 180.358 48.4284L181.494 47.7771C181.615 48.1407 181.843 48.4284 182.176 48.6405C182.509 48.8526 182.908 48.9586 183.372 48.9586C183.807 48.9586 184.165 48.8778 184.448 48.7162C184.731 48.5446 184.872 48.282 184.872 47.9286C184.872 47.6358 184.726 47.4035 184.433 47.2318C184.14 47.0501 183.786 46.9087 183.372 46.8077C182.958 46.6966 182.544 46.5704 182.13 46.4291C181.716 46.2877 181.363 46.0554 181.07 45.7323C180.777 45.4092 180.631 44.9951 180.631 44.4902C180.631 43.8339 180.883 43.2936 181.388 42.8695C181.903 42.4454 182.544 42.2334 183.312 42.2334C183.928 42.2334 184.473 42.3747 184.948 42.6575C185.432 42.9301 185.796 43.3138 186.038 43.8086L184.933 44.4297C184.66 43.7834 184.12 43.4603 183.312 43.4603C182.938 43.4603 182.62 43.5511 182.358 43.7329C182.095 43.9046 181.964 44.152 181.964 44.4751ZM188.482 46.8229C188.613 47.4994 188.921 48.0245 189.406 48.3982C189.901 48.7718 190.507 48.9586 191.224 48.9586C192.223 48.9586 192.95 48.59 193.405 47.8529L194.526 48.489C193.789 49.6301 192.678 50.2006 191.193 50.2006C189.992 50.2006 189.012 49.827 188.255 49.0798C187.508 48.3224 187.134 47.3682 187.134 46.217C187.134 45.0759 187.503 44.1267 188.24 43.3694C188.977 42.612 189.931 42.2334 191.102 42.2334C192.213 42.2334 193.117 42.6272 193.814 43.4148C194.521 44.1924 194.874 45.1315 194.874 46.2321C194.874 46.424 194.859 46.6209 194.829 46.8229H188.482ZM191.102 43.4754C190.396 43.4754 189.81 43.6774 189.345 44.0813C188.881 44.4751 188.593 45.0052 188.482 45.6717H193.541C193.43 44.9548 193.147 44.4095 192.693 44.0358C192.239 43.6622 191.708 43.4754 191.102 43.4754ZM197.707 43.7026C198.141 42.7635 198.929 42.2939 200.07 42.2939V43.6723C199.423 43.642 198.868 43.8137 198.403 44.1873C197.939 44.5609 197.707 45.1618 197.707 45.9898V50.0037H196.389V42.4303H197.707V43.7026ZM202.214 44.4751C202.214 44.7679 202.36 45.0052 202.653 45.187C202.946 45.3587 203.299 45.5 203.713 45.6111C204.127 45.7121 204.542 45.8333 204.956 45.9746C205.37 46.1059 205.723 46.3382 206.016 46.6714C206.309 46.9945 206.455 47.4136 206.455 47.9286C206.455 48.6153 206.187 49.1656 205.652 49.5796C205.127 49.9936 204.451 50.2006 203.623 50.2006C202.885 50.2006 202.254 50.0391 201.729 49.7159C201.204 49.3928 200.831 48.9636 200.608 48.4284L201.744 47.7771C201.866 48.1407 202.093 48.4284 202.426 48.6405C202.759 48.8526 203.158 48.9586 203.623 48.9586C204.057 48.9586 204.415 48.8778 204.698 48.7162C204.981 48.5446 205.122 48.282 205.122 47.9286C205.122 47.6358 204.976 47.4035 204.683 47.2318C204.39 47.0501 204.037 46.9087 203.623 46.8077C203.209 46.6966 202.795 46.5704 202.381 46.4291C201.967 46.2877 201.613 46.0554 201.32 45.7323C201.027 45.4092 200.881 44.9951 200.881 44.4902C200.881 43.8339 201.133 43.2936 201.638 42.8695C202.153 42.4454 202.795 42.2334 203.562 42.2334C204.178 42.2334 204.723 42.3747 205.198 42.6575C205.683 42.9301 206.046 43.3138 206.288 43.8086L205.183 44.4297C204.91 43.7834 204.37 43.4603 203.562 43.4603C203.188 43.4603 202.87 43.5511 202.608 43.7329C202.345 43.9046 202.214 44.152 202.214 44.4751Z" fill="#303030"/>
<path d="M366.71 48.7483L366.186 47.2403H362.999L362.475 48.7483H361.138L363.854 41.2618H365.33L368.036 48.7483H366.71ZM363.405 46.0852H365.78L364.592 42.7056L363.405 46.0852ZM372.866 41.2618H374.021V48.7483H372.866V47.9782C372.431 48.5843 371.807 48.8873 370.994 48.8873C370.26 48.8873 369.632 48.6164 369.112 48.0745C368.591 47.5255 368.331 46.8588 368.331 46.0745C368.331 45.2831 368.591 44.6164 369.112 44.0746C369.632 43.5327 370.26 43.2617 370.994 43.2617C371.807 43.2617 372.431 43.5612 372.866 44.1601V41.2618ZM369.968 47.3045C370.288 47.6253 370.691 47.7857 371.176 47.7857C371.661 47.7857 372.064 47.6253 372.385 47.3045C372.705 46.9765 372.866 46.5665 372.866 46.0745C372.866 45.5826 372.705 45.1761 372.385 44.8553C372.064 44.5273 371.661 44.3633 371.176 44.3633C370.691 44.3633 370.288 44.5273 369.968 44.8553C369.647 45.1761 369.486 45.5826 369.486 46.0745C369.486 46.5665 369.647 46.9765 369.968 47.3045ZM379.603 41.2618H380.758V48.7483H379.603V47.9782C379.168 48.5843 378.544 48.8873 377.731 48.8873C376.996 48.8873 376.369 48.6164 375.849 48.0745C375.328 47.5255 375.068 46.8588 375.068 46.0745C375.068 45.2831 375.328 44.6164 375.849 44.0746C376.369 43.5327 376.996 43.2617 377.731 43.2617C378.544 43.2617 379.168 43.5612 379.603 44.1601V41.2618ZM376.704 47.3045C377.025 47.6253 377.428 47.7857 377.913 47.7857C378.398 47.7857 378.8 47.6253 379.121 47.3045C379.442 46.9765 379.603 46.5665 379.603 46.0745C379.603 45.5826 379.442 45.1761 379.121 44.8553C378.8 44.5273 378.398 44.3633 377.913 44.3633C377.428 44.3633 377.025 44.5273 376.704 44.8553C376.383 45.1761 376.223 45.5826 376.223 46.0745C376.223 46.5665 376.383 46.9765 376.704 47.3045ZM389.655 48.1815C389.127 48.652 388.446 48.8873 387.612 48.8873C386.778 48.8873 386.097 48.652 385.569 48.1815C385.041 47.7037 384.778 47.0656 384.778 46.267V41.2618H386.008V46.1922C386.008 46.6485 386.139 47.0121 386.403 47.2831C386.674 47.554 387.077 47.6895 387.612 47.6895C388.147 47.6895 388.546 47.554 388.81 47.2831C389.081 47.0121 389.216 46.6485 389.216 46.1922V41.2618H390.446V46.267C390.446 47.0656 390.182 47.7037 389.655 48.1815ZM392.761 44.8767C392.761 45.0549 392.857 45.1975 393.049 45.3045C393.249 45.4043 393.488 45.4934 393.766 45.5719C394.051 45.6432 394.336 45.7287 394.622 45.8285C394.907 45.9284 395.146 46.0995 395.338 46.3419C395.538 46.5772 395.638 46.8767 395.638 47.2403C395.638 47.7537 395.438 48.1565 395.039 48.4488C394.646 48.7412 394.151 48.8873 393.552 48.8873C393.024 48.8873 392.572 48.7768 392.194 48.5558C391.816 48.3347 391.541 48.0282 391.37 47.636L392.365 47.0585C392.55 47.5718 392.946 47.8285 393.552 47.8285C394.158 47.8285 394.461 47.6289 394.461 47.2296C394.461 47.0585 394.361 46.9194 394.162 46.8125C393.969 46.7055 393.73 46.6164 393.445 46.5451C393.167 46.4667 392.885 46.3776 392.6 46.2777C392.315 46.1779 392.073 46.0139 391.873 45.7858C391.68 45.5505 391.584 45.2546 391.584 44.8981C391.584 44.4061 391.77 44.0104 392.14 43.7109C392.518 43.4115 392.985 43.2617 393.541 43.2617C393.983 43.2617 394.376 43.3616 394.718 43.5612C395.067 43.7537 395.335 44.0247 395.52 44.374L394.547 44.9195C394.361 44.5131 394.026 44.3099 393.541 44.3099C393.32 44.3099 393.135 44.3598 392.985 44.4596C392.835 44.5523 392.761 44.6913 392.761 44.8767ZM397.426 46.5665C397.512 46.9729 397.708 47.2866 398.014 47.5077C398.321 47.7216 398.695 47.8285 399.137 47.8285C399.751 47.8285 400.21 47.6075 400.517 47.1654L401.469 47.7216C400.941 48.4987 400.161 48.8873 399.127 48.8873C398.257 48.8873 397.555 48.6235 397.02 48.0959C396.485 47.5611 396.218 46.8874 396.218 46.0745C396.218 45.276 396.481 44.6093 397.009 44.0746C397.537 43.5327 398.214 43.2617 399.041 43.2617C399.825 43.2617 400.467 43.5362 400.966 44.0853C401.472 44.6343 401.726 45.3009 401.726 46.0852C401.726 46.2064 401.711 46.3669 401.683 46.5665H397.426ZM397.416 45.6253H400.56C400.481 45.1904 400.3 44.8624 400.014 44.6414C399.736 44.4204 399.408 44.3099 399.03 44.3099C398.603 44.3099 398.246 44.4275 397.961 44.6628C397.676 44.8981 397.494 45.2189 397.416 45.6253ZM403.897 44.2992C404.189 43.6361 404.738 43.3045 405.544 43.3045V44.5558C405.102 44.5273 404.717 44.6343 404.389 44.8767C404.061 45.112 403.897 45.5041 403.897 46.0531V48.7483H402.742V43.4008H403.897V44.2992ZM407.247 44.8767C407.247 45.0549 407.343 45.1975 407.536 45.3045C407.735 45.4043 407.974 45.4934 408.252 45.5719C408.537 45.6432 408.823 45.7287 409.108 45.8285C409.393 45.9284 409.632 46.0995 409.824 46.3419C410.024 46.5772 410.124 46.8767 410.124 47.2403C410.124 47.7537 409.924 48.1565 409.525 48.4488C409.133 48.7412 408.637 48.8873 408.038 48.8873C407.511 48.8873 407.058 48.7768 406.68 48.5558C406.302 48.3347 406.028 48.0282 405.857 47.636L406.851 47.0585C407.037 47.5718 407.432 47.8285 408.038 47.8285C408.644 47.8285 408.947 47.6289 408.947 47.2296C408.947 47.0585 408.848 46.9194 408.648 46.8125C408.455 46.7055 408.217 46.6164 407.931 46.5451C407.653 46.4667 407.372 46.3776 407.086 46.2777C406.801 46.1779 406.559 46.0139 406.359 45.7858C406.167 45.5505 406.07 45.2546 406.07 44.8981C406.07 44.4061 406.256 44.0104 406.627 43.7109C407.004 43.4115 407.472 43.2617 408.028 43.2617C408.47 43.2617 408.862 43.3616 409.204 43.5612C409.553 43.7537 409.821 44.0247 410.006 44.374L409.033 44.9195C408.848 44.5131 408.512 44.3099 408.028 44.3099C407.807 44.3099 407.621 44.3598 407.472 44.4596C407.322 44.5523 407.247 44.6913 407.247 44.8767Z" fill="#07356B"/>
<rect x="94.7095" y="97.5709" width="324.862" height="192.511" fill="white"/>
<rect x="106.741" y="112.914" width="39.7606" height="39.7606" fill="#F4F6FA"/>
<rect x="106.741" y="175.11" width="39.7606" height="39.7606" fill="#F4F6FA"/>
<rect x="106.741" y="236.606" width="39.7606" height="39.7606" fill="#F4F6FA"/>
<path d="M163.974 143.01C163.974 143.608 163.811 144.139 163.485 144.601L160.884 148.474H159.986L161.94 145.566C161.736 145.612 161.524 145.634 161.304 145.634C160.524 145.634 159.884 145.392 159.384 144.907C158.884 144.415 158.634 143.783 158.634 143.01C158.634 142.238 158.884 141.609 159.384 141.124C159.884 140.632 160.524 140.386 161.304 140.386C162.084 140.386 162.724 140.632 163.224 141.124C163.724 141.609 163.974 142.238 163.974 143.01ZM159.941 141.67C159.6 142.01 159.429 142.457 159.429 143.01C159.429 143.563 159.6 144.01 159.941 144.351C160.289 144.691 160.743 144.862 161.304 144.862C161.864 144.862 162.315 144.691 162.656 144.351C163.004 144.01 163.178 143.563 163.178 143.01C163.178 142.457 163.004 142.01 162.656 141.67C162.315 141.329 161.864 141.158 161.304 141.158C160.743 141.158 160.289 141.329 159.941 141.67ZM166.589 140.522H167.271V148.474H166.476V141.397L164.692 141.931L164.488 141.249L166.589 140.522ZM172.631 144.373C173.033 144.563 173.351 144.828 173.586 145.169C173.828 145.502 173.949 145.884 173.949 146.316C173.949 147.035 173.695 147.6 173.188 148.009C172.681 148.41 172.048 148.611 171.291 148.611C170.533 148.611 169.901 148.41 169.394 148.009C168.886 147.6 168.633 147.035 168.633 146.316C168.633 145.884 168.75 145.502 168.985 145.169C169.227 144.828 169.549 144.563 169.95 144.373C169.246 143.972 168.894 143.377 168.894 142.59C168.894 141.878 169.129 141.333 169.598 140.954C170.075 140.575 170.64 140.386 171.291 140.386C171.942 140.386 172.503 140.575 172.972 140.954C173.449 141.333 173.688 141.878 173.688 142.59C173.688 143.377 173.336 143.972 172.631 144.373ZM172.427 141.511C172.124 141.276 171.745 141.158 171.291 141.158C170.836 141.158 170.454 141.276 170.143 141.511C169.841 141.745 169.689 142.105 169.689 142.59C169.689 143.044 169.844 143.396 170.155 143.646C170.473 143.896 170.852 144.021 171.291 144.021C171.73 144.021 172.105 143.896 172.415 143.646C172.734 143.396 172.893 143.044 172.893 142.59C172.893 142.105 172.737 141.745 172.427 141.511ZM169.939 147.452C170.28 147.709 170.73 147.838 171.291 147.838C171.851 147.838 172.302 147.709 172.643 147.452C172.984 147.187 173.154 146.808 173.154 146.316C173.154 145.824 172.984 145.449 172.643 145.191C172.302 144.926 171.851 144.794 171.291 144.794C170.73 144.794 170.28 144.926 169.939 145.191C169.598 145.449 169.428 145.824 169.428 146.316C169.428 146.808 169.598 147.187 169.939 147.452ZM174.518 140.522H179.403V141.272L176.404 148.474H175.575L178.574 141.272H174.518V140.522ZM182.416 143.362C183.196 143.362 183.836 143.608 184.336 144.101C184.835 144.585 185.085 145.214 185.085 145.986C185.085 146.759 184.835 147.391 184.336 147.884C183.836 148.368 183.196 148.611 182.416 148.611C181.636 148.611 180.996 148.368 180.496 147.884C179.996 147.391 179.746 146.759 179.746 145.986C179.746 145.388 179.909 144.858 180.234 144.396L182.836 140.522H183.733L181.779 143.43C181.984 143.385 182.196 143.362 182.416 143.362ZM181.052 147.327C181.401 147.668 181.855 147.838 182.416 147.838C182.976 147.838 183.427 147.668 183.768 147.327C184.116 146.986 184.29 146.539 184.29 145.986C184.29 145.434 184.116 144.987 183.768 144.646C183.427 144.305 182.976 144.135 182.416 144.135C181.855 144.135 181.401 144.305 181.052 144.646C180.712 144.987 180.541 145.434 180.541 145.986C180.541 146.539 180.712 146.986 181.052 147.327ZM188.329 143.726C189.071 143.726 189.7 143.945 190.215 144.385C190.737 144.816 190.998 145.411 190.998 146.168C190.998 146.926 190.737 147.524 190.215 147.963C189.7 148.395 189.071 148.611 188.329 148.611C187.73 148.611 187.196 148.467 186.727 148.179C186.257 147.884 185.939 147.463 185.773 146.918L186.443 146.532C186.557 146.956 186.78 147.282 187.113 147.509C187.454 147.728 187.859 147.838 188.329 147.838C188.874 147.838 189.321 147.694 189.669 147.407C190.025 147.111 190.203 146.698 190.203 146.168C190.203 145.638 190.025 145.229 189.669 144.941C189.321 144.646 188.874 144.498 188.329 144.498H186.17L186.454 140.522H190.714V141.272H187.159L186.988 143.726H188.329ZM197.758 146.134V146.884H196.736V148.474H195.94V146.884H191.737V146.134L194.691 140.522H195.566L192.612 146.134H195.94V143.703H196.736V146.134H197.758ZM201.417 143.828C202.053 143.911 202.576 144.157 202.985 144.566C203.401 144.968 203.609 145.502 203.609 146.168C203.609 146.926 203.348 147.524 202.826 147.963C202.311 148.395 201.682 148.611 200.94 148.611C200.349 148.611 199.823 148.474 199.361 148.202C198.899 147.929 198.573 147.539 198.384 147.032L199.043 146.645C199.171 147.039 199.402 147.338 199.736 147.543C200.069 147.74 200.47 147.838 200.94 147.838C201.485 147.838 201.932 147.694 202.28 147.407C202.636 147.111 202.814 146.698 202.814 146.168C202.814 145.638 202.636 145.229 202.28 144.941C201.932 144.646 201.485 144.498 200.94 144.498V144.487L200.928 144.498H200.713L200.372 143.976L202.349 141.272H198.611V140.522H203.269V141.272L201.417 143.828ZM204.521 148.474V147.759L207.384 144.873C208.202 144.055 208.611 143.355 208.611 142.772C208.611 142.264 208.452 141.87 208.134 141.59C207.823 141.302 207.449 141.158 207.009 141.158C206.191 141.158 205.597 141.533 205.226 142.283L204.555 141.885C204.805 141.393 205.146 141.022 205.578 140.772C206.01 140.515 206.487 140.386 207.009 140.386C207.645 140.386 208.202 140.602 208.679 141.033C209.164 141.458 209.406 142.037 209.406 142.772C209.406 143.234 209.278 143.677 209.02 144.101C208.763 144.525 208.399 144.972 207.929 145.441L205.657 147.702H209.577V148.474H204.521ZM212.308 140.522H212.989V148.474H212.194V141.397L210.41 141.931L210.206 141.249L212.308 140.522ZM216.168 140.522H216.85V148.474H216.055V141.397L214.271 141.931L214.067 141.249L216.168 140.522ZM223.551 147.497C223.028 148.24 222.29 148.611 221.335 148.611C220.381 148.611 219.639 148.24 219.109 147.497C218.586 146.748 218.325 145.748 218.325 144.498C218.325 143.249 218.586 142.253 219.109 141.511C219.639 140.761 220.381 140.386 221.335 140.386C222.29 140.386 223.028 140.761 223.551 141.511C224.081 142.253 224.346 143.249 224.346 144.498C224.346 145.748 224.081 146.748 223.551 147.497ZM219.699 146.963C220.093 147.547 220.639 147.838 221.335 147.838C222.032 147.838 222.574 147.547 222.96 146.963C223.354 146.38 223.551 145.559 223.551 144.498C223.551 143.438 223.354 142.616 222.96 142.033C222.574 141.45 222.032 141.158 221.335 141.158C220.639 141.158 220.093 141.45 219.699 142.033C219.313 142.616 219.12 143.438 219.12 144.498C219.12 145.559 219.313 146.38 219.699 146.963Z" fill="#757575"/>
<path d="M163.974 204.544C163.974 205.143 163.811 205.673 163.485 206.135L160.884 210.008H159.986L161.94 207.1C161.736 207.146 161.524 207.168 161.304 207.168C160.524 207.168 159.884 206.926 159.384 206.441C158.884 205.949 158.634 205.317 158.634 204.544C158.634 203.772 158.884 203.143 159.384 202.658C159.884 202.166 160.524 201.92 161.304 201.92C162.084 201.92 162.724 202.166 163.224 202.658C163.724 203.143 163.974 203.772 163.974 204.544ZM159.941 203.204C159.6 203.545 159.429 203.991 159.429 204.544C159.429 205.097 159.6 205.544 159.941 205.885C160.289 206.226 160.743 206.396 161.304 206.396C161.864 206.396 162.315 206.226 162.656 205.885C163.004 205.544 163.178 205.097 163.178 204.544C163.178 203.991 163.004 203.545 162.656 203.204C162.315 202.863 161.864 202.693 161.304 202.693C160.743 202.693 160.289 202.863 159.941 203.204ZM166.589 202.056H167.271V210.008H166.476V202.931L164.692 203.465L164.488 202.783L166.589 202.056ZM172.631 205.907C173.033 206.097 173.351 206.362 173.586 206.703C173.828 207.036 173.949 207.418 173.949 207.85C173.949 208.57 173.695 209.134 173.188 209.543C172.681 209.944 172.048 210.145 171.291 210.145C170.533 210.145 169.901 209.944 169.394 209.543C168.886 209.134 168.633 208.57 168.633 207.85C168.633 207.418 168.75 207.036 168.985 206.703C169.227 206.362 169.549 206.097 169.95 205.907C169.246 205.506 168.894 204.912 168.894 204.124C168.894 203.412 169.129 202.867 169.598 202.488C170.075 202.109 170.64 201.92 171.291 201.92C171.942 201.92 172.503 202.109 172.972 202.488C173.449 202.867 173.688 203.412 173.688 204.124C173.688 204.912 173.336 205.506 172.631 205.907ZM172.427 203.045C172.124 202.81 171.745 202.693 171.291 202.693C170.836 202.693 170.454 202.81 170.143 203.045C169.841 203.279 169.689 203.639 169.689 204.124C169.689 204.578 169.844 204.93 170.155 205.18C170.473 205.43 170.852 205.555 171.291 205.555C171.73 205.555 172.105 205.43 172.415 205.18C172.734 204.93 172.893 204.578 172.893 204.124C172.893 203.639 172.737 203.279 172.427 203.045ZM169.939 208.986C170.28 209.244 170.73 209.372 171.291 209.372C171.851 209.372 172.302 209.244 172.643 208.986C172.984 208.721 173.154 208.342 173.154 207.85C173.154 207.358 172.984 206.983 172.643 206.725C172.302 206.46 171.851 206.328 171.291 206.328C170.73 206.328 170.28 206.46 169.939 206.725C169.598 206.983 169.428 207.358 169.428 207.85C169.428 208.342 169.598 208.721 169.939 208.986ZM174.518 202.056H179.403V202.806L176.404 210.008H175.575L178.574 202.806H174.518V202.056ZM182.416 204.896C183.196 204.896 183.836 205.143 184.336 205.635C184.835 206.12 185.085 206.748 185.085 207.521C185.085 208.293 184.835 208.925 184.336 209.418C183.836 209.902 183.196 210.145 182.416 210.145C181.636 210.145 180.996 209.902 180.496 209.418C179.996 208.925 179.746 208.293 179.746 207.521C179.746 206.922 179.909 206.392 180.234 205.93L182.836 202.056H183.733L181.779 204.965C181.984 204.919 182.196 204.896 182.416 204.896ZM181.052 208.861C181.401 209.202 181.855 209.372 182.416 209.372C182.976 209.372 183.427 209.202 183.768 208.861C184.116 208.52 184.29 208.073 184.29 207.521C184.29 206.968 184.116 206.521 183.768 206.18C183.427 205.839 182.976 205.669 182.416 205.669C181.855 205.669 181.401 205.839 181.052 206.18C180.712 206.521 180.541 206.968 180.541 207.521C180.541 208.073 180.712 208.52 181.052 208.861ZM188.329 205.26C189.071 205.26 189.7 205.48 190.215 205.919C190.737 206.351 190.998 206.945 190.998 207.702C190.998 208.46 190.737 209.058 190.215 209.497C189.7 209.929 189.071 210.145 188.329 210.145C187.73 210.145 187.196 210.001 186.727 209.713C186.257 209.418 185.939 208.997 185.773 208.452L186.443 208.066C186.557 208.49 186.78 208.816 187.113 209.043C187.454 209.262 187.859 209.372 188.329 209.372C188.874 209.372 189.321 209.228 189.669 208.941C190.025 208.645 190.203 208.233 190.203 207.702C190.203 207.172 190.025 206.763 189.669 206.475C189.321 206.18 188.874 206.032 188.329 206.032H186.17L186.454 202.056H190.714V202.806H187.159L186.988 205.26H188.329ZM197.758 207.668V208.418H196.736V210.008H195.94V208.418H191.737V207.668L194.691 202.056H195.566L192.612 207.668H195.94V205.237H196.736V207.668H197.758ZM201.417 205.362C202.053 205.445 202.576 205.692 202.985 206.101C203.401 206.502 203.609 207.036 203.609 207.702C203.609 208.46 203.348 209.058 202.826 209.497C202.311 209.929 201.682 210.145 200.94 210.145C200.349 210.145 199.823 210.008 199.361 209.736C198.899 209.463 198.573 209.073 198.384 208.566L199.043 208.179C199.171 208.573 199.402 208.872 199.736 209.077C200.069 209.274 200.47 209.372 200.94 209.372C201.485 209.372 201.932 209.228 202.28 208.941C202.636 208.645 202.814 208.233 202.814 207.702C202.814 207.172 202.636 206.763 202.28 206.475C201.932 206.18 201.485 206.032 200.94 206.032V206.021L200.928 206.032H200.713L200.372 205.51L202.349 202.806H198.611V202.056H203.269V202.806L201.417 205.362ZM204.521 210.008V209.293L207.384 206.407C208.202 205.589 208.611 204.889 208.611 204.306C208.611 203.798 208.452 203.404 208.134 203.124C207.823 202.836 207.449 202.693 207.009 202.693C206.191 202.693 205.597 203.067 205.226 203.817L204.555 203.42C204.805 202.927 205.146 202.556 205.578 202.306C206.01 202.049 206.487 201.92 207.009 201.92C207.645 201.92 208.202 202.136 208.679 202.568C209.164 202.992 209.406 203.571 209.406 204.306C209.406 204.768 209.278 205.211 209.02 205.635C208.763 206.059 208.399 206.506 207.929 206.975L205.657 209.236H209.577V210.008H204.521ZM212.308 202.056H212.989V210.008H212.194V202.931L210.41 203.465L210.206 202.783L212.308 202.056ZM214.351 210.008V209.293L217.213 206.407C218.031 205.589 218.44 204.889 218.44 204.306C218.44 203.798 218.281 203.404 217.963 203.124C217.653 202.836 217.278 202.693 216.839 202.693C216.021 202.693 215.426 203.067 215.055 203.817L214.385 203.42C214.635 202.927 214.975 202.556 215.407 202.306C215.839 202.049 216.316 201.92 216.839 201.92C217.475 201.92 218.031 202.136 218.508 202.568C218.993 202.992 219.236 203.571 219.236 204.306C219.236 204.768 219.107 205.211 218.849 205.635C218.592 206.059 218.228 206.506 217.759 206.975L215.487 209.236H219.406V210.008H214.351ZM225.548 209.032C225.025 209.774 224.287 210.145 223.332 210.145C222.378 210.145 221.636 209.774 221.106 209.032C220.583 208.282 220.322 207.282 220.322 206.032C220.322 204.783 220.583 203.787 221.106 203.045C221.636 202.295 222.378 201.92 223.332 201.92C224.287 201.92 225.025 202.295 225.548 203.045C226.078 203.787 226.343 204.783 226.343 206.032C226.343 207.282 226.078 208.282 225.548 209.032ZM221.696 208.498C222.09 209.081 222.636 209.372 223.332 209.372C224.029 209.372 224.571 209.081 224.957 208.498C225.351 207.914 225.548 207.093 225.548 206.032C225.548 204.972 225.351 204.15 224.957 203.567C224.571 202.984 224.029 202.693 223.332 202.693C222.636 202.693 222.09 202.984 221.696 203.567C221.31 204.15 221.117 204.972 221.117 206.032C221.117 207.093 221.31 207.914 221.696 208.498Z" fill="#757575"/>
<path d="M163.974 265.206C163.974 265.804 163.811 266.334 163.485 266.796L160.884 270.67H159.986L161.94 267.762C161.736 267.807 161.524 267.83 161.304 267.83C160.524 267.83 159.884 267.588 159.384 267.103C158.884 266.611 158.634 265.978 158.634 265.206C158.634 264.433 158.884 263.805 159.384 263.32C159.884 262.828 160.524 262.582 161.304 262.582C162.084 262.582 162.724 262.828 163.224 263.32C163.724 263.805 163.974 264.433 163.974 265.206ZM159.941 263.865C159.6 264.206 159.429 264.653 159.429 265.206C159.429 265.759 159.6 266.206 159.941 266.546C160.289 266.887 160.743 267.058 161.304 267.058C161.864 267.058 162.315 266.887 162.656 266.546C163.004 266.206 163.178 265.759 163.178 265.206C163.178 264.653 163.004 264.206 162.656 263.865C162.315 263.525 161.864 263.354 161.304 263.354C160.743 263.354 160.289 263.525 159.941 263.865ZM166.589 262.718H167.271V270.67H166.476V263.593L164.692 264.127L164.488 263.445L166.589 262.718ZM172.631 266.569C173.033 266.759 173.351 267.024 173.586 267.364C173.828 267.698 173.949 268.08 173.949 268.512C173.949 269.231 173.695 269.795 173.188 270.204C172.681 270.606 172.048 270.807 171.291 270.807C170.533 270.807 169.901 270.606 169.394 270.204C168.886 269.795 168.633 269.231 168.633 268.512C168.633 268.08 168.75 267.698 168.985 267.364C169.227 267.024 169.549 266.759 169.95 266.569C169.246 266.168 168.894 265.573 168.894 264.786C168.894 264.074 169.129 263.528 169.598 263.15C170.075 262.771 170.64 262.582 171.291 262.582C171.942 262.582 172.503 262.771 172.972 263.15C173.449 263.528 173.688 264.074 173.688 264.786C173.688 265.573 173.336 266.168 172.631 266.569ZM172.427 263.706C172.124 263.472 171.745 263.354 171.291 263.354C170.836 263.354 170.454 263.472 170.143 263.706C169.841 263.941 169.689 264.301 169.689 264.786C169.689 265.24 169.844 265.592 170.155 265.842C170.473 266.092 170.852 266.217 171.291 266.217C171.73 266.217 172.105 266.092 172.415 265.842C172.734 265.592 172.893 265.24 172.893 264.786C172.893 264.301 172.737 263.941 172.427 263.706ZM169.939 269.648C170.28 269.905 170.73 270.034 171.291 270.034C171.851 270.034 172.302 269.905 172.643 269.648C172.984 269.383 173.154 269.004 173.154 268.512C173.154 268.02 172.984 267.645 172.643 267.387C172.302 267.122 171.851 266.99 171.291 266.99C170.73 266.99 170.28 267.122 169.939 267.387C169.598 267.645 169.428 268.02 169.428 268.512C169.428 269.004 169.598 269.383 169.939 269.648ZM174.518 262.718H179.403V263.468L176.404 270.67H175.575L178.574 263.468H174.518V262.718ZM182.416 265.558C183.196 265.558 183.836 265.804 184.336 266.297C184.835 266.781 185.085 267.41 185.085 268.182C185.085 268.955 184.835 269.587 184.336 270.079C183.836 270.564 183.196 270.807 182.416 270.807C181.636 270.807 180.996 270.564 180.496 270.079C179.996 269.587 179.746 268.955 179.746 268.182C179.746 267.584 179.909 267.054 180.234 266.592L182.836 262.718H183.733L181.779 265.626C181.984 265.581 182.196 265.558 182.416 265.558ZM181.052 269.523C181.401 269.864 181.855 270.034 182.416 270.034C182.976 270.034 183.427 269.864 183.768 269.523C184.116 269.182 184.29 268.735 184.29 268.182C184.29 267.629 184.116 267.183 183.768 266.842C183.427 266.501 182.976 266.331 182.416 266.331C181.855 266.331 181.401 266.501 181.052 266.842C180.712 267.183 180.541 267.629 180.541 268.182C180.541 268.735 180.712 269.182 181.052 269.523ZM188.329 265.922C189.071 265.922 189.7 266.141 190.215 266.581C190.737 267.012 190.998 267.607 190.998 268.364C190.998 269.121 190.737 269.72 190.215 270.159C189.7 270.591 189.071 270.807 188.329 270.807C187.73 270.807 187.196 270.663 186.727 270.375C186.257 270.079 185.939 269.659 185.773 269.114L186.443 268.728C186.557 269.152 186.78 269.477 187.113 269.705C187.454 269.924 187.859 270.034 188.329 270.034C188.874 270.034 189.321 269.89 189.669 269.602C190.025 269.307 190.203 268.894 190.203 268.364C190.203 267.834 190.025 267.425 189.669 267.137C189.321 266.842 188.874 266.694 188.329 266.694H186.17L186.454 262.718H190.714V263.468H187.159L186.988 265.922H188.329ZM197.758 268.33V269.08H196.736V270.67H195.94V269.08H191.737V268.33L194.691 262.718H195.566L192.612 268.33H195.94V265.899H196.736V268.33H197.758ZM201.417 266.024C202.053 266.107 202.576 266.353 202.985 266.762C203.401 267.164 203.609 267.698 203.609 268.364C203.609 269.121 203.348 269.72 202.826 270.159C202.311 270.591 201.682 270.807 200.94 270.807C200.349 270.807 199.823 270.67 199.361 270.398C198.899 270.125 198.573 269.735 198.384 269.227L199.043 268.841C199.171 269.235 199.402 269.534 199.736 269.739C200.069 269.936 200.47 270.034 200.94 270.034C201.485 270.034 201.932 269.89 202.28 269.602C202.636 269.307 202.814 268.894 202.814 268.364C202.814 267.834 202.636 267.425 202.28 267.137C201.932 266.842 201.485 266.694 200.94 266.694V266.683L200.928 266.694H200.713L200.372 266.172L202.349 263.468H198.611V262.718H203.269V263.468L201.417 266.024ZM204.521 270.67V269.955L207.384 267.069C208.202 266.251 208.611 265.551 208.611 264.967C208.611 264.46 208.452 264.066 208.134 263.786C207.823 263.498 207.449 263.354 207.009 263.354C206.191 263.354 205.597 263.729 205.226 264.479L204.555 264.081C204.805 263.589 205.146 263.218 205.578 262.968C206.01 262.711 206.487 262.582 207.009 262.582C207.645 262.582 208.202 262.798 208.679 263.229C209.164 263.653 209.406 264.233 209.406 264.967C209.406 265.429 209.278 265.872 209.02 266.297C208.763 266.721 208.399 267.168 207.929 267.637L205.657 269.898H209.577V270.67H204.521ZM212.308 262.718H212.989V270.67H212.194V263.593L210.41 264.127L210.206 263.445L212.308 262.718ZM217.27 266.024C217.906 266.107 218.429 266.353 218.838 266.762C219.254 267.164 219.463 267.698 219.463 268.364C219.463 269.121 219.201 269.72 218.679 270.159C218.164 270.591 217.535 270.807 216.793 270.807C216.202 270.807 215.676 270.67 215.214 270.398C214.752 270.125 214.426 269.735 214.237 269.227L214.896 268.841C215.025 269.235 215.256 269.534 215.589 269.739C215.922 269.936 216.324 270.034 216.793 270.034C217.338 270.034 217.785 269.89 218.134 269.602C218.49 269.307 218.667 268.894 218.667 268.364C218.667 267.834 218.49 267.425 218.134 267.137C217.785 266.842 217.338 266.694 216.793 266.694V266.683L216.782 266.694H216.566L216.225 266.172L218.202 263.468H214.464V262.718H219.122V263.468L217.27 266.024ZM225.714 269.693C225.191 270.435 224.453 270.807 223.499 270.807C222.544 270.807 221.802 270.435 221.272 269.693C220.75 268.943 220.488 267.944 220.488 266.694C220.488 265.445 220.75 264.449 221.272 263.706C221.802 262.957 222.544 262.582 223.499 262.582C224.453 262.582 225.191 262.957 225.714 263.706C226.244 264.449 226.509 265.445 226.509 266.694C226.509 267.944 226.244 268.943 225.714 269.693ZM221.863 269.159C222.257 269.742 222.802 270.034 223.499 270.034C224.195 270.034 224.737 269.742 225.123 269.159C225.517 268.576 225.714 267.754 225.714 266.694C225.714 265.634 225.517 264.812 225.123 264.229C224.737 263.646 224.195 263.354 223.499 263.354C222.802 263.354 222.257 263.646 221.863 264.229C221.477 264.812 221.283 265.634 221.283 266.694C221.283 267.754 221.477 268.576 221.863 269.159Z" fill="#757575"/>
<path d="M165.159 128.985C164.514 129.577 163.679 129.873 162.654 129.873C161.629 129.873 160.79 129.577 160.136 128.985C159.491 128.384 159.168 127.584 159.168 126.586V120.423H160.401V126.533C160.401 127.187 160.595 127.708 160.984 128.097C161.373 128.477 161.929 128.667 162.654 128.667C163.378 128.667 163.935 128.477 164.324 128.097C164.713 127.708 164.907 127.187 164.907 126.533V120.423H166.126V126.586C166.126 127.584 165.804 128.384 165.159 128.985ZM168.821 124.863C168.821 125.119 168.949 125.327 169.205 125.486C169.462 125.636 169.771 125.76 170.133 125.857C170.495 125.945 170.858 126.051 171.22 126.175C171.582 126.29 171.891 126.493 172.148 126.785C172.404 127.067 172.532 127.434 172.532 127.885C172.532 128.486 172.298 128.967 171.83 129.329C171.37 129.692 170.778 129.873 170.054 129.873C169.409 129.873 168.856 129.731 168.397 129.449C167.937 129.166 167.611 128.79 167.416 128.322L168.41 127.752C168.516 128.07 168.715 128.322 169.007 128.508C169.298 128.693 169.647 128.786 170.054 128.786C170.434 128.786 170.747 128.715 170.995 128.574C171.242 128.424 171.366 128.194 171.366 127.885C171.366 127.628 171.238 127.425 170.981 127.275C170.725 127.116 170.416 126.992 170.054 126.904C169.691 126.807 169.329 126.696 168.967 126.573C168.605 126.449 168.295 126.246 168.039 125.963C167.783 125.68 167.655 125.318 167.655 124.876C167.655 124.302 167.876 123.829 168.317 123.458C168.768 123.087 169.329 122.901 170.001 122.901C170.54 122.901 171.017 123.025 171.432 123.272C171.856 123.511 172.174 123.847 172.386 124.28L171.419 124.823C171.18 124.258 170.707 123.975 170.001 123.975C169.674 123.975 169.395 124.054 169.166 124.213C168.936 124.364 168.821 124.58 168.821 124.863ZM174.524 126.917C174.639 127.509 174.909 127.969 175.333 128.296C175.766 128.622 176.296 128.786 176.923 128.786C177.798 128.786 178.434 128.463 178.832 127.818L179.813 128.375C179.168 129.374 178.196 129.873 176.897 129.873C175.845 129.873 174.988 129.546 174.326 128.892C173.672 128.229 173.345 127.394 173.345 126.387C173.345 125.389 173.667 124.558 174.312 123.895C174.957 123.233 175.792 122.901 176.817 122.901C177.789 122.901 178.58 123.246 179.19 123.935C179.808 124.615 180.117 125.437 180.117 126.4C180.117 126.568 180.104 126.74 180.078 126.917H174.524ZM176.817 123.988C176.199 123.988 175.686 124.165 175.28 124.518C174.874 124.863 174.622 125.327 174.524 125.91H178.951C178.854 125.283 178.607 124.805 178.209 124.479C177.811 124.152 177.348 123.988 176.817 123.988ZM182.596 124.187C182.976 123.365 183.665 122.954 184.664 122.954V124.16C184.098 124.134 183.612 124.284 183.206 124.611C182.799 124.938 182.596 125.464 182.596 126.188V129.7H181.443V123.074H182.596V124.187ZM190.855 120.423H191.915V129.7H190.696V121.748L188.721 122.331L188.416 121.271L190.855 120.423Z" fill="#212121"/>
<path d="M165.159 190.519C164.514 191.111 163.679 191.407 162.654 191.407C161.629 191.407 160.79 191.111 160.136 190.519C159.491 189.918 159.168 189.119 159.168 188.12V181.957H160.401V188.067C160.401 188.721 160.595 189.242 160.984 189.631C161.373 190.011 161.929 190.201 162.654 190.201C163.378 190.201 163.935 190.011 164.324 189.631C164.713 189.242 164.907 188.721 164.907 188.067V181.957H166.126V188.12C166.126 189.119 165.804 189.918 165.159 190.519ZM168.821 186.397C168.821 186.653 168.949 186.861 169.205 187.02C169.462 187.17 169.771 187.294 170.133 187.391C170.495 187.48 170.858 187.586 171.22 187.709C171.582 187.824 171.891 188.027 172.148 188.319C172.404 188.602 172.532 188.968 172.532 189.419C172.532 190.02 172.298 190.501 171.83 190.864C171.37 191.226 170.778 191.407 170.054 191.407C169.409 191.407 168.856 191.266 168.397 190.983C167.937 190.7 167.611 190.325 167.416 189.856L168.41 189.286C168.516 189.605 168.715 189.856 169.007 190.042C169.298 190.227 169.647 190.32 170.054 190.32C170.434 190.32 170.747 190.25 170.995 190.108C171.242 189.958 171.366 189.728 171.366 189.419C171.366 189.163 171.238 188.96 170.981 188.809C170.725 188.65 170.416 188.527 170.054 188.438C169.691 188.341 169.329 188.231 168.967 188.107C168.605 187.983 168.295 187.78 168.039 187.497C167.783 187.214 167.655 186.852 167.655 186.41C167.655 185.836 167.876 185.363 168.317 184.992C168.768 184.621 169.329 184.436 170.001 184.436C170.54 184.436 171.017 184.559 171.432 184.807C171.856 185.045 172.174 185.381 172.386 185.814L171.419 186.357C171.18 185.792 170.707 185.509 170.001 185.509C169.674 185.509 169.395 185.589 169.166 185.748C168.936 185.898 168.821 186.114 168.821 186.397ZM174.524 188.451C174.639 189.043 174.909 189.503 175.333 189.83C175.766 190.157 176.296 190.32 176.923 190.32C177.798 190.32 178.434 189.998 178.832 189.353L179.813 189.909C179.168 190.908 178.196 191.407 176.897 191.407C175.845 191.407 174.988 191.08 174.326 190.426C173.672 189.764 173.345 188.929 173.345 187.921C173.345 186.923 173.667 186.092 174.312 185.43C174.957 184.767 175.792 184.436 176.817 184.436C177.789 184.436 178.58 184.78 179.19 185.469C179.808 186.15 180.117 186.972 180.117 187.935C180.117 188.102 180.104 188.275 180.078 188.451H174.524ZM176.817 185.522C176.199 185.522 175.686 185.699 175.28 186.053C174.874 186.397 174.622 186.861 174.524 187.444H178.951C178.854 186.817 178.607 186.34 178.209 186.013C177.811 185.686 177.348 185.522 176.817 185.522ZM182.596 185.721C182.976 184.9 183.665 184.489 184.664 184.489V185.695C184.098 185.668 183.612 185.818 183.206 186.145C182.799 186.472 182.596 186.998 182.596 187.723V191.235H181.443V184.608H182.596V185.721ZM188.708 191.235V190.227L191.981 186.888C192.856 186.013 193.293 185.262 193.293 184.634C193.293 184.113 193.134 183.707 192.816 183.415C192.498 183.124 192.109 182.978 191.65 182.978C190.775 182.978 190.139 183.393 189.741 184.224L188.708 183.614C188.999 183.013 189.401 182.558 189.914 182.249C190.435 181.94 191.009 181.785 191.637 181.785C192.414 181.785 193.09 182.041 193.664 182.554C194.239 183.066 194.526 183.755 194.526 184.621C194.526 185.558 193.974 186.578 192.869 187.683L190.497 190.042H194.698V191.235H188.708Z" fill="#212121"/>
<path d="M165.159 252.053C164.514 252.645 163.679 252.941 162.654 252.941C161.629 252.941 160.79 252.645 160.136 252.053C159.491 251.453 159.168 250.653 159.168 249.654V243.492H160.401V249.601C160.401 250.255 160.595 250.777 160.984 251.165C161.373 251.545 161.929 251.735 162.654 251.735C163.378 251.735 163.935 251.545 164.324 251.165C164.713 250.777 164.907 250.255 164.907 249.601V243.492H166.126V249.654C166.126 250.653 165.804 251.453 165.159 252.053ZM168.821 247.931C168.821 248.188 168.949 248.395 169.205 248.554C169.462 248.705 169.771 248.828 170.133 248.926C170.495 249.014 170.858 249.12 171.22 249.244C171.582 249.358 171.891 249.562 172.148 249.853C172.404 250.136 172.532 250.503 172.532 250.953C172.532 251.554 172.298 252.036 171.83 252.398C171.37 252.76 170.778 252.941 170.054 252.941C169.409 252.941 168.856 252.8 168.397 252.517C167.937 252.234 167.611 251.859 167.416 251.391L168.41 250.821C168.516 251.139 168.715 251.391 169.007 251.576C169.298 251.762 169.647 251.855 170.054 251.855C170.434 251.855 170.747 251.784 170.995 251.642C171.242 251.492 171.366 251.263 171.366 250.953C171.366 250.697 171.238 250.494 170.981 250.344C170.725 250.185 170.416 250.061 170.054 249.973C169.691 249.875 169.329 249.765 168.967 249.641C168.605 249.518 168.295 249.314 168.039 249.032C167.783 248.749 167.655 248.387 167.655 247.945C167.655 247.37 167.876 246.898 168.317 246.527C168.768 246.156 169.329 245.97 170.001 245.97C170.54 245.97 171.017 246.094 171.432 246.341C171.856 246.58 172.174 246.915 172.386 247.348L171.419 247.892C171.18 247.326 170.707 247.044 170.001 247.044C169.674 247.044 169.395 247.123 169.166 247.282C168.936 247.432 168.821 247.649 168.821 247.931ZM174.524 249.986C174.639 250.578 174.909 251.037 175.333 251.364C175.766 251.691 176.296 251.855 176.923 251.855C177.798 251.855 178.434 251.532 178.832 250.887L179.813 251.444C179.168 252.442 178.196 252.941 176.897 252.941C175.845 252.941 174.988 252.614 174.326 251.961C173.672 251.298 173.345 250.463 173.345 249.456C173.345 248.457 173.667 247.627 174.312 246.964C174.957 246.301 175.792 245.97 176.817 245.97C177.789 245.97 178.58 246.315 179.19 247.004C179.808 247.684 180.117 248.506 180.117 249.469C180.117 249.637 180.104 249.809 180.078 249.986H174.524ZM176.817 247.057C176.199 247.057 175.686 247.233 175.28 247.587C174.874 247.931 174.622 248.395 174.524 248.979H178.951C178.854 248.351 178.607 247.874 178.209 247.547C177.811 247.22 177.348 247.057 176.817 247.057ZM182.596 247.256C182.976 246.434 183.665 246.023 184.664 246.023V247.229C184.098 247.203 183.612 247.353 183.206 247.68C182.799 248.007 182.596 248.532 182.596 249.257V252.769H181.443V246.142H182.596V247.256ZM192.419 247.295C193.125 247.428 193.704 247.733 194.155 248.21C194.605 248.687 194.831 249.292 194.831 250.026C194.831 250.927 194.521 251.638 193.903 252.159C193.284 252.681 192.533 252.941 191.65 252.941C190.943 252.941 190.316 252.782 189.768 252.464C189.22 252.137 188.831 251.669 188.602 251.059L189.635 250.45C189.909 251.307 190.581 251.735 191.65 251.735C192.224 251.735 192.692 251.585 193.055 251.285C193.417 250.984 193.598 250.565 193.598 250.026C193.598 249.487 193.417 249.067 193.055 248.766C192.692 248.457 192.224 248.303 191.65 248.303H191.332L190.841 247.547L192.988 244.645H188.867V243.492H194.433V244.578L192.419 247.295Z" fill="#212121"/>
<path d="M153.56 163.088L420.524 163.088" stroke="#F4F6FA" stroke-width="0.946682" stroke-linecap="round"/>
<path d="M153.56 224.622L420.524 224.622" stroke="#F4F6FA" stroke-width="0.946682" stroke-linecap="round"/>
<g clip-path="url(#clip1_3833_254)">
<path d="M394.507 114.282C393.955 114.282 393.504 114.733 393.504 115.285C393.504 115.836 393.955 116.287 394.507 116.287C395.058 116.287 395.509 115.836 395.509 115.285C395.509 114.733 395.058 114.282 394.507 114.282ZM394.507 124.309C393.955 124.309 393.504 124.76 393.504 125.311C393.504 125.863 393.955 126.314 394.507 126.314C395.058 126.314 395.509 125.863 395.509 125.311C395.509 124.76 395.058 124.309 394.507 124.309ZM394.507 119.295C393.955 119.295 393.504 119.746 393.504 120.298C393.504 120.849 393.955 121.301 394.507 121.301C395.058 121.301 395.509 120.849 395.509 120.298C395.509 119.746 395.058 119.295 394.507 119.295Z" fill="black"/>
</g>
<g clip-path="url(#clip2_3833_254)">
<path d="M394.507 179.789C393.955 179.789 393.504 180.24 393.504 180.792C393.504 181.343 393.955 181.794 394.507 181.794C395.058 181.794 395.509 181.343 395.509 180.792C395.509 180.24 395.058 179.789 394.507 179.789ZM394.507 189.816C393.955 189.816 393.504 190.267 393.504 190.818C393.504 191.37 393.955 191.821 394.507 191.821C395.058 191.821 395.509 191.37 395.509 190.818C395.509 190.267 395.058 189.816 394.507 189.816ZM394.507 184.802C393.955 184.802 393.504 185.254 393.504 185.805C393.504 186.356 393.955 186.808 394.507 186.808C395.058 186.808 395.509 186.356 395.509 185.805C395.509 185.254 395.058 184.802 394.507 184.802Z" fill="black"/>
</g>
<g clip-path="url(#clip3_3833_254)">
<path d="M394.507 241.286C393.955 241.286 393.504 241.737 393.504 242.288C393.504 242.84 393.955 243.291 394.507 243.291C395.058 243.291 395.509 242.84 395.509 242.288C395.509 241.737 395.058 241.286 394.507 241.286ZM394.507 251.312C393.955 251.312 393.504 251.763 393.504 252.315C393.504 252.866 393.955 253.317 394.507 253.317C395.058 253.317 395.509 252.866 395.509 252.315C395.509 251.763 395.058 251.312 394.507 251.312ZM394.507 246.299C393.955 246.299 393.504 246.75 393.504 247.301C393.504 247.853 393.955 248.304 394.507 248.304C395.058 248.304 395.509 247.853 395.509 247.301C395.509 246.75 395.058 246.299 394.507 246.299Z" fill="black"/>
</g>
<path d="M119.664 141.242C119.664 139.351 120.415 137.538 121.752 136.201C123.09 134.863 124.903 134.112 126.794 134.112C128.685 134.112 130.499 134.863 131.836 136.201C133.173 137.538 133.924 139.351 133.924 141.242H119.664ZM127.685 135.969V139.46H131.838C131.519 138.561 130.966 137.763 130.236 137.15C129.506 136.536 128.626 136.128 127.685 135.969V135.969ZM125.903 139.46V135.969C124.963 136.128 124.082 136.536 123.352 137.15C122.622 137.763 122.069 138.561 121.75 139.46H125.903ZM126.794 133.221C123.84 133.221 121.447 130.828 121.447 127.874C121.447 124.919 123.84 122.526 126.794 122.526C129.749 122.526 132.142 124.919 132.142 127.874C132.142 130.828 129.749 133.221 126.794 133.221ZM126.794 131.439C128.764 131.439 130.359 129.843 130.359 127.874C130.359 125.904 128.764 124.309 126.794 124.309C124.824 124.309 123.229 125.904 123.229 127.874C123.229 129.843 124.824 131.439 126.794 131.439Z" fill="#D8D8D8"/>
<path d="M119.664 202.739C119.664 200.848 120.415 199.034 121.752 197.697C123.09 196.36 124.903 195.609 126.794 195.609C128.685 195.609 130.499 196.36 131.836 197.697C133.173 199.034 133.924 200.848 133.924 202.739H119.664ZM127.685 197.465V200.956H131.838C131.519 200.057 130.966 199.26 130.236 198.646C129.506 198.032 128.626 197.625 127.685 197.465V197.465ZM125.903 200.956V197.465C124.963 197.625 124.082 198.032 123.352 198.646C122.622 199.26 122.069 200.057 121.75 200.956H125.903ZM126.794 194.717C123.84 194.717 121.447 192.324 121.447 189.37C121.447 186.415 123.84 184.022 126.794 184.022C129.749 184.022 132.142 186.415 132.142 189.37C132.142 192.324 129.749 194.717 126.794 194.717ZM126.794 192.935C128.764 192.935 130.359 191.34 130.359 189.37C130.359 187.4 128.764 185.805 126.794 185.805C124.824 185.805 123.229 187.4 123.229 189.37C123.229 191.34 124.824 192.935 126.794 192.935Z" fill="#D8D8D8"/>
<path d="M119.664 264.235C119.664 262.344 120.415 260.531 121.752 259.194C123.09 257.856 124.903 257.105 126.794 257.105C128.685 257.105 130.499 257.856 131.836 259.194C133.173 260.531 133.924 262.344 133.924 264.235H119.664ZM127.685 258.962V262.453H131.838C131.519 261.554 130.966 260.756 130.236 260.143C129.506 259.529 128.626 259.121 127.685 258.962V258.962ZM125.903 262.453V258.962C124.963 259.121 124.082 259.529 123.352 260.143C122.622 260.756 122.069 261.554 121.75 262.453H125.903ZM126.794 256.214C123.84 256.214 121.447 253.821 121.447 250.866C121.447 247.912 123.84 245.519 126.794 245.519C129.749 245.519 132.142 247.912 132.142 250.866C132.142 253.821 129.749 256.214 126.794 256.214ZM126.794 254.431C128.764 254.431 130.359 252.836 130.359 250.866C130.359 248.897 128.764 247.301 126.794 247.301C124.824 247.301 123.229 248.897 123.229 250.866C123.229 252.836 124.824 254.431 126.794 254.431Z" fill="#D8D8D8"/>
<g clip-path="url(#clip4_3833_254)">
<path d="M101.223 43.5771H112.746V45.4704H101.223L106.301 50.5482L104.963 51.8868L97.5996 44.5238L104.963 37.1607L106.301 38.4993L101.223 43.5771Z" fill="#606060"/>
</g>
</g>
<defs>
<linearGradient id="paint0_linear_3833_254" x1="256" y1="4.20168" x2="256" y2="400" gradientUnits="userSpaceOnUse">
<stop offset="0.508831" stop-color="#DEDEDE"/>
<stop offset="1" stop-color="#DEDEDE" stop-opacity="0.06"/>
</linearGradient>
<linearGradient id="paint1_linear_3833_254" x1="256" y1="7.99997" x2="256" y2="377.333" gradientUnits="userSpaceOnUse">
<stop offset="0.823604" stop-color="#F9FBFF"/>
<stop offset="1" stop-color="#FCFDFF" stop-opacity="0"/>
</linearGradient>
<clipPath id="clip0_3833_254">
<path d="M78.667 40.0851C78.667 24.96 78.667 17.3975 83.3657 12.6987C88.0645 7.99997 95.627 7.99997 110.752 7.99997H401.249C416.374 7.99997 423.936 7.99997 428.635 12.6987C433.334 17.3975 433.334 24.96 433.334 40.0851V377.333H78.667V40.0851Z" fill="white"/>
</clipPath>
<clipPath id="clip1_3833_254">
<rect width="16.0426" height="16.0426" fill="white" transform="translate(386.486 112.277)"/>
</clipPath>
<clipPath id="clip2_3833_254">
<rect width="16.0426" height="16.0426" fill="white" transform="translate(386.486 177.784)"/>
</clipPath>
<clipPath id="clip3_3833_254">
<rect width="16.0426" height="16.0426" fill="white" transform="translate(386.486 239.28)"/>
</clipPath>
<clipPath id="clip4_3833_254">
<rect width="22.7195" height="22.7195" fill="white" transform="translate(93.8135 33.1636)"/>
</clipPath>
</defs>
</svg>
