<svg width="512" height="390" viewBox="0 0 512 390" fill="none" xmlns="http://www.w3.org/2000/svg">
<path d="M73 25.9575C73 11.6216 84.6215 0 98.9575 0H413.043C427.378 0 439 11.6215 439 25.9574V389.362H73V25.9575Z" fill="url(#paint0_linear_3835_1163)"/>
<g clip-path="url(#clip0_3835_1163)">
<path d="M83.3838 38.9362C83.3838 24.2524 83.3838 16.9105 87.9454 12.3489C92.5071 7.78723 99.849 7.78723 114.533 7.78723H397.469C412.153 7.78723 419.495 7.78723 424.056 12.3489C428.618 16.9105 428.618 24.2524 428.618 38.9362V367.298H83.3838V38.9362Z" fill="url(#paint1_linear_3835_1163)"/>
<rect x="83.3838" y="7.78723" width="346.532" height="63.5957" fill="white"/>
<path d="M145.996 48.9738L142.32 38.6803H143.79L146.775 47.268L149.746 38.6803H151.231L147.54 48.9738H145.996ZM152.327 45.8858C152.454 46.5426 152.753 47.0524 153.224 47.4151C153.704 47.7778 154.292 47.9592 154.988 47.9592C155.959 47.9592 156.665 47.6014 157.106 46.8857L158.194 47.5033C157.478 48.6111 156.4 49.165 154.959 49.165C153.792 49.165 152.842 48.8023 152.106 48.0768C151.381 47.3416 151.018 46.4152 151.018 45.2976C151.018 44.1898 151.376 43.2683 152.092 42.533C152.807 41.7978 153.734 41.4302 154.871 41.4302C155.949 41.4302 156.827 41.8125 157.503 42.5772C158.189 43.332 158.532 44.2437 158.532 45.3123C158.532 45.4985 158.518 45.6897 158.488 45.8858H152.327ZM154.871 42.636C154.185 42.636 153.616 42.832 153.165 43.2242C152.714 43.6065 152.435 44.1212 152.327 44.7682H157.238C157.13 44.0722 156.856 43.5428 156.415 43.1801C155.974 42.8173 155.459 42.636 154.871 42.636ZM163.664 41.4302C164.527 41.4302 165.218 41.7047 165.738 42.2536C166.257 42.7928 166.517 43.5281 166.517 44.4594V48.9738H165.238V44.5329C165.238 43.9349 165.076 43.4742 164.753 43.1507C164.429 42.8173 163.983 42.6507 163.415 42.6507C162.777 42.6507 162.263 42.8517 161.87 43.2536C161.478 43.6457 161.282 44.2535 161.282 45.077V48.9738H160.003V41.6213H161.282V42.6801C161.802 41.8468 162.596 41.4302 163.664 41.4302ZM174.391 38.6803H175.67V48.9738H174.391V47.7092C173.754 48.6797 172.827 49.165 171.612 49.165C170.582 49.165 169.705 48.7925 168.98 48.0474C168.254 47.2925 167.891 46.3759 167.891 45.2976C167.891 44.2192 168.254 43.3075 168.98 42.5625C169.705 41.8076 170.582 41.4302 171.612 41.4302C172.827 41.4302 173.754 41.9154 174.391 42.886V38.6803ZM171.774 47.9298C172.519 47.9298 173.141 47.6798 173.641 47.1798C174.141 46.67 174.391 46.0426 174.391 45.2976C174.391 44.5525 174.141 43.93 173.641 43.43C173.141 42.9203 172.519 42.6654 171.774 42.6654C171.038 42.6654 170.421 42.9203 169.921 43.43C169.421 43.93 169.171 44.5525 169.171 45.2976C169.171 46.0426 169.421 46.67 169.921 47.1798C170.421 47.6798 171.038 47.9298 171.774 47.9298ZM183.814 48.0474C183.059 48.7925 182.143 49.165 181.064 49.165C179.986 49.165 179.069 48.7925 178.315 48.0474C177.569 47.3024 177.197 46.3857 177.197 45.2976C177.197 44.2094 177.569 43.2928 178.315 42.5477C179.069 41.8027 179.986 41.4302 181.064 41.4302C182.143 41.4302 183.059 41.8027 183.814 42.5477C184.569 43.2928 184.946 44.2094 184.946 45.2976C184.946 46.3857 184.569 47.3024 183.814 48.0474ZM181.064 47.9151C181.8 47.9151 182.417 47.6651 182.917 47.1651C183.417 46.6651 183.667 46.0426 183.667 45.2976C183.667 44.5525 183.417 43.93 182.917 43.43C182.417 42.9301 181.8 42.6801 181.064 42.6801C180.339 42.6801 179.726 42.9301 179.226 43.43C178.726 43.93 178.476 44.5525 178.476 45.2976C178.476 46.0426 178.726 46.6651 179.226 47.1651C179.726 47.6651 180.339 47.9151 181.064 47.9151ZM187.734 42.8566C188.156 41.9448 188.92 41.489 190.028 41.489V42.8271C189.401 42.7977 188.861 42.9644 188.41 43.3271C187.959 43.6898 187.734 44.2731 187.734 45.077V48.9738H186.455V41.6213H187.734V42.8566ZM198.823 38.6803C199.774 38.6803 200.563 38.999 201.191 39.6362C201.828 40.2636 202.147 41.0478 202.147 41.989C202.147 42.9203 201.828 43.7045 201.191 44.3418C200.563 44.979 199.774 45.2976 198.823 45.2976H196.456V48.9738H195.088V38.6803H198.823ZM198.823 44.0182C199.392 44.0182 199.863 43.8271 200.235 43.4448C200.608 43.0526 200.794 42.5674 200.794 41.989C200.794 41.4008 200.608 40.9155 200.235 40.5332C199.863 40.1508 199.392 39.9597 198.823 39.9597H196.456V44.0182H198.823ZM209.157 41.6213H210.437V48.9738H209.157V47.7092C208.52 48.6797 207.594 49.165 206.378 49.165C205.349 49.165 204.471 48.7925 203.746 48.0474C203.021 47.2925 202.658 46.3759 202.658 45.2976C202.658 44.2192 203.021 43.3075 203.746 42.5625C204.471 41.8076 205.349 41.4302 206.378 41.4302C207.594 41.4302 208.52 41.9154 209.157 42.886V41.6213ZM206.54 47.9298C207.285 47.9298 207.907 47.6798 208.407 47.1798C208.907 46.67 209.157 46.0426 209.157 45.2976C209.157 44.5525 208.907 43.93 208.407 43.43C207.907 42.9203 207.285 42.6654 206.54 42.6654C205.805 42.6654 205.187 42.9203 204.687 43.43C204.187 43.93 203.937 44.5525 203.937 45.2976C203.937 46.0426 204.187 46.67 204.687 47.1798C205.187 47.6798 205.805 47.9298 206.54 47.9298ZM217.507 41.6213H218.875L215.875 49.4297C215.561 50.263 215.12 50.8953 214.551 51.3266C213.993 51.7678 213.346 51.9638 212.61 51.9148V50.7237C213.512 50.7923 214.174 50.2924 214.595 49.2238L214.728 48.9444L211.522 41.6213H212.89L215.39 47.3857L217.507 41.6213ZM225.861 48.0474C225.106 48.7925 224.19 49.165 223.111 49.165C222.033 49.165 221.116 48.7925 220.362 48.0474C219.616 47.3024 219.244 46.3857 219.244 45.2976C219.244 44.2094 219.616 43.2928 220.362 42.5477C221.116 41.8027 222.033 41.4302 223.111 41.4302C224.19 41.4302 225.106 41.8027 225.861 42.5477C226.616 43.2928 226.993 44.2094 226.993 45.2976C226.993 46.3857 226.616 47.3024 225.861 48.0474ZM223.111 47.9151C223.847 47.9151 224.464 47.6651 224.964 47.1651C225.464 46.6651 225.714 46.0426 225.714 45.2976C225.714 44.5525 225.464 43.93 224.964 43.43C224.464 42.9301 223.847 42.6801 223.111 42.6801C222.386 42.6801 221.773 42.9301 221.273 43.43C220.773 43.93 220.523 44.5525 220.523 45.2976C220.523 46.0426 220.773 46.6651 221.273 47.1651C221.773 47.6651 222.386 47.9151 223.111 47.9151ZM233.575 41.6213H234.854V48.9738H233.575V47.9151C233.055 48.7483 232.261 49.165 231.193 49.165C230.33 49.165 229.639 48.8954 229.119 48.3562C228.6 47.8072 228.34 47.0671 228.34 46.1358V41.6213H229.619V46.0622C229.619 46.6602 229.781 47.1259 230.104 47.4592C230.428 47.7827 230.874 47.9445 231.443 47.9445C232.08 47.9445 232.595 47.7484 232.987 47.3563C233.379 46.9543 233.575 46.3416 233.575 45.5182V41.6213ZM240.802 42.8566H238.846V46.8416C238.846 47.2043 238.915 47.4641 239.052 47.621C239.199 47.768 239.419 47.8464 239.713 47.8562C240.008 47.8562 240.37 47.8464 240.802 47.8268V48.9738C239.684 49.1209 238.865 49.0326 238.346 48.7091C237.826 48.3758 237.567 47.7533 237.567 46.8416V42.8566H236.111V41.6213H237.567V39.945L238.846 39.5626V41.6213H240.802V42.8566ZM243.06 43.6065C243.06 43.8908 243.202 44.1212 243.487 44.2976C243.771 44.4643 244.114 44.6015 244.516 44.7094C244.918 44.8074 245.32 44.9251 245.722 45.0623C246.124 45.1897 246.467 45.4152 246.751 45.7387C247.035 46.0524 247.178 46.4593 247.178 46.9592C247.178 47.6259 246.918 48.1601 246.398 48.5621C245.888 48.964 245.232 49.165 244.428 49.165C243.712 49.165 243.099 49.0081 242.59 48.6944C242.08 48.3807 241.717 47.9641 241.501 47.4445L242.604 46.8122C242.722 47.1651 242.942 47.4445 243.266 47.6504C243.59 47.8562 243.977 47.9592 244.428 47.9592C244.849 47.9592 245.197 47.8807 245.472 47.7239C245.746 47.5572 245.883 47.3024 245.883 46.9592C245.883 46.6749 245.741 46.4495 245.457 46.2828C245.173 46.1063 244.83 45.9691 244.428 45.8711C244.026 45.7632 243.624 45.6407 243.222 45.5034C242.82 45.3662 242.477 45.1407 242.193 44.827C241.908 44.5133 241.766 44.1114 241.766 43.6212C241.766 42.984 242.011 42.4595 242.501 42.0478C243.001 41.636 243.624 41.4302 244.369 41.4302C244.967 41.4302 245.496 41.5674 245.957 41.8419C246.428 42.1066 246.78 42.4791 247.016 42.9595L245.942 43.5624C245.678 42.935 245.153 42.6213 244.369 42.6213C244.006 42.6213 243.697 42.7095 243.442 42.886C243.188 43.0526 243.06 43.2928 243.06 43.6065Z" fill="#303030"/>
<rect x="97.335" y="86.6329" width="315.383" height="236.537" fill="white"/>
<path d="M122.022 123.71V133.249H120.455V126.449L117.552 131.246H117.361L114.459 126.435V133.249H112.891V123.71H114.581L117.457 128.48L120.346 123.71H122.022ZM127.045 133.426C126.045 133.426 125.196 133.081 124.496 132.391C123.797 131.7 123.447 130.851 123.447 129.842C123.447 128.834 123.797 127.984 124.496 127.294C125.196 126.603 126.045 126.258 127.045 126.258C128.053 126.258 128.903 126.603 129.593 127.294C130.293 127.984 130.642 128.834 130.642 129.842C130.642 130.851 130.293 131.7 129.593 132.391C128.903 133.081 128.053 133.426 127.045 133.426ZM125.532 131.382C125.941 131.791 126.445 131.995 127.045 131.995C127.644 131.995 128.149 131.791 128.557 131.382C128.966 130.973 129.171 130.46 129.171 129.842C129.171 129.225 128.966 128.711 128.557 128.302C128.149 127.894 127.644 127.689 127.045 127.689C126.445 127.689 125.941 127.894 125.532 128.302C125.123 128.711 124.919 129.225 124.919 129.842C124.919 130.46 125.123 130.973 125.532 131.382ZM135.557 126.258C136.339 126.258 136.97 126.508 137.452 127.008C137.933 127.507 138.174 128.193 138.174 129.066V133.249H136.702V129.215C136.702 128.707 136.566 128.316 136.293 128.043C136.021 127.771 135.648 127.635 135.176 127.635C134.658 127.635 134.24 127.798 133.922 128.125C133.604 128.443 133.445 128.934 133.445 129.597V133.249H131.973V123.71H133.445V127.308C133.89 126.608 134.594 126.258 135.557 126.258ZM145.155 126.435H146.627V133.249H145.155V132.268C144.601 133.04 143.806 133.426 142.77 133.426C141.835 133.426 141.035 133.081 140.372 132.391C139.709 131.691 139.377 130.842 139.377 129.842C139.377 128.834 139.709 127.984 140.372 127.294C141.035 126.603 141.835 126.258 142.77 126.258C143.806 126.258 144.601 126.64 145.155 127.403V126.435ZM141.462 131.409C141.871 131.818 142.384 132.023 143.002 132.023C143.62 132.023 144.133 131.818 144.542 131.409C144.951 130.992 145.155 130.469 145.155 129.842C145.155 129.215 144.951 128.698 144.542 128.289C144.133 127.871 143.62 127.662 143.002 127.662C142.384 127.662 141.871 127.871 141.462 128.289C141.053 128.698 140.849 129.215 140.849 129.842C140.849 130.469 141.053 130.992 141.462 131.409ZM151.926 126.258C152.708 126.258 153.339 126.508 153.821 127.008C154.302 127.507 154.543 128.193 154.543 129.066V133.249H153.071V129.215C153.071 128.707 152.935 128.316 152.662 128.043C152.39 127.771 152.017 127.635 151.545 127.635C151.027 127.635 150.609 127.798 150.291 128.125C149.973 128.443 149.814 128.934 149.814 129.597V133.249H148.342V126.435H149.814V127.308C150.259 126.608 150.963 126.258 151.926 126.258ZM166.825 133.249H164.958L161.197 128.711V133.249H159.63V123.71H161.197V127.989L164.822 123.71H166.689L162.833 128.357L166.825 133.249Z" fill="#212121"/>
<path d="M116.067 220.059C115.149 220.059 114.368 219.85 113.723 219.432C113.087 219.015 112.642 218.442 112.387 217.715L113.736 216.925C114.118 217.997 114.908 218.533 116.108 218.533C116.698 218.533 117.139 218.419 117.429 218.192C117.729 217.956 117.879 217.652 117.879 217.279C117.879 216.889 117.72 216.593 117.402 216.394C117.084 216.185 116.521 215.957 115.712 215.712C115.258 215.576 114.89 215.449 114.609 215.331C114.327 215.212 114.027 215.049 113.709 214.84C113.4 214.622 113.169 214.354 113.014 214.036C112.86 213.718 112.782 213.345 112.782 212.918C112.782 212.074 113.082 211.406 113.682 210.915C114.281 210.416 115.004 210.166 115.849 210.166C116.612 210.166 117.28 210.352 117.852 210.724C118.424 211.097 118.865 211.61 119.174 212.264L117.852 213.027C117.452 212.137 116.784 211.692 115.849 211.692C115.394 211.692 115.031 211.801 114.758 212.019C114.486 212.228 114.35 212.514 114.35 212.878C114.35 213.232 114.486 213.514 114.758 213.722C115.04 213.922 115.544 214.136 116.271 214.363C116.635 214.481 116.898 214.572 117.062 214.636C117.234 214.69 117.47 214.781 117.77 214.908C118.079 215.035 118.311 215.162 118.465 215.29C118.62 215.417 118.783 215.576 118.956 215.767C119.137 215.957 119.265 216.175 119.337 216.421C119.41 216.666 119.446 216.943 119.446 217.252C119.446 218.115 119.133 218.801 118.506 219.31C117.888 219.81 117.075 220.059 116.067 220.059ZM125.307 213.068H126.779V219.882H125.307V219.01C124.862 219.71 124.158 220.059 123.195 220.059C122.413 220.059 121.782 219.81 121.3 219.31C120.819 218.81 120.578 218.124 120.578 217.252V213.068H122.05V217.102C122.05 217.611 122.186 218.002 122.459 218.274C122.731 218.547 123.104 218.683 123.576 218.683C124.094 218.683 124.512 218.524 124.83 218.206C125.148 217.879 125.307 217.384 125.307 216.721V213.068ZM129.972 214.213C130.344 213.368 131.044 212.946 132.07 212.946V214.54C131.507 214.504 131.016 214.64 130.598 214.949C130.181 215.249 129.972 215.748 129.972 216.448V219.882H128.5V213.068H129.972V214.213ZM133.997 217.102C134.106 217.62 134.355 218.02 134.746 218.301C135.137 218.574 135.614 218.71 136.177 218.71C136.958 218.71 137.544 218.429 137.935 217.865L139.148 218.574C138.476 219.564 137.481 220.059 136.163 220.059C135.055 220.059 134.16 219.723 133.479 219.051C132.797 218.37 132.457 217.511 132.457 216.475C132.457 215.458 132.793 214.608 133.465 213.927C134.137 213.236 135.001 212.891 136.054 212.891C137.054 212.891 137.871 213.241 138.507 213.941C139.152 214.64 139.475 215.49 139.475 216.489C139.475 216.643 139.457 216.848 139.42 217.102H133.997ZM133.983 215.903H137.99C137.89 215.349 137.658 214.931 137.295 214.649C136.94 214.368 136.522 214.227 136.041 214.227C135.496 214.227 135.041 214.377 134.678 214.676C134.315 214.976 134.083 215.385 133.983 215.903ZM144.354 212.891C145.135 212.891 145.767 213.141 146.248 213.641C146.73 214.14 146.971 214.826 146.971 215.699V219.882H145.499V215.848C145.499 215.34 145.363 214.949 145.09 214.676C144.817 214.404 144.445 214.268 143.973 214.268C143.455 214.268 143.037 214.431 142.719 214.758C142.401 215.076 142.242 215.567 142.242 216.23V219.882H140.77V213.068H142.242V213.941C142.687 213.241 143.391 212.891 144.354 212.891ZM153.952 210.343H155.424V219.882H153.952V218.901C153.398 219.673 152.603 220.059 151.567 220.059C150.631 220.059 149.832 219.714 149.169 219.024C148.505 218.324 148.174 217.475 148.174 216.475C148.174 215.467 148.505 214.617 149.169 213.927C149.832 213.236 150.631 212.891 151.567 212.891C152.603 212.891 153.398 213.273 153.952 214.036V210.343ZM150.259 218.042C150.668 218.451 151.181 218.656 151.799 218.656C152.417 218.656 152.93 218.451 153.339 218.042C153.747 217.625 153.952 217.102 153.952 216.475C153.952 215.848 153.747 215.331 153.339 214.922C152.93 214.504 152.417 214.295 151.799 214.295C151.181 214.295 150.668 214.504 150.259 214.922C149.85 215.331 149.646 215.848 149.646 216.475C149.646 217.102 149.85 217.625 150.259 218.042ZM162.536 213.068H164.008V219.882H162.536V218.901C161.982 219.673 161.187 220.059 160.151 220.059C159.215 220.059 158.416 219.714 157.752 219.024C157.089 218.324 156.758 217.475 156.758 216.475C156.758 215.467 157.089 214.617 157.752 213.927C158.416 213.236 159.215 212.891 160.151 212.891C161.187 212.891 161.982 213.273 162.536 214.036V213.068ZM158.843 218.042C159.251 218.451 159.765 218.656 160.383 218.656C161 218.656 161.514 218.451 161.922 218.042C162.331 217.625 162.536 217.102 162.536 216.475C162.536 215.848 162.331 215.331 161.922 214.922C161.514 214.504 161 214.295 160.383 214.295C159.765 214.295 159.251 214.504 158.843 214.922C158.434 215.331 158.229 215.848 158.229 216.475C158.229 217.102 158.434 217.625 158.843 218.042ZM167.195 214.213C167.567 213.368 168.267 212.946 169.293 212.946V214.54C168.73 214.504 168.24 214.64 167.822 214.949C167.404 215.249 167.195 215.748 167.195 216.448V219.882H165.723V213.068H167.195V214.213ZM177.058 220.059C176.141 220.059 175.36 219.85 174.714 219.432C174.079 219.015 173.633 218.442 173.379 217.715L174.728 216.925C175.11 217.997 175.9 218.533 177.099 218.533C177.69 218.533 178.13 218.419 178.421 218.192C178.721 217.956 178.871 217.652 178.871 217.279C178.871 216.889 178.712 216.593 178.394 216.394C178.076 216.185 177.513 215.957 176.704 215.712C176.25 215.576 175.882 215.449 175.6 215.331C175.319 215.212 175.019 215.049 174.701 214.84C174.392 214.622 174.16 214.354 174.006 214.036C173.851 213.718 173.774 213.345 173.774 212.918C173.774 212.074 174.074 211.406 174.674 210.915C175.273 210.416 175.995 210.166 176.84 210.166C177.604 210.166 178.271 210.352 178.844 210.724C179.416 211.097 179.857 211.61 180.166 212.264L178.844 213.027C178.444 212.137 177.776 211.692 176.84 211.692C176.386 211.692 176.023 211.801 175.75 212.019C175.478 212.228 175.341 212.514 175.341 212.878C175.341 213.232 175.478 213.514 175.75 213.722C176.032 213.922 176.536 214.136 177.263 214.363C177.626 214.481 177.89 214.572 178.053 214.636C178.226 214.69 178.462 214.781 178.762 214.908C179.071 215.035 179.302 215.162 179.457 215.29C179.611 215.417 179.775 215.576 179.948 215.767C180.129 215.957 180.256 216.175 180.329 216.421C180.402 216.666 180.438 216.943 180.438 217.252C180.438 218.115 180.125 218.801 179.498 219.31C178.88 219.81 178.067 220.059 177.058 220.059Z" fill="#212121"/>
<path d="M115.442 153.778C114.694 153.778 114.052 153.602 113.514 153.252C112.985 152.894 112.615 152.403 112.405 151.78L113.106 151.371C113.254 151.878 113.526 152.275 113.923 152.563C114.32 152.843 114.83 152.983 115.453 152.983C116.061 152.983 116.532 152.851 116.867 152.586C117.209 152.314 117.381 151.955 117.381 151.512C117.381 151.083 117.225 150.76 116.914 150.542C116.602 150.324 116.088 150.098 115.372 149.865C114.523 149.584 113.962 149.358 113.69 149.187C113.067 148.813 112.755 148.272 112.755 147.563C112.755 146.87 112.997 146.325 113.479 145.928C113.962 145.523 114.558 145.321 115.267 145.321C115.905 145.321 116.458 145.488 116.925 145.823C117.392 146.15 117.739 146.571 117.965 147.085L117.276 147.47C116.902 146.567 116.232 146.115 115.267 146.115C114.76 146.115 114.352 146.24 114.04 146.489C113.729 146.738 113.573 147.085 113.573 147.528C113.573 147.933 113.713 148.237 113.993 148.44C114.274 148.642 114.737 148.848 115.383 149.059C115.679 149.16 115.89 149.234 116.014 149.281C116.147 149.319 116.333 149.39 116.575 149.491C116.824 149.584 117.007 149.67 117.124 149.748C117.241 149.818 117.381 149.919 117.544 150.051C117.716 150.176 117.836 150.305 117.906 150.437C117.984 150.562 118.05 150.717 118.105 150.904C118.167 151.083 118.198 151.278 118.198 151.488C118.198 152.181 117.945 152.738 117.439 153.159C116.933 153.571 116.267 153.778 115.442 153.778ZM118.673 145.461H123.696V146.232L120.612 153.638H119.759L122.843 146.232H118.673V145.461ZM124.512 152.645L123.811 155.273H123.11L123.577 152.645H124.512ZM130.857 153.638L128.486 145.461H129.35L131.371 152.528L133.497 145.461H134.455L136.581 152.528L138.602 145.461H139.466L137.095 153.638H136.114L133.976 146.536L131.838 153.638H130.857ZM144.961 147.797H145.732V153.638H144.961V152.493C144.424 153.349 143.637 153.778 142.601 153.778C141.768 153.778 141.056 153.482 140.464 152.89C139.88 152.298 139.588 151.574 139.588 150.717C139.588 149.861 139.88 149.136 140.464 148.545C141.056 147.953 141.768 147.657 142.601 147.657C143.637 147.657 144.424 148.085 144.961 148.942V147.797ZM141.025 152.364C141.468 152.808 142.014 153.03 142.66 153.03C143.306 153.03 143.851 152.808 144.295 152.364C144.739 151.913 144.961 151.364 144.961 150.717C144.961 150.071 144.739 149.526 144.295 149.082C143.851 148.63 143.306 148.404 142.66 148.404C142.014 148.404 141.468 148.63 141.025 149.082C140.581 149.526 140.359 150.071 140.359 150.717C140.359 151.364 140.581 151.913 141.025 152.364ZM150.46 148.545H148.778V152.084C148.778 152.403 148.84 152.633 148.965 152.773C149.089 152.906 149.276 152.976 149.525 152.983C149.774 152.983 150.086 152.976 150.46 152.96V153.638C149.642 153.762 149.027 153.704 148.614 153.462C148.209 153.221 148.007 152.761 148.007 152.084V148.545H146.78V147.797H148.007V146.395L148.778 146.162V147.797H150.46V148.545ZM154.089 147.657C154.954 147.657 155.651 147.965 156.18 148.58C156.717 149.187 156.986 149.907 156.986 150.741C156.986 150.826 156.978 150.947 156.963 151.103H151.835C151.913 151.695 152.162 152.166 152.582 152.516C153.011 152.859 153.536 153.03 154.159 153.03C154.603 153.03 154.985 152.941 155.304 152.761C155.631 152.575 155.876 152.333 156.04 152.037L156.717 152.434C156.46 152.847 156.11 153.174 155.666 153.416C155.222 153.657 154.716 153.778 154.148 153.778C153.229 153.778 152.481 153.49 151.905 152.913C151.329 152.337 151.041 151.605 151.041 150.717C151.041 149.845 151.325 149.117 151.893 148.533C152.462 147.949 153.194 147.657 154.089 147.657ZM154.089 148.404C153.482 148.404 152.972 148.587 152.559 148.953C152.154 149.312 151.913 149.779 151.835 150.355H156.192C156.114 149.74 155.876 149.261 155.479 148.918C155.082 148.576 154.619 148.404 154.089 148.404ZM158.983 148.767C159.342 148.058 159.957 147.704 160.829 147.704V148.451C160.299 148.451 159.859 148.607 159.509 148.918C159.159 149.23 158.983 149.721 158.983 150.39V153.638H158.212V147.797H158.983V148.767ZM170.062 145.461V146.232H167.551V153.638H166.733V146.232H164.222V145.461H170.062ZM175.087 147.797H175.858V153.638H175.087V152.493C174.55 153.349 173.763 153.778 172.728 153.778C171.894 153.778 171.182 153.482 170.59 152.89C170.006 152.298 169.714 151.574 169.714 150.717C169.714 149.861 170.006 149.136 170.59 148.545C171.182 147.953 171.894 147.657 172.728 147.657C173.763 147.657 174.55 148.085 175.087 148.942V147.797ZM171.151 152.364C171.595 152.808 172.14 153.03 172.786 153.03C173.432 153.03 173.977 152.808 174.421 152.364C174.865 151.913 175.087 151.364 175.087 150.717C175.087 150.071 174.865 149.526 174.421 149.082C173.977 148.63 173.432 148.404 172.786 148.404C172.14 148.404 171.595 148.63 171.151 149.082C170.707 149.526 170.485 150.071 170.485 150.717C170.485 151.364 170.707 151.913 171.151 152.364ZM180.224 147.657C180.932 147.657 181.489 147.875 181.894 148.311C182.307 148.739 182.513 149.319 182.513 150.051V153.638H181.742V150.051C181.742 149.53 181.602 149.125 181.322 148.837C181.049 148.549 180.66 148.404 180.154 148.404C179.593 148.404 179.137 148.584 178.787 148.942C178.436 149.292 178.261 149.837 178.261 150.577V153.638H177.49V147.797H178.261V148.708C178.697 148.007 179.351 147.657 180.224 147.657ZM188.723 153.638H187.695L184.775 150.822V153.638H184.004V145.461H184.775V150.379L187.555 147.797H188.606L185.592 150.6L188.723 153.638ZM197.836 153.638L195.92 150.367H193.63V153.638H192.813V145.461H196.083C196.761 145.461 197.337 145.702 197.812 146.185C198.295 146.66 198.536 147.236 198.536 147.914C198.536 148.467 198.369 148.961 198.034 149.397C197.707 149.826 197.287 150.114 196.773 150.262L198.77 153.638H197.836ZM193.63 146.232V149.596H196.083C196.535 149.596 196.921 149.432 197.24 149.105C197.559 148.77 197.719 148.373 197.719 147.914C197.719 147.447 197.559 147.05 197.24 146.722C196.921 146.395 196.535 146.232 196.083 146.232H193.63ZM204.552 145.461H205.323V153.638H204.552V152.493C204.014 153.349 203.228 153.778 202.192 153.778C201.359 153.778 200.646 153.482 200.054 152.89C199.47 152.298 199.178 151.574 199.178 150.717C199.178 149.861 199.47 149.136 200.054 148.545C200.646 147.953 201.359 147.657 202.192 147.657C203.228 147.657 204.014 148.085 204.552 148.942V145.461ZM200.615 152.364C201.059 152.808 201.604 153.03 202.25 153.03C202.897 153.03 203.442 152.808 203.886 152.364C204.33 151.913 204.552 151.364 204.552 150.717C204.552 150.071 204.33 149.526 203.886 149.082C203.442 148.63 202.897 148.404 202.25 148.404C201.604 148.404 201.059 148.63 200.615 149.082C200.171 149.526 199.949 150.071 199.949 150.717C199.949 151.364 200.171 151.913 200.615 152.364ZM208.24 152.645L207.539 155.273H206.838L207.305 152.645H208.24ZM220.274 145.461V153.638H219.456V146.699L216.594 151.488H216.477L213.616 146.699V153.638H212.798V145.461H213.814L216.536 150.016L219.258 145.461H220.274ZM229.616 145.461V153.638H228.798V146.699L225.937 151.488H225.82L222.958 146.699V153.638H222.14V145.461H223.157L225.878 150.016L228.6 145.461H229.616ZM234.637 145.461C235.75 145.461 236.669 145.858 237.393 146.652C238.125 147.439 238.491 148.404 238.491 149.549C238.491 150.694 238.125 151.663 237.393 152.458C236.669 153.244 235.75 153.638 234.637 153.638H231.483V145.461H234.637ZM234.637 152.867C235.532 152.867 236.264 152.547 236.833 151.909C237.409 151.27 237.697 150.484 237.697 149.549C237.697 148.615 237.409 147.828 236.833 147.19C236.264 146.551 235.532 146.232 234.637 146.232H232.3V152.867H234.637ZM245.037 153.638L244.277 151.628H240.399L239.64 153.638H238.776L241.918 145.461H242.759L245.901 153.638H245.037ZM240.691 150.857H243.985L242.338 146.477L240.691 150.857ZM253.691 153.778C252.452 153.778 251.428 153.369 250.619 152.551C249.809 151.734 249.404 150.733 249.404 149.549C249.404 148.366 249.809 147.365 250.619 146.547C251.428 145.73 252.452 145.321 253.691 145.321C254.446 145.321 255.139 145.504 255.77 145.87C256.401 146.228 256.887 146.715 257.23 147.33L256.506 147.75C256.249 147.252 255.867 146.855 255.361 146.559C254.855 146.263 254.298 146.115 253.691 146.115C252.671 146.115 251.837 146.446 251.191 147.108C250.545 147.77 250.221 148.584 250.221 149.549C250.221 150.515 250.545 151.329 251.191 151.991C251.837 152.652 252.671 152.983 253.691 152.983C254.298 152.983 254.855 152.835 255.361 152.54C255.867 152.244 256.249 151.846 256.506 151.348L257.23 151.757C256.895 152.372 256.408 152.863 255.77 153.229C255.139 153.595 254.446 153.778 253.691 153.778ZM263.295 152.902C262.703 153.486 261.979 153.778 261.122 153.778C260.266 153.778 259.538 153.486 258.938 152.902C258.346 152.31 258.05 151.582 258.05 150.717C258.05 149.853 258.346 149.129 258.938 148.545C259.538 147.953 260.266 147.657 261.122 147.657C261.979 147.657 262.703 147.953 263.295 148.545C263.895 149.129 264.194 149.853 264.194 150.717C264.194 151.582 263.895 152.31 263.295 152.902ZM259.487 152.364C259.931 152.808 260.476 153.03 261.122 153.03C261.769 153.03 262.314 152.808 262.758 152.364C263.202 151.913 263.424 151.364 263.424 150.717C263.424 150.071 263.202 149.526 262.758 149.082C262.314 148.63 261.769 148.404 261.122 148.404C260.476 148.404 259.931 148.63 259.487 149.082C259.043 149.526 258.821 150.071 258.821 150.717C258.821 151.364 259.043 151.913 259.487 152.364ZM265.485 153.638V145.11H266.255V153.638H265.485ZM272.786 152.902C272.194 153.486 271.47 153.778 270.613 153.778C269.757 153.778 269.028 153.486 268.429 152.902C267.837 152.31 267.541 151.582 267.541 150.717C267.541 149.853 267.837 149.129 268.429 148.545C269.028 147.953 269.757 147.657 270.613 147.657C271.47 147.657 272.194 147.953 272.786 148.545C273.385 149.129 273.685 149.853 273.685 150.717C273.685 151.582 273.385 152.31 272.786 152.902ZM268.978 152.364C269.422 152.808 269.967 153.03 270.613 153.03C271.259 153.03 271.805 152.808 272.248 152.364C272.692 151.913 272.914 151.364 272.914 150.717C272.914 150.071 272.692 149.526 272.248 149.082C271.805 148.63 271.259 148.404 270.613 148.404C269.967 148.404 269.422 148.63 268.978 149.082C268.534 149.526 268.312 150.071 268.312 150.717C268.312 151.364 268.534 151.913 268.978 152.364ZM277.709 147.657C278.417 147.657 278.974 147.875 279.379 148.311C279.792 148.739 279.998 149.319 279.998 150.051V153.638H279.227V150.051C279.227 149.53 279.087 149.125 278.807 148.837C278.534 148.549 278.145 148.404 277.638 148.404C277.078 148.404 276.622 148.584 276.272 148.942C275.921 149.292 275.746 149.837 275.746 150.577V153.638H274.975V147.797H275.746V148.708C276.182 148.007 276.836 147.657 277.709 147.657ZM285.58 147.797H286.397L283.898 154.175C283.672 154.751 283.349 155.203 282.928 155.53C282.515 155.865 282.052 156.013 281.538 155.974V155.249C282.239 155.327 282.772 154.922 283.138 154.035L283.29 153.673L280.674 147.797H281.491L283.687 152.691L285.58 147.797ZM287.565 152.645L286.864 155.273H286.163L286.63 152.645H287.565ZM118.315 167.638L117.556 165.628H113.678L112.919 167.638H112.054L115.196 159.461H116.037L119.18 167.638H118.315ZM113.97 164.857H117.264L115.617 160.477L113.97 164.857ZM120.884 162.767C121.242 162.058 121.857 161.704 122.729 161.704V162.451C122.2 162.451 121.76 162.607 121.409 162.918C121.059 163.23 120.884 163.721 120.884 164.39V167.638H120.113V161.797H120.884V162.767ZM127.897 161.797H128.668V167.638H127.897V166.726C127.461 167.427 126.807 167.778 125.935 167.778C125.226 167.778 124.666 167.564 124.253 167.135C123.848 166.699 123.646 166.115 123.646 165.383V161.797H124.417V165.383C124.417 165.905 124.553 166.31 124.825 166.598C125.106 166.886 125.499 167.03 126.005 167.03C126.566 167.03 127.021 166.855 127.372 166.504C127.722 166.146 127.897 165.597 127.897 164.857V161.797ZM136.525 161.657C137.179 161.657 137.705 161.867 138.102 162.288C138.507 162.708 138.709 163.277 138.709 163.993V167.638H137.939V163.993C137.939 163.487 137.806 163.098 137.541 162.825C137.284 162.545 136.942 162.404 136.513 162.404C136.031 162.404 135.637 162.568 135.334 162.895C135.038 163.214 134.89 163.717 134.89 164.402V167.638H134.119V163.993C134.119 163.479 133.994 163.086 133.745 162.813C133.504 162.541 133.173 162.404 132.752 162.404C132.285 162.404 131.888 162.568 131.561 162.895C131.234 163.222 131.07 163.724 131.07 164.402V167.638H130.299V161.797H131.07V162.65C131.491 161.988 132.086 161.657 132.857 161.657C133.698 161.657 134.29 162.011 134.633 162.72C135.053 162.011 135.684 161.657 136.525 161.657ZM143.331 161.657C144.164 161.657 144.873 161.953 145.457 162.545C146.049 163.136 146.345 163.861 146.345 164.717C146.345 165.574 146.049 166.298 145.457 166.89C144.873 167.482 144.164 167.778 143.331 167.778C142.295 167.778 141.509 167.349 140.972 166.493V167.638H140.201V159.461H140.972V162.942C141.509 162.085 142.295 161.657 143.331 161.657ZM141.637 166.364C142.081 166.808 142.626 167.03 143.273 167.03C143.919 167.03 144.464 166.808 144.908 166.364C145.352 165.913 145.574 165.364 145.574 164.717C145.574 164.071 145.352 163.526 144.908 163.082C144.464 162.63 143.919 162.404 143.273 162.404C142.626 162.404 142.081 162.63 141.637 163.082C141.193 163.526 140.972 164.071 140.972 164.717C140.972 165.364 141.193 165.913 141.637 166.364ZM152.649 161.797H153.42V167.638H152.649V166.493C152.112 167.349 151.326 167.778 150.29 167.778C149.457 167.778 148.744 167.482 148.152 166.89C147.568 166.298 147.276 165.574 147.276 164.717C147.276 163.861 147.568 163.136 148.152 162.545C148.744 161.953 149.457 161.657 150.29 161.657C151.326 161.657 152.112 162.085 152.649 162.942V161.797ZM148.713 166.364C149.157 166.808 149.702 167.03 150.348 167.03C150.995 167.03 151.54 166.808 151.984 166.364C152.427 165.913 152.649 165.364 152.649 164.717C152.649 164.071 152.427 163.526 151.984 163.082C151.54 162.63 150.995 162.404 150.348 162.404C149.702 162.404 149.157 162.63 148.713 163.082C148.269 163.526 148.047 164.071 148.047 164.717C148.047 165.364 148.269 165.913 148.713 166.364ZM159.772 167.638H158.744L155.824 164.822V167.638H155.053V159.461H155.824V164.379L158.604 161.797H159.655L156.641 164.6L159.772 167.638ZM165.544 167.638H164.516L161.596 164.822V167.638H160.825V159.461H161.596V164.379L164.376 161.797H165.427L162.413 164.6L165.544 167.638ZM171.038 161.797H171.809V167.638H171.038V166.493C170.5 167.349 169.714 167.778 168.678 167.778C167.845 167.778 167.132 167.482 166.54 166.89C165.956 166.298 165.664 165.574 165.664 164.717C165.664 163.861 165.956 163.136 166.54 162.545C167.132 161.953 167.845 161.657 168.678 161.657C169.714 161.657 170.5 162.085 171.038 162.942V161.797ZM167.101 166.364C167.545 166.808 168.09 167.03 168.736 167.03C169.383 167.03 169.928 166.808 170.372 166.364C170.816 165.913 171.038 165.364 171.038 164.717C171.038 164.071 170.816 163.526 170.372 163.082C169.928 162.63 169.383 162.404 168.736 162.404C168.09 162.404 167.545 162.63 167.101 163.082C166.657 163.526 166.435 164.071 166.435 164.717C166.435 165.364 166.657 165.913 167.101 166.364ZM179.667 161.657C180.321 161.657 180.846 161.867 181.244 162.288C181.649 162.708 181.851 163.277 181.851 163.993V167.638H181.08V163.993C181.08 163.487 180.948 163.098 180.683 162.825C180.426 162.545 180.083 162.404 179.655 162.404C179.172 162.404 178.779 162.568 178.475 162.895C178.179 163.214 178.031 163.717 178.031 164.402V167.638H177.26V163.993C177.26 163.479 177.136 163.086 176.887 162.813C176.645 162.541 176.314 162.404 175.894 162.404C175.427 162.404 175.029 162.568 174.702 162.895C174.375 163.222 174.212 163.724 174.212 164.402V167.638H173.441V161.797H174.212V162.65C174.632 161.988 175.228 161.657 175.999 161.657C176.84 161.657 177.432 162.011 177.774 162.72C178.195 162.011 178.826 161.657 179.667 161.657ZM184.627 166.645L183.926 169.273H183.225L183.693 166.645H184.627ZM193.005 167.778C191.767 167.778 190.743 167.369 189.933 166.551C189.123 165.734 188.718 164.733 188.718 163.549C188.718 162.366 189.123 161.365 189.933 160.547C190.743 159.73 191.767 159.321 193.005 159.321C193.76 159.321 194.453 159.504 195.084 159.87C195.715 160.228 196.202 160.715 196.544 161.33L195.82 161.75C195.563 161.252 195.182 160.855 194.675 160.559C194.169 160.263 193.612 160.115 193.005 160.115C191.985 160.115 191.152 160.446 190.505 161.108C189.859 161.77 189.536 162.584 189.536 163.549C189.536 164.515 189.859 165.329 190.505 165.991C191.152 166.652 191.985 166.983 193.005 166.983C193.612 166.983 194.169 166.835 194.675 166.54C195.182 166.244 195.563 165.846 195.82 165.348L196.544 165.757C196.209 166.372 195.723 166.863 195.084 167.229C194.453 167.595 193.76 167.778 193.005 167.778ZM200.505 161.657C201.214 161.657 201.771 161.875 202.176 162.311C202.589 162.739 202.795 163.319 202.795 164.051V167.638H202.024V164.051C202.024 163.53 201.884 163.125 201.603 162.837C201.331 162.549 200.942 162.404 200.435 162.404C199.875 162.404 199.419 162.584 199.069 162.942C198.718 163.292 198.543 163.837 198.543 164.577V167.638H197.772V159.461H198.543V162.708C198.979 162.007 199.633 161.657 200.505 161.657ZM206.984 161.657C207.848 161.657 208.545 161.965 209.075 162.58C209.612 163.187 209.881 163.907 209.881 164.741C209.881 164.826 209.873 164.947 209.857 165.103H204.729C204.807 165.695 205.057 166.166 205.477 166.516C205.905 166.859 206.431 167.03 207.054 167.03C207.498 167.03 207.879 166.941 208.199 166.761C208.526 166.575 208.771 166.333 208.935 166.037L209.612 166.434C209.355 166.847 209.005 167.174 208.561 167.416C208.117 167.657 207.611 167.778 207.042 167.778C206.123 167.778 205.376 167.49 204.8 166.913C204.223 166.337 203.935 165.605 203.935 164.717C203.935 163.845 204.219 163.117 204.788 162.533C205.356 161.949 206.088 161.657 206.984 161.657ZM206.984 162.404C206.376 162.404 205.866 162.587 205.454 162.953C205.049 163.312 204.807 163.779 204.729 164.355H209.086C209.009 163.74 208.771 163.261 208.374 162.918C207.977 162.576 207.513 162.404 206.984 162.404ZM213.84 161.657C214.549 161.657 215.106 161.875 215.511 162.311C215.923 162.739 216.13 163.319 216.13 164.051V167.638H215.359V164.051C215.359 163.53 215.219 163.125 214.938 162.837C214.666 162.549 214.276 162.404 213.77 162.404C213.21 162.404 212.754 162.584 212.404 162.942C212.053 163.292 211.878 163.837 211.878 164.577V167.638H211.107V161.797H211.878V162.708C212.314 162.007 212.968 161.657 213.84 161.657ZM220.354 161.657C221.062 161.657 221.619 161.875 222.024 162.311C222.437 162.739 222.643 163.319 222.643 164.051V167.638H221.872V164.051C221.872 163.53 221.732 163.125 221.452 162.837C221.179 162.549 220.79 162.404 220.284 162.404C219.723 162.404 219.267 162.584 218.917 162.942C218.567 163.292 218.391 163.837 218.391 164.577V167.638H217.62V161.797H218.391V162.708C218.827 162.007 219.482 161.657 220.354 161.657ZM229.157 161.797H229.928V167.638H229.157V166.493C228.619 167.349 227.833 167.778 226.797 167.778C225.964 167.778 225.251 167.482 224.66 166.89C224.075 166.298 223.783 165.574 223.783 164.717C223.783 163.861 224.075 163.136 224.66 162.545C225.251 161.953 225.964 161.657 226.797 161.657C227.833 161.657 228.619 162.085 229.157 162.942V161.797ZM225.22 166.364C225.664 166.808 226.209 167.03 226.856 167.03C227.502 167.03 228.047 166.808 228.491 166.364C228.935 165.913 229.157 165.364 229.157 164.717C229.157 164.071 228.935 163.526 228.491 163.082C228.047 162.63 227.502 162.404 226.856 162.404C226.209 162.404 225.664 162.63 225.22 163.082C224.776 163.526 224.554 164.071 224.554 164.717C224.554 165.364 224.776 165.913 225.22 166.364ZM232.343 160.395C232.234 160.504 232.101 160.559 231.945 160.559C231.79 160.559 231.657 160.504 231.548 160.395C231.439 160.286 231.385 160.154 231.385 159.998C231.385 159.842 231.439 159.71 231.548 159.601C231.657 159.492 231.79 159.438 231.945 159.438C232.101 159.438 232.234 159.492 232.343 159.601C232.452 159.71 232.506 159.842 232.506 159.998C232.506 160.154 232.452 160.286 232.343 160.395ZM231.56 167.638V161.797H232.331V167.638H231.56ZM235.252 166.645L234.551 169.273H233.85L234.317 166.645H235.252ZM244.95 159.461V160.232H242.438V167.638H241.62V160.232H239.109V159.461H244.95ZM249.975 161.797H250.746V167.638H249.975V166.493C249.437 167.349 248.651 167.778 247.615 167.778C246.782 167.778 246.069 167.482 245.477 166.89C244.893 166.298 244.601 165.574 244.601 164.717C244.601 163.861 244.893 163.136 245.477 162.545C246.069 161.953 246.782 161.657 247.615 161.657C248.651 161.657 249.437 162.085 249.975 162.942V161.797ZM246.038 166.364C246.482 166.808 247.027 167.03 247.673 167.03C248.32 167.03 248.865 166.808 249.309 166.364C249.753 165.913 249.975 165.364 249.975 164.717C249.975 164.071 249.753 163.526 249.309 163.082C248.865 162.63 248.32 162.404 247.673 162.404C247.027 162.404 246.482 162.63 246.038 163.082C245.594 163.526 245.372 164.071 245.372 164.717C245.372 165.364 245.594 165.913 246.038 166.364ZM258.604 161.657C259.258 161.657 259.783 161.867 260.181 162.288C260.586 162.708 260.788 163.277 260.788 163.993V167.638H260.017V163.993C260.017 163.487 259.885 163.098 259.62 162.825C259.363 162.545 259.02 162.404 258.592 162.404C258.109 162.404 257.716 162.568 257.412 162.895C257.116 163.214 256.968 163.717 256.968 164.402V167.638H256.197V163.993C256.197 163.479 256.073 163.086 255.824 162.813C255.582 162.541 255.251 162.404 254.831 162.404C254.364 162.404 253.966 162.568 253.639 162.895C253.312 163.222 253.149 163.724 253.149 164.402V167.638H252.378V161.797H253.149V162.65C253.569 161.988 254.165 161.657 254.936 161.657C255.777 161.657 256.369 162.011 256.711 162.72C257.132 162.011 257.763 161.657 258.604 161.657ZM263.062 160.395C262.953 160.504 262.82 160.559 262.665 160.559C262.509 160.559 262.377 160.504 262.267 160.395C262.158 160.286 262.104 160.154 262.104 159.998C262.104 159.842 262.158 159.71 262.267 159.601C262.377 159.492 262.509 159.438 262.665 159.438C262.82 159.438 262.953 159.492 263.062 159.601C263.171 159.71 263.225 159.842 263.225 159.998C263.225 160.154 263.171 160.286 263.062 160.395ZM262.279 167.638V161.797H263.05V167.638H262.279ZM264.686 167.638V159.11H265.457V167.638H264.686ZM275.386 159.461H276.204V167.638H275.503L270.948 160.979V167.638H270.13V159.461H270.831L275.386 166.119V159.461ZM282.975 161.797H283.746V167.638H282.975V166.493C282.438 167.349 281.651 167.778 280.616 167.778C279.783 167.778 279.07 167.482 278.478 166.89C277.894 166.298 277.602 165.574 277.602 164.717C277.602 163.861 277.894 163.136 278.478 162.545C279.07 161.953 279.783 161.657 280.616 161.657C281.651 161.657 282.438 162.085 282.975 162.942V161.797ZM279.039 166.364C279.483 166.808 280.028 167.03 280.674 167.03C281.32 167.03 281.866 166.808 282.309 166.364C282.753 165.913 282.975 165.364 282.975 164.717C282.975 164.071 282.753 163.526 282.309 163.082C281.866 162.63 281.32 162.404 280.674 162.404C280.028 162.404 279.483 162.63 279.039 163.082C278.595 163.526 278.373 164.071 278.373 164.717C278.373 165.364 278.595 165.913 279.039 166.364ZM290.401 159.461H291.172V167.638H290.401V166.493C289.864 167.349 289.077 167.778 288.042 167.778C287.209 167.778 286.496 167.482 285.904 166.89C285.32 166.298 285.028 165.574 285.028 164.717C285.028 163.861 285.32 163.136 285.904 162.545C286.496 161.953 287.209 161.657 288.042 161.657C289.077 161.657 289.864 162.085 290.401 162.942V159.461ZM286.465 166.364C286.909 166.808 287.454 167.03 288.1 167.03C288.746 167.03 289.292 166.808 289.735 166.364C290.179 165.913 290.401 165.364 290.401 164.717C290.401 164.071 290.179 163.526 289.735 163.082C289.292 162.63 288.746 162.404 288.1 162.404C287.454 162.404 286.909 162.63 286.465 163.082C286.021 163.526 285.799 164.071 285.799 164.717C285.799 165.364 286.021 165.913 286.465 166.364ZM296.916 161.797H297.687V167.638H296.916V166.726C296.48 167.427 295.826 167.778 294.954 167.778C294.245 167.778 293.684 167.564 293.272 167.135C292.867 166.699 292.664 166.115 292.664 165.383V161.797H293.435V165.383C293.435 165.905 293.572 166.31 293.844 166.598C294.124 166.886 294.518 167.03 295.024 167.03C295.585 167.03 296.04 166.855 296.391 166.504C296.741 166.146 296.916 165.597 296.916 164.857V161.797ZM304.516 162.381C305.318 162.381 305.976 162.634 306.49 163.14C307.004 163.639 307.261 164.285 307.261 165.079C307.261 165.874 307.004 166.524 306.49 167.03C305.976 167.528 305.318 167.778 304.516 167.778C303.714 167.778 303.056 167.528 302.542 167.03C302.028 166.524 301.771 165.874 301.771 165.079C301.771 164.464 301.938 163.919 302.273 163.444L304.948 159.461H305.871L303.862 162.451C304.072 162.404 304.29 162.381 304.516 162.381ZM303.114 166.458C303.472 166.808 303.94 166.983 304.516 166.983C305.092 166.983 305.556 166.808 305.906 166.458C306.264 166.107 306.443 165.648 306.443 165.079C306.443 164.511 306.264 164.051 305.906 163.701C305.556 163.351 305.092 163.175 304.516 163.175C303.94 163.175 303.472 163.351 303.114 163.701C302.764 164.051 302.589 164.511 302.589 165.079C302.589 165.648 302.764 166.107 303.114 166.458ZM313.572 166.633C313.034 167.396 312.275 167.778 311.294 167.778C310.313 167.778 309.55 167.396 309.005 166.633C308.467 165.862 308.199 164.834 308.199 163.549C308.199 162.264 308.467 161.24 309.005 160.477C309.55 159.706 310.313 159.321 311.294 159.321C312.275 159.321 313.034 159.706 313.572 160.477C314.117 161.24 314.389 162.264 314.389 163.549C314.389 164.834 314.117 165.862 313.572 166.633ZM309.612 166.084C310.017 166.684 310.578 166.983 311.294 166.983C312.01 166.983 312.567 166.684 312.964 166.084C313.369 165.484 313.572 164.639 313.572 163.549C313.572 162.459 313.369 161.614 312.964 161.014C312.567 160.415 312.01 160.115 311.294 160.115C310.578 160.115 310.017 160.415 309.612 161.014C309.215 161.614 309.016 162.459 309.016 163.549C309.016 164.639 309.215 165.484 309.612 166.084ZM320.929 166.633C320.392 167.396 319.633 167.778 318.652 167.778C317.67 167.778 316.907 167.396 316.362 166.633C315.825 165.862 315.556 164.834 315.556 163.549C315.556 162.264 315.825 161.24 316.362 160.477C316.907 159.706 317.67 159.321 318.652 159.321C319.633 159.321 320.392 159.706 320.929 160.477C321.474 161.24 321.747 162.264 321.747 163.549C321.747 164.834 321.474 165.862 320.929 166.633ZM316.97 166.084C317.374 166.684 317.935 166.983 318.652 166.983C319.368 166.983 319.925 166.684 320.322 166.084C320.727 165.484 320.929 164.639 320.929 163.549C320.929 162.459 320.727 161.614 320.322 161.014C319.925 160.415 319.368 160.115 318.652 160.115C317.935 160.115 317.374 160.415 316.97 161.014C316.572 161.614 316.374 162.459 316.374 163.549C316.374 164.639 316.572 165.484 316.97 166.084ZM324.438 159.461H325.139V167.638H324.321V160.36L322.487 160.909L322.277 160.208L324.438 159.461ZM332.028 166.633C331.491 167.396 330.732 167.778 329.751 167.778C328.77 167.778 328.006 167.396 327.461 166.633C326.924 165.862 326.655 164.834 326.655 163.549C326.655 162.264 326.924 161.24 327.461 160.477C328.006 159.706 328.77 159.321 329.751 159.321C330.732 159.321 331.491 159.706 332.028 160.477C332.574 161.24 332.846 162.264 332.846 163.549C332.846 164.834 332.574 165.862 332.028 166.633ZM328.069 166.084C328.474 166.684 329.034 166.983 329.751 166.983C330.467 166.983 331.024 166.684 331.421 166.084C331.826 165.484 332.028 164.639 332.028 163.549C332.028 162.459 331.826 161.614 331.421 161.014C331.024 160.415 330.467 160.115 329.751 160.115C329.034 160.115 328.474 160.415 328.069 161.014C327.672 161.614 327.473 162.459 327.473 163.549C327.473 164.639 327.672 165.484 328.069 166.084ZM336.524 162.381C337.326 162.381 337.984 162.634 338.498 163.14C339.012 163.639 339.269 164.285 339.269 165.079C339.269 165.874 339.012 166.524 338.498 167.03C337.984 167.528 337.326 167.778 336.524 167.778C335.722 167.778 335.064 167.528 334.55 167.03C334.036 166.524 333.779 165.874 333.779 165.079C333.779 164.464 333.947 163.919 334.281 163.444L336.956 159.461H337.879L335.87 162.451C336.08 162.404 336.298 162.381 336.524 162.381ZM335.123 166.458C335.481 166.808 335.948 166.983 336.524 166.983C337.1 166.983 337.564 166.808 337.914 166.458C338.272 166.107 338.452 165.648 338.452 165.079C338.452 164.511 338.272 164.051 337.914 163.701C337.564 163.351 337.1 163.175 336.524 163.175C335.948 163.175 335.481 163.351 335.123 163.701C334.772 164.051 334.597 164.511 334.597 165.079C334.597 165.648 334.772 166.107 335.123 166.458Z" fill="#606060"/>
<path d="M118.128 232.547H118.946V240.723H118.245L113.69 234.065V240.723H112.872V232.547H113.573L118.128 239.205V232.547ZM125.589 239.987C124.997 240.572 124.273 240.864 123.416 240.864C122.56 240.864 121.831 240.572 121.232 239.987C120.64 239.396 120.344 238.668 120.344 237.803C120.344 236.939 120.64 236.215 121.232 235.631C121.831 235.039 122.56 234.743 123.416 234.743C124.273 234.743 124.997 235.039 125.589 235.631C126.188 236.215 126.488 236.939 126.488 237.803C126.488 238.668 126.188 239.396 125.589 239.987ZM121.781 239.45C122.225 239.894 122.77 240.116 123.416 240.116C124.062 240.116 124.608 239.894 125.051 239.45C125.495 238.999 125.717 238.45 125.717 237.803C125.717 237.157 125.495 236.612 125.051 236.168C124.608 235.716 124.062 235.49 123.416 235.49C122.77 235.49 122.225 235.716 121.781 236.168C121.337 236.612 121.115 237.157 121.115 237.803C121.115 238.45 121.337 238.999 121.781 239.45ZM132.217 232.547H132.918V240.723H132.1V233.446L130.266 233.995L130.056 233.294L132.217 232.547ZM139.691 235.105C139.691 235.72 139.524 236.265 139.189 236.74L136.514 240.723H135.591L137.6 237.733C137.39 237.78 137.172 237.803 136.946 237.803C136.144 237.803 135.486 237.554 134.972 237.056C134.458 236.549 134.201 235.899 134.201 235.105C134.201 234.311 134.458 233.664 134.972 233.166C135.486 232.66 136.144 232.407 136.946 232.407C137.748 232.407 138.406 232.66 138.92 233.166C139.434 233.664 139.691 234.311 139.691 235.105ZM135.544 233.727C135.194 234.077 135.019 234.536 135.019 235.105C135.019 235.673 135.194 236.133 135.544 236.483C135.902 236.834 136.37 237.009 136.946 237.009C137.522 237.009 137.986 236.834 138.336 236.483C138.694 236.133 138.873 235.673 138.873 235.105C138.873 234.536 138.694 234.077 138.336 233.727C137.986 233.376 137.522 233.201 136.946 233.201C136.37 233.201 135.902 233.376 135.544 233.727ZM140.516 239.731L139.815 242.359H139.114L139.581 239.731H140.516ZM144.607 240.723V239.987L147.55 237.021C148.392 236.18 148.812 235.459 148.812 234.86C148.812 234.338 148.648 233.933 148.321 233.645C148.002 233.349 147.617 233.201 147.165 233.201C146.324 233.201 145.713 233.586 145.331 234.357L144.642 233.948C144.899 233.442 145.249 233.061 145.693 232.804C146.137 232.539 146.628 232.407 147.165 232.407C147.819 232.407 148.392 232.629 148.882 233.072C149.38 233.509 149.63 234.104 149.63 234.86C149.63 235.335 149.497 235.79 149.233 236.226C148.968 236.662 148.594 237.122 148.111 237.605L145.775 239.929H149.805V240.723H144.607ZM153.828 234.743C154.536 234.743 155.093 234.961 155.498 235.397C155.911 235.825 156.117 236.405 156.117 237.137V240.723H155.346V237.137C155.346 236.616 155.206 236.211 154.926 235.923C154.653 235.634 154.264 235.49 153.758 235.49C153.197 235.49 152.741 235.669 152.391 236.028C152.041 236.378 151.865 236.923 151.865 237.663V240.723H151.094V234.883H151.865V235.794C152.301 235.093 152.956 234.743 153.828 234.743ZM162.631 232.547H163.402V240.723H162.631V239.579C162.093 240.435 161.307 240.864 160.271 240.864C159.438 240.864 158.725 240.568 158.133 239.976C157.549 239.384 157.257 238.66 157.257 237.803C157.257 236.947 157.549 236.222 158.133 235.631C158.725 235.039 159.438 234.743 160.271 234.743C161.307 234.743 162.093 235.171 162.631 236.028V232.547ZM158.694 239.45C159.138 239.894 159.683 240.116 160.329 240.116C160.976 240.116 161.521 239.894 161.965 239.45C162.409 238.999 162.631 238.45 162.631 237.803C162.631 237.157 162.409 236.612 161.965 236.168C161.521 235.716 160.976 235.49 160.329 235.49C159.683 235.49 159.138 235.716 158.694 236.168C158.25 236.612 158.028 237.157 158.028 237.803C158.028 238.45 158.25 238.999 158.694 239.45ZM172.685 233.318H168.888V236.331H172.51V237.102H168.888V240.723H168.071V232.547H172.685V233.318ZM173.966 240.723V232.196H174.736V240.723H173.966ZM181.267 239.987C180.675 240.572 179.951 240.864 179.094 240.864C178.237 240.864 177.509 240.572 176.91 239.987C176.318 239.396 176.022 238.668 176.022 237.803C176.022 236.939 176.318 236.215 176.91 235.631C177.509 235.039 178.237 234.743 179.094 234.743C179.951 234.743 180.675 235.039 181.267 235.631C181.866 236.215 182.166 236.939 182.166 237.803C182.166 238.668 181.866 239.396 181.267 239.987ZM177.459 239.45C177.903 239.894 178.448 240.116 179.094 240.116C179.74 240.116 180.286 239.894 180.729 239.45C181.173 238.999 181.395 238.45 181.395 237.803C181.395 237.157 181.173 236.612 180.729 236.168C180.286 235.716 179.74 235.49 179.094 235.49C178.448 235.49 177.903 235.716 177.459 236.168C177.015 236.612 176.793 237.157 176.793 237.803C176.793 238.45 177.015 238.999 177.459 239.45ZM188.351 239.987C187.759 240.572 187.034 240.864 186.178 240.864C185.321 240.864 184.593 240.572 183.994 239.987C183.402 239.396 183.106 238.668 183.106 237.803C183.106 236.939 183.402 236.215 183.994 235.631C184.593 235.039 185.321 234.743 186.178 234.743C187.034 234.743 187.759 235.039 188.351 235.631C188.95 236.215 189.25 236.939 189.25 237.803C189.25 238.668 188.95 239.396 188.351 239.987ZM184.543 239.45C184.986 239.894 185.532 240.116 186.178 240.116C186.824 240.116 187.369 239.894 187.813 239.45C188.257 238.999 188.479 238.45 188.479 237.803C188.479 237.157 188.257 236.612 187.813 236.168C187.369 235.716 186.824 235.49 186.178 235.49C185.532 235.49 184.986 235.716 184.543 236.168C184.099 236.612 183.877 237.157 183.877 237.803C183.877 238.45 184.099 238.999 184.543 239.45ZM191.311 235.852C191.669 235.144 192.284 234.79 193.157 234.79V235.537C192.627 235.537 192.187 235.693 191.837 236.004C191.486 236.316 191.311 236.806 191.311 237.476V240.723H190.54V234.883H191.311V235.852ZM194.677 239.731L193.976 242.359H193.275L193.742 239.731H194.677ZM204.491 232.547H205.309V240.723H204.608L200.053 234.065V240.723H199.235V232.547H199.936L204.491 239.205V232.547ZM212.08 234.883H212.851V240.723H212.08V239.579C211.543 240.435 210.756 240.864 209.721 240.864C208.887 240.864 208.175 240.568 207.583 239.976C206.999 239.384 206.707 238.66 206.707 237.803C206.707 236.947 206.999 236.222 207.583 235.631C208.175 235.039 208.887 234.743 209.721 234.743C210.756 234.743 211.543 235.171 212.08 236.028V234.883ZM208.144 239.45C208.588 239.894 209.133 240.116 209.779 240.116C210.425 240.116 210.971 239.894 211.414 239.45C211.858 238.999 212.08 238.45 212.08 237.803C212.08 237.157 211.858 236.612 211.414 236.168C210.971 235.716 210.425 235.49 209.779 235.49C209.133 235.49 208.588 235.716 208.144 236.168C207.7 236.612 207.478 237.157 207.478 237.803C207.478 238.45 207.7 238.999 208.144 239.45ZM218.689 234.883H219.506L217.112 240.723H216.177L213.783 234.883H214.6L216.644 239.917L218.689 234.883ZM225.233 234.883H226.004V240.723H225.233V239.579C224.695 240.435 223.909 240.864 222.873 240.864C222.04 240.864 221.327 240.568 220.736 239.976C220.151 239.384 219.859 238.66 219.859 237.803C219.859 236.947 220.151 236.222 220.736 235.631C221.327 235.039 222.04 234.743 222.873 234.743C223.909 234.743 224.695 235.171 225.233 236.028V234.883ZM221.296 239.45C221.74 239.894 222.285 240.116 222.932 240.116C223.578 240.116 224.123 239.894 224.567 239.45C225.011 238.999 225.233 238.45 225.233 237.803C225.233 237.157 225.011 236.612 224.567 236.168C224.123 235.716 223.578 235.49 222.932 235.49C222.285 235.49 221.74 235.716 221.296 236.168C220.852 236.612 220.63 237.157 220.63 237.803C220.63 238.45 220.852 238.999 221.296 239.45ZM230.369 234.743C231.078 234.743 231.635 234.961 232.04 235.397C232.452 235.825 232.659 236.405 232.659 237.137V240.723H231.888V237.137C231.888 236.616 231.748 236.211 231.467 235.923C231.195 235.634 230.805 235.49 230.299 235.49C229.738 235.49 229.283 235.669 228.932 236.028C228.582 236.378 228.407 236.923 228.407 237.663V240.723H227.636V234.883H228.407V235.794C228.843 235.093 229.497 234.743 230.369 234.743ZM236.848 234.743C237.712 234.743 238.409 235.05 238.938 235.666C239.476 236.273 239.744 236.993 239.744 237.827C239.744 237.912 239.737 238.033 239.721 238.189H234.593C234.671 238.78 234.92 239.252 235.341 239.602C235.769 239.945 236.295 240.116 236.918 240.116C237.362 240.116 237.743 240.026 238.062 239.847C238.389 239.66 238.635 239.419 238.798 239.123L239.476 239.52C239.219 239.933 238.868 240.26 238.425 240.501C237.981 240.743 237.474 240.864 236.906 240.864C235.987 240.864 235.24 240.575 234.663 239.999C234.087 239.423 233.799 238.691 233.799 237.803C233.799 236.931 234.083 236.203 234.652 235.619C235.22 235.035 235.952 234.743 236.848 234.743ZM236.848 235.49C236.24 235.49 235.73 235.673 235.317 236.039C234.912 236.398 234.671 236.865 234.593 237.441H238.95C238.872 236.826 238.635 236.347 238.238 236.004C237.84 235.662 237.377 235.49 236.848 235.49ZM243.669 234.743C244.533 234.743 245.23 235.05 245.76 235.666C246.297 236.273 246.566 236.993 246.566 237.827C246.566 237.912 246.558 238.033 246.543 238.189H241.415C241.492 238.78 241.742 239.252 242.162 239.602C242.59 239.945 243.116 240.116 243.739 240.116C244.183 240.116 244.565 240.026 244.884 239.847C245.211 239.66 245.456 239.419 245.62 239.123L246.297 239.52C246.04 239.933 245.69 240.26 245.246 240.501C244.802 240.743 244.296 240.864 243.727 240.864C242.809 240.864 242.061 240.575 241.485 239.999C240.908 239.423 240.62 238.691 240.62 237.803C240.62 236.931 240.905 236.203 241.473 235.619C242.041 235.035 242.773 234.743 243.669 234.743ZM243.669 235.49C243.062 235.49 242.552 235.673 242.139 236.039C241.734 236.398 241.492 236.865 241.415 237.441H245.772C245.694 236.826 245.456 236.347 245.059 236.004C244.662 235.662 244.199 235.49 243.669 235.49ZM250.717 235.631H249.034V239.17C249.034 239.489 249.097 239.719 249.221 239.859C249.346 239.991 249.533 240.061 249.782 240.069C250.031 240.069 250.343 240.061 250.717 240.046V240.723C249.899 240.848 249.284 240.79 248.871 240.548C248.466 240.307 248.264 239.847 248.264 239.17V235.631H247.037V234.883H248.264V233.481L249.034 233.248V234.883H250.717V235.631ZM254.735 234.743C255.443 234.743 256 234.961 256.405 235.397C256.818 235.825 257.024 236.405 257.024 237.137V240.723H256.253V237.137C256.253 236.616 256.113 236.211 255.833 235.923C255.56 235.634 255.171 235.49 254.665 235.49C254.104 235.49 253.648 235.669 253.298 236.028C252.948 236.378 252.772 236.923 252.772 237.663V240.723H252.001V232.547H252.772V235.794C253.208 235.093 253.863 234.743 254.735 234.743ZM263.538 234.883H264.309V240.723H263.538V239.579C263 240.435 262.214 240.864 261.178 240.864C260.345 240.864 259.632 240.568 259.04 239.976C258.456 239.384 258.164 238.66 258.164 237.803C258.164 236.947 258.456 236.222 259.04 235.631C259.632 235.039 260.345 234.743 261.178 234.743C262.214 234.743 263 235.171 263.538 236.028V234.883ZM259.601 239.45C260.045 239.894 260.59 240.116 261.236 240.116C261.883 240.116 262.428 239.894 262.872 239.45C263.316 238.999 263.538 238.45 263.538 237.803C263.538 237.157 263.316 236.612 262.872 236.168C262.428 235.716 261.883 235.49 261.236 235.49C260.59 235.49 260.045 235.716 259.601 236.168C259.157 236.612 258.935 237.157 258.935 237.803C258.935 238.45 259.157 238.999 259.601 239.45ZM272.167 234.743C272.821 234.743 273.347 234.953 273.744 235.374C274.149 235.794 274.351 236.363 274.351 237.079V240.723H273.58V237.079C273.58 236.573 273.448 236.183 273.183 235.911C272.926 235.631 272.583 235.49 272.155 235.49C271.672 235.49 271.279 235.654 270.975 235.981C270.679 236.3 270.531 236.803 270.531 237.488V240.723H269.76V237.079C269.76 236.565 269.636 236.172 269.387 235.899C269.145 235.627 268.814 235.49 268.394 235.49C267.927 235.49 267.529 235.654 267.202 235.981C266.875 236.308 266.712 236.81 266.712 237.488V240.723H265.941V234.883H266.712V235.736C267.132 235.074 267.728 234.743 268.499 234.743C269.34 234.743 269.932 235.097 270.274 235.806C270.695 235.097 271.326 234.743 272.167 234.743ZM282.068 234.743C282.722 234.743 283.248 234.953 283.645 235.374C284.05 235.794 284.252 236.363 284.252 237.079V240.723H283.481V237.079C283.481 236.573 283.349 236.183 283.084 235.911C282.827 235.631 282.485 235.49 282.056 235.49C281.574 235.49 281.18 235.654 280.877 235.981C280.581 236.3 280.433 236.803 280.433 237.488V240.723H279.662V237.079C279.662 236.565 279.537 236.172 279.288 235.899C279.047 235.627 278.716 235.49 278.295 235.49C277.828 235.49 277.431 235.654 277.104 235.981C276.777 236.308 276.613 236.81 276.613 237.488V240.723H275.842V234.883H276.613V235.736C277.034 235.074 277.629 234.743 278.4 234.743C279.241 234.743 279.833 235.097 280.176 235.806C280.596 235.097 281.227 234.743 282.068 234.743ZM290.766 234.883H291.537V240.723H290.766V239.579C290.229 240.435 289.442 240.864 288.407 240.864C287.574 240.864 286.861 240.568 286.269 239.976C285.685 239.384 285.393 238.66 285.393 237.803C285.393 236.947 285.685 236.222 286.269 235.631C286.861 235.039 287.574 234.743 288.407 234.743C289.442 234.743 290.229 235.171 290.766 236.028V234.883ZM286.83 239.45C287.274 239.894 287.819 240.116 288.465 240.116C289.112 240.116 289.657 239.894 290.101 239.45C290.544 238.999 290.766 238.45 290.766 237.803C290.766 237.157 290.544 236.612 290.101 236.168C289.657 235.716 289.112 235.49 288.465 235.49C287.819 235.49 287.274 235.716 286.83 236.168C286.386 236.612 286.164 237.157 286.164 237.803C286.164 238.45 286.386 238.999 286.83 239.45ZM293.17 240.723V232.196H293.94V240.723H293.17ZM301.183 240.864C300.436 240.864 299.793 240.688 299.256 240.338C298.726 239.98 298.356 239.489 298.146 238.866L298.847 238.457C298.995 238.963 299.268 239.361 299.665 239.649C300.062 239.929 300.572 240.069 301.195 240.069C301.802 240.069 302.273 239.937 302.608 239.672C302.951 239.4 303.122 239.041 303.122 238.597C303.122 238.169 302.967 237.846 302.655 237.628C302.344 237.41 301.83 237.184 301.113 236.95C300.264 236.67 299.704 236.444 299.431 236.273C298.808 235.899 298.497 235.358 298.497 234.649C298.497 233.956 298.738 233.411 299.221 233.014C299.704 232.609 300.299 232.407 301.008 232.407C301.647 232.407 302.199 232.574 302.667 232.909C303.134 233.236 303.48 233.656 303.706 234.17L303.017 234.556C302.643 233.653 301.974 233.201 301.008 233.201C300.502 233.201 300.093 233.326 299.782 233.575C299.47 233.824 299.314 234.17 299.314 234.614C299.314 235.019 299.454 235.323 299.735 235.525C300.015 235.728 300.479 235.934 301.125 236.144C301.421 236.246 301.631 236.32 301.756 236.366C301.888 236.405 302.075 236.475 302.316 236.577C302.565 236.67 302.748 236.756 302.865 236.834C302.982 236.904 303.122 237.005 303.286 237.137C303.457 237.262 303.578 237.39 303.648 237.523C303.726 237.647 303.792 237.803 303.846 237.99C303.909 238.169 303.94 238.364 303.94 238.574C303.94 239.267 303.687 239.824 303.181 240.244C302.675 240.657 302.009 240.864 301.183 240.864ZM308.151 235.631H306.469V239.17C306.469 239.489 306.531 239.719 306.656 239.859C306.781 239.991 306.967 240.061 307.217 240.069C307.466 240.069 307.777 240.061 308.151 240.046V240.723C307.333 240.848 306.718 240.79 306.306 240.548C305.901 240.307 305.698 239.847 305.698 239.17V235.631H304.472V234.883H305.698V233.481L306.469 233.248V234.883H308.151V235.631ZM310.721 239.731L310.02 242.359H309.319L309.786 239.731H310.721ZM320.722 240.723L319.963 238.714H316.085L315.326 240.723H314.462L317.604 232.547H318.445L321.587 240.723H320.722ZM316.377 237.943H319.671L318.024 233.563L316.377 237.943ZM326.371 234.883H327.189L324.689 241.261C324.464 241.837 324.14 242.289 323.72 242.616C323.307 242.951 322.844 243.098 322.33 243.06V242.335C323.031 242.413 323.564 242.008 323.93 241.121L324.082 240.758L321.466 234.883H322.283L324.479 239.777L326.371 234.883ZM332.326 234.883H333.144L330.644 241.261C330.418 241.837 330.095 242.289 329.674 242.616C329.262 242.951 328.798 243.098 328.284 243.06V242.335C328.985 242.413 329.519 242.008 329.885 241.121L330.037 240.758L327.42 234.883H328.238L330.434 239.777L332.326 234.883ZM338.87 234.883H339.641V240.723H338.87V239.579C338.333 240.435 337.546 240.864 336.51 240.864C335.677 240.864 334.965 240.568 334.373 239.976C333.789 239.384 333.497 238.66 333.497 237.803C333.497 236.947 333.789 236.222 334.373 235.631C334.965 235.039 335.677 234.743 336.51 234.743C337.546 234.743 338.333 235.171 338.87 236.028V234.883ZM334.934 239.45C335.377 239.894 335.922 240.116 336.569 240.116C337.215 240.116 337.76 239.894 338.204 239.45C338.648 238.999 338.87 238.45 338.87 237.803C338.87 237.157 338.648 236.612 338.204 236.168C337.76 235.716 337.215 235.49 336.569 235.49C335.922 235.49 335.377 235.716 334.934 236.168C334.49 236.612 334.268 237.157 334.268 237.803C334.268 238.45 334.49 238.999 334.934 239.45ZM345.478 234.883H346.296L343.901 240.723H342.967L340.572 234.883H341.39L343.434 239.917L345.478 234.883ZM351.894 239.987C351.302 240.572 350.578 240.864 349.721 240.864C348.865 240.864 348.137 240.572 347.537 239.987C346.945 239.396 346.649 238.668 346.649 237.803C346.649 236.939 346.945 236.215 347.537 235.631C348.137 235.039 348.865 234.743 349.721 234.743C350.578 234.743 351.302 235.039 351.894 235.631C352.493 236.215 352.793 236.939 352.793 237.803C352.793 238.668 352.493 239.396 351.894 239.987ZM348.086 239.45C348.53 239.894 349.075 240.116 349.721 240.116C350.368 240.116 350.913 239.894 351.357 239.45C351.8 238.999 352.022 238.45 352.022 237.803C352.022 237.157 351.8 236.612 351.357 236.168C350.913 235.716 350.368 235.49 349.721 235.49C349.075 235.49 348.53 235.716 348.086 236.168C347.642 236.612 347.42 237.157 347.42 237.803C347.42 238.45 347.642 238.999 348.086 239.45ZM358.978 239.987C358.386 240.572 357.662 240.864 356.805 240.864C355.948 240.864 355.22 240.572 354.621 239.987C354.029 239.396 353.733 238.668 353.733 237.803C353.733 236.939 354.029 236.215 354.621 235.631C355.22 235.039 355.948 234.743 356.805 234.743C357.662 234.743 358.386 235.039 358.978 235.631C359.577 236.215 359.877 236.939 359.877 237.803C359.877 238.668 359.577 239.396 358.978 239.987ZM355.17 239.45C355.614 239.894 356.159 240.116 356.805 240.116C357.451 240.116 357.996 239.894 358.44 239.45C358.884 238.999 359.106 238.45 359.106 237.803C359.106 237.157 358.884 236.612 358.44 236.168C357.996 235.716 357.451 235.49 356.805 235.49C356.159 235.49 355.614 235.716 355.17 236.168C354.726 236.612 354.504 237.157 354.504 237.803C354.504 238.45 354.726 238.999 355.17 239.45ZM116.692 254.864C115.453 254.864 114.429 254.455 113.62 253.637C112.81 252.819 112.405 251.819 112.405 250.635C112.405 249.451 112.81 248.451 113.62 247.633C114.429 246.815 115.453 246.407 116.692 246.407C117.447 246.407 118.14 246.59 118.771 246.956C119.402 247.314 119.888 247.801 120.231 248.416L119.507 248.836C119.25 248.338 118.868 247.941 118.362 247.645C117.856 247.349 117.299 247.201 116.692 247.201C115.671 247.201 114.838 247.532 114.192 248.194C113.546 248.856 113.222 249.669 113.222 250.635C113.222 251.601 113.546 252.414 114.192 253.076C114.838 253.738 115.671 254.069 116.692 254.069C117.299 254.069 117.856 253.921 118.362 253.625C118.868 253.329 119.25 252.932 119.507 252.434L120.231 252.843C119.896 253.458 119.409 253.949 118.771 254.315C118.14 254.681 117.447 254.864 116.692 254.864ZM126.296 253.987C125.704 254.572 124.98 254.864 124.123 254.864C123.267 254.864 122.539 254.572 121.939 253.987C121.347 253.396 121.051 252.668 121.051 251.803C121.051 250.939 121.347 250.215 121.939 249.631C122.539 249.039 123.267 248.743 124.123 248.743C124.98 248.743 125.704 249.039 126.296 249.631C126.896 250.215 127.195 250.939 127.195 251.803C127.195 252.668 126.896 253.396 126.296 253.987ZM122.488 253.45C122.932 253.894 123.477 254.116 124.123 254.116C124.77 254.116 125.315 253.894 125.759 253.45C126.203 252.999 126.424 252.45 126.424 251.803C126.424 251.157 126.203 250.612 125.759 250.168C125.315 249.716 124.77 249.49 124.123 249.49C123.477 249.49 122.932 249.716 122.488 250.168C122.044 250.612 121.822 251.157 121.822 251.803C121.822 252.45 122.044 252.999 122.488 253.45ZM128.486 254.723V246.196H129.256V254.723H128.486ZM135.787 253.987C135.195 254.572 134.471 254.864 133.614 254.864C132.757 254.864 132.029 254.572 131.43 253.987C130.838 253.396 130.542 252.668 130.542 251.803C130.542 250.939 130.838 250.215 131.43 249.631C132.029 249.039 132.757 248.743 133.614 248.743C134.471 248.743 135.195 249.039 135.787 249.631C136.386 250.215 136.686 250.939 136.686 251.803C136.686 252.668 136.386 253.396 135.787 253.987ZM131.979 253.45C132.423 253.894 132.968 254.116 133.614 254.116C134.26 254.116 134.806 253.894 135.249 253.45C135.693 252.999 135.915 252.45 135.915 251.803C135.915 251.157 135.693 250.612 135.249 250.168C134.806 249.716 134.26 249.49 133.614 249.49C132.968 249.49 132.423 249.716 131.979 250.168C131.535 250.612 131.313 251.157 131.313 251.803C131.313 252.45 131.535 252.999 131.979 253.45ZM140.71 248.743C141.418 248.743 141.975 248.961 142.38 249.397C142.793 249.825 142.999 250.405 142.999 251.137V254.723H142.228V251.137C142.228 250.616 142.088 250.211 141.808 249.923C141.535 249.634 141.146 249.49 140.639 249.49C140.079 249.49 139.623 249.669 139.273 250.028C138.922 250.378 138.747 250.923 138.747 251.663V254.723H137.976V248.883H138.747V249.794C139.183 249.093 139.837 248.743 140.71 248.743ZM148.581 248.883H149.398L146.899 255.261C146.673 255.837 146.35 256.289 145.929 256.616C145.516 256.951 145.053 257.098 144.539 257.06V256.335C145.24 256.413 145.773 256.008 146.139 255.121L146.291 254.758L143.675 248.883H144.492L146.688 253.777L148.581 248.883ZM150.566 253.731L149.865 256.359H149.164L149.631 253.731H150.566ZM160.567 254.723L159.808 252.714H155.93L155.171 254.723H154.306L157.448 246.547H158.289L161.431 254.723H160.567ZM156.222 251.943H159.516L157.869 247.563L156.222 251.943ZM168.59 248.743C169.245 248.743 169.77 248.953 170.167 249.374C170.572 249.794 170.775 250.363 170.775 251.079V254.723H170.004V251.079C170.004 250.573 169.871 250.183 169.607 249.911C169.35 249.631 169.007 249.49 168.579 249.49C168.096 249.49 167.703 249.654 167.399 249.981C167.103 250.3 166.955 250.803 166.955 251.488V254.723H166.184V251.079C166.184 250.565 166.06 250.172 165.81 249.899C165.569 249.627 165.238 249.49 164.818 249.49C164.35 249.49 163.953 249.654 163.626 249.981C163.299 250.308 163.135 250.81 163.135 251.488V254.723H162.365V248.883H163.135V249.736C163.556 249.074 164.152 248.743 164.923 248.743C165.764 248.743 166.356 249.097 166.698 249.806C167.119 249.097 167.749 248.743 168.59 248.743ZM173.049 247.481C172.939 247.59 172.807 247.645 172.651 247.645C172.496 247.645 172.363 247.59 172.254 247.481C172.145 247.372 172.091 247.24 172.091 247.084C172.091 246.928 172.145 246.796 172.254 246.687C172.363 246.578 172.496 246.523 172.651 246.523C172.807 246.523 172.939 246.578 173.049 246.687C173.158 246.796 173.212 246.928 173.212 247.084C173.212 247.24 173.158 247.372 173.049 247.481ZM172.266 254.723V248.883H173.037V254.723H172.266ZM177.406 248.743C178.115 248.743 178.672 248.961 179.076 249.397C179.489 249.825 179.696 250.405 179.696 251.137V254.723H178.925V251.137C178.925 250.616 178.784 250.211 178.504 249.923C178.232 249.634 177.842 249.49 177.336 249.49C176.775 249.49 176.32 249.669 175.969 250.028C175.619 250.378 175.444 250.923 175.444 251.663V254.723H174.673V248.883H175.444V249.794C175.88 249.093 176.534 248.743 177.406 248.743ZM181.341 246.687C181.45 246.578 181.582 246.523 181.738 246.523C181.894 246.523 182.026 246.578 182.135 246.687C182.244 246.796 182.299 246.928 182.299 247.084C182.299 247.24 182.244 247.372 182.135 247.481C182.026 247.59 181.894 247.645 181.738 247.645C181.582 247.645 181.45 247.59 181.341 247.481C181.232 247.372 181.177 247.24 181.177 247.084C181.177 246.928 181.232 246.796 181.341 246.687ZM181.353 255.191V248.883H182.123V255.191C182.123 255.891 181.94 256.417 181.574 256.768C181.208 257.118 180.691 257.262 180.021 257.2V256.452C180.48 256.499 180.815 256.425 181.025 256.23C181.243 256.036 181.353 255.689 181.353 255.191ZM184.547 247.481C184.438 247.59 184.305 247.645 184.15 247.645C183.994 247.645 183.862 247.59 183.753 247.481C183.644 247.372 183.589 247.24 183.589 247.084C183.589 246.928 183.644 246.796 183.753 246.687C183.862 246.578 183.994 246.523 184.15 246.523C184.305 246.523 184.438 246.578 184.547 246.687C184.656 246.796 184.71 246.928 184.71 247.084C184.71 247.24 184.656 247.372 184.547 247.481ZM183.764 254.723V248.883H184.535V254.723H183.764ZM190.89 254.723H189.862L186.942 251.908V254.723H186.171V246.547H186.942V251.464L189.722 248.883H190.773L187.76 251.686L190.89 254.723ZM196.384 248.883H197.155V254.723H196.384V253.579C195.847 254.435 195.06 254.864 194.025 254.864C193.191 254.864 192.479 254.568 191.887 253.976C191.303 253.384 191.011 252.66 191.011 251.803C191.011 250.947 191.303 250.222 191.887 249.631C192.479 249.039 193.191 248.743 194.025 248.743C195.06 248.743 195.847 249.171 196.384 250.028V248.883ZM192.448 253.45C192.892 253.894 193.437 254.116 194.083 254.116C194.729 254.116 195.274 253.894 195.718 253.45C196.162 252.999 196.384 252.45 196.384 251.803C196.384 251.157 196.162 250.612 195.718 250.168C195.274 249.716 194.729 249.49 194.083 249.49C193.437 249.49 192.892 249.716 192.448 250.168C192.004 250.612 191.782 251.157 191.782 251.803C191.782 252.45 192.004 252.999 192.448 253.45ZM199.558 249.852C199.917 249.144 200.532 248.79 201.404 248.79V249.537C200.874 249.537 200.434 249.693 200.084 250.004C199.734 250.316 199.558 250.806 199.558 251.476V254.723H198.787V248.883H199.558V249.852ZM207.13 248.883H207.901V254.723H207.13V253.579C206.592 254.435 205.806 254.864 204.77 254.864C203.937 254.864 203.224 254.568 202.632 253.976C202.048 253.384 201.756 252.66 201.756 251.803C201.756 250.947 202.048 250.222 202.632 249.631C203.224 249.039 203.937 248.743 204.77 248.743C205.806 248.743 206.592 249.171 207.13 250.028V248.883ZM203.193 253.45C203.637 253.894 204.182 254.116 204.828 254.116C205.475 254.116 206.02 253.894 206.464 253.45C206.908 252.999 207.13 252.45 207.13 251.803C207.13 251.157 206.908 250.612 206.464 250.168C206.02 249.716 205.475 249.49 204.828 249.49C204.182 249.49 203.637 249.716 203.193 250.168C202.749 250.612 202.527 251.157 202.527 251.803C202.527 252.45 202.749 252.999 203.193 253.45ZM210.315 247.481C210.206 247.59 210.074 247.645 209.918 247.645C209.763 247.645 209.63 247.59 209.521 247.481C209.412 247.372 209.358 247.24 209.358 247.084C209.358 246.928 209.412 246.796 209.521 246.687C209.63 246.578 209.763 246.523 209.918 246.523C210.074 246.523 210.206 246.578 210.315 246.687C210.424 246.796 210.479 246.928 210.479 247.084C210.479 247.24 210.424 247.372 210.315 247.481ZM209.533 254.723V248.883H210.304V254.723H209.533ZM213.225 253.731L212.524 256.359H211.823L212.29 253.731H213.225ZM221.603 254.864C220.364 254.864 219.34 254.455 218.53 253.637C217.721 252.819 217.316 251.819 217.316 250.635C217.316 249.451 217.721 248.451 218.53 247.633C219.34 246.815 220.364 246.407 221.603 246.407C222.358 246.407 223.051 246.59 223.682 246.956C224.312 247.314 224.799 247.801 225.142 248.416L224.418 248.836C224.161 248.338 223.779 247.941 223.273 247.645C222.767 247.349 222.21 247.201 221.603 247.201C220.582 247.201 219.749 247.532 219.103 248.194C218.456 248.856 218.133 249.669 218.133 250.635C218.133 251.601 218.456 252.414 219.103 253.076C219.749 253.738 220.582 254.069 221.603 254.069C222.21 254.069 222.767 253.921 223.273 253.625C223.779 253.329 224.161 252.932 224.418 252.434L225.142 252.843C224.807 253.458 224.32 253.949 223.682 254.315C223.051 254.681 222.358 254.864 221.603 254.864ZM229.103 248.743C229.812 248.743 230.368 248.961 230.773 249.397C231.186 249.825 231.392 250.405 231.392 251.137V254.723H230.622V251.137C230.622 250.616 230.481 250.211 230.201 249.923C229.928 249.634 229.539 249.49 229.033 249.49C228.472 249.49 228.017 249.669 227.666 250.028C227.316 250.378 227.141 250.923 227.141 251.663V254.723H226.37V246.547H227.141V249.794C227.577 249.093 228.231 248.743 229.103 248.743ZM235.581 248.743C236.446 248.743 237.143 249.05 237.672 249.666C238.21 250.273 238.478 250.993 238.478 251.827C238.478 251.912 238.47 252.033 238.455 252.189H233.327C233.405 252.78 233.654 253.252 234.075 253.602C234.503 253.945 235.029 254.116 235.651 254.116C236.095 254.116 236.477 254.026 236.796 253.847C237.123 253.66 237.369 253.419 237.532 253.123L238.21 253.52C237.953 253.933 237.602 254.26 237.158 254.501C236.714 254.743 236.208 254.864 235.64 254.864C234.721 254.864 233.973 254.575 233.397 253.999C232.821 253.423 232.533 252.691 232.533 251.803C232.533 250.931 232.817 250.203 233.385 249.619C233.954 249.035 234.686 248.743 235.581 248.743ZM235.581 249.49C234.974 249.49 234.464 249.673 234.051 250.039C233.646 250.398 233.405 250.865 233.327 251.441H237.684C237.606 250.826 237.369 250.347 236.971 250.004C236.574 249.662 236.111 249.49 235.581 249.49ZM242.438 248.743C243.147 248.743 243.703 248.961 244.108 249.397C244.521 249.825 244.727 250.405 244.727 251.137V254.723H243.956V251.137C243.956 250.616 243.816 250.211 243.536 249.923C243.263 249.634 242.874 249.49 242.368 249.49C241.807 249.49 241.352 249.669 241.001 250.028C240.651 250.378 240.475 250.923 240.475 251.663V254.723H239.705V248.883H240.475V249.794C240.912 249.093 241.566 248.743 242.438 248.743ZM248.951 248.743C249.66 248.743 250.217 248.961 250.622 249.397C251.034 249.825 251.241 250.405 251.241 251.137V254.723H250.47V251.137C250.47 250.616 250.33 250.211 250.049 249.923C249.777 249.634 249.387 249.49 248.881 249.49C248.321 249.49 247.865 249.669 247.515 250.028C247.164 250.378 246.989 250.923 246.989 251.663V254.723H246.218V248.883H246.989V249.794C247.425 249.093 248.079 248.743 248.951 248.743ZM257.754 248.883H258.525V254.723H257.754V253.579C257.217 254.435 256.43 254.864 255.395 254.864C254.561 254.864 253.849 254.568 253.257 253.976C252.673 253.384 252.381 252.66 252.381 251.803C252.381 250.947 252.673 250.222 253.257 249.631C253.849 249.039 254.561 248.743 255.395 248.743C256.43 248.743 257.217 249.171 257.754 250.028V248.883ZM253.818 253.45C254.262 253.894 254.807 254.116 255.453 254.116C256.099 254.116 256.645 253.894 257.088 253.45C257.532 252.999 257.754 252.45 257.754 251.803C257.754 251.157 257.532 250.612 257.088 250.168C256.645 249.716 256.099 249.49 255.453 249.49C254.807 249.49 254.262 249.716 253.818 250.168C253.374 250.612 253.152 251.157 253.152 251.803C253.152 252.45 253.374 252.999 253.818 253.45ZM260.94 247.481C260.831 247.59 260.699 247.645 260.543 247.645C260.387 247.645 260.255 247.59 260.146 247.481C260.037 247.372 259.982 247.24 259.982 247.084C259.982 246.928 260.037 246.796 260.146 246.687C260.255 246.578 260.387 246.523 260.543 246.523C260.699 246.523 260.831 246.578 260.94 246.687C261.049 246.796 261.104 246.928 261.104 247.084C261.104 247.24 261.049 247.372 260.94 247.481ZM260.157 254.723V248.883H260.928V254.723H260.157ZM263.849 253.731L263.148 256.359H262.448L262.915 253.731H263.849ZM273.547 246.547V247.318H271.036V254.723H270.218V247.318H267.707V246.547H273.547ZM278.572 248.883H279.343V254.723H278.572V253.579C278.035 254.435 277.248 254.864 276.213 254.864C275.379 254.864 274.667 254.568 274.075 253.976C273.491 253.384 273.199 252.66 273.199 251.803C273.199 250.947 273.491 250.222 274.075 249.631C274.667 249.039 275.379 248.743 276.213 248.743C277.248 248.743 278.035 249.171 278.572 250.028V248.883ZM274.636 253.45C275.08 253.894 275.625 254.116 276.271 254.116C276.917 254.116 277.462 253.894 277.906 253.45C278.35 252.999 278.572 252.45 278.572 251.803C278.572 251.157 278.35 250.612 277.906 250.168C277.462 249.716 276.917 249.49 276.271 249.49C275.625 249.49 275.08 249.716 274.636 250.168C274.192 250.612 273.97 251.157 273.97 251.803C273.97 252.45 274.192 252.999 274.636 253.45ZM287.201 248.743C287.855 248.743 288.381 248.953 288.778 249.374C289.183 249.794 289.386 250.363 289.386 251.079V254.723H288.615V251.079C288.615 250.573 288.482 250.183 288.218 249.911C287.961 249.631 287.618 249.49 287.19 249.49C286.707 249.49 286.314 249.654 286.01 249.981C285.714 250.3 285.566 250.803 285.566 251.488V254.723H284.795V251.079C284.795 250.565 284.67 250.172 284.421 249.899C284.18 249.627 283.849 249.49 283.428 249.49C282.961 249.49 282.564 249.654 282.237 249.981C281.91 250.308 281.746 250.81 281.746 251.488V254.723H280.975V248.883H281.746V249.736C282.167 249.074 282.763 248.743 283.533 248.743C284.375 248.743 284.966 249.097 285.309 249.806C285.729 249.097 286.36 248.743 287.201 248.743ZM291.659 247.481C291.55 247.59 291.418 247.645 291.262 247.645C291.106 247.645 290.974 247.59 290.865 247.481C290.756 247.372 290.702 247.24 290.702 247.084C290.702 246.928 290.756 246.796 290.865 246.687C290.974 246.578 291.106 246.523 291.262 246.523C291.418 246.523 291.55 246.578 291.659 246.687C291.768 246.796 291.823 246.928 291.823 247.084C291.823 247.24 291.768 247.372 291.659 247.481ZM290.877 254.723V248.883H291.648V254.723H290.877ZM293.284 254.723V246.196H294.055V254.723H293.284ZM303.984 246.547H304.802V254.723H304.101L299.545 248.065V254.723H298.728V246.547H299.428L303.984 253.205V246.547ZM311.573 248.883H312.344V254.723H311.573V253.579C311.036 254.435 310.249 254.864 309.213 254.864C308.38 254.864 307.668 254.568 307.076 253.976C306.492 253.384 306.2 252.66 306.2 251.803C306.2 250.947 306.492 250.222 307.076 249.631C307.668 249.039 308.38 248.743 309.213 248.743C310.249 248.743 311.036 249.171 311.573 250.028V248.883ZM307.636 253.45C308.08 253.894 308.625 254.116 309.272 254.116C309.918 254.116 310.463 253.894 310.907 253.45C311.351 252.999 311.573 252.45 311.573 251.803C311.573 251.157 311.351 250.612 310.907 250.168C310.463 249.716 309.918 249.49 309.272 249.49C308.625 249.49 308.08 249.716 307.636 250.168C307.193 250.612 306.971 251.157 306.971 251.803C306.971 252.45 307.193 252.999 307.636 253.45ZM318.999 246.547H319.77V254.723H318.999V253.579C318.462 254.435 317.675 254.864 316.639 254.864C315.806 254.864 315.094 254.568 314.502 253.976C313.918 253.384 313.626 252.66 313.626 251.803C313.626 250.947 313.918 250.222 314.502 249.631C315.094 249.039 315.806 248.743 316.639 248.743C317.675 248.743 318.462 249.171 318.999 250.028V246.547ZM315.062 253.45C315.506 253.894 316.051 254.116 316.698 254.116C317.344 254.116 317.889 253.894 318.333 253.45C318.777 252.999 318.999 252.45 318.999 251.803C318.999 251.157 318.777 250.612 318.333 250.168C317.889 249.716 317.344 249.49 316.698 249.49C316.051 249.49 315.506 249.716 315.062 250.168C314.619 250.612 314.397 251.157 314.397 251.803C314.397 252.45 314.619 252.999 315.062 253.45ZM325.514 248.883H326.285V254.723H325.514V253.812C325.078 254.513 324.424 254.864 323.551 254.864C322.843 254.864 322.282 254.649 321.869 254.221C321.464 253.785 321.262 253.201 321.262 252.469V248.883H322.033V252.469C322.033 252.991 322.169 253.396 322.442 253.684C322.722 253.972 323.115 254.116 323.621 254.116C324.182 254.116 324.638 253.941 324.988 253.59C325.339 253.232 325.514 252.683 325.514 251.943V248.883ZM333.114 249.467C333.916 249.467 334.574 249.72 335.088 250.226C335.602 250.725 335.859 251.371 335.859 252.165C335.859 252.96 335.602 253.61 335.088 254.116C334.574 254.614 333.916 254.864 333.114 254.864C332.311 254.864 331.653 254.614 331.139 254.116C330.625 253.61 330.369 252.96 330.369 252.165C330.369 251.55 330.536 251.005 330.871 250.53L333.546 246.547H334.468L332.459 249.537C332.67 249.49 332.888 249.467 333.114 249.467ZM331.712 253.544C332.07 253.894 332.537 254.069 333.114 254.069C333.69 254.069 334.153 253.894 334.504 253.544C334.862 253.193 335.041 252.734 335.041 252.165C335.041 251.597 334.862 251.137 334.504 250.787C334.153 250.437 333.69 250.261 333.114 250.261C332.537 250.261 332.07 250.437 331.712 250.787C331.361 251.137 331.186 251.597 331.186 252.165C331.186 252.734 331.361 253.193 331.712 253.544ZM342.169 253.719C341.632 254.482 340.873 254.864 339.892 254.864C338.91 254.864 338.147 254.482 337.602 253.719C337.065 252.948 336.796 251.92 336.796 250.635C336.796 249.35 337.065 248.326 337.602 247.563C338.147 246.792 338.91 246.407 339.892 246.407C340.873 246.407 341.632 246.792 342.169 247.563C342.714 248.326 342.987 249.35 342.987 250.635C342.987 251.92 342.714 252.948 342.169 253.719ZM338.21 253.17C338.614 253.769 339.175 254.069 339.892 254.069C340.608 254.069 341.165 253.769 341.562 253.17C341.967 252.57 342.169 251.725 342.169 250.635C342.169 249.545 341.967 248.7 341.562 248.1C341.165 247.501 340.608 247.201 339.892 247.201C339.175 247.201 338.614 247.501 338.21 248.1C337.812 248.7 337.614 249.545 337.614 250.635C337.614 251.725 337.812 252.57 338.21 253.17ZM349.527 253.719C348.99 254.482 348.23 254.864 347.249 254.864C346.268 254.864 345.505 254.482 344.96 253.719C344.422 252.948 344.154 251.92 344.154 250.635C344.154 249.35 344.422 248.326 344.96 247.563C345.505 246.792 346.268 246.407 347.249 246.407C348.23 246.407 348.99 246.792 349.527 247.563C350.072 248.326 350.345 249.35 350.345 250.635C350.345 251.92 350.072 252.948 349.527 253.719ZM345.567 253.17C345.972 253.769 346.533 254.069 347.249 254.069C347.966 254.069 348.522 253.769 348.92 253.17C349.324 252.57 349.527 251.725 349.527 250.635C349.527 249.545 349.324 248.7 348.92 248.1C348.522 247.501 347.966 247.201 347.249 247.201C346.533 247.201 345.972 247.501 345.567 248.1C345.17 248.7 344.971 249.545 344.971 250.635C344.971 251.725 345.17 252.57 345.567 253.17ZM356.884 253.719C356.347 254.482 355.588 254.864 354.607 254.864C353.626 254.864 352.862 254.482 352.317 253.719C351.78 252.948 351.511 251.92 351.511 250.635C351.511 249.35 351.78 248.326 352.317 247.563C352.862 246.792 353.626 246.407 354.607 246.407C355.588 246.407 356.347 246.792 356.884 247.563C357.43 248.326 357.702 249.35 357.702 250.635C357.702 251.92 357.43 252.948 356.884 253.719ZM352.925 253.17C353.33 253.769 353.89 254.069 354.607 254.069C355.323 254.069 355.88 253.769 356.277 253.17C356.682 252.57 356.884 251.725 356.884 250.635C356.884 249.545 356.682 248.7 356.277 248.1C355.88 247.501 355.323 247.201 354.607 247.201C353.89 247.201 353.33 247.501 352.925 248.1C352.528 248.7 352.329 249.545 352.329 250.635C352.329 251.725 352.528 252.57 352.925 253.17ZM358.638 254.723V253.987L361.582 251.021C362.423 250.18 362.843 249.459 362.843 248.86C362.843 248.338 362.68 247.933 362.352 247.645C362.033 247.349 361.648 247.201 361.196 247.201C360.355 247.201 359.744 247.586 359.362 248.357L358.673 247.948C358.93 247.442 359.28 247.061 359.724 246.804C360.168 246.539 360.659 246.407 361.196 246.407C361.85 246.407 362.423 246.629 362.913 247.072C363.412 247.509 363.661 248.104 363.661 248.86C363.661 249.335 363.528 249.79 363.264 250.226C362.999 250.662 362.625 251.122 362.142 251.605L359.806 253.929H363.836V254.723H358.638ZM370.148 249.105C370.148 249.72 369.981 250.265 369.646 250.74L366.971 254.723H366.048L368.057 251.733C367.847 251.78 367.629 251.803 367.403 251.803C366.601 251.803 365.943 251.554 365.429 251.056C364.915 250.549 364.658 249.899 364.658 249.105C364.658 248.311 364.915 247.664 365.429 247.166C365.943 246.66 366.601 246.407 367.403 246.407C368.205 246.407 368.863 246.66 369.377 247.166C369.891 247.664 370.148 248.311 370.148 249.105ZM366.001 247.727C365.651 248.077 365.476 248.536 365.476 249.105C365.476 249.673 365.651 250.133 366.001 250.483C366.36 250.834 366.827 251.009 367.403 251.009C367.979 251.009 368.443 250.834 368.793 250.483C369.151 250.133 369.331 249.673 369.331 249.105C369.331 248.536 369.151 248.077 368.793 247.727C368.443 247.376 367.979 247.201 367.403 247.201C366.827 247.201 366.36 247.376 366.001 247.727Z" fill="url(#paint2_linear_3835_1163)"/>
<path d="M117.974 105.085H114.353V107.737H117.822V108.765H114.353V112.234H113.267V104.057H117.974V105.085ZM120.201 107.375C120.536 106.651 121.143 106.289 122.023 106.289V107.351C121.525 107.328 121.096 107.46 120.738 107.749C120.38 108.037 120.201 108.5 120.201 109.139V112.234H119.184V106.394H120.201V107.375ZM127.627 111.498C127.028 112.09 126.299 112.386 125.443 112.386C124.586 112.386 123.858 112.09 123.259 111.498C122.667 110.906 122.371 110.178 122.371 109.314C122.371 108.449 122.667 107.721 123.259 107.13C123.858 106.538 124.586 106.242 125.443 106.242C126.299 106.242 127.028 106.538 127.627 107.13C128.227 107.721 128.527 108.449 128.527 109.314C128.527 110.178 128.227 110.906 127.627 111.498ZM125.443 111.393C126.027 111.393 126.518 111.194 126.915 110.797C127.312 110.4 127.51 109.906 127.51 109.314C127.51 108.722 127.312 108.228 126.915 107.83C126.518 107.433 126.027 107.235 125.443 107.235C124.867 107.235 124.38 107.433 123.983 107.83C123.586 108.228 123.387 108.722 123.387 109.314C123.387 109.906 123.586 110.4 123.983 110.797C124.38 111.194 124.867 111.393 125.443 111.393ZM136.032 106.242C136.686 106.242 137.216 106.456 137.621 106.884C138.026 107.305 138.228 107.877 138.228 108.601V112.234H137.212V108.636C137.212 108.185 137.095 107.834 136.862 107.585C136.628 107.336 136.317 107.211 135.927 107.211C135.491 107.211 135.141 107.359 134.876 107.655C134.619 107.943 134.49 108.387 134.49 108.987V112.234H133.474V108.636C133.474 108.185 133.361 107.834 133.135 107.585C132.917 107.336 132.618 107.211 132.236 107.211C131.808 107.211 131.45 107.359 131.161 107.655C130.881 107.951 130.741 108.395 130.741 108.987V112.234H129.725V106.394H130.741V107.176C131.138 106.553 131.718 106.242 132.481 106.242C133.268 106.242 133.84 106.573 134.198 107.235C134.603 106.573 135.215 106.242 136.032 106.242Z" fill="#606060"/>
<path d="M118.5 190.69V191.718H116.082V198.867H115.007V191.718H112.601V190.69H118.5ZM123.338 198.131C122.739 198.723 122.01 199.019 121.154 199.019C120.297 199.019 119.569 198.723 118.969 198.131C118.378 197.539 118.082 196.811 118.082 195.947C118.082 195.082 118.378 194.354 118.969 193.763C119.569 193.171 120.297 192.875 121.154 192.875C122.01 192.875 122.739 193.171 123.338 193.763C123.938 194.354 124.238 195.082 124.238 195.947C124.238 196.811 123.938 197.539 123.338 198.131ZM121.154 198.026C121.738 198.026 122.228 197.827 122.626 197.43C123.023 197.033 123.221 196.539 123.221 195.947C123.221 195.355 123.023 194.861 122.626 194.463C122.228 194.066 121.738 193.868 121.154 193.868C120.578 193.868 120.091 194.066 119.694 194.463C119.297 194.861 119.098 195.355 119.098 195.947C119.098 196.539 119.297 197.033 119.694 197.43C120.091 197.827 120.578 198.026 121.154 198.026Z" fill="#606060"/>
<path d="M148.927 273.527H363.157V306.017H148.927V273.527Z" fill="#0B4A94"/>
<path d="M195.44 285.137C196.228 285.137 196.882 285.401 197.402 285.929C197.93 286.449 198.194 287.099 198.194 287.878C198.194 288.65 197.93 289.3 197.402 289.828C196.882 290.356 196.228 290.62 195.44 290.62H193.479V293.666H192.345V285.137H195.44ZM195.44 289.56C195.911 289.56 196.301 289.401 196.61 289.085C196.918 288.76 197.073 288.358 197.073 287.878C197.073 287.391 196.918 286.989 196.61 286.672C196.301 286.355 195.911 286.197 195.44 286.197H193.479V289.56H195.44ZM200.351 288.597C200.701 287.842 201.334 287.464 202.252 287.464V288.573C201.732 288.548 201.285 288.687 200.912 288.987C200.538 289.288 200.351 289.771 200.351 290.437V293.666H199.291V287.574H200.351V288.597ZM208.098 292.898C207.472 293.515 206.713 293.824 205.819 293.824C204.926 293.824 204.166 293.515 203.541 292.898C202.924 292.281 202.615 291.521 202.615 290.62C202.615 289.718 202.924 288.959 203.541 288.341C204.166 287.724 204.926 287.415 205.819 287.415C206.713 287.415 207.472 287.724 208.098 288.341C208.723 288.959 209.036 289.718 209.036 290.62C209.036 291.521 208.723 292.281 208.098 292.898ZM205.819 292.788C206.428 292.788 206.94 292.581 207.354 292.167C207.769 291.753 207.976 291.237 207.976 290.62C207.976 290.002 207.769 289.487 207.354 289.072C206.94 288.658 206.428 288.451 205.819 288.451C205.218 288.451 204.71 288.658 204.296 289.072C203.882 289.487 203.675 290.002 203.675 290.62C203.675 291.237 203.882 291.753 204.296 292.167C204.71 292.581 205.218 292.788 205.819 292.788ZM213.148 293.824C212.231 293.824 211.467 293.519 210.858 292.91C210.249 292.293 209.944 291.529 209.944 290.62C209.944 289.71 210.249 288.95 210.858 288.341C211.467 287.724 212.231 287.415 213.148 287.415C213.75 287.415 214.29 287.562 214.769 287.854C215.248 288.138 215.605 288.524 215.841 289.011L214.952 289.523C214.797 289.198 214.558 288.938 214.233 288.743C213.916 288.548 213.555 288.451 213.148 288.451C212.539 288.451 212.028 288.658 211.613 289.072C211.207 289.487 211.004 290.002 211.004 290.62C211.004 291.229 211.207 291.741 211.613 292.155C212.028 292.569 212.539 292.776 213.148 292.776C213.555 292.776 213.92 292.683 214.245 292.496C214.57 292.301 214.818 292.041 214.988 291.716L215.89 292.24C215.63 292.719 215.256 293.105 214.769 293.398C214.282 293.682 213.741 293.824 213.148 293.824ZM217.596 291.107C217.702 291.651 217.95 292.074 218.339 292.374C218.737 292.675 219.225 292.825 219.802 292.825C220.606 292.825 221.19 292.528 221.556 291.936L222.458 292.447C221.865 293.365 220.971 293.824 219.777 293.824C218.811 293.824 218.023 293.523 217.414 292.922C216.812 292.313 216.512 291.546 216.512 290.62C216.512 289.702 216.808 288.938 217.401 288.329C217.994 287.72 218.762 287.415 219.704 287.415C220.598 287.415 221.324 287.732 221.885 288.366C222.454 288.991 222.738 289.746 222.738 290.632C222.738 290.786 222.726 290.945 222.701 291.107H217.596ZM219.704 288.414C219.135 288.414 218.664 288.577 218.291 288.902C217.917 289.219 217.686 289.645 217.596 290.181H221.666C221.576 289.604 221.349 289.166 220.983 288.865C220.618 288.565 220.191 288.414 219.704 288.414ZM224.688 291.107C224.793 291.651 225.041 292.074 225.431 292.374C225.829 292.675 226.316 292.825 226.893 292.825C227.697 292.825 228.282 292.528 228.647 291.936L229.549 292.447C228.956 293.365 228.062 293.824 226.868 293.824C225.902 293.824 225.114 293.523 224.505 292.922C223.904 292.313 223.603 291.546 223.603 290.62C223.603 289.702 223.9 288.938 224.493 288.329C225.086 287.72 225.853 287.415 226.795 287.415C227.689 287.415 228.416 287.732 228.976 288.366C229.545 288.991 229.829 289.746 229.829 290.632C229.829 290.786 229.817 290.945 229.793 291.107H224.688ZM226.795 288.414C226.227 288.414 225.756 288.577 225.382 288.902C225.008 289.219 224.777 289.645 224.688 290.181H228.757C228.668 289.604 228.44 289.166 228.075 288.865C227.709 288.565 227.283 288.414 226.795 288.414ZM236.08 285.137H237.14V293.666H236.08V292.618C235.552 293.422 234.784 293.824 233.777 293.824C232.924 293.824 232.197 293.515 231.596 292.898C230.995 292.273 230.695 291.513 230.695 290.62C230.695 289.726 230.995 288.971 231.596 288.353C232.197 287.728 232.924 287.415 233.777 287.415C234.784 287.415 235.552 287.817 236.08 288.622V285.137ZM233.911 292.801C234.528 292.801 235.044 292.593 235.458 292.179C235.873 291.757 236.08 291.237 236.08 290.62C236.08 290.002 235.873 289.487 235.458 289.072C235.044 288.65 234.528 288.439 233.911 288.439C233.302 288.439 232.79 288.65 232.376 289.072C231.962 289.487 231.755 290.002 231.755 290.62C231.755 291.237 231.962 291.757 232.376 292.179C232.79 292.593 233.302 292.801 233.911 292.801ZM245.106 288.597H243.485V291.899C243.485 292.199 243.542 292.415 243.656 292.545C243.778 292.667 243.96 292.732 244.204 292.74C244.448 292.74 244.748 292.732 245.106 292.715V293.666C244.18 293.787 243.501 293.714 243.071 293.446C242.64 293.17 242.425 292.654 242.425 291.899V288.597H241.219V287.574H242.425V286.185L243.485 285.868V287.574H245.106V288.597ZM251.193 292.898C250.567 293.515 249.808 293.824 248.914 293.824C248.021 293.824 247.261 293.515 246.636 292.898C246.019 292.281 245.71 291.521 245.71 290.62C245.71 289.718 246.019 288.959 246.636 288.341C247.261 287.724 248.021 287.415 248.914 287.415C249.808 287.415 250.567 287.724 251.193 288.341C251.818 288.959 252.131 289.718 252.131 290.62C252.131 291.521 251.818 292.281 251.193 292.898ZM248.914 292.788C249.524 292.788 250.035 292.581 250.449 292.167C250.864 291.753 251.071 291.237 251.071 290.62C251.071 290.002 250.864 289.487 250.449 289.072C250.035 288.658 249.524 288.451 248.914 288.451C248.313 288.451 247.806 288.658 247.391 289.072C246.977 289.487 246.77 290.002 246.77 290.62C246.77 291.237 246.977 291.753 247.391 292.167C247.806 292.581 248.313 292.788 248.914 292.788ZM259.631 285.137C260.419 285.137 261.072 285.401 261.592 285.929C262.12 286.449 262.384 287.099 262.384 287.878C262.384 288.65 262.12 289.3 261.592 289.828C261.072 290.356 260.419 290.62 259.631 290.62H257.669V293.666H256.536V285.137H259.631ZM259.631 289.56C260.102 289.56 260.492 289.401 260.8 289.085C261.109 288.76 261.263 288.358 261.263 287.878C261.263 287.391 261.109 286.989 260.8 286.672C260.492 286.355 260.102 286.197 259.631 286.197H257.669V289.56H259.631ZM268.193 287.574H269.253V293.666H268.193V292.618C267.665 293.422 266.897 293.824 265.89 293.824C265.037 293.824 264.31 293.515 263.709 292.898C263.108 292.273 262.808 291.513 262.808 290.62C262.808 289.726 263.108 288.971 263.709 288.353C264.31 287.728 265.037 287.415 265.89 287.415C266.897 287.415 267.665 287.817 268.193 288.622V287.574ZM266.024 292.801C266.641 292.801 267.157 292.593 267.571 292.179C267.986 291.757 268.193 291.237 268.193 290.62C268.193 290.002 267.986 289.487 267.571 289.072C267.157 288.65 266.641 288.439 266.024 288.439C265.415 288.439 264.903 288.65 264.489 289.072C264.075 289.487 263.868 290.002 263.868 290.62C263.868 291.237 264.075 291.757 264.489 292.179C264.903 292.593 265.415 292.801 266.024 292.801ZM275.111 287.574H276.244L273.759 294.043C273.499 294.734 273.133 295.258 272.662 295.615C272.199 295.98 271.663 296.143 271.054 296.102V295.115C271.801 295.172 272.349 294.758 272.699 293.873L272.808 293.641L270.152 287.574H271.285L273.356 292.35L275.111 287.574ZM285.026 293.666L283.186 290.453V290.025H283.4C283.919 290.025 284.315 289.95 284.588 289.801C284.867 289.652 285.029 289.383 285.074 288.993H283.186V288.37H285.065C285 288.007 284.828 287.744 284.549 287.582C284.276 287.42 283.893 287.338 283.4 287.338H283.186V286.715H287.216V287.338H285.376C285.688 287.592 285.872 287.935 285.931 288.37H287.216V288.993H285.95C285.905 289.467 285.723 289.837 285.405 290.103C285.094 290.363 284.678 290.528 284.159 290.599L286.018 293.666H285.026ZM294.798 290.985V292.045H293.762V293.666H292.629V292.045H288.28V290.985L291.338 285.137H292.556L289.498 290.985H292.629V288.573H293.762V290.985H294.798ZM301.317 292.618C300.741 293.422 299.932 293.824 298.893 293.824C297.853 293.824 297.045 293.422 296.468 292.618C295.891 291.814 295.603 290.741 295.603 289.401C295.603 288.061 295.891 286.989 296.468 286.185C297.045 285.381 297.853 284.979 298.893 284.979C299.932 284.979 300.741 285.381 301.317 286.185C301.894 286.989 302.182 288.061 302.182 289.401C302.182 290.741 301.894 291.814 301.317 292.618ZM297.297 291.85C297.67 292.427 298.202 292.715 298.893 292.715C299.583 292.715 300.115 292.427 300.489 291.85C300.871 291.274 301.061 290.457 301.061 289.401C301.061 288.345 300.871 287.529 300.489 286.952C300.115 286.368 299.583 286.075 298.893 286.075C298.202 286.075 297.67 286.363 297.297 286.94C296.923 287.517 296.736 288.337 296.736 289.401C296.736 290.457 296.923 291.274 297.297 291.85ZM308.992 292.618C308.415 293.422 307.607 293.824 306.567 293.824C305.527 293.824 304.719 293.422 304.142 292.618C303.566 291.814 303.277 290.741 303.277 289.401C303.277 288.061 303.566 286.989 304.142 286.185C304.719 285.381 305.527 284.979 306.567 284.979C307.607 284.979 308.415 285.381 308.992 286.185C309.568 286.989 309.857 288.061 309.857 289.401C309.857 290.741 309.568 291.814 308.992 292.618ZM304.971 291.85C305.345 292.427 305.877 292.715 306.567 292.715C307.257 292.715 307.789 292.427 308.163 291.85C308.545 291.274 308.736 290.457 308.736 289.401C308.736 288.345 308.545 287.529 308.163 286.952C307.789 286.368 307.257 286.075 306.567 286.075C305.877 286.075 305.345 286.363 304.971 286.94C304.597 287.517 304.411 288.337 304.411 289.401C304.411 290.457 304.597 291.274 304.971 291.85ZM316.666 292.618C316.089 293.422 315.281 293.824 314.241 293.824C313.202 293.824 312.393 293.422 311.817 292.618C311.24 291.814 310.952 290.741 310.952 289.401C310.952 288.061 311.24 286.989 311.817 286.185C312.393 285.381 313.202 284.979 314.241 284.979C315.281 284.979 316.089 285.381 316.666 286.185C317.243 286.989 317.531 288.061 317.531 289.401C317.531 290.741 317.243 291.814 316.666 292.618ZM312.645 291.85C313.019 292.427 313.551 292.715 314.241 292.715C314.932 292.715 315.464 292.427 315.837 291.85C316.219 291.274 316.41 290.457 316.41 289.401C316.41 288.345 316.219 287.529 315.837 286.952C315.464 286.368 314.932 286.075 314.241 286.075C313.551 286.075 313.019 286.363 312.645 286.94C312.272 287.517 312.085 288.337 312.085 289.401C312.085 290.457 312.272 291.274 312.645 291.85Z" fill="#F4F6FA"/>
<path d="M105.283 42.3263H116.469V44.1644H105.283L110.212 49.094L108.913 50.3935L101.765 43.2454L108.913 36.0972L110.212 37.3967L105.283 42.3263Z" fill="#606060"/>
</g>
<defs>
<linearGradient id="paint0_linear_3835_1163" x1="256" y1="4.08993" x2="256" y2="389.362" gradientUnits="userSpaceOnUse">
<stop offset="0.508831" stop-color="#DEDEDE"/>
<stop offset="1" stop-color="#DEDEDE" stop-opacity="0.06"/>
</linearGradient>
<linearGradient id="paint1_linear_3835_1163" x1="256.001" y1="7.78723" x2="256.001" y2="367.298" gradientUnits="userSpaceOnUse">
<stop offset="0.823604" stop-color="#F9FBFF"/>
<stop offset="1" stop-color="#FCFDFF" stop-opacity="0"/>
</linearGradient>
<linearGradient id="paint2_linear_3835_1163" x1="245.781" y1="229.723" x2="246.267" y2="261.359" gradientUnits="userSpaceOnUse">
<stop stop-color="#606060"/>
<stop offset="1" stop-color="#606060" stop-opacity="0"/>
</linearGradient>
<clipPath id="clip0_3835_1163">
<path d="M83.3838 38.9362C83.3838 24.2524 83.3838 16.9105 87.9454 12.3489C92.5071 7.78723 99.849 7.78723 114.533 7.78723H397.469C412.153 7.78723 419.495 7.78723 424.056 12.3489C428.618 16.9105 428.618 24.2524 428.618 38.9362V367.298H83.3838V38.9362Z" fill="white"/>
</clipPath>
</defs>
</svg>
