<svg width="512" height="400" viewBox="0 0 512 400" fill="none" xmlns="http://www.w3.org/2000/svg">
<path d="M68 26.4539C68 11.8438 79.8438 0 94.4539 0H417.546C432.156 0 444 11.8438 444 26.4539V400H68V26.4539Z" fill="url(#paint0_linear_3812_81)"/>
<g clip-path="url(#clip0_3812_81)">
<path d="M78.6665 39.7447C78.6665 24.7801 78.6665 17.2978 83.3154 12.6489C87.9643 8 95.4466 8 110.411 8H401.589C416.553 8 424.035 8 428.684 12.6489C433.333 17.2978 433.333 24.7801 433.333 39.7447V377.333H78.6665V39.7447Z" fill="url(#paint1_linear_3812_81)"/>
<rect x="78.6665" y="-15.8085" width="353.16" height="88.6206" fill="white"/>
<path d="M149.551 39.2162V49.7065H148.173V41.5091L144.741 47.2188H144.561L141.129 41.524V49.7065H139.735V39.2162H141.309L144.651 44.7611L147.978 39.2162H149.551ZM156.83 42.2134H158.134V49.7065H156.83V48.6275C156.3 49.4767 155.491 49.9013 154.402 49.9013C153.523 49.9013 152.819 49.6266 152.289 49.0771C151.76 48.5176 151.495 47.7633 151.495 46.8142V42.2134H152.799V46.7392C152.799 47.3487 152.963 47.8232 153.293 48.1629C153.623 48.4926 154.077 48.6575 154.657 48.6575C155.306 48.6575 155.831 48.4577 156.23 48.058C156.63 47.6484 156.83 47.024 156.83 46.1848V42.2134ZM161.422 43.4723C161.852 42.5431 162.631 42.0785 163.76 42.0785V43.4423C163.121 43.4123 162.571 43.5822 162.112 43.9518C161.652 44.3215 161.422 44.9159 161.422 45.7352V49.7065H160.119V42.2134H161.422V43.4723ZM170.206 42.2134H171.51V49.7065H170.206V48.6275C169.677 49.4767 168.867 49.9013 167.778 49.9013C166.899 49.9013 166.195 49.6266 165.665 49.0771C165.136 48.5176 164.871 47.7633 164.871 46.8142V42.2134H166.175V46.7392C166.175 47.3487 166.34 47.8232 166.669 48.1629C166.999 48.4926 167.454 48.6575 168.033 48.6575C168.683 48.6575 169.207 48.4577 169.607 48.058C170.006 47.6484 170.206 47.024 170.206 46.1848V42.2134ZM179.714 42.2134H181.003V49.3918C181.003 50.5008 180.628 51.36 179.879 51.9694C179.13 52.5889 178.231 52.8986 177.182 52.8986C176.342 52.8986 175.618 52.7387 175.009 52.419C174.399 52.1093 173.94 51.6597 173.63 51.0703L174.769 50.4259C175.178 51.2651 175.993 51.6847 177.212 51.6847C177.991 51.6847 178.6 51.4799 179.04 51.0703C179.489 50.6606 179.714 50.1011 179.714 49.3918V48.3278C179.055 49.3269 178.116 49.8264 176.897 49.8264C175.828 49.8264 174.924 49.4468 174.184 48.6875C173.445 47.9281 173.075 47.004 173.075 45.915C173.075 44.826 173.445 43.9069 174.184 43.1575C174.924 42.3982 175.828 42.0186 176.897 42.0186C178.126 42.0186 179.065 42.5131 179.714 43.5022V42.2134ZM175.143 47.8183C175.653 48.3278 176.287 48.5825 177.047 48.5825C177.806 48.5825 178.44 48.3278 178.95 47.8183C179.459 47.3087 179.714 46.6743 179.714 45.915C179.714 45.1657 179.459 44.5363 178.95 44.0267C178.44 43.5172 177.806 43.2624 177.047 43.2624C176.287 43.2624 175.653 43.5172 175.143 44.0267C174.634 44.5363 174.379 45.1657 174.379 45.915C174.379 46.6743 174.634 47.3087 175.143 47.8183ZM189.183 42.2134H190.487V49.7065H189.183V48.4177C188.533 49.4068 187.589 49.9013 186.35 49.9013C185.301 49.9013 184.407 49.5217 183.668 48.7624C182.928 47.9931 182.559 47.059 182.559 45.96C182.559 44.861 182.928 43.9318 183.668 43.1725C184.407 42.4032 185.301 42.0186 186.35 42.0186C187.589 42.0186 188.533 42.5131 189.183 43.5022V42.2134ZM186.515 48.6425C187.274 48.6425 187.909 48.3877 188.418 47.8782C188.928 47.3587 189.183 46.7193 189.183 45.96C189.183 45.2007 188.928 44.5662 188.418 44.0567C187.909 43.5372 187.274 43.2774 186.515 43.2774C185.766 43.2774 185.136 43.5372 184.627 44.0567C184.117 44.5662 183.863 45.2007 183.863 45.96C183.863 46.7193 184.117 47.3587 184.627 47.8782C185.136 48.3877 185.766 48.6425 186.515 48.6425ZM196.193 42.0186C197.073 42.0186 197.777 42.2983 198.307 42.8578C198.836 43.4073 199.101 44.1566 199.101 45.1057V49.7065H197.797V45.1807C197.797 44.5712 197.632 44.1017 197.302 43.772C196.973 43.4323 196.518 43.2624 195.939 43.2624C195.289 43.2624 194.765 43.4673 194.365 43.8769C193.966 44.2765 193.766 44.8959 193.766 45.7352V49.7065H192.462V42.2134H193.766V43.2924C194.295 42.4432 195.104 42.0186 196.193 42.0186ZM208.189 49.9013C207.21 49.9013 206.371 49.6715 205.672 49.212C204.982 48.7524 204.498 48.123 204.218 47.3237L205.417 46.6343C205.826 47.9032 206.761 48.5376 208.219 48.5376C208.939 48.5376 209.488 48.3927 209.868 48.103C210.247 47.8033 210.437 47.4086 210.437 46.9191C210.437 46.4195 210.247 46.0449 209.868 45.7951C209.488 45.5453 208.854 45.2806 207.964 45.0008C207.525 44.861 207.19 44.7511 206.96 44.6711C206.731 44.5812 206.441 44.4514 206.091 44.2815C205.751 44.1017 205.497 43.9218 205.327 43.742C205.157 43.5522 205.002 43.3074 204.862 43.0077C204.732 42.708 204.667 42.3683 204.667 41.9886C204.667 41.0795 204.987 40.3601 205.627 39.8306C206.266 39.2911 207.045 39.0214 207.964 39.0214C208.794 39.0214 209.513 39.2312 210.122 39.6508C210.742 40.0704 211.206 40.6249 211.516 41.3142L210.347 41.9886C209.898 40.9096 209.103 40.3701 207.964 40.3701C207.395 40.3701 206.935 40.51 206.586 40.7897C206.236 41.0695 206.061 41.4491 206.061 41.9287C206.061 42.3883 206.226 42.7379 206.556 42.9777C206.885 43.2175 207.455 43.4673 208.264 43.727C208.554 43.8169 208.759 43.8819 208.879 43.9218C208.998 43.9618 209.183 44.0317 209.433 44.1316C209.693 44.2316 209.883 44.3115 210.003 44.3714C210.122 44.4314 210.282 44.5163 210.482 44.6262C210.692 44.7361 210.847 44.841 210.947 44.9409C211.047 45.0408 211.161 45.1657 211.291 45.3156C211.431 45.4554 211.531 45.6003 211.591 45.7502C211.651 45.9 211.701 46.0749 211.741 46.2747C211.791 46.4645 211.816 46.6693 211.816 46.8891C211.816 47.8083 211.481 48.5426 210.812 49.0921C210.142 49.6316 209.268 49.9013 208.189 49.9013ZM217.188 43.4723H215.195V47.5335C215.195 47.9032 215.265 48.1679 215.405 48.3278C215.555 48.4776 215.779 48.5576 216.079 48.5676C216.379 48.5676 216.748 48.5576 217.188 48.5376V49.7065C216.049 49.8564 215.215 49.7665 214.685 49.4368C214.156 49.0971 213.891 48.4627 213.891 47.5335V43.4723H212.407V42.2134H213.891V40.505L215.195 40.1153V42.2134H217.188V43.4723ZM224.675 48.7624C223.906 49.5217 222.972 49.9013 221.873 49.9013C220.774 49.9013 219.84 49.5217 219.07 48.7624C218.311 48.0031 217.932 47.0689 217.932 45.96C217.932 44.851 218.311 43.9168 219.07 43.1575C219.84 42.3982 220.774 42.0186 221.873 42.0186C222.972 42.0186 223.906 42.3982 224.675 43.1575C225.445 43.9168 225.829 44.851 225.829 45.96C225.829 47.0689 225.445 48.0031 224.675 48.7624ZM221.873 48.6275C222.622 48.6275 223.252 48.3727 223.761 47.8632C224.271 47.3537 224.525 46.7193 224.525 45.96C224.525 45.2007 224.271 44.5662 223.761 44.0567C223.252 43.5472 222.622 43.2924 221.873 43.2924C221.134 43.2924 220.509 43.5472 220 44.0567C219.49 44.5662 219.235 45.2007 219.235 45.96C219.235 46.7193 219.49 47.3537 220 47.8632C220.509 48.3727 221.134 48.6275 221.873 48.6275ZM228.67 43.4723C229.1 42.5431 229.879 42.0785 231.008 42.0785V43.4423C230.369 43.4123 229.819 43.5822 229.359 43.9518C228.9 44.3215 228.67 44.9159 228.67 45.7352V49.7065H227.366V42.2134H228.67V43.4723ZM232.788 46.5594C232.918 47.2288 233.223 47.7483 233.702 48.118C234.192 48.4876 234.791 48.6725 235.501 48.6725C236.49 48.6725 237.209 48.3078 237.659 47.5785L238.767 48.2079C238.038 49.3369 236.939 49.9013 235.471 49.9013C234.282 49.9013 233.313 49.5317 232.563 48.7924C231.824 48.043 231.454 47.0989 231.454 45.96C231.454 44.831 231.819 43.8919 232.548 43.1426C233.278 42.3932 234.222 42.0186 235.381 42.0186C236.48 42.0186 237.374 42.4082 238.063 43.1875C238.763 43.9568 239.112 44.886 239.112 45.9749C239.112 46.1648 239.097 46.3596 239.067 46.5594H232.788ZM235.381 43.2475C234.681 43.2475 234.102 43.4473 233.642 43.8469C233.183 44.2365 232.898 44.7611 232.788 45.4205H237.793C237.683 44.7111 237.404 44.1716 236.954 43.8019C236.505 43.4323 235.98 43.2475 235.381 43.2475ZM241.442 44.2365C241.442 44.5263 241.587 44.7611 241.877 44.9409C242.167 45.1107 242.516 45.2506 242.926 45.3605C243.335 45.4604 243.745 45.5803 244.155 45.7202C244.564 45.8501 244.914 46.0799 245.204 46.4095C245.493 46.7293 245.638 47.1439 245.638 47.6534C245.638 48.3328 245.374 48.8773 244.844 49.2869C244.325 49.6965 243.655 49.9013 242.836 49.9013C242.107 49.9013 241.482 49.7415 240.963 49.4218C240.443 49.1021 240.073 48.6775 239.854 48.1479L240.978 47.5035C241.098 47.8632 241.322 48.1479 241.652 48.3578C241.982 48.5676 242.376 48.6725 242.836 48.6725C243.266 48.6725 243.62 48.5925 243.9 48.4327C244.18 48.2628 244.32 48.0031 244.32 47.6534C244.32 47.3637 244.175 47.1339 243.885 46.964C243.595 46.7842 243.246 46.6443 242.836 46.5444C242.426 46.4345 242.017 46.3096 241.607 46.1698C241.197 46.0299 240.848 45.8001 240.558 45.4804C240.268 45.1607 240.123 44.7511 240.123 44.2515C240.123 43.6021 240.373 43.0676 240.873 42.648C241.382 42.2284 242.017 42.0186 242.776 42.0186C243.385 42.0186 243.925 42.1585 244.394 42.4382C244.874 42.708 245.234 43.0876 245.473 43.5772L244.379 44.1916C244.11 43.5522 243.575 43.2325 242.776 43.2325C242.406 43.2325 242.092 43.3224 241.832 43.5022C241.572 43.6721 241.442 43.9168 241.442 44.2365Z" fill="#303030"/>
<path d="M97.1842 219.583C96.658 222.74 93.6864 225.704 91.9375 226.404C98.6533 226.404 102.956 224.13 104.005 222.731L109.252 224.305L108.727 208.565H97.7089V210.663V212.762V213.287C97.7089 214.336 97.7089 216.435 97.1842 219.583Z" fill="#E9E9EB"/>
<rect x="97.1841" y="149.802" width="314.801" height="76.6017" rx="20.9868" fill="#E9E9EB"/>
<g opacity="0.9">
<path d="M119.432 165.561V174.82H118.215V167.585L115.186 172.624H115.027L111.998 167.598V174.82H110.768V165.561H112.157L115.107 170.455L118.043 165.561H119.432ZM125.856 168.206H127.007V174.82H125.856V173.868C125.389 174.617 124.675 174.992 123.713 174.992C122.937 174.992 122.316 174.749 121.848 174.264C121.381 173.771 121.147 173.105 121.147 172.267V168.206H122.298V172.201C122.298 172.739 122.444 173.158 122.735 173.458C123.026 173.749 123.427 173.894 123.938 173.894C124.511 173.894 124.974 173.718 125.327 173.365C125.68 173.003 125.856 172.452 125.856 171.712V168.206ZM129.91 169.318C130.289 168.497 130.977 168.087 131.973 168.087V169.291C131.409 169.265 130.924 169.415 130.518 169.741C130.112 170.067 129.91 170.592 129.91 171.315V174.82H128.759V168.206H129.91V169.318ZM137.662 168.206H138.813V174.82H137.662V173.868C137.195 174.617 136.481 174.992 135.52 174.992C134.744 174.992 134.122 174.749 133.655 174.264C133.187 173.771 132.953 173.105 132.953 172.267V168.206H134.104V172.201C134.104 172.739 134.25 173.158 134.541 173.458C134.832 173.749 135.233 173.894 135.744 173.894C136.318 173.894 136.78 173.718 137.133 173.365C137.486 173.003 137.662 172.452 137.662 171.712V168.206ZM146.054 168.206H147.192V174.542C147.192 175.521 146.861 176.279 146.2 176.817C145.538 177.364 144.745 177.637 143.819 177.637C143.078 177.637 142.439 177.496 141.901 177.214C141.363 176.941 140.957 176.544 140.684 176.024L141.689 175.455C142.051 176.196 142.769 176.566 143.845 176.566C144.533 176.566 145.071 176.385 145.459 176.024C145.856 175.662 146.054 175.168 146.054 174.542V173.603C145.472 174.485 144.643 174.926 143.568 174.926C142.624 174.926 141.826 174.591 141.173 173.921C140.521 173.25 140.195 172.435 140.195 171.474C140.195 170.512 140.521 169.701 141.173 169.04C141.826 168.37 142.624 168.035 143.568 168.035C144.652 168.035 145.481 168.471 146.054 169.344V168.206ZM142.02 173.153C142.47 173.603 143.03 173.828 143.7 173.828C144.37 173.828 144.93 173.603 145.38 173.153C145.829 172.704 146.054 172.144 146.054 171.474C146.054 170.812 145.829 170.257 145.38 169.807C144.93 169.357 144.37 169.132 143.7 169.132C143.03 169.132 142.47 169.357 142.02 169.807C141.57 170.257 141.345 170.812 141.345 171.474C141.345 172.144 141.57 172.704 142.02 173.153ZM154.411 168.206H155.562V174.82H154.411V173.682C153.838 174.555 153.005 174.992 151.911 174.992C150.985 174.992 150.196 174.657 149.544 173.987C148.891 173.308 148.565 172.483 148.565 171.513C148.565 170.543 148.891 169.723 149.544 169.053C150.196 168.374 150.985 168.035 151.911 168.035C153.005 168.035 153.838 168.471 154.411 169.344V168.206ZM152.057 173.881C152.727 173.881 153.287 173.656 153.737 173.206C154.186 172.748 154.411 172.183 154.411 171.513C154.411 170.843 154.186 170.283 153.737 169.833C153.287 169.375 152.727 169.146 152.057 169.146C151.395 169.146 150.84 169.375 150.39 169.833C149.94 170.283 149.716 170.843 149.716 171.513C149.716 172.183 149.94 172.748 150.39 173.206C150.84 173.656 151.395 173.881 152.057 173.881ZM160.599 168.035C161.375 168.035 161.997 168.281 162.464 168.775C162.931 169.26 163.165 169.922 163.165 170.759V174.82H162.014V170.825C162.014 170.288 161.869 169.873 161.578 169.582C161.287 169.282 160.885 169.132 160.374 169.132C159.801 169.132 159.338 169.313 158.985 169.675C158.632 170.027 158.456 170.574 158.456 171.315V174.82H157.305V168.206H158.456V169.159C158.923 168.409 159.638 168.035 160.599 168.035ZM171.186 174.992C170.322 174.992 169.582 174.789 168.964 174.383C168.356 173.978 167.928 173.422 167.681 172.717L168.739 172.108C169.101 173.228 169.925 173.788 171.213 173.788C171.848 173.788 172.333 173.66 172.668 173.405C173.003 173.14 173.17 172.792 173.17 172.36C173.17 171.919 173.003 171.588 172.668 171.368C172.333 171.147 171.773 170.914 170.988 170.667C170.6 170.543 170.305 170.446 170.102 170.376C169.899 170.296 169.643 170.182 169.335 170.032C169.035 169.873 168.81 169.714 168.66 169.556C168.51 169.388 168.373 169.172 168.25 168.907C168.135 168.643 168.078 168.343 168.078 168.008C168.078 167.206 168.36 166.571 168.925 166.103C169.489 165.627 170.177 165.389 170.988 165.389C171.72 165.389 172.355 165.574 172.893 165.945C173.439 166.315 173.849 166.804 174.123 167.413L173.091 168.008C172.694 167.056 171.993 166.58 170.988 166.58C170.485 166.58 170.08 166.703 169.771 166.95C169.462 167.197 169.308 167.532 169.308 167.955C169.308 168.361 169.454 168.669 169.745 168.881C170.036 169.093 170.538 169.313 171.253 169.542C171.508 169.622 171.689 169.679 171.795 169.714C171.901 169.75 172.064 169.811 172.284 169.9C172.514 169.988 172.681 170.058 172.787 170.111C172.893 170.164 173.034 170.239 173.21 170.336C173.395 170.433 173.532 170.526 173.62 170.614C173.708 170.702 173.81 170.812 173.924 170.944C174.048 171.068 174.136 171.196 174.189 171.328C174.242 171.46 174.286 171.615 174.321 171.791C174.365 171.959 174.387 172.139 174.387 172.333C174.387 173.145 174.092 173.793 173.501 174.278C172.91 174.754 172.139 174.992 171.186 174.992ZM179.129 169.318H177.37V172.902C177.37 173.228 177.431 173.462 177.555 173.603C177.687 173.735 177.886 173.806 178.15 173.815C178.415 173.815 178.741 173.806 179.129 173.788V174.82C178.124 174.952 177.387 174.873 176.92 174.582C176.453 174.282 176.219 173.722 176.219 172.902V169.318H174.909V168.206H176.219V166.699L177.37 166.355V168.206H179.129V169.318ZM185.737 173.987C185.058 174.657 184.234 174.992 183.264 174.992C182.294 174.992 181.469 174.657 180.79 173.987C180.12 173.316 179.785 172.492 179.785 171.513C179.785 170.534 180.12 169.71 180.79 169.04C181.469 168.37 182.294 168.035 183.264 168.035C184.234 168.035 185.058 168.37 185.737 169.04C186.416 169.71 186.756 170.534 186.756 171.513C186.756 172.492 186.416 173.316 185.737 173.987ZM183.264 173.868C183.925 173.868 184.481 173.643 184.93 173.193C185.38 172.743 185.605 172.183 185.605 171.513C185.605 170.843 185.38 170.283 184.93 169.833C184.481 169.384 183.925 169.159 183.264 169.159C182.611 169.159 182.06 169.384 181.61 169.833C181.161 170.283 180.936 170.843 180.936 171.513C180.936 172.183 181.161 172.743 181.61 173.193C182.06 173.643 182.611 173.868 183.264 173.868ZM189.263 169.318C189.642 168.497 190.33 168.087 191.326 168.087V169.291C190.762 169.265 190.277 169.415 189.871 169.741C189.466 170.067 189.263 170.592 189.263 171.315V174.82H188.112V168.206H189.263V169.318ZM192.898 172.042C193.012 172.633 193.281 173.092 193.704 173.418C194.136 173.744 194.666 173.907 195.292 173.907C196.165 173.907 196.799 173.585 197.196 172.942L198.175 173.497C197.531 174.494 196.561 174.992 195.265 174.992C194.216 174.992 193.36 174.666 192.699 174.013C192.047 173.352 191.72 172.518 191.72 171.513C191.72 170.517 192.042 169.688 192.686 169.027C193.33 168.365 194.163 168.035 195.186 168.035C196.156 168.035 196.945 168.378 197.553 169.066C198.171 169.745 198.479 170.565 198.479 171.526C198.479 171.694 198.466 171.866 198.44 172.042H192.898ZM195.186 169.119C194.569 169.119 194.057 169.295 193.651 169.648C193.246 169.992 192.995 170.455 192.898 171.037H197.315C197.218 170.411 196.971 169.935 196.575 169.609C196.178 169.282 195.715 169.119 195.186 169.119ZM200.536 169.992C200.536 170.248 200.664 170.455 200.919 170.614C201.175 170.764 201.484 170.887 201.845 170.984C202.207 171.072 202.568 171.178 202.93 171.302C203.291 171.416 203.6 171.619 203.856 171.91C204.111 172.192 204.239 172.558 204.239 173.008C204.239 173.607 204.006 174.088 203.538 174.45C203.08 174.811 202.489 174.992 201.766 174.992C201.122 174.992 200.571 174.851 200.113 174.569C199.654 174.286 199.328 173.912 199.134 173.444L200.126 172.876C200.232 173.193 200.43 173.444 200.721 173.63C201.012 173.815 201.36 173.907 201.766 173.907C202.145 173.907 202.458 173.837 202.705 173.696C202.952 173.546 203.075 173.316 203.075 173.008C203.075 172.752 202.947 172.549 202.692 172.399C202.436 172.241 202.127 172.117 201.766 172.029C201.404 171.932 201.043 171.822 200.681 171.698C200.32 171.575 200.011 171.372 199.755 171.09C199.5 170.808 199.372 170.446 199.372 170.005C199.372 169.432 199.592 168.96 200.033 168.59C200.483 168.22 201.043 168.035 201.713 168.035C202.251 168.035 202.727 168.158 203.141 168.405C203.565 168.643 203.882 168.978 204.094 169.41L203.128 169.952C202.89 169.388 202.418 169.106 201.713 169.106C201.387 169.106 201.109 169.185 200.88 169.344C200.65 169.494 200.536 169.71 200.536 169.992ZM135.982 193.82L133.905 190.275H131.723V193.82H130.493V184.561H134.196C134.99 184.561 135.669 184.843 136.233 185.408C136.797 185.963 137.08 186.638 137.08 187.431C137.08 188.031 136.899 188.578 136.537 189.071C136.185 189.565 135.726 189.914 135.162 190.116L137.344 193.82H135.982ZM131.723 185.712V189.164H134.196C134.655 189.164 135.043 188.997 135.36 188.661C135.686 188.318 135.849 187.907 135.849 187.431C135.849 186.955 135.686 186.55 135.36 186.214C135.043 185.879 134.655 185.712 134.196 185.712H131.723ZM139.193 188.992C139.193 189.248 139.321 189.455 139.577 189.614C139.833 189.764 140.141 189.887 140.503 189.984C140.864 190.072 141.226 190.178 141.587 190.302C141.949 190.416 142.257 190.619 142.513 190.91C142.769 191.192 142.897 191.558 142.897 192.008C142.897 192.607 142.663 193.088 142.196 193.45C141.737 193.811 141.146 193.992 140.423 193.992C139.78 193.992 139.228 193.851 138.77 193.569C138.311 193.286 137.985 192.912 137.791 192.444L138.783 191.876C138.889 192.193 139.087 192.444 139.378 192.63C139.669 192.815 140.018 192.907 140.423 192.907C140.802 192.907 141.116 192.837 141.362 192.696C141.609 192.546 141.733 192.316 141.733 192.008C141.733 191.752 141.605 191.549 141.349 191.399C141.093 191.241 140.785 191.117 140.423 191.029C140.062 190.932 139.7 190.822 139.339 190.698C138.977 190.575 138.669 190.372 138.413 190.09C138.157 189.808 138.029 189.446 138.029 189.005C138.029 188.432 138.25 187.96 138.691 187.59C139.14 187.22 139.7 187.035 140.37 187.035C140.908 187.035 141.384 187.158 141.799 187.405C142.222 187.643 142.54 187.978 142.751 188.41L141.786 188.952C141.548 188.388 141.076 188.106 140.37 188.106C140.044 188.106 139.766 188.185 139.537 188.344C139.308 188.494 139.193 188.71 139.193 188.992ZM144.845 193.965C144.607 193.965 144.404 193.882 144.236 193.714C144.069 193.547 143.985 193.344 143.985 193.106C143.985 192.868 144.069 192.665 144.236 192.497C144.404 192.33 144.607 192.246 144.845 192.246C145.092 192.246 145.294 192.33 145.453 192.497C145.621 192.665 145.704 192.868 145.704 193.106C145.704 193.344 145.621 193.547 145.453 193.714C145.294 193.882 145.092 193.965 144.845 193.965ZM149.079 184.561H150.138V193.82H148.921V185.884L146.95 186.466L146.646 185.408L149.079 184.561ZM154.733 187.762C155.659 187.762 156.422 188.053 157.021 188.635C157.621 189.208 157.921 189.953 157.921 190.87C157.921 191.787 157.621 192.537 157.021 193.119C156.422 193.701 155.659 193.992 154.733 193.992C153.799 193.992 153.031 193.701 152.432 193.119C151.841 192.537 151.546 191.787 151.546 190.87C151.546 190.156 151.731 189.539 152.101 189.019L155.077 184.561H156.479L154.297 187.788C154.491 187.771 154.636 187.762 154.733 187.762ZM153.305 192.286C153.675 192.638 154.151 192.815 154.733 192.815C155.315 192.815 155.787 192.638 156.149 192.286C156.519 191.924 156.704 191.452 156.704 190.87C156.704 190.288 156.519 189.821 156.149 189.468C155.787 189.116 155.315 188.939 154.733 188.939C154.142 188.939 153.666 189.116 153.305 189.468C152.943 189.821 152.762 190.288 152.762 190.87C152.762 191.452 152.943 191.924 153.305 192.286ZM158.575 193.82V192.815L161.842 189.482C162.715 188.609 163.151 187.859 163.151 187.233C163.151 186.713 162.993 186.307 162.675 186.016C162.358 185.725 161.97 185.58 161.511 185.58C160.638 185.58 160.003 185.994 159.607 186.823L158.575 186.214C158.866 185.615 159.267 185.161 159.778 184.852C160.299 184.543 160.872 184.389 161.498 184.389C162.274 184.389 162.949 184.645 163.522 185.156C164.095 185.668 164.381 186.356 164.381 187.22C164.381 188.154 163.83 189.173 162.728 190.275L160.36 192.63H164.553V193.82H158.575ZM171.743 192.682C171.117 193.555 170.24 193.992 169.111 193.992C167.982 193.992 167.105 193.555 166.479 192.682C165.853 191.809 165.54 190.645 165.54 189.191C165.54 187.736 165.853 186.572 166.479 185.699C167.105 184.826 167.982 184.389 169.111 184.389C170.24 184.389 171.117 184.826 171.743 185.699C172.369 186.572 172.682 187.736 172.682 189.191C172.682 190.645 172.369 191.809 171.743 192.682ZM167.378 191.849C167.784 192.475 168.362 192.788 169.111 192.788C169.861 192.788 170.438 192.475 170.844 191.849C171.258 191.223 171.466 190.337 171.466 189.191C171.466 188.044 171.258 187.158 170.844 186.532C170.438 185.897 169.861 185.58 169.111 185.58C168.362 185.58 167.784 185.893 167.378 186.519C166.973 187.145 166.77 188.035 166.77 189.191C166.77 190.337 166.973 191.223 167.378 191.849Z" fill="black"/>
<path d="M212.057 168.048C212.859 168.048 213.489 168.295 213.948 168.788C214.415 169.273 214.649 169.93 214.649 170.759V174.82H213.776V170.759C213.776 170.168 213.617 169.71 213.3 169.384C212.991 169.057 212.55 168.894 211.977 168.894C211.342 168.894 210.826 169.097 210.43 169.503C210.033 169.9 209.834 170.517 209.834 171.354V174.82H208.961V165.561H209.834V169.238C210.328 168.445 211.069 168.048 212.057 168.048ZM222.025 168.206H222.898V174.82H222.025V173.524C221.416 174.494 220.526 174.979 219.353 174.979C218.409 174.979 217.602 174.644 216.932 173.973C216.271 173.303 215.94 172.483 215.94 171.513C215.94 170.543 216.271 169.723 216.932 169.053C217.602 168.383 218.409 168.048 219.353 168.048C220.526 168.048 221.416 168.533 222.025 169.503V168.206ZM217.567 173.378C218.07 173.881 218.687 174.132 219.419 174.132C220.151 174.132 220.768 173.881 221.271 173.378C221.773 172.867 222.025 172.245 222.025 171.513C222.025 170.781 221.773 170.164 221.271 169.661C220.768 169.15 220.151 168.894 219.419 168.894C218.687 168.894 218.07 169.15 217.567 169.661C217.064 170.164 216.813 170.781 216.813 171.513C216.813 172.245 217.064 172.867 217.567 173.378ZM225.434 169.939C225.434 170.239 225.566 170.477 225.831 170.653C226.095 170.83 226.417 170.966 226.796 171.063C227.175 171.16 227.554 171.271 227.934 171.394C228.313 171.509 228.635 171.707 228.899 171.989C229.164 172.263 229.296 172.624 229.296 173.074C229.296 173.638 229.071 174.097 228.621 174.45C228.181 174.802 227.607 174.979 226.902 174.979C226.267 174.979 225.725 174.838 225.275 174.555C224.834 174.273 224.525 173.907 224.349 173.458L225.09 173.021C225.213 173.365 225.434 173.638 225.751 173.841C226.077 174.035 226.461 174.132 226.902 174.132C227.334 174.132 227.696 174.048 227.987 173.881C228.278 173.704 228.423 173.436 228.423 173.074C228.423 172.774 228.291 172.536 228.026 172.36C227.762 172.183 227.44 172.047 227.061 171.95C226.681 171.853 226.302 171.747 225.923 171.632C225.544 171.509 225.222 171.31 224.958 171.037C224.693 170.755 224.561 170.389 224.561 169.939C224.561 169.401 224.772 168.952 225.196 168.59C225.628 168.229 226.17 168.048 226.823 168.048C227.36 168.048 227.832 168.171 228.238 168.418C228.643 168.656 228.943 168.982 229.137 169.397L228.41 169.82C228.154 169.203 227.625 168.894 226.823 168.894C226.443 168.894 226.117 168.987 225.844 169.172C225.57 169.348 225.434 169.604 225.434 169.939ZM234.747 169.939C234.747 170.239 234.879 170.477 235.144 170.653C235.408 170.83 235.73 170.966 236.109 171.063C236.488 171.16 236.868 171.271 237.247 171.394C237.626 171.509 237.948 171.707 238.212 171.989C238.477 172.263 238.609 172.624 238.609 173.074C238.609 173.638 238.384 174.097 237.935 174.45C237.494 174.802 236.92 174.979 236.215 174.979C235.58 174.979 235.038 174.838 234.588 174.555C234.147 174.273 233.839 173.907 233.662 173.458L234.403 173.021C234.526 173.365 234.747 173.638 235.064 173.841C235.391 174.035 235.774 174.132 236.215 174.132C236.647 174.132 237.009 174.048 237.3 173.881C237.591 173.704 237.736 173.436 237.736 173.074C237.736 172.774 237.604 172.536 237.339 172.36C237.075 172.183 236.753 172.047 236.374 171.95C235.995 171.853 235.615 171.747 235.236 171.632C234.857 171.509 234.535 171.31 234.271 171.037C234.006 170.755 233.874 170.389 233.874 169.939C233.874 169.401 234.086 168.952 234.509 168.59C234.941 168.229 235.483 168.048 236.136 168.048C236.674 168.048 237.145 168.171 237.551 168.418C237.957 168.656 238.256 168.982 238.45 169.397L237.723 169.82C237.467 169.203 236.938 168.894 236.136 168.894C235.757 168.894 235.43 168.987 235.157 169.172C234.884 169.348 234.747 169.604 234.747 169.939ZM242.927 168.048C243.906 168.048 244.695 168.396 245.295 169.093C245.903 169.78 246.207 170.596 246.207 171.54C246.207 171.637 246.199 171.773 246.181 171.95H240.374C240.462 172.62 240.745 173.153 241.221 173.55C241.706 173.938 242.301 174.132 243.006 174.132C243.509 174.132 243.941 174.031 244.303 173.828C244.673 173.616 244.951 173.343 245.136 173.008L245.903 173.458C245.612 173.925 245.215 174.295 244.713 174.569C244.21 174.842 243.637 174.979 242.993 174.979C241.953 174.979 241.106 174.652 240.454 174C239.801 173.347 239.475 172.518 239.475 171.513C239.475 170.526 239.797 169.701 240.44 169.04C241.084 168.378 241.913 168.048 242.927 168.048ZM242.927 168.894C242.239 168.894 241.662 169.101 241.194 169.516C240.736 169.922 240.462 170.451 240.374 171.103H245.308C245.22 170.407 244.951 169.864 244.501 169.476C244.051 169.088 243.527 168.894 242.927 168.894ZM250.691 168.048C251.494 168.048 252.124 168.295 252.583 168.788C253.05 169.273 253.284 169.93 253.284 170.759V174.82H252.411V170.759C252.411 170.168 252.252 169.71 251.934 169.384C251.626 169.057 251.185 168.894 250.612 168.894C249.977 168.894 249.461 169.097 249.064 169.503C248.667 169.9 248.469 170.517 248.469 171.354V174.82H247.596V168.206H248.469V169.238C248.963 168.445 249.704 168.048 250.691 168.048ZM258.477 169.053H256.572V173.061C256.572 173.422 256.643 173.682 256.784 173.841C256.925 173.991 257.136 174.07 257.419 174.079C257.701 174.079 258.053 174.07 258.477 174.053V174.82C257.551 174.961 256.854 174.895 256.387 174.622C255.928 174.348 255.699 173.828 255.699 173.061V169.053H254.31V168.206H255.699V166.619L256.572 166.355V168.206H258.477V169.053ZM268 168.206H268.926L266.095 175.428C265.84 176.081 265.474 176.592 264.998 176.963C264.53 177.342 264.006 177.509 263.424 177.465V176.645C264.217 176.733 264.821 176.275 265.236 175.27L265.408 174.86L262.445 168.206H263.371L265.857 173.749L268 168.206ZM275.265 173.987C274.595 174.648 273.775 174.979 272.805 174.979C271.835 174.979 271.01 174.648 270.331 173.987C269.661 173.316 269.326 172.492 269.326 171.513C269.326 170.534 269.661 169.714 270.331 169.053C271.01 168.383 271.835 168.048 272.805 168.048C273.775 168.048 274.595 168.383 275.265 169.053C275.944 169.714 276.283 170.534 276.283 171.513C276.283 172.492 275.944 173.316 275.265 173.987ZM270.953 173.378C271.455 173.881 272.073 174.132 272.805 174.132C273.537 174.132 274.154 173.881 274.656 173.378C275.159 172.867 275.41 172.245 275.41 171.513C275.41 170.781 275.159 170.164 274.656 169.661C274.154 169.15 273.537 168.894 272.805 168.894C272.073 168.894 271.455 169.15 270.953 169.661C270.45 170.164 270.199 170.781 270.199 171.513C270.199 172.245 270.45 172.867 270.953 173.378ZM282.4 168.206H283.273V174.82H282.4V173.788C281.906 174.582 281.166 174.979 280.178 174.979C279.375 174.979 278.741 174.736 278.273 174.251C277.815 173.757 277.585 173.096 277.585 172.267V168.206H278.458V172.267C278.458 172.858 278.613 173.316 278.921 173.643C279.239 173.969 279.684 174.132 280.257 174.132C280.892 174.132 281.408 173.934 281.805 173.537C282.202 173.131 282.4 172.51 282.4 171.672V168.206ZM294.114 168.206H294.987V174.82H294.114V173.524C293.506 174.494 292.615 174.979 291.442 174.979C290.499 174.979 289.692 174.644 289.022 173.973C288.36 173.303 288.03 172.483 288.03 171.513C288.03 170.543 288.36 169.723 289.022 169.053C289.692 168.383 290.499 168.048 291.442 168.048C292.615 168.048 293.506 168.533 294.114 169.503V168.206ZM289.657 173.378C290.159 173.881 290.776 174.132 291.508 174.132C292.24 174.132 292.857 173.881 293.36 173.378C293.863 172.867 294.114 172.245 294.114 171.513C294.114 170.781 293.863 170.164 293.36 169.661C292.857 169.15 292.24 168.894 291.508 168.894C290.776 168.894 290.159 169.15 289.657 169.661C289.154 170.164 288.903 170.781 288.903 171.513C288.903 172.245 289.154 172.867 289.657 173.378ZM299.931 168.048C300.733 168.048 301.363 168.295 301.822 168.788C302.289 169.273 302.523 169.93 302.523 170.759V174.82H301.65V170.759C301.65 170.168 301.491 169.71 301.174 169.384C300.865 169.057 300.424 168.894 299.851 168.894C299.216 168.894 298.7 169.097 298.304 169.503C297.907 169.9 297.708 170.517 297.708 171.354V174.82H296.835V168.206H297.708V169.238C298.202 168.445 298.943 168.048 299.931 168.048ZM310.573 168.048C311.552 168.048 312.341 168.396 312.941 169.093C313.549 169.78 313.853 170.596 313.853 171.54C313.853 171.637 313.845 171.773 313.827 171.95H308.02C308.109 172.62 308.391 173.153 308.867 173.55C309.352 173.938 309.947 174.132 310.653 174.132C311.155 174.132 311.587 174.031 311.949 173.828C312.319 173.616 312.597 173.343 312.782 173.008L313.549 173.458C313.258 173.925 312.861 174.295 312.359 174.569C311.856 174.842 311.283 174.979 310.639 174.979C309.599 174.979 308.752 174.652 308.1 174C307.447 173.347 307.121 172.518 307.121 171.513C307.121 170.526 307.443 169.701 308.086 169.04C308.73 168.378 309.559 168.048 310.573 168.048ZM310.573 168.894C309.885 168.894 309.308 169.101 308.84 169.516C308.382 169.922 308.109 170.451 308.02 171.103H312.954C312.866 170.407 312.597 169.864 312.147 169.476C311.697 169.088 311.173 168.894 310.573 168.894ZM315.672 169.939C315.672 170.239 315.804 170.477 316.068 170.653C316.333 170.83 316.655 170.966 317.034 171.063C317.413 171.16 317.792 171.271 318.171 171.394C318.551 171.509 318.872 171.707 319.137 171.989C319.402 172.263 319.534 172.624 319.534 173.074C319.534 173.638 319.309 174.097 318.859 174.45C318.418 174.802 317.845 174.979 317.14 174.979C316.505 174.979 315.962 174.838 315.513 174.555C315.072 174.273 314.763 173.907 314.587 173.458L315.328 173.021C315.451 173.365 315.672 173.638 315.989 173.841C316.315 174.035 316.699 174.132 317.14 174.132C317.572 174.132 317.933 174.048 318.224 173.881C318.515 173.704 318.661 173.436 318.661 173.074C318.661 172.774 318.529 172.536 318.264 172.36C317.999 172.183 317.678 172.047 317.298 171.95C316.919 171.853 316.54 171.747 316.161 171.632C315.782 171.509 315.46 171.31 315.195 171.037C314.931 170.755 314.799 170.389 314.799 169.939C314.799 169.401 315.01 168.952 315.433 168.59C315.865 168.229 316.408 168.048 317.06 168.048C317.598 168.048 318.07 168.171 318.476 168.418C318.881 168.656 319.181 168.982 319.375 169.397L318.648 169.82C318.392 169.203 317.863 168.894 317.06 168.894C316.681 168.894 316.355 168.987 316.082 169.172C315.808 169.348 315.672 169.604 315.672 169.939ZM324.237 169.053H322.332V173.061C322.332 173.422 322.403 173.682 322.544 173.841C322.685 173.991 322.897 174.07 323.179 174.079C323.461 174.079 323.814 174.07 324.237 174.053V174.82C323.311 174.961 322.614 174.895 322.147 174.622C321.688 174.348 321.459 173.828 321.459 173.061V169.053H320.07V168.206H321.459V166.619L322.332 166.355V168.206H324.237V169.053ZM326.578 166.619C326.455 166.743 326.305 166.804 326.128 166.804C325.952 166.804 325.802 166.743 325.679 166.619C325.555 166.496 325.493 166.346 325.493 166.17C325.493 165.993 325.555 165.843 325.679 165.72C325.802 165.596 325.952 165.535 326.128 165.535C326.305 165.535 326.455 165.596 326.578 165.72C326.702 165.843 326.763 165.993 326.763 166.17C326.763 166.346 326.702 166.496 326.578 166.619ZM325.692 174.82V168.206H326.565V174.82H325.692ZM335.467 168.048C336.208 168.048 336.803 168.286 337.253 168.762C337.711 169.238 337.941 169.882 337.941 170.693V174.82H337.068V170.693C337.068 170.12 336.918 169.679 336.618 169.37C336.327 169.053 335.939 168.894 335.454 168.894C334.907 168.894 334.462 169.079 334.118 169.45C333.783 169.811 333.616 170.38 333.616 171.156V174.82H332.743V170.693C332.743 170.111 332.601 169.666 332.319 169.357C332.046 169.049 331.671 168.894 331.195 168.894C330.666 168.894 330.216 169.079 329.846 169.45C329.475 169.82 329.29 170.389 329.29 171.156V174.82H328.417V168.206H329.29V169.172C329.766 168.423 330.441 168.048 331.314 168.048C332.266 168.048 332.937 168.449 333.325 169.251C333.801 168.449 334.515 168.048 335.467 168.048ZM345.317 168.206H346.19V174.82H345.317V173.524C344.708 174.494 343.818 174.979 342.645 174.979C341.701 174.979 340.895 174.644 340.224 173.973C339.563 173.303 339.232 172.483 339.232 171.513C339.232 170.543 339.563 169.723 340.224 169.053C340.895 168.383 341.701 168.048 342.645 168.048C343.818 168.048 344.708 168.533 345.317 169.503V168.206ZM340.859 173.378C341.362 173.881 341.979 174.132 342.711 174.132C343.443 174.132 344.06 173.881 344.563 173.378C345.066 172.867 345.317 172.245 345.317 171.513C345.317 170.781 345.066 170.164 344.563 169.661C344.06 169.15 343.443 168.894 342.711 168.894C341.979 168.894 341.362 169.15 340.859 169.661C340.357 170.164 340.105 170.781 340.105 171.513C340.105 172.245 340.357 172.867 340.859 173.378ZM351.543 169.053H349.639V173.061C349.639 173.422 349.709 173.682 349.85 173.841C349.991 173.991 350.203 174.07 350.485 174.079C350.767 174.079 351.12 174.07 351.543 174.053V174.82C350.617 174.961 349.921 174.895 349.453 174.622C348.995 174.348 348.766 173.828 348.766 173.061V169.053H347.377V168.206H348.766V166.619L349.639 166.355V168.206H351.543V169.053ZM355.653 168.048C356.632 168.048 357.421 168.396 358.021 169.093C358.629 169.78 358.934 170.596 358.934 171.54C358.934 171.637 358.925 171.773 358.907 171.95H353.1C353.189 172.62 353.471 173.153 353.947 173.55C354.432 173.938 355.027 174.132 355.733 174.132C356.235 174.132 356.667 174.031 357.029 173.828C357.399 173.616 357.677 173.343 357.862 173.008L358.629 173.458C358.338 173.925 357.942 174.295 357.439 174.569C356.936 174.842 356.363 174.979 355.719 174.979C354.679 174.979 353.832 174.652 353.18 174C352.527 173.347 352.201 172.518 352.201 171.513C352.201 170.526 352.523 169.701 353.167 169.04C353.81 168.378 354.639 168.048 355.653 168.048ZM355.653 168.894C354.965 168.894 354.388 169.101 353.921 169.516C353.462 169.922 353.189 170.451 353.1 171.103H358.034C357.946 170.407 357.677 169.864 357.227 169.476C356.778 169.088 356.253 168.894 355.653 168.894ZM114.009 185.249C113.365 185.196 112.885 185.306 112.567 185.58C112.259 185.853 112.104 186.307 112.104 186.942V187.206H114.009V188.053H112.104V193.82H111.231V188.053H110.107V187.206H111.231V186.942C111.231 186.078 111.469 185.425 111.946 184.984C112.431 184.535 113.118 184.341 114.009 184.402V185.249ZM120.481 192.987C119.811 193.648 118.991 193.979 118.021 193.979C117.051 193.979 116.226 193.648 115.547 192.987C114.877 192.316 114.542 191.492 114.542 190.513C114.542 189.534 114.877 188.714 115.547 188.053C116.226 187.383 117.051 187.048 118.021 187.048C118.991 187.048 119.811 187.383 120.481 188.053C121.16 188.714 121.5 189.534 121.5 190.513C121.5 191.492 121.16 192.316 120.481 192.987ZM116.169 192.378C116.672 192.881 117.289 193.132 118.021 193.132C118.753 193.132 119.37 192.881 119.873 192.378C120.375 191.867 120.627 191.245 120.627 190.513C120.627 189.781 120.375 189.164 119.873 188.661C119.37 188.15 118.753 187.894 118.021 187.894C117.289 187.894 116.672 188.15 116.169 188.661C115.666 189.164 115.415 189.781 115.415 190.513C115.415 191.245 115.666 191.867 116.169 192.378ZM123.833 188.304C124.239 187.502 124.936 187.101 125.923 187.101V187.947C125.324 187.947 124.825 188.124 124.429 188.476C124.032 188.829 123.833 189.385 123.833 190.143V193.82H122.96V187.206H123.833V188.304ZM175.657 192.696L174.863 195.672H174.07L174.599 192.696H175.657ZM189.284 184.561V193.82H188.358V185.963L185.117 191.386H184.985L181.744 185.963V193.82H180.819V184.561H181.969L185.051 189.72L188.133 184.561H189.284ZM196.953 187.206H197.826V193.82H196.953V192.524C196.344 193.494 195.454 193.979 194.281 193.979C193.337 193.979 192.531 193.644 191.86 192.973C191.199 192.303 190.868 191.483 190.868 190.513C190.868 189.543 191.199 188.723 191.86 188.053C192.531 187.383 193.337 187.048 194.281 187.048C195.454 187.048 196.344 187.533 196.953 188.503V187.206ZM192.495 192.378C192.998 192.881 193.615 193.132 194.347 193.132C195.079 193.132 195.696 192.881 196.199 192.378C196.702 191.867 196.953 191.245 196.953 190.513C196.953 189.781 196.702 189.164 196.199 188.661C195.696 188.15 195.079 187.894 194.347 187.894C193.615 187.894 192.998 188.15 192.495 188.661C191.993 189.164 191.741 189.781 191.741 190.513C191.741 191.245 191.993 191.867 192.495 192.378ZM205.018 193.82H203.854L200.547 190.632V193.82H199.674V184.561H200.547V190.13L203.695 187.206H204.886L201.473 190.381L205.018 193.82ZM208.607 187.048C209.586 187.048 210.375 187.396 210.974 188.093C211.583 188.78 211.887 189.596 211.887 190.54C211.887 190.637 211.878 190.773 211.861 190.95H206.054C206.142 191.62 206.424 192.153 206.901 192.55C207.386 192.938 207.981 193.132 208.686 193.132C209.189 193.132 209.621 193.031 209.982 192.828C210.353 192.616 210.631 192.343 210.816 192.008L211.583 192.458C211.292 192.925 210.895 193.295 210.392 193.569C209.89 193.842 209.317 193.979 208.673 193.979C207.632 193.979 206.786 193.652 206.133 193C205.481 192.347 205.155 191.518 205.155 190.513C205.155 189.526 205.476 188.701 206.12 188.04C206.764 187.378 207.593 187.048 208.607 187.048ZM208.607 187.894C207.919 187.894 207.341 188.101 206.874 188.516C206.416 188.922 206.142 189.451 206.054 190.103H210.988C210.899 189.407 210.631 188.864 210.181 188.476C209.731 188.088 209.206 187.894 208.607 187.894ZM220.127 187.048C221.071 187.048 221.873 187.383 222.535 188.053C223.205 188.723 223.54 189.543 223.54 190.513C223.54 191.483 223.205 192.303 222.535 192.973C221.873 193.644 221.071 193.979 220.127 193.979C218.954 193.979 218.064 193.494 217.455 192.524V196.465H216.582V187.206H217.455V188.503C218.064 187.533 218.954 187.048 220.127 187.048ZM218.209 192.378C218.712 192.881 219.329 193.132 220.061 193.132C220.793 193.132 221.41 192.881 221.913 192.378C222.416 191.867 222.667 191.245 222.667 190.513C222.667 189.781 222.416 189.164 221.913 188.661C221.41 188.15 220.793 187.894 220.061 187.894C219.329 187.894 218.712 188.15 218.209 188.661C217.707 189.164 217.455 189.781 217.455 190.513C217.455 191.245 217.707 191.867 218.209 192.378ZM230.679 187.206H231.552V193.82H230.679V192.524C230.071 193.494 229.18 193.979 228.007 193.979C227.064 193.979 226.257 193.644 225.587 192.973C224.925 192.303 224.595 191.483 224.595 190.513C224.595 189.543 224.925 188.723 225.587 188.053C226.257 187.383 227.064 187.048 228.007 187.048C229.18 187.048 230.071 187.533 230.679 188.503V187.206ZM226.221 192.378C226.724 192.881 227.341 193.132 228.073 193.132C228.805 193.132 229.422 192.881 229.925 192.378C230.428 191.867 230.679 191.245 230.679 190.513C230.679 189.781 230.428 189.164 229.925 188.661C229.422 188.15 228.805 187.894 228.073 187.894C227.341 187.894 226.724 188.15 226.221 188.661C225.719 189.164 225.468 189.781 225.468 190.513C225.468 191.245 225.719 191.867 226.221 192.378ZM238.162 187.206H239.088L236.257 194.428C236.002 195.081 235.636 195.592 235.159 195.963C234.692 196.342 234.167 196.509 233.585 196.465V195.645C234.379 195.733 234.983 195.275 235.398 194.27L235.57 193.86L232.607 187.206H233.533L236.019 192.749L238.162 187.206ZM247.193 187.048C247.934 187.048 248.529 187.286 248.979 187.762C249.437 188.238 249.666 188.882 249.666 189.693V193.82H248.793V189.693C248.793 189.12 248.643 188.679 248.344 188.37C248.053 188.053 247.665 187.894 247.18 187.894C246.633 187.894 246.188 188.079 245.844 188.45C245.509 188.811 245.341 189.38 245.341 190.156V193.82H244.468V189.693C244.468 189.111 244.327 188.666 244.045 188.357C243.772 188.049 243.397 187.894 242.921 187.894C242.392 187.894 241.942 188.079 241.571 188.45C241.201 188.82 241.016 189.389 241.016 190.156V193.82H240.143V187.206H241.016V188.172C241.492 187.423 242.167 187.048 243.04 187.048C243.992 187.048 244.662 187.449 245.05 188.251C245.526 187.449 246.241 187.048 247.193 187.048ZM254.41 187.048C255.389 187.048 256.178 187.396 256.778 188.093C257.386 188.78 257.691 189.596 257.691 190.54C257.691 190.637 257.682 190.773 257.664 190.95H251.857C251.946 191.62 252.228 192.153 252.704 192.55C253.189 192.938 253.784 193.132 254.49 193.132C254.992 193.132 255.424 193.031 255.786 192.828C256.156 192.616 256.434 192.343 256.619 192.008L257.386 192.458C257.095 192.925 256.699 193.295 256.196 193.569C255.693 193.842 255.12 193.979 254.476 193.979C253.436 193.979 252.589 193.652 251.937 193C251.284 192.347 250.958 191.518 250.958 190.513C250.958 189.526 251.28 188.701 251.924 188.04C252.567 187.378 253.396 187.048 254.41 187.048ZM254.41 187.894C253.722 187.894 253.145 188.101 252.678 188.516C252.219 188.922 251.946 189.451 251.857 190.103H256.791C256.703 189.407 256.434 188.864 255.984 188.476C255.535 188.088 255.01 187.894 254.41 187.894ZM262.174 187.048C262.977 187.048 263.607 187.295 264.066 187.788C264.533 188.273 264.767 188.93 264.767 189.759V193.82H263.894V189.759C263.894 189.168 263.735 188.71 263.418 188.384C263.109 188.057 262.668 187.894 262.095 187.894C261.46 187.894 260.944 188.097 260.547 188.503C260.151 188.9 259.952 189.517 259.952 190.354V193.82H259.079V187.206H259.952V188.238C260.446 187.445 261.187 187.048 262.174 187.048ZM269.96 188.053H268.055V192.061C268.055 192.422 268.126 192.682 268.267 192.841C268.408 192.991 268.62 193.07 268.902 193.079C269.184 193.079 269.537 193.07 269.96 193.053V193.82C269.034 193.961 268.337 193.895 267.87 193.622C267.412 193.348 267.182 192.828 267.182 192.061V188.053H265.793V187.206H267.182V185.619L268.055 185.355V187.206H269.96V188.053ZM279.377 187.206H280.25V193.82H279.377V192.788C278.884 193.582 278.143 193.979 277.155 193.979C276.353 193.979 275.718 193.736 275.251 193.251C274.792 192.757 274.563 192.096 274.563 191.267V187.206H275.436V191.267C275.436 191.858 275.59 192.316 275.899 192.643C276.216 192.969 276.662 193.132 277.235 193.132C277.87 193.132 278.385 192.934 278.782 192.537C279.179 192.131 279.377 191.51 279.377 190.672V187.206ZM282.785 188.939C282.785 189.239 282.917 189.477 283.182 189.653C283.446 189.83 283.768 189.966 284.147 190.063C284.527 190.16 284.906 190.271 285.285 190.394C285.664 190.509 285.986 190.707 286.25 190.989C286.515 191.263 286.647 191.624 286.647 192.074C286.647 192.638 286.422 193.097 285.973 193.45C285.532 193.802 284.959 193.979 284.253 193.979C283.618 193.979 283.076 193.838 282.626 193.555C282.185 193.273 281.877 192.907 281.7 192.458L282.441 192.021C282.565 192.365 282.785 192.638 283.102 192.841C283.429 193.035 283.812 193.132 284.253 193.132C284.685 193.132 285.047 193.048 285.338 192.881C285.629 192.704 285.774 192.436 285.774 192.074C285.774 191.774 285.642 191.536 285.377 191.36C285.113 191.183 284.791 191.047 284.412 190.95C284.033 190.853 283.654 190.747 283.274 190.632C282.895 190.509 282.573 190.31 282.309 190.037C282.044 189.755 281.912 189.389 281.912 188.939C281.912 188.401 282.124 187.952 282.547 187.59C282.979 187.229 283.521 187.048 284.174 187.048C284.712 187.048 285.183 187.171 285.589 187.418C285.995 187.656 286.295 187.982 286.489 188.397L285.761 188.82C285.505 188.203 284.976 187.894 284.174 187.894C283.795 187.894 283.468 187.987 283.195 188.172C282.922 188.348 282.785 188.604 282.785 188.939ZM288.925 185.619C288.802 185.743 288.652 185.804 288.475 185.804C288.299 185.804 288.149 185.743 288.026 185.619C287.902 185.496 287.841 185.346 287.841 185.17C287.841 184.993 287.902 184.843 288.026 184.72C288.149 184.596 288.299 184.535 288.475 184.535C288.652 184.535 288.802 184.596 288.925 184.72C289.049 184.843 289.11 184.993 289.11 185.17C289.11 185.346 289.049 185.496 288.925 185.619ZM288.039 193.82V187.206H288.912V193.82H288.039ZM293.86 187.048C294.662 187.048 295.292 187.295 295.751 187.788C296.218 188.273 296.452 188.93 296.452 189.759V193.82H295.579V189.759C295.579 189.168 295.42 188.71 295.103 188.384C294.794 188.057 294.353 187.894 293.78 187.894C293.145 187.894 292.629 188.097 292.233 188.503C291.836 188.9 291.637 189.517 291.637 190.354V193.82H290.764V187.206H291.637V188.238C292.131 187.445 292.872 187.048 293.86 187.048ZM303.828 187.206H304.701V193.555C304.701 194.508 304.374 195.257 303.722 195.804C303.069 196.351 302.289 196.624 301.381 196.624C299.829 196.624 298.784 196.086 298.246 195.01L299.013 194.574C299.41 195.376 300.199 195.778 301.381 195.778C302.139 195.778 302.734 195.575 303.166 195.169C303.607 194.772 303.828 194.234 303.828 193.555V192.524C303.219 193.494 302.329 193.979 301.156 193.979C300.212 193.979 299.405 193.644 298.735 192.973C298.074 192.303 297.743 191.483 297.743 190.513C297.743 189.543 298.074 188.723 298.735 188.053C299.405 187.383 300.212 187.048 301.156 187.048C302.329 187.048 303.219 187.533 303.828 188.503V187.206ZM299.37 192.378C299.873 192.881 300.49 193.132 301.222 193.132C301.954 193.132 302.571 192.881 303.074 192.378C303.576 191.867 303.828 191.245 303.828 190.513C303.828 189.781 303.576 189.164 303.074 188.661C302.571 188.15 301.954 187.894 301.222 187.894C300.49 187.894 299.873 188.15 299.37 188.661C298.867 189.164 298.616 189.781 298.616 190.513C298.616 191.245 298.867 191.867 299.37 192.378Z" fill="#606060"/>
<path d="M111.588 202.619C111.465 202.743 111.315 202.804 111.139 202.804C110.962 202.804 110.812 202.743 110.689 202.619C110.566 202.496 110.504 202.346 110.504 202.17C110.504 201.993 110.566 201.843 110.689 201.72C110.812 201.596 110.962 201.535 111.139 201.535C111.315 201.535 111.465 201.596 111.588 201.72C111.712 201.843 111.774 201.993 111.774 202.17C111.774 202.346 111.712 202.496 111.588 202.619ZM110.702 210.82V204.206H111.575V210.82H110.702ZM116.973 204.048C117.916 204.048 118.719 204.383 119.38 205.053C120.05 205.723 120.385 206.543 120.385 207.513C120.385 208.483 120.05 209.303 119.38 209.973C118.719 210.644 117.916 210.979 116.973 210.979C115.8 210.979 114.909 210.494 114.301 209.524V213.465H113.428V204.206H114.301V205.503C114.909 204.533 115.8 204.048 116.973 204.048ZM115.055 209.378C115.557 209.881 116.175 210.132 116.906 210.132C117.638 210.132 118.256 209.881 118.758 209.378C119.261 208.867 119.512 208.245 119.512 207.513C119.512 206.781 119.261 206.164 118.758 205.661C118.256 205.15 117.638 204.894 116.906 204.894C116.175 204.894 115.557 205.15 115.055 205.661C114.552 206.164 114.301 206.781 114.301 207.513C114.301 208.245 114.552 208.867 115.055 209.378ZM125.381 204.048C126.325 204.048 127.127 204.383 127.789 205.053C128.459 205.723 128.794 206.543 128.794 207.513C128.794 208.483 128.459 209.303 127.789 209.973C127.127 210.644 126.325 210.979 125.381 210.979C124.209 210.979 123.318 210.494 122.71 209.524V213.465H121.837V204.206H122.71V205.503C123.318 204.533 124.209 204.048 125.381 204.048ZM123.464 209.378C123.966 209.881 124.583 210.132 125.315 210.132C126.047 210.132 126.664 209.881 127.167 209.378C127.67 208.867 127.921 208.245 127.921 207.513C127.921 206.781 127.67 206.164 127.167 205.661C126.664 205.15 126.047 204.894 125.315 204.894C124.583 204.894 123.966 205.15 123.464 205.661C122.961 206.164 122.71 206.781 122.71 207.513C122.71 208.245 122.961 208.867 123.464 209.378ZM135.788 209.987C135.118 210.648 134.297 210.979 133.327 210.979C132.357 210.979 131.533 210.648 130.854 209.987C130.184 209.316 129.849 208.492 129.849 207.513C129.849 206.534 130.184 205.714 130.854 205.053C131.533 204.383 132.357 204.048 133.327 204.048C134.297 204.048 135.118 204.383 135.788 205.053C136.467 205.714 136.806 206.534 136.806 207.513C136.806 208.492 136.467 209.316 135.788 209.987ZM131.476 209.378C131.978 209.881 132.596 210.132 133.327 210.132C134.059 210.132 134.677 209.881 135.179 209.378C135.682 208.867 135.933 208.245 135.933 207.513C135.933 206.781 135.682 206.164 135.179 205.661C134.677 205.15 134.059 204.894 133.327 204.894C132.596 204.894 131.978 205.15 131.476 205.661C130.973 206.164 130.722 206.781 130.722 207.513C130.722 208.245 130.973 208.867 131.476 209.378ZM141.812 204.048C142.755 204.048 143.558 204.383 144.219 205.053C144.889 205.723 145.224 206.543 145.224 207.513C145.224 208.483 144.889 209.303 144.219 209.973C143.558 210.644 142.755 210.979 141.812 210.979C140.639 210.979 139.748 210.494 139.14 209.524V213.465H138.267V204.206H139.14V205.503C139.748 204.533 140.639 204.048 141.812 204.048ZM139.894 209.378C140.397 209.881 141.014 210.132 141.746 210.132C142.478 210.132 143.095 209.881 143.597 209.378C144.1 208.867 144.351 208.245 144.351 207.513C144.351 206.781 144.1 206.164 143.597 205.661C143.095 205.15 142.478 204.894 141.746 204.894C141.014 204.894 140.397 205.15 139.894 205.661C139.391 206.164 139.14 206.781 139.14 207.513C139.14 208.245 139.391 208.867 139.894 209.378ZM152.364 204.206H153.237V210.82H152.364V209.524C151.755 210.494 150.864 210.979 149.692 210.979C148.748 210.979 147.941 210.644 147.271 209.973C146.61 209.303 146.279 208.483 146.279 207.513C146.279 206.543 146.61 205.723 147.271 205.053C147.941 204.383 148.748 204.048 149.692 204.048C150.864 204.048 151.755 204.533 152.364 205.503V204.206ZM147.906 209.378C148.409 209.881 149.026 210.132 149.758 210.132C150.49 210.132 151.107 209.881 151.61 209.378C152.112 208.867 152.364 208.245 152.364 207.513C152.364 206.781 152.112 206.164 151.61 205.661C151.107 205.15 150.49 204.894 149.758 204.894C149.026 204.894 148.409 205.15 147.906 205.661C147.403 206.164 147.152 206.781 147.152 207.513C147.152 208.245 147.403 208.867 147.906 209.378ZM159.847 204.206H160.772L157.942 211.428C157.686 212.081 157.32 212.592 156.844 212.963C156.377 213.342 155.852 213.509 155.27 213.465V212.645C156.064 212.733 156.668 212.275 157.082 211.27L157.254 210.86L154.291 204.206H155.217L157.704 209.749L159.847 204.206ZM162.939 210.741C162.797 210.882 162.626 210.952 162.423 210.952C162.22 210.952 162.048 210.882 161.907 210.741C161.766 210.599 161.695 210.428 161.695 210.225C161.695 210.022 161.766 209.85 161.907 209.709C162.048 209.568 162.22 209.497 162.423 209.497C162.626 209.497 162.797 209.568 162.939 209.709C163.08 209.85 163.15 210.022 163.15 210.225C163.15 210.428 163.08 210.599 162.939 210.741ZM167.958 210.979C166.961 210.979 166.132 210.648 165.471 209.987C164.81 209.316 164.479 208.492 164.479 207.513C164.479 206.534 164.81 205.714 165.471 205.053C166.132 204.383 166.961 204.048 167.958 204.048C168.61 204.048 169.197 204.206 169.717 204.524C170.237 204.833 170.616 205.251 170.854 205.78L170.14 206.191C169.964 205.794 169.677 205.481 169.28 205.251C168.892 205.013 168.452 204.894 167.958 204.894C167.226 204.894 166.609 205.15 166.106 205.661C165.603 206.164 165.352 206.781 165.352 207.513C165.352 208.245 165.603 208.867 166.106 209.378C166.609 209.881 167.226 210.132 167.958 210.132C168.452 210.132 168.892 210.018 169.28 209.788C169.668 209.55 169.973 209.233 170.193 208.836L170.921 209.259C170.647 209.788 170.246 210.207 169.717 210.516C169.188 210.824 168.602 210.979 167.958 210.979ZM177.716 209.987C177.046 210.648 176.226 210.979 175.256 210.979C174.286 210.979 173.461 210.648 172.782 209.987C172.112 209.316 171.777 208.492 171.777 207.513C171.777 206.534 172.112 205.714 172.782 205.053C173.461 204.383 174.286 204.048 175.256 204.048C176.226 204.048 177.046 204.383 177.716 205.053C178.395 205.714 178.735 206.534 178.735 207.513C178.735 208.492 178.395 209.316 177.716 209.987ZM173.404 209.378C173.907 209.881 174.524 210.132 175.256 210.132C175.988 210.132 176.605 209.881 177.108 209.378C177.61 208.867 177.862 208.245 177.862 207.513C177.862 206.781 177.61 206.164 177.108 205.661C176.605 205.15 175.988 204.894 175.256 204.894C174.524 204.894 173.907 205.15 173.404 205.661C172.901 206.164 172.65 206.781 172.65 207.513C172.65 208.245 172.901 208.867 173.404 209.378ZM187.245 204.048C187.986 204.048 188.581 204.286 189.031 204.762C189.49 205.238 189.719 205.882 189.719 206.693V210.82H188.846V206.693C188.846 206.12 188.696 205.679 188.396 205.37C188.105 205.053 187.717 204.894 187.232 204.894C186.685 204.894 186.24 205.079 185.896 205.45C185.561 205.811 185.394 206.38 185.394 207.156V210.82H184.521V206.693C184.521 206.111 184.38 205.666 184.097 205.357C183.824 205.049 183.449 204.894 182.973 204.894C182.444 204.894 181.994 205.079 181.624 205.45C181.254 205.82 181.068 206.389 181.068 207.156V210.82H180.195V204.206H181.068V205.172C181.545 204.423 182.219 204.048 183.092 204.048C184.044 204.048 184.715 204.449 185.103 205.251C185.579 204.449 186.293 204.048 187.245 204.048ZM191.672 212.143H191.011L196.301 200.238H196.963L191.672 212.143ZM201.966 204.048C202.91 204.048 203.712 204.383 204.373 205.053C205.044 205.723 205.379 206.543 205.379 207.513C205.379 208.483 205.044 209.303 204.373 209.973C203.712 210.644 202.91 210.979 201.966 210.979C200.793 210.979 199.903 210.494 199.294 209.524V213.465H198.421V204.206H199.294V205.503C199.903 204.533 200.793 204.048 201.966 204.048ZM200.048 209.378C200.551 209.881 201.168 210.132 201.9 210.132C202.632 210.132 203.249 209.881 203.752 209.378C204.254 208.867 204.506 208.245 204.506 207.513C204.506 206.781 204.254 206.164 203.752 205.661C203.249 205.15 202.632 204.894 201.9 204.894C201.168 204.894 200.551 205.15 200.048 205.661C199.546 206.164 199.294 206.781 199.294 207.513C199.294 208.245 199.546 208.867 200.048 209.378ZM212.518 204.206H213.391V210.82H212.518V209.524C211.909 210.494 211.019 210.979 209.846 210.979C208.902 210.979 208.096 210.644 207.425 209.973C206.764 209.303 206.433 208.483 206.433 207.513C206.433 206.543 206.764 205.723 207.425 205.053C208.096 204.383 208.902 204.048 209.846 204.048C211.019 204.048 211.909 204.533 212.518 205.503V204.206ZM208.06 209.378C208.563 209.881 209.18 210.132 209.912 210.132C210.644 210.132 211.261 209.881 211.764 209.378C212.266 208.867 212.518 208.245 212.518 207.513C212.518 206.781 212.266 206.164 211.764 205.661C211.261 205.15 210.644 204.894 209.912 204.894C209.18 204.894 208.563 205.15 208.06 205.661C207.558 206.164 207.306 206.781 207.306 207.513C207.306 208.245 207.558 208.867 208.06 209.378ZM220.001 204.206H220.927L218.096 211.428C217.84 212.081 217.474 212.592 216.998 212.963C216.531 213.342 216.006 213.509 215.424 213.465V212.645C216.218 212.733 216.822 212.275 217.236 211.27L217.408 210.86L214.445 204.206H215.371L217.858 209.749L220.001 204.206ZM229.032 204.048C229.772 204.048 230.368 204.286 230.817 204.762C231.276 205.238 231.505 205.882 231.505 206.693V210.82H230.632V206.693C230.632 206.12 230.482 205.679 230.182 205.37C229.891 205.053 229.503 204.894 229.018 204.894C228.472 204.894 228.026 205.079 227.683 205.45C227.347 205.811 227.18 206.38 227.18 207.156V210.82H226.307V206.693C226.307 206.111 226.166 205.666 225.884 205.357C225.61 205.049 225.236 204.894 224.759 204.894C224.23 204.894 223.781 205.079 223.41 205.45C223.04 205.82 222.855 206.389 222.855 207.156V210.82H221.982V204.206H222.855V205.172C223.331 204.423 224.005 204.048 224.878 204.048C225.831 204.048 226.501 204.449 226.889 205.251C227.365 204.449 228.079 204.048 229.032 204.048ZM236.249 204.048C237.228 204.048 238.017 204.396 238.617 205.093C239.225 205.78 239.529 206.596 239.529 207.54C239.529 207.637 239.521 207.773 239.503 207.95H233.696C233.784 208.62 234.067 209.153 234.543 209.55C235.028 209.938 235.623 210.132 236.328 210.132C236.831 210.132 237.263 210.031 237.625 209.828C237.995 209.616 238.273 209.343 238.458 209.008L239.225 209.458C238.934 209.925 238.537 210.295 238.035 210.569C237.532 210.842 236.959 210.979 236.315 210.979C235.275 210.979 234.428 210.652 233.776 210C233.123 209.347 232.797 208.518 232.797 207.513C232.797 206.526 233.119 205.701 233.762 205.04C234.406 204.378 235.235 204.048 236.249 204.048ZM236.249 204.894C235.561 204.894 234.984 205.101 234.516 205.516C234.058 205.922 233.784 206.451 233.696 207.103H238.63C238.542 206.407 238.273 205.864 237.823 205.476C237.373 205.088 236.849 204.894 236.249 204.894ZM244.013 204.048C244.815 204.048 245.446 204.295 245.905 204.788C246.372 205.273 246.606 205.93 246.606 206.759V210.82H245.733V206.759C245.733 206.168 245.574 205.71 245.256 205.384C244.948 205.057 244.507 204.894 243.934 204.894C243.299 204.894 242.783 205.097 242.386 205.503C241.989 205.9 241.791 206.517 241.791 207.354V210.82H240.918V204.206H241.791V205.238C242.285 204.445 243.025 204.048 244.013 204.048ZM251.799 205.053H249.894V209.061C249.894 209.422 249.965 209.682 250.106 209.841C250.247 209.991 250.458 210.07 250.741 210.079C251.023 210.079 251.375 210.07 251.799 210.053V210.82C250.873 210.961 250.176 210.895 249.709 210.622C249.25 210.348 249.021 209.828 249.021 209.061V205.053H247.632V204.206H249.021V202.619L249.894 202.355V204.206H251.799V205.053ZM253.254 210.82V201.164H254.127V210.82H253.254ZM256.865 202.619C256.742 202.743 256.592 202.804 256.416 202.804C256.239 202.804 256.089 202.743 255.966 202.619C255.842 202.496 255.781 202.346 255.781 202.17C255.781 201.993 255.842 201.843 255.966 201.72C256.089 201.596 256.239 201.535 256.416 201.535C256.592 201.535 256.742 201.596 256.865 201.72C256.989 201.843 257.05 201.993 257.05 202.17C257.05 202.346 256.989 202.496 256.865 202.619ZM255.979 210.82V204.206H256.852V210.82H255.979ZM261.8 204.048C262.602 204.048 263.233 204.295 263.691 204.788C264.159 205.273 264.392 205.93 264.392 206.759V210.82H263.519V206.759C263.519 206.168 263.36 205.71 263.043 205.384C262.734 205.057 262.294 204.894 261.72 204.894C261.085 204.894 260.57 205.097 260.173 205.503C259.776 205.9 259.578 206.517 259.578 207.354V210.82H258.705V204.206H259.578V205.238C260.071 204.445 260.812 204.048 261.8 204.048ZM271.424 210.82H270.26L266.953 207.632V210.82H266.08V201.561H266.953V207.13L270.101 204.206H271.292L267.879 207.381L271.424 210.82ZM272.881 212.143H272.219L277.51 200.238H278.171L272.881 212.143ZM287.407 202.804C288.342 203.739 288.81 204.868 288.81 206.191C288.81 207.513 288.342 208.642 287.407 209.577L288.466 210.608L287.844 211.177L286.773 210.119C285.944 210.692 285.027 210.979 284.021 210.979C282.699 210.979 281.57 210.511 280.635 209.577C279.701 208.642 279.233 207.513 279.233 206.191C279.233 204.868 279.701 203.739 280.635 202.804C281.57 201.87 282.699 201.402 284.021 201.402C285.344 201.402 286.473 201.87 287.407 202.804ZM284.021 210.079C284.771 210.079 285.468 209.876 286.111 209.471L284.101 207.487L284.722 206.918L286.773 208.928C287.513 208.17 287.884 207.257 287.884 206.191C287.884 205.115 287.504 204.198 286.746 203.439C285.997 202.681 285.088 202.302 284.021 202.302C282.954 202.302 282.042 202.681 281.283 203.439C280.534 204.198 280.159 205.115 280.159 206.191C280.159 207.266 280.534 208.183 281.283 208.942C282.042 209.7 282.954 210.079 284.021 210.079ZM298.288 204.206H299.187L297.15 210.82H296.198L294.492 205.489L292.785 210.82H291.833L289.796 204.206H290.696L292.323 209.696L294.055 204.206H294.928L296.661 209.696L298.288 204.206ZM301.562 209.947H306.059V210.82H300.636V201.561H305.993V202.434H301.562V205.714H305.662V206.587H301.562V209.947ZM308.391 205.304C308.796 204.502 309.493 204.101 310.481 204.101V204.947C309.881 204.947 309.383 205.124 308.986 205.476C308.589 205.829 308.391 206.385 308.391 207.143V210.82H307.518V204.206H308.391V205.304ZM315.311 205.053H313.407V209.061C313.407 209.422 313.477 209.682 313.618 209.841C313.759 209.991 313.971 210.07 314.253 210.079C314.535 210.079 314.888 210.07 315.311 210.053V210.82C314.385 210.961 313.689 210.895 313.221 210.622C312.763 210.348 312.534 209.828 312.534 209.061V205.053H311.145V204.206H312.534V202.619L313.407 202.355V204.206H315.311V205.053ZM323.178 201.561L319.831 207.024V210.82H318.905V206.997L315.572 201.561H316.617L319.382 206.098L322.133 201.561H323.178Z" fill="#0060FF"/>
</g>
<path d="M218.913 107.533V114.557H220.198V107.533H222.615V106.355H216.496V107.533H218.913ZM225.287 113.485C224.822 113.485 224.418 113.331 224.096 113.009C223.775 112.688 223.608 112.271 223.608 111.759C223.608 111.259 223.775 110.855 224.096 110.545C224.418 110.236 224.822 110.081 225.287 110.081C226.239 110.081 226.977 110.759 226.977 111.759C226.977 112.271 226.81 112.688 226.489 113.009C226.168 113.331 225.763 113.485 225.287 113.485ZM225.287 108.878C224.477 108.878 223.787 109.14 223.227 109.676C222.668 110.212 222.394 110.902 222.394 111.759C222.394 112.616 222.668 113.319 223.227 113.866C223.787 114.402 224.477 114.676 225.287 114.676C226.096 114.676 226.787 114.402 227.346 113.866C227.917 113.319 228.203 112.616 228.203 111.759C228.203 110.902 227.917 110.212 227.358 109.676C226.798 109.14 226.108 108.878 225.287 108.878ZM235.087 114.557V105.974H233.873V109.795C233.539 109.212 232.801 108.878 231.992 108.878C231.218 108.878 230.551 109.152 230.016 109.688C229.48 110.224 229.218 110.914 229.218 111.783C229.218 112.64 229.492 113.343 230.028 113.878C230.563 114.414 231.218 114.676 231.992 114.676C232.789 114.676 233.539 114.331 233.873 113.747V114.557H235.087ZM233.849 111.759C233.849 112.807 233.099 113.485 232.147 113.485C231.682 113.485 231.278 113.331 230.956 113.009C230.635 112.688 230.48 112.271 230.48 111.759C230.48 110.759 231.194 110.069 232.147 110.069C232.599 110.069 232.992 110.224 233.337 110.533C233.682 110.831 233.849 111.247 233.849 111.759ZM242.353 114.557V108.997H241.139V109.783C240.77 109.2 239.996 108.878 239.27 108.878C238.496 108.878 237.83 109.152 237.27 109.688C236.723 110.224 236.449 110.914 236.449 111.771C236.449 112.628 236.723 113.331 237.27 113.866C237.83 114.402 238.496 114.676 239.27 114.676C239.996 114.676 240.794 114.331 241.139 113.759V114.557H242.353ZM241.127 111.759C241.127 112.807 240.365 113.485 239.413 113.485C238.937 113.485 238.532 113.319 238.199 112.997C237.877 112.676 237.711 112.259 237.711 111.759C237.711 111.259 237.877 110.855 238.199 110.545C238.532 110.224 238.937 110.069 239.413 110.069C239.865 110.069 240.258 110.224 240.603 110.533C240.949 110.831 241.127 111.247 241.127 111.759ZM247.786 108.997L246.226 112.807L244.679 108.997H243.369L245.572 114.295L244.369 117.271H245.655L249.095 108.997H247.786ZM254.102 108.45C254.447 107.938 254.9 107.7 255.459 107.748C255.876 107.771 256.185 107.926 256.364 108.2C256.507 108.402 256.555 108.676 256.495 108.997C256.4 109.521 255.959 109.902 255.424 109.89H254.543V110.926H255.424C255.84 110.926 256.185 111.069 256.483 111.343C256.781 111.616 256.935 111.95 256.924 112.319C256.912 112.688 256.733 113.009 256.388 113.259C256.055 113.509 255.674 113.616 255.233 113.593H255.245C254.638 113.545 254.043 113.081 253.793 112.521L252.852 113.033C253.269 113.938 254.15 114.592 255.162 114.652C255.888 114.712 256.519 114.521 257.078 114.092C257.638 113.664 257.947 113.116 258.007 112.462C258.043 112.033 257.947 111.616 257.709 111.2C257.483 110.783 257.174 110.509 256.781 110.366C257.197 110.128 257.483 109.771 257.626 109.307C257.674 109.14 257.697 108.986 257.697 108.831C257.709 108.271 257.519 107.783 257.102 107.367C256.697 106.938 256.185 106.712 255.555 106.676C254.602 106.617 253.733 107.069 253.305 107.819L254.102 108.45ZM259.759 114.473C260.08 114.747 260.568 114.747 260.866 114.473C261.163 114.188 261.163 113.688 260.866 113.402C260.568 113.116 260.08 113.116 259.759 113.402C259.461 113.688 259.461 114.188 259.759 114.473ZM259.759 110.152C260.08 110.438 260.568 110.438 260.866 110.152C261.163 109.866 261.163 109.367 260.866 109.093C260.568 108.807 260.08 108.807 259.759 109.093C259.461 109.367 259.461 109.866 259.759 110.152ZM262.622 114.557H267.42V113.485H264.456L266.563 110.997C267.122 110.355 267.408 109.688 267.408 108.986C267.408 108.307 267.17 107.759 266.705 107.331C266.241 106.902 265.658 106.688 264.967 106.688C264.348 106.688 263.813 106.879 263.36 107.248C262.908 107.617 262.634 108.117 262.527 108.736L263.563 108.986C263.67 108.224 264.253 107.759 264.967 107.759C265.741 107.759 266.348 108.259 266.348 108.986C266.348 109.39 266.158 109.819 265.777 110.259L262.622 114.081V114.557ZM268.757 112.902C269.233 113.985 270.245 114.676 271.34 114.676C272.209 114.676 272.912 114.438 273.447 113.962C273.983 113.485 274.257 112.854 274.257 112.057C274.257 111.283 274.007 110.676 273.495 110.236C272.983 109.795 272.352 109.569 271.602 109.569C271.126 109.569 270.483 109.771 270.138 110.021L270.566 107.819H273.828V106.795H269.686L269.007 110.664L269.674 111.212C270.09 110.962 270.424 110.795 270.697 110.712C270.971 110.616 271.269 110.569 271.602 110.569C272.519 110.569 273.209 111.105 273.209 112.057C273.209 112.997 272.578 113.64 271.34 113.64C270.614 113.64 269.971 113.164 269.674 112.402L268.757 112.902ZM279.116 114.557H280.235V111.485H282.39C283.199 111.485 283.807 111.235 284.211 110.747C284.628 110.247 284.83 109.64 284.83 108.926C284.83 108.212 284.628 107.605 284.211 107.105C283.807 106.605 283.199 106.355 282.39 106.355H279.116V114.557ZM282.378 107.39C283.271 107.39 283.723 108.081 283.723 108.926C283.723 109.771 283.259 110.45 282.319 110.45H280.235V107.39H282.378ZM287.883 106.355H286.871L285.871 114.557H286.967L287.717 108.39L290.3 113.652H291.276L293.835 108.39L294.585 114.557H295.68L294.68 106.355H293.669L290.776 112.378L287.883 106.355Z" fill="#909093"/>
<g clip-path="url(#clip1_3812_81)">
<path d="M100.985 43.1996H112.385V45.0728H100.985L106.009 50.0967L104.684 51.4211L97.3994 44.1362L104.684 36.8513L106.009 38.1756L100.985 43.1996Z" fill="#606060"/>
</g>
</g>
<defs>
<linearGradient id="paint0_linear_3812_81" x1="256" y1="4.20168" x2="256" y2="400" gradientUnits="userSpaceOnUse">
<stop offset="0.508831" stop-color="#DEDEDE"/>
<stop offset="1" stop-color="#DEDEDE" stop-opacity="0.06"/>
</linearGradient>
<linearGradient id="paint1_linear_3812_81" x1="256" y1="8" x2="256" y2="377.333" gradientUnits="userSpaceOnUse">
<stop offset="0.823604" stop-color="#F9FBFF"/>
<stop offset="1" stop-color="#FCFDFF" stop-opacity="0"/>
</linearGradient>
<clipPath id="clip0_3812_81">
<path d="M78.6665 39.7447C78.6665 24.7801 78.6665 17.2978 83.3154 12.6489C87.9643 8 95.4466 8 110.411 8H401.589C416.553 8 424.035 8 428.684 12.6489C433.333 17.2978 433.333 24.7801 433.333 39.7447V377.333H78.6665V39.7447Z" fill="white"/>
</clipPath>
<clipPath id="clip1_3812_81">
<rect width="22.4785" height="22.4785" fill="white" transform="translate(93.6528 32.8966)"/>
</clipPath>
</defs>
</svg>
