<svg width="560" height="291" viewBox="0 0 560 291" fill="none" xmlns="http://www.w3.org/2000/svg">
<path d="M1 87.1852C1 84.3215 3.32148 82 6.18518 82H204.815C207.679 82 210 84.3215 210 87.1852V289H1V87.1852Z" fill="url(#paint0_linear_3331_10402)"/>
<g clip-path="url(#clip0_3331_10402)">
<path d="M6.18774 93.0617C6.18774 90.198 8.50923 87.8765 11.3729 87.8765H198.999C201.863 87.8765 204.185 90.1979 204.185 93.0616V278H6.18774V93.0617Z" fill="url(#paint1_linear_3331_10402)"/>
<g filter="url(#filter0_d_3331_10402)">
<path d="M6.18774 90.5112C6.18774 89.0561 7.36738 87.8765 8.82253 87.8765H201.858C203.313 87.8765 204.492 89.0561 204.492 90.5112V124.207C204.492 125.662 203.313 126.842 201.858 126.842H8.82252C7.36737 126.842 6.18774 125.662 6.18774 124.207V90.5112Z" fill="white"/>
</g>
<path d="M13.5844 155.935C13.5844 151.64 17.0666 148.158 21.3621 148.158H181.239C185.534 148.158 189.016 151.64 189.016 155.935C189.016 160.231 185.534 163.713 181.239 163.713H21.3621C17.0666 163.713 13.5844 160.231 13.5844 155.935Z" fill="#EBF3FA"/>
<path d="M13.5844 193.776C13.5844 189.48 17.0666 185.998 21.3621 185.998H181.239C185.534 185.998 189.016 189.48 189.016 193.776C189.016 198.071 185.534 201.554 181.239 201.554H21.3621C17.0666 201.554 13.5844 198.071 13.5844 193.776Z" fill="#EBF3FA"/>
<path d="M13.5844 231.984C13.5844 227.689 17.0666 224.207 21.3621 224.207H106.053C110.349 224.207 113.831 227.689 113.831 231.984C113.831 236.28 110.349 239.762 106.053 239.762H21.3621C17.0666 239.762 13.5844 236.28 13.5844 231.984Z" fill="#EBF3FA"/>
<path d="M31.9326 251.861H178.748V274.127H31.9326V251.861Z" fill="#0B4A94"/>
<path d="M96.4676 266.232C95.9221 266.232 95.4545 266.104 95.0649 265.848C94.6808 265.592 94.4108 265.241 94.2549 264.796L94.9229 264.412C95.1511 265.119 95.6716 265.472 96.4843 265.472C96.8851 265.472 97.1912 265.392 97.4028 265.23C97.6143 265.063 97.72 264.843 97.72 264.57C97.72 264.292 97.6143 264.083 97.4028 263.944C97.1912 263.805 96.8378 263.658 96.3423 263.502C96.0974 263.424 95.911 263.363 95.7829 263.318C95.6549 263.268 95.4935 263.196 95.2986 263.101C95.1094 263.001 94.9674 262.901 94.8728 262.8C94.7782 262.695 94.6919 262.558 94.614 262.391C94.5416 262.224 94.5054 262.035 94.5054 261.823C94.5054 261.317 94.6835 260.916 95.0398 260.621C95.3961 260.321 95.8302 260.17 96.3423 260.17C96.8044 260.17 97.2051 260.287 97.5447 260.521C97.8898 260.755 98.1487 261.064 98.3212 261.448L97.6699 261.823C97.4195 261.222 96.9769 260.922 96.3423 260.922C96.0251 260.922 95.769 261 95.5742 261.155C95.3794 261.311 95.2819 261.523 95.2819 261.79C95.2819 262.046 95.3738 262.241 95.5575 262.375C95.7412 262.508 96.0585 262.647 96.5093 262.792C96.6708 262.842 96.7849 262.878 96.8517 262.901C96.9185 262.923 97.0215 262.962 97.1606 263.017C97.3053 263.073 97.4111 263.118 97.4779 263.151C97.5447 263.184 97.6338 263.232 97.7451 263.293C97.862 263.354 97.9483 263.413 98.0039 263.468C98.0596 263.524 98.1236 263.594 98.196 263.677C98.2739 263.755 98.3296 263.836 98.363 263.919C98.3964 264.003 98.4242 264.1 98.4465 264.211C98.4743 264.317 98.4882 264.431 98.4882 264.554C98.4882 265.066 98.3017 265.475 97.9288 265.781C97.5558 266.082 97.0688 266.232 96.4676 266.232ZM101.412 261.84C101.901 261.84 102.294 261.996 102.589 262.308C102.884 262.614 103.031 263.031 103.031 263.56V266.124H102.305V263.602C102.305 263.262 102.213 263.001 102.03 262.817C101.846 262.628 101.593 262.533 101.27 262.533C100.908 262.533 100.616 262.647 100.393 262.876C100.17 263.098 100.059 263.443 100.059 263.911V266.124H99.3326V260.279H100.059V262.55C100.354 262.077 100.805 261.84 101.412 261.84ZM107.502 261.949H108.229V266.124H107.502V265.405C107.141 265.957 106.614 266.232 105.924 266.232C105.34 266.232 104.842 266.021 104.43 265.598C104.018 265.169 103.812 264.648 103.812 264.036C103.812 263.424 104.018 262.906 104.43 262.483C104.842 262.054 105.34 261.84 105.924 261.84C106.614 261.84 107.141 262.116 107.502 262.667V261.949ZM106.016 265.531C106.439 265.531 106.793 265.389 107.076 265.105C107.36 264.815 107.502 264.459 107.502 264.036C107.502 263.613 107.36 263.26 107.076 262.976C106.793 262.686 106.439 262.542 106.016 262.542C105.599 262.542 105.248 262.686 104.964 262.976C104.68 263.26 104.538 263.613 104.538 264.036C104.538 264.459 104.68 264.815 104.964 265.105C105.248 265.389 105.599 265.531 106.016 265.531ZM110.056 262.65C110.295 262.132 110.729 261.874 111.358 261.874V262.633C111.002 262.617 110.696 262.711 110.44 262.917C110.184 263.123 110.056 263.454 110.056 263.911V266.124H109.329V261.949H110.056V262.65ZM112.35 264.37C112.422 264.743 112.592 265.033 112.859 265.238C113.132 265.444 113.466 265.547 113.861 265.547C114.412 265.547 114.813 265.344 115.064 264.938L115.682 265.289C115.275 265.918 114.663 266.232 113.845 266.232C113.182 266.232 112.642 266.026 112.225 265.614C111.813 265.197 111.607 264.671 111.607 264.036C111.607 263.407 111.81 262.884 112.216 262.466C112.623 262.049 113.149 261.84 113.795 261.84C114.407 261.84 114.905 262.057 115.289 262.491C115.679 262.92 115.874 263.438 115.874 264.044C115.874 264.15 115.865 264.259 115.849 264.37H112.35ZM113.795 262.525C113.405 262.525 113.082 262.636 112.826 262.859C112.57 263.076 112.411 263.368 112.35 263.736H115.139C115.078 263.34 114.922 263.04 114.671 262.834C114.421 262.628 114.129 262.525 113.795 262.525Z" fill="#F4F6FA"/>
<path d="M18.3448 112.184L15.9777 105.365H17.2051L19.0169 110.83L20.8386 105.365H22.0562L19.6891 112.184H18.3448ZM23.5199 106.388C23.39 106.517 23.2342 106.582 23.0523 106.582C22.8705 106.582 22.7114 106.517 22.575 106.388C22.4451 106.251 22.3802 106.092 22.3802 105.91C22.3802 105.728 22.4451 105.573 22.575 105.443C22.7049 105.306 22.864 105.238 23.0523 105.238C23.2407 105.238 23.3998 105.306 23.5297 105.443C23.6595 105.573 23.7245 105.728 23.7245 105.91C23.7245 106.092 23.6563 106.251 23.5199 106.388ZM22.5263 112.184V107.313H23.5784V112.184H22.5263ZM25.852 108.131C26.1182 107.527 26.6183 107.225 27.3521 107.225V108.365C26.9495 108.339 26.5988 108.436 26.3001 108.657C26.0013 108.872 25.852 109.229 25.852 109.729V112.184H24.7999V107.313H25.852V108.131ZM30.9709 108.326H29.763V110.664C29.763 110.865 29.8085 111.011 29.8994 111.102C29.9903 111.187 30.1234 111.235 30.2988 111.248C30.4806 111.255 30.7047 111.252 30.9709 111.239V112.184C30.1656 112.281 29.5877 112.213 29.237 111.979C28.8863 111.739 28.711 111.3 28.711 110.664V108.326H27.8148V107.313H28.711V106.261L29.763 105.949V107.313H30.9709V108.326ZM35.2555 107.313H36.3075V112.184H35.2555V111.56C34.9373 112.06 34.434 112.31 33.7456 112.31C33.1871 112.31 32.7357 112.132 32.3916 111.774C32.0474 111.417 31.8753 110.927 31.8753 110.304V107.313H32.9273V110.196C32.9273 110.56 33.0247 110.839 33.2196 111.034C33.4144 111.229 33.6807 111.326 34.0183 111.326C34.3885 111.326 34.6872 111.213 34.9145 110.985C35.1418 110.752 35.2555 110.398 35.2555 109.924V107.313ZM41.3953 107.313H42.4474V112.184H41.3953V111.482C40.9992 112.034 40.4309 112.31 39.6906 112.31C39.0217 112.31 38.4502 112.063 37.9761 111.57C37.502 111.07 37.265 110.463 37.265 109.748C37.265 109.027 37.502 108.42 37.9761 107.927C38.4502 107.433 39.0217 107.186 39.6906 107.186C40.4309 107.186 40.9992 107.459 41.3953 108.005V107.313ZM38.7554 110.869C39.0477 111.161 39.4146 111.307 39.8562 111.307C40.2978 111.307 40.6647 111.161 40.957 110.869C41.2492 110.57 41.3953 110.196 41.3953 109.748C41.3953 109.3 41.2492 108.93 40.957 108.638C40.6647 108.339 40.2978 108.19 39.8562 108.19C39.4146 108.19 39.0477 108.339 38.7554 108.638C38.4632 108.93 38.3171 109.3 38.3171 109.748C38.3171 110.196 38.4632 110.57 38.7554 110.869ZM43.6736 112.184V105.072H44.7257V112.184H43.6736ZM50.964 105.365C51.6069 105.365 52.1427 105.579 52.5713 106.008C53.0064 106.436 53.224 106.969 53.224 107.605C53.224 108.235 53.0064 108.768 52.5713 109.203C52.1427 109.631 51.6069 109.846 50.964 109.846H49.571V112.184H48.4507V105.365H50.964ZM50.964 108.794C51.2952 108.794 51.5679 108.683 51.7822 108.462C51.9966 108.235 52.1037 107.949 52.1037 107.605C52.1037 107.261 51.9966 106.979 51.7822 106.758C51.5679 106.53 51.2952 106.417 50.964 106.417H49.571V108.794H50.964ZM57.6434 107.313H58.6955V112.184H57.6434V111.482C57.2473 112.034 56.6791 112.31 55.9387 112.31C55.2698 112.31 54.6983 112.063 54.2243 111.57C53.7502 111.07 53.5131 110.463 53.5131 109.748C53.5131 109.027 53.7502 108.42 54.2243 107.927C54.6983 107.433 55.2698 107.186 55.9387 107.186C56.6791 107.186 57.2473 107.459 57.6434 108.005V107.313ZM55.0036 110.869C55.2958 111.161 55.6627 111.307 56.1043 111.307C56.5459 111.307 56.9129 111.161 57.2051 110.869C57.4973 110.57 57.6434 110.196 57.6434 109.748C57.6434 109.3 57.4973 108.93 57.2051 108.638C56.9129 108.339 56.5459 108.19 56.1043 108.19C55.6627 108.19 55.2958 108.339 55.0036 108.638C54.7113 108.93 54.5652 109.3 54.5652 109.748C54.5652 110.196 54.7113 110.57 55.0036 110.869ZM63.2046 107.313H64.3248L62.4545 112.339C61.9869 113.599 61.1946 114.197 60.0776 114.132V113.148C60.4088 113.167 60.6751 113.096 60.8764 112.934C61.0777 112.778 61.2433 112.531 61.3732 112.193L61.4219 112.096L59.3568 107.313H60.5062L61.9577 110.849L63.2046 107.313ZM70.3014 107.186C70.8534 107.186 71.2983 107.365 71.636 107.722C71.9736 108.079 72.1425 108.56 72.1425 109.164V112.184H71.0904V109.232C71.0904 108.894 71.006 108.635 70.8372 108.453C70.6683 108.264 70.4378 108.17 70.1455 108.17C69.8208 108.17 69.5611 108.277 69.3662 108.492C69.1779 108.706 69.0837 109.027 69.0837 109.456V112.184H68.0317V109.232C68.0317 108.894 67.9505 108.635 67.7881 108.453C67.6323 108.264 67.4082 108.17 67.116 108.17C66.7978 108.17 66.538 108.281 66.3367 108.501C66.1354 108.716 66.0347 109.034 66.0347 109.456V112.184H64.9827V107.313H66.0347V107.897C66.3464 107.423 66.8108 107.186 67.4277 107.186C68.0512 107.186 68.5123 107.443 68.811 107.956C69.1357 107.443 69.6325 107.186 70.3014 107.186ZM74.0965 110.196C74.1744 110.567 74.353 110.852 74.6322 111.054C74.9115 111.248 75.2524 111.346 75.6551 111.346C76.2136 111.346 76.6324 111.145 76.9117 110.742L77.7787 111.248C77.2981 111.956 76.587 112.31 75.6453 112.31C74.853 112.31 74.2134 112.07 73.7263 111.589C73.2392 111.102 72.9957 110.489 72.9957 109.748C72.9957 109.021 73.236 108.414 73.7165 107.927C74.1971 107.433 74.8141 107.186 75.5674 107.186C76.2818 107.186 76.8662 107.436 77.3208 107.936C77.7819 108.436 78.0125 109.044 78.0125 109.758C78.0125 109.868 77.9995 110.015 77.9735 110.196H74.0965ZM74.0867 109.339H76.9507C76.8792 108.943 76.7136 108.644 76.4538 108.443C76.2006 108.242 75.9018 108.141 75.5577 108.141C75.168 108.141 74.8433 108.248 74.5835 108.462C74.3238 108.677 74.1582 108.969 74.0867 109.339ZM81.5001 107.186C82.0586 107.186 82.51 107.365 82.8542 107.722C83.1984 108.079 83.3705 108.57 83.3705 109.193V112.184H82.3184V109.3C82.3184 108.937 82.221 108.657 82.0262 108.462C81.8313 108.268 81.5651 108.17 81.2274 108.17C80.8572 108.17 80.5585 108.287 80.3312 108.521C80.1039 108.748 79.9902 109.099 79.9902 109.573V112.184H78.9382V107.313H79.9902V107.936C80.3085 107.436 80.8118 107.186 81.5001 107.186ZM87.2211 108.326H86.0132V110.664C86.0132 110.865 86.0586 111.011 86.1495 111.102C86.2405 111.187 86.3736 111.235 86.5489 111.248C86.7308 111.255 86.9548 111.252 87.2211 111.239V112.184C86.4158 112.281 85.8378 112.213 85.4871 111.979C85.1364 111.739 84.9611 111.3 84.9611 110.664V108.326H84.0649V107.313H84.9611V106.261L86.0132 105.949V107.313H87.2211V108.326ZM95.1684 112.184L94.691 110.81H91.7881L91.3108 112.184H90.0932L92.5674 105.365H93.9117L96.3763 112.184H95.1684ZM92.1583 109.758H94.3209L93.2396 106.68L92.1583 109.758ZM100.775 105.365H101.827V112.184H100.775V111.482C100.379 112.034 99.8108 112.31 99.0705 112.31C98.4016 112.31 97.8301 112.063 97.356 111.57C96.882 111.07 96.6449 110.463 96.6449 109.748C96.6449 109.027 96.882 108.42 97.356 107.927C97.8301 107.433 98.4016 107.186 99.0705 107.186C99.8108 107.186 100.379 107.459 100.775 108.005V105.365ZM98.1353 110.869C98.4276 111.161 98.7945 111.307 99.2361 111.307C99.6777 111.307 100.045 111.161 100.337 110.869C100.629 110.57 100.775 110.196 100.775 109.748C100.775 109.3 100.629 108.93 100.337 108.638C100.045 108.339 99.6777 108.19 99.2361 108.19C98.7945 108.19 98.4276 108.339 98.1353 108.638C97.8431 108.93 97.697 109.3 97.697 109.748C97.697 110.196 97.8431 110.57 98.1353 110.869ZM106.911 105.365H107.963V112.184H106.911V111.482C106.515 112.034 105.947 112.31 105.206 112.31C104.537 112.31 103.966 112.063 103.492 111.57C103.018 111.07 102.781 110.463 102.781 109.748C102.781 109.027 103.018 108.42 103.492 107.927C103.966 107.433 104.537 107.186 105.206 107.186C105.947 107.186 106.515 107.459 106.911 108.005V105.365ZM104.271 110.869C104.563 111.161 104.93 111.307 105.372 111.307C105.814 111.307 106.18 111.161 106.473 110.869C106.765 110.57 106.911 110.196 106.911 109.748C106.911 109.3 106.765 108.93 106.473 108.638C106.18 108.339 105.814 108.19 105.372 108.19C104.93 108.19 104.563 108.339 104.271 108.638C103.979 108.93 103.833 109.3 103.833 109.748C103.833 110.196 103.979 110.57 104.271 110.869ZM110.241 108.131C110.508 107.527 111.008 107.225 111.742 107.225V108.365C111.339 108.339 110.988 108.436 110.69 108.657C110.391 108.872 110.241 109.229 110.241 109.729V112.184H109.189V107.313H110.241V108.131ZM113.119 110.196C113.197 110.567 113.375 110.852 113.654 111.054C113.934 111.248 114.275 111.346 114.677 111.346C115.236 111.346 115.655 111.145 115.934 110.742L116.801 111.248C116.32 111.956 115.609 112.31 114.667 112.31C113.875 112.31 113.236 112.07 112.748 111.589C112.261 111.102 112.018 110.489 112.018 109.748C112.018 109.021 112.258 108.414 112.739 107.927C113.219 107.433 113.836 107.186 114.59 107.186C115.304 107.186 115.888 107.436 116.343 107.936C116.804 108.436 117.035 109.044 117.035 109.758C117.035 109.868 117.022 110.015 116.996 110.196H113.119ZM113.109 109.339H115.973C115.901 108.943 115.736 108.644 115.476 108.443C115.223 108.242 114.924 108.141 114.58 108.141C114.19 108.141 113.865 108.248 113.606 108.462C113.346 108.677 113.18 108.969 113.109 109.339ZM118.715 108.657C118.715 108.82 118.803 108.949 118.978 109.047C119.16 109.138 119.377 109.219 119.631 109.29C119.89 109.355 120.15 109.433 120.41 109.524C120.67 109.615 120.887 109.771 121.063 109.992C121.244 110.206 121.335 110.479 121.335 110.81C121.335 111.278 121.154 111.645 120.79 111.911C120.433 112.177 119.981 112.31 119.436 112.31C118.955 112.31 118.543 112.21 118.199 112.008C117.855 111.807 117.604 111.528 117.449 111.171L118.355 110.644C118.523 111.112 118.884 111.346 119.436 111.346C119.988 111.346 120.264 111.164 120.264 110.8C120.264 110.644 120.173 110.518 119.991 110.42C119.816 110.323 119.598 110.242 119.338 110.177C119.085 110.105 118.829 110.024 118.569 109.933C118.309 109.842 118.088 109.693 117.906 109.485C117.731 109.271 117.643 109.001 117.643 108.677C117.643 108.229 117.812 107.868 118.15 107.595C118.494 107.323 118.92 107.186 119.426 107.186C119.829 107.186 120.186 107.277 120.498 107.459C120.816 107.634 121.059 107.881 121.228 108.199L120.342 108.696C120.173 108.326 119.868 108.141 119.426 108.141C119.225 108.141 119.056 108.186 118.92 108.277C118.783 108.362 118.715 108.488 118.715 108.657ZM122.91 108.657C122.91 108.82 122.998 108.949 123.173 109.047C123.355 109.138 123.573 109.219 123.826 109.29C124.086 109.355 124.345 109.433 124.605 109.524C124.865 109.615 125.083 109.771 125.258 109.992C125.44 110.206 125.531 110.479 125.531 110.81C125.531 111.278 125.349 111.645 124.985 111.911C124.628 112.177 124.177 112.31 123.631 112.31C123.15 112.31 122.738 112.21 122.394 112.008C122.05 111.807 121.8 111.528 121.644 111.171L122.55 110.644C122.719 111.112 123.079 111.346 123.631 111.346C124.183 111.346 124.459 111.164 124.459 110.8C124.459 110.644 124.368 110.518 124.186 110.42C124.011 110.323 123.793 110.242 123.534 110.177C123.28 110.105 123.024 110.024 122.764 109.933C122.504 109.842 122.284 109.693 122.102 109.485C121.926 109.271 121.839 109.001 121.839 108.677C121.839 108.229 122.008 107.868 122.345 107.595C122.689 107.323 123.115 107.186 123.621 107.186C124.024 107.186 124.381 107.277 124.693 107.459C125.011 107.634 125.255 107.881 125.423 108.199L124.537 108.696C124.368 108.326 124.063 108.141 123.621 108.141C123.42 108.141 123.251 108.186 123.115 108.277C122.978 108.362 122.91 108.488 122.91 108.657Z" fill="#0B4A94"/>
<path d="M20.6704 137.259H21.2639V143.194H20.7552L17.4486 138.362V143.194H16.8552V137.259H17.3639L20.6704 142.092V137.259ZM26.1788 138.955H26.7383V143.194H26.1788V142.363C25.7887 142.985 25.2179 143.296 24.4661 143.296C23.8613 143.296 23.3441 143.081 22.9146 142.652C22.4906 142.222 22.2787 141.696 22.2787 141.075C22.2787 140.453 22.4906 139.927 22.9146 139.498C23.3441 139.068 23.8613 138.853 24.4661 138.853C25.2179 138.853 25.7887 139.164 26.1788 139.786V138.955ZM23.3215 142.27C23.6437 142.592 24.0394 142.753 24.5085 142.753C24.9776 142.753 25.3733 142.592 25.6955 142.27C26.0177 141.942 26.1788 141.544 26.1788 141.075C26.1788 140.606 26.0177 140.21 25.6955 139.888C25.3733 139.56 24.9776 139.396 24.5085 139.396C24.0394 139.396 23.6437 139.56 23.3215 139.888C22.9994 140.21 22.8383 140.606 22.8383 141.075C22.8383 141.544 22.9994 141.942 23.3215 142.27ZM32.4421 138.853C32.9169 138.853 33.2984 139.006 33.5867 139.311C33.8806 139.616 34.0276 140.029 34.0276 140.549V143.194H33.468V140.549C33.468 140.182 33.3719 139.899 33.1797 139.701C32.9932 139.498 32.7445 139.396 32.4336 139.396C32.0832 139.396 31.7978 139.515 31.5773 139.752C31.3625 139.984 31.2551 140.348 31.2551 140.846V143.194H30.6956V140.549C30.6956 140.176 30.6051 139.891 30.4243 139.693C30.249 139.495 30.0088 139.396 29.7036 139.396C29.3645 139.396 29.0762 139.515 28.8388 139.752C28.6014 139.989 28.4827 140.354 28.4827 140.846V143.194H27.9231V138.955H28.4827V139.574C28.7879 139.094 29.2203 138.853 29.7799 138.853C30.3903 138.853 30.8199 139.111 31.0686 139.625C31.3738 139.111 31.8317 138.853 32.4421 138.853ZM37.0684 138.853C37.6958 138.853 38.2017 139.077 38.586 139.523C38.9761 139.964 39.1711 140.487 39.1711 141.092C39.1711 141.154 39.1654 141.241 39.1541 141.355H35.4321C35.4886 141.784 35.6695 142.126 35.9747 142.38C36.2856 142.629 36.6671 142.753 37.1193 142.753C37.4415 142.753 37.7184 142.688 37.9502 142.558C38.1876 142.423 38.3656 142.248 38.4843 142.033L38.9761 142.321C38.7895 142.621 38.5352 142.858 38.213 143.033C37.8908 143.208 37.5234 143.296 37.1108 143.296C36.4438 143.296 35.9012 143.087 35.4829 142.669C35.0647 142.25 34.8555 141.719 34.8555 141.075C34.8555 140.442 35.0619 139.913 35.4745 139.489C35.8871 139.065 36.4184 138.853 37.0684 138.853ZM37.0684 139.396C36.6275 139.396 36.2573 139.529 35.9577 139.794C35.6638 140.054 35.4886 140.394 35.4321 140.812H38.5945C38.538 140.365 38.3656 140.018 38.0773 139.769C37.7891 139.52 37.4528 139.396 37.0684 139.396Z" fill="#606060"/>
<path d="M20.1448 179.005C20.433 179.13 20.662 179.319 20.8315 179.573C21.0067 179.822 21.0944 180.108 21.0944 180.43C21.0944 180.888 20.9333 181.278 20.6111 181.6C20.2889 181.922 19.8989 182.083 19.4411 182.083H16.8552V176.148H19.2461C19.6869 176.148 20.0628 176.306 20.3737 176.623C20.6846 176.934 20.84 177.307 20.84 177.742C20.84 178.296 20.6083 178.717 20.1448 179.005ZM19.2461 176.708H17.4486V178.776H19.2461C19.523 178.776 19.7576 178.678 19.9498 178.48C20.1476 178.276 20.2465 178.03 20.2465 177.742C20.2465 177.459 20.1476 177.216 19.9498 177.013C19.7576 176.809 19.523 176.708 19.2461 176.708ZM19.4411 181.523C19.735 181.523 19.9837 181.419 20.1872 181.21C20.3963 180.995 20.5009 180.735 20.5009 180.43C20.5009 180.13 20.3963 179.873 20.1872 179.658C19.9837 179.443 19.735 179.336 19.4411 179.336H17.4486V181.523H19.4411ZM25.0952 177.844H25.6547V182.083H25.0952V181.422C24.7786 181.93 24.3039 182.185 23.6708 182.185C23.1564 182.185 22.7495 182.029 22.4499 181.718C22.156 181.402 22.009 180.978 22.009 180.447V177.844H22.5686V180.447C22.5686 180.825 22.6675 181.119 22.8654 181.328C23.0688 181.538 23.3543 181.642 23.7217 181.642C24.1286 181.642 24.4593 181.515 24.7136 181.261C24.968 181.001 25.0952 180.602 25.0952 180.065V177.844ZM27.2794 178.954C27.2794 179.147 27.3641 179.299 27.5337 179.412C27.7033 179.525 27.9096 179.613 28.1526 179.675C28.3957 179.737 28.6387 179.808 28.8818 179.887C29.1248 179.961 29.3311 180.088 29.5007 180.269C29.6703 180.444 29.7551 180.676 29.7551 180.964C29.7551 181.326 29.6109 181.62 29.3227 181.846C29.04 182.072 28.6726 182.185 28.2205 182.185C27.8135 182.185 27.4659 182.094 27.1776 181.913C26.895 181.733 26.6972 181.498 26.5841 181.21L27.0589 180.93C27.1381 181.15 27.2794 181.326 27.4828 181.456C27.692 181.58 27.9378 181.642 28.2205 181.642C28.4974 181.642 28.7292 181.588 28.9157 181.481C29.1022 181.368 29.1955 181.196 29.1955 180.964C29.1955 180.772 29.1107 180.619 28.9411 180.506C28.7716 180.393 28.5652 180.305 28.3222 180.243C28.0792 180.181 27.8361 180.113 27.5931 180.04C27.35 179.961 27.1437 179.833 26.9741 179.658C26.8046 179.477 26.7198 179.243 26.7198 178.954C26.7198 178.61 26.8554 178.321 27.1267 178.09C27.4037 177.858 27.7513 177.742 28.1696 177.742C28.5144 177.742 28.8168 177.821 29.0768 177.979C29.3368 178.132 29.529 178.341 29.6533 178.607L29.187 178.878C29.0231 178.483 28.6839 178.285 28.1696 178.285C27.9265 178.285 27.7174 178.344 27.5422 178.463C27.367 178.576 27.2794 178.74 27.2794 178.954ZM31.2152 176.826C31.1361 176.906 31.04 176.945 30.9269 176.945C30.8139 176.945 30.7178 176.906 30.6387 176.826C30.5595 176.747 30.52 176.651 30.52 176.538C30.52 176.425 30.5595 176.329 30.6387 176.25C30.7178 176.171 30.8139 176.131 30.9269 176.131C31.04 176.131 31.1361 176.171 31.2152 176.25C31.2943 176.329 31.3339 176.425 31.3339 176.538C31.3339 176.651 31.2943 176.747 31.2152 176.826ZM30.6471 182.083V177.844H31.2067V182.083H30.6471ZM34.3781 177.742C34.8925 177.742 35.2966 177.9 35.5905 178.217C35.8901 178.528 36.0399 178.949 36.0399 179.48V182.083H35.4803V179.48C35.4803 179.101 35.3786 178.808 35.1751 178.598C34.9772 178.389 34.6946 178.285 34.3272 178.285C33.9203 178.285 33.5896 178.415 33.3353 178.675C33.0809 178.929 32.9537 179.325 32.9537 179.862V182.083H32.3942V177.844H32.9537V178.505C33.2703 177.996 33.745 177.742 34.3781 177.742ZM39.0804 177.742C39.7078 177.742 40.2137 177.965 40.598 178.412C40.988 178.853 41.183 179.376 41.183 179.98C41.183 180.043 41.1774 180.13 41.1661 180.243H37.444C37.5006 180.673 37.6814 181.015 37.9867 181.269C38.2975 181.518 38.6791 181.642 39.1312 181.642C39.4534 181.642 39.7304 181.577 39.9621 181.447C40.1995 181.311 40.3776 181.136 40.4963 180.921L40.988 181.21C40.8015 181.509 40.5471 181.747 40.225 181.922C39.9028 182.097 39.5354 182.185 39.1228 182.185C38.4558 182.185 37.9132 181.976 37.4949 181.557C37.0766 181.139 36.8675 180.608 36.8675 179.963C36.8675 179.33 37.0738 178.802 37.4864 178.378C37.8991 177.954 38.4304 177.742 39.0804 177.742ZM39.0804 178.285C38.6395 178.285 38.2693 178.418 37.9697 178.683C37.6758 178.943 37.5006 179.282 37.444 179.701H40.6065C40.55 179.254 40.3776 178.906 40.0893 178.658C39.801 178.409 39.4647 178.285 39.0804 178.285ZM42.3484 178.954C42.3484 179.147 42.4332 179.299 42.6028 179.412C42.7723 179.525 42.9786 179.613 43.2217 179.675C43.4647 179.737 43.7078 179.808 43.9508 179.887C44.1939 179.961 44.4002 180.088 44.5697 180.269C44.7393 180.444 44.8241 180.676 44.8241 180.964C44.8241 181.326 44.68 181.62 44.3917 181.846C44.1091 182.072 43.7417 182.185 43.2895 182.185C42.8825 182.185 42.5349 182.094 42.2467 181.913C41.9641 181.733 41.7662 181.498 41.6532 181.21L42.128 180.93C42.2071 181.15 42.3484 181.326 42.5519 181.456C42.761 181.58 43.0069 181.642 43.2895 181.642C43.5665 181.642 43.7982 181.588 43.9847 181.481C44.1713 181.368 44.2645 181.196 44.2645 180.964C44.2645 180.772 44.1797 180.619 44.0102 180.506C43.8406 180.393 43.6343 180.305 43.3912 180.243C43.1482 180.181 42.9052 180.113 42.6621 180.04C42.4191 179.961 42.2128 179.833 42.0432 179.658C41.8736 179.477 41.7888 179.243 41.7888 178.954C41.7888 178.61 41.9245 178.321 42.1958 178.09C42.4728 177.858 42.8204 177.742 43.2386 177.742C43.5834 177.742 43.8858 177.821 44.1458 177.979C44.4058 178.132 44.598 178.341 44.7224 178.607L44.256 178.878C44.0921 178.483 43.753 178.285 43.2386 178.285C42.9956 178.285 42.7865 178.344 42.6112 178.463C42.436 178.576 42.3484 178.74 42.3484 178.954ZM45.9418 178.954C45.9418 179.147 46.0266 179.299 46.1961 179.412C46.3657 179.525 46.572 179.613 46.8151 179.675C47.0581 179.737 47.3012 179.808 47.5442 179.887C47.7873 179.961 47.9936 180.088 48.1631 180.269C48.3327 180.444 48.4175 180.676 48.4175 180.964C48.4175 181.326 48.2734 181.62 47.9851 181.846C47.7025 182.072 47.3351 182.185 46.8829 182.185C46.4759 182.185 46.1283 182.094 45.8401 181.913C45.5574 181.733 45.3596 181.498 45.2466 181.21L45.7214 180.93C45.8005 181.15 45.9418 181.326 46.1453 181.456C46.3544 181.58 46.6003 181.642 46.8829 181.642C47.1599 181.642 47.3916 181.588 47.5781 181.481C47.7647 181.368 47.8579 181.196 47.8579 180.964C47.8579 180.772 47.7731 180.619 47.6036 180.506C47.434 180.393 47.2277 180.305 46.9846 180.243C46.7416 180.181 46.4985 180.113 46.2555 180.04C46.0124 179.961 45.8061 179.833 45.6366 179.658C45.467 179.477 45.3822 179.243 45.3822 178.954C45.3822 178.61 45.5179 178.321 45.7892 178.09C46.0661 177.858 46.4138 177.742 46.832 177.742C47.1768 177.742 47.4792 177.821 47.7392 177.979C47.9992 178.132 48.1914 178.341 48.3157 178.607L47.8494 178.878C47.6855 178.483 47.3464 178.285 46.832 178.285C46.589 178.285 46.3798 178.344 46.2046 178.463C46.0294 178.576 45.9418 178.74 45.9418 178.954ZM55.5063 182.083L54.9552 180.625H52.1404L51.5893 182.083H50.9619L53.2426 176.148H53.853L56.1337 182.083H55.5063ZM52.3523 180.065H54.7432L53.5478 176.886L52.3523 180.065ZM58.7037 182.185C58.0649 182.185 57.5336 181.973 57.1097 181.549C56.6858 181.119 56.4738 180.591 56.4738 179.963C56.4738 179.336 56.6858 178.81 57.1097 178.386C57.5336 177.957 58.0649 177.742 58.7037 177.742C59.1219 177.742 59.4978 177.844 59.8313 178.047C60.1648 178.245 60.4078 178.514 60.5604 178.853L60.1026 179.116C59.9895 178.861 59.8058 178.661 59.5515 178.514C59.3028 178.361 59.0202 178.285 58.7037 178.285C58.2345 178.285 57.8389 178.449 57.5167 178.776C57.1945 179.099 57.0334 179.494 57.0334 179.963C57.0334 180.433 57.1945 180.831 57.5167 181.159C57.8389 181.481 58.2345 181.642 58.7037 181.642C59.0202 181.642 59.3028 181.569 59.5515 181.422C59.8002 181.269 59.9952 181.066 60.1365 180.811L60.6028 181.083C60.4276 181.422 60.1704 181.69 59.8313 181.888C59.4921 182.086 59.1163 182.185 58.7037 182.185ZM63.3403 182.185C62.7016 182.185 62.1703 181.973 61.7463 181.549C61.3224 181.119 61.1105 180.591 61.1105 179.963C61.1105 179.336 61.3224 178.81 61.7463 178.386C62.1703 177.957 62.7016 177.742 63.3403 177.742C63.7586 177.742 64.1344 177.844 64.4679 178.047C64.8014 178.245 65.0444 178.514 65.1971 178.853L64.7392 179.116C64.6262 178.861 64.4425 178.661 64.1881 178.514C63.9394 178.361 63.6568 178.285 63.3403 178.285C62.8711 178.285 62.4755 178.449 62.1533 178.776C61.8311 179.099 61.67 179.494 61.67 179.963C61.67 180.433 61.8311 180.831 62.1533 181.159C62.4755 181.481 62.8711 181.642 63.3403 181.642C63.6568 181.642 63.9394 181.569 64.1881 181.422C64.4368 181.269 64.6318 181.066 64.7731 180.811L65.2395 181.083C65.0642 181.422 64.8071 181.69 64.4679 181.888C64.1288 182.086 63.7529 182.185 63.3403 182.185ZM69.5539 181.549C69.1243 181.973 68.5987 182.185 67.9769 182.185C67.3552 182.185 66.8267 181.973 66.3915 181.549C65.9619 181.119 65.7471 180.591 65.7471 179.963C65.7471 179.336 65.9619 178.81 66.3915 178.386C66.8267 177.957 67.3552 177.742 67.9769 177.742C68.5987 177.742 69.1243 177.957 69.5539 178.386C69.9891 178.81 70.2067 179.336 70.2067 179.963C70.2067 180.591 69.9891 181.119 69.5539 181.549ZM66.7899 181.159C67.1121 181.481 67.5078 181.642 67.9769 181.642C68.4461 181.642 68.8417 181.481 69.1639 181.159C69.4861 180.831 69.6472 180.433 69.6472 179.963C69.6472 179.494 69.4861 179.099 69.1639 178.776C68.8417 178.449 68.4461 178.285 67.9769 178.285C67.5078 178.285 67.1121 178.449 66.7899 178.776C66.4678 179.099 66.3067 179.494 66.3067 179.963C66.3067 180.433 66.4678 180.831 66.7899 181.159ZM74.1275 177.844H74.6871V182.083H74.1275V181.422C73.811 181.93 73.3362 182.185 72.7032 182.185C72.1888 182.185 71.7818 182.029 71.4823 181.718C71.1884 181.402 71.0414 180.978 71.0414 180.447V177.844H71.601V180.447C71.601 180.825 71.6999 181.119 71.8977 181.328C72.1012 181.538 72.3866 181.642 72.754 181.642C73.161 181.642 73.4917 181.515 73.746 181.261C74.0004 181.001 74.1275 180.602 74.1275 180.065V177.844ZM77.8548 177.742C78.3692 177.742 78.7733 177.9 79.0672 178.217C79.3668 178.528 79.5166 178.949 79.5166 179.48V182.083H78.957V179.48C78.957 179.101 78.8552 178.808 78.6518 178.598C78.4539 178.389 78.1713 178.285 77.8039 178.285C77.397 178.285 77.0663 178.415 76.812 178.675C76.5576 178.929 76.4304 179.325 76.4304 179.862V182.083H75.8708V177.844H76.4304V178.505C76.747 177.996 77.2217 177.742 77.8548 177.742ZM82.8453 178.386H81.6244V180.955C81.6244 181.187 81.6697 181.354 81.7601 181.456C81.8505 181.552 81.9862 181.603 82.1671 181.608C82.3479 181.608 82.574 181.603 82.8453 181.591V182.083C82.2518 182.173 81.8053 182.131 81.5057 181.956C81.2118 181.781 81.0649 181.447 81.0649 180.955V178.386H80.1746V177.844H81.0649V176.826L81.6244 176.657V177.844H82.8453V178.386ZM89.7976 176.148H90.3911V182.083H89.8824L86.5758 177.25V182.083H85.9823V176.148H86.491L89.7976 180.981V176.148ZM94.6446 177.844H95.2042V182.083H94.6446V181.422C94.3281 181.93 93.8533 182.185 93.2203 182.185C92.7059 182.185 92.2989 182.029 91.9994 181.718C91.7054 181.402 91.5585 180.978 91.5585 180.447V177.844H92.1181V180.447C92.1181 180.825 92.217 181.119 92.4148 181.328C92.6183 181.538 92.9037 181.642 93.2711 181.642C93.6781 181.642 94.0088 181.515 94.2631 181.261C94.5175 181.001 94.6446 180.602 94.6446 180.065V177.844ZM100.907 177.742C101.382 177.742 101.763 177.895 102.052 178.2C102.345 178.505 102.492 178.918 102.492 179.438V182.083H101.933V179.438C101.933 179.07 101.837 178.788 101.645 178.59C101.458 178.386 101.209 178.285 100.898 178.285C100.548 178.285 100.263 178.403 100.042 178.641C99.8273 178.873 99.72 179.237 99.72 179.734V182.083H99.1604V179.438C99.1604 179.065 99.0699 178.779 98.8891 178.581C98.7138 178.384 98.4736 178.285 98.1684 178.285C97.8293 178.285 97.541 178.403 97.3036 178.641C97.0662 178.878 96.9475 179.243 96.9475 179.734V182.083H96.3879V177.844H96.9475V178.463C97.2527 177.982 97.6851 177.742 98.2447 177.742C98.8552 177.742 99.2847 177.999 99.5334 178.514C99.8387 177.999 100.296 177.742 100.907 177.742ZM105.847 177.742C106.452 177.742 106.966 177.957 107.39 178.386C107.82 178.816 108.034 179.342 108.034 179.963C108.034 180.585 107.82 181.111 107.39 181.54C106.966 181.97 106.452 182.185 105.847 182.185C105.095 182.185 104.524 181.874 104.134 181.252V182.083H103.575V176.148H104.134V178.675C104.524 178.053 105.095 177.742 105.847 177.742ZM104.618 181.159C104.94 181.481 105.335 181.642 105.805 181.642C106.274 181.642 106.669 181.481 106.992 181.159C107.314 180.831 107.475 180.433 107.475 179.963C107.475 179.494 107.314 179.099 106.992 178.776C106.669 178.449 106.274 178.285 105.805 178.285C105.335 178.285 104.94 178.449 104.618 178.776C104.295 179.099 104.134 179.494 104.134 179.963C104.134 180.433 104.295 180.831 104.618 181.159ZM110.923 177.742C111.551 177.742 112.057 177.965 112.441 178.412C112.831 178.853 113.026 179.376 113.026 179.98C113.026 180.043 113.02 180.13 113.009 180.243H109.287C109.343 180.673 109.524 181.015 109.83 181.269C110.14 181.518 110.522 181.642 110.974 181.642C111.296 181.642 111.573 181.577 111.805 181.447C112.042 181.311 112.221 181.136 112.339 180.921L112.831 181.21C112.644 181.509 112.39 181.747 112.068 181.922C111.746 182.097 111.378 182.185 110.966 182.185C110.299 182.185 109.756 181.976 109.338 181.557C108.92 181.139 108.71 180.608 108.71 179.963C108.71 179.33 108.917 178.802 109.329 178.378C109.742 177.954 110.273 177.742 110.923 177.742ZM110.923 178.285C110.482 178.285 110.112 178.418 109.813 178.683C109.519 178.943 109.343 179.282 109.287 179.701H112.449C112.393 179.254 112.221 178.906 111.932 178.658C111.644 178.409 111.308 178.285 110.923 178.285ZM114.476 178.548C114.736 178.033 115.182 177.776 115.815 177.776V178.319C115.431 178.319 115.112 178.432 114.857 178.658C114.603 178.884 114.476 179.24 114.476 179.726V182.083H113.916V177.844H114.476V178.548Z" fill="#606060"/>
<path d="M16.8552 214.173H17.4486V220.108H16.8552V214.173ZM22.1581 214.733H19.4026V216.92H22.031V217.48H19.4026V220.108H18.8092V214.173H22.1581V214.733ZM24.955 220.21C24.4124 220.21 23.9461 220.082 23.5561 219.828C23.1717 219.568 22.9032 219.212 22.7506 218.76L23.2593 218.463C23.3667 218.83 23.5646 219.119 23.8528 219.328C24.1411 219.531 24.5113 219.633 24.9635 219.633C25.4044 219.633 25.7463 219.537 25.9894 219.345C26.2381 219.147 26.3624 218.887 26.3624 218.565C26.3624 218.254 26.2494 218.019 26.0233 217.861C25.7972 217.703 25.4242 217.539 24.9041 217.369C24.288 217.166 23.8811 217.002 23.6833 216.878C23.2311 216.606 23.005 216.213 23.005 215.699C23.005 215.196 23.1802 214.8 23.5306 214.512C23.8811 214.218 24.3135 214.071 24.8278 214.071C25.2913 214.071 25.6926 214.193 26.0318 214.436C26.3709 214.673 26.6224 214.978 26.7864 215.352L26.2861 215.631C26.0148 214.976 25.5287 214.648 24.8278 214.648C24.4604 214.648 24.1637 214.738 23.9376 214.919C23.7115 215.1 23.5985 215.352 23.5985 215.674C23.5985 215.968 23.7002 216.188 23.9037 216.335C24.1072 216.482 24.4435 216.632 24.9126 216.784C25.1274 216.858 25.28 216.912 25.3705 216.945C25.4665 216.974 25.6022 217.025 25.7774 217.098C25.9583 217.166 26.0911 217.228 26.1759 217.285C26.2607 217.335 26.3624 217.409 26.4811 217.505C26.6055 217.595 26.6931 217.689 26.744 217.785C26.8005 217.875 26.8485 217.988 26.8881 218.124C26.9333 218.254 26.9559 218.395 26.9559 218.548C26.9559 219.051 26.7722 219.455 26.4048 219.76C26.0374 220.06 25.5542 220.21 24.955 220.21ZM30.7058 220.21C29.8071 220.21 29.0638 219.913 28.476 219.319C27.8882 218.726 27.5943 218 27.5943 217.14C27.5943 216.281 27.8882 215.555 28.476 214.962C29.0638 214.368 29.8071 214.071 30.7058 214.071C31.2541 214.071 31.7572 214.204 32.215 214.47C32.6728 214.73 33.0261 215.083 33.2748 215.53L32.7491 215.835C32.5626 215.473 32.2856 215.185 31.9182 214.97C31.5508 214.755 31.1467 214.648 30.7058 214.648C29.9654 214.648 29.3606 214.888 28.8914 215.368C28.4223 215.849 28.1877 216.44 28.1877 217.14C28.1877 217.841 28.4223 218.432 28.8914 218.912C29.3606 219.393 29.9654 219.633 30.7058 219.633C31.1467 219.633 31.5508 219.526 31.9182 219.311C32.2856 219.096 32.5626 218.808 32.7491 218.446L33.2748 218.743C33.0317 219.189 32.6785 219.546 32.215 219.811C31.7572 220.077 31.2541 220.21 30.7058 220.21ZM39.1428 220.21C38.2441 220.21 37.5009 219.913 36.913 219.319C36.3252 218.726 36.0313 218 36.0313 217.14C36.0313 216.281 36.3252 215.555 36.913 214.962C37.5009 214.368 38.2441 214.071 39.1428 214.071C39.6911 214.071 40.1942 214.204 40.652 214.47C41.1098 214.73 41.4631 215.083 41.7118 215.53L41.1861 215.835C40.9996 215.473 40.7226 215.185 40.3553 214.97C39.9879 214.755 39.5837 214.648 39.1428 214.648C38.4024 214.648 37.7976 214.888 37.3285 215.368C36.8593 215.849 36.6248 216.44 36.6248 217.14C36.6248 217.841 36.8593 218.432 37.3285 218.912C37.7976 219.393 38.4024 219.633 39.1428 219.633C39.5837 219.633 39.9879 219.526 40.3553 219.311C40.7226 219.096 40.9996 218.808 41.1861 218.446L41.7118 218.743C41.4687 219.189 41.1155 219.546 40.652 219.811C40.1942 220.077 39.6911 220.21 39.1428 220.21ZM46.1141 219.574C45.6845 219.998 45.1588 220.21 44.5371 220.21C43.9153 220.21 43.3869 219.998 42.9516 219.574C42.5221 219.144 42.3073 218.616 42.3073 217.988C42.3073 217.361 42.5221 216.835 42.9516 216.411C43.3869 215.982 43.9153 215.767 44.5371 215.767C45.1588 215.767 45.6845 215.982 46.1141 216.411C46.5493 216.835 46.7669 217.361 46.7669 217.988C46.7669 218.616 46.5493 219.144 46.1141 219.574ZM43.3501 219.184C43.6723 219.506 44.068 219.667 44.5371 219.667C45.0062 219.667 45.4019 219.506 45.7241 219.184C46.0463 218.856 46.2073 218.457 46.2073 217.988C46.2073 217.519 46.0463 217.124 45.7241 216.801C45.4019 216.473 45.0062 216.31 44.5371 216.31C44.068 216.31 43.6723 216.473 43.3501 216.801C43.0279 217.124 42.8668 217.519 42.8668 217.988C42.8668 218.457 43.0279 218.856 43.3501 219.184ZM51.349 214.173H51.9086V220.108H51.349V219.277C50.959 219.899 50.3881 220.21 49.6364 220.21C49.0316 220.21 48.5144 219.995 48.0848 219.565C47.6609 219.136 47.449 218.61 47.449 217.988C47.449 217.367 47.6609 216.841 48.0848 216.411C48.5144 215.982 49.0316 215.767 49.6364 215.767C50.3881 215.767 50.959 216.078 51.349 216.7V214.173ZM48.4918 219.184C48.814 219.506 49.2096 219.667 49.6788 219.667C50.1479 219.667 50.5436 219.506 50.8658 219.184C51.1879 218.856 51.349 218.457 51.349 217.988C51.349 217.519 51.1879 217.124 50.8658 216.801C50.5436 216.473 50.1479 216.31 49.6788 216.31C49.2096 216.31 48.814 216.473 48.4918 216.801C48.1696 217.124 48.0085 217.519 48.0085 217.988C48.0085 218.457 48.1696 218.856 48.4918 219.184ZM55.0519 215.767C55.6793 215.767 56.1852 215.99 56.5695 216.437C56.9596 216.878 57.1546 217.4 57.1546 218.005C57.1546 218.067 57.1489 218.155 57.1376 218.268H53.4156C53.4721 218.698 53.653 219.04 53.9582 219.294C54.2691 219.543 54.6506 219.667 55.1028 219.667C55.425 219.667 55.7019 219.602 55.9337 219.472C56.1711 219.336 56.3491 219.161 56.4678 218.946L56.9596 219.235C56.773 219.534 56.5187 219.772 56.1965 219.947C55.8743 220.122 55.5069 220.21 55.0943 220.21C54.4273 220.21 53.8847 220.001 53.4665 219.582C53.0482 219.164 52.839 218.633 52.839 217.988C52.839 217.355 53.0454 216.827 53.458 216.403C53.8706 215.979 54.4019 215.767 55.0519 215.767ZM55.0519 216.31C54.611 216.31 54.2408 216.442 53.9412 216.708C53.6473 216.968 53.4721 217.307 53.4156 217.725H56.578C56.5215 217.279 56.3491 216.931 56.0608 216.683C55.7726 216.434 55.4363 216.31 55.0519 216.31Z" fill="#606060"/>
</g>
<path d="M141.069 7.18519C141.069 4.32149 143.391 2 146.255 2H395.269C398.132 2 400.454 4.32148 400.454 7.18518V258.666H141.069V7.18519Z" fill="url(#paint2_linear_3331_10402)"/>
<g clip-path="url(#clip1_3331_10402)">
<path d="M147.986 12.3699C147.986 10.4607 149.534 8.91309 151.443 8.91309H390.08C391.989 8.91309 393.537 10.4607 393.537 12.3699V250.888H147.986V12.3699Z" fill="url(#paint3_linear_3331_10402)"/>
<g filter="url(#filter1_d_3331_10402)">
<path d="M147.986 12.1897C147.986 10.3801 149.453 8.91309 151.263 8.91309H391.321C393.13 8.91309 394.597 10.3801 394.597 12.1897V54.0934C394.597 55.903 393.13 57.37 391.321 57.37H151.263C149.453 57.37 147.986 55.903 147.986 54.0934V12.1897Z" fill="white"/>
</g>
<rect x="158.37" y="67.7544" width="224.979" height="60.5712" fill="white"/>
<path d="M198.169 184.569H378.161" stroke="#EBF3FA" stroke-width="0.661246"/>
<rect x="198.174" y="159.476" width="38.0733" height="10.3836" rx="5.19181" fill="#EBF3FA"/>
<rect x="345.275" y="159.476" width="32.8815" height="10.3836" rx="5.19181" fill="#EBF3FA"/>
<rect x="198.174" y="217.451" width="38.0733" height="10.3836" rx="5.19181" fill="#EBF3FA"/>
<rect x="345.275" y="217.451" width="32.8815" height="10.3836" rx="5.19181" fill="#EBF3FA"/>
<path d="M198.174 149.092C198.174 145.747 200.886 143.035 204.231 143.035H258.745C262.09 143.035 264.802 145.747 264.802 149.092C264.802 152.438 262.09 155.149 258.745 155.149H204.231C200.886 155.149 198.174 152.438 198.174 149.092Z" fill="#EBF3FA"/>
<path d="M331.43 149.092C331.43 145.747 334.142 143.035 337.488 143.035H372.1C375.445 143.035 378.157 145.747 378.157 149.092C378.157 152.438 375.445 155.149 372.1 155.149H337.488C334.142 155.149 331.43 152.438 331.43 149.092Z" fill="#DCFEDF"/>
<path d="M198.174 207.068C198.174 203.723 200.886 201.011 204.231 201.011H258.745C262.09 201.011 264.802 203.723 264.802 207.068C264.802 210.413 262.09 213.125 258.745 213.125H204.231C200.886 213.125 198.174 210.413 198.174 207.068Z" fill="#EBF3FA"/>
<path d="M331.43 207.068C331.43 203.723 334.142 201.011 337.488 201.011H372.1C375.445 201.011 378.157 203.723 378.157 207.068C378.157 210.413 375.445 213.125 372.1 213.125H337.488C334.142 213.125 331.43 210.413 331.43 207.068Z" fill="#DCFEDF"/>
<rect x="160.966" y="140.44" width="31.1509" height="31.1509" rx="3.46121" fill="#EBF3FA"/>
<rect x="160.966" y="198.415" width="31.1509" height="31.1509" rx="3.46121" fill="#EBF3FA"/>
</g>
<path d="M160.963 30.4785H162.356V38.9585H160.963V30.4785ZM167.394 32.7439C168.226 32.7439 168.937 33.0548 169.527 33.6767C170.116 34.2905 170.411 35.0416 170.411 35.9299C170.411 36.8264 170.116 37.5815 169.527 38.1953C168.937 38.8091 168.226 39.116 167.394 39.116C166.474 39.116 165.767 38.7768 165.274 38.0984V41.3813H163.966V32.9014H165.274V33.7736C165.767 33.0871 166.474 32.7439 167.394 32.7439ZM165.82 37.3231C166.183 37.6865 166.639 37.8682 167.189 37.8682C167.738 37.8682 168.194 37.6865 168.557 37.3231C168.921 36.9516 169.103 36.4872 169.103 35.9299C169.103 35.3727 168.921 34.9123 168.557 34.5489C168.194 34.1774 167.738 33.9917 167.189 33.9917C166.639 33.9917 166.183 34.1774 165.82 34.5489C165.456 34.9123 165.274 35.3727 165.274 35.9299C165.274 36.4872 165.456 36.9516 165.82 37.3231ZM175.025 32.7439C175.857 32.7439 176.568 33.0548 177.157 33.6767C177.747 34.2905 178.041 35.0416 178.041 35.9299C178.041 36.8264 177.747 37.5815 177.157 38.1953C176.568 38.8091 175.857 39.116 175.025 39.116C174.104 39.116 173.398 38.7768 172.905 38.0984V41.3813H171.597V32.9014H172.905V33.7736C173.398 33.0871 174.104 32.7439 175.025 32.7439ZM173.45 37.3231C173.814 37.6865 174.27 37.8682 174.819 37.8682C175.368 37.8682 175.825 37.6865 176.188 37.3231C176.551 36.9516 176.733 36.4872 176.733 35.9299C176.733 35.3727 176.551 34.9123 176.188 34.5489C175.825 34.1774 175.368 33.9917 174.819 33.9917C174.27 33.9917 173.814 34.1774 173.45 34.5489C173.087 34.9123 172.905 35.3727 172.905 35.9299C172.905 36.4872 173.087 36.9516 173.45 37.3231ZM182.086 39.116C181.198 39.116 180.443 38.8091 179.821 38.1953C179.199 37.5815 178.888 36.8264 178.888 35.9299C178.888 35.0335 179.199 34.2784 179.821 33.6646C180.443 33.0508 181.198 32.7439 182.086 32.7439C182.983 32.7439 183.738 33.0508 184.352 33.6646C184.973 34.2784 185.284 35.0335 185.284 35.9299C185.284 36.8264 184.973 37.5815 184.352 38.1953C183.738 38.8091 182.983 39.116 182.086 39.116ZM180.742 37.2988C181.105 37.6623 181.553 37.844 182.086 37.844C182.619 37.844 183.067 37.6623 183.431 37.2988C183.794 36.9354 183.976 36.4791 183.976 35.9299C183.976 35.3808 183.794 34.9245 183.431 34.561C183.067 34.1976 182.619 34.0159 182.086 34.0159C181.553 34.0159 181.105 34.1976 180.742 34.561C180.378 34.9245 180.196 35.3808 180.196 35.9299C180.196 36.4791 180.378 36.9354 180.742 37.2988ZM189.678 30.4785C190.477 30.4785 191.143 30.745 191.677 31.2781C192.218 31.8111 192.488 32.4733 192.488 33.2648C192.488 34.0482 192.218 34.7104 191.677 35.2515C191.143 35.7846 190.477 36.0511 189.678 36.0511H187.945V38.9585H186.552V30.4785H189.678ZM189.678 34.7427C190.09 34.7427 190.429 34.6054 190.695 34.3309C190.962 34.0482 191.095 33.6928 191.095 33.2648C191.095 32.8368 190.962 32.4855 190.695 32.2109C190.429 31.9282 190.09 31.7869 189.678 31.7869H187.945V34.7427H189.678ZM197.984 32.9014H199.293V38.9585H197.984V38.0863C197.492 38.7727 196.785 39.116 195.864 39.116C195.032 39.116 194.322 38.8091 193.732 38.1953C193.143 37.5734 192.848 36.8183 192.848 35.9299C192.848 35.0335 193.143 34.2784 193.732 33.6646C194.322 33.0508 195.032 32.7439 195.864 32.7439C196.785 32.7439 197.492 33.0831 197.984 33.7615V32.9014ZM194.701 37.3231C195.065 37.6865 195.521 37.8682 196.07 37.8682C196.619 37.8682 197.076 37.6865 197.439 37.3231C197.803 36.9516 197.984 36.4872 197.984 35.9299C197.984 35.3727 197.803 34.9123 197.439 34.5489C197.076 34.1774 196.619 33.9917 196.07 33.9917C195.521 33.9917 195.065 34.1774 194.701 34.5489C194.338 34.9123 194.156 35.3727 194.156 35.9299C194.156 36.4872 194.338 36.9516 194.701 37.3231ZM204.9 32.9014H206.293L203.967 39.1523C203.386 40.7191 202.4 41.4621 201.011 41.3813V40.1578C201.423 40.182 201.754 40.0932 202.005 39.8913C202.255 39.6975 202.461 39.3906 202.623 38.9706L202.683 38.8495L200.115 32.9014H201.544L203.349 37.2988L204.9 32.9014ZM215.216 34.561C215.587 34.7549 215.878 35.0214 216.088 35.3606C216.298 35.6998 216.403 36.0915 216.403 36.5356C216.403 37.2302 216.157 37.8076 215.664 38.268C215.171 38.7283 214.57 38.9585 213.859 38.9585H210.225V30.4785H213.592C214.287 30.4785 214.872 30.7047 215.349 31.1569C215.834 31.6011 216.076 32.1584 216.076 32.8287C216.076 33.5636 215.789 34.1411 215.216 34.561ZM213.592 31.7869H211.618V34.0159H213.592C213.899 34.0159 214.158 33.9109 214.368 33.7009C214.578 33.4829 214.683 33.2163 214.683 32.9014C214.683 32.5864 214.578 32.3239 214.368 32.114C214.158 31.8959 213.899 31.7869 213.592 31.7869ZM213.859 37.6502C214.182 37.6502 214.452 37.5371 214.671 37.311C214.897 37.0768 215.01 36.7941 215.01 36.463C215.01 36.1318 214.897 35.8532 214.671 35.6271C214.452 35.3929 214.182 35.2758 213.859 35.2758H211.618V37.6502H213.859ZM221.735 32.9014H223.043V38.9585H221.735V38.1832C221.339 38.805 220.713 39.116 219.857 39.116C219.162 39.116 218.601 38.8939 218.173 38.4497C217.745 38.0055 217.531 37.3958 217.531 36.6204V32.9014H218.839V36.4872C218.839 36.9395 218.96 37.2867 219.203 37.529C219.445 37.7713 219.776 37.8924 220.196 37.8924C220.656 37.8924 221.028 37.7511 221.311 37.4684C221.593 37.1777 221.735 36.7376 221.735 36.148V32.9014ZM225.712 34.5731C225.712 34.775 225.821 34.9366 226.039 35.0577C226.266 35.1708 226.536 35.2717 226.851 35.3606C227.174 35.4413 227.497 35.5382 227.82 35.6513C228.143 35.7644 228.414 35.9582 228.632 36.2328C228.858 36.4993 228.971 36.8385 228.971 37.2504C228.971 37.8319 228.745 38.2882 228.293 38.6193C227.849 38.9504 227.287 39.116 226.609 39.116C226.011 39.116 225.498 38.9908 225.07 38.7404C224.642 38.4901 224.331 38.1428 224.138 37.6986L225.264 37.0444C225.474 37.6259 225.922 37.9167 226.609 37.9167C227.295 37.9167 227.639 37.6905 227.639 37.2383C227.639 37.0444 227.525 36.887 227.299 36.7658C227.081 36.6447 226.811 36.5437 226.488 36.463C226.173 36.3741 225.854 36.2732 225.531 36.1601C225.208 36.047 224.933 35.8613 224.707 35.6029C224.489 35.3363 224.38 35.0012 224.38 34.5974C224.38 34.0401 224.59 33.5919 225.01 33.2527C225.438 32.9135 225.967 32.7439 226.597 32.7439C227.097 32.7439 227.542 32.857 227.929 33.0831C228.325 33.3011 228.628 33.608 228.838 34.0038L227.735 34.6216C227.525 34.1613 227.146 33.9311 226.597 33.9311C226.346 33.9311 226.136 33.9876 225.967 34.1007C225.797 34.2057 225.712 34.3632 225.712 34.5731ZM231.286 31.7505C231.124 31.9121 230.931 31.9928 230.704 31.9928C230.478 31.9928 230.28 31.9121 230.111 31.7505C229.949 31.5809 229.869 31.3831 229.869 31.1569C229.869 30.9308 229.949 30.737 230.111 30.5754C230.272 30.4058 230.47 30.321 230.704 30.321C230.939 30.321 231.136 30.4058 231.298 30.5754C231.46 30.737 231.54 30.9308 231.54 31.1569C231.54 31.3831 231.455 31.5809 231.286 31.7505ZM230.05 38.9585V32.9014H231.359V38.9585H230.05ZM236.064 32.7439C236.758 32.7439 237.32 32.966 237.748 33.4102C238.176 33.8544 238.39 34.4641 238.39 35.2394V38.9585H237.081V35.3727C237.081 34.9204 236.96 34.5731 236.718 34.3309C236.476 34.0886 236.144 33.9674 235.725 33.9674C235.264 33.9674 234.893 34.1128 234.61 34.4035C234.327 34.6862 234.186 35.1223 234.186 35.7119V38.9585H232.878V32.9014H234.186V33.6767C234.582 33.0548 235.208 32.7439 236.064 32.7439ZM240.828 36.4872C240.925 36.9475 241.147 37.3029 241.494 37.5532C241.842 37.7955 242.266 37.9167 242.766 37.9167C243.461 37.9167 243.982 37.6663 244.329 37.1656L245.407 37.7955C244.81 38.6758 243.925 39.116 242.754 39.116C241.769 39.116 240.973 38.8172 240.368 38.2195C239.762 37.6138 239.459 36.8506 239.459 35.9299C239.459 35.0254 239.758 34.2703 240.356 33.6646C240.953 33.0508 241.721 32.7439 242.657 32.7439C243.546 32.7439 244.273 33.0548 244.838 33.6767C245.411 34.2986 245.698 35.0537 245.698 35.9421C245.698 36.0793 245.682 36.2611 245.65 36.4872H240.828ZM240.816 35.4211H244.378C244.289 34.9285 244.083 34.557 243.76 34.3066C243.445 34.0563 243.073 33.9311 242.645 33.9311C242.161 33.9311 241.757 34.0643 241.434 34.3309C241.111 34.5974 240.905 34.9608 240.816 35.4211ZM247.788 34.5731C247.788 34.775 247.897 34.9366 248.115 35.0577C248.341 35.1708 248.612 35.2717 248.926 35.3606C249.25 35.4413 249.573 35.5382 249.896 35.6513C250.219 35.7644 250.489 35.9582 250.707 36.2328C250.933 36.4993 251.046 36.8385 251.046 37.2504C251.046 37.8319 250.82 38.2882 250.368 38.6193C249.924 38.9504 249.363 39.116 248.684 39.116C248.087 39.116 247.574 38.9908 247.146 38.7404C246.718 38.4901 246.407 38.1428 246.213 37.6986L247.34 37.0444C247.549 37.6259 247.998 37.9167 248.684 37.9167C249.371 37.9167 249.714 37.6905 249.714 37.2383C249.714 37.0444 249.601 36.887 249.375 36.7658C249.157 36.6447 248.886 36.5437 248.563 36.463C248.248 36.3741 247.929 36.2732 247.606 36.1601C247.283 36.047 247.008 35.8613 246.782 35.6029C246.564 35.3363 246.455 35.0012 246.455 34.5974C246.455 34.0401 246.665 33.5919 247.085 33.2527C247.513 32.9135 248.042 32.7439 248.672 32.7439C249.173 32.7439 249.617 32.857 250.005 33.0831C250.4 33.3011 250.703 33.608 250.913 34.0038L249.811 34.6216C249.601 34.1613 249.221 33.9311 248.672 33.9311C248.422 33.9311 248.212 33.9876 248.042 34.1007C247.873 34.2057 247.788 34.3632 247.788 34.5731ZM253.005 34.5731C253.005 34.775 253.114 34.9366 253.332 35.0577C253.558 35.1708 253.829 35.2717 254.144 35.3606C254.467 35.4413 254.79 35.5382 255.113 35.6513C255.436 35.7644 255.706 35.9582 255.924 36.2328C256.151 36.4993 256.264 36.8385 256.264 37.2504C256.264 37.8319 256.037 38.2882 255.585 38.6193C255.141 38.9504 254.58 39.116 253.901 39.116C253.304 39.116 252.791 38.9908 252.363 38.7404C251.935 38.4901 251.624 38.1428 251.43 37.6986L252.557 37.0444C252.767 37.6259 253.215 37.9167 253.901 37.9167C254.588 37.9167 254.931 37.6905 254.931 37.2383C254.931 37.0444 254.818 36.887 254.592 36.7658C254.374 36.6447 254.103 36.5437 253.78 36.463C253.465 36.3741 253.146 36.2732 252.823 36.1601C252.5 36.047 252.226 35.8613 251.999 35.6029C251.781 35.3363 251.672 35.0012 251.672 34.5974C251.672 34.0401 251.882 33.5919 252.302 33.2527C252.73 32.9135 253.259 32.7439 253.889 32.7439C254.39 32.7439 254.834 32.857 255.222 33.0831C255.618 33.3011 255.92 33.608 256.13 34.0038L255.028 34.6216C254.818 34.1613 254.438 33.9311 253.889 33.9311C253.639 33.9311 253.429 33.9876 253.259 34.1007C253.09 34.2057 253.005 34.3632 253.005 34.5731ZM266.051 38.9585L265.458 37.2504H261.848L261.254 38.9585H259.74L262.817 30.4785H264.488L267.553 38.9585H266.051ZM262.308 35.9421H264.997L263.653 32.114L262.308 35.9421ZM271.086 39.116C270.173 39.116 269.41 38.8091 268.796 38.1953C268.19 37.5815 267.887 36.8264 267.887 35.9299C267.887 35.0254 268.19 34.2703 268.796 33.6646C269.41 33.0508 270.173 32.7439 271.086 32.7439C271.675 32.7439 272.212 32.8852 272.697 33.1679C273.181 33.4506 273.545 33.8301 273.787 34.3066L272.66 34.9608C272.523 34.6701 272.313 34.4439 272.03 34.2824C271.756 34.1128 271.437 34.028 271.073 34.028C270.54 34.028 270.092 34.2097 269.729 34.5731C269.373 34.9366 269.196 35.3888 269.196 35.9299C269.196 36.471 269.373 36.9233 269.729 37.2867C270.092 37.6502 270.54 37.8319 271.073 37.8319C271.429 37.8319 271.748 37.7471 272.03 37.5775C272.321 37.4079 272.539 37.1817 272.685 36.8991L273.811 37.5411C273.553 38.0257 273.181 38.4093 272.697 38.692C272.212 38.9746 271.675 39.116 271.086 39.116ZM277.521 39.116C276.609 39.116 275.845 38.8091 275.232 38.1953C274.626 37.5815 274.323 36.8264 274.323 35.9299C274.323 35.0254 274.626 34.2703 275.232 33.6646C275.845 33.0508 276.609 32.7439 277.521 32.7439C278.111 32.7439 278.648 32.8852 279.132 33.1679C279.617 33.4506 279.98 33.8301 280.223 34.3066L279.096 34.9608C278.959 34.6701 278.749 34.4439 278.466 34.2824C278.192 34.1128 277.873 34.028 277.509 34.028C276.976 34.028 276.528 34.2097 276.164 34.5731C275.809 34.9366 275.631 35.3888 275.631 35.9299C275.631 36.471 275.809 36.9233 276.164 37.2867C276.528 37.6502 276.976 37.8319 277.509 37.8319C277.865 37.8319 278.184 37.7471 278.466 37.5775C278.757 37.4079 278.975 37.1817 279.12 36.8991L280.247 37.5411C279.989 38.0257 279.617 38.4093 279.132 38.692C278.648 38.9746 278.111 39.116 277.521 39.116ZM283.957 39.116C283.069 39.116 282.313 38.8091 281.692 38.1953C281.07 37.5815 280.759 36.8264 280.759 35.9299C280.759 35.0335 281.07 34.2784 281.692 33.6646C282.313 33.0508 283.069 32.7439 283.957 32.7439C284.853 32.7439 285.609 33.0508 286.222 33.6646C286.844 34.2784 287.155 35.0335 287.155 35.9299C287.155 36.8264 286.844 37.5815 286.222 38.1953C285.609 38.8091 284.853 39.116 283.957 39.116ZM282.612 37.2988C282.976 37.6623 283.424 37.844 283.957 37.844C284.49 37.844 284.938 37.6623 285.302 37.2988C285.665 36.9354 285.847 36.4791 285.847 35.9299C285.847 35.3808 285.665 34.9245 285.302 34.561C284.938 34.1976 284.49 34.0159 283.957 34.0159C283.424 34.0159 282.976 34.1976 282.612 34.561C282.249 34.9245 282.067 35.3808 282.067 35.9299C282.067 36.4791 282.249 36.9354 282.612 37.2988ZM292.421 32.9014H293.729V38.9585H292.421V38.1832C292.025 38.805 291.399 39.116 290.543 39.116C289.848 39.116 289.287 38.8939 288.859 38.4497C288.431 38.0055 288.217 37.3958 288.217 36.6204V32.9014H289.525V36.4872C289.525 36.9395 289.646 37.2867 289.889 37.529C290.131 37.7713 290.462 37.8924 290.882 37.8924C291.342 37.8924 291.714 37.7511 291.997 37.4684C292.279 37.1777 292.421 36.7376 292.421 36.148V32.9014ZM298.445 32.7439C299.139 32.7439 299.701 32.966 300.129 33.4102C300.557 33.8544 300.771 34.4641 300.771 35.2394V38.9585H299.463V35.3727C299.463 34.9204 299.341 34.5731 299.099 34.3309C298.857 34.0886 298.526 33.9674 298.106 33.9674C297.645 33.9674 297.274 34.1128 296.991 34.4035C296.709 34.6862 296.567 35.1223 296.567 35.7119V38.9585H295.259V32.9014H296.567V33.6767C296.963 33.0548 297.589 32.7439 298.445 32.7439ZM305.559 34.1613H304.057V37.0687C304.057 37.319 304.114 37.5008 304.227 37.6138C304.34 37.7188 304.506 37.7794 304.724 37.7955C304.95 37.8036 305.228 37.7996 305.559 37.7834V38.9585C304.558 39.0796 303.839 38.9948 303.403 38.7041C302.967 38.4053 302.749 37.8601 302.749 37.0687V34.1613H301.634V32.9014H302.749V31.593L304.057 31.2054V32.9014H305.559V34.1613Z" fill="#0B4A94"/>
<path d="M172.607 86.416L172.015 84.7858H168.744L168.152 86.416H167.124L169.834 79.1475H170.925L173.635 86.416H172.607ZM169.076 83.8824H171.683L170.374 80.3001L169.076 83.8824ZM177.83 81.2242H178.806L176.73 86.416H175.67L173.594 81.2242H174.57L176.2 85.4503L177.83 81.2242ZM183.666 81.2242H184.57V86.416H183.666V85.523C183.216 86.2083 182.562 86.551 181.704 86.551C180.977 86.551 180.357 86.288 179.845 85.7618C179.333 85.2288 179.077 84.5816 179.077 83.8201C179.077 83.0586 179.333 82.4149 179.845 81.8888C180.357 81.3557 180.977 81.0892 181.704 81.0892C182.562 81.0892 183.216 81.4319 183.666 82.1172V81.2242ZM181.818 85.6788C182.344 85.6788 182.784 85.5023 183.137 85.1492C183.49 84.7892 183.666 84.3462 183.666 83.8201C183.666 83.294 183.49 82.8544 183.137 82.5014C182.784 82.1414 182.344 81.9614 181.818 81.9614C181.299 81.9614 180.863 82.1414 180.51 82.5014C180.157 82.8544 179.98 83.294 179.98 83.8201C179.98 84.3462 180.157 84.7892 180.51 85.1492C180.863 85.5023 181.299 85.6788 181.818 85.6788ZM186.395 80.2793C186.222 80.2793 186.077 80.2205 185.959 80.1028C185.841 79.9851 185.783 79.8432 185.783 79.677C185.783 79.5109 185.841 79.369 185.959 79.2513C186.077 79.1267 186.222 79.0644 186.395 79.0644C186.561 79.0644 186.703 79.1267 186.821 79.2513C186.939 79.369 186.997 79.5109 186.997 79.677C186.997 79.8432 186.939 79.9851 186.821 80.1028C186.703 80.2205 186.561 80.2793 186.395 80.2793ZM185.938 86.416V81.2242H186.842V86.416H185.938ZM188.22 86.416V78.836H189.123V86.416H188.22ZM194.8 81.2242H195.704V86.416H194.8V85.523C194.35 86.2083 193.696 86.551 192.838 86.551C192.111 86.551 191.491 86.288 190.979 85.7618C190.467 85.2288 190.211 84.5816 190.211 83.8201C190.211 83.0586 190.467 82.4149 190.979 81.8888C191.491 81.3557 192.111 81.0892 192.838 81.0892C193.696 81.0892 194.35 81.4319 194.8 82.1172V81.2242ZM192.952 85.6788C193.478 85.6788 193.918 85.5023 194.271 85.1492C194.624 84.7892 194.8 84.3462 194.8 83.8201C194.8 83.294 194.624 82.8544 194.271 82.5014C193.918 82.1414 193.478 81.9614 192.952 81.9614C192.433 81.9614 191.997 82.1414 191.644 82.5014C191.291 82.8544 191.114 83.294 191.114 83.8201C191.114 84.3462 191.291 84.7892 191.644 85.1492C191.997 85.5023 192.433 85.6788 192.952 85.6788ZM199.938 81.0892C200.665 81.0892 201.285 81.3557 201.797 81.8888C202.309 82.4149 202.565 83.0586 202.565 83.8201C202.565 84.5816 202.309 85.2288 201.797 85.7618C201.285 86.288 200.665 86.551 199.938 86.551C199.08 86.551 198.426 86.2083 197.976 85.523V86.416H197.072V79.1475H197.976V82.1172C198.426 81.4319 199.08 81.0892 199.938 81.0892ZM199.824 85.6788C200.343 85.6788 200.779 85.5023 201.132 85.1492C201.485 84.7892 201.662 84.3462 201.662 83.8201C201.662 83.294 201.485 82.8544 201.132 82.5014C200.779 82.1414 200.343 81.9614 199.824 81.9614C199.298 81.9614 198.858 82.1414 198.505 82.5014C198.152 82.8544 197.976 83.294 197.976 83.8201C197.976 84.3462 198.152 84.7892 198.505 85.1492C198.858 85.5023 199.298 85.6788 199.824 85.6788ZM203.643 86.416V78.836H204.547V86.416H203.643ZM206.558 84.2355C206.648 84.6993 206.859 85.0592 207.192 85.3154C207.531 85.5715 207.946 85.6995 208.438 85.6995C209.123 85.6995 209.621 85.4469 209.933 84.9415L210.701 85.3777C210.196 86.1599 209.434 86.551 208.417 86.551C207.593 86.551 206.922 86.2949 206.402 85.7826C205.89 85.2634 205.634 84.6093 205.634 83.8201C205.634 83.0379 205.887 82.3872 206.392 81.868C206.897 81.3488 207.552 81.0892 208.355 81.0892C209.116 81.0892 209.736 81.3592 210.213 81.8991C210.698 82.4322 210.94 83.0759 210.94 83.8305C210.94 83.962 210.93 84.097 210.909 84.2355H206.558ZM208.355 81.9407C207.87 81.9407 207.469 82.0791 207.15 82.356C206.832 82.626 206.634 82.9894 206.558 83.4463H210.026C209.95 82.9548 209.756 82.581 209.445 82.3249C209.133 82.0687 208.77 81.9407 208.355 81.9407ZM218.821 82.6468C219.154 82.806 219.417 83.0344 219.611 83.3321C219.811 83.6297 219.912 83.9724 219.912 84.3601C219.912 84.9415 219.707 85.4296 219.299 85.8241C218.891 86.2187 218.392 86.416 217.804 86.416H214.668V79.1475H217.575C218.143 79.1475 218.624 79.3378 219.019 79.7186C219.413 80.0993 219.611 80.57 219.611 81.1307C219.611 81.7745 219.347 82.2799 218.821 82.6468ZM217.575 80.0509H215.634V82.2729H217.575C217.88 82.2729 218.136 82.1657 218.344 81.9511C218.551 81.7365 218.655 81.4734 218.655 81.1619C218.655 80.8573 218.548 80.5977 218.333 80.3831C218.126 80.1616 217.873 80.0509 217.575 80.0509ZM217.804 85.5126C218.129 85.5126 218.403 85.3984 218.624 85.17C218.846 84.9415 218.956 84.6612 218.956 84.3289C218.956 84.0036 218.842 83.7267 218.614 83.4982C218.392 83.2698 218.122 83.1556 217.804 83.1556H215.634V85.5126H217.804ZM225.292 81.2242H226.195V86.416H225.292V85.523C224.842 86.2083 224.188 86.551 223.33 86.551C222.603 86.551 221.983 86.288 221.471 85.7618C220.959 85.2288 220.703 84.5816 220.703 83.8201C220.703 83.0586 220.959 82.4149 221.471 81.8888C221.983 81.3557 222.603 81.0892 223.33 81.0892C224.188 81.0892 224.842 81.4319 225.292 82.1172V81.2242ZM223.444 85.6788C223.97 85.6788 224.409 85.5023 224.763 85.1492C225.116 84.7892 225.292 84.3462 225.292 83.8201C225.292 83.294 225.116 82.8544 224.763 82.5014C224.409 82.1414 223.97 81.9614 223.444 81.9614C222.925 81.9614 222.488 82.1414 222.135 82.5014C221.782 82.8544 221.606 83.294 221.606 83.8201C221.606 84.3462 221.782 84.7892 222.135 85.1492C222.488 85.5023 222.925 85.6788 223.444 85.6788ZM227.564 86.416V78.836H228.468V86.416H227.564ZM234.145 81.2242H235.048V86.416H234.145V85.523C233.695 86.2083 233.04 86.551 232.182 86.551C231.455 86.551 230.836 86.288 230.323 85.7618C229.811 85.2288 229.555 84.5816 229.555 83.8201C229.555 83.0586 229.811 82.4149 230.323 81.8888C230.836 81.3557 231.455 81.0892 232.182 81.0892C233.04 81.0892 233.695 81.4319 234.145 82.1172V81.2242ZM232.296 85.6788C232.822 85.6788 233.262 85.5023 233.615 85.1492C233.968 84.7892 234.145 84.3462 234.145 83.8201C234.145 83.294 233.968 82.8544 233.615 82.5014C233.262 82.1414 232.822 81.9614 232.296 81.9614C231.777 81.9614 231.341 82.1414 230.988 82.5014C230.635 82.8544 230.458 83.294 230.458 83.8201C230.458 84.3462 230.635 84.7892 230.988 85.1492C231.341 85.5023 231.777 85.6788 232.296 85.6788ZM239.002 81.0892C239.611 81.0892 240.099 81.283 240.466 81.6707C240.833 82.0514 241.017 82.5706 241.017 83.2282V86.416H240.113V83.2802C240.113 82.8579 239.999 82.5325 239.771 82.3041C239.542 82.0687 239.227 81.9511 238.826 81.9511C238.376 81.9511 238.012 82.093 237.735 82.3768C237.458 82.6537 237.32 83.0829 237.32 83.6644V86.416H236.417V81.2242H237.32V81.9718C237.687 81.3834 238.248 81.0892 239.002 81.0892ZM244.718 86.551C243.936 86.551 243.285 86.2914 242.766 85.7722C242.247 85.2461 241.987 84.5954 241.987 83.8201C241.987 83.0448 242.247 82.3976 242.766 81.8784C243.285 81.3523 243.936 81.0892 244.718 81.0892C245.23 81.0892 245.69 81.2138 246.099 81.463C246.507 81.7053 246.812 82.0341 247.013 82.4495L246.255 82.8856C246.123 82.6087 245.919 82.3872 245.642 82.221C245.372 82.0549 245.064 81.9718 244.718 81.9718C244.199 81.9718 243.763 82.1483 243.409 82.5014C243.063 82.8544 242.89 83.294 242.89 83.8201C242.89 84.3393 243.063 84.7754 243.409 85.1284C243.763 85.4815 244.199 85.658 244.718 85.658C245.064 85.658 245.375 85.5784 245.652 85.4192C245.929 85.253 246.14 85.0315 246.286 84.7546L247.054 85.2011C246.833 85.6096 246.514 85.9384 246.099 86.1876C245.683 86.4299 245.223 86.551 244.718 86.551ZM248.508 84.2355C248.598 84.6993 248.81 85.0592 249.142 85.3154C249.481 85.5715 249.896 85.6995 250.388 85.6995C251.073 85.6995 251.572 85.4469 251.883 84.9415L252.652 85.3777C252.146 86.1599 251.385 86.551 250.367 86.551C249.543 86.551 248.872 86.2949 248.353 85.7826C247.84 85.2634 247.584 84.6093 247.584 83.8201C247.584 83.0379 247.837 82.3872 248.342 81.868C248.848 81.3488 249.502 81.0892 250.305 81.0892C251.066 81.0892 251.686 81.3592 252.164 81.8991C252.648 82.4322 252.89 83.0759 252.89 83.8305C252.89 83.962 252.88 84.097 252.859 84.2355H248.508ZM250.305 81.9407C249.82 81.9407 249.419 82.0791 249.1 82.356C248.782 82.626 248.585 82.9894 248.508 83.4463H251.977C251.9 82.9548 251.707 82.581 251.395 82.3249C251.084 82.0687 250.72 81.9407 250.305 81.9407Z" fill="#303030"/>
<path d="M171.917 117.048L168.335 110.799V109.326H169.529C170.232 109.326 170.823 109.174 171.3 108.869C171.778 108.55 172.083 108.112 172.216 107.555H168.335V106.082H172.196C172.076 105.578 171.831 105.16 171.459 104.829C171.088 104.484 170.57 104.311 169.907 104.311H168.335V102.838H177.311V104.311H174.186C174.65 104.815 174.942 105.406 175.062 106.082H177.311V107.555H175.101C174.969 108.537 174.591 109.306 173.967 109.864C173.343 110.408 172.541 110.779 171.559 110.978L175.46 117.048H171.917ZM182.351 103.117H184.341V117.048H182.052V105.565L179.246 106.361L178.689 104.411L182.351 103.117ZM196.125 115.337C195.169 116.65 193.829 117.307 192.104 117.307C190.38 117.307 189.033 116.65 188.064 115.337C187.109 114.023 186.631 112.272 186.631 110.083C186.631 107.893 187.109 106.142 188.064 104.829C189.033 103.515 190.38 102.858 192.104 102.858C193.829 102.858 195.169 103.515 196.125 104.829C197.093 106.142 197.577 107.893 197.577 110.083C197.577 112.272 197.093 114.023 196.125 115.337ZM192.104 115.078C193.139 115.078 193.929 114.647 194.473 113.784C195.017 112.922 195.289 111.688 195.289 110.083C195.289 108.477 195.017 107.243 194.473 106.381C193.929 105.518 193.139 105.087 192.104 105.087C191.083 105.087 190.293 105.518 189.736 106.381C189.192 107.243 188.92 108.477 188.92 110.083C188.92 111.688 189.192 112.922 189.736 113.784C190.293 114.647 191.083 115.078 192.104 115.078ZM202.008 114.66L200.615 119.835H198.823L199.62 114.66H202.008ZM212.722 115.337C211.767 116.65 210.427 117.307 208.702 117.307C206.977 117.307 205.631 116.65 204.662 115.337C203.707 114.023 203.229 112.272 203.229 110.083C203.229 107.893 203.707 106.142 204.662 104.829C205.631 103.515 206.977 102.858 208.702 102.858C210.427 102.858 211.767 103.515 212.722 104.829C213.691 106.142 214.175 107.893 214.175 110.083C214.175 112.272 213.691 114.023 212.722 115.337ZM208.702 115.078C209.737 115.078 210.527 114.647 211.071 113.784C211.615 112.922 211.887 111.688 211.887 110.083C211.887 108.477 211.615 107.243 211.071 106.381C210.527 105.518 209.737 105.087 208.702 105.087C207.681 105.087 206.891 105.518 206.334 106.381C205.79 107.243 205.518 108.477 205.518 110.083C205.518 111.688 205.79 112.922 206.334 113.784C206.891 114.647 207.681 115.078 208.702 115.078ZM225.258 115.337C224.303 116.65 222.963 117.307 221.238 117.307C219.513 117.307 218.167 116.65 217.198 115.337C216.243 114.023 215.765 112.272 215.765 110.083C215.765 107.893 216.243 106.142 217.198 104.829C218.167 103.515 219.513 102.858 221.238 102.858C222.963 102.858 224.303 103.515 225.258 104.829C226.227 106.142 226.711 107.893 226.711 110.083C226.711 112.272 226.227 114.023 225.258 115.337ZM221.238 115.078C222.273 115.078 223.063 114.647 223.607 113.784C224.151 112.922 224.423 111.688 224.423 110.083C224.423 108.477 224.151 107.243 223.607 106.381C223.063 105.518 222.273 105.087 221.238 105.087C220.217 105.087 219.427 105.518 218.87 106.381C218.326 107.243 218.054 108.477 218.054 110.083C218.054 111.688 218.326 112.922 218.87 113.784C219.427 114.647 220.217 115.078 221.238 115.078ZM231.142 114.66L229.748 119.835H227.957L228.753 114.66H231.142ZM241.856 115.337C240.901 116.65 239.561 117.307 237.836 117.307C236.111 117.307 234.765 116.65 233.796 115.337C232.841 114.023 232.363 112.272 232.363 110.083C232.363 107.893 232.841 106.142 233.796 104.829C234.765 103.515 236.111 102.858 237.836 102.858C239.561 102.858 240.901 103.515 241.856 104.829C242.825 106.142 243.309 107.893 243.309 110.083C243.309 112.272 242.825 114.023 241.856 115.337ZM237.836 115.078C238.871 115.078 239.66 114.647 240.204 113.784C240.748 112.922 241.02 111.688 241.02 110.083C241.02 108.477 240.748 107.243 240.204 106.381C239.66 105.518 238.871 105.087 237.836 105.087C236.814 105.087 236.025 105.518 235.468 106.381C234.924 107.243 234.652 108.477 234.652 110.083C234.652 111.688 234.924 112.922 235.468 113.784C236.025 114.647 236.814 115.078 237.836 115.078ZM254.392 115.337C253.437 116.65 252.097 117.307 250.372 117.307C248.647 117.307 247.3 116.65 246.332 115.337C245.377 114.023 244.899 112.272 244.899 110.083C244.899 107.893 245.377 106.142 246.332 104.829C247.3 103.515 248.647 102.858 250.372 102.858C252.097 102.858 253.437 103.515 254.392 104.829C255.361 106.142 255.845 107.893 255.845 110.083C255.845 112.272 255.361 114.023 254.392 115.337ZM250.372 115.078C251.407 115.078 252.196 114.647 252.74 113.784C253.284 112.922 253.556 111.688 253.556 110.083C253.556 108.477 253.284 107.243 252.74 106.381C252.196 105.518 251.407 105.087 250.372 105.087C249.35 105.087 248.561 105.518 248.004 106.381C247.46 107.243 247.188 108.477 247.188 110.083C247.188 111.688 247.46 112.922 248.004 113.784C248.561 114.647 249.35 115.078 250.372 115.078ZM266.928 115.337C265.973 116.65 264.633 117.307 262.908 117.307C261.183 117.307 259.836 116.65 258.868 115.337C257.913 114.023 257.435 112.272 257.435 110.083C257.435 107.893 257.913 106.142 258.868 104.829C259.836 103.515 261.183 102.858 262.908 102.858C264.633 102.858 265.973 103.515 266.928 104.829C267.897 106.142 268.381 107.893 268.381 110.083C268.381 112.272 267.897 114.023 266.928 115.337ZM262.908 115.078C263.943 115.078 264.732 114.647 265.276 113.784C265.82 112.922 266.092 111.688 266.092 110.083C266.092 108.477 265.82 107.243 265.276 106.381C264.732 105.518 263.943 105.087 262.908 105.087C261.886 105.087 261.097 105.518 260.54 106.381C259.996 107.243 259.724 108.477 259.724 110.083C259.724 111.688 259.996 112.922 260.54 113.784C261.097 114.647 261.886 115.078 262.908 115.078Z" fill="#0B4A94"/>
<path d="M356 83.5548C356 80.6911 358.321 78.3696 361.185 78.3696H553.728C556.592 78.3696 558.913 80.6911 558.913 83.5548V261.579H356V83.5548Z" fill="url(#paint4_linear_3331_10402)"/>
<g clip-path="url(#clip2_3331_10402)">
<path d="M361.411 87.2351C361.411 85.326 362.959 83.7783 364.868 83.7783H550.046C551.955 83.7783 553.502 85.326 553.502 87.2351V254.819H361.411V87.2351Z" fill="url(#paint5_linear_3331_10402)"/>
<g filter="url(#filter2_d_3331_10402)">
<path d="M361.411 86.3383C361.411 84.9245 362.557 83.7783 363.971 83.7783H551.525C552.939 83.7783 554.085 84.9245 554.085 86.3383V119.077C554.085 120.491 552.939 121.637 551.525 121.637H363.971C362.557 121.637 361.411 120.491 361.411 119.077V86.3383Z" fill="white"/>
</g>
<rect x="369.523" y="170.989" width="175.773" height="47.3235" fill="white"/>
<rect x="370.876" y="150.031" width="97.3513" height="8.11261" rx="4.0563" fill="#EBF3FA"/>
<path d="M370.876 139.214C370.876 136.6 372.994 134.481 375.608 134.481H536.508C539.122 134.481 541.24 136.6 541.24 139.214C541.24 141.827 539.122 143.946 536.508 143.946H375.608C372.994 143.946 370.876 141.827 370.876 139.214Z" fill="#EBF3FA"/>
<path d="M393.861 195.327H536.508V214.256H393.861V195.327Z" fill="#EEF3F8"/>
<path d="M385.749 224.396H528.395V246.03H385.749V224.396Z" fill="#0B4A94"/>
<path d="M445.138 238.587C444.278 238.587 443.567 238.303 443.005 237.735C442.448 237.167 442.169 236.47 442.169 235.642C442.169 234.815 442.448 234.117 443.005 233.549C443.567 232.981 444.278 232.697 445.138 232.697C445.658 232.697 446.133 232.822 446.566 233.07C447.004 233.319 447.345 233.654 447.588 234.076L446.931 234.458C446.769 234.144 446.526 233.895 446.201 233.711C445.882 233.522 445.528 233.427 445.138 233.427C444.484 233.427 443.948 233.638 443.532 234.06C443.121 234.482 442.915 235.009 442.915 235.642C442.915 236.269 443.121 236.794 443.532 237.216C443.948 237.638 444.484 237.849 445.138 237.849C445.528 237.849 445.882 237.757 446.201 237.573C446.526 237.384 446.769 237.135 446.931 236.826L447.588 237.2C447.35 237.622 447.012 237.96 446.574 238.214C446.136 238.463 445.658 238.587 445.138 238.587ZM451.777 237.97C451.361 238.381 450.855 238.587 450.26 238.587C449.666 238.587 449.16 238.381 448.743 237.97C448.332 237.559 448.127 237.054 448.127 236.453C448.127 235.853 448.332 235.347 448.743 234.936C449.16 234.525 449.666 234.32 450.26 234.32C450.855 234.32 451.361 234.525 451.777 234.936C452.194 235.347 452.402 235.853 452.402 236.453C452.402 237.054 452.194 237.559 451.777 237.97ZM450.26 237.897C450.666 237.897 451.007 237.759 451.283 237.484C451.558 237.208 451.696 236.864 451.696 236.453C451.696 236.042 451.558 235.699 451.283 235.423C451.007 235.147 450.666 235.009 450.26 235.009C449.86 235.009 449.522 235.147 449.246 235.423C448.971 235.699 448.833 236.042 448.833 236.453C448.833 236.864 448.971 237.208 449.246 237.484C449.522 237.759 449.86 237.897 450.26 237.897ZM455.254 234.32C455.73 234.32 456.111 234.471 456.398 234.774C456.685 235.071 456.828 235.477 456.828 235.991V238.481H456.122V236.031C456.122 235.702 456.033 235.447 455.855 235.269C455.676 235.085 455.43 234.993 455.116 234.993C454.765 234.993 454.481 235.104 454.265 235.326C454.048 235.542 453.94 235.877 453.94 236.332V238.481H453.234V234.425H453.94V235.009C454.227 234.55 454.665 234.32 455.254 234.32ZM459.898 233.379C459.184 233.319 458.827 233.627 458.827 234.303V234.425H459.898V235.107H458.827V238.481H458.122V235.107H457.473V234.425H458.122V234.303C458.122 233.757 458.273 233.343 458.576 233.062C458.884 232.781 459.325 232.659 459.898 232.697V233.379ZM461.142 235.107C461.374 234.604 461.796 234.352 462.407 234.352V235.09C462.061 235.074 461.763 235.166 461.515 235.366C461.266 235.566 461.142 235.888 461.142 236.332V238.481H460.436V234.425H461.142V235.107ZM463.455 233.687C463.319 233.687 463.206 233.641 463.114 233.549C463.022 233.457 462.976 233.346 462.976 233.216C462.976 233.087 463.022 232.976 463.114 232.884C463.206 232.786 463.319 232.738 463.455 232.738C463.584 232.738 463.695 232.786 463.787 232.884C463.879 232.976 463.925 233.087 463.925 233.216C463.925 233.346 463.879 233.457 463.787 233.549C463.695 233.641 463.584 233.687 463.455 233.687ZM463.098 238.481V234.425H463.803V238.481H463.098ZM469.261 234.32C469.715 234.32 470.083 234.468 470.364 234.766C470.646 235.058 470.786 235.455 470.786 235.958V238.481H470.08V235.983C470.08 235.669 469.999 235.426 469.837 235.253C469.675 235.08 469.458 234.993 469.188 234.993C468.885 234.993 468.642 235.096 468.458 235.301C468.279 235.501 468.19 235.81 468.19 236.226V238.481H467.484V235.983C467.484 235.669 467.406 235.426 467.249 235.253C467.098 235.08 466.889 234.993 466.624 234.993C466.327 234.993 466.078 235.096 465.878 235.301C465.683 235.507 465.586 235.815 465.586 236.226V238.481H464.88V234.425H465.586V234.969C465.862 234.536 466.265 234.32 466.795 234.32C467.341 234.32 467.739 234.55 467.987 235.009C468.269 234.55 468.693 234.32 469.261 234.32Z" fill="#F4F6FA"/>
<path d="M373.223 107.651L370.923 101.026H372.115L373.876 106.336L375.646 101.026H376.829L374.529 107.651H373.223ZM377.711 105.721C377.787 106.08 377.96 106.358 378.232 106.553C378.503 106.743 378.834 106.837 379.226 106.837C379.768 106.837 380.175 106.642 380.446 106.251L381.289 106.743C380.822 107.431 380.131 107.774 379.216 107.774C378.446 107.774 377.825 107.541 377.352 107.074C376.878 106.601 376.642 106.005 376.642 105.285C376.642 104.578 376.875 103.989 377.342 103.515C377.809 103.036 378.408 102.796 379.14 102.796C379.834 102.796 380.402 103.039 380.844 103.525C381.292 104.011 381.516 104.601 381.516 105.295C381.516 105.402 381.503 105.544 381.478 105.721H377.711ZM377.702 104.888H380.484C380.415 104.503 380.254 104.213 380.002 104.017C379.756 103.821 379.465 103.724 379.131 103.724C378.752 103.724 378.437 103.828 378.184 104.036C377.932 104.244 377.771 104.528 377.702 104.888ZM384.905 102.796C385.447 102.796 385.886 102.969 386.22 103.317C386.555 103.664 386.722 104.14 386.722 104.746V107.651H385.7V104.85C385.7 104.496 385.605 104.225 385.416 104.036C385.226 103.847 384.968 103.752 384.64 103.752C384.28 103.752 383.99 103.865 383.769 104.093C383.548 104.313 383.438 104.654 383.438 105.115V107.651H382.415V102.919H383.438V103.525C383.747 103.039 384.236 102.796 384.905 102.796ZM391.571 101.026H392.593V107.651H391.571V106.97C391.186 107.506 390.634 107.774 389.914 107.774C389.264 107.774 388.709 107.535 388.248 107.055C387.788 106.569 387.558 105.979 387.558 105.285C387.558 104.585 387.788 103.995 388.248 103.515C388.709 103.036 389.264 102.796 389.914 102.796C390.634 102.796 391.186 103.061 391.571 103.591V101.026ZM389.006 106.374C389.29 106.658 389.646 106.8 390.075 106.8C390.504 106.8 390.861 106.658 391.145 106.374C391.429 106.083 391.571 105.721 391.571 105.285C391.571 104.85 391.429 104.49 391.145 104.206C390.861 103.916 390.504 103.771 390.075 103.771C389.646 103.771 389.29 103.916 389.006 104.206C388.722 104.49 388.58 104.85 388.58 105.285C388.58 105.721 388.722 106.083 389.006 106.374ZM396.018 107.774C395.324 107.774 394.734 107.535 394.248 107.055C393.762 106.576 393.519 105.986 393.519 105.285C393.519 104.585 393.762 103.995 394.248 103.515C394.734 103.036 395.324 102.796 396.018 102.796C396.718 102.796 397.308 103.036 397.788 103.515C398.274 103.995 398.517 104.585 398.517 105.285C398.517 105.986 398.274 106.576 397.788 107.055C397.308 107.535 396.718 107.774 396.018 107.774ZM394.967 106.355C395.251 106.639 395.601 106.781 396.018 106.781C396.434 106.781 396.785 106.639 397.068 106.355C397.352 106.071 397.494 105.714 397.494 105.285C397.494 104.856 397.352 104.5 397.068 104.216C396.785 103.932 396.434 103.79 396.018 103.79C395.601 103.79 395.251 103.932 394.967 104.216C394.683 104.5 394.541 104.856 394.541 105.285C394.541 105.714 394.683 106.071 394.967 106.355ZM400.463 103.714C400.722 103.127 401.208 102.834 401.921 102.834V103.941C401.529 103.916 401.189 104.011 400.898 104.225C400.608 104.433 400.463 104.78 400.463 105.266V107.651H399.441V102.919H400.463V103.714ZM407.55 101.026C408.175 101.026 408.695 101.234 409.112 101.651C409.535 102.067 409.746 102.585 409.746 103.203C409.746 103.815 409.535 104.332 409.112 104.755C408.695 105.172 408.175 105.38 407.55 105.38H406.197V107.651H405.108V101.026H407.55ZM407.55 104.358C407.872 104.358 408.137 104.25 408.345 104.036C408.553 103.815 408.658 103.537 408.658 103.203C408.658 102.869 408.553 102.594 408.345 102.38C408.137 102.159 407.872 102.048 407.55 102.048H406.197V104.358H407.55ZM414.04 102.919H415.062V107.651H414.04V106.97C413.655 107.506 413.103 107.774 412.384 107.774C411.734 107.774 411.178 107.535 410.718 107.055C410.257 106.569 410.027 105.979 410.027 105.285C410.027 104.585 410.257 103.995 410.718 103.515C411.178 103.036 411.734 102.796 412.384 102.796C413.103 102.796 413.655 103.061 414.04 103.591V102.919ZM411.475 106.374C411.759 106.658 412.116 106.8 412.545 106.8C412.974 106.8 413.33 106.658 413.614 106.374C413.898 106.083 414.04 105.721 414.04 105.285C414.04 104.85 413.898 104.49 413.614 104.206C413.33 103.916 412.974 103.771 412.545 103.771C412.116 103.771 411.759 103.916 411.475 104.206C411.191 104.49 411.049 104.85 411.049 105.285C411.049 105.721 411.191 106.083 411.475 106.374ZM419.443 102.919H420.532L418.714 107.803C418.26 109.027 417.49 109.607 416.405 109.544V108.588C416.727 108.607 416.986 108.538 417.181 108.38C417.377 108.229 417.538 107.989 417.664 107.661L417.711 107.566L415.705 102.919H416.822L418.232 106.355L419.443 102.919ZM423.22 107.774C422.526 107.774 421.936 107.535 421.45 107.055C420.964 106.576 420.721 105.986 420.721 105.285C420.721 104.585 420.964 103.995 421.45 103.515C421.936 103.036 422.526 102.796 423.22 102.796C423.92 102.796 424.51 103.036 424.99 103.515C425.475 103.995 425.718 104.585 425.718 105.285C425.718 105.986 425.475 106.576 424.99 107.055C424.51 107.535 423.92 107.774 423.22 107.774ZM422.169 106.355C422.453 106.639 422.803 106.781 423.22 106.781C423.636 106.781 423.986 106.639 424.27 106.355C424.554 106.071 424.696 105.714 424.696 105.285C424.696 104.856 424.554 104.5 424.27 104.216C423.986 103.932 423.636 103.79 423.22 103.79C422.803 103.79 422.453 103.932 422.169 104.216C421.885 104.5 421.743 104.856 421.743 105.285C421.743 105.714 421.885 106.071 422.169 106.355ZM429.832 102.919H430.854V107.651H429.832V107.046C429.523 107.531 429.034 107.774 428.365 107.774C427.823 107.774 427.384 107.601 427.05 107.254C426.715 106.907 426.548 106.43 426.548 105.825V102.919H427.57V105.721C427.57 106.074 427.665 106.345 427.854 106.535C428.043 106.724 428.302 106.818 428.63 106.818C428.99 106.818 429.28 106.708 429.501 106.487C429.722 106.26 429.832 105.916 429.832 105.456V102.919ZM434.69 103.903H433.517V106.175C433.517 106.37 433.561 106.512 433.649 106.601C433.738 106.683 433.867 106.73 434.037 106.743C434.214 106.749 434.432 106.746 434.69 106.733V107.651C433.908 107.746 433.346 107.68 433.006 107.453C432.665 107.219 432.495 106.793 432.495 106.175V103.903H431.624V102.919H432.495V101.897L433.517 101.594V102.919H434.69V103.903ZM436.36 104.225C436.36 104.383 436.445 104.509 436.615 104.604C436.792 104.692 437.004 104.771 437.25 104.84C437.502 104.903 437.754 104.979 438.007 105.068C438.259 105.156 438.471 105.307 438.641 105.522C438.818 105.73 438.906 105.995 438.906 106.317C438.906 106.771 438.729 107.128 438.376 107.386C438.029 107.645 437.59 107.774 437.06 107.774C436.593 107.774 436.193 107.677 435.858 107.481C435.524 107.285 435.281 107.014 435.13 106.667L436.01 106.156C436.174 106.61 436.524 106.837 437.06 106.837C437.597 106.837 437.865 106.661 437.865 106.307C437.865 106.156 437.776 106.033 437.6 105.938C437.429 105.844 437.218 105.765 436.966 105.702C436.72 105.632 436.47 105.553 436.218 105.465C435.966 105.377 435.751 105.232 435.574 105.03C435.404 104.821 435.319 104.56 435.319 104.244C435.319 103.809 435.483 103.459 435.811 103.193C436.145 102.928 436.559 102.796 437.051 102.796C437.442 102.796 437.789 102.884 438.092 103.061C438.401 103.231 438.638 103.471 438.802 103.78L437.941 104.263C437.776 103.903 437.48 103.724 437.051 103.724C436.855 103.724 436.691 103.768 436.559 103.856C436.426 103.938 436.36 104.061 436.36 104.225Z" fill="#0B4A94"/>
<path d="M380.632 185.75L380.17 184.476H377.615L377.152 185.75H376.349L378.466 180.071H379.318L381.436 185.75H380.632ZM377.874 183.77H379.91L378.888 180.971L377.874 183.77ZM386.413 181.588C386.868 181.588 387.235 181.736 387.517 182.034C387.798 182.326 387.938 182.724 387.938 183.226V185.75H387.233V183.251C387.233 182.937 387.152 182.694 386.989 182.521C386.827 182.348 386.611 182.261 386.34 182.261C386.037 182.261 385.794 182.364 385.61 182.569C385.432 182.769 385.342 183.078 385.342 183.494V185.75H384.637V183.251C384.637 182.937 384.558 182.694 384.401 182.521C384.25 182.348 384.042 182.261 383.777 182.261C383.479 182.261 383.23 182.364 383.03 182.569C382.836 182.775 382.738 183.083 382.738 183.494V185.75H382.032V181.693H382.738V182.237C383.014 181.804 383.417 181.588 383.947 181.588C384.493 181.588 384.891 181.818 385.14 182.277C385.421 181.818 385.845 181.588 386.413 181.588ZM392.341 185.238C391.924 185.649 391.418 185.855 390.824 185.855C390.229 185.855 389.723 185.649 389.307 185.238C388.895 184.827 388.69 184.322 388.69 183.721C388.69 183.121 388.895 182.615 389.307 182.204C389.723 181.793 390.229 181.588 390.824 181.588C391.418 181.588 391.924 181.793 392.341 182.204C392.757 182.615 392.965 183.121 392.965 183.721C392.965 184.322 392.757 184.827 392.341 185.238ZM390.824 185.165C391.229 185.165 391.57 185.027 391.846 184.752C392.122 184.476 392.259 184.132 392.259 183.721C392.259 183.31 392.122 182.967 391.846 182.691C391.57 182.415 391.229 182.277 390.824 182.277C390.423 182.277 390.085 182.415 389.809 182.691C389.534 182.967 389.396 183.31 389.396 183.721C389.396 184.132 389.534 184.476 389.809 184.752C390.085 185.027 390.423 185.165 390.824 185.165ZM396.596 181.693H397.302V185.75H396.596V185.165C396.31 185.625 395.871 185.855 395.282 185.855C394.806 185.855 394.425 185.706 394.138 185.409C393.851 185.106 393.708 184.698 393.708 184.184V181.693H394.414V184.143C394.414 184.473 394.503 184.73 394.682 184.914C394.86 185.092 395.106 185.182 395.42 185.182C395.771 185.182 396.055 185.073 396.272 184.857C396.488 184.635 396.596 184.297 396.596 183.843V181.693ZM400.397 181.588C400.872 181.588 401.254 181.739 401.54 182.042C401.827 182.34 401.97 182.745 401.97 183.259V185.75H401.265V183.3C401.265 182.97 401.175 182.715 400.997 182.537C400.818 182.353 400.572 182.261 400.259 182.261C399.907 182.261 399.623 182.372 399.407 182.594C399.19 182.81 399.082 183.145 399.082 183.6V185.75H398.377V181.693H399.082V182.277C399.369 181.818 399.807 181.588 400.397 181.588ZM405.162 182.375H404.083V184.573C404.083 184.773 404.121 184.917 404.197 185.003C404.278 185.084 404.4 185.128 404.562 185.133C404.724 185.133 404.924 185.128 405.162 185.117V185.75C404.546 185.831 404.094 185.782 403.808 185.603C403.521 185.42 403.378 185.076 403.378 184.573V182.375H402.574V181.693H403.378V180.768L404.083 180.557V181.693H405.162V182.375Z" fill="#303030"/>
<path d="M380.094 211.679L377.295 206.796V205.646H378.228C378.777 205.646 379.238 205.526 379.612 205.288C379.985 205.039 380.223 204.697 380.327 204.262H377.295V203.111H380.311C380.218 202.717 380.026 202.391 379.736 202.132C379.446 201.862 379.041 201.727 378.523 201.727H377.295V200.577H384.307V201.727H381.866C382.229 202.121 382.457 202.582 382.55 203.111H384.307V204.262H382.581C382.478 205.029 382.182 205.63 381.695 206.065C381.208 206.49 380.581 206.781 379.814 206.936L382.861 211.679H380.094Z" fill="#0B4A94"/>
</g>
<defs>
<filter id="filter0_d_3331_10402" x="-1.7166" y="81.026" width="214.113" height="54.774" filterUnits="userSpaceOnUse" color-interpolation-filters="sRGB">
<feFlood flood-opacity="0" result="BackgroundImageFix"/>
<feColorMatrix in="SourceAlpha" type="matrix" values="0 0 0 0 0 0 0 0 0 0 0 0 0 0 0 0 0 0 127 0" result="hardAlpha"/>
<feOffset dy="1.05391"/>
<feGaussianBlur stdDeviation="3.95217"/>
<feColorMatrix type="matrix" values="0 0 0 0 0 0 0 0 0 0 0 0 0 0 0 0 0 0 0.05 0"/>
<feBlend mode="normal" in2="BackgroundImageFix" result="effect1_dropShadow_3331_10402"/>
<feBlend mode="normal" in="SourceGraphic" in2="effect1_dropShadow_3331_10402" result="shape"/>
</filter>
<filter id="filter1_d_3331_10402" x="138.156" y="0.393896" width="266.271" height="68.1167" filterUnits="userSpaceOnUse" color-interpolation-filters="sRGB">
<feFlood flood-opacity="0" result="BackgroundImageFix"/>
<feColorMatrix in="SourceAlpha" type="matrix" values="0 0 0 0 0 0 0 0 0 0 0 0 0 0 0 0 0 0 127 0" result="hardAlpha"/>
<feOffset dy="1.31064"/>
<feGaussianBlur stdDeviation="4.91492"/>
<feColorMatrix type="matrix" values="0 0 0 0 0 0 0 0 0 0 0 0 0 0 0 0 0 0 0.05 0"/>
<feBlend mode="normal" in2="BackgroundImageFix" result="effect1_dropShadow_3331_10402"/>
<feBlend mode="normal" in="SourceGraphic" in2="effect1_dropShadow_3331_10402" result="shape"/>
</filter>
<filter id="filter2_d_3331_10402" x="353.731" y="77.1224" width="208.034" height="53.2188" filterUnits="userSpaceOnUse" color-interpolation-filters="sRGB">
<feFlood flood-opacity="0" result="BackgroundImageFix"/>
<feColorMatrix in="SourceAlpha" type="matrix" values="0 0 0 0 0 0 0 0 0 0 0 0 0 0 0 0 0 0 127 0" result="hardAlpha"/>
<feOffset dy="1.02399"/>
<feGaussianBlur stdDeviation="3.83997"/>
<feColorMatrix type="matrix" values="0 0 0 0 0 0 0 0 0 0 0 0 0 0 0 0 0 0 0.05 0"/>
<feBlend mode="normal" in2="BackgroundImageFix" result="effect1_dropShadow_3331_10402"/>
<feBlend mode="normal" in="SourceGraphic" in2="effect1_dropShadow_3331_10402" result="shape"/>
</filter>
<linearGradient id="paint0_linear_3331_10402" x1="105.5" y1="84.1744" x2="105.5" y2="289" gradientUnits="userSpaceOnUse">
<stop offset="0.508831" stop-color="#DEDEDE"/>
<stop offset="1" stop-color="#DEDEDE" stop-opacity="0.06"/>
</linearGradient>
<linearGradient id="paint1_linear_3331_10402" x1="105.186" y1="87.8765" x2="105.186" y2="278" gradientUnits="userSpaceOnUse">
<stop offset="0.823604" stop-color="#F4F6FA"/>
<stop offset="1" stop-color="#F4F6FA" stop-opacity="0"/>
</linearGradient>
<linearGradient id="paint2_linear_3331_10402" x1="270.762" y1="4.69608" x2="270.762" y2="258.666" gradientUnits="userSpaceOnUse">
<stop offset="0.508831" stop-color="#DEDEDE"/>
<stop offset="1" stop-color="#DEDEDE" stop-opacity="0.06"/>
</linearGradient>
<linearGradient id="paint3_linear_3331_10402" x1="270.762" y1="8.91309" x2="270.763" y2="250.888" gradientUnits="userSpaceOnUse">
<stop offset="0.944801" stop-color="#F4F6FA"/>
<stop offset="1" stop-color="#F4F6FA" stop-opacity="0"/>
</linearGradient>
<linearGradient id="paint4_linear_3331_10402" x1="457.457" y1="80.2941" x2="457.457" y2="261.579" gradientUnits="userSpaceOnUse">
<stop offset="0.508831" stop-color="#DEDEDE"/>
<stop offset="1" stop-color="#DEDEDE" stop-opacity="0.06"/>
</linearGradient>
<linearGradient id="paint5_linear_3331_10402" x1="457.457" y1="83.7783" x2="457.457" y2="254.819" gradientUnits="userSpaceOnUse">
<stop offset="0.889514" stop-color="#F4F6FA"/>
<stop offset="1" stop-color="#F4F6FA" stop-opacity="0"/>
</linearGradient>
<clipPath id="clip0_3331_10402">
<path d="M6.18774 93.0617C6.18774 90.198 8.50923 87.8765 11.3729 87.8765H198.999C201.863 87.8765 204.185 90.1979 204.185 93.0616V278H6.18774V93.0617Z" fill="white"/>
</clipPath>
<clipPath id="clip1_3331_10402">
<path d="M147.986 12.3699C147.986 10.4607 149.534 8.91309 151.443 8.91309H390.08C391.989 8.91309 393.537 10.4607 393.537 12.3699V250.888H147.986V12.3699Z" fill="white"/>
</clipPath>
<clipPath id="clip2_3331_10402">
<path d="M361.411 87.2351C361.411 85.326 362.959 83.7783 364.868 83.7783H550.046C551.955 83.7783 553.502 85.326 553.502 87.2351V254.819H361.411V87.2351Z" fill="white"/>
</clipPath>
</defs>
</svg>
