<svg width="89" height="29" viewBox="0 0 89 29" fill="none" xmlns="http://www.w3.org/2000/svg">
<path d="M87.8541 9.05434C87.0562 6.76927 84.8816 5.12837 82.3274 5.12837H82.2739C80.6135 5.12837 79.1171 5.82054 78.0519 6.9317C76.9849 5.82054 75.4884 5.12837 73.8298 5.12837H73.7764C72.3168 5.12837 70.9826 5.66364 69.958 6.54962V6.09925C69.9229 5.65072 69.5544 5.29818 69.0992 5.29818H65.1812C64.7021 5.29818 64.3151 5.68579 64.3151 6.16754V27.4771C64.3151 27.9588 64.7021 28.3464 65.1812 28.3464H69.0992C69.5359 28.3464 69.8953 28.0197 69.9524 27.597L69.9506 12.2992C69.9506 12.2457 69.9524 12.1959 69.958 12.146C70.0206 11.4631 70.52 10.902 71.3088 10.8318H71.4544H71.8653H72.0312C72.3611 10.8614 72.6393 10.9776 72.8586 11.153C73.1996 11.4243 73.3894 11.8415 73.3894 12.2992L73.4041 27.5214C73.4041 28.0031 73.793 28.3926 74.2703 28.3926H78.1883C78.6508 28.3926 79.0268 28.0234 79.0489 27.5638L79.047 12.2789C79.0452 11.7769 79.2774 11.3228 79.6847 11.0533C79.8855 10.9241 80.127 10.8374 80.4052 10.8115H80.5508H80.9618H81.1276C81.9754 10.8854 82.4877 11.5295 82.4858 12.2789L82.5006 27.4808C82.5006 27.9625 82.8894 28.3501 83.3667 28.3501H87.2847C87.762 28.3501 88.1509 27.9625 88.1509 27.4808V11.1308C88.1509 10.016 88.0255 9.54163 87.8541 9.05434Z" fill="#999999"/>
<path d="M61.3303 5.35359H59.0894V1.71741C59.0894 1.71371 59.0894 1.71002 59.0894 1.70633C59.0894 1.26888 58.7355 0.914492 58.2988 0.914492C58.2472 0.914492 58.1974 0.921875 58.1495 0.931103C55.6653 1.61404 56.1629 5.06011 51.6275 5.35359H51.5262H51.1871C51.1207 5.35359 51.0581 5.36282 50.9973 5.37574H50.9936L50.9973 5.37759C50.6103 5.46434 50.3191 5.80765 50.3191 6.22111V10.1452C50.3191 10.6233 50.7079 11.0128 51.1871 11.0128H53.5515L53.5478 27.6525C53.5478 28.1268 53.9311 28.5107 54.4048 28.5107H58.2785C58.7503 28.5107 59.1336 28.1268 59.1336 27.6525L59.1354 11.0128H61.3303C61.8076 11.0128 62.1964 10.6233 62.1964 10.1452V6.22111C62.1964 5.74305 61.8076 5.35359 61.3303 5.35359Z" fill="#999999"/>
<path d="M47.234 5.3537H43.316C42.8387 5.3537 42.4517 5.74316 42.4517 6.22121V14.3353C42.4425 14.8373 42.0371 15.2397 41.534 15.2397H39.8938C39.3852 15.2397 38.9742 14.8299 38.9742 14.3205L38.9595 6.22121C38.9595 5.74316 38.5706 5.3537 38.0933 5.3537H34.1754C33.6962 5.3537 33.3092 5.74316 33.3092 6.22121V15.1142C33.3092 18.492 35.7142 20.9007 39.0885 20.9007C39.0885 20.9007 41.6206 20.9007 41.698 20.9155C42.155 20.9672 42.5107 21.3511 42.5107 21.8236C42.5107 22.2906 42.1624 22.6727 41.7109 22.7299C41.6888 22.7336 41.6685 22.7391 41.6445 22.7428L35.915 22.7631C35.4359 22.7631 35.0489 23.1526 35.0489 23.6306V27.5529C35.0489 28.0328 35.4359 28.4204 35.915 28.4204H42.3209C45.697 28.4204 48.1002 26.0135 48.1002 22.6339V6.22121C48.1002 5.74316 47.7131 5.3537 47.234 5.3537Z" fill="#999999"/>
<path d="M9.31093 12.547V14.378V14.9687C9.31093 15.4763 8.89997 15.8897 8.39318 15.8897L5.90714 15.8916V11.039H8.39318C8.89997 11.039 9.31093 11.4488 9.31093 11.9582V12.547ZM9.65555 5.35584H1.09169C0.621759 5.35584 0.242126 5.73792 0.242126 6.20675V10.0515C0.242126 10.0589 0.243969 10.0663 0.243969 10.0737C0.243969 10.0921 0.242126 10.1106 0.242126 10.1272V22.4588V27.5292C0.242126 28.0017 0.595959 28.3875 1.03456 28.3986H1.10828H5.02624C5.50355 28.3986 5.89239 28.0109 5.89239 27.531L5.90714 21.5673H9.65555C12.7921 21.5673 14.9778 19.3875 14.9778 16.233V10.6975C14.9778 7.54309 12.7921 5.35584 9.65555 5.35584Z" fill="#999999"/>
<path d="M25.5673 21.7568V22.3696C25.5673 22.4194 25.5599 22.4674 25.5525 22.5135C25.5433 22.5578 25.5304 22.6003 25.5157 22.6409C25.394 22.9842 25.0513 23.2334 24.644 23.2334H23.013C22.5044 23.2334 22.0898 22.8458 22.0898 22.3696V21.6294C22.0898 21.6202 22.0879 21.611 22.0879 21.6017L22.0898 19.6323V19.6286V19.4108V19.0158L22.0916 19.0103C22.0934 18.5359 22.5044 18.152 23.013 18.152H24.644C25.1545 18.152 25.5673 18.5377 25.5673 19.0158V21.7568ZM24.9444 5.37548H19.5079C19.0269 5.37548 18.6381 5.74094 18.6381 6.18947V7.71593C18.6381 7.72516 18.6399 7.73623 18.6399 7.74546C18.6399 7.75654 18.6381 7.76761 18.6381 7.77868V9.86995C18.6381 10.3443 19.0509 10.7319 19.5595 10.7319H24.7361C25.1453 10.7965 25.4696 11.0956 25.5157 11.5625V12.0683C25.4696 12.5131 25.1489 12.838 24.7582 12.8749H22.1948C18.7855 12.8749 16.3566 15.1433 16.3566 18.3292V22.7756V22.8919C16.3566 26.0593 18.4445 28.313 21.8299 28.313H28.9342C30.2095 28.313 31.2433 27.3458 31.2433 26.1553V11.2654C31.2433 7.65502 29.3857 5.37548 24.9444 5.37548Z" fill="#999999"/>
</svg>
