<svg width="84" height="32" viewBox="0 0 84 32" fill="none" xmlns="http://www.w3.org/2000/svg">
<path d="M57.0998 18.174L57.9361 18.4248C57.8803 18.6618 57.7967 18.8569 57.6712 19.0102C57.5458 19.1635 57.4064 19.2889 57.2253 19.3586C57.0441 19.4423 56.8211 19.4841 56.5423 19.4841C56.2079 19.4841 55.943 19.4423 55.7201 19.3447C55.511 19.2471 55.3298 19.0799 55.1765 18.829C55.0232 18.5921 54.9396 18.2715 54.9396 17.8952C54.9396 17.3935 55.0789 17.0032 55.3438 16.7245C55.6086 16.4457 55.9988 16.3203 56.4866 16.3203C56.8768 16.3203 57.1695 16.4039 57.3925 16.5572C57.6155 16.7106 57.7827 16.9475 57.8803 17.282L57.0441 17.4632C57.0162 17.3656 56.9883 17.2959 56.9465 17.2541C56.8908 17.1844 56.835 17.1287 56.7514 17.0869C56.6678 17.045 56.5842 17.0311 56.5005 17.0311C56.2915 17.0311 56.1242 17.1147 56.0127 17.2959C55.9291 17.4214 55.8873 17.6304 55.8873 17.8952C55.8873 18.2297 55.943 18.4666 56.0406 18.5921C56.1382 18.7175 56.2915 18.7872 56.4727 18.7872C56.6538 18.7872 56.7932 18.7315 56.8768 18.6339C56.9883 18.5085 57.058 18.3691 57.0998 18.174Z" fill="#225E63"/>
<path d="M58.2712 17.8941C58.2712 17.3923 58.4106 17.0021 58.6894 16.7233C58.9681 16.4446 59.3583 16.3052 59.8601 16.3052C60.3758 16.3052 60.766 16.4446 61.0448 16.7094C61.3235 16.9881 61.4629 17.3644 61.4629 17.8662C61.4629 18.2286 61.4071 18.5213 61.2817 18.7443C61.1563 18.9673 60.989 19.1484 60.7521 19.2739C60.5291 19.3993 60.2364 19.469 59.9019 19.469C59.5535 19.469 59.2747 19.4133 59.0378 19.3018C58.8148 19.1903 58.6336 19.023 58.4803 18.7721C58.327 18.5213 58.2712 18.2564 58.2712 17.8941ZM59.219 17.8941C59.219 18.2007 59.2747 18.4237 59.3862 18.5631C59.4977 18.7024 59.651 18.7721 59.8601 18.7721C60.0691 18.7721 60.2225 18.7024 60.334 18.577C60.4455 18.4376 60.5012 18.2007 60.5012 17.8662C60.5012 17.5735 60.4455 17.3644 60.32 17.239C60.2085 17.0996 60.0413 17.0439 59.8462 17.0439C59.651 17.0439 59.4977 17.1136 59.3862 17.2529C59.2747 17.3644 59.219 17.5874 59.219 17.8941Z" fill="#225E63"/>
<path d="M61.9511 16.3623H63.1915L63.6654 18.2299L64.1392 16.3623H65.3796V19.4286H64.5992V17.0871L63.9999 19.4286H63.303L62.7037 17.0871V19.4286H61.9232V16.3623H61.9511Z" fill="#225E63"/>
<path d="M65.9922 16.3623H67.5671C67.9155 16.3623 68.1664 16.4459 68.3337 16.6132C68.5009 16.7804 68.5845 17.0034 68.5845 17.3101C68.5845 17.6167 68.487 17.8676 68.3058 18.0348C68.1246 18.216 67.8319 18.2996 67.4556 18.2996H66.9399V19.4425H65.9922V16.3623V16.3623ZM66.9399 17.6724H67.1769C67.3581 17.6724 67.4835 17.6446 67.5671 17.5749C67.6368 17.5052 67.6786 17.4355 67.6786 17.3379C67.6786 17.2404 67.6507 17.1567 67.5811 17.0871C67.5114 17.0174 67.3999 16.9895 67.2187 16.9895H66.9539V17.6724H66.9399Z" fill="#225E63"/>
<path d="M69.0869 16.3623H70.0346V18.6759H71.512V19.4286H69.0869V16.3623Z" fill="#225E63"/>
<path d="M71.9855 16.3623H72.9332V19.4286H71.9855V16.3623Z" fill="#225E63"/>
<path d="M75.4981 18.9116H74.4249L74.2716 19.4133H73.3099L74.4667 16.3472H75.4981L76.6549 19.4133H75.6653L75.4981 18.9116ZM75.303 18.2565L74.9685 17.1555L74.634 18.2565H75.303Z" fill="#225E63"/>
<path d="M76.9474 16.3623H77.8254L78.9822 18.0627V16.3623H79.8742V19.4286H78.9822L77.8394 17.7421V19.4286H76.9474V16.3623V16.3623Z" fill="#225E63"/>
<path d="M80.2922 16.3623H83.1772V17.1149H82.2156V19.4286H81.2678V17.1149H80.3062V16.3623H80.2922Z" fill="#225E63"/>
<path d="M45.7004 21.0314L48.446 20.1672L47.554 18.1882C46.899 19.0105 46.2439 20.0697 45.7004 21.0314ZM44.7666 11.9861L39.3868 0L0 2.22997L10.9129 32L31.9164 25.3798C30.5784 23.4564 30.0906 21.1707 31.6376 20.0558C33.3659 18.8014 35.9721 20.2509 37.6307 22.2997C39.2335 19.6237 43.7352 13.3937 44.7666 11.9861Z" fill="#225E63"/>
<path d="M38.1613 8.66095C39.8059 8.66095 41.1439 7.40659 41.1439 5.84561C41.1439 4.28463 39.8059 3.03027 38.1613 3.03027C36.5167 3.03027 35.1787 4.28463 35.1787 5.84561C35.1787 7.39266 36.5167 8.66095 38.1613 8.66095ZM35.7223 9.8735H40.6003V22.6262H35.7223V9.8735Z" fill="white"/>
<path d="M33.3108 13.5944C33.3526 13.6083 33.3805 13.5944 33.3805 13.5526V10.3192C33.3805 10.2773 33.3526 10.2355 33.3108 10.2077C33.3108 10.2077 32.6697 9.78954 30.7184 9.67804C30.6209 9.62229 28.9066 9.60836 28.4467 9.67804C21.3387 10.2495 21.0739 15.3923 21.0739 15.6153V16.8696C21.0739 17.023 21.0739 22.2773 28.4467 22.7372C29.1714 22.793 30.5791 22.7372 30.7184 22.7372C32.4188 22.7372 33.5895 22.2215 33.5895 22.2215C33.6313 22.2076 33.6592 22.1658 33.6592 22.124V19.0996C33.6592 19.0578 33.6313 19.0439 33.6035 19.0717C33.6035 19.0717 33.0738 19.4898 30.7603 19.7268C30.1052 19.7965 29.7846 19.7686 29.5477 19.7268C26.2585 19.1693 26.1052 16.7721 26.1052 16.7721C26.1052 16.7303 26.0913 16.6606 26.0913 16.6327V15.7129C26.0913 15.671 26.0913 15.6014 26.1052 15.5735C26.1052 15.5735 26.3282 12.9951 29.5477 12.7164H30.7603C32.1679 12.8975 33.3108 13.5944 33.3108 13.5944Z" fill="white"/>
<path d="M7.52649 22.5835C7.52649 22.6253 7.55436 22.6532 7.59618 22.6532H12.3488C12.3906 22.6532 12.4185 22.6253 12.4185 22.5835V18.8762C12.4185 18.8343 12.4464 18.8065 12.4882 18.8065C12.4882 18.8065 20.084 19.35 20.084 14.2629C20.084 10.235 15.3175 9.80298 13.7565 9.87267C13.7286 9.87267 7.59618 9.87267 7.59618 9.87267C7.55436 9.87267 7.52649 9.90054 7.52649 9.94236V22.5835ZM12.3349 15.9772V12.6462H13.5056C13.5056 12.6462 15.192 12.7159 15.3314 13.8727C15.3593 13.9563 15.3593 14.5277 15.3314 14.5556C15.1084 15.9075 13.645 15.9772 13.645 15.9772H12.3349Z" fill="white"/>
<path d="M38.2988 28.7806C38.6891 28.7806 38.9957 28.7806 39.4974 28.5576C41.2256 27.6517 47.0654 13.3938 53.2257 9.00352C53.2675 8.97565 53.3093 8.93384 53.3372 8.89203C53.379 8.83628 53.379 8.78053 53.379 8.78053C53.379 8.78053 53.379 8.48785 52.4731 8.48785C46.9957 8.33454 41.2953 19.8328 38.2988 24.3764C38.257 24.4321 38.0619 24.3764 38.0619 24.3764C38.0619 24.3764 36.0549 22.007 34.3127 21.1011C34.2709 21.0872 34.0758 21.0175 33.8667 21.0314C33.7274 21.0314 32.919 21.1987 32.5427 21.5889C32.0967 22.0628 32.1106 22.3276 32.1106 22.899C32.1106 22.9408 32.1385 23.136 32.1943 23.2335C32.6263 23.9861 34.5636 26.6621 36.1664 28.1395C36.4033 28.3206 36.7796 28.7806 38.2988 28.7806Z" fill="#2BBC5D"/>
<path d="M54.8427 4.69775H59.4001C60.3061 4.69775 61.0308 4.82319 61.5744 5.06012C62.1319 5.31099 62.5918 5.65942 62.9402 6.10542C63.3026 6.56534 63.5674 7.09496 63.7207 7.69426C63.888 8.29356 63.9716 8.93467 63.9716 9.6176C63.9716 10.6768 63.8461 11.4991 63.6092 12.0845C63.3723 12.6699 63.0378 13.1577 62.6057 13.5618C62.1737 13.9521 61.7137 14.2169 61.2259 14.3563C60.5569 14.5374 59.9437 14.6211 59.4001 14.6211H54.8427V4.69775V4.69775ZM57.9089 6.94165V12.3632H58.6615C59.3026 12.3632 59.7625 12.2935 60.0273 12.1542C60.2921 12.0148 60.5151 11.7639 60.6684 11.4155C60.8218 11.0671 60.9054 10.4817 60.9054 9.68728C60.9054 8.62805 60.7381 7.91725 60.3897 7.52701C60.0413 7.13677 59.4838 6.94165 58.6754 6.94165H57.9089Z" fill="#225E63"/>
<path d="M64.8217 11.3449L67.7485 11.1637C67.8182 11.6376 67.9436 12 68.1387 12.2508C68.4593 12.655 68.9053 12.8501 69.4906 12.8501C69.9227 12.8501 70.2711 12.7526 70.5081 12.5435C70.745 12.3344 70.8704 12.0975 70.8704 11.8327C70.8704 11.5818 70.7589 11.3449 70.5359 11.1358C70.3129 10.9268 69.7833 10.7456 68.961 10.5644C67.6091 10.2578 66.6614 9.85361 66.076 9.35187C65.4906 8.85012 65.2119 8.20901 65.2119 7.42852C65.2119 6.91284 65.3652 6.43897 65.6579 5.97904C65.9506 5.51911 66.3966 5.17068 66.9959 4.90587C67.5952 4.64106 68.4035 4.51562 69.4349 4.51562C70.7032 4.51562 71.6788 4.75256 72.3338 5.22643C73.0028 5.7003 73.3931 6.45291 73.5185 7.48427L70.6196 7.65152C70.5359 7.20553 70.3826 6.88497 70.1318 6.67591C69.8809 6.46685 69.5464 6.36929 69.1143 6.36929C68.752 6.36929 68.4872 6.43897 68.306 6.59228C68.1248 6.74559 68.0412 6.92678 68.0412 7.14978C68.0412 7.30309 68.1109 7.4564 68.2642 7.58183C68.4035 7.70727 68.752 7.8327 69.2955 7.9442C70.6335 8.23688 71.5952 8.52957 72.1805 8.82225C72.7659 9.11493 73.184 9.49124 73.4488 9.9233C73.7136 10.3554 73.8391 10.8571 73.8391 11.4007C73.8391 12.0418 73.6579 12.6271 73.3095 13.1568C72.961 13.7003 72.4593 14.1045 71.8321 14.3832C71.2049 14.662 70.3966 14.8014 69.4349 14.8014C67.7485 14.8014 66.5778 14.4808 65.9227 13.8257C65.2816 13.1707 64.9192 12.3484 64.8217 11.3449Z" fill="#225E63"/>
<path d="M74.6201 11.3449L77.5469 11.1637C77.6166 11.6376 77.7421 12 77.9372 12.2508C78.2577 12.655 78.7037 12.8501 79.2891 12.8501C79.7211 12.8501 80.0696 12.7526 80.3065 12.5435C80.5434 12.3344 80.6689 12.0975 80.6689 11.8327C80.6689 11.5818 80.5574 11.3449 80.3344 11.1358C80.1114 10.9268 79.5818 10.7456 78.7595 10.5644C77.4076 10.2578 76.4598 9.85361 75.8745 9.35187C75.303 8.85012 75.0104 8.20901 75.0104 7.42852C75.0104 6.91284 75.1637 6.43897 75.4564 5.97904C75.749 5.51911 76.195 5.17068 76.7943 4.90587C77.3936 4.64106 78.202 4.51562 79.2333 4.51562C80.5016 4.51562 81.4772 4.75256 82.1323 5.22643C82.8013 5.7003 83.1915 6.45291 83.317 7.48427L80.418 7.65152C80.3344 7.20553 80.1811 6.88497 79.9302 6.67591C79.6793 6.46685 79.3448 6.36929 78.9128 6.36929C78.5504 6.36929 78.2856 6.43897 78.1044 6.59228C77.9232 6.74559 77.8396 6.92678 77.8396 7.14978C77.8396 7.30309 77.9093 7.4564 78.0626 7.58183C78.202 7.70727 78.5504 7.8327 79.094 7.9442C80.4319 8.23688 81.3936 8.52957 81.979 8.82225C82.5643 9.11493 82.9825 9.49124 83.2473 9.9233C83.5121 10.3554 83.6375 10.8571 83.6375 11.4007C83.6375 12.0418 83.4563 12.6271 83.1079 13.1568C82.7595 13.7003 82.2577 14.1045 81.6305 14.3832C81.0034 14.662 80.195 14.8014 79.2333 14.8014C77.5469 14.8014 76.3762 14.4808 75.7212 13.8257C75.0661 13.1707 74.7037 12.3484 74.6201 11.3449Z" fill="#225E63"/>
</svg>
