<svg width="127" height="35" viewBox="0 0 127 35" fill="none" xmlns="http://www.w3.org/2000/svg">
<path d="M17.2219 0.78772C7.88465 0.78772 0.315552 8.36874 0.315552 17.7199C0.315552 27.0719 7.88465 34.652 17.2211 34.652C26.5575 34.652 34.1275 27.0719 34.1275 17.7199C34.1275 8.36874 26.5584 0.78772 17.2219 0.78772Z" fill="#999999"/>
<path d="M24.9517 13.1321V13.7112C24.9517 13.8817 24.9087 14.0092 24.8236 14.0944C24.7385 14.1797 24.6112 14.2227 24.441 14.2227H23.5544H22.6677C22.5691 14.2227 22.4958 14.2489 22.4461 14.3029C22.3972 14.3569 22.3728 14.438 22.3728 14.5452V21.434V28.3212C22.3728 28.4917 22.3298 28.62 22.2455 28.7044C22.1604 28.7897 22.0323 28.8327 21.862 28.8327H21.1499H20.4386C20.2683 28.8327 20.1402 28.7897 20.0551 28.7044C19.9708 28.62 19.9278 28.4925 19.9278 28.3212V25.8319V23.3434H19.8756H19.8216C19.6059 23.7199 19.2924 24.0018 18.8802 24.1909C18.469 24.3791 17.9591 24.4728 17.3489 24.4728H16.9595H16.5701C15.9524 24.4728 15.3961 24.3817 14.9014 24.2002C14.4059 24.0196 13.9727 23.7469 13.601 23.3831C13.2293 23.021 12.9512 22.5905 12.7649 22.0958C12.5795 21.5995 12.486 21.0373 12.486 20.411V17.4776V14.5452C12.486 14.4473 12.4658 14.3705 12.4253 14.3164C12.3857 14.2624 12.325 14.2312 12.2441 14.2227H11.4645H10.6858C10.5155 14.2227 10.3883 14.1771 10.3032 14.0877C10.218 13.9982 10.175 13.8648 10.175 13.6842V13.1195V12.5539C10.175 12.3927 10.218 12.2711 10.3032 12.1918C10.3883 12.1107 10.5155 12.0702 10.6858 12.0702H14.6427H18.5996C18.0273 11.4734 17.4728 10.842 16.9368 10.1743C16.4007 9.5058 15.8841 8.80265 15.3869 8.06152L14.6343 6.94391L13.8833 5.82798C13.8479 5.76636 13.8218 5.70052 13.8033 5.63384C13.7856 5.56631 13.7755 5.49709 13.7755 5.42534C13.7755 5.29112 13.8092 5.18983 13.8766 5.1223C13.9432 5.05562 14.0443 5.02185 14.1783 5.02185H14.9975H15.8167C15.9777 5.02185 16.1167 5.05562 16.2339 5.1223C16.3502 5.18983 16.4446 5.29112 16.5162 5.42534L18.4369 8.51987L20.3576 11.6136C20.4571 11.7663 20.5641 11.8811 20.6813 11.9563C20.7976 12.0322 20.9232 12.0702 21.0572 12.0702H21.1246H21.192H22.8169H24.4418C24.6121 12.0702 24.7393 12.1099 24.8244 12.1918C24.9096 12.272 24.9525 12.3927 24.9525 12.5539V13.1321H24.9517Z" fill="white"/>
<path d="M19.6328 14.2219H17.4298H15.2267C15.1273 14.2219 15.0531 14.2481 15.0042 14.3021C14.9553 14.3561 14.9309 14.4372 14.9309 14.5444V17.357V20.1679C14.9309 20.8677 15.1012 21.3919 15.4416 21.7413C15.7821 22.0916 16.2929 22.2664 16.973 22.2664H17.3354H17.6978C18.0745 22.2664 18.4024 22.2182 18.6813 22.122C18.9611 22.0258 19.1929 21.8806 19.3758 21.6881C19.5595 21.4948 19.6977 21.2678 19.7896 21.0061C19.8815 20.7427 19.9278 20.4464 19.9278 20.1147V17.33V14.5452C19.9278 14.438 19.9034 14.3561 19.8536 14.303C19.8048 14.2481 19.7314 14.2219 19.6328 14.2219Z" fill="#999999"/>
<path d="M45.6605 20.2223V25.7369H43.0811V10.8681H48.761C50.4199 10.8681 51.7369 11.3013 52.712 12.1666C53.6872 13.0319 54.1752 14.1777 54.1752 15.6019C54.1752 17.0613 53.6975 18.1958 52.7429 19.0064C51.7873 19.8181 50.4508 20.2234 48.7311 20.2234L45.6605 20.2223ZM45.6605 18.139H48.76C49.6774 18.139 50.3776 17.9235 50.8606 17.4903C51.3425 17.0582 51.5845 16.4332 51.5845 15.6164C51.5845 14.813 51.3394 14.1715 50.8503 13.6909C50.3612 13.2103 49.6877 12.9638 48.831 12.9504H45.6595L45.6605 18.139Z" fill="#999999"/>
<path d="M58.8385 15.8926C59.6479 14.9531 60.6704 14.4828 61.9081 14.4828C64.26 14.4828 65.4534 15.8277 65.4874 18.5174V25.7378H63.0099V18.6092C63.0099 17.847 62.8452 17.3066 62.5157 16.99C62.1861 16.6734 61.7011 16.5145 61.0627 16.5145C60.0701 16.5145 59.3287 16.957 58.8396 17.8419V25.7357H56.3621V10.0491H58.8396L58.8385 15.8926Z" fill="#999999"/>
<path d="M67.7356 20.1097C67.7356 19.0268 67.9498 18.0522 68.3781 17.1838C68.8065 16.3154 69.4079 15.6481 70.1832 15.182C70.9586 14.7158 71.8483 14.4817 72.8543 14.4817C74.3433 14.4817 75.5512 14.9623 76.4789 15.9214C77.4067 16.8816 77.9082 18.1543 77.9834 19.7405L77.9936 20.3232C77.9936 21.4123 77.7846 22.3859 77.3665 23.2439C76.9485 24.102 76.3502 24.7662 75.5718 25.2355C74.7933 25.7058 73.8943 25.9399 72.8749 25.9399C71.318 25.9399 70.072 25.4211 69.1381 24.3825C68.2031 23.345 67.7356 21.961 67.7356 20.2314V20.1097ZM70.2131 20.3242C70.2131 21.4618 70.4479 22.3518 70.9164 22.9954C71.3859 23.639 72.0378 23.9597 72.8739 23.9597C73.71 23.9597 74.3608 23.6328 74.8262 22.9789C75.2917 22.325 75.5244 21.369 75.5244 20.1087C75.5244 18.9917 75.2855 18.1068 74.8056 17.453C74.3258 16.7991 73.675 16.4722 72.8533 16.4722C72.0439 16.4722 71.4014 16.794 70.9257 17.4375C70.4499 18.0811 70.2131 19.0443 70.2131 20.3242Z" fill="#999999"/>
<path d="M82.5966 14.6871L82.6677 15.9639C83.4832 14.9769 84.5541 14.4829 85.8794 14.4829C88.1767 14.4829 89.3464 15.801 89.3876 18.435V25.7369H86.9101V18.5784C86.9101 17.877 86.7588 17.3583 86.456 17.021C86.1533 16.6838 85.659 16.5157 84.9722 16.5157C83.9734 16.5157 83.2289 16.9684 82.7387 17.874V25.7379H80.2612V14.6871H82.5966Z" fill="#999999"/>
<path d="M96.9787 25.9409C95.4084 25.9409 94.1356 25.4459 93.1605 24.4547C92.1854 23.4646 91.6973 22.1456 91.6973 20.4975V20.1912C91.6973 19.0887 91.9094 18.1027 92.3347 17.2343C92.7589 16.3659 93.3561 15.6904 94.1243 15.2067C94.8925 14.723 95.7492 14.4817 96.6935 14.4817C98.1958 14.4817 99.3563 14.9623 100.176 15.9214C100.996 16.8806 101.404 18.2399 101.404 19.9963V20.9967H94.1954C94.2705 21.9094 94.5743 22.6303 95.1077 23.1614C95.6411 23.6926 96.3125 23.9576 97.1218 23.9576C98.2566 23.9576 99.1813 23.4987 99.8949 22.5787L101.23 23.8555C100.789 24.5166 100.199 25.0282 99.4613 25.3922C98.7241 25.7594 97.8962 25.9409 96.9787 25.9409ZM96.6832 16.4742C96.0036 16.4742 95.4547 16.7125 95.0366 17.189C94.6186 17.6654 94.3519 18.3296 94.2366 19.1805H98.9578V18.9969C98.9032 18.1667 98.6829 17.5386 98.2957 17.1126C97.9065 16.6867 97.369 16.4742 96.6832 16.4742Z" fill="#999999"/>
<path d="M106.354 20.222V25.7366H103.775V10.8678H109.455C111.113 10.8678 112.43 11.301 113.406 12.1663C114.381 13.0315 114.869 14.1774 114.869 15.6016C114.869 17.061 114.391 18.1955 113.437 19.0061C112.481 19.8178 111.144 20.2231 109.425 20.2231H106.354V20.222ZM106.354 18.1387H109.454C110.371 18.1387 111.071 17.9232 111.554 17.49C112.036 17.0579 112.278 16.4329 112.278 15.6161C112.278 14.8127 112.033 14.1712 111.544 13.6906C111.055 13.21 110.381 12.9635 109.525 12.9501H106.353V18.1387H106.354Z" fill="#999999"/>
<path d="M121.816 25.9409C120.246 25.9409 118.973 25.4459 117.998 24.4547C117.023 23.4646 116.535 22.1456 116.535 20.4975V20.1912C116.535 19.0887 116.747 18.1027 117.172 17.2343C117.597 16.3659 118.194 15.6904 118.962 15.2067C119.73 14.723 120.587 14.4817 121.531 14.4817C123.033 14.4817 124.194 14.9623 125.014 15.9214C125.833 16.8816 126.242 18.2399 126.242 19.9963V20.9967H119.033C119.108 21.9094 119.412 22.6303 119.945 23.1614C120.479 23.6926 121.15 23.9576 121.959 23.9576C123.094 23.9576 124.019 23.4987 124.732 22.5787L126.068 23.8555C125.626 24.5166 125.036 25.0282 124.299 25.3922C123.562 25.7594 122.734 25.9409 121.816 25.9409ZM121.521 16.4742C120.841 16.4742 120.292 16.7125 119.874 17.189C119.456 17.6654 119.19 18.3296 119.074 19.1805H123.795V18.9969C123.741 18.1667 123.521 17.5386 123.133 17.1126C122.744 16.6867 122.208 16.4742 121.521 16.4742Z" fill="#999999"/>
</svg>
