<svg width="296" height="309" viewBox="0 0 296 309" fill="none" xmlns="http://www.w3.org/2000/svg">
<path d="M0 12.5496C0 5.6664 5.57995 0.0864258 12.4632 0.0864258H283.537C290.42 0.0864258 296 5.66637 296 12.5496V308.913H0V12.5496Z" fill="url(#paint0_linear_2959_108)"/>
<g clip-path="url(#clip0_2959_108)">
<path d="M7.89331 14.8867C7.89331 11.0722 10.9855 7.97998 14.8 7.97998H281.2C285.014 7.97998 288.107 11.0722 288.107 14.8866V284.247H7.89331V14.8867Z" fill="url(#paint1_linear_2959_108)"/>
<g filter="url(#filter0_d_2959_108)">
<path d="M23.68 81.7155C23.68 79.6819 25.3285 78.0334 27.362 78.0334H272.585C274.618 78.0334 276.267 79.6819 276.267 81.7155V106.753C276.267 108.787 274.618 110.435 272.585 110.435H27.362C25.3285 110.435 23.68 108.787 23.68 106.753V81.7155Z" fill="white"/>
<path d="M24.0482 81.7155C24.0482 79.8853 25.5318 78.4016 27.362 78.4016H272.585C274.415 78.4016 275.898 79.8853 275.898 81.7155V106.753C275.898 108.583 274.415 110.067 272.585 110.067H27.362C25.5318 110.067 24.0482 108.583 24.0482 106.753V81.7155Z" stroke="#F4F4F4" stroke-width="0.736404"/>
</g>
<path d="M63.6035 98.4768C62.9299 98.4768 62.3526 98.3187 61.8715 98.0026C61.3972 97.6864 61.0639 97.2534 60.8715 96.7035L61.6962 96.2293C61.978 97.1022 62.6207 97.5386 63.6241 97.5386C64.119 97.5386 64.497 97.439 64.7582 97.2396C65.0194 97.0334 65.15 96.762 65.15 96.4252C65.15 96.0815 65.0194 95.8238 64.7582 95.652C64.497 95.4801 64.0606 95.298 63.4489 95.1055C63.1465 95.0093 62.9162 94.9337 62.7581 94.8787C62.6 94.8169 62.4007 94.7275 62.1602 94.6107C61.9265 94.487 61.7512 94.3632 61.6344 94.2395C61.5175 94.1089 61.411 93.9405 61.3148 93.7344C61.2254 93.5282 61.1807 93.2945 61.1807 93.0333C61.1807 92.4078 61.4007 91.913 61.8406 91.5487C62.2804 91.1776 62.8165 90.992 63.4489 90.992C64.0193 90.992 64.5142 91.1363 64.9335 91.425C65.3596 91.7137 65.6792 92.0951 65.8923 92.5694L65.0881 93.0333C64.7788 92.291 64.2324 91.9199 63.4489 91.9199C63.0571 91.9199 62.7409 92.0161 62.5004 92.2085C62.2598 92.401 62.1395 92.6622 62.1395 92.9921C62.1395 93.3082 62.2529 93.5488 62.4798 93.7137C62.7066 93.8787 63.0983 94.0505 63.6551 94.2292C63.8544 94.2911 63.9953 94.3358 64.0778 94.3632C64.1602 94.3907 64.2874 94.4388 64.4592 94.5076C64.6379 94.5763 64.7685 94.6313 64.851 94.6725C64.9335 94.7138 65.0434 94.7722 65.1809 94.8478C65.3252 94.9234 65.4318 94.9956 65.5005 95.0643C65.5692 95.133 65.6483 95.2189 65.7376 95.322C65.8338 95.4183 65.9026 95.5179 65.9438 95.621C65.985 95.7241 66.0194 95.8444 66.0469 95.9819C66.0813 96.1125 66.0985 96.2533 66.0985 96.4046C66.0985 97.0369 65.8682 97.5421 65.4077 97.9201C64.9472 98.2912 64.3458 98.4768 63.6035 98.4768ZM67.8907 96.1777C67.9801 96.6382 68.1897 96.9956 68.5196 97.2499C68.8564 97.5043 69.2688 97.6314 69.7568 97.6314C70.4372 97.6314 70.9321 97.3805 71.2414 96.8788L72.0043 97.3118C71.5025 98.0885 70.7465 98.4768 69.7361 98.4768C68.9183 98.4768 68.2516 98.2225 67.7361 97.7139C67.2275 97.1984 66.9732 96.5489 66.9732 95.7654C66.9732 94.9887 67.224 94.3426 67.7258 93.8271C68.2275 93.3117 68.877 93.0539 69.6743 93.0539C70.4303 93.0539 71.0455 93.322 71.5197 93.8581C72.0008 94.3873 72.2414 95.0265 72.2414 95.7757C72.2414 95.9063 72.2311 96.0403 72.2105 96.1777H67.8907ZM69.6743 93.8993C69.1932 93.8993 68.7945 94.0368 68.4784 94.3117C68.1622 94.5797 67.9663 94.9406 67.8907 95.3942H71.3341C71.2585 94.9062 71.0661 94.5351 70.7568 94.2808C70.4475 94.0265 70.0867 93.8993 69.6743 93.8993ZM77.5306 93.1879H78.4275V98.3428H77.5306V97.4561C77.0838 98.1366 76.4343 98.4768 75.582 98.4768C74.8604 98.4768 74.2452 98.2156 73.7366 97.6933C73.228 97.164 72.9737 96.5214 72.9737 95.7654C72.9737 95.0093 73.228 94.3701 73.7366 93.8478C74.2452 93.3185 74.8604 93.0539 75.582 93.0539C76.4343 93.0539 77.0838 93.3941 77.5306 94.0746V93.1879ZM75.6955 97.6108C76.2178 97.6108 76.6543 97.4355 77.0048 97.085C77.3553 96.7276 77.5306 96.2877 77.5306 95.7654C77.5306 95.243 77.3553 94.8066 77.0048 94.456C76.6543 94.0986 76.2178 93.9199 75.6955 93.9199C75.18 93.9199 74.747 94.0986 74.3964 94.456C74.0459 94.8066 73.8706 95.243 73.8706 95.7654C73.8706 96.2877 74.0459 96.7276 74.3964 97.085C74.747 97.4355 75.18 97.6108 75.6955 97.6108ZM80.6834 94.054C80.9789 93.4148 81.515 93.0952 82.2917 93.0952V94.0333C81.8518 94.0127 81.4738 94.1296 81.1576 94.3839C80.8415 94.6382 80.6834 95.0471 80.6834 95.6107V98.3428H79.7865V93.1879H80.6834V94.054ZM85.3102 98.4768C84.5335 98.4768 83.8874 98.2191 83.372 97.7036C82.8565 97.1812 82.5987 96.5351 82.5987 95.7654C82.5987 94.9956 82.8565 94.3529 83.372 93.8375C83.8874 93.3151 84.5335 93.0539 85.3102 93.0539C85.8188 93.0539 86.2759 93.1776 86.6814 93.4251C87.0869 93.6656 87.3893 93.9921 87.5886 94.4045L86.836 94.8375C86.7054 94.5626 86.5027 94.3426 86.2277 94.1777C85.9597 94.0127 85.6538 93.9302 85.3102 93.9302C84.7947 93.9302 84.3617 94.1055 84.0112 94.456C83.6675 94.8066 83.4957 95.243 83.4957 95.7654C83.4957 96.2808 83.6675 96.7138 84.0112 97.0644C84.3617 97.4149 84.7947 97.5902 85.3102 97.5902C85.6538 97.5902 85.9631 97.5111 86.238 97.353C86.513 97.1881 86.7226 96.9682 86.8669 96.6932L87.6299 97.1365C87.4099 97.5421 87.0938 97.8685 86.6814 98.116C86.269 98.3565 85.8119 98.4768 85.3102 98.4768ZM91.0825 93.0539C91.6874 93.0539 92.1719 93.2464 92.5362 93.6313C92.9005 94.0093 93.0826 94.5248 93.0826 95.1777V98.3428H92.1857V95.2293C92.1857 94.81 92.0723 94.487 91.8455 94.2601C91.6186 94.0265 91.3059 93.9096 90.9073 93.9096C90.4605 93.9096 90.0997 94.0505 89.8248 94.3323C89.5498 94.6072 89.4124 95.0334 89.4124 95.6107V98.3428H88.5154V91.126H89.4124V93.9302C89.7767 93.346 90.3334 93.0539 91.0825 93.0539ZM99.7576 93.0539C100.479 93.0539 101.094 93.3185 101.603 93.8478C102.112 94.3701 102.366 95.0093 102.366 95.7654C102.366 96.5214 102.112 97.164 101.603 97.6933C101.094 98.2156 100.479 98.4768 99.7576 98.4768C98.9054 98.4768 98.2559 98.1366 97.8091 97.4561V98.3428H96.9122V91.126H97.8091V94.0746C98.2559 93.3941 98.9054 93.0539 99.7576 93.0539ZM99.6442 97.6108C100.16 97.6108 100.593 97.4355 100.943 97.085C101.294 96.7276 101.469 96.2877 101.469 95.7654C101.469 95.243 101.294 94.8066 100.943 94.456C100.593 94.0986 100.16 93.9199 99.6442 93.9199C99.1219 93.9199 98.6854 94.0986 98.3349 94.456C97.9844 94.8066 97.8091 95.243 97.8091 95.7654C97.8091 96.2877 97.9844 96.7276 98.3349 97.085C98.6854 97.4355 99.1219 97.6108 99.6442 97.6108ZM106.833 93.1879H107.792L105.689 98.6624C105.469 99.2466 105.159 99.6899 104.761 99.9923C104.369 100.302 103.915 100.439 103.4 100.405V99.5696C104.032 99.6177 104.496 99.2672 104.792 98.518L104.884 98.3222L102.637 93.1879H103.596L105.348 97.2293L106.833 93.1879ZM115.83 91.126V92.0333H113.696V98.3428H112.747V92.0333H110.623V91.126H115.83ZM119.549 93.1879H120.508L118.405 98.6624C118.185 99.2466 117.875 99.6899 117.477 99.9923C117.085 100.302 116.631 100.439 116.116 100.405V99.5696C116.748 99.6177 117.212 99.2672 117.508 98.518L117.6 98.3222L115.353 93.1879H116.312L118.064 97.2293L119.549 93.1879ZM124.102 93.0539C124.824 93.0539 125.439 93.3185 125.948 93.8478C126.456 94.3701 126.71 95.0093 126.71 95.7654C126.71 96.5214 126.456 97.164 125.948 97.6933C125.439 98.2156 124.824 98.4768 124.102 98.4768C123.25 98.4768 122.6 98.1366 122.154 97.4561V100.405H121.257V93.1879H122.154V94.0746C122.6 93.3941 123.25 93.0539 124.102 93.0539ZM123.989 97.6108C124.504 97.6108 124.937 97.4355 125.288 97.085C125.638 96.7276 125.814 96.2877 125.814 95.7654C125.814 95.243 125.638 94.8066 125.288 94.456C124.937 94.0986 124.504 93.9199 123.989 93.9199C123.466 93.9199 123.03 94.0986 122.679 94.456C122.329 94.8066 122.154 95.243 122.154 95.7654C122.154 96.2877 122.329 96.7276 122.679 97.085C123.03 97.4355 123.466 97.6108 123.989 97.6108ZM128.41 96.1777C128.499 96.6382 128.709 96.9956 129.039 97.2499C129.375 97.5043 129.788 97.6314 130.276 97.6314C130.956 97.6314 131.451 97.3805 131.76 96.8788L132.523 97.3118C132.021 98.0885 131.265 98.4768 130.255 98.4768C129.437 98.4768 128.77 98.2225 128.255 97.7139C127.746 97.1984 127.492 96.5489 127.492 95.7654C127.492 94.9887 127.743 94.3426 128.245 93.8271C128.746 93.3117 129.396 93.0539 130.193 93.0539C130.949 93.0539 131.564 93.322 132.039 93.8581C132.52 94.3873 132.76 95.0265 132.76 95.7757C132.76 95.9063 132.75 96.0403 132.729 96.1777H128.41ZM130.193 93.8993C129.712 93.8993 129.313 94.0368 128.997 94.3117C128.681 94.5797 128.485 94.9406 128.41 95.3942H131.853C131.777 94.9062 131.585 94.5351 131.276 94.2808C130.966 94.0265 130.606 93.8993 130.193 93.8993ZM134.719 97.2809L134.049 99.7861H133.275L133.688 97.2809H134.719ZM145.409 91.126V98.3428H144.461V92.7034L142.1 96.6314H141.976L139.615 92.7137V98.3428H138.656V91.126H139.739L142.038 94.9406L144.327 91.126H145.409ZM151.21 97.6933C150.681 98.2156 150.038 98.4768 149.282 98.4768C148.526 98.4768 147.884 98.2156 147.355 97.6933C146.832 97.1709 146.571 96.5283 146.571 95.7654C146.571 95.0024 146.832 94.3598 147.355 93.8375C147.884 93.3151 148.526 93.0539 149.282 93.0539C150.038 93.0539 150.681 93.3151 151.21 93.8375C151.74 94.3598 152.004 95.0024 152.004 95.7654C152.004 96.5283 151.74 97.1709 151.21 97.6933ZM149.282 97.6005C149.798 97.6005 150.231 97.4252 150.581 97.0747C150.932 96.7242 151.107 96.2877 151.107 95.7654C151.107 95.243 150.932 94.8066 150.581 94.456C150.231 94.1055 149.798 93.9302 149.282 93.9302C148.774 93.9302 148.344 94.1055 147.994 94.456C147.643 94.8066 147.468 95.243 147.468 95.7654C147.468 96.2877 147.643 96.7242 147.994 97.0747C148.344 97.4252 148.774 97.6005 149.282 97.6005ZM157.33 91.126H158.227V98.3428H157.33V97.4561C156.883 98.1366 156.233 98.4768 155.381 98.4768C154.66 98.4768 154.044 98.2156 153.536 97.6933C153.027 97.164 152.773 96.5214 152.773 95.7654C152.773 95.0093 153.027 94.3701 153.536 93.8478C154.044 93.3185 154.66 93.0539 155.381 93.0539C156.233 93.0539 156.883 93.3941 157.33 94.0746V91.126ZM155.495 97.6108C156.017 97.6108 156.453 97.4355 156.804 97.085C157.154 96.7276 157.33 96.2877 157.33 95.7654C157.33 95.243 157.154 94.8066 156.804 94.456C156.453 94.0986 156.017 93.9199 155.495 93.9199C154.979 93.9199 154.546 94.0986 154.196 94.456C153.845 94.8066 153.67 95.243 153.67 95.7654C153.67 96.2877 153.845 96.7276 154.196 97.085C154.546 97.4355 154.979 97.6108 155.495 97.6108ZM160.215 96.1777C160.304 96.6382 160.514 96.9956 160.843 97.2499C161.18 97.5043 161.593 97.6314 162.081 97.6314C162.761 97.6314 163.256 97.3805 163.565 96.8788L164.328 97.3118C163.826 98.0885 163.07 98.4768 162.06 98.4768C161.242 98.4768 160.575 98.2225 160.06 97.7139C159.551 97.1984 159.297 96.5489 159.297 95.7654C159.297 94.9887 159.548 94.3426 160.05 93.8271C160.551 93.3117 161.201 93.0539 161.998 93.0539C162.754 93.0539 163.369 93.322 163.844 93.8581C164.325 94.3873 164.565 95.0265 164.565 95.7757C164.565 95.9063 164.555 96.0403 164.534 96.1777H160.215ZM161.998 93.8993C161.517 93.8993 161.118 94.0368 160.802 94.3117C160.486 94.5797 160.29 94.9406 160.215 95.3942H163.658C163.582 94.9062 163.39 94.5351 163.081 94.2808C162.771 94.0265 162.41 93.8993 161.998 93.8993ZM172.524 97.6933C171.995 98.2156 171.352 98.4768 170.596 98.4768C169.84 98.4768 169.198 98.2156 168.669 97.6933C168.146 97.1709 167.885 96.5283 167.885 95.7654C167.885 95.0024 168.146 94.3598 168.669 93.8375C169.198 93.3151 169.84 93.0539 170.596 93.0539C171.352 93.0539 171.995 93.3151 172.524 93.8375C173.054 94.3598 173.318 95.0024 173.318 95.7654C173.318 96.5283 173.054 97.1709 172.524 97.6933ZM170.596 97.6005C171.112 97.6005 171.545 97.4252 171.895 97.0747C172.246 96.7242 172.421 96.2877 172.421 95.7654C172.421 95.243 172.246 94.8066 171.895 94.456C171.545 94.1055 171.112 93.9302 170.596 93.9302C170.088 93.9302 169.658 94.1055 169.308 94.456C168.957 94.8066 168.782 95.243 168.782 95.7654C168.782 96.2877 168.957 96.7242 169.308 97.0747C169.658 97.4252 170.088 97.6005 170.596 97.6005ZM175.273 94.054C175.568 93.4148 176.104 93.0952 176.881 93.0952V94.0333C176.441 94.0127 176.063 94.1296 175.747 94.3839C175.431 94.6382 175.273 95.0471 175.273 95.6107V98.3428H174.376V93.1879H175.273V94.054ZM185.181 98.3428L184.594 96.7242H181.346L180.759 98.3428H179.738L182.429 91.126H183.511L186.202 98.3428H185.181ZM181.676 95.8272H184.264L182.965 92.2704L181.676 95.8272ZM192.528 93.0539C193.105 93.0539 193.573 93.2429 193.93 93.6209C194.287 93.9921 194.466 94.4973 194.466 95.1365V98.3428H193.569V95.1674C193.569 94.7688 193.466 94.4595 193.26 94.2395C193.054 94.0196 192.779 93.9096 192.435 93.9096C192.05 93.9096 191.741 94.0402 191.507 94.3014C191.28 94.5557 191.167 94.9475 191.167 95.4767V98.3428H190.27V95.1674C190.27 94.7688 190.17 94.4595 189.971 94.2395C189.779 94.0196 189.514 93.9096 189.177 93.9096C188.799 93.9096 188.483 94.0402 188.229 94.3014C187.981 94.5626 187.858 94.9543 187.858 95.4767V98.3428H186.961V93.1879H187.858V93.8787C188.208 93.3288 188.72 93.0539 189.394 93.0539C190.088 93.0539 190.593 93.346 190.909 93.9302C191.267 93.346 191.806 93.0539 192.528 93.0539ZM200.06 97.6933C199.531 98.2156 198.889 98.4768 198.132 98.4768C197.376 98.4768 196.734 98.2156 196.205 97.6933C195.682 97.1709 195.421 96.5283 195.421 95.7654C195.421 95.0024 195.682 94.3598 196.205 93.8375C196.734 93.3151 197.376 93.0539 198.132 93.0539C198.889 93.0539 199.531 93.3151 200.06 93.8375C200.59 94.3598 200.854 95.0024 200.854 95.7654C200.854 96.5283 200.59 97.1709 200.06 97.6933ZM198.132 97.6005C198.648 97.6005 199.081 97.4252 199.432 97.0747C199.782 96.7242 199.957 96.2877 199.957 95.7654C199.957 95.243 199.782 94.8066 199.432 94.456C199.081 94.1055 198.648 93.9302 198.132 93.9302C197.624 93.9302 197.194 94.1055 196.844 94.456C196.493 94.8066 196.318 95.243 196.318 95.7654C196.318 96.2877 196.493 96.7242 196.844 97.0747C197.194 97.4252 197.624 97.6005 198.132 97.6005ZM205.468 93.1879H206.365V98.3428H205.468V97.6005C205.104 98.1847 204.547 98.4768 203.798 98.4768C203.193 98.4768 202.709 98.2878 202.345 97.9098C201.98 97.5249 201.798 97.006 201.798 96.353V93.1879H202.695V96.3015C202.695 96.7207 202.809 97.0472 203.035 97.2809C203.262 97.5077 203.575 97.6211 203.974 97.6211C204.42 97.6211 204.781 97.4836 205.056 97.2087C205.331 96.9269 205.468 96.4973 205.468 95.92V93.1879ZM210.298 93.0539C210.903 93.0539 211.387 93.2464 211.752 93.6313C212.116 94.0093 212.298 94.5248 212.298 95.1777V98.3428H211.401V95.2293C211.401 94.81 211.288 94.487 211.061 94.2601C210.834 94.0265 210.521 93.9096 210.123 93.9096C209.676 93.9096 209.315 94.0505 209.04 94.3323C208.765 94.6072 208.628 95.0334 208.628 95.6107V98.3428H207.731V93.1879H208.628V93.9302C208.992 93.346 209.549 93.0539 210.298 93.0539ZM216.354 94.054H214.983V96.8479C214.983 97.1022 215.031 97.2843 215.128 97.3943C215.231 97.4974 215.385 97.5524 215.592 97.5592C215.798 97.5592 216.052 97.5524 216.354 97.5386V98.3428C215.571 98.4459 214.997 98.384 214.633 98.1572C214.269 97.9235 214.086 97.4871 214.086 96.8479V94.054H213.066V93.1879H214.086V92.0126L214.983 91.7446V93.1879H216.354V94.054Z" fill="#959595"/>
<g clip-path="url(#clip1_2959_108)">
<path d="M39.881 86.8706C43.5395 86.8706 46.5086 89.8398 46.5086 93.4982C46.5086 97.1567 43.5395 100.126 39.881 100.126C36.2225 100.126 33.2534 97.1567 33.2534 93.4982C33.2534 89.8398 36.2225 86.8706 39.881 86.8706ZM39.881 98.6531C42.7287 98.6531 45.0358 96.3459 45.0358 93.4982C45.0358 90.6498 42.7287 88.3434 39.881 88.3434C37.0326 88.3434 34.7262 90.6498 34.7262 93.4982C34.7262 96.3459 37.0326 98.6531 39.881 98.6531ZM46.1294 98.7054L48.2127 100.788L47.1707 101.83L45.0881 99.7466L46.1294 98.7054Z" fill="#959595"/>
</g>
<path d="M65.12 178.673L270.347 176.7" stroke="#DDDDDD" stroke-width="0.75399"/>
<path d="M65.12 236.887L270.347 234.913" stroke="#DDDDDD" stroke-width="0.75399"/>
<rect x="65.12" y="154.007" width="43.4133" height="11.84" rx="5.92" fill="#EBF3FA"/>
<rect x="232.853" y="154.007" width="37.4933" height="11.84" rx="5.92" fill="#EBF3FA"/>
<rect x="65.12" y="212.22" width="43.4133" height="11.84" rx="5.92" fill="#EBF3FA"/>
<rect x="232.853" y="212.22" width="37.4933" height="11.84" rx="5.92" fill="#EBF3FA"/>
<rect x="65.12" y="270.433" width="43.4133" height="11.84" rx="5.92" fill="#EBF3FA"/>
<rect x="232.853" y="270.433" width="37.4933" height="11.84" rx="5.92" fill="#EBF3FA"/>
<path d="M65.12 142.166C65.12 138.352 68.2122 135.26 72.0267 135.26H134.187C138.001 135.26 141.093 138.352 141.093 142.166C141.093 145.981 138.001 149.073 134.187 149.073H72.0267C68.2122 149.073 65.12 145.981 65.12 142.166Z" fill="#EBF3FA"/>
<path d="M217.067 142.166C217.067 138.352 220.159 135.26 223.973 135.26H263.44C267.254 135.26 270.347 138.352 270.347 142.166C270.347 145.981 267.254 149.073 263.44 149.073H223.973C220.159 149.073 217.067 145.981 217.067 142.166Z" fill="#FFDFDF"/>
<path d="M65.12 200.38C65.12 196.565 68.2122 193.473 72.0267 193.473H134.187C138.001 193.473 141.093 196.565 141.093 200.38C141.093 204.194 138.001 207.286 134.187 207.286H72.0267C68.2122 207.286 65.12 204.194 65.12 200.38Z" fill="#EBF3FA"/>
<path d="M217.067 200.38C217.067 196.565 220.159 193.473 223.973 193.473H263.44C267.254 193.473 270.347 196.565 270.347 200.38C270.347 204.194 267.254 207.286 263.44 207.286H223.973C220.159 207.286 217.067 204.194 217.067 200.38Z" fill="#DCFEDF"/>
<path d="M65.12 258.593C65.12 254.779 68.2122 251.687 72.0267 251.687H134.187C138.001 251.687 141.093 254.779 141.093 258.593C141.093 262.408 138.001 265.5 134.187 265.5H72.0267C68.2122 265.5 65.12 262.408 65.12 258.593Z" fill="#EBF3FA"/>
<path d="M217.067 258.593C217.067 254.779 220.159 251.687 223.973 251.687H263.44C267.254 251.687 270.347 254.779 270.347 258.593C270.347 262.408 267.254 265.5 263.44 265.5H223.973C220.159 265.5 217.067 262.408 217.067 258.593Z" fill="#DCFEDF"/>
<rect x="22.6934" y="132.3" width="35.52" height="35.52" rx="3.94667" fill="#EBF3FA"/>
<rect x="22.6934" y="190.513" width="35.52" height="35.52" rx="3.94667" fill="#EBF3FA"/>
<rect x="22.6934" y="248.727" width="35.52" height="35.52" rx="3.94667" fill="#EBF3FA"/>
<g filter="url(#filter1_d_2959_108)">
<path d="M7.89331 11.7162C7.89331 9.65273 9.56605 7.97998 11.6295 7.97998H285.357C287.421 7.97998 289.093 9.65272 289.093 11.7162V59.4971C289.093 61.5606 287.421 63.2333 285.357 63.2333H11.6295C9.56605 63.2333 7.89331 61.5606 7.89331 59.4971V11.7162Z" fill="white"/>
</g>
<path d="M25.6419 37.827H34.6491V39.307H25.6419L29.6112 43.2764L28.5649 44.3227L22.8091 38.567L28.5649 32.8113L29.6112 33.8576L25.6419 37.827Z" fill="#303030"/>
</g>
<path d="M56.5577 34.004V35.2196H53.6983V43.6733H52.4275V35.2196H49.582V34.004H56.5577ZM57.9622 37.927C58.3582 37.0706 59.0765 36.6424 60.1171 36.6424V37.8994C59.5277 37.8717 59.0212 38.0283 58.5976 38.369C58.174 38.7097 57.9622 39.2577 57.9622 40.0128V43.6733H56.7605V36.7667H57.9622V37.927ZM66.634 36.7667H67.8357V43.6733H66.634V42.4854C66.0354 43.3971 65.1652 43.8529 64.0233 43.8529C63.0563 43.8529 62.2321 43.503 61.5507 42.8031C60.8692 42.094 60.5285 41.233 60.5285 40.22C60.5285 39.207 60.8692 38.3506 61.5507 37.6507C62.2321 36.9416 63.0563 36.5871 64.0233 36.5871C65.1652 36.5871 66.0354 37.0429 66.634 37.9546V36.7667ZM64.1752 42.6926C64.8751 42.6926 65.4598 42.4578 65.9295 41.9881C66.3991 41.5093 66.634 40.9199 66.634 40.22C66.634 39.5201 66.3991 38.9354 65.9295 38.4657C65.4598 37.9869 64.8751 37.7474 64.1752 37.7474C63.4845 37.7474 62.9044 37.9869 62.4347 38.4657C61.9651 38.9354 61.7302 39.5201 61.7302 40.22C61.7302 40.9199 61.9651 41.5093 62.4347 41.9881C62.9044 42.4578 63.4845 42.6926 64.1752 42.6926ZM73.096 36.5871C73.9064 36.5871 74.5556 36.8449 75.0437 37.3606C75.5318 37.8671 75.7758 38.5578 75.7758 39.4326V43.6733H74.5741V39.5017C74.5741 38.94 74.4221 38.5072 74.1182 38.2033C73.8143 37.8902 73.3953 37.7336 72.8612 37.7336C72.2626 37.7336 71.7792 37.9224 71.4108 38.3C71.0424 38.6683 70.8583 39.2393 70.8583 40.0128V43.6733H69.6565V36.7667H70.8583V37.7612C71.3463 36.9785 72.0923 36.5871 73.096 36.5871ZM78.4895 38.6315C78.4895 38.8985 78.623 39.1149 78.8901 39.2807C79.1571 39.4373 79.4794 39.5662 79.857 39.6675C80.2346 39.7596 80.6121 39.8701 80.9897 39.999C81.3673 40.1187 81.6896 40.3305 81.9566 40.6344C82.2237 40.9291 82.3572 41.3113 82.3572 41.7809C82.3572 42.4071 82.1132 42.909 81.6251 43.2866C81.1462 43.6641 80.5293 43.8529 79.7741 43.8529C79.1019 43.8529 78.5263 43.7056 78.0475 43.4109C77.5686 43.1162 77.2279 42.7248 77.0253 42.2368L78.0613 41.6428C78.1718 41.9743 78.379 42.2368 78.6829 42.4301C78.9868 42.6235 79.3505 42.7202 79.7741 42.7202C80.1701 42.7202 80.497 42.6465 80.7549 42.4992C81.0127 42.3427 81.1416 42.1032 81.1416 41.7809C81.1416 41.5139 81.0081 41.3021 80.7411 41.1455C80.474 40.9797 80.1517 40.8508 79.7741 40.7587C79.3966 40.6574 79.019 40.5423 78.6414 40.4134C78.2639 40.2845 77.9416 40.0727 77.6745 39.778C77.4074 39.4833 77.2739 39.1057 77.2739 38.6453C77.2739 38.0467 77.5041 37.554 77.9646 37.1673C78.4342 36.7805 79.019 36.5871 79.7189 36.5871C80.2806 36.5871 80.7779 36.716 81.2107 36.9739C81.6527 37.2225 81.9843 37.5725 82.2053 38.0237L81.1969 38.59C80.9483 38.0007 80.4556 37.706 79.7189 37.706C79.3781 37.706 79.0881 37.7889 78.8486 37.9546C78.6092 38.1112 78.4895 38.3368 78.4895 38.6315ZM89.31 36.7667H90.5117V43.6733H89.31V42.4854C88.7114 43.3971 87.8411 43.8529 86.6992 43.8529C85.7323 43.8529 84.9081 43.503 84.2267 42.8031C83.5452 42.094 83.2045 41.233 83.2045 40.22C83.2045 39.207 83.5452 38.3506 84.2267 37.6507C84.9081 36.9416 85.7323 36.5871 86.6992 36.5871C87.8411 36.5871 88.7114 37.0429 89.31 37.9546V36.7667ZM86.8512 42.6926C87.5511 42.6926 88.1358 42.4578 88.6055 41.9881C89.0751 41.5093 89.31 40.9199 89.31 40.22C89.31 39.5201 89.0751 38.9354 88.6055 38.4657C88.1358 37.9869 87.5511 37.7474 86.8512 37.7474C86.1605 37.7474 85.5804 37.9869 85.1107 38.4657C84.6411 38.9354 84.4062 39.5201 84.4062 40.22C84.4062 40.9199 84.6411 41.5093 85.1107 41.9881C85.5804 42.4578 86.1605 42.6926 86.8512 42.6926ZM95.5786 43.8529C94.538 43.8529 93.6724 43.5076 92.9817 42.8169C92.2911 42.117 91.9457 41.2514 91.9457 40.22C91.9457 39.1886 92.2911 38.3276 92.9817 37.6369C93.6724 36.937 94.538 36.5871 95.5786 36.5871C96.2601 36.5871 96.8725 36.7529 97.4158 37.0844C97.9591 37.4067 98.3643 37.8441 98.6314 38.3966L97.623 38.9768C97.448 38.6085 97.1764 38.3138 96.808 38.0928C96.4489 37.8717 96.0391 37.7612 95.5786 37.7612C94.888 37.7612 94.3078 37.9961 93.8381 38.4657C93.3777 38.9354 93.1475 39.5201 93.1475 40.22C93.1475 40.9107 93.3777 41.4908 93.8381 41.9605C94.3078 42.4301 94.888 42.665 95.5786 42.665C96.0391 42.665 96.4535 42.5591 96.8218 42.3473C97.1902 42.1262 97.4711 41.8316 97.6644 41.4632L98.6866 42.0572C98.3919 42.6005 97.9683 43.0379 97.4158 43.3694C96.8633 43.6918 96.2509 43.8529 95.5786 43.8529ZM103.63 37.927H101.793V41.6704C101.793 42.0111 101.858 42.2552 101.987 42.4025C102.125 42.5406 102.332 42.6143 102.608 42.6235C102.884 42.6235 103.225 42.6143 103.63 42.5959V43.6733C102.581 43.8115 101.812 43.7286 101.324 43.4247C100.835 43.1116 100.591 42.5268 100.591 41.6704V37.927H99.2239V36.7667H100.591V35.192L101.793 34.8328V36.7667H103.63V37.927ZM105.661 35.5097C105.431 35.5097 105.237 35.4314 105.081 35.2748C104.924 35.1183 104.846 34.9295 104.846 34.7085C104.846 34.4875 104.924 34.2987 105.081 34.1421C105.237 33.9764 105.431 33.8935 105.661 33.8935C105.882 33.8935 106.071 33.9764 106.227 34.1421C106.384 34.2987 106.462 34.4875 106.462 34.7085C106.462 34.9295 106.384 35.1183 106.227 35.2748C106.071 35.4314 105.882 35.5097 105.661 35.5097ZM105.053 43.6733V36.7667H106.255V43.6733H105.053ZM113.918 42.8031C113.208 43.503 112.347 43.8529 111.334 43.8529C110.321 43.8529 109.46 43.503 108.751 42.8031C108.051 42.1032 107.702 41.2422 107.702 40.22C107.702 39.1978 108.051 38.3368 108.751 37.6369C109.46 36.937 110.321 36.5871 111.334 36.5871C112.347 36.5871 113.208 36.937 113.918 37.6369C114.627 38.3368 114.981 39.1978 114.981 40.22C114.981 41.2422 114.627 42.1032 113.918 42.8031ZM111.334 42.6788C112.025 42.6788 112.605 42.444 113.075 41.9743C113.545 41.5046 113.779 40.9199 113.779 40.22C113.779 39.5201 113.545 38.9354 113.075 38.4657C112.605 37.9961 112.025 37.7612 111.334 37.7612C110.653 37.7612 110.077 37.9961 109.608 38.4657C109.138 38.9354 108.903 39.5201 108.903 40.22C108.903 40.9199 109.138 41.5046 109.608 41.9743C110.077 42.444 110.653 42.6788 111.334 42.6788ZM119.837 36.5871C120.648 36.5871 121.297 36.8449 121.785 37.3606C122.273 37.8671 122.517 38.5578 122.517 39.4326V43.6733H121.315V39.5017C121.315 38.94 121.164 38.5072 120.86 38.2033C120.556 37.8902 120.137 37.7336 119.603 37.7336C119.004 37.7336 118.521 37.9224 118.152 38.3C117.784 38.6683 117.6 39.2393 117.6 40.0128V43.6733H116.398V36.7667H117.6V37.7612C118.088 36.9785 118.834 36.5871 119.837 36.5871ZM125.231 38.6315C125.231 38.8985 125.364 39.1149 125.631 39.2807C125.899 39.4373 126.221 39.5662 126.598 39.6675C126.976 39.7596 127.354 39.8701 127.731 39.999C128.109 40.1187 128.431 40.3305 128.698 40.6344C128.965 40.9291 129.099 41.3113 129.099 41.7809C129.099 42.4071 128.855 42.909 128.367 43.2866C127.888 43.6641 127.271 43.8529 126.516 43.8529C125.843 43.8529 125.268 43.7056 124.789 43.4109C124.31 43.1162 123.969 42.7248 123.767 42.2368L124.803 41.6428C124.913 41.9743 125.12 42.2368 125.424 42.4301C125.728 42.6235 126.092 42.7202 126.516 42.7202C126.912 42.7202 127.238 42.6465 127.496 42.4992C127.754 42.3427 127.883 42.1032 127.883 41.7809C127.883 41.5139 127.75 41.3021 127.482 41.1455C127.215 40.9797 126.893 40.8508 126.516 40.7587C126.138 40.6574 125.76 40.5423 125.383 40.4134C125.005 40.2845 124.683 40.0727 124.416 39.778C124.149 39.4833 124.015 39.1057 124.015 38.6453C124.015 38.0467 124.246 37.554 124.706 37.1673C125.176 36.7805 125.76 36.5871 126.46 36.5871C127.022 36.5871 127.519 36.716 127.952 36.9739C128.394 37.2225 128.726 37.5725 128.947 38.0237L127.938 38.59C127.69 38.0007 127.197 37.706 126.46 37.706C126.12 37.706 125.829 37.7889 125.59 37.9546C125.351 38.1112 125.231 38.3368 125.231 38.6315Z" fill="#303030"/>
<path d="M258.753 44.7333H272.073V46.2133H258.753V44.7333ZM266.153 40.4206L270.646 35.9273L271.692 36.9737L265.413 43.2533L259.134 36.9744L260.181 35.9273L264.673 40.4191V32.1533H266.153V40.4206Z" fill="#303030"/>
<defs>
<filter id="filter0_d_2959_108" x="12.6339" y="68.4602" width="274.679" height="54.4937" filterUnits="userSpaceOnUse" color-interpolation-filters="sRGB">
<feFlood flood-opacity="0" result="BackgroundImageFix"/>
<feColorMatrix in="SourceAlpha" type="matrix" values="0 0 0 0 0 0 0 0 0 0 0 0 0 0 0 0 0 0 127 0" result="hardAlpha"/>
<feOffset dy="1.47281"/>
<feGaussianBlur stdDeviation="5.52303"/>
<feColorMatrix type="matrix" values="0 0 0 0 0 0 0 0 0 0 0 0 0 0 0 0 0 0 0.05 0"/>
<feBlend mode="normal" in2="BackgroundImageFix" result="effect1_dropShadow_2959_108"/>
<feBlend mode="normal" in="SourceGraphic" in2="effect1_dropShadow_2959_108" result="shape"/>
</filter>
<filter id="filter1_d_2959_108" x="-3.31522" y="-1.73408" width="303.617" height="77.6705" filterUnits="userSpaceOnUse" color-interpolation-filters="sRGB">
<feFlood flood-opacity="0" result="BackgroundImageFix"/>
<feColorMatrix in="SourceAlpha" type="matrix" values="0 0 0 0 0 0 0 0 0 0 0 0 0 0 0 0 0 0 127 0" result="hardAlpha"/>
<feOffset dy="1.49447"/>
<feGaussianBlur stdDeviation="5.60427"/>
<feColorMatrix type="matrix" values="0 0 0 0 0 0 0 0 0 0 0 0 0 0 0 0 0 0 0.05 0"/>
<feBlend mode="normal" in2="BackgroundImageFix" result="effect1_dropShadow_2959_108"/>
<feBlend mode="normal" in="SourceGraphic" in2="effect1_dropShadow_2959_108" result="shape"/>
</filter>
<linearGradient id="paint0_linear_2959_108" x1="148" y1="3.3304" x2="148" y2="308.913" gradientUnits="userSpaceOnUse">
<stop offset="0.508831" stop-color="#DEDEDE"/>
<stop offset="1" stop-color="#DEDEDE" stop-opacity="0.06"/>
</linearGradient>
<linearGradient id="paint1_linear_2959_108" x1="148" y1="7.97998" x2="148" y2="284.247" gradientUnits="userSpaceOnUse">
<stop offset="0.823604" stop-color="#FCFDFF"/>
<stop offset="1" stop-color="#FCFDFF" stop-opacity="0"/>
</linearGradient>
<clipPath id="clip0_2959_108">
<path d="M7.89331 14.8867C7.89331 11.0722 10.9855 7.97998 14.8 7.97998H281.2C285.014 7.97998 288.107 11.0722 288.107 14.8866V284.247H7.89331V14.8867Z" fill="white"/>
</clipPath>
<clipPath id="clip1_2959_108">
<rect width="17.6737" height="17.6737" fill="white" transform="translate(31.7805 85.3972)"/>
</clipPath>
</defs>
</svg>
