<svg width="81" height="29" viewBox="0 0 81 29" fill="none" xmlns="http://www.w3.org/2000/svg">
<path d="M1.24487 24.5141H1.84495L1.28297 26.8514C1.19724 27.1949 1.21629 27.462 1.3306 27.6337C1.4449 27.8054 1.65445 27.8913 1.96877 27.8913C2.27358 27.8913 2.53075 27.8054 2.73078 27.6337C2.93081 27.462 3.06416 27.1949 3.14988 26.8514L3.71186 24.5141H4.32146L3.74996 26.9087C3.62614 27.4238 3.40706 27.815 3.08321 28.0725C2.76888 28.3301 2.34978 28.4637 1.83542 28.4637C1.32107 28.4637 0.968643 28.3397 0.778142 28.0821C0.58764 27.8245 0.54954 27.4334 0.673366 26.9182L1.24487 24.5141Z" fill="#999999"/>
<path d="M4.2356 28.3606L5.1881 24.3633L6.99786 26.7101C7.04549 26.7769 7.09311 26.8437 7.14074 26.92C7.18836 26.9963 7.23599 27.0822 7.29314 27.1776L7.93132 24.5159H8.4933L7.54079 28.5037L5.69293 26.1091C5.6453 26.0423 5.59768 25.9755 5.55005 25.9088C5.50243 25.8324 5.46433 25.7657 5.43575 25.6798L4.79757 28.351H4.2356V28.3606Z" fill="#999999"/>
<path d="M8.4458 28.3606L9.36021 24.5159H9.96981L9.05541 28.3606H8.4458Z" fill="#999999"/>
<path d="M9.92236 28.3606L10.8368 24.5159H12.9228L12.7989 25.0502H11.3225L11.0939 26.0042H12.5703L12.437 26.548H10.9606L10.532 28.351H9.92236V28.3606Z" fill="#999999"/>
<path d="M12.6846 28.3606L13.599 24.5159H14.2086L13.2942 28.3606H12.6846Z" fill="#999999"/>
<path d="M14.1609 28.3606L15.0753 24.5159H17.1613L17.0375 25.0502H15.5611L15.3325 26.0137H16.8089L16.6755 26.5575H15.1991L14.9038 27.7977H16.3802L16.2469 28.3606H14.1609Z" fill="#999999"/>
<path d="M16.9517 28.3606L17.8661 24.5159H18.6852C19.2186 24.5159 19.5901 24.5445 19.7901 24.6018C19.9902 24.659 20.1616 24.7449 20.295 24.8785C20.4664 25.0502 20.5807 25.2696 20.6283 25.5272C20.676 25.7943 20.6569 26.0996 20.5807 26.4335C20.495 26.7769 20.3712 27.0727 20.1997 27.3398C20.0283 27.6069 19.8092 27.8168 19.552 27.9885C19.3615 28.1221 19.1519 28.2079 18.9233 28.2652C18.7043 28.3224 18.3709 28.351 17.9327 28.351H17.7708H16.9517V28.3606ZM17.6946 27.7882H18.209C18.4852 27.7882 18.7043 27.7691 18.8567 27.7309C19.0091 27.6928 19.1424 27.626 19.2662 27.5401C19.4377 27.4161 19.5806 27.2635 19.6949 27.0727C19.8092 26.8914 19.8949 26.672 19.9521 26.4239C20.0092 26.1759 20.0283 25.966 19.9997 25.7848C19.9711 25.6035 19.9044 25.4413 19.7901 25.3173C19.7044 25.2219 19.5996 25.1647 19.4567 25.1265C19.3139 25.0883 19.0948 25.0693 18.7805 25.0693H18.5614H18.3423L17.6946 27.7882Z" fill="#999999"/>
<path d="M23.3811 26.6338L22.9715 28.3606H22.4L23.3144 24.5159H24.2384C24.5146 24.5159 24.7051 24.535 24.8289 24.5636C24.9527 24.5923 25.048 24.6399 25.1242 24.7163C25.2194 24.8021 25.2861 24.9262 25.3147 25.0788C25.3433 25.2314 25.3337 25.3936 25.2956 25.5749C25.248 25.7561 25.1813 25.9279 25.0766 26.0805C24.9718 26.2331 24.848 26.3572 24.7146 26.443C24.6003 26.5098 24.4765 26.567 24.3431 26.5957C24.2098 26.6243 24.0002 26.6434 23.7335 26.6434H23.6097H23.3811V26.6338ZM23.543 26.1187H23.6954C24.0288 26.1187 24.2669 26.0805 24.4003 26.0042C24.5336 25.9279 24.6194 25.7943 24.667 25.6035C24.7146 25.4032 24.686 25.2505 24.5908 25.1742C24.486 25.0883 24.2765 25.0502 23.9621 25.0502H23.8097L23.543 26.1187Z" fill="#999999"/>
<path d="M27.3626 28.3606L27.1721 27.3684H25.6862L25.0194 28.3606H24.3812L27.1435 24.3633L28.0007 28.3606H27.3626ZM26.0481 26.8437H27.0863L26.9149 25.966C26.9054 25.9088 26.8958 25.842 26.8958 25.7752C26.8863 25.6989 26.8863 25.6226 26.8863 25.5367C26.8482 25.6226 26.8101 25.6989 26.7625 25.7752C26.7244 25.8515 26.6863 25.9183 26.6482 25.9756L26.0481 26.8437Z" fill="#999999"/>
<path d="M28.877 28.3604L29.2961 26.6051L28.5341 24.5253H29.1722L29.6485 25.8323C29.658 25.8705 29.6675 25.9086 29.6866 25.9659C29.7056 26.0231 29.7152 26.0804 29.7342 26.1376C29.7723 26.0804 29.8104 26.0231 29.8485 25.9659C29.8866 25.9086 29.9247 25.8609 29.9628 25.8132L31.0772 24.5253H31.6869L29.9057 26.5955L29.4866 28.3509H28.877V28.3604Z" fill="#999999"/>
<path d="M34.6777 26.4621C34.6777 26.4335 34.6872 26.3476 34.7063 26.2141C34.7158 26.0996 34.7253 26.0137 34.7349 25.9374C34.6968 26.0233 34.6587 26.1091 34.611 26.2045C34.5634 26.2904 34.5063 26.3858 34.4396 26.4716L32.9727 28.5227L32.4965 26.4335C32.4774 26.3476 32.4584 26.2618 32.4489 26.1854C32.4393 26.1091 32.4298 26.0233 32.4298 25.9469C32.4108 26.0233 32.3822 26.1091 32.3536 26.2045C32.325 26.2904 32.2869 26.3858 32.2393 26.4812L31.382 28.3701H30.8201L32.6584 24.3633L33.1823 26.7865C33.1918 26.8246 33.2013 26.8914 33.2109 26.9773C33.2204 27.0631 33.2394 27.1776 33.2585 27.3112C33.3252 27.1967 33.4109 27.0631 33.5252 26.8914C33.5538 26.8437 33.5823 26.8151 33.5919 26.7865L35.2492 24.3633L35.1921 28.3701H34.6301L34.6777 26.4621Z" fill="#999999"/>
<path d="M35.6875 28.3606L36.6019 24.5159H38.6879L38.5641 25.0502H37.0877L36.8591 26.0137H38.3355L38.2021 26.5575H36.7257L36.4305 27.7977H37.9068L37.7735 28.3606H35.6875Z" fill="#999999"/>
<path d="M38.4689 28.3606L39.4214 24.3633L41.2311 26.7101C41.2788 26.7769 41.3264 26.8437 41.374 26.92C41.4216 26.9963 41.4693 27.0822 41.5264 27.1776L42.1646 24.5159H42.7266L41.7741 28.5037L39.9262 26.1091C39.8786 26.0423 39.831 25.9755 39.7833 25.9088C39.7357 25.8324 39.6976 25.7657 39.669 25.6798L39.0309 28.351H38.4689V28.3606Z" fill="#999999"/>
<path d="M44.6695 25.0404L43.879 28.3508H43.2694L44.0599 25.0404H43.0693L43.1932 24.5062H45.784L45.6602 25.0404H44.6695Z" fill="#999999"/>
<path d="M45.3078 27.5879L45.8508 27.3589C45.8603 27.5306 45.9079 27.6642 46.0127 27.7501C46.1175 27.8359 46.2603 27.8836 46.4508 27.8836C46.6318 27.8836 46.7842 27.8359 46.9176 27.731C47.0509 27.626 47.1367 27.4925 47.1748 27.3208C47.2319 27.0918 47.0985 26.8915 46.7747 26.7197C46.7271 26.6911 46.6985 26.672 46.6699 26.6625C46.308 26.4526 46.0794 26.2713 45.9841 26.0996C45.8889 25.9279 45.8698 25.7276 45.927 25.4891C46.0032 25.1742 46.1651 24.9262 46.4223 24.7259C46.6795 24.5351 46.9652 24.4301 47.3081 24.4301C47.5843 24.4301 47.8034 24.4874 47.9653 24.5923C48.1273 24.6972 48.213 24.8594 48.2416 25.0598L47.7082 25.3078C47.6605 25.1838 47.6034 25.0979 47.5272 25.0407C47.451 24.9834 47.3557 24.9548 47.2414 24.9548C47.0795 24.9548 46.9366 25.0025 46.8223 25.0884C46.708 25.1742 46.6318 25.2887 46.5937 25.4414C46.5366 25.6703 46.6985 25.8897 47.07 26.0901C47.0986 26.1092 47.1176 26.1187 47.1367 26.1282C47.4605 26.3 47.6796 26.4717 47.7748 26.6434C47.8701 26.8151 47.8891 27.0155 47.832 27.2731C47.7463 27.6356 47.5653 27.9218 47.2891 28.1412C47.0128 28.3511 46.689 28.4656 46.308 28.4656C45.9936 28.4656 45.746 28.3892 45.5745 28.2366C45.384 28.084 45.2983 27.8645 45.3078 27.5879Z" fill="#999999"/>
<path d="M49.7943 28.3606L50.7087 24.5159H51.3183L50.4039 28.3606H49.7943Z" fill="#999999"/>
<path d="M51.2803 28.3606L52.2328 24.3633L54.0425 26.7101C54.0902 26.7769 54.1378 26.8437 54.1854 26.92C54.233 26.9963 54.2807 27.0822 54.3378 27.1776L54.976 24.5159H55.538L54.5855 28.5037L52.7376 26.1091C52.69 26.0423 52.6424 25.9755 52.5947 25.9088C52.5471 25.8324 52.509 25.7657 52.4804 25.6798L51.8422 28.351H51.2803V28.3606Z" fill="#999999"/>
<path d="M57.4811 25.0404L56.6905 28.3508H56.0809L56.8715 25.0404H55.8809L56.0047 24.5062H58.5955L58.4717 25.0404H57.4811Z" fill="#999999"/>
<path d="M58.1384 28.3606L59.0528 24.5159H61.1483L61.0245 25.0502H59.5481L59.3195 26.0137H60.7959L60.6626 26.5575H59.1862L58.8909 27.7977H60.3673L60.2339 28.3606H58.1384Z" fill="#999999"/>
<path d="M61.9005 26.6336L61.4909 28.3508H60.9194L61.8338 24.5062H62.6816C62.9292 24.5062 63.1197 24.5252 63.2436 24.5539C63.3769 24.5825 63.4817 24.6397 63.5579 24.716C63.6531 24.8114 63.7103 24.9259 63.7389 25.0786C63.7674 25.2217 63.7579 25.3839 63.7198 25.5651C63.6436 25.8704 63.5198 26.1184 63.3293 26.2902C63.1388 26.4619 62.9007 26.5668 62.6149 26.605L63.4817 28.3508H62.7959L61.9672 26.6336H61.9005ZM62.0529 26.1471H62.1672C62.4911 26.1471 62.7101 26.1089 62.834 26.0326C62.9578 25.9563 63.0435 25.8227 63.0912 25.6223C63.1388 25.4125 63.1197 25.2598 63.0245 25.174C62.9292 25.0881 62.7292 25.0404 62.4244 25.0404H62.3101L62.0529 26.1471Z" fill="#999999"/>
<path d="M63.8529 28.3606L64.7673 24.5159H66.8533L66.7295 25.0502H65.2531L65.0245 26.0042H66.5009L66.3675 26.548H64.8911L64.4625 28.351H63.8529V28.3606Z" fill="#999999"/>
<path d="M68.8822 28.3606L68.6917 27.3684H67.2058L66.5391 28.3606H65.9009L68.6631 24.3633L69.5204 28.3606H68.8822ZM67.5582 26.8437H68.5965L68.425 25.966C68.4155 25.9088 68.406 25.842 68.406 25.7752C68.3964 25.6989 68.3964 25.6226 68.3964 25.5367C68.3583 25.6226 68.3202 25.6989 68.2726 25.7752C68.2345 25.8515 68.1964 25.9183 68.1583 25.9756L67.5582 26.8437Z" fill="#999999"/>
<path d="M73.4833 25.4507C73.3499 25.2981 73.188 25.1836 73.0165 25.1168C72.8451 25.0405 72.6546 25.0024 72.4355 25.0024C72.0259 25.0024 71.664 25.1359 71.3401 25.403C71.0163 25.6702 70.8067 26.0231 70.702 26.4524C70.6067 26.8627 70.6448 27.2061 70.8353 27.4828C71.0163 27.7499 71.302 27.8834 71.683 27.8834C71.9021 27.8834 72.1212 27.8453 72.3403 27.7594C72.5593 27.6831 72.7784 27.5591 73.007 27.3969L72.8356 28.1029C72.6451 28.2269 72.445 28.3128 72.2355 28.37C72.0259 28.4272 71.8164 28.4559 71.5878 28.4559C71.302 28.4559 71.0449 28.4082 70.8258 28.3128C70.6067 28.2174 70.4257 28.0743 70.2829 27.8834C70.14 27.7022 70.0543 27.4828 70.0162 27.2347C69.9781 26.9867 69.9876 26.7196 70.0638 26.4334C70.1305 26.1472 70.2448 25.8896 70.3972 25.6415C70.5496 25.3935 70.7496 25.1741 70.9782 24.9928C71.2068 24.802 71.4544 24.6589 71.7211 24.5635C71.9878 24.4681 72.2545 24.4204 72.5308 24.4204C72.7498 24.4204 72.9499 24.449 73.1404 24.5158C73.3214 24.5826 73.4928 24.678 73.6452 24.8116L73.4833 25.4507Z" fill="#999999"/>
<path d="M73.54 28.3606L74.4544 24.5159H76.5404L76.4166 25.0502H74.9402L74.7116 26.0137H76.188L76.0547 26.5575H74.5783L74.283 27.7977H75.7594L75.626 28.3606H73.54Z" fill="#999999"/>
<path d="M62.453 21.1679H58.2715L64.0818 0.151123H68.2633L62.453 21.1679Z" fill="#999999"/>
<path d="M60.2815 0.809397C59.9957 0.408715 59.548 0.208374 58.9384 0.208374H35.964L34.8305 4.32968H39.012H55.7285L54.5093 8.72764H37.7928V8.7181H33.6113L30.1442 21.2633H34.3257L36.6498 12.8489H55.4427C56.0333 12.8489 56.5857 12.6486 57.1001 12.2479C57.6144 11.8472 57.9574 11.3512 58.1193 10.7597L60.4434 2.34535C60.6244 1.7157 60.5672 1.21008 60.2815 0.809397Z" fill="#999999"/>
<path d="M27.7054 19.8491C27.4768 20.6791 26.7148 21.261 25.8575 21.261H4.30231C3.71175 21.261 3.2736 21.0607 2.98785 20.66C2.7021 20.2593 2.63542 19.7632 2.80687 19.1717L8.0647 0.206116H12.2462L7.55035 17.1493H24.2764L28.9722 0.206116H33.1537L27.7054 19.8491Z" fill="#999999"/>
<path d="M75.4833 0.189148L80.7697 10.7214L69.6539 21.2536L75.4833 0.189148Z" fill="#999999"/>
<path d="M71.7685 0.189392L77.055 10.7216L65.9297 21.2538L71.7685 0.189392Z" fill="#999999"/>
</svg>
