<svg width="120" height="120" viewBox="0 0 120 120" fill="none" xmlns="http://www.w3.org/2000/svg">
<g style="mix-blend-mode:multiply" opacity="0.5">
<path d="M117.112 76.358L83.2355 55.8369L64.1416 70.7761L44.2264 70.7248L47.9374 73.5665L41.1827 77.8045L20.822 77.7521L24.533 80.5938L9.03201 90.3169C9.01046 90.3302 8.99254 90.3495 8.98008 90.3728C8.96762 90.3962 8.96106 90.4226 8.96106 90.4496C8.96106 90.4765 8.96762 90.503 8.98008 90.5263C8.99254 90.5496 9.01046 90.5689 9.03201 90.5823L45.9582 113.744L62.7393 110.793L69.4919 106.696L86.1437 103.767L101.029 94.7333C101.138 94.6674 101.228 94.5713 101.292 94.4548C101.355 94.3383 101.389 94.2056 101.39 94.0701C101.391 93.9347 101.359 93.8015 101.297 93.6841C101.235 93.5666 101.145 93.4692 101.037 93.4017L96.2429 90.3905L102.326 88.848L106.022 89.9633L116.082 84.61L109.512 81.0411L117.112 76.358Z" fill="#B3B3B3"/>
</g>
<path d="M83.3909 106.487L33.9395 77.8842C33.853 77.8347 33.853 65.1835 33.9395 65.134L54.7487 65.6208L104.395 94.3431L83.3909 106.487Z" fill="#A9C55E"/>
<path d="M83.3907 93.8782L34.0284 65.3196C33.9996 65.3031 33.9757 65.2793 33.959 65.2505C33.9424 65.2218 33.9336 65.1892 33.9336 65.1559C33.9336 65.1227 33.9424 65.0901 33.959 65.0613C33.9757 65.0326 33.9996 65.0088 34.0284 64.9923L54.7499 53.0039L104.396 81.7262L83.3907 93.8782Z" fill="#C1D97A"/>
<path d="M83.6339 92.5279L36.0775 65.0144L54.5045 54.353L102.061 81.8666L83.6339 92.5279Z" fill="#4E7735"/>
<path d="M89.6773 79.955C88.0305 79.0007 87.2662 77.7218 87.3746 76.4649L62.9315 62.3245C60.6398 62.4524 58.2658 62.0124 56.523 61.003L51.2548 57.9543L42.1978 63.1908L47.4659 66.2395C49.1648 67.2213 49.9251 68.547 49.7604 69.8396L74.3818 84.0831C76.4924 84.0515 78.6222 84.4957 80.2236 85.4211L86.5828 89.0996L96.0309 83.6335L89.6773 79.955Z" fill="#C1D97A"/>
<path d="M69.9302 78.9959C75.4272 78.1501 79.501 74.9694 79.0294 71.8917C78.5578 68.814 73.7193 67.0047 68.2223 67.8505C62.7254 68.6964 58.6515 71.8771 59.1231 74.9548C59.5948 78.0325 64.4333 79.8418 69.9302 78.9959Z" fill="#4E7735"/>
<path d="M57.7761 67.594C56.1293 68.5443 53.4726 68.5443 51.8313 67.594C50.1901 66.6438 50.1846 65.1051 51.8313 64.1562C53.4781 63.2074 56.1334 63.206 57.7761 64.1562C59.4187 65.1064 59.4173 66.6452 57.7761 67.594Z" fill="#4E7735"/>
<path d="M84.6246 83.1331C82.9779 84.0819 80.3226 84.0819 78.68 83.1331C77.0374 82.1842 77.0332 80.6427 78.68 79.6953C80.3267 78.7478 82.9834 78.7451 84.6246 79.6953C86.2659 80.6455 86.2659 82.1787 84.6246 83.1331Z" fill="#4E7735"/>
<path d="M83.3908 93.8783L104.394 81.7263V94.3349L83.3908 106.487V93.8783Z" fill="#7F9850"/>
<path d="M48.5446 73.7177L59.2374 79.9044L80.2745 67.7428L69.5817 61.5479L48.5446 73.7177Z" fill="#F2FFE3"/>
<path d="M48.5406 73.7136L50.0227 74.5868L71.0749 62.4101L69.5928 61.5369L48.5406 73.7136Z" fill="#D14845"/>
<path d="M57.7554 79.0614L59.2704 79.9222L80.2745 67.7386L78.8117 66.9011L57.7554 79.0614Z" fill="#D14845"/>
<path d="M48.5406 73.7136V86.3497L59.2787 92.6147L59.2403 79.9031L48.5406 73.7136Z" fill="#CFCAC1"/>
<path d="M48.5406 73.7136V86.3497L50.0598 87.3012L50.0392 74.569L48.5406 73.7136Z" fill="#B83F3D"/>
<path d="M57.7759 79.0461L57.7594 91.7028L59.2785 92.6544L59.273 79.9193L57.7759 79.0461Z" fill="#B83F3D"/>
<path d="M64.0732 87.9653L83.3565 98.8151H83.2399L84.5586 98.0835L85.8815 97.3588L88.5328 95.9191C89.4151 95.4378 90.303 94.9648 91.1895 94.4917C92.076 94.0187 92.9735 93.5511 93.8572 93.0822L93.8682 93.1028C92.9968 93.6047 92.1281 94.1122 91.2526 94.6072C90.3771 95.1023 89.5057 95.6028 88.6288 96.0937L85.9968 97.572L84.678 98.3036L83.3552 99.0283L83.2962 99.0613L83.2385 99.0283L64.0609 87.9901L64.0732 87.9653Z" fill="#6B853D"/>
<path d="M33.853 75.8574L41.1563 80.0062L33.7391 76.0651L33.853 75.8574Z" fill="#6B853D"/>
<g style="mix-blend-mode:multiply" opacity="0.5">
<path d="M81.744 91.7731L88.2115 91.1667L104.336 81.7471L98.789 78.7424L81.744 91.7731Z" fill="#B3B3B3"/>
</g>
<path d="M81.7441 91.6356L32.2926 63.0329C32.2062 62.9834 32.2062 50.3322 32.2926 50.2827L53.1019 50.7695L102.748 79.4918L81.7441 91.6356Z" fill="#A9C55E"/>
<path d="M81.7443 79.0269L32.382 50.4682C32.3532 50.4518 32.3293 50.428 32.3126 50.3992C32.2959 50.3705 32.2872 50.3378 32.2872 50.3046C32.2872 50.2714 32.2959 50.2387 32.3126 50.21C32.3293 50.1813 32.3532 50.1574 32.382 50.141L53.1034 38.1526L102.75 66.8749L81.7443 79.0269Z" fill="#C1D97A"/>
<path d="M81.987 77.6766L34.4306 50.1631L52.8576 39.5017L100.414 67.0153L81.987 77.6766Z" fill="#4E7735"/>
<path d="M88.0304 65.1037C86.3837 64.1494 85.6193 62.8705 85.7277 61.6136L61.2847 47.4732C58.993 47.6011 56.6189 47.1611 54.8761 46.1517L49.608 43.103L40.5509 48.3395L45.8191 51.3882C47.518 52.37 48.2782 53.6957 48.1136 54.9883L72.735 69.2318C74.8456 69.2002 76.9753 69.6444 78.5768 70.5698L84.9359 74.2483L94.3841 68.7822L88.0304 65.1037Z" fill="#C1D97A"/>
<path d="M68.2834 64.1449C73.7803 63.299 77.8542 60.1183 77.3825 57.0406C76.9109 53.9629 72.0724 52.1536 66.5755 52.9995C61.0785 53.8453 57.0046 57.026 57.4763 60.1037C57.9479 63.1814 62.7864 64.9907 68.2834 64.1449Z" fill="#4E7735"/>
<path d="M56.1292 52.7427C54.4825 53.693 51.8257 53.693 50.1845 52.7427C48.5432 51.7925 48.5377 50.2538 50.1845 49.3049C51.8312 48.3561 54.4866 48.3547 56.1292 49.3049C57.7718 50.2551 57.7704 51.7939 56.1292 52.7427Z" fill="#4E7735"/>
<path d="M82.9778 68.2818C81.3311 69.2306 78.6757 69.2306 77.0331 68.2818C75.3905 67.3329 75.3864 65.7914 77.0331 64.844C78.6799 63.8965 81.3366 63.8937 82.9778 64.844C84.619 65.7942 84.619 67.3274 82.9778 68.2818Z" fill="#4E7735"/>
<path d="M81.744 79.027L102.747 66.875V79.4835L81.744 91.6356V79.027Z" fill="#7F9850"/>
<path d="M46.8978 58.8662L57.5906 65.0529L78.6276 52.8912L67.9348 46.6963L46.8978 58.8662Z" fill="#F2FFE3"/>
<path d="M46.8938 58.8621L48.3759 59.7353L69.428 47.5585L67.9459 46.6853L46.8938 58.8621Z" fill="#D14845"/>
<path d="M56.1085 64.2101L57.6235 65.0709L78.6276 52.8873L77.1648 52.0498L56.1085 64.2101Z" fill="#D14845"/>
<path d="M46.8938 58.8621V71.4981L57.6319 77.7632L57.5935 65.0515L46.8938 58.8621Z" fill="#CFCAC1"/>
<path d="M46.8938 58.8621V71.4981L48.4129 72.4497L48.3923 59.7174L46.8938 58.8621Z" fill="#B83F3D"/>
<path d="M56.1294 64.1948L56.113 76.8515L57.6321 77.8031L57.6266 65.068L56.1294 64.1948Z" fill="#B83F3D"/>
<path d="M62.4268 73.1138L81.7101 83.9635H81.5935L82.9122 83.232L84.2351 82.5073L86.8864 81.0675C87.7687 80.5862 88.6566 80.1132 89.5431 79.6402C90.4296 79.1671 91.3271 78.6996 92.2108 78.2306L92.2218 78.2513C91.3504 78.7532 90.4817 79.2606 89.6062 79.7556C88.7307 80.2507 87.8593 80.7512 86.9824 81.2422L84.3504 82.7204L83.0316 83.452L81.7087 84.1767L81.6497 84.2097L81.5921 84.1767L62.4145 73.1385L62.4268 73.1138Z" fill="#6B853D"/>
<path d="M32.2062 61.0061L39.5095 65.1549L32.0923 61.2137L32.2062 61.0061Z" fill="#6B853D"/>
<g style="mix-blend-mode:multiply" opacity="0.3">
<path d="M84.1636 77.6903V81.8157V83.4659L102.689 72.9461V70.2646L84.1636 77.6903Z" fill="#B3B3B3"/>
</g>
<path d="M87.7821 79.8094L38.3306 51.2067C38.2442 51.1572 38.2442 38.506 38.3306 38.4565L59.1399 38.9433L108.786 67.6656L87.7821 79.8094Z" fill="#A9C55E"/>
<path d="M87.7823 67.201L38.42 38.6423C38.3912 38.6258 38.3673 38.602 38.3506 38.5733C38.334 38.5445 38.3252 38.5119 38.3252 38.4787C38.3252 38.4454 38.334 38.4128 38.3506 38.3841C38.3673 38.3553 38.3912 38.3315 38.42 38.315L59.1415 26.3267L108.788 55.049L87.7823 67.201Z" fill="#C1D97A"/>
<path d="M88.025 65.8505L40.4687 38.3369L58.8957 27.6755L106.452 55.1891L88.025 65.8505Z" fill="#4E7735"/>
<path d="M94.0685 53.2778C92.4218 52.3234 91.6574 51.0446 91.7658 49.7877L67.3228 35.6473C65.0311 35.7751 62.657 35.3351 60.9142 34.3258L55.646 31.2771L46.589 36.5136L51.8572 39.5622C53.556 40.5441 54.3163 41.8697 54.1516 43.1624L78.7731 57.4059C80.8836 57.3743 83.0134 57.8185 84.6149 58.7439L90.974 62.4224L100.422 56.9562L94.0685 53.2778Z" fill="#C1D97A"/>
<path d="M74.321 52.3184C79.8179 51.4726 83.8918 48.2919 83.4201 45.2142C82.9485 42.1365 78.11 40.3272 72.6131 41.173C67.1161 42.0189 63.0422 45.1996 63.5139 48.2773C63.9855 51.355 68.824 53.1643 74.321 52.3184Z" fill="#4E7735"/>
<path d="M62.1672 40.9168C60.5205 41.867 57.8637 41.867 56.2225 40.9168C54.5812 39.9666 54.5758 38.4278 56.2225 37.479C57.8692 36.5302 60.5246 36.5288 62.1672 37.479C63.8098 38.4292 63.8085 39.968 62.1672 40.9168Z" fill="#4E7735"/>
<path d="M89.0158 56.4558C87.3691 57.4047 84.7138 57.4047 83.0712 56.4558C81.4285 55.507 81.4244 53.9655 83.0712 53.018C84.7179 52.0706 87.3746 52.0678 89.0158 53.018C90.6571 53.9682 90.6571 55.5015 89.0158 56.4558Z" fill="#4E7735"/>
<path d="M87.782 67.2008L108.785 55.0488V67.6574L87.782 79.8094V67.2008Z" fill="#7F9850"/>
<path d="M52.9358 47.0402L63.6286 53.2269L84.6657 41.0653L73.9728 34.8704L52.9358 47.0402Z" fill="#F2FFE3"/>
<path d="M52.9318 47.0361L54.4139 47.9093L75.466 35.7326L73.984 34.8594L52.9318 47.0361Z" fill="#D14845"/>
<path d="M62.1466 52.3839L63.6616 53.2447L84.6657 41.0611L83.2029 40.2236L62.1466 52.3839Z" fill="#D14845"/>
<path d="M52.9318 47.0361V59.6722L63.6699 65.9373L63.6315 53.2256L52.9318 47.0361Z" fill="#CFCAC1"/>
<path d="M52.9318 47.0361V59.6722L54.4509 60.6238L54.4303 47.8915L52.9318 47.0361Z" fill="#B83F3D"/>
<path d="M62.167 52.3689L62.1506 65.0256L63.6697 65.9772L63.6642 53.2421L62.167 52.3689Z" fill="#B83F3D"/>
<path d="M68.4648 61.2878L87.7481 72.1376H87.6315L88.9502 71.4061L90.2731 70.6814L92.9244 69.2416C93.8067 68.7603 94.6946 68.2873 95.5811 67.8142C96.4676 67.3412 97.3651 66.8736 98.2488 66.4047L98.2598 66.4253C97.3884 66.9273 96.5197 67.4347 95.6442 67.9297C94.7687 68.4248 93.8973 68.9253 93.0204 69.4162L90.3884 70.8945L89.0696 71.6261L87.7467 72.3508L87.6877 72.3838L87.6301 72.3508L68.4525 61.3126L68.4648 61.2878Z" fill="#6B853D"/>
<path d="M38.2443 49.1797L45.5475 53.3284L38.1304 49.3873L38.2443 49.1797Z" fill="#6B853D"/>
<g style="mix-blend-mode:multiply" opacity="0.5">
<path d="M86.959 62.4829L97.6806 61.6014L108.785 55.0489L103.307 52.113L86.959 62.4829Z" fill="#B3B3B3"/>
</g>
<path d="M86.9587 62.483L37.5072 33.8803C37.4208 33.8308 37.4208 21.1796 37.5072 21.1301L58.3165 21.6169L107.963 50.3392L86.9587 62.483Z" fill="#A9C55E"/>
<path d="M86.9589 49.8743L37.5966 21.3156C37.5678 21.2992 37.5439 21.2754 37.5272 21.2466C37.5105 21.2179 37.5018 21.1852 37.5018 21.152C37.5018 21.1188 37.5105 21.0861 37.5272 21.0574C37.5439 21.0286 37.5678 21.0048 37.5966 20.9884L58.318 9L107.964 37.7223L86.9589 49.8743Z" fill="#C1D97A"/>
<path d="M87.2016 48.5238L39.6453 21.0102L58.0722 10.3489L105.629 37.8624L87.2016 48.5238Z" fill="#4E7735"/>
<path d="M93.2451 35.9511C91.5983 34.9968 90.834 33.7179 90.9424 32.461L66.4994 18.3206C64.2076 18.4485 61.8336 18.0084 60.0908 16.9991L54.8226 13.9504L45.7656 19.1869L51.0337 22.2356C52.7326 23.2174 53.4929 24.543 53.3282 25.8357L77.9496 40.0792C80.0602 40.0476 82.19 40.4918 83.7915 41.4172L90.1506 45.0957L99.5987 39.6296L93.2451 35.9511Z" fill="#C1D97A"/>
<path d="M73.4971 34.992C78.9941 34.1462 83.0679 30.9655 82.5963 27.8878C82.1246 24.8101 77.2862 23.0008 71.7892 23.8466C66.2922 24.6925 62.2184 27.8732 62.69 30.9509C63.1616 34.0286 68.0002 35.8379 73.4971 34.992Z" fill="#4E7735"/>
<path d="M61.3438 23.5901C59.6971 24.5404 57.0403 24.5404 55.3991 23.5901C53.7578 22.6399 53.7523 21.1012 55.3991 20.1523C57.0458 19.2035 59.7012 19.2021 61.3438 20.1523C62.9864 21.1025 62.9851 22.6413 61.3438 23.5901Z" fill="#4E7735"/>
<path d="M88.1924 39.1289C86.5457 40.0778 83.8904 40.0778 82.2477 39.1289C80.6051 38.1801 80.601 36.6386 82.2477 35.6911C83.8945 34.7437 86.5512 34.7409 88.1924 35.6911C89.8337 36.6413 89.8337 38.1746 88.1924 39.1289Z" fill="#4E7735"/>
<path d="M86.959 49.8744L107.962 37.7224V50.331L86.959 62.483V49.8744Z" fill="#7F9850"/>
<path d="M52.1124 29.7136L62.8052 35.9003L83.8422 23.7387L73.1494 17.5437L52.1124 29.7136Z" fill="#F2FFE3"/>
<path d="M52.1084 29.7095L53.5905 30.5827L74.6426 18.4059L73.1606 17.5327L52.1084 29.7095Z" fill="#D14845"/>
<path d="M61.3232 35.0572L62.8382 35.9181L83.8423 23.7344L82.3795 22.897L61.3232 35.0572Z" fill="#D14845"/>
<path d="M52.1084 29.7095V42.3455L62.8465 48.6106L62.8081 35.8989L52.1084 29.7095Z" fill="#CFCAC1"/>
<path d="M52.1084 29.7095V42.3455L53.6275 43.2971L53.6069 30.5648L52.1084 29.7095Z" fill="#B83F3D"/>
<path d="M61.344 35.0422L61.3276 47.6989L62.8467 48.6505L62.8412 35.9154L61.344 35.0422Z" fill="#B83F3D"/>
<path d="M67.6414 43.9612L86.9247 54.811H86.8081L88.1268 54.0794L89.4497 53.3547L92.1009 51.9149C92.9833 51.4336 93.8712 50.9606 94.7577 50.4876C95.6442 50.0145 96.5416 49.547 97.4254 49.0781L97.4364 49.0987C96.565 49.6006 95.6963 50.108 94.8208 50.6031C93.9453 51.0981 93.0739 51.5987 92.197 52.0896L89.565 53.5678L88.2462 54.2994L86.9233 55.0241L86.8643 55.0571L86.8067 55.0241L67.6291 43.986L67.6414 43.9612Z" fill="#6B853D"/>
<path d="M37.4208 31.853L44.7241 36.0004L37.3069 32.0607L37.4208 31.853Z" fill="#6B853D"/>
<path d="M52.6518 115.013L3.20034 86.4103C3.11388 86.3608 3.11388 73.7097 3.20034 73.6602L24.0096 74.1469L73.6559 102.869L52.6518 115.013Z" fill="#A9C55E"/>
<path d="M52.652 102.404L3.28973 73.8454C3.26092 73.829 3.23697 73.8052 3.22031 73.7764C3.20366 73.7477 3.19489 73.715 3.19489 73.6818C3.19489 73.6486 3.20366 73.6159 3.22031 73.5872C3.23697 73.5585 3.26092 73.5346 3.28973 73.5182L24.0112 61.5298L73.6575 90.2521L52.652 102.404Z" fill="#C1D97A"/>
<path d="M52.8947 101.054L5.33832 73.5403L23.7653 62.8789L71.3217 90.3925L52.8947 101.054Z" fill="#4E7735"/>
<path d="M58.9381 88.4809C57.2914 87.5266 56.527 86.2477 56.6354 84.9908L32.1924 70.8504C29.9007 70.9783 27.5266 70.5383 25.7838 69.5289L20.5157 66.4802L11.4586 71.7167L16.7268 74.7654C18.4257 75.7472 19.1859 77.0729 19.0213 78.3655L43.6427 92.6091C45.7533 92.5774 47.8831 93.0216 49.4845 93.947L55.8436 97.6255L65.2918 92.1594L58.9381 88.4809Z" fill="#C1D97A"/>
<path d="M39.1919 87.5218C44.6889 86.676 48.7627 83.4953 48.2911 80.4176C47.8195 77.3398 42.981 75.5306 37.484 76.3764C31.9871 77.2223 27.9132 80.4029 28.3848 83.4807C28.8565 86.5584 33.695 88.3677 39.1919 87.5218Z" fill="#4E7735"/>
<path d="M27.0369 76.1199C25.3902 77.0701 22.7334 77.0701 21.0922 76.1199C19.4509 75.1697 19.4455 73.6309 21.0922 72.6821C22.7389 71.7333 25.3943 71.7319 27.0369 72.6821C28.6795 73.6323 28.6782 75.1711 27.0369 76.1199Z" fill="#4E7735"/>
<path d="M53.8855 91.659C52.2387 92.6078 49.5834 92.6078 47.9408 91.659C46.2982 90.7101 46.294 89.1686 47.9408 88.2212C49.5875 87.2737 52.2442 87.2709 53.8855 88.2212C55.5267 89.1714 55.5267 90.7046 53.8855 91.659Z" fill="#4E7735"/>
<path d="M52.6516 102.404L73.6543 90.252V102.861L52.6516 115.013V102.404Z" fill="#7F9850"/>
<path d="M17.8055 82.2436L28.4983 88.4303L49.5353 76.2687L38.8425 70.0737L17.8055 82.2436Z" fill="#F2FFE3"/>
<path d="M17.8015 82.2395L19.2836 83.1127L40.3357 70.936L38.8536 70.0627L17.8015 82.2395Z" fill="#D14845"/>
<path d="M27.0162 87.5873L28.5312 88.4481L49.5353 76.2645L48.0725 75.427L27.0162 87.5873Z" fill="#D14845"/>
<path d="M17.8015 82.2393V94.8753L28.5396 101.14L28.5012 88.4287L17.8015 82.2393Z" fill="#CFCAC1"/>
<path d="M17.8015 82.2393V94.8753L19.3206 95.8269L19.3 83.0946L17.8015 82.2393Z" fill="#B83F3D"/>
<path d="M27.0367 87.572L27.0202 100.229L28.5393 101.18L28.5338 88.4452L27.0367 87.572Z" fill="#B83F3D"/>
<path d="M33.3345 96.4912L52.6177 107.341H52.5011L53.8199 106.609L55.1428 105.885L57.794 104.445C58.6764 103.964 59.5642 103.491 60.4507 103.018C61.3372 102.545 62.2347 102.077 63.1184 101.608L63.1294 101.629C62.258 102.131 61.3894 102.638 60.5138 103.133C59.6383 103.628 58.767 104.129 57.8901 104.62L55.258 106.098L53.9393 106.829L52.6164 107.554L52.5574 107.587L52.4997 107.554L33.3221 96.516L33.3345 96.4912Z" fill="#6B853D"/>
<path d="M3.1139 84.3818L10.4172 88.532L3 84.5909L3.1139 84.3818Z" fill="#6B853D"/>
<g style="mix-blend-mode:multiply" opacity="0.5">
<path d="M54.1791 101.755L73.5735 95.1546L73.6202 100.747L83.3455 106.644L83.3167 93.917L87.9371 91.2355L81.7619 91.6714L81.744 79.0271L78.3312 77.1404L82.448 77.0029V64.8371L86.2904 64.2142L38.4198 38.6423V41.5246L54.1791 101.755Z" fill="#B3B3B3"/>
</g>
<g style="mix-blend-mode:multiply" opacity="0.3">
<path d="M54.0421 101.686V105.812V107.462L73.597 95.8419V93.1604L54.0421 101.686Z" fill="#B3B3B3"/>
</g>
<path d="M58.1409 104.012L8.68941 75.4091C8.60296 75.3596 8.60296 62.7084 8.68941 62.6589L29.4986 63.1457L79.145 91.868L58.1409 104.012Z" fill="#A9C55E"/>
<path d="M58.1411 91.4031L8.77881 62.8445C8.75 62.828 8.72605 62.8042 8.70939 62.7754C8.69273 62.7467 8.68396 62.7141 8.68396 62.6808C8.68396 62.6476 8.69273 62.615 8.70939 62.5862C8.72605 62.5575 8.75 62.5337 8.77881 62.5172L29.5002 50.5288L79.1466 79.2511L58.1411 91.4031Z" fill="#C1D97A"/>
<path d="M58.3837 90.0526L10.8274 62.5391L29.2544 51.8777L76.8107 79.3913L58.3837 90.0526Z" fill="#4E7735"/>
<path d="M64.4277 77.4799C62.781 76.5256 62.0166 75.2467 62.125 73.9899L37.682 59.8494C35.3903 59.9773 33.0162 59.5373 31.2734 58.5279L26.0052 55.4792L16.9482 60.7157L22.2163 63.7644C23.9152 64.7462 24.6755 66.0719 24.5108 67.3645L49.1323 81.608C51.2428 81.5764 53.3726 82.0206 54.9741 82.946L61.3332 86.6245L70.7814 81.1584L64.4277 77.4799Z" fill="#C1D97A"/>
<path d="M44.6819 76.5213C50.1789 75.6755 54.2527 72.4948 53.7811 69.4171C53.3095 66.3394 48.471 64.5301 42.974 65.3759C37.4771 66.2218 33.4032 69.4025 33.8748 72.4802C34.3465 75.5579 39.185 77.3672 44.6819 76.5213Z" fill="#4E7735"/>
<path d="M32.526 65.1189C30.8792 66.0692 28.2225 66.0692 26.5813 65.1189C24.94 64.1687 24.9345 62.63 26.5813 61.6811C28.228 60.7323 30.8834 60.7309 32.526 61.6811C34.1686 62.6313 34.1672 64.1701 32.526 65.1189Z" fill="#4E7735"/>
<path d="M59.3746 80.658C57.7279 81.6068 55.0725 81.6068 53.4299 80.658C51.7873 79.7091 51.7832 78.1676 53.4299 77.2202C55.0767 76.2727 57.7334 76.27 59.3746 77.2202C61.0159 78.1704 61.0159 79.7036 59.3746 80.658Z" fill="#4E7735"/>
<path d="M58.1412 91.4032L79.1439 79.2512V91.8598L58.1412 104.012V91.4032Z" fill="#7F9850"/>
<path d="M23.2963 71.2424L33.9878 77.4291L55.0248 65.2675L44.332 59.0725L23.2963 71.2424Z" fill="#F2FFE3"/>
<path d="M23.2906 71.2383L24.7727 72.1115L45.8248 59.9347L44.3427 59.0615L23.2906 71.2383Z" fill="#D14845"/>
<path d="M32.5053 76.5863L34.0203 77.4471L55.0244 65.2635L53.5616 64.426L32.5053 76.5863Z" fill="#D14845"/>
<path d="M23.2906 71.2383V83.8743L34.0287 90.1394L33.9903 77.4277L23.2906 71.2383Z" fill="#CFCAC1"/>
<path d="M23.2906 71.2383V83.8743L24.8097 84.8259L24.7891 72.0936L23.2906 71.2383Z" fill="#B83F3D"/>
<path d="M32.5257 76.571L32.5093 89.2277L34.0284 90.1793L34.0229 77.4443L32.5257 76.571Z" fill="#B83F3D"/>
<path d="M38.8236 85.4902L58.1069 96.34H57.9903L59.309 95.6084L60.6319 94.8837L63.2831 93.444C64.1655 92.9627 65.0534 92.4897 65.9399 92.0166C66.8264 91.5436 67.7238 91.076 68.6076 90.6071L68.6186 90.6277C67.7472 91.1297 66.8785 91.6371 66.003 92.1321C65.1275 92.6272 64.2561 93.1277 63.3792 93.6186L60.7472 95.0969L59.4284 95.8285L58.1055 96.5532L58.0465 96.5862L57.9889 96.5532L38.8113 85.515L38.8236 85.4902Z" fill="#6B853D"/>
<path d="M8.60297 73.3821L15.9062 77.5308L8.48907 73.5897L8.60297 73.3821Z" fill="#6B853D"/>
<g style="mix-blend-mode:multiply">
<path d="M56.4943 87.7852L73.5284 82.6409L79.1438 79.2512L73.7109 75.9949L56.4943 87.7852Z" fill="#B3B3B3"/>
</g>
<path d="M56.4945 87.7852L7.04299 59.1826C6.95654 59.1331 6.95654 46.4819 7.04299 46.4324L27.8522 46.9191L77.4986 75.6415L56.4945 87.7852Z" fill="#A9C55E"/>
<path d="M56.4942 75.1766L7.13196 46.6179C7.10315 46.6014 7.0792 46.5776 7.06254 46.5489C7.04588 46.5201 7.03711 46.4875 7.03711 46.4543C7.03711 46.421 7.04588 46.3884 7.06254 46.3597C7.0792 46.3309 7.10315 46.3071 7.13196 46.2906L27.8534 34.3022L77.4998 63.0246L56.4942 75.1766Z" fill="#C1D97A"/>
<path d="M56.7369 73.8263L9.18054 46.3127L27.6075 35.6514L75.1638 63.1649L56.7369 73.8263Z" fill="#4E7735"/>
<path d="M62.7808 61.2534C61.134 60.299 60.3697 59.0202 60.4781 57.7633L36.0351 43.6228C33.7434 43.7507 31.3693 43.3107 29.6265 42.3014L24.3583 39.2527L15.3013 44.4892L20.5694 47.5378C22.2683 48.5197 23.0286 49.8453 22.8639 51.1379L47.4854 65.3815C49.5959 65.3499 51.7257 65.794 53.3272 66.7195L59.6863 70.398L69.1344 64.9318L62.7808 61.2534Z" fill="#C1D97A"/>
<path d="M43.0337 60.2948C48.5307 59.4489 52.6045 56.2682 52.1329 53.1905C51.6613 50.1128 46.8228 48.3035 41.3258 49.1494C35.8289 49.9952 31.755 53.1759 32.2266 56.2536C32.6983 59.3313 37.5368 61.1406 43.0337 60.2948Z" fill="#4E7735"/>
<path d="M30.8791 48.8924C29.2324 49.8426 26.5757 49.8426 24.9344 48.8924C23.2932 47.9422 23.2877 46.4034 24.9344 45.4546C26.5811 44.5057 29.2365 44.5044 30.8791 45.4546C32.5218 46.4048 32.5204 47.9436 30.8791 48.8924Z" fill="#4E7735"/>
<path d="M57.7277 64.4314C56.081 65.3803 53.4256 65.3803 51.783 64.4314C50.1404 63.4826 50.1363 61.9411 51.783 60.9936C53.4297 60.0461 56.0864 60.0434 57.7277 60.9936C59.3689 61.9438 59.3689 63.4771 57.7277 64.4314Z" fill="#4E7735"/>
<path d="M56.4943 75.1767L77.4971 63.0247V75.6332L56.4943 87.7852V75.1767Z" fill="#7F9850"/>
<path d="M21.6494 55.0158L32.3408 61.2025L53.3779 49.0409L42.6851 42.8459L21.6494 55.0158Z" fill="#F2FFE3"/>
<path d="M21.6437 55.0117L23.1258 55.8849L44.178 43.7082L42.6959 42.835L21.6437 55.0117Z" fill="#D14845"/>
<path d="M30.8585 60.3595L32.3735 61.2203L53.3776 49.0367L51.9147 48.1992L30.8585 60.3595Z" fill="#D14845"/>
<path d="M21.6437 55.0117V67.6478L32.3818 73.9128L32.3434 61.2012L21.6437 55.0117Z" fill="#CFCAC1"/>
<path d="M21.6437 55.0117V67.6478L23.1629 68.5993L23.1423 55.867L21.6437 55.0117Z" fill="#B83F3D"/>
<path d="M30.8793 60.3445L30.8629 73.0012L32.382 73.9528L32.3765 61.2177L30.8793 60.3445Z" fill="#B83F3D"/>
<path d="M37.1768 69.2637L56.46 80.1135H56.3434L57.6622 79.3819L58.9851 78.6572L61.6363 77.2174C62.5187 76.7361 63.4065 76.2631 64.293 75.7901C65.1795 75.317 66.077 74.8495 66.9607 74.3806L66.9717 74.4012C66.1003 74.9031 65.2317 75.4105 64.3561 75.9056C63.4806 76.4006 62.6092 76.9012 61.7324 77.3921L59.1003 78.8703L57.7816 79.6019L56.4587 80.3266L56.3997 80.3596L56.342 80.3266L37.1644 69.2884L37.1768 69.2637Z" fill="#6B853D"/>
<path d="M6.95612 57.1558L14.2594 61.3045L6.84222 57.3634L6.95612 57.1558Z" fill="#6B853D"/>
<g style="mix-blend-mode:multiply" opacity="0.4">
<path d="M41.8946 109.041V94.6664L41.8685 94.6513C41.7752 93.2129 40.7857 91.791 38.8879 90.6923C37.3537 89.8053 35.4572 89.2608 33.4687 89.0559C33.4802 89.2519 33.4802 89.4485 33.4687 89.6445C33.4687 89.9085 33.4687 90.2137 33.4687 90.5108C32.9198 91.5641 33.0351 92.2049 33.0447 94.533C32.8938 95.1216 32.9308 95.4434 32.9377 97.3919C32.7958 97.7844 32.7224 98.1984 32.7208 98.6158C32.7318 101.46 32.5932 101.977 33.2547 103.115C33.2547 103.885 33.2547 104.753 33.2629 104.801C33.2629 104.893 33.2821 104.987 33.2958 105.076C29.0774 103.741 23.4415 104.372 19.6499 106.81C15.1543 109.698 14.9512 114.035 19.1984 116.492C23.4456 118.95 30.4895 118.28 34.9865 115.392C35.1695 115.272 35.3483 115.151 35.5231 115.028C35.8222 114.813 39.7854 111.186 40.0392 110.962C41.3662 109.787 41.7916 109.094 41.8946 109.041Z" fill="#CCCCCC"/>
</g>
<path d="M33.4274 115.688C29.4368 117.996 22.9679 117.996 18.9787 115.688C17.1028 114.602 16.1092 113.2 15.9967 111.779C15.9967 111.693 15.9871 108.982 15.9857 108.891C15.9857 107.378 16.9779 108.478 18.9787 107.323C22.9679 105.014 29.4368 105.016 33.426 107.323C35.409 108.47 36.4066 107.345 36.419 108.848C36.419 108.932 36.419 111.642 36.4121 111.726C36.3188 113.169 35.3225 114.591 33.4274 115.688Z" fill="#EF8809"/>
<path d="M26.2023 114.791C31.8448 114.791 36.419 112.145 36.419 108.881C36.419 105.617 31.8448 102.971 26.2023 102.971C20.5599 102.971 15.9857 105.617 15.9857 108.881C15.9857 112.145 20.5599 114.791 26.2023 114.791Z" fill="#FF9E23"/>
<path d="M33.0789 112.861C29.2818 115.061 23.1244 115.061 19.3259 112.861C15.5274 110.66 15.5274 107.1 19.3259 104.903C23.1244 102.705 29.2818 102.703 33.0789 104.903C36.876 107.103 36.8774 110.663 33.0789 112.861Z" fill="#FFB43F"/>
<path d="M31.8987 112.177C28.7534 113.997 23.6527 113.997 20.5088 112.177C17.3649 110.358 17.3622 107.407 20.5088 105.586C23.6554 103.766 28.7548 103.767 31.8987 105.586C35.0426 107.406 35.044 110.361 31.8987 112.177Z" fill="#E68913"/>
<path d="M31.8988 106.009C28.7522 104.19 23.6528 104.19 20.5089 106.009C19.0296 106.866 18.246 107.972 18.1595 109.093C18.246 110.215 19.0296 111.32 20.5102 112.177C23.6555 113.996 28.7563 113.996 31.9002 112.177C33.3795 111.32 34.1631 110.215 34.2509 109.094C34.1617 107.972 33.3795 106.866 31.8988 106.009Z" fill="#FF9E23"/>
<path d="M30.6091 106.373L31.169 106.397C31.2335 106.435 31.1937 106.74 31.1964 106.788C31.1934 106.818 31.1825 106.846 31.1649 106.87C31.1473 106.895 31.1236 106.914 31.0963 106.926L30.7463 107.128C31.1278 107.394 31.4325 107.642 31.6232 107.953C31.8826 108.365 31.3693 108.855 30.6091 108.903C30.0218 108.94 29.4742 108.721 29.3315 108.389C29.2799 108.266 29.209 108.153 29.1215 108.053L27.4364 109.028C28.4665 110.145 28.3714 111.056 27.151 111.762C25.861 112.509 24.1909 112.509 22.5428 111.846L22.2094 112.04C22.1277 112.081 22.0374 112.102 21.9459 112.102C21.8544 112.102 21.7641 112.081 21.6824 112.04L21.2584 111.793C21.2286 111.78 21.2029 111.759 21.1839 111.732C21.1649 111.706 21.1531 111.675 21.1499 111.642C21.1499 111.587 21.1198 111.289 21.1925 111.246L21.5809 111.303C21.0226 111.001 20.5678 110.538 20.2758 109.974C20.2437 109.847 20.2316 109.715 20.2401 109.584C20.2745 109.272 20.7026 109.183 21.2735 109.146C21.8663 109.108 22.4029 109.339 22.536 109.676C22.6585 109.968 22.8507 110.226 23.0959 110.427L25.0541 109.293C22.7487 107.059 26.8847 105.037 29.7912 106.567L30.1288 106.371C30.2033 106.334 30.2857 106.314 30.3691 106.314C30.4526 106.315 30.5348 106.335 30.6091 106.373V106.373ZM26.7667 108.298L28.2007 107.473C27.1866 107.183 26.3166 107.748 26.7722 108.298H26.7667ZM25.6689 110.048L24.1594 110.924C25.1351 111.264 26.2123 110.713 25.6716 110.05L25.6689 110.048Z" fill="#E68913"/>
<path d="M30.6091 106.054L31.0963 106.336C31.1247 106.346 31.1493 106.364 31.1667 106.389C31.1841 106.413 31.1935 106.443 31.1935 106.473C31.1935 106.503 31.1841 106.533 31.1667 106.557C31.1493 106.582 31.1247 106.601 31.0963 106.611L30.7464 106.813C31.0867 107.038 31.378 107.33 31.6027 107.671C31.862 108.083 31.3694 108.534 30.6091 108.583C30.0218 108.62 29.4742 108.401 29.3315 108.068C29.28 107.946 29.2091 107.833 29.1216 107.733L27.4364 108.708C28.4665 109.824 28.3714 110.736 27.151 111.441C25.861 112.188 24.191 112.188 22.5429 111.525L22.2094 111.719C22.1277 111.761 22.0374 111.782 21.9459 111.782C21.8544 111.782 21.7641 111.761 21.6824 111.719L21.2584 111.473C21.2269 111.462 21.1996 111.442 21.1803 111.414C21.161 111.387 21.1506 111.355 21.1506 111.321C21.1506 111.288 21.161 111.255 21.1803 111.228C21.1996 111.201 21.2269 111.18 21.2584 111.169L21.5809 110.982C21.0226 110.681 20.5678 110.218 20.2759 109.654C20.0933 109.263 20.5764 108.871 21.2735 108.829C21.8663 108.79 22.4029 109.021 22.536 109.358C22.6585 109.651 22.8508 109.908 23.0959 110.109L25.0541 108.976C22.7487 106.741 26.8848 104.72 29.7913 106.249L30.1288 106.054C30.2032 106.016 30.2855 105.996 30.369 105.996C30.4524 105.996 30.5347 106.016 30.6091 106.054V106.054ZM26.7667 107.979L28.2008 107.154C27.1867 106.865 26.3166 107.427 26.7722 107.982L26.7667 107.979ZM25.6689 109.728L24.1594 110.605C25.1351 110.946 26.2123 110.395 25.6717 109.731L25.6689 109.728Z" fill="#FFB43F"/>
<path d="M32.8952 112.385C28.906 114.693 22.437 114.693 18.4478 112.385C16.5719 111.3 15.577 109.897 15.4659 108.476C15.459 108.39 15.4549 105.679 15.4549 105.588C15.448 104.075 16.4457 105.175 18.4464 104.02C22.437 101.713 28.906 101.713 32.8952 104.02C34.8781 105.167 35.8758 104.042 35.8868 105.545C35.8868 105.629 35.8868 108.339 35.8799 108.423C35.7866 109.867 34.7917 111.288 32.8952 112.385Z" fill="#EF8809"/>
<path d="M32.8951 109.758C28.9058 112.067 22.4369 112.067 18.4477 109.758C14.4585 107.449 14.4571 103.708 18.4477 101.399C22.4383 99.09 28.9072 99.0914 32.8964 101.399C36.8856 103.706 36.8843 107.449 32.8951 109.758Z" fill="#FF9E23"/>
<path d="M32.5479 109.558C28.7494 111.758 22.592 111.758 18.7949 109.558C14.9978 107.357 14.9965 103.797 18.7949 101.6C22.5934 99.4024 28.7494 99.3996 32.5479 101.6C36.3464 103.8 36.3464 107.36 32.5479 109.558Z" fill="#FFB43F"/>
<path d="M31.3665 108.874C28.2212 110.695 23.1218 110.695 19.9766 108.874C16.8313 107.054 16.8313 104.104 19.9766 102.283C23.1218 100.463 28.2226 100.464 31.3665 102.283C34.5104 104.103 34.5131 107.061 31.3665 108.874Z" fill="#E68913"/>
<path d="M31.3666 102.707C28.2214 100.887 23.1206 100.887 19.9767 102.707C18.4974 103.563 17.7138 104.669 17.626 105.791C17.7138 106.912 18.4974 108.017 19.9767 108.874C23.1233 110.695 28.2227 110.695 31.3666 108.874C32.8473 108.019 33.6295 106.912 33.7173 105.791C33.6295 104.67 32.8473 103.563 31.3666 102.707Z" fill="#FF9E23"/>
<path d="M30.0779 103.073L30.6378 103.097C30.701 103.135 30.6625 103.44 30.6639 103.489C30.6614 103.519 30.6508 103.548 30.6334 103.572C30.616 103.596 30.5924 103.615 30.5651 103.627L30.2152 103.829C30.5953 104.096 30.9013 104.343 31.0921 104.654C31.3501 105.067 30.8382 105.556 30.0779 105.604C29.4906 105.641 28.9431 105.423 28.799 105.091C28.7483 104.968 28.6773 104.854 28.589 104.754L26.9052 105.729C27.9344 106.846 27.8393 107.757 26.6198 108.463C25.3299 109.21 23.6598 109.21 22.0103 108.547L21.6768 108.741C21.5954 108.782 21.5053 108.804 21.414 108.804C21.3227 108.804 21.2327 108.782 21.1512 108.741L20.7272 108.495C20.6973 108.482 20.6714 108.461 20.6524 108.434C20.6333 108.407 20.6217 108.376 20.6188 108.344C20.6188 108.289 20.5886 107.99 20.6614 107.948L21.0497 108.004C20.491 107.703 20.0361 107.24 19.7447 106.676C19.7121 106.548 19.6996 106.416 19.7076 106.285C19.7433 105.974 20.1701 105.885 20.7409 105.848C21.3351 105.809 21.8717 106.04 22.0035 106.377C22.1265 106.67 22.3192 106.927 22.5647 107.128L24.5216 105.995C22.2175 103.76 26.3536 101.74 29.2587 103.268L29.5976 103.073C29.672 103.035 29.7543 103.015 29.8378 103.015C29.9213 103.015 30.0035 103.035 30.0779 103.073V103.073ZM26.2355 104.998L27.6696 104.173C26.6555 103.88 25.7841 104.448 26.2438 104.998H26.2355ZM25.1377 106.748L23.6282 107.624C24.597 107.961 25.6812 107.41 25.146 106.747L25.1377 106.748Z" fill="#E68913"/>
<path d="M30.0778 102.751L30.5649 103.033C30.5927 103.043 30.6167 103.062 30.6336 103.087C30.6505 103.111 30.6595 103.14 30.6595 103.17C30.6595 103.2 30.6505 103.229 30.6336 103.254C30.6167 103.278 30.5927 103.297 30.5649 103.308L30.215 103.51C30.5551 103.736 30.8464 104.028 31.0713 104.369C31.3293 104.782 30.838 105.232 30.0778 105.28C29.4904 105.317 28.9429 105.098 28.7988 104.765C28.7478 104.643 28.6768 104.529 28.5889 104.43L26.9051 105.405C27.9343 106.521 27.8391 107.433 26.6196 108.139C25.3297 108.885 23.6596 108.885 22.0101 108.222L21.6767 108.416C21.5952 108.458 21.5052 108.479 21.4139 108.479C21.3226 108.479 21.2325 108.458 21.1511 108.416L20.7271 108.17C20.6956 108.159 20.6683 108.139 20.649 108.111C20.6296 108.084 20.6193 108.052 20.6193 108.018C20.6193 107.985 20.6296 107.952 20.649 107.925C20.6683 107.898 20.6956 107.877 20.7271 107.866L21.0495 107.679C20.4914 107.378 20.0367 106.916 19.7445 106.352C19.562 105.96 20.045 105.568 20.7408 105.527C21.335 105.489 21.8715 105.72 22.0033 106.057C22.1263 106.349 22.319 106.607 22.5645 106.807L24.5214 105.674C22.2173 103.44 26.3534 101.418 29.2585 102.947L29.5975 102.752C29.6717 102.714 29.754 102.694 29.8374 102.694C29.9209 102.694 30.0033 102.713 30.0778 102.751V102.751ZM26.2354 104.676L27.6694 103.851C26.6553 103.562 25.7839 104.125 26.2436 104.679L26.2354 104.676ZM25.1376 106.427L23.628 107.303C24.5969 107.644 25.681 107.092 25.1458 106.429L25.1376 106.427Z" fill="#FFB43F"/>
<path d="M33.1049 109.188C29.1157 111.496 22.6468 111.496 18.6562 109.188C16.7803 108.103 15.7868 106.7 15.6756 105.279C15.6687 105.194 15.6646 102.482 15.6646 102.392C15.6646 100.879 16.6554 101.979 18.6562 100.825C22.6468 98.5165 29.1143 98.5165 33.1049 100.825C35.0879 101.972 36.0842 100.847 36.0965 102.35C36.0965 102.434 36.0965 105.145 36.0896 105.229C35.9991 106.67 35.0042 108.092 33.1049 109.188Z" fill="#EF8809"/>
<path d="M33.1053 106.563C29.1161 108.87 22.6472 108.87 18.6566 106.563C14.666 104.255 14.6674 100.512 18.6566 98.2047C22.6458 95.8973 29.1148 95.8959 33.1053 98.2047C37.0959 100.514 37.0973 104.254 33.1053 106.563Z" fill="#FF9E23"/>
<path d="M32.7608 106.36C28.9623 108.561 22.8049 108.561 19.0078 106.36C15.2107 104.16 15.2094 100.601 19.0078 98.404C22.8063 96.2066 28.9637 96.2038 32.7622 98.404C36.5607 100.604 36.5579 104.164 32.7608 106.36Z" fill="#FFB43F"/>
<path d="M31.5789 105.685C28.4337 107.504 23.3343 107.504 20.189 105.685C17.0438 103.866 17.0438 100.913 20.189 99.094C23.3343 97.2747 28.4351 97.2733 31.5789 99.094C34.7228 100.915 34.7256 103.857 31.5789 105.685Z" fill="#E68913"/>
<path d="M31.5791 99.511C28.4338 97.6903 23.333 97.6903 20.1891 99.511C18.7098 100.366 17.9263 101.473 17.8384 102.594C17.9263 103.715 18.7098 104.822 20.1891 105.678C23.3358 107.498 28.4352 107.498 31.5791 105.678C33.0598 104.822 33.842 103.716 33.9298 102.594C33.842 101.473 33.0598 100.368 31.5791 99.511Z" fill="#FF9E23"/>
<path d="M30.2889 99.8727L30.8502 99.8974C30.9133 99.9346 30.8749 100.24 30.8763 100.288C30.8741 100.318 30.8637 100.346 30.8462 100.371C30.8288 100.395 30.805 100.414 30.7775 100.425L30.4276 100.629C30.8077 100.896 31.1137 101.142 31.3044 101.454C31.5624 101.867 31.0506 102.356 30.2903 102.404C29.703 102.441 29.1554 102.221 29.0113 101.89C28.9603 101.767 28.8894 101.654 28.8014 101.554L27.1176 102.528C28.1468 103.647 28.0517 104.558 26.8322 105.263C25.5422 106.01 23.8722 106.01 22.2227 105.347L21.8892 105.54C21.8078 105.581 21.7177 105.602 21.6264 105.602C21.5351 105.602 21.4451 105.581 21.3636 105.54L20.9396 105.295C20.9097 105.281 20.8838 105.26 20.8648 105.233C20.8457 105.206 20.8341 105.175 20.8312 105.142C20.8312 105.087 20.801 104.79 20.8738 104.748L21.2621 104.804C20.7033 104.503 20.248 104.04 19.9557 103.476C19.9242 103.348 19.9121 103.216 19.92 103.085C19.9557 102.773 20.3825 102.685 20.9533 102.648C21.5475 102.609 22.0827 102.839 22.2158 103.177C22.3388 103.47 22.5316 103.727 22.7771 103.928L24.734 102.798C22.4299 100.562 26.566 98.5416 29.4711 100.071L29.81 99.8754C29.884 99.8371 29.9659 99.8169 30.0492 99.8164C30.1324 99.8159 30.2146 99.8352 30.2889 99.8727V99.8727ZM26.4534 101.798L27.8875 100.973C26.8665 100.684 25.9965 101.246 26.4534 101.801V101.798ZM25.3556 103.547L23.8461 104.424C24.8149 104.764 25.8935 104.214 25.3529 103.55L25.3556 103.547Z" fill="#E68913"/>
<path d="M30.2892 99.5549L30.7778 99.83C30.8062 99.84 30.8308 99.8586 30.8482 99.8832C30.8656 99.9078 30.875 99.9373 30.875 99.9675C30.875 99.9977 30.8656 100.027 30.8482 100.052C30.8308 100.076 30.8062 100.095 30.7778 100.105L30.4278 100.309C30.7679 100.534 31.0591 100.826 31.2841 101.167C31.5421 101.579 31.0508 102.03 30.2906 102.078C29.7033 102.115 29.1557 101.895 29.0116 101.564C28.9606 101.441 28.8896 101.328 28.8017 101.228L27.1179 102.202C28.1471 103.321 28.052 104.232 26.8325 104.937C25.5425 105.683 23.8724 105.684 22.223 105.021L21.8895 105.214C21.808 105.255 21.718 105.276 21.6267 105.276C21.5354 105.276 21.4454 105.255 21.3639 105.214L20.9399 104.969C20.9084 104.958 20.8811 104.937 20.8618 104.91C20.8425 104.883 20.8321 104.85 20.8321 104.817C20.8321 104.783 20.8425 104.751 20.8618 104.724C20.8811 104.696 20.9084 104.676 20.9399 104.665L21.2624 104.478C20.7035 104.177 20.2483 103.714 19.9559 103.15C19.7748 102.758 20.2579 102.366 20.9536 102.324C21.5478 102.286 22.083 102.516 22.2161 102.854C22.3391 103.146 22.5318 103.404 22.7774 103.605L24.7342 102.472C22.4302 100.236 26.5662 98.2087 29.4714 99.7447L29.8103 99.5494C29.8849 99.5124 29.9672 99.4936 30.0504 99.4945C30.1337 99.4955 30.2155 99.5162 30.2892 99.5549V99.5549ZM26.4537 101.48L27.8877 100.655C26.8668 100.366 25.9967 100.929 26.4537 101.483V101.48ZM25.3559 103.229L23.8464 104.107C24.8152 104.448 25.8938 103.898 25.3531 103.232L25.3559 103.229Z" fill="#FFB43F"/>
<path d="M33.215 105.992C29.2244 108.301 22.7554 108.301 18.7662 105.992C16.8903 104.907 15.8968 103.504 15.7842 102.083C15.7774 101.997 15.7746 99.2855 15.7733 99.1948C15.7733 97.6821 16.7654 98.7822 18.7662 97.6271C22.7554 95.3196 29.2244 95.3196 33.2136 97.6271C35.1965 98.7753 36.1942 97.6491 36.2065 99.1535C36.2065 99.2374 36.2065 101.946 36.2065 102.03C36.1064 103.474 35.1101 104.895 33.215 105.992Z" fill="#EF8809"/>
<path d="M33.2148 103.365C29.2242 105.674 22.7553 105.674 18.7661 103.365C14.7769 101.057 14.7769 97.3149 18.7661 95.006C22.7553 92.6972 29.2242 92.6986 33.2134 95.006C37.2027 97.3135 37.204 101.058 33.2148 103.365Z" fill="#FF9E23"/>
<path d="M32.8664 103.164C29.0693 105.365 22.9119 105.365 19.1134 103.164C15.315 100.964 15.315 97.404 19.1134 95.2079C22.9119 93.0119 29.0693 93.0077 32.8664 95.2079C36.6635 97.4081 36.6649 100.967 32.8664 103.164Z" fill="#FFB43F"/>
<path d="M31.6863 102.481C28.541 104.302 23.4403 104.302 20.2964 102.481C17.1525 100.66 17.1498 97.7108 20.2964 95.8901C23.443 94.0695 28.541 94.0708 31.6863 95.8901C34.8316 97.7094 34.8316 100.662 31.6863 102.481Z" fill="#E68913"/>
<path d="M31.6864 96.3155C28.5398 94.4948 23.4404 94.4948 20.2965 96.3155C18.8158 97.1722 18.0323 98.2778 17.9458 99.3999C18.0323 100.521 18.8158 101.628 20.2965 102.483C23.4418 104.304 28.5425 104.304 31.6864 102.483C33.1657 101.628 33.9493 100.521 34.0372 99.3999C33.9493 98.2778 33.1657 97.1708 31.6864 96.3155Z" fill="#FF9E23"/>
<path d="M30.3962 96.6755L30.9561 96.7016C31.0206 96.7387 30.9807 97.0427 30.9835 97.0922C30.9804 97.1219 30.9695 97.1503 30.9519 97.1745C30.9343 97.1986 30.9107 97.2177 30.8833 97.2297L30.5334 97.4318C30.9149 97.6986 31.2195 97.9461 31.4103 98.2569C31.6696 98.6694 31.1564 99.1576 30.3975 99.2057C29.8088 99.2429 29.2613 99.0242 29.1186 98.6928C29.0678 98.57 28.9969 98.4565 28.9086 98.3573L27.2248 99.3309C28.254 100.447 28.1584 101.359 26.938 102.065C25.6481 102.811 23.978 102.811 22.3299 102.149L21.9964 102.342C21.9147 102.384 21.8245 102.405 21.7329 102.405C21.6414 102.405 21.5512 102.384 21.4695 102.342L21.0455 102.098C21.0157 102.084 20.99 102.063 20.9709 102.036C20.9519 102.009 20.9402 101.978 20.937 101.945C20.937 101.89 20.9068 101.592 20.9796 101.55L21.3679 101.607C20.8101 101.305 20.3555 100.842 20.0629 100.278C20.0308 100.151 20.0188 100.019 20.0272 99.8878C20.0615 99.5757 20.4897 99.4863 21.0605 99.4491C21.6547 99.4106 22.1899 99.6417 22.323 99.9786C22.4455 100.271 22.6378 100.529 22.8829 100.729L24.8412 99.5977C22.5357 97.3617 26.6718 95.3416 29.5783 96.8708L29.9172 96.6741C29.9915 96.6364 30.0736 96.6169 30.1568 96.6172C30.2401 96.6174 30.3221 96.6374 30.3962 96.6755ZM26.5538 98.6007L27.9864 97.7756C26.9737 97.4868 26.1064 98.0493 26.5606 98.6034L26.5538 98.6007ZM25.4559 100.351L23.9464 101.227C24.9221 101.568 25.9994 101.018 25.4587 100.354L25.4559 100.351Z" fill="#E68913"/>
<path d="M30.3962 96.3576L30.8834 96.6326C30.9118 96.6426 30.9364 96.6612 30.9538 96.6858C30.9713 96.7105 30.9806 96.7399 30.9806 96.7701C30.9806 96.8003 30.9713 96.8298 30.9538 96.8544C30.9364 96.879 30.9118 96.8976 30.8834 96.9076L30.5334 97.1098C30.8742 97.3349 31.1656 97.6274 31.3898 97.9692C31.6491 98.3818 31.1565 98.8314 30.3976 98.8796C29.8089 98.9167 29.2613 98.6981 29.1186 98.3667C29.0682 98.2436 28.9972 98.1302 28.9087 98.0311L27.2249 99.0047C28.2541 100.121 28.1585 101.033 26.9381 101.738C25.6481 102.485 23.9781 102.485 22.33 101.822L21.9965 102.016C21.9148 102.058 21.8245 102.079 21.733 102.079C21.6415 102.079 21.5512 102.058 21.4695 102.016L21.0455 101.771C21.0142 101.76 20.9871 101.739 20.9679 101.712C20.9488 101.685 20.9385 101.652 20.9385 101.619C20.9385 101.585 20.9488 101.553 20.9679 101.526C20.9871 101.498 21.0142 101.478 21.0455 101.466L21.368 101.281C20.8102 100.979 20.3556 100.516 20.063 99.9522C19.8818 99.5603 20.3635 99.1684 21.0606 99.1271C21.6548 99.0886 22.19 99.3196 22.3231 99.6565C22.4456 99.9489 22.6379 100.207 22.883 100.407L24.8412 99.2756C22.5358 97.0396 26.6719 95.0196 29.5783 96.5487L29.9173 96.3521C29.9919 96.315 30.0742 96.2962 30.1574 96.2971C30.2407 96.2981 30.3225 96.3188 30.3962 96.3576V96.3576ZM26.5538 98.2828L27.9865 97.4577C26.9737 97.1689 26.1065 97.7313 26.5607 98.2869L26.5538 98.2828ZM25.456 100.032L23.9465 100.908C24.9222 101.25 25.9994 100.7 25.4588 100.036L25.456 100.032Z" fill="#FFB43F"/>
<path d="M33.6403 102.689C29.6497 104.998 23.1808 104.998 19.1916 102.689C17.3157 101.604 16.3221 100.201 16.2096 98.7808C16.2027 98.6941 16.2 95.9824 16.1986 95.893C16.1986 94.3804 17.1908 95.4804 19.1916 94.3253C23.1808 92.0179 29.6497 92.0179 33.6389 94.3253C35.6218 95.4722 36.6195 94.346 36.6318 95.8504C36.6318 95.9342 36.6318 98.6446 36.6318 98.7285C36.5358 100.171 35.5354 101.592 33.6403 102.689Z" fill="#EF8809"/>
<path d="M33.6402 100.062C29.6496 102.371 23.1807 102.371 19.1915 100.062C15.2022 97.7534 15.2009 94.0117 19.1915 91.7043C23.1821 89.3968 29.6496 89.3954 33.6388 91.7043C37.628 94.0131 37.6335 97.7548 33.6402 100.062Z" fill="#FF9E23"/>
<path d="M33.2918 99.8617C29.4947 102.062 23.3373 102.062 19.5388 99.8617C15.7403 97.6615 15.7403 94.1027 19.5388 91.9052C23.3373 89.7078 29.4947 89.705 33.2918 91.9052C37.0889 94.1054 37.0848 97.6642 33.2918 99.8617Z" fill="#FFB43F"/>
<path d="M32.1116 99.1781C28.9663 100.999 23.8655 100.999 20.7217 99.1781C17.5778 97.3575 17.5764 94.4078 20.7217 92.5872C23.8669 90.7665 28.9677 90.7679 32.1116 92.5872C35.2555 94.4064 35.2568 97.3588 32.1116 99.1781Z" fill="#E68913"/>
<path d="M32.1117 93.012C28.9651 91.1913 23.8657 91.1913 20.7218 93.012C19.2425 93.8673 18.4589 94.9743 18.3724 96.095C18.4589 97.2157 19.2425 98.3227 20.7218 99.178C23.8684 100.999 28.9692 100.999 32.1117 99.178C33.591 98.3227 34.3746 97.2157 34.4624 96.095C34.3746 94.9743 33.591 93.8673 32.1117 93.012Z" fill="#FF9E23"/>
<path d="M30.8214 93.3723L31.3813 93.3984C31.4458 93.4355 31.406 93.7394 31.4087 93.7889C31.4056 93.8187 31.3947 93.8471 31.3771 93.8713C31.3595 93.8954 31.3359 93.9145 31.3085 93.9265L30.9586 94.1286C31.3401 94.3954 31.6448 94.6429 31.8355 94.9537C32.0949 95.3662 31.5816 95.8544 30.8214 95.9025C30.2341 95.9397 29.6865 95.721 29.5438 95.3896C29.4926 95.267 29.4217 95.1536 29.3338 95.0541L27.6487 96.0277C28.6797 97.1443 28.5846 98.0555 27.3632 98.7614C26.0733 99.5081 24.4032 99.5095 22.7551 98.8453L22.4216 99.0392C22.3399 99.0805 22.2497 99.1021 22.1582 99.1021C22.0666 99.1021 21.9764 99.0805 21.8947 99.0392L21.4707 98.7944C21.4407 98.7809 21.4149 98.7596 21.3958 98.7328C21.3768 98.706 21.3652 98.6746 21.3622 98.6418C21.3622 98.5868 21.3321 98.2884 21.4048 98.2471L21.7932 98.3035C21.2349 98.0021 20.7801 97.5392 20.4881 96.9751C20.4562 96.8475 20.4437 96.7159 20.4511 96.5846C20.4867 96.2724 20.9135 96.183 21.4858 96.1459C22.0786 96.1088 22.6151 96.3384 22.7469 96.6753C22.8704 96.9675 23.063 97.2252 23.3082 97.4262L25.2664 96.2944C22.9609 94.0585 27.097 92.0384 30.0035 93.5675L30.3411 93.3709C30.4158 93.3338 30.498 93.3147 30.5814 93.3149C30.6647 93.3151 30.7469 93.3348 30.8214 93.3723V93.3723ZM26.979 95.2975L28.413 94.4724C27.3989 94.1836 26.5289 94.7474 26.9845 95.3016L26.979 95.2975ZM25.8812 97.0466L24.3717 97.9226C25.3474 98.2595 26.4246 97.7094 25.8839 97.0508L25.8812 97.0466Z" fill="#E68913"/>
<path d="M30.8215 93.0546L31.3087 93.3296C31.3371 93.3396 31.3617 93.3583 31.3791 93.3829C31.3965 93.4075 31.4059 93.4369 31.4059 93.4671C31.4059 93.4973 31.3965 93.5268 31.3791 93.5514C31.3617 93.576 31.3371 93.5946 31.3087 93.6046L30.9588 93.8068C31.2995 94.032 31.5909 94.3244 31.8151 94.6663C32.0744 95.0788 31.5818 95.5285 30.8215 95.5766C30.2342 95.6137 29.6866 95.3951 29.5439 95.0637C29.4927 94.9411 29.4218 94.8277 29.334 94.7282L27.6488 95.7017C28.6798 96.8183 28.5847 97.7296 27.3634 98.4355C26.0734 99.1822 24.4034 99.1836 22.7553 98.5194L22.4218 98.7133C22.3401 98.7546 22.2498 98.7762 22.1583 98.7762C22.0668 98.7762 21.9765 98.7546 21.8948 98.7133L21.4708 98.4685C21.4395 98.4572 21.4124 98.4364 21.3932 98.4091C21.3741 98.3818 21.3638 98.3492 21.3638 98.3159C21.3638 98.2825 21.3741 98.2499 21.3932 98.2226C21.4124 98.1953 21.4395 98.1746 21.4708 98.1632L21.7933 97.9776C21.2355 97.6755 20.7809 97.2128 20.4883 96.6492C20.3057 96.2573 20.7888 95.8654 21.4859 95.8241C22.0787 95.7856 22.6153 96.0166 22.747 96.3535C22.8705 96.6457 23.0632 96.9035 23.3083 97.1044L25.2665 95.9727C22.9611 93.7367 27.0971 91.7166 30.0036 93.2458L30.3412 93.0491C30.4162 93.0127 30.4987 92.9942 30.582 92.9952C30.6654 92.9961 30.7474 93.0165 30.8215 93.0546ZM26.9791 94.9798L28.4132 94.1547C27.3991 93.8659 26.529 94.4297 26.9846 94.9839L26.9791 94.9798ZM25.8813 96.729L24.3718 97.6049C25.3475 97.9473 26.4247 97.3973 25.884 96.7331L25.8813 96.729Z" fill="#FFB43F"/>
<path d="M33.3205 99.5289C29.3313 101.836 22.8624 101.836 18.8718 99.5289C16.9959 98.4426 16.0024 97.0399 15.8912 95.6194C15.8912 95.5342 15.8802 92.8224 15.8802 92.7317C15.8734 91.219 16.871 92.3191 18.8718 91.164C22.8624 88.8552 29.3299 88.8552 33.3205 91.164C35.3035 92.3109 36.2998 91.186 36.3121 92.689C36.3121 92.7729 36.3121 95.4833 36.3121 95.5672C36.2119 97.0097 35.217 98.4316 33.3205 99.5289Z" fill="#EF8809"/>
<path d="M33.3204 96.9023C29.3312 99.2098 22.8623 99.2098 18.8717 96.9023C14.8811 94.5948 14.8825 90.8518 18.8717 88.5429C22.8609 86.2341 29.3298 86.2341 33.3204 88.5429C37.311 90.8518 37.3097 94.5935 33.3204 96.9023Z" fill="#FF9E23"/>
<path d="M26.0955 98.349C31.4667 98.349 35.8209 95.8297 35.8209 92.722C35.8209 89.6143 31.4667 87.095 26.0955 87.095C20.7244 87.095 16.3702 89.6143 16.3702 92.722C16.3702 95.8297 20.7244 98.349 26.0955 98.349Z" fill="#FFB43F"/>
<path d="M31.7918 96.0182C28.6465 97.8375 23.5457 97.8375 20.4018 96.0182C17.2579 94.1989 17.2566 91.2465 20.4018 89.4272C23.5471 87.6079 28.6479 87.6079 31.7918 89.4272C34.9356 91.2465 34.9384 94.1975 31.7918 96.0182Z" fill="#E68913"/>
<path d="M31.792 89.8508C28.6467 88.0315 23.5459 88.0315 20.402 89.8508C18.9227 90.7075 18.1392 91.8131 18.0513 92.9338C18.1392 94.0559 18.9227 95.1615 20.402 96.0182C23.5473 97.8375 28.6481 97.8375 31.792 96.0182C33.2726 95.1615 34.0549 94.0559 34.1427 92.9352C34.0549 91.8131 33.2726 90.7075 31.792 89.8508Z" fill="#FF9E23"/>
<g style="mix-blend-mode:multiply" opacity="0.5">
<path d="M61.024 48.8637C56.7507 46.3885 49.8262 46.3734 45.5598 48.8431C44.835 49.2495 44.1772 49.7658 43.6098 50.3736C42.3867 50.6574 41.2103 51.1144 40.1159 51.7309C35.8482 54.2061 35.8536 58.2119 40.1269 60.6912C44.4002 63.1706 51.3247 63.1802 55.5925 60.7118C56.3926 60.2484 60.0016 58.4222 61.035 57.8241C62.3908 57.0402 63.3143 56.101 63.8083 55.104C63.8262 55.0669 64.2804 55.3516 64.2776 55.3103C64.2667 55.093 64.2667 54.268 64.2228 53.6285C64.3504 51.9179 63.2841 50.1742 61.024 48.8637Z" fill="#CCCCCC"/>
</g>
<path d="M40.2603 60.2524C44.406 62.6506 51.1288 62.6506 55.2758 60.2524C57.2258 59.1234 58.2578 57.6658 58.3744 56.1889C58.3813 56.1009 58.3854 53.2818 58.3854 53.1938C58.3923 51.6166 57.3548 52.7675 55.2758 51.5643C51.1302 49.1661 44.4074 49.1661 40.2603 51.5643C38.2019 52.7565 37.1631 51.5877 37.1508 53.1498C37.1508 53.2365 37.1508 56.0541 37.159 56.1407C37.2551 57.6341 38.2897 59.111 40.2603 60.2524Z" fill="#EF8809"/>
<path d="M40.2601 57.5226C44.4057 59.9208 51.1286 59.9208 55.2756 57.5226C59.4226 55.1244 59.4213 51.2342 55.2756 48.8346C51.1299 46.435 44.4071 46.4364 40.2601 48.8346C36.1131 51.2328 36.1144 55.123 40.2601 57.5226Z" fill="#FF9E23"/>
<path d="M40.6211 57.3136C44.5678 59.5963 50.9681 59.5963 54.9148 57.3136C58.8614 55.0309 58.8614 51.3277 54.9148 49.0436C50.9681 46.7595 44.5678 46.7609 40.6211 49.0436C36.6744 51.3263 36.6731 55.0295 40.6211 57.3136Z" fill="#FFB43F"/>
<path d="M41.8476 56.6043C45.1178 58.4951 50.4175 58.4951 53.6876 56.6043C56.9578 54.7135 56.9564 51.6456 53.6876 49.7548C50.4189 47.864 45.1178 47.8626 41.849 49.7548C38.5802 51.647 38.5788 54.7121 41.8476 56.6043Z" fill="#E68913"/>
<path d="M41.8491 50.1948C45.1179 48.3026 50.4177 48.3026 53.6878 50.1948C55.2247 51.0845 56.0385 52.2341 56.1305 53.3988C56.0385 54.5636 55.2247 55.7132 53.6878 56.6042C50.4177 58.495 45.1179 58.495 41.8478 56.6042C40.3108 55.7145 39.497 54.5649 39.4051 53.3988C39.497 52.2341 40.3108 51.0845 41.8491 50.1948Z" fill="#FF9E23"/>
<path d="M43.6867 50.5702L44.0394 50.7737C47.0584 49.1841 51.3578 51.2839 48.9618 53.6079L50.9968 54.785C51.2517 54.576 51.4519 54.3079 51.58 54.0039C51.7173 53.6533 52.2744 53.414 52.8906 53.4539C53.4848 53.4924 53.9294 53.5845 53.9651 53.909C53.9738 54.0454 53.9613 54.1822 53.928 54.3147C53.6235 54.8991 53.1507 55.3782 52.5709 55.6898L52.9743 55.6307C53.0498 55.6747 53.0196 55.9841 53.0196 56.0432C53.0164 56.0774 53.0041 56.1101 52.9841 56.1379C52.9641 56.1657 52.937 56.1876 52.9057 56.2014L52.4652 56.4558C52.3803 56.4996 52.2862 56.5224 52.1907 56.5224C52.0953 56.5224 52.0012 56.4996 51.9163 56.4558L51.5691 56.255C49.8551 56.9426 48.1205 56.9426 46.7798 56.1684C45.5118 55.435 45.4126 54.4875 46.482 53.326L44.7324 52.3139C44.6411 52.4175 44.5673 52.5356 44.5142 52.6632C44.3646 53.0083 43.7951 53.2352 43.1858 53.1967C42.3954 53.1472 41.863 52.6467 42.1319 52.2094C42.3295 51.8918 42.6479 51.6346 43.0431 51.3582L42.6795 51.1478C42.65 51.1349 42.6248 51.1141 42.6066 51.0876C42.5884 51.0611 42.578 51.03 42.5765 50.9979C42.5765 50.947 42.5381 50.6308 42.604 50.5854L43.1858 50.5593C43.2642 50.5211 43.3505 50.5022 43.4376 50.5041C43.5247 50.506 43.6101 50.5287 43.6867 50.5702V50.5702ZM45.6861 51.7116L47.175 52.5738C47.6512 51.9976 46.7455 51.4132 45.6861 51.7116V51.7116ZM49.8949 55.3034L48.3195 54.3917C47.7583 55.0807 48.8781 55.6541 49.8949 55.3034V55.3034Z" fill="#E68913"/>
<path d="M43.6868 50.2402L44.0395 50.4437C47.0585 48.854 51.3579 50.9538 48.9619 53.2778L50.9969 54.4549C51.2518 54.2459 51.452 53.9778 51.5802 53.6738C51.7174 53.3232 52.2745 53.0839 52.8907 53.1238C53.6153 53.1706 54.1162 53.5776 53.9282 53.9846C53.6236 54.569 53.1508 55.0482 52.571 55.3598L52.9058 55.5536C52.9391 55.5645 52.968 55.5857 52.9886 55.6141C53.0091 55.6425 53.0202 55.6767 53.0202 55.7118C53.0202 55.7469 53.0091 55.7811 52.9886 55.8095C52.968 55.8379 52.9391 55.859 52.9058 55.8699L52.4653 56.1243C52.3804 56.1681 52.2863 56.1909 52.1909 56.1909C52.0954 56.1909 52.0013 56.1681 51.9164 56.1243L51.5692 55.9235C49.8552 56.6111 48.1207 56.6111 46.7799 55.8369C45.512 55.1035 45.4127 54.1561 46.4822 52.9945L44.7325 51.9824C44.6412 52.0861 44.5675 52.2041 44.5143 52.3317C44.3647 52.6755 43.7952 52.9038 43.1859 52.8653C42.3955 52.8157 41.8836 52.351 42.1526 51.9192C42.3866 51.5648 42.6895 51.2612 43.0432 51.0267L42.6796 50.8163C42.6496 50.806 42.6235 50.7866 42.605 50.7607C42.5866 50.7348 42.5767 50.7037 42.5767 50.6719C42.5767 50.6401 42.5866 50.6091 42.605 50.5832C42.6235 50.5573 42.6496 50.5379 42.6796 50.5275L43.1859 50.2347C43.2639 50.1957 43.35 50.1758 43.437 50.1768C43.5241 50.1778 43.6098 50.1995 43.6868 50.2402V50.2402ZM45.6862 51.3815L47.1752 52.2437C47.6514 51.6675 46.7456 51.0831 45.6862 51.3815V51.3815ZM49.895 54.9733L48.3197 54.0616C47.7584 54.752 48.8782 55.324 49.895 54.9733V54.9733Z" fill="#FFB43F"/>
<path d="M40.8502 56.4872C44.9958 58.8854 51.7187 58.8854 55.8643 56.4872C57.8143 55.3596 58.8476 53.902 58.9629 52.4251C58.9698 52.3357 58.9739 49.518 58.9753 49.4287C58.9753 47.8514 57.9447 49.0024 55.8643 47.7992C51.7187 45.4009 44.9958 45.4009 40.8502 47.7992C38.7918 48.99 37.753 47.8212 37.7406 49.3833C37.7406 49.4713 37.7406 52.2876 37.7406 52.3742C37.8449 53.8703 38.8782 55.3472 40.8502 56.4872Z" fill="#EF8809"/>
<path d="M40.8504 53.7576C44.996 56.1558 51.7188 56.1558 55.8645 53.7576C60.0101 51.3594 60.0115 47.4691 55.8645 45.0709C51.7175 42.6727 44.996 42.6713 40.8504 45.0709C36.7047 47.4705 36.7033 51.3594 40.8504 53.7576Z" fill="#FF9E23"/>
<path d="M41.2097 53.5486C45.1578 55.8327 51.5567 55.8327 55.5034 53.5486C59.4501 51.2645 59.4515 47.5626 55.5034 45.2799C51.5554 42.9972 45.1578 42.9958 41.2111 45.2799C37.2644 47.564 37.2631 51.2659 41.2097 53.5486Z" fill="#FFB43F"/>
<path d="M42.4368 52.8389C45.7056 54.7297 51.0067 54.7297 54.2754 52.8389C57.5442 50.9481 57.5442 47.8802 54.2754 45.9894C51.0067 44.0986 45.7056 44.0972 42.4368 45.9894C39.168 47.8816 39.1694 50.9468 42.4368 52.8389Z" fill="#E68913"/>
<path d="M42.4367 46.4296C45.7055 44.5388 51.0066 44.5388 54.2754 46.4296C55.8137 47.3193 56.6275 48.4689 56.7181 49.6336C56.6275 50.7997 55.8137 51.9493 54.2754 52.839C51.0066 54.7298 45.7055 54.7298 42.4367 52.839C40.8984 51.9493 40.0847 50.7997 39.9941 49.635C40.086 48.4689 40.8998 47.3193 42.4367 46.4296Z" fill="#FF9E23"/>
<path d="M24.0221 93.9964C23.9382 93.9895 23.8364 93.9688 23.7165 93.9342C23.5967 93.8996 23.4859 93.8528 23.3841 93.794C23.1924 93.6833 23.0995 93.5812 23.1055 93.4878C23.1115 93.3874 23.1774 93.3009 23.3032 93.2282L27.0773 91.0482C27.1612 91.0621 27.263 91.0863 27.3828 91.1209C27.5086 91.152 27.6224 91.197 27.7243 91.2558C27.91 91.3631 27.9998 91.4669 27.9939 91.5673C27.9879 91.6607 27.922 91.7438 27.7962 91.8164L27.248 92.133C27.5296 92.3303 27.6883 92.5535 27.7243 92.8026C27.7542 93.0483 27.6344 93.3078 27.3648 93.5812L29.5484 93.3372C29.818 93.493 29.9708 93.6608 30.0067 93.8407C30.0486 94.0172 29.9348 94.1833 29.6652 94.339C29.5095 94.429 29.3238 94.4878 29.1081 94.5155C28.8984 94.5397 28.6798 94.5553 28.4521 94.5622L25.5766 94.6349C25.4448 94.6072 25.319 94.5588 25.1992 94.4895C24.9596 94.3511 24.8757 94.192 24.9476 94.012L25.4778 93.7058C25.6695 93.595 25.7773 93.4843 25.8013 93.3736C25.8252 93.2559 25.7893 93.1417 25.6935 93.031L24.0221 93.9964ZM22.5753 93.1608C22.4855 93.1504 22.3806 93.1279 22.2608 93.0933C22.141 93.0587 22.0302 93.012 21.9283 92.9532C21.7426 92.8459 21.6528 92.7455 21.6588 92.6521C21.6648 92.5517 21.7307 92.4652 21.8565 92.3926L25.6306 90.2126C25.7084 90.2229 25.8103 90.2472 25.9361 90.2852C26.0619 90.3164 26.1727 90.3596 26.2686 90.415C26.4603 90.5257 26.5531 90.6313 26.5471 90.7316C26.5411 90.825 26.4752 90.9081 26.3494 90.9807L22.5753 93.1608Z" fill="#E68913"/>
<path d="M24.1285 93.7215C24.0446 93.7146 23.9428 93.6938 23.823 93.6592C23.7031 93.6246 23.5923 93.5779 23.4905 93.5191C23.2988 93.4084 23.2059 93.3063 23.2119 93.2129C23.2179 93.1125 23.2838 93.026 23.4096 92.9533L27.1837 90.7733C27.2676 90.7871 27.3694 90.8114 27.4892 90.846C27.615 90.8771 27.7288 90.9221 27.8307 90.9809C28.0164 91.0882 28.1063 91.192 28.1003 91.2924C28.0943 91.3858 28.0284 91.4688 27.9026 91.5415L27.3544 91.8581C27.636 92.0554 27.7947 92.2786 27.8307 92.5277C27.8606 92.7734 27.7408 93.0329 27.4713 93.3063L29.6548 93.0623C29.9244 93.218 30.0772 93.3859 30.1131 93.5658C30.155 93.7423 30.0412 93.9084 29.7716 94.0641C29.6159 94.1541 29.4302 94.2129 29.2145 94.2406C29.0048 94.2648 28.7862 94.2804 28.5585 94.2873L25.683 94.36C25.5513 94.3323 25.4255 94.2838 25.3056 94.2146C25.066 94.0762 24.9821 93.917 25.054 93.7371L25.5842 93.4309C25.7759 93.3201 25.8837 93.2094 25.9077 93.0987C25.9317 92.981 25.8957 92.8668 25.7999 92.7561L24.1285 93.7215ZM22.6817 92.8859C22.5919 92.8755 22.4871 92.853 22.3672 92.8184C22.2474 92.7838 22.1366 92.7371 22.0348 92.6782C21.8491 92.571 21.7592 92.4706 21.7652 92.3772C21.7712 92.2768 21.8371 92.1903 21.9629 92.1177L25.737 89.9376C25.8148 89.948 25.9167 89.9722 26.0425 90.0103C26.1683 90.0414 26.2791 90.0847 26.375 90.1401C26.5667 90.2508 26.6595 90.3563 26.6535 90.4567C26.6475 90.5501 26.5816 90.6332 26.4558 90.7058L22.6817 92.8859Z" fill="#FFB43F"/>
<path d="M45.9114 50.9689C45.8275 50.9619 45.7257 50.9412 45.6059 50.9066C45.4861 50.872 45.3753 50.8253 45.2734 50.7664C45.0817 50.6557 44.9889 50.5536 44.9948 50.4602C45.0008 50.3598 45.0667 50.2733 45.1925 50.2007L48.9666 48.0206C49.0505 48.0345 49.1523 48.0587 49.2721 48.0933C49.398 48.1244 49.5118 48.1694 49.6136 48.2283C49.7993 48.3355 49.8892 48.4393 49.8832 48.5397C49.8772 48.6331 49.8113 48.7162 49.6855 48.7888L49.1374 49.1055C49.4189 49.3027 49.5777 49.5259 49.6136 49.775C49.6436 50.0207 49.5238 50.2802 49.2542 50.5536L51.4378 50.3097C51.7073 50.4654 51.8601 50.6332 51.896 50.8131C51.938 50.9896 51.8241 51.1557 51.5546 51.3114C51.3988 51.4014 51.2131 51.4602 50.9974 51.4879C50.7878 51.5121 50.5691 51.5277 50.3415 51.5346L47.466 51.6073C47.3342 51.5796 47.2084 51.5312 47.0886 51.462C46.8489 51.3235 46.7651 51.1644 46.837 50.9844L47.3671 50.6782C47.5588 50.5675 47.6667 50.4567 47.6906 50.346C47.7146 50.2283 47.6786 50.1142 47.5828 50.0034L45.9114 50.9689ZM44.4647 50.1332C44.3748 50.1228 44.27 50.1003 44.1502 50.0657C44.0304 50.0311 43.9195 49.9844 43.8177 49.9256C43.632 49.8183 43.5421 49.7179 43.5481 49.6245C43.5541 49.5242 43.62 49.4377 43.7458 49.365L47.5199 47.185C47.5978 47.1953 47.6996 47.2196 47.8254 47.2576C47.9512 47.2888 48.062 47.332 48.1579 47.3874C48.3496 47.4981 48.4424 47.6037 48.4365 47.704C48.4305 47.7974 48.3646 47.8805 48.2388 47.9532L44.4647 50.1332Z" fill="#E68913"/>
<path d="M46.0178 50.6939C45.934 50.687 45.8321 50.6663 45.7123 50.6317C45.5925 50.5971 45.4817 50.5503 45.3798 50.4915C45.1881 50.3808 45.0953 50.2787 45.1013 50.1853C45.1073 50.0849 45.1731 49.9984 45.299 49.9257L49.073 47.7457C49.1569 47.7596 49.2588 47.7838 49.3786 47.8184C49.5044 47.8495 49.6182 47.8945 49.72 47.9533C49.9057 48.0606 49.9956 48.1644 49.9896 48.2648C49.9836 48.3582 49.9177 48.4412 49.7919 48.5139L49.2438 48.8305C49.5253 49.0278 49.6841 49.251 49.72 49.5001C49.75 49.7458 49.6302 50.0053 49.3606 50.2787L51.5442 50.0347C51.8137 50.1905 51.9665 50.3583 52.0025 50.5382C52.0444 50.7147 51.9306 50.8808 51.661 51.0365C51.5052 51.1265 51.3195 51.1853 51.1039 51.213C50.8942 51.2372 50.6755 51.2528 50.4479 51.2597L47.5724 51.3324C47.4406 51.3047 47.3148 51.2562 47.195 51.187C46.9554 51.0486 46.8715 50.8895 46.9434 50.7095L47.4735 50.4033C47.6652 50.2925 47.7731 50.1818 47.797 50.0711C47.821 49.9534 47.7851 49.8392 47.6892 49.7285L46.0178 50.6939ZM44.5711 49.8583C44.4812 49.8479 44.3764 49.8254 44.2566 49.7908C44.1368 49.7562 44.0259 49.7095 43.9241 49.6506C43.7384 49.5434 43.6485 49.443 43.6545 49.3496C43.6605 49.2492 43.7264 49.1627 43.8522 49.0901L47.6263 46.91C47.7042 46.9204 47.806 46.9446 47.9318 46.9827C48.0576 47.0139 48.1685 47.0571 48.2643 47.1125C48.456 47.2232 48.5489 47.3287 48.5429 47.4291C48.5369 47.5225 48.471 47.6056 48.3452 47.6782L44.5711 49.8583Z" fill="#FFB43F"/>
</svg>
