<svg width="153" height="37" viewBox="0 0 153 37" fill="none" xmlns="http://www.w3.org/2000/svg">
<g clip-path="url(#clip0_3562_86)">
<path d="M57.3016 21.4458H57.2494L54.387 9.85529H50.9509L48.0534 21.3063H48.0011L45.3487 9.87236H41.6665L46.0992 26.6893H49.8166L52.6086 15.2563H52.6609L55.4881 26.6884H59.1351L63.6381 9.87236H60.0234L57.3007 21.4467L57.3016 21.4458ZM74.8576 15.5542C74.5261 15.1159 74.0729 14.7829 73.5143 14.5372C72.9377 14.2915 72.2052 14.1691 71.3322 14.1691C70.7052 14.1691 70.0763 14.3266 69.4132 14.6596C68.7501 14.9755 68.2257 15.5011 67.7896 16.2032H67.7203V9.87236H64.3867V26.6893H67.7203V20.3064C67.7203 19.0607 67.9293 18.1841 68.3311 17.6405C68.732 17.0969 69.3951 16.8341 70.3033 16.8341C71.1061 16.8341 71.6466 17.0798 71.9611 17.5703C72.2746 18.0617 72.4323 18.8159 72.4323 19.8149V26.6893H75.7649V19.2011C75.7682 18.5128 75.7039 17.8258 75.573 17.15C75.4162 16.5181 75.1892 15.9925 74.8576 15.5542ZM88.5566 23.9713V17.6405C88.5566 16.9043 88.3999 16.3085 88.0683 15.8692C87.7358 15.4138 87.3178 15.0808 86.8115 14.8171C86.2707 14.5617 85.694 14.3903 85.1015 14.3086C84.4885 14.2248 83.8705 14.1839 83.2518 14.1862C82.5887 14.1862 81.9076 14.2564 81.2445 14.3788C80.5814 14.5192 79.9886 14.7298 79.4471 15.0457C78.9227 15.357 78.4756 15.7825 78.1389 16.2904C77.7893 16.817 77.5974 17.4659 77.5452 18.2372H80.8787C80.9481 17.5703 81.1571 17.1149 81.5418 16.817C81.9076 16.5362 82.432 16.3957 83.0951 16.3957C83.3915 16.3957 83.6708 16.4128 83.932 16.4479C84.1942 16.483 84.4213 16.5713 84.6132 16.6756C84.8051 16.799 84.9618 16.9564 85.0844 17.1671C85.206 17.3777 85.2582 17.6585 85.2582 18.0266C85.2763 18.3776 85.1718 18.6404 84.9618 18.8159C84.697 19.0117 84.3936 19.1492 84.0717 19.2191C83.7059 19.3064 83.2689 19.3766 82.7797 19.4297C82.2923 19.4819 81.8031 19.5341 81.2977 19.6223C80.7913 19.6925 80.3021 19.8149 79.8138 19.9383C79.348 20.0649 78.9059 20.2661 78.5047 20.5341C78.1209 20.7969 77.8074 21.1659 77.5623 21.6042C77.3181 22.0596 77.1965 22.6212 77.1965 23.3053C77.1965 23.9362 77.301 24.4798 77.51 24.9352C77.719 25.3915 78.0164 25.7605 78.3831 26.0575C78.7498 26.3563 79.2029 26.584 79.6922 26.7244C80.2208 26.8686 80.7668 26.9391 81.3148 26.9341C82.0653 26.9341 82.7977 26.8298 83.5131 26.6021C84.2294 26.3744 84.8573 26.0044 85.3808 25.4446C85.3979 25.6543 85.4159 25.8478 85.4682 26.0404C85.5033 26.233 85.5556 26.4265 85.6249 26.6191H88.9936C88.8359 26.3734 88.7314 25.9873 88.6611 25.4968C88.5885 24.9916 88.5536 24.4817 88.5566 23.9713V23.9713ZM85.2411 21.9723C85.2411 22.1649 85.224 22.4106 85.1889 22.7256C85.1509 23.0541 85.0441 23.3709 84.8754 23.6553C84.7006 23.9532 84.4384 24.217 84.0717 24.4447C83.7059 24.6724 83.1996 24.7777 82.5536 24.7777C82.2923 24.7777 82.0301 24.7606 81.786 24.7075C81.552 24.6656 81.3275 24.5824 81.1229 24.4618C80.9331 24.3384 80.7771 24.1698 80.6688 23.9713C80.558 23.7356 80.5043 23.4772 80.512 23.217C80.512 22.9011 80.5643 22.6383 80.6688 22.4457C80.7733 22.2351 80.931 22.0776 81.1058 21.9372C81.2915 21.7911 81.5047 21.6836 81.7328 21.6213C81.9779 21.5511 82.222 21.4809 82.4662 21.4287C82.7284 21.3756 82.9896 21.3405 83.2689 21.3054C83.5311 21.2703 83.7924 21.2352 84.0375 21.183C84.2816 21.1308 84.5077 21.0786 84.7177 21.0075C84.9103 20.944 85.0883 20.8428 85.2411 20.7096V21.9714V21.9723ZM94.7696 10.8543H91.4361V14.5021H89.4297V16.7468H91.4361V23.9191C91.4361 24.532 91.5406 25.0234 91.7334 25.4086C91.9316 25.7685 92.22 26.0709 92.5704 26.2861C92.92 26.4958 93.3209 26.6182 93.7921 26.6893C94.2462 26.7595 94.7345 26.7937 95.2579 26.7937C95.5895 26.7937 95.921 26.7937 96.2706 26.7766C96.6193 26.7595 96.9337 26.7244 97.213 26.6893V24.0936C97.0515 24.1268 96.8881 24.1503 96.7238 24.1639C96.5499 24.1819 96.3751 24.1819 96.1832 24.1819C95.6246 24.1819 95.2408 24.0936 95.066 23.9011C94.8741 23.7085 94.7867 23.3394 94.7867 22.7787V16.7468H97.2301V14.5021H94.7867V10.8533H94.7696V10.8543ZM108.521 21.3405C108.302 20.9608 108.005 20.6322 107.649 20.3766C107.274 20.108 106.863 19.8951 106.427 19.7447C105.962 19.5897 105.49 19.4552 105.013 19.3415C104.542 19.2372 104.088 19.1309 103.635 19.0436C103.226 18.9678 102.824 18.8622 102.43 18.7277C102.082 18.6044 101.802 18.4649 101.575 18.2723C101.467 18.1829 101.381 18.07 101.324 17.9422C101.266 17.8144 101.239 17.6752 101.244 17.5352C101.244 17.2904 101.296 17.0798 101.436 16.9394C101.559 16.7947 101.715 16.6806 101.89 16.6064C102.064 16.5362 102.274 16.483 102.483 16.4479C102.71 16.4309 102.902 16.4128 103.094 16.4128C103.687 16.4128 104.211 16.5181 104.647 16.7468C105.083 16.9745 105.328 17.4128 105.38 18.0437H108.539C108.469 17.2904 108.277 16.6766 107.962 16.1681C107.658 15.6836 107.246 15.2755 106.759 14.9755C106.249 14.6667 105.687 14.4527 105.101 14.3437C104.474 14.2172 103.837 14.1526 103.198 14.1511C102.535 14.1511 101.907 14.2042 101.279 14.3266C100.65 14.4499 100.092 14.6425 99.5861 14.9404C99.0867 15.2255 98.6713 15.6368 98.3815 16.133C98.0851 16.6415 97.9284 17.2724 97.9284 18.0617C97.9284 18.5873 98.0329 19.0436 98.2599 19.4117C98.4689 19.7798 98.7663 20.0787 99.132 20.3234C99.4987 20.5701 99.9006 20.7618 100.372 20.9202C100.825 21.0777 101.296 21.201 101.785 21.3054C102.972 21.552 103.896 21.8139 104.559 22.0596C105.222 22.3053 105.554 22.6914 105.554 23.1819C105.554 23.4798 105.485 23.7255 105.345 23.9181C105.205 24.1117 105.031 24.2692 104.822 24.3925C104.604 24.5155 104.368 24.6042 104.123 24.6553C103.883 24.7082 103.637 24.7374 103.391 24.7426C103.058 24.7426 102.745 24.7075 102.448 24.6192C102.158 24.5552 101.884 24.43 101.646 24.2521C101.41 24.0851 101.214 23.8696 101.069 23.6202C100.917 23.3342 100.839 23.0145 100.843 22.6905H97.6842C97.7184 23.5159 97.8932 24.1819 98.2419 24.7255C98.5652 25.2574 99.0074 25.7075 99.5339 26.0404C100.057 26.3734 100.65 26.6011 101.331 26.7425C102.009 26.8834 102.699 26.9536 103.391 26.9521C104.071 26.9521 104.751 26.8819 105.414 26.7595C106.077 26.6191 106.671 26.3914 107.178 26.0575C107.701 25.7254 108.102 25.2862 108.433 24.7606C108.748 24.217 108.905 23.55 108.905 22.7436C108.835 22.2 108.731 21.7266 108.521 21.3405V21.3405ZM115.118 9.87236L108.8 26.6893H112.5L113.809 22.9542H120.057L121.313 26.6893H125.134L118.887 9.87236H115.118V9.87236ZM114.769 20.183L116.95 14.0107H117.002L119.114 20.183H114.769V20.183ZM136.652 16.151C136.192 15.5546 135.609 15.064 134.942 14.7127C134.262 14.3437 133.441 14.1691 132.482 14.1691C131.731 14.1691 131.05 14.3086 130.422 14.6074C129.794 14.9053 129.288 15.3787 128.869 16.0447H128.817V14.4841H125.658V30.9159H128.991V25.1458H129.044C129.429 25.7287 129.966 26.1958 130.597 26.4968C131.225 26.7946 131.923 26.9521 132.674 26.9521C133.564 26.9521 134.348 26.7766 135.012 26.4265C135.66 26.0932 136.227 25.6201 136.67 25.0414C137.123 24.4627 137.438 23.7958 137.665 23.0415C137.874 22.2873 137.996 21.4989 137.996 20.6915C138.001 19.8505 137.889 19.0128 137.665 18.2021C137.445 17.4661 137.103 16.7724 136.652 16.15V16.151ZM134.506 22.0596C134.426 22.4972 134.26 22.9145 134.017 23.2872C133.791 23.6383 133.494 23.9362 133.127 24.1468C132.761 24.3745 132.307 24.4788 131.766 24.4788C131.243 24.4788 130.789 24.3745 130.405 24.1468C130.035 23.9411 129.723 23.6454 129.498 23.2872C129.271 22.9362 129.113 22.5159 129.009 22.0596C128.904 21.5876 128.851 21.1057 128.852 20.6223C128.852 20.1138 128.904 19.6394 128.991 19.166C129.079 18.6926 129.253 18.2723 129.48 17.9213C129.707 17.5532 130.003 17.2724 130.37 17.0447C130.737 16.817 131.19 16.6936 131.731 16.6936C132.255 16.6936 132.709 16.817 133.075 17.0447C133.441 17.2724 133.738 17.5703 133.983 17.9384C134.209 18.3074 134.384 18.7277 134.488 19.2011C134.594 19.6755 134.646 20.1479 134.646 20.6394C134.646 21.1128 134.611 21.5862 134.506 22.0596V22.0596ZM150.91 18.2363C150.683 17.4479 150.351 16.7468 149.898 16.15C149.438 15.5542 148.855 15.064 148.188 14.7127C147.507 14.3437 146.687 14.1691 145.727 14.1691C144.976 14.1691 144.296 14.3086 143.668 14.6074C143.039 14.9053 142.534 15.3787 142.115 16.0447H142.062V14.4841H138.904V30.9159H142.236V25.1458H142.29C142.674 25.7287 143.211 26.1957 143.842 26.4968C144.491 26.8014 145.201 26.957 145.919 26.9521C146.809 26.9521 147.577 26.7766 148.257 26.4265C148.906 26.0934 149.472 25.6202 149.915 25.0414C150.377 24.4476 150.715 23.7677 150.91 23.0415C151.135 22.2786 151.246 21.4868 151.241 20.6915C151.241 19.85 151.12 19.0265 150.91 18.2372V18.2363ZM147.769 22.0596C147.687 22.4937 147.527 22.9095 147.298 23.2872C147.071 23.6383 146.775 23.9362 146.408 24.1468C146.041 24.3745 145.587 24.4788 145.046 24.4788C144.523 24.4788 144.069 24.3745 143.685 24.1468C143.315 23.9408 143.003 23.6452 142.778 23.2872C142.551 22.9362 142.394 22.5159 142.29 22.0596C142.184 21.5878 142.131 21.1057 142.132 20.6223C142.132 20.1138 142.184 19.6394 142.271 19.166C142.352 18.7232 142.518 18.3003 142.761 17.9213C142.987 17.5532 143.284 17.2724 143.65 17.0447C144.017 16.817 144.471 16.6936 145.029 16.6936C145.553 16.6936 146.006 16.817 146.373 17.0447C146.739 17.2724 147.036 17.5703 147.28 17.9384C147.507 18.3074 147.682 18.7277 147.786 19.2011C147.891 19.6755 147.943 20.1479 147.943 20.6394C147.909 21.1128 147.856 21.5862 147.769 22.0596V22.0596Z" fill="#999999"/>
<path d="M1.61456 35.6851L4.05796 26.7596C2.55574 24.1381 1.76767 21.1693 1.77226 18.149C1.75421 8.62765 9.45016 0.894653 18.9093 0.894653C23.4988 0.894653 27.8089 2.68299 31.0551 5.94468C34.3012 9.20637 36.0806 13.5373 36.0806 18.149C36.0806 27.6532 28.3856 35.3872 18.9264 35.3872C16.0583 35.3909 13.2362 34.6668 10.7251 33.2829L1.61456 35.6851V35.6851ZM11.1269 30.1787L11.6504 30.4947C13.8462 31.801 16.3543 32.4916 18.9103 32.4936C26.763 32.4936 33.1679 26.0575 33.1679 18.167C33.1679 14.3437 31.6849 10.7319 28.9974 8.03091C26.3079 5.33181 22.7131 3.82335 18.9084 3.82335C11.0376 3.82335 4.63271 10.2594 4.63271 18.1499C4.63271 20.8509 5.38321 23.4988 6.81486 25.7776L7.14641 26.3222L5.69766 31.6179L11.125 30.1797L11.1269 30.1787Z" fill="#F9F9F9"/>
<path d="M2.20831 35.0884L4.56431 26.4617C3.11155 23.9315 2.34743 21.0656 2.34796 18.149C2.34796 8.97869 9.78266 1.50848 18.9093 1.50848C23.342 1.50848 27.4954 3.24464 30.6361 6.383C32.1796 7.92944 33.4025 9.76464 34.235 11.7836C35.0675 13.8025 35.4932 15.9656 35.4878 18.149C35.4878 27.3203 28.054 34.7905 18.9264 34.7905C16.1524 34.7905 13.4297 34.0884 11.0034 32.7564L2.20831 35.0884V35.0884Z" fill="#999999"/>
<path d="M1.61456 35.6851L4.05796 26.7596C2.55574 24.1381 1.76767 21.1693 1.77226 18.149C1.75421 8.62765 9.45016 0.894653 18.9093 0.894653C23.4988 0.894653 27.8089 2.68299 31.0551 5.94468C34.3012 9.20637 36.0806 13.5373 36.0806 18.149C36.0806 27.6532 28.3856 35.3872 18.9264 35.3872C16.0583 35.3909 13.2362 34.6668 10.7251 33.2829L1.61456 35.6851V35.6851ZM11.1269 30.1787L11.6504 30.4947C13.8462 31.801 16.3543 32.4916 18.9103 32.4936C26.763 32.4936 33.1679 26.0575 33.1679 18.167C33.1679 14.3437 31.6849 10.7319 28.9974 8.03091C26.3079 5.33181 22.7131 3.82335 18.9084 3.82335C11.0376 3.82335 4.63271 10.2594 4.63271 18.1499C4.63271 20.8509 5.38321 23.4988 6.81486 25.7776L7.14641 26.3222L5.69766 31.6179L11.125 30.1797L11.1269 30.1787Z" fill="#F9F9F9"/>
<path fill-rule="evenodd" clip-rule="evenodd" d="M14.6333 10.9245C14.3198 10.2054 13.9702 10.1883 13.6738 10.1883C13.4116 10.1703 13.1323 10.1703 12.8359 10.1703C12.5566 10.1703 12.0854 10.2756 11.6845 10.7139C11.2827 11.1522 10.1835 12.1873 10.1835 14.3095C10.1835 16.4309 11.7197 18.483 11.9287 18.7628C12.1377 19.0436 14.8955 23.533 19.2579 25.2691C22.8879 26.7064 23.6213 26.4266 24.4069 26.3383C25.1916 26.2511 26.9368 25.3042 27.3035 24.2863C27.6521 23.2873 27.6521 22.4106 27.5476 22.2351C27.4431 22.0596 27.1458 21.9543 26.7268 21.7266C26.2908 21.516 24.197 20.4648 23.7951 20.3235C23.3942 20.1831 23.1149 20.1129 22.8356 20.5341C22.5563 20.9724 21.7365 21.9372 21.4743 22.2171C21.2301 22.4979 20.9689 22.533 20.5499 22.3224C20.1129 22.1127 18.7354 21.6564 17.0938 20.1831C15.8208 19.0436 14.9658 17.6234 14.7036 17.2022C14.4595 16.7639 14.6685 16.5362 14.8955 16.3256C15.0874 16.133 15.3325 15.8171 15.5415 15.5713C15.7505 15.3256 15.8199 15.133 15.9776 14.8522C16.1172 14.5723 16.0469 14.3086 15.9424 14.0989C15.8379 13.9054 15.0171 11.7841 14.6333 10.9245V10.9245Z" fill="#F9F9F9"/>
</g>
<defs>
<clipPath id="clip0_3562_86">
<rect width="152" height="37" fill="white" transform="translate(0.410889)"/>
</clipPath>
</defs>
</svg>
